G04 #@! TF.GenerationSoftware,KiCad,Pcbnew,7.0.5-0*
G04 #@! TF.CreationDate,2023-12-30T21:45:12-05:00*
G04 #@! TF.ProjectId,boostlet,626f6f73-746c-4657-942e-6b696361645f,rev?*
G04 #@! TF.SameCoordinates,Original*
G04 #@! TF.FileFunction,Soldermask,Top*
G04 #@! TF.FilePolarity,Negative*
%FSLAX46Y46*%
G04 Gerber Fmt 4.6, Leading zero omitted, Abs format (unit mm)*
G04 Created by KiCad (PCBNEW 7.0.5-0) date 2023-12-30 21:45:12*
%MOMM*%
%LPD*%
G01*
G04 APERTURE LIST*
G04 Aperture macros list*
%AMRoundRect*
0 Rectangle with rounded corners*
0 $1 Rounding radius*
0 $2 $3 $4 $5 $6 $7 $8 $9 X,Y pos of 4 corners*
0 Add a 4 corners polygon primitive as box body*
4,1,4,$2,$3,$4,$5,$6,$7,$8,$9,$2,$3,0*
0 Add four circle primitives for the rounded corners*
1,1,$1+$1,$2,$3*
1,1,$1+$1,$4,$5*
1,1,$1+$1,$6,$7*
1,1,$1+$1,$8,$9*
0 Add four rect primitives between the rounded corners*
20,1,$1+$1,$2,$3,$4,$5,0*
20,1,$1+$1,$4,$5,$6,$7,0*
20,1,$1+$1,$6,$7,$8,$9,0*
20,1,$1+$1,$8,$9,$2,$3,0*%
%AMOutline5P*
0 Free polygon, 5 corners , with rotation*
0 The origin of the aperture is its center*
0 number of corners: always 5*
0 $1 to $10 corner X, Y*
0 $11 Rotation angle, in degrees counterclockwise*
0 create outline with 5 corners*
4,1,5,$1,$2,$3,$4,$5,$6,$7,$8,$9,$10,$1,$2,$11*%
%AMOutline6P*
0 Free polygon, 6 corners , with rotation*
0 The origin of the aperture is its center*
0 number of corners: always 6*
0 $1 to $12 corner X, Y*
0 $13 Rotation angle, in degrees counterclockwise*
0 create outline with 6 corners*
4,1,6,$1,$2,$3,$4,$5,$6,$7,$8,$9,$10,$11,$12,$1,$2,$13*%
%AMOutline7P*
0 Free polygon, 7 corners , with rotation*
0 The origin of the aperture is its center*
0 number of corners: always 7*
0 $1 to $14 corner X, Y*
0 $15 Rotation angle, in degrees counterclockwise*
0 create outline with 7 corners*
4,1,7,$1,$2,$3,$4,$5,$6,$7,$8,$9,$10,$11,$12,$13,$14,$1,$2,$15*%
%AMOutline8P*
0 Free polygon, 8 corners , with rotation*
0 The origin of the aperture is its center*
0 number of corners: always 8*
0 $1 to $16 corner X, Y*
0 $17 Rotation angle, in degrees counterclockwise*
0 create outline with 8 corners*
4,1,8,$1,$2,$3,$4,$5,$6,$7,$8,$9,$10,$11,$12,$13,$14,$15,$16,$1,$2,$17*%
%AMFreePoly0*
4,1,19,0.500000,-0.750000,0.000000,-0.750000,0.000000,-0.744911,-0.071157,-0.744911,-0.207708,-0.704816,-0.327430,-0.627875,-0.420627,-0.520320,-0.479746,-0.390866,-0.500000,-0.250000,-0.500000,0.250000,-0.479746,0.390866,-0.420627,0.520320,-0.327430,0.627875,-0.207708,0.704816,-0.071157,0.744911,0.000000,0.744911,0.000000,0.750000,0.500000,0.750000,0.500000,-0.750000,0.500000,-0.750000,
$1*%
%AMFreePoly1*
4,1,19,0.000000,0.744911,0.071157,0.744911,0.207708,0.704816,0.327430,0.627875,0.420627,0.520320,0.479746,0.390866,0.500000,0.250000,0.500000,-0.250000,0.479746,-0.390866,0.420627,-0.520320,0.327430,-0.627875,0.207708,-0.704816,0.071157,-0.744911,0.000000,-0.744911,0.000000,-0.750000,-0.500000,-0.750000,-0.500000,0.750000,0.000000,0.750000,0.000000,0.744911,0.000000,0.744911,
$1*%
G04 Aperture macros list end*
%ADD10RoundRect,0.250000X-1.750000X-1.000000X1.750000X-1.000000X1.750000X1.000000X-1.750000X1.000000X0*%
%ADD11FreePoly0,0.000000*%
%ADD12FreePoly1,0.000000*%
%ADD13RoundRect,0.250000X0.625000X-0.400000X0.625000X0.400000X-0.625000X0.400000X-0.625000X-0.400000X0*%
%ADD14R,0.381000X1.041400*%
%ADD15RoundRect,0.250000X-0.400000X-0.625000X0.400000X-0.625000X0.400000X0.625000X-0.400000X0.625000X0*%
%ADD16RoundRect,0.425000X1.425000X0.425000X-1.425000X0.425000X-1.425000X-0.425000X1.425000X-0.425000X0*%
%ADD17Outline8P,-1.850000X0.340000X-1.340000X0.850000X1.340000X0.850000X1.850000X0.340000X1.850000X-0.340000X1.340000X-0.850000X-1.340000X-0.850000X-1.850000X-0.340000X180.000000*%
%ADD18FreePoly0,180.000000*%
%ADD19FreePoly1,180.000000*%
%ADD20C,2.000000*%
%ADD21RoundRect,0.250000X-0.625000X0.400000X-0.625000X-0.400000X0.625000X-0.400000X0.625000X0.400000X0*%
%ADD22RoundRect,0.250000X-0.650000X0.412500X-0.650000X-0.412500X0.650000X-0.412500X0.650000X0.412500X0*%
%ADD23RoundRect,0.225000X-0.375000X0.225000X-0.375000X-0.225000X0.375000X-0.225000X0.375000X0.225000X0*%
%ADD24RoundRect,0.150000X0.150000X-0.587500X0.150000X0.587500X-0.150000X0.587500X-0.150000X-0.587500X0*%
%ADD25RoundRect,0.250000X0.400000X1.450000X-0.400000X1.450000X-0.400000X-1.450000X0.400000X-1.450000X0*%
%ADD26RoundRect,0.250000X0.412500X0.650000X-0.412500X0.650000X-0.412500X-0.650000X0.412500X-0.650000X0*%
%ADD27FreePoly0,90.000000*%
%ADD28FreePoly1,90.000000*%
%ADD29RoundRect,0.250000X-0.412500X-0.650000X0.412500X-0.650000X0.412500X0.650000X-0.412500X0.650000X0*%
%ADD30RoundRect,0.150000X-0.150000X0.512500X-0.150000X-0.512500X0.150000X-0.512500X0.150000X0.512500X0*%
%ADD31RoundRect,0.250000X0.650000X-0.412500X0.650000X0.412500X-0.650000X0.412500X-0.650000X-0.412500X0*%
%ADD32R,2.209800X4.064000*%
%ADD33RoundRect,0.250000X1.000000X-1.750000X1.000000X1.750000X-1.000000X1.750000X-1.000000X-1.750000X0*%
%ADD34RoundRect,0.425000X0.425000X-1.425000X0.425000X1.425000X-0.425000X1.425000X-0.425000X-1.425000X0*%
%ADD35Outline8P,-1.850000X0.340000X-1.340000X0.850000X1.340000X0.850000X1.850000X0.340000X1.850000X-0.340000X1.340000X-0.850000X-1.340000X-0.850000X-1.850000X-0.340000X90.000000*%
%ADD36RoundRect,0.425000X-1.425000X-0.425000X1.425000X-0.425000X1.425000X0.425000X-1.425000X0.425000X0*%
%ADD37Outline8P,-1.850000X0.340000X-1.340000X0.850000X1.340000X0.850000X1.850000X0.340000X1.850000X-0.340000X1.340000X-0.850000X-1.340000X-0.850000X-1.850000X-0.340000X0.000000*%
%ADD38RoundRect,0.250000X-1.450000X0.400000X-1.450000X-0.400000X1.450000X-0.400000X1.450000X0.400000X0*%
G04 APERTURE END LIST*
D10*
G04 #@! TO.C,C1*
X123000000Y-103886000D03*
X131000000Y-103886000D03*
G04 #@! TD*
D11*
G04 #@! TO.C,JP2*
X139050000Y-81661000D03*
D12*
X140350000Y-81661000D03*
G04 #@! TD*
D13*
G04 #@! TO.C,R8*
X127000000Y-84608000D03*
X127000000Y-81508000D03*
G04 #@! TD*
D14*
G04 #@! TO.C,U1*
X117388640Y-90004900D03*
X118038880Y-90004900D03*
X118689120Y-90004900D03*
X119339360Y-90004900D03*
X119339360Y-85763100D03*
X118689120Y-85763100D03*
X118038880Y-85763100D03*
X117388640Y-85763100D03*
G04 #@! TD*
D15*
G04 #@! TO.C,R3*
X109448000Y-94488000D03*
X112548000Y-94488000D03*
G04 #@! TD*
D16*
G04 #@! TO.C,J3*
X142637000Y-108204000D03*
X142637000Y-105664000D03*
D17*
X142637000Y-103124000D03*
D16*
X142637000Y-100584000D03*
X142637000Y-98044000D03*
G04 #@! TD*
D18*
G04 #@! TO.C,JP3*
X137175000Y-84582000D03*
D19*
X135875000Y-84582000D03*
G04 #@! TD*
D20*
G04 #@! TO.C,FID1*
X105156000Y-110490000D03*
G04 #@! TD*
D13*
G04 #@! TO.C,R9*
X124460000Y-96546000D03*
X124460000Y-93446000D03*
G04 #@! TD*
D21*
G04 #@! TO.C,R7*
X123190000Y-81508000D03*
X123190000Y-84608000D03*
G04 #@! TD*
D15*
G04 #@! TO.C,R1*
X134848000Y-107696000D03*
X137948000Y-107696000D03*
G04 #@! TD*
D22*
G04 #@! TO.C,C6*
X141224000Y-91147500D03*
X141224000Y-94272500D03*
G04 #@! TD*
D23*
G04 #@! TO.C,D1*
X127508000Y-87250000D03*
X127508000Y-90550000D03*
G04 #@! TD*
D20*
G04 #@! TO.C,FID3*
X136525000Y-81407000D03*
G04 #@! TD*
D24*
G04 #@! TO.C,Q1*
X135448000Y-104823500D03*
X137348000Y-104823500D03*
X136398000Y-102948500D03*
G04 #@! TD*
D25*
G04 #@! TO.C,F1*
X113223000Y-90678000D03*
X108773000Y-90678000D03*
G04 #@! TD*
D24*
G04 #@! TO.C,Q2*
X116906000Y-104315500D03*
X118806000Y-104315500D03*
X117856000Y-102440500D03*
G04 #@! TD*
D15*
G04 #@! TO.C,R2*
X134848000Y-99822000D03*
X137948000Y-99822000D03*
G04 #@! TD*
D11*
G04 #@! TO.C,JP1*
X110348000Y-87376000D03*
D12*
X111648000Y-87376000D03*
G04 #@! TD*
D15*
G04 #@! TO.C,R4*
X116814000Y-107696000D03*
X119914000Y-107696000D03*
G04 #@! TD*
D26*
G04 #@! TO.C,C8*
X138976500Y-90170000D03*
X135851500Y-90170000D03*
G04 #@! TD*
D27*
G04 #@! TO.C,JP4*
X139827000Y-86883000D03*
D28*
X139827000Y-85583000D03*
G04 #@! TD*
D15*
G04 #@! TO.C,R5*
X116814000Y-98806000D03*
X119914000Y-98806000D03*
G04 #@! TD*
D29*
G04 #@! TO.C,C5*
X116801500Y-82042000D03*
X119926500Y-82042000D03*
G04 #@! TD*
D20*
G04 #@! TO.C,FID2*
X115062000Y-95758000D03*
G04 #@! TD*
D21*
G04 #@! TO.C,R10*
X128778000Y-93446000D03*
X128778000Y-96546000D03*
G04 #@! TD*
D29*
G04 #@! TO.C,C7*
X130771500Y-81788000D03*
X133896500Y-81788000D03*
G04 #@! TD*
D30*
G04 #@! TO.C,U2*
X137856000Y-93858500D03*
X136906000Y-93858500D03*
X135956000Y-93858500D03*
X135956000Y-96133500D03*
X137856000Y-96133500D03*
G04 #@! TD*
D26*
G04 #@! TO.C,C2*
X120434500Y-93980000D03*
X117309500Y-93980000D03*
G04 #@! TD*
D31*
G04 #@! TO.C,C3*
X132842000Y-96558500D03*
X132842000Y-93433500D03*
G04 #@! TD*
D32*
G04 #@! TO.C,L1*
X109283500Y-83566000D03*
X112204500Y-83566000D03*
G04 #@! TD*
D21*
G04 #@! TO.C,R6*
X123190000Y-87350000D03*
X123190000Y-90450000D03*
G04 #@! TD*
D33*
G04 #@! TO.C,C4*
X109728000Y-107632000D03*
X109728000Y-99632000D03*
G04 #@! TD*
D20*
G04 #@! TO.C,FID4*
X121920000Y-96774000D03*
G04 #@! TD*
D34*
G04 #@! TO.C,J1*
X107696000Y-113808000D03*
X110236000Y-113808000D03*
X112776000Y-113808000D03*
X115316000Y-113808000D03*
X117856000Y-113808000D03*
X120396000Y-113808000D03*
X122936000Y-113808000D03*
X125476000Y-113808000D03*
X128016000Y-113808000D03*
X130556000Y-113808000D03*
X133096000Y-113808000D03*
X135636000Y-113808000D03*
D35*
X138176000Y-113808000D03*
G04 #@! TD*
D36*
G04 #@! TO.C,J2*
X104632000Y-85090000D03*
X104632000Y-87630000D03*
D37*
X104632000Y-90170000D03*
D36*
X104632000Y-92710000D03*
X104632000Y-95250000D03*
G04 #@! TD*
D38*
G04 #@! TO.C,F2*
X132334000Y-85405000D03*
X132334000Y-89855000D03*
G04 #@! TD*
M02*
