G04 #@! TF.GenerationSoftware,KiCad,Pcbnew,7.0.5-0*
G04 #@! TF.CreationDate,2023-12-30T21:45:12-05:00*
G04 #@! TF.ProjectId,boostlet,626f6f73-746c-4657-942e-6b696361645f,rev?*
G04 #@! TF.SameCoordinates,Original*
G04 #@! TF.FileFunction,Legend,Bot*
G04 #@! TF.FilePolarity,Positive*
%FSLAX46Y46*%
G04 Gerber Fmt 4.6, Leading zero omitted, Abs format (unit mm)*
G04 Created by KiCad (PCBNEW 7.0.5-0) date 2023-12-30 21:45:12*
%MOMM*%
%LPD*%
G01*
G04 APERTURE LIST*
%ADD10C,0.150000*%
%ADD11C,0.200000*%
%ADD12C,0.300000*%
%ADD13C,0.180000*%
%ADD14C,0.600000*%
%ADD15C,0.120000*%
%ADD16C,0.010000*%
G04 APERTURE END LIST*
D10*
X129127250Y-106235500D02*
X131222750Y-106235500D01*
X131222750Y-108204000D01*
X129127250Y-108204000D01*
X129127250Y-106235500D01*
G36*
X129127250Y-106235500D02*
G01*
X131222750Y-106235500D01*
X131222750Y-108204000D01*
X129127250Y-108204000D01*
X129127250Y-106235500D01*
G37*
X112395000Y-106076750D02*
X114490500Y-106076750D01*
X114490500Y-108045250D01*
X112395000Y-108045250D01*
X112395000Y-106076750D01*
G36*
X112395000Y-106076750D02*
G01*
X114490500Y-106076750D01*
X114490500Y-108045250D01*
X112395000Y-108045250D01*
X112395000Y-106076750D01*
G37*
X112395000Y-100488750D02*
X114490500Y-100488750D01*
X114490500Y-102457250D01*
X112395000Y-102457250D01*
X112395000Y-100488750D01*
G36*
X112395000Y-100488750D02*
G01*
X114490500Y-100488750D01*
X114490500Y-102457250D01*
X112395000Y-102457250D01*
X112395000Y-100488750D01*
G37*
X129127250Y-103568500D02*
X131222750Y-103568500D01*
X131222750Y-105537000D01*
X129127250Y-105537000D01*
X129127250Y-103568500D01*
G36*
X129127250Y-103568500D02*
G01*
X131222750Y-103568500D01*
X131222750Y-105537000D01*
X129127250Y-105537000D01*
X129127250Y-103568500D01*
G37*
X112395000Y-103282750D02*
X114490500Y-103282750D01*
X114490500Y-105251250D01*
X112395000Y-105251250D01*
X112395000Y-103282750D01*
G36*
X112395000Y-103282750D02*
G01*
X114490500Y-103282750D01*
X114490500Y-105251250D01*
X112395000Y-105251250D01*
X112395000Y-103282750D01*
G37*
X129127250Y-97853500D02*
X131222750Y-97853500D01*
X131222750Y-99822000D01*
X129127250Y-99822000D01*
X129127250Y-97853500D01*
G36*
X129127250Y-97853500D02*
G01*
X131222750Y-97853500D01*
X131222750Y-99822000D01*
X129127250Y-99822000D01*
X129127250Y-97853500D01*
G37*
X129127250Y-109029500D02*
X131222750Y-109029500D01*
X131222750Y-110998000D01*
X129127250Y-110998000D01*
X129127250Y-109029500D01*
G36*
X129127250Y-109029500D02*
G01*
X131222750Y-109029500D01*
X131222750Y-110998000D01*
X129127250Y-110998000D01*
X129127250Y-109029500D01*
G37*
X112395000Y-108870750D02*
X114490500Y-108870750D01*
X114490500Y-110839250D01*
X112395000Y-110839250D01*
X112395000Y-108870750D01*
G36*
X112395000Y-108870750D02*
G01*
X114490500Y-108870750D01*
X114490500Y-110839250D01*
X112395000Y-110839250D01*
X112395000Y-108870750D01*
G37*
X129127250Y-100647500D02*
X131222750Y-100647500D01*
X131222750Y-102616000D01*
X129127250Y-102616000D01*
X129127250Y-100647500D01*
G36*
X129127250Y-100647500D02*
G01*
X131222750Y-100647500D01*
X131222750Y-102616000D01*
X129127250Y-102616000D01*
X129127250Y-100647500D01*
G37*
X112458500Y-97821750D02*
X114554000Y-97821750D01*
X114554000Y-99790250D01*
X112458500Y-99790250D01*
X112458500Y-97821750D01*
G36*
X112458500Y-97821750D02*
G01*
X114554000Y-97821750D01*
X114554000Y-99790250D01*
X112458500Y-99790250D01*
X112458500Y-97821750D01*
G37*
D11*
X111358564Y-109384219D02*
X110739517Y-109384219D01*
X110739517Y-109384219D02*
X111072850Y-109765171D01*
X111072850Y-109765171D02*
X110929993Y-109765171D01*
X110929993Y-109765171D02*
X110834755Y-109812790D01*
X110834755Y-109812790D02*
X110787136Y-109860409D01*
X110787136Y-109860409D02*
X110739517Y-109955647D01*
X110739517Y-109955647D02*
X110739517Y-110193742D01*
X110739517Y-110193742D02*
X110787136Y-110288980D01*
X110787136Y-110288980D02*
X110834755Y-110336600D01*
X110834755Y-110336600D02*
X110929993Y-110384219D01*
X110929993Y-110384219D02*
X111215707Y-110384219D01*
X111215707Y-110384219D02*
X111310945Y-110336600D01*
X111310945Y-110336600D02*
X111358564Y-110288980D01*
X110310945Y-110288980D02*
X110263326Y-110336600D01*
X110263326Y-110336600D02*
X110310945Y-110384219D01*
X110310945Y-110384219D02*
X110358564Y-110336600D01*
X110358564Y-110336600D02*
X110310945Y-110288980D01*
X110310945Y-110288980D02*
X110310945Y-110384219D01*
X109929993Y-109384219D02*
X109310946Y-109384219D01*
X109310946Y-109384219D02*
X109644279Y-109765171D01*
X109644279Y-109765171D02*
X109501422Y-109765171D01*
X109501422Y-109765171D02*
X109406184Y-109812790D01*
X109406184Y-109812790D02*
X109358565Y-109860409D01*
X109358565Y-109860409D02*
X109310946Y-109955647D01*
X109310946Y-109955647D02*
X109310946Y-110193742D01*
X109310946Y-110193742D02*
X109358565Y-110288980D01*
X109358565Y-110288980D02*
X109406184Y-110336600D01*
X109406184Y-110336600D02*
X109501422Y-110384219D01*
X109501422Y-110384219D02*
X109787136Y-110384219D01*
X109787136Y-110384219D02*
X109882374Y-110336600D01*
X109882374Y-110336600D02*
X109929993Y-110288980D01*
X109025231Y-109384219D02*
X108691898Y-110384219D01*
X108691898Y-110384219D02*
X108358565Y-109384219D01*
X106691898Y-110384219D02*
X107025231Y-109908028D01*
X107263326Y-110384219D02*
X107263326Y-109384219D01*
X107263326Y-109384219D02*
X106882374Y-109384219D01*
X106882374Y-109384219D02*
X106787136Y-109431838D01*
X106787136Y-109431838D02*
X106739517Y-109479457D01*
X106739517Y-109479457D02*
X106691898Y-109574695D01*
X106691898Y-109574695D02*
X106691898Y-109717552D01*
X106691898Y-109717552D02*
X106739517Y-109812790D01*
X106739517Y-109812790D02*
X106787136Y-109860409D01*
X106787136Y-109860409D02*
X106882374Y-109908028D01*
X106882374Y-109908028D02*
X107263326Y-109908028D01*
X105882374Y-110336600D02*
X105977612Y-110384219D01*
X105977612Y-110384219D02*
X106168088Y-110384219D01*
X106168088Y-110384219D02*
X106263326Y-110336600D01*
X106263326Y-110336600D02*
X106310945Y-110241361D01*
X106310945Y-110241361D02*
X106310945Y-109860409D01*
X106310945Y-109860409D02*
X106263326Y-109765171D01*
X106263326Y-109765171D02*
X106168088Y-109717552D01*
X106168088Y-109717552D02*
X105977612Y-109717552D01*
X105977612Y-109717552D02*
X105882374Y-109765171D01*
X105882374Y-109765171D02*
X105834755Y-109860409D01*
X105834755Y-109860409D02*
X105834755Y-109955647D01*
X105834755Y-109955647D02*
X106310945Y-110050885D01*
X104977612Y-109717552D02*
X104977612Y-110527076D01*
X104977612Y-110527076D02*
X105025231Y-110622314D01*
X105025231Y-110622314D02*
X105072850Y-110669933D01*
X105072850Y-110669933D02*
X105168088Y-110717552D01*
X105168088Y-110717552D02*
X105310945Y-110717552D01*
X105310945Y-110717552D02*
X105406183Y-110669933D01*
X104977612Y-110336600D02*
X105072850Y-110384219D01*
X105072850Y-110384219D02*
X105263326Y-110384219D01*
X105263326Y-110384219D02*
X105358564Y-110336600D01*
X105358564Y-110336600D02*
X105406183Y-110288980D01*
X105406183Y-110288980D02*
X105453802Y-110193742D01*
X105453802Y-110193742D02*
X105453802Y-109908028D01*
X105453802Y-109908028D02*
X105406183Y-109812790D01*
X105406183Y-109812790D02*
X105358564Y-109765171D01*
X105358564Y-109765171D02*
X105263326Y-109717552D01*
X105263326Y-109717552D02*
X105072850Y-109717552D01*
X105072850Y-109717552D02*
X104977612Y-109765171D01*
X130487993Y-96271409D02*
X130345136Y-96319028D01*
X130345136Y-96319028D02*
X130297517Y-96366647D01*
X130297517Y-96366647D02*
X130249898Y-96461885D01*
X130249898Y-96461885D02*
X130249898Y-96604742D01*
X130249898Y-96604742D02*
X130297517Y-96699980D01*
X130297517Y-96699980D02*
X130345136Y-96747600D01*
X130345136Y-96747600D02*
X130440374Y-96795219D01*
X130440374Y-96795219D02*
X130821326Y-96795219D01*
X130821326Y-96795219D02*
X130821326Y-95795219D01*
X130821326Y-95795219D02*
X130487993Y-95795219D01*
X130487993Y-95795219D02*
X130392755Y-95842838D01*
X130392755Y-95842838D02*
X130345136Y-95890457D01*
X130345136Y-95890457D02*
X130297517Y-95985695D01*
X130297517Y-95985695D02*
X130297517Y-96080933D01*
X130297517Y-96080933D02*
X130345136Y-96176171D01*
X130345136Y-96176171D02*
X130392755Y-96223790D01*
X130392755Y-96223790D02*
X130487993Y-96271409D01*
X130487993Y-96271409D02*
X130821326Y-96271409D01*
X129392755Y-96795219D02*
X129392755Y-96271409D01*
X129392755Y-96271409D02*
X129440374Y-96176171D01*
X129440374Y-96176171D02*
X129535612Y-96128552D01*
X129535612Y-96128552D02*
X129726088Y-96128552D01*
X129726088Y-96128552D02*
X129821326Y-96176171D01*
X129392755Y-96747600D02*
X129487993Y-96795219D01*
X129487993Y-96795219D02*
X129726088Y-96795219D01*
X129726088Y-96795219D02*
X129821326Y-96747600D01*
X129821326Y-96747600D02*
X129868945Y-96652361D01*
X129868945Y-96652361D02*
X129868945Y-96557123D01*
X129868945Y-96557123D02*
X129821326Y-96461885D01*
X129821326Y-96461885D02*
X129726088Y-96414266D01*
X129726088Y-96414266D02*
X129487993Y-96414266D01*
X129487993Y-96414266D02*
X129392755Y-96366647D01*
X129059421Y-96128552D02*
X128678469Y-96128552D01*
X128916564Y-95795219D02*
X128916564Y-96652361D01*
X128916564Y-96652361D02*
X128868945Y-96747600D01*
X128868945Y-96747600D02*
X128773707Y-96795219D01*
X128773707Y-96795219D02*
X128678469Y-96795219D01*
X128487992Y-96128552D02*
X128107040Y-96128552D01*
X128345135Y-95795219D02*
X128345135Y-96652361D01*
X128345135Y-96652361D02*
X128297516Y-96747600D01*
X128297516Y-96747600D02*
X128202278Y-96795219D01*
X128202278Y-96795219D02*
X128107040Y-96795219D01*
X127059420Y-96747600D02*
X126916563Y-96795219D01*
X126916563Y-96795219D02*
X126678468Y-96795219D01*
X126678468Y-96795219D02*
X126583230Y-96747600D01*
X126583230Y-96747600D02*
X126535611Y-96699980D01*
X126535611Y-96699980D02*
X126487992Y-96604742D01*
X126487992Y-96604742D02*
X126487992Y-96509504D01*
X126487992Y-96509504D02*
X126535611Y-96414266D01*
X126535611Y-96414266D02*
X126583230Y-96366647D01*
X126583230Y-96366647D02*
X126678468Y-96319028D01*
X126678468Y-96319028D02*
X126868944Y-96271409D01*
X126868944Y-96271409D02*
X126964182Y-96223790D01*
X126964182Y-96223790D02*
X127011801Y-96176171D01*
X127011801Y-96176171D02*
X127059420Y-96080933D01*
X127059420Y-96080933D02*
X127059420Y-95985695D01*
X127059420Y-95985695D02*
X127011801Y-95890457D01*
X127011801Y-95890457D02*
X126964182Y-95842838D01*
X126964182Y-95842838D02*
X126868944Y-95795219D01*
X126868944Y-95795219D02*
X126630849Y-95795219D01*
X126630849Y-95795219D02*
X126487992Y-95842838D01*
X126059420Y-96795219D02*
X126059420Y-96128552D01*
X126059420Y-95795219D02*
X126107039Y-95842838D01*
X126107039Y-95842838D02*
X126059420Y-95890457D01*
X126059420Y-95890457D02*
X126011801Y-95842838D01*
X126011801Y-95842838D02*
X126059420Y-95795219D01*
X126059420Y-95795219D02*
X126059420Y-95890457D01*
X125154659Y-96128552D02*
X125154659Y-96938076D01*
X125154659Y-96938076D02*
X125202278Y-97033314D01*
X125202278Y-97033314D02*
X125249897Y-97080933D01*
X125249897Y-97080933D02*
X125345135Y-97128552D01*
X125345135Y-97128552D02*
X125487992Y-97128552D01*
X125487992Y-97128552D02*
X125583230Y-97080933D01*
X125154659Y-96747600D02*
X125249897Y-96795219D01*
X125249897Y-96795219D02*
X125440373Y-96795219D01*
X125440373Y-96795219D02*
X125535611Y-96747600D01*
X125535611Y-96747600D02*
X125583230Y-96699980D01*
X125583230Y-96699980D02*
X125630849Y-96604742D01*
X125630849Y-96604742D02*
X125630849Y-96319028D01*
X125630849Y-96319028D02*
X125583230Y-96223790D01*
X125583230Y-96223790D02*
X125535611Y-96176171D01*
X125535611Y-96176171D02*
X125440373Y-96128552D01*
X125440373Y-96128552D02*
X125249897Y-96128552D01*
X125249897Y-96128552D02*
X125154659Y-96176171D01*
X124678468Y-96699980D02*
X124630849Y-96747600D01*
X124630849Y-96747600D02*
X124678468Y-96795219D01*
X124678468Y-96795219D02*
X124726087Y-96747600D01*
X124726087Y-96747600D02*
X124678468Y-96699980D01*
X124678468Y-96699980D02*
X124678468Y-96795219D01*
X124678468Y-96176171D02*
X124630849Y-96223790D01*
X124630849Y-96223790D02*
X124678468Y-96271409D01*
X124678468Y-96271409D02*
X124726087Y-96223790D01*
X124726087Y-96223790D02*
X124678468Y-96176171D01*
X124678468Y-96176171D02*
X124678468Y-96271409D01*
D12*
X122829251Y-94821495D02*
X122891155Y-94883400D01*
X122891155Y-94883400D02*
X123076870Y-94945304D01*
X123076870Y-94945304D02*
X123200679Y-94945304D01*
X123200679Y-94945304D02*
X123386393Y-94883400D01*
X123386393Y-94883400D02*
X123510203Y-94759590D01*
X123510203Y-94759590D02*
X123572108Y-94635780D01*
X123572108Y-94635780D02*
X123634012Y-94388161D01*
X123634012Y-94388161D02*
X123634012Y-94202447D01*
X123634012Y-94202447D02*
X123572108Y-93954828D01*
X123572108Y-93954828D02*
X123510203Y-93831019D01*
X123510203Y-93831019D02*
X123386393Y-93707209D01*
X123386393Y-93707209D02*
X123200679Y-93645304D01*
X123200679Y-93645304D02*
X123076870Y-93645304D01*
X123076870Y-93645304D02*
X122891155Y-93707209D01*
X122891155Y-93707209D02*
X122829251Y-93769114D01*
X122272108Y-94264352D02*
X121838774Y-94264352D01*
X121653060Y-94945304D02*
X122272108Y-94945304D01*
X122272108Y-94945304D02*
X122272108Y-93645304D01*
X122272108Y-93645304D02*
X121653060Y-93645304D01*
X120353061Y-94945304D02*
X120786394Y-94326257D01*
X121095918Y-94945304D02*
X121095918Y-93645304D01*
X121095918Y-93645304D02*
X120600680Y-93645304D01*
X120600680Y-93645304D02*
X120476870Y-93707209D01*
X120476870Y-93707209D02*
X120414965Y-93769114D01*
X120414965Y-93769114D02*
X120353061Y-93892923D01*
X120353061Y-93892923D02*
X120353061Y-94078638D01*
X120353061Y-94078638D02*
X120414965Y-94202447D01*
X120414965Y-94202447D02*
X120476870Y-94264352D01*
X120476870Y-94264352D02*
X120600680Y-94326257D01*
X120600680Y-94326257D02*
X121095918Y-94326257D01*
X119795918Y-94945304D02*
X119795918Y-93645304D01*
X119795918Y-93645304D02*
X119053061Y-94945304D01*
X119053061Y-94945304D02*
X119053061Y-93645304D01*
X118434013Y-94450066D02*
X117443537Y-94450066D01*
X116576870Y-93645304D02*
X116329251Y-93645304D01*
X116329251Y-93645304D02*
X116205441Y-93707209D01*
X116205441Y-93707209D02*
X116081632Y-93831019D01*
X116081632Y-93831019D02*
X116019727Y-94078638D01*
X116019727Y-94078638D02*
X116019727Y-94511971D01*
X116019727Y-94511971D02*
X116081632Y-94759590D01*
X116081632Y-94759590D02*
X116205441Y-94883400D01*
X116205441Y-94883400D02*
X116329251Y-94945304D01*
X116329251Y-94945304D02*
X116576870Y-94945304D01*
X116576870Y-94945304D02*
X116700679Y-94883400D01*
X116700679Y-94883400D02*
X116824489Y-94759590D01*
X116824489Y-94759590D02*
X116886393Y-94511971D01*
X116886393Y-94511971D02*
X116886393Y-94078638D01*
X116886393Y-94078638D02*
X116824489Y-93831019D01*
X116824489Y-93831019D02*
X116700679Y-93707209D01*
X116700679Y-93707209D02*
X116576870Y-93645304D01*
X115462584Y-94945304D02*
X115462584Y-93645304D01*
X115462584Y-94264352D02*
X114719727Y-94264352D01*
X114719727Y-94945304D02*
X114719727Y-93645304D01*
X113481631Y-94945304D02*
X114100679Y-94945304D01*
X114100679Y-94945304D02*
X114100679Y-93645304D01*
X113048298Y-94450066D02*
X112057822Y-94450066D01*
X111438774Y-94945304D02*
X111438774Y-93645304D01*
X111438774Y-93645304D02*
X110943536Y-93645304D01*
X110943536Y-93645304D02*
X110819726Y-93707209D01*
X110819726Y-93707209D02*
X110757821Y-93769114D01*
X110757821Y-93769114D02*
X110695917Y-93892923D01*
X110695917Y-93892923D02*
X110695917Y-94078638D01*
X110695917Y-94078638D02*
X110757821Y-94202447D01*
X110757821Y-94202447D02*
X110819726Y-94264352D01*
X110819726Y-94264352D02*
X110943536Y-94326257D01*
X110943536Y-94326257D02*
X111438774Y-94326257D01*
D11*
X111263326Y-107590219D02*
X111263326Y-106590219D01*
X111263326Y-106590219D02*
X110882374Y-106590219D01*
X110882374Y-106590219D02*
X110787136Y-106637838D01*
X110787136Y-106637838D02*
X110739517Y-106685457D01*
X110739517Y-106685457D02*
X110691898Y-106780695D01*
X110691898Y-106780695D02*
X110691898Y-106923552D01*
X110691898Y-106923552D02*
X110739517Y-107018790D01*
X110739517Y-107018790D02*
X110787136Y-107066409D01*
X110787136Y-107066409D02*
X110882374Y-107114028D01*
X110882374Y-107114028D02*
X111263326Y-107114028D01*
X110406183Y-106590219D02*
X109834755Y-106590219D01*
X110120469Y-107590219D02*
X110120469Y-106590219D01*
X108929993Y-107494980D02*
X108977612Y-107542600D01*
X108977612Y-107542600D02*
X109120469Y-107590219D01*
X109120469Y-107590219D02*
X109215707Y-107590219D01*
X109215707Y-107590219D02*
X109358564Y-107542600D01*
X109358564Y-107542600D02*
X109453802Y-107447361D01*
X109453802Y-107447361D02*
X109501421Y-107352123D01*
X109501421Y-107352123D02*
X109549040Y-107161647D01*
X109549040Y-107161647D02*
X109549040Y-107018790D01*
X109549040Y-107018790D02*
X109501421Y-106828314D01*
X109501421Y-106828314D02*
X109453802Y-106733076D01*
X109453802Y-106733076D02*
X109358564Y-106637838D01*
X109358564Y-106637838D02*
X109215707Y-106590219D01*
X109215707Y-106590219D02*
X109120469Y-106590219D01*
X109120469Y-106590219D02*
X108977612Y-106637838D01*
X108977612Y-106637838D02*
X108929993Y-106685457D01*
X107596659Y-107590219D02*
X107691897Y-107542600D01*
X107691897Y-107542600D02*
X107739516Y-107494980D01*
X107739516Y-107494980D02*
X107787135Y-107399742D01*
X107787135Y-107399742D02*
X107787135Y-107114028D01*
X107787135Y-107114028D02*
X107739516Y-107018790D01*
X107739516Y-107018790D02*
X107691897Y-106971171D01*
X107691897Y-106971171D02*
X107596659Y-106923552D01*
X107596659Y-106923552D02*
X107453802Y-106923552D01*
X107453802Y-106923552D02*
X107358564Y-106971171D01*
X107358564Y-106971171D02*
X107310945Y-107018790D01*
X107310945Y-107018790D02*
X107263326Y-107114028D01*
X107263326Y-107114028D02*
X107263326Y-107399742D01*
X107263326Y-107399742D02*
X107310945Y-107494980D01*
X107310945Y-107494980D02*
X107358564Y-107542600D01*
X107358564Y-107542600D02*
X107453802Y-107590219D01*
X107453802Y-107590219D02*
X107596659Y-107590219D01*
X106406183Y-106923552D02*
X106406183Y-107590219D01*
X106834754Y-106923552D02*
X106834754Y-107447361D01*
X106834754Y-107447361D02*
X106787135Y-107542600D01*
X106787135Y-107542600D02*
X106691897Y-107590219D01*
X106691897Y-107590219D02*
X106549040Y-107590219D01*
X106549040Y-107590219D02*
X106453802Y-107542600D01*
X106453802Y-107542600D02*
X106406183Y-107494980D01*
X106072849Y-106923552D02*
X105691897Y-106923552D01*
X105929992Y-106590219D02*
X105929992Y-107447361D01*
X105929992Y-107447361D02*
X105882373Y-107542600D01*
X105882373Y-107542600D02*
X105787135Y-107590219D01*
X105787135Y-107590219D02*
X105691897Y-107590219D01*
X127582850Y-106717219D02*
X127392374Y-106717219D01*
X127392374Y-106717219D02*
X127297136Y-106764838D01*
X127297136Y-106764838D02*
X127201898Y-106860076D01*
X127201898Y-106860076D02*
X127154279Y-107050552D01*
X127154279Y-107050552D02*
X127154279Y-107383885D01*
X127154279Y-107383885D02*
X127201898Y-107574361D01*
X127201898Y-107574361D02*
X127297136Y-107669600D01*
X127297136Y-107669600D02*
X127392374Y-107717219D01*
X127392374Y-107717219D02*
X127582850Y-107717219D01*
X127582850Y-107717219D02*
X127678088Y-107669600D01*
X127678088Y-107669600D02*
X127773326Y-107574361D01*
X127773326Y-107574361D02*
X127820945Y-107383885D01*
X127820945Y-107383885D02*
X127820945Y-107050552D01*
X127820945Y-107050552D02*
X127773326Y-106860076D01*
X127773326Y-106860076D02*
X127678088Y-106764838D01*
X127678088Y-106764838D02*
X127582850Y-106717219D01*
X126868564Y-107050552D02*
X126487612Y-107050552D01*
X126725707Y-106717219D02*
X126725707Y-107574361D01*
X126725707Y-107574361D02*
X126678088Y-107669600D01*
X126678088Y-107669600D02*
X126582850Y-107717219D01*
X126582850Y-107717219D02*
X126487612Y-107717219D01*
X126154278Y-107717219D02*
X126154278Y-106717219D01*
X125725707Y-107717219D02*
X125725707Y-107193409D01*
X125725707Y-107193409D02*
X125773326Y-107098171D01*
X125773326Y-107098171D02*
X125868564Y-107050552D01*
X125868564Y-107050552D02*
X126011421Y-107050552D01*
X126011421Y-107050552D02*
X126106659Y-107098171D01*
X126106659Y-107098171D02*
X126154278Y-107145790D01*
X124868564Y-107669600D02*
X124963802Y-107717219D01*
X124963802Y-107717219D02*
X125154278Y-107717219D01*
X125154278Y-107717219D02*
X125249516Y-107669600D01*
X125249516Y-107669600D02*
X125297135Y-107574361D01*
X125297135Y-107574361D02*
X125297135Y-107193409D01*
X125297135Y-107193409D02*
X125249516Y-107098171D01*
X125249516Y-107098171D02*
X125154278Y-107050552D01*
X125154278Y-107050552D02*
X124963802Y-107050552D01*
X124963802Y-107050552D02*
X124868564Y-107098171D01*
X124868564Y-107098171D02*
X124820945Y-107193409D01*
X124820945Y-107193409D02*
X124820945Y-107288647D01*
X124820945Y-107288647D02*
X125297135Y-107383885D01*
X124392373Y-107717219D02*
X124392373Y-107050552D01*
X124392373Y-107241028D02*
X124344754Y-107145790D01*
X124344754Y-107145790D02*
X124297135Y-107098171D01*
X124297135Y-107098171D02*
X124201897Y-107050552D01*
X124201897Y-107050552D02*
X124106659Y-107050552D01*
X127820945Y-98303457D02*
X127773326Y-98255838D01*
X127773326Y-98255838D02*
X127678088Y-98208219D01*
X127678088Y-98208219D02*
X127439993Y-98208219D01*
X127439993Y-98208219D02*
X127344755Y-98255838D01*
X127344755Y-98255838D02*
X127297136Y-98303457D01*
X127297136Y-98303457D02*
X127249517Y-98398695D01*
X127249517Y-98398695D02*
X127249517Y-98493933D01*
X127249517Y-98493933D02*
X127297136Y-98636790D01*
X127297136Y-98636790D02*
X127868564Y-99208219D01*
X127868564Y-99208219D02*
X127249517Y-99208219D01*
X126916183Y-99208219D02*
X126392374Y-98541552D01*
X126916183Y-98541552D02*
X126392374Y-99208219D01*
X126059040Y-98922504D02*
X125582850Y-98922504D01*
X126154278Y-99208219D02*
X125820945Y-98208219D01*
X125820945Y-98208219D02*
X125487612Y-99208219D01*
X125201897Y-98922504D02*
X124725707Y-98922504D01*
X125297135Y-99208219D02*
X124963802Y-98208219D01*
X124963802Y-98208219D02*
X124630469Y-99208219D01*
X127773326Y-109384219D02*
X127773326Y-110193742D01*
X127773326Y-110193742D02*
X127725707Y-110288980D01*
X127725707Y-110288980D02*
X127678088Y-110336600D01*
X127678088Y-110336600D02*
X127582850Y-110384219D01*
X127582850Y-110384219D02*
X127392374Y-110384219D01*
X127392374Y-110384219D02*
X127297136Y-110336600D01*
X127297136Y-110336600D02*
X127249517Y-110288980D01*
X127249517Y-110288980D02*
X127201898Y-110193742D01*
X127201898Y-110193742D02*
X127201898Y-109384219D01*
X126725707Y-109717552D02*
X126725707Y-110384219D01*
X126725707Y-109812790D02*
X126678088Y-109765171D01*
X126678088Y-109765171D02*
X126582850Y-109717552D01*
X126582850Y-109717552D02*
X126439993Y-109717552D01*
X126439993Y-109717552D02*
X126344755Y-109765171D01*
X126344755Y-109765171D02*
X126297136Y-109860409D01*
X126297136Y-109860409D02*
X126297136Y-110384219D01*
X125820945Y-109717552D02*
X125820945Y-110717552D01*
X125820945Y-109765171D02*
X125725707Y-109717552D01*
X125725707Y-109717552D02*
X125535231Y-109717552D01*
X125535231Y-109717552D02*
X125439993Y-109765171D01*
X125439993Y-109765171D02*
X125392374Y-109812790D01*
X125392374Y-109812790D02*
X125344755Y-109908028D01*
X125344755Y-109908028D02*
X125344755Y-110193742D01*
X125344755Y-110193742D02*
X125392374Y-110288980D01*
X125392374Y-110288980D02*
X125439993Y-110336600D01*
X125439993Y-110336600D02*
X125535231Y-110384219D01*
X125535231Y-110384219D02*
X125725707Y-110384219D01*
X125725707Y-110384219D02*
X125820945Y-110336600D01*
X124773326Y-110384219D02*
X124868564Y-110336600D01*
X124868564Y-110336600D02*
X124916183Y-110288980D01*
X124916183Y-110288980D02*
X124963802Y-110193742D01*
X124963802Y-110193742D02*
X124963802Y-109908028D01*
X124963802Y-109908028D02*
X124916183Y-109812790D01*
X124916183Y-109812790D02*
X124868564Y-109765171D01*
X124868564Y-109765171D02*
X124773326Y-109717552D01*
X124773326Y-109717552D02*
X124630469Y-109717552D01*
X124630469Y-109717552D02*
X124535231Y-109765171D01*
X124535231Y-109765171D02*
X124487612Y-109812790D01*
X124487612Y-109812790D02*
X124439993Y-109908028D01*
X124439993Y-109908028D02*
X124439993Y-110193742D01*
X124439993Y-110193742D02*
X124487612Y-110288980D01*
X124487612Y-110288980D02*
X124535231Y-110336600D01*
X124535231Y-110336600D02*
X124630469Y-110384219D01*
X124630469Y-110384219D02*
X124773326Y-110384219D01*
X124011421Y-109717552D02*
X124011421Y-110717552D01*
X124011421Y-109765171D02*
X123916183Y-109717552D01*
X123916183Y-109717552D02*
X123725707Y-109717552D01*
X123725707Y-109717552D02*
X123630469Y-109765171D01*
X123630469Y-109765171D02*
X123582850Y-109812790D01*
X123582850Y-109812790D02*
X123535231Y-109908028D01*
X123535231Y-109908028D02*
X123535231Y-110193742D01*
X123535231Y-110193742D02*
X123582850Y-110288980D01*
X123582850Y-110288980D02*
X123630469Y-110336600D01*
X123630469Y-110336600D02*
X123725707Y-110384219D01*
X123725707Y-110384219D02*
X123916183Y-110384219D01*
X123916183Y-110384219D02*
X124011421Y-110336600D01*
X122678088Y-109717552D02*
X122678088Y-110384219D01*
X123106659Y-109717552D02*
X123106659Y-110241361D01*
X123106659Y-110241361D02*
X123059040Y-110336600D01*
X123059040Y-110336600D02*
X122963802Y-110384219D01*
X122963802Y-110384219D02*
X122820945Y-110384219D01*
X122820945Y-110384219D02*
X122725707Y-110336600D01*
X122725707Y-110336600D02*
X122678088Y-110288980D01*
X122059040Y-110384219D02*
X122154278Y-110336600D01*
X122154278Y-110336600D02*
X122201897Y-110241361D01*
X122201897Y-110241361D02*
X122201897Y-109384219D01*
X121249516Y-110384219D02*
X121249516Y-109860409D01*
X121249516Y-109860409D02*
X121297135Y-109765171D01*
X121297135Y-109765171D02*
X121392373Y-109717552D01*
X121392373Y-109717552D02*
X121582849Y-109717552D01*
X121582849Y-109717552D02*
X121678087Y-109765171D01*
X121249516Y-110336600D02*
X121344754Y-110384219D01*
X121344754Y-110384219D02*
X121582849Y-110384219D01*
X121582849Y-110384219D02*
X121678087Y-110336600D01*
X121678087Y-110336600D02*
X121725706Y-110241361D01*
X121725706Y-110241361D02*
X121725706Y-110146123D01*
X121725706Y-110146123D02*
X121678087Y-110050885D01*
X121678087Y-110050885D02*
X121582849Y-110003266D01*
X121582849Y-110003266D02*
X121344754Y-110003266D01*
X121344754Y-110003266D02*
X121249516Y-109955647D01*
X120916182Y-109717552D02*
X120535230Y-109717552D01*
X120773325Y-109384219D02*
X120773325Y-110241361D01*
X120773325Y-110241361D02*
X120725706Y-110336600D01*
X120725706Y-110336600D02*
X120630468Y-110384219D01*
X120630468Y-110384219D02*
X120535230Y-110384219D01*
X119820944Y-110336600D02*
X119916182Y-110384219D01*
X119916182Y-110384219D02*
X120106658Y-110384219D01*
X120106658Y-110384219D02*
X120201896Y-110336600D01*
X120201896Y-110336600D02*
X120249515Y-110241361D01*
X120249515Y-110241361D02*
X120249515Y-109860409D01*
X120249515Y-109860409D02*
X120201896Y-109765171D01*
X120201896Y-109765171D02*
X120106658Y-109717552D01*
X120106658Y-109717552D02*
X119916182Y-109717552D01*
X119916182Y-109717552D02*
X119820944Y-109765171D01*
X119820944Y-109765171D02*
X119773325Y-109860409D01*
X119773325Y-109860409D02*
X119773325Y-109955647D01*
X119773325Y-109955647D02*
X120249515Y-110050885D01*
X118916182Y-110384219D02*
X118916182Y-109384219D01*
X118916182Y-110336600D02*
X119011420Y-110384219D01*
X119011420Y-110384219D02*
X119201896Y-110384219D01*
X119201896Y-110384219D02*
X119297134Y-110336600D01*
X119297134Y-110336600D02*
X119344753Y-110288980D01*
X119344753Y-110288980D02*
X119392372Y-110193742D01*
X119392372Y-110193742D02*
X119392372Y-109908028D01*
X119392372Y-109908028D02*
X119344753Y-109812790D01*
X119344753Y-109812790D02*
X119297134Y-109765171D01*
X119297134Y-109765171D02*
X119201896Y-109717552D01*
X119201896Y-109717552D02*
X119011420Y-109717552D01*
X119011420Y-109717552D02*
X118916182Y-109765171D01*
D13*
X141502483Y-86128259D02*
X141502483Y-85128259D01*
X141502483Y-85509211D02*
X141407245Y-85461592D01*
X141407245Y-85461592D02*
X141216769Y-85461592D01*
X141216769Y-85461592D02*
X141121531Y-85509211D01*
X141121531Y-85509211D02*
X141073912Y-85556830D01*
X141073912Y-85556830D02*
X141026293Y-85652068D01*
X141026293Y-85652068D02*
X141026293Y-85937782D01*
X141026293Y-85937782D02*
X141073912Y-86033020D01*
X141073912Y-86033020D02*
X141121531Y-86080640D01*
X141121531Y-86080640D02*
X141216769Y-86128259D01*
X141216769Y-86128259D02*
X141407245Y-86128259D01*
X141407245Y-86128259D02*
X141502483Y-86080640D01*
X140692959Y-85461592D02*
X140454864Y-86128259D01*
X140216769Y-85461592D02*
X140454864Y-86128259D01*
X140454864Y-86128259D02*
X140550102Y-86366354D01*
X140550102Y-86366354D02*
X140597721Y-86413973D01*
X140597721Y-86413973D02*
X140692959Y-86461592D01*
X138502483Y-86128259D02*
X138835816Y-85652068D01*
X139073911Y-86128259D02*
X139073911Y-85128259D01*
X139073911Y-85128259D02*
X138692959Y-85128259D01*
X138692959Y-85128259D02*
X138597721Y-85175878D01*
X138597721Y-85175878D02*
X138550102Y-85223497D01*
X138550102Y-85223497D02*
X138502483Y-85318735D01*
X138502483Y-85318735D02*
X138502483Y-85461592D01*
X138502483Y-85461592D02*
X138550102Y-85556830D01*
X138550102Y-85556830D02*
X138597721Y-85604449D01*
X138597721Y-85604449D02*
X138692959Y-85652068D01*
X138692959Y-85652068D02*
X139073911Y-85652068D01*
X137931054Y-86128259D02*
X138026292Y-86080640D01*
X138026292Y-86080640D02*
X138073911Y-86033020D01*
X138073911Y-86033020D02*
X138121530Y-85937782D01*
X138121530Y-85937782D02*
X138121530Y-85652068D01*
X138121530Y-85652068D02*
X138073911Y-85556830D01*
X138073911Y-85556830D02*
X138026292Y-85509211D01*
X138026292Y-85509211D02*
X137931054Y-85461592D01*
X137931054Y-85461592D02*
X137788197Y-85461592D01*
X137788197Y-85461592D02*
X137692959Y-85509211D01*
X137692959Y-85509211D02*
X137645340Y-85556830D01*
X137645340Y-85556830D02*
X137597721Y-85652068D01*
X137597721Y-85652068D02*
X137597721Y-85937782D01*
X137597721Y-85937782D02*
X137645340Y-86033020D01*
X137645340Y-86033020D02*
X137692959Y-86080640D01*
X137692959Y-86080640D02*
X137788197Y-86128259D01*
X137788197Y-86128259D02*
X137931054Y-86128259D01*
X137169149Y-86128259D02*
X137169149Y-85128259D01*
X137169149Y-85509211D02*
X137073911Y-85461592D01*
X137073911Y-85461592D02*
X136883435Y-85461592D01*
X136883435Y-85461592D02*
X136788197Y-85509211D01*
X136788197Y-85509211D02*
X136740578Y-85556830D01*
X136740578Y-85556830D02*
X136692959Y-85652068D01*
X136692959Y-85652068D02*
X136692959Y-85937782D01*
X136692959Y-85937782D02*
X136740578Y-86033020D01*
X136740578Y-86033020D02*
X136788197Y-86080640D01*
X136788197Y-86080640D02*
X136883435Y-86128259D01*
X136883435Y-86128259D02*
X137073911Y-86128259D01*
X137073911Y-86128259D02*
X137169149Y-86080640D01*
X136121530Y-86128259D02*
X136216768Y-86080640D01*
X136216768Y-86080640D02*
X136264387Y-86033020D01*
X136264387Y-86033020D02*
X136312006Y-85937782D01*
X136312006Y-85937782D02*
X136312006Y-85652068D01*
X136312006Y-85652068D02*
X136264387Y-85556830D01*
X136264387Y-85556830D02*
X136216768Y-85509211D01*
X136216768Y-85509211D02*
X136121530Y-85461592D01*
X136121530Y-85461592D02*
X135978673Y-85461592D01*
X135978673Y-85461592D02*
X135883435Y-85509211D01*
X135883435Y-85509211D02*
X135835816Y-85556830D01*
X135835816Y-85556830D02*
X135788197Y-85652068D01*
X135788197Y-85652068D02*
X135788197Y-85937782D01*
X135788197Y-85937782D02*
X135835816Y-86033020D01*
X135835816Y-86033020D02*
X135883435Y-86080640D01*
X135883435Y-86080640D02*
X135978673Y-86128259D01*
X135978673Y-86128259D02*
X136121530Y-86128259D01*
X135502482Y-85461592D02*
X135121530Y-85461592D01*
X135359625Y-85128259D02*
X135359625Y-85985401D01*
X135359625Y-85985401D02*
X135312006Y-86080640D01*
X135312006Y-86080640D02*
X135216768Y-86128259D01*
X135216768Y-86128259D02*
X135121530Y-86128259D01*
X134883434Y-85128259D02*
X134216768Y-85128259D01*
X134216768Y-85128259D02*
X134883434Y-86128259D01*
X134883434Y-86128259D02*
X134216768Y-86128259D01*
X133931053Y-85461592D02*
X133740577Y-86128259D01*
X133740577Y-86128259D02*
X133550101Y-85652068D01*
X133550101Y-85652068D02*
X133359625Y-86128259D01*
X133359625Y-86128259D02*
X133169149Y-85461592D01*
X132788196Y-86128259D02*
X132788196Y-85461592D01*
X132788196Y-85652068D02*
X132740577Y-85556830D01*
X132740577Y-85556830D02*
X132692958Y-85509211D01*
X132692958Y-85509211D02*
X132597720Y-85461592D01*
X132597720Y-85461592D02*
X132502482Y-85461592D01*
X132169148Y-86128259D02*
X132169148Y-85461592D01*
X132169148Y-85652068D02*
X132121529Y-85556830D01*
X132121529Y-85556830D02*
X132073910Y-85509211D01*
X132073910Y-85509211D02*
X131978672Y-85461592D01*
X131978672Y-85461592D02*
X131883434Y-85461592D01*
X131407243Y-86128259D02*
X131502481Y-86080640D01*
X131502481Y-86080640D02*
X131550100Y-85985401D01*
X131550100Y-85985401D02*
X131550100Y-85128259D01*
X131026290Y-86033020D02*
X130978671Y-86080640D01*
X130978671Y-86080640D02*
X131026290Y-86128259D01*
X131026290Y-86128259D02*
X131073909Y-86080640D01*
X131073909Y-86080640D02*
X131026290Y-86033020D01*
X131026290Y-86033020D02*
X131026290Y-86128259D01*
X130645338Y-86128259D02*
X130121529Y-85461592D01*
X130645338Y-85461592D02*
X130121529Y-86128259D01*
X129835814Y-85461592D02*
X129597719Y-86128259D01*
X129359624Y-85461592D02*
X129597719Y-86128259D01*
X129597719Y-86128259D02*
X129692957Y-86366354D01*
X129692957Y-86366354D02*
X129740576Y-86413973D01*
X129740576Y-86413973D02*
X129835814Y-86461592D01*
X129073909Y-85461592D02*
X128550100Y-85461592D01*
X128550100Y-85461592D02*
X129073909Y-86128259D01*
X129073909Y-86128259D02*
X128550100Y-86128259D01*
X140931055Y-87738259D02*
X141264388Y-87262068D01*
X141502483Y-87738259D02*
X141502483Y-86738259D01*
X141502483Y-86738259D02*
X141121531Y-86738259D01*
X141121531Y-86738259D02*
X141026293Y-86785878D01*
X141026293Y-86785878D02*
X140978674Y-86833497D01*
X140978674Y-86833497D02*
X140931055Y-86928735D01*
X140931055Y-86928735D02*
X140931055Y-87071592D01*
X140931055Y-87071592D02*
X140978674Y-87166830D01*
X140978674Y-87166830D02*
X141026293Y-87214449D01*
X141026293Y-87214449D02*
X141121531Y-87262068D01*
X141121531Y-87262068D02*
X141502483Y-87262068D01*
X140359626Y-87738259D02*
X140454864Y-87690640D01*
X140454864Y-87690640D02*
X140502483Y-87643020D01*
X140502483Y-87643020D02*
X140550102Y-87547782D01*
X140550102Y-87547782D02*
X140550102Y-87262068D01*
X140550102Y-87262068D02*
X140502483Y-87166830D01*
X140502483Y-87166830D02*
X140454864Y-87119211D01*
X140454864Y-87119211D02*
X140359626Y-87071592D01*
X140359626Y-87071592D02*
X140216769Y-87071592D01*
X140216769Y-87071592D02*
X140121531Y-87119211D01*
X140121531Y-87119211D02*
X140073912Y-87166830D01*
X140073912Y-87166830D02*
X140026293Y-87262068D01*
X140026293Y-87262068D02*
X140026293Y-87547782D01*
X140026293Y-87547782D02*
X140073912Y-87643020D01*
X140073912Y-87643020D02*
X140121531Y-87690640D01*
X140121531Y-87690640D02*
X140216769Y-87738259D01*
X140216769Y-87738259D02*
X140359626Y-87738259D01*
X139597721Y-87738259D02*
X139597721Y-86738259D01*
X139597721Y-87119211D02*
X139502483Y-87071592D01*
X139502483Y-87071592D02*
X139312007Y-87071592D01*
X139312007Y-87071592D02*
X139216769Y-87119211D01*
X139216769Y-87119211D02*
X139169150Y-87166830D01*
X139169150Y-87166830D02*
X139121531Y-87262068D01*
X139121531Y-87262068D02*
X139121531Y-87547782D01*
X139121531Y-87547782D02*
X139169150Y-87643020D01*
X139169150Y-87643020D02*
X139216769Y-87690640D01*
X139216769Y-87690640D02*
X139312007Y-87738259D01*
X139312007Y-87738259D02*
X139502483Y-87738259D01*
X139502483Y-87738259D02*
X139597721Y-87690640D01*
X138550102Y-87738259D02*
X138645340Y-87690640D01*
X138645340Y-87690640D02*
X138692959Y-87643020D01*
X138692959Y-87643020D02*
X138740578Y-87547782D01*
X138740578Y-87547782D02*
X138740578Y-87262068D01*
X138740578Y-87262068D02*
X138692959Y-87166830D01*
X138692959Y-87166830D02*
X138645340Y-87119211D01*
X138645340Y-87119211D02*
X138550102Y-87071592D01*
X138550102Y-87071592D02*
X138407245Y-87071592D01*
X138407245Y-87071592D02*
X138312007Y-87119211D01*
X138312007Y-87119211D02*
X138264388Y-87166830D01*
X138264388Y-87166830D02*
X138216769Y-87262068D01*
X138216769Y-87262068D02*
X138216769Y-87547782D01*
X138216769Y-87547782D02*
X138264388Y-87643020D01*
X138264388Y-87643020D02*
X138312007Y-87690640D01*
X138312007Y-87690640D02*
X138407245Y-87738259D01*
X138407245Y-87738259D02*
X138550102Y-87738259D01*
X137931054Y-87071592D02*
X137550102Y-87071592D01*
X137788197Y-86738259D02*
X137788197Y-87595401D01*
X137788197Y-87595401D02*
X137740578Y-87690640D01*
X137740578Y-87690640D02*
X137645340Y-87738259D01*
X137645340Y-87738259D02*
X137550102Y-87738259D01*
X137216768Y-87738259D02*
X137216768Y-86738259D01*
X137216768Y-86738259D02*
X136883435Y-87452544D01*
X136883435Y-87452544D02*
X136550102Y-86738259D01*
X136550102Y-86738259D02*
X136550102Y-87738259D01*
X136073911Y-87738259D02*
X136073911Y-87071592D01*
X136073911Y-86738259D02*
X136121530Y-86785878D01*
X136121530Y-86785878D02*
X136073911Y-86833497D01*
X136073911Y-86833497D02*
X136026292Y-86785878D01*
X136026292Y-86785878D02*
X136073911Y-86738259D01*
X136073911Y-86738259D02*
X136073911Y-86833497D01*
X135645340Y-87690640D02*
X135550102Y-87738259D01*
X135550102Y-87738259D02*
X135359626Y-87738259D01*
X135359626Y-87738259D02*
X135264388Y-87690640D01*
X135264388Y-87690640D02*
X135216769Y-87595401D01*
X135216769Y-87595401D02*
X135216769Y-87547782D01*
X135216769Y-87547782D02*
X135264388Y-87452544D01*
X135264388Y-87452544D02*
X135359626Y-87404925D01*
X135359626Y-87404925D02*
X135502483Y-87404925D01*
X135502483Y-87404925D02*
X135597721Y-87357306D01*
X135597721Y-87357306D02*
X135645340Y-87262068D01*
X135645340Y-87262068D02*
X135645340Y-87214449D01*
X135645340Y-87214449D02*
X135597721Y-87119211D01*
X135597721Y-87119211D02*
X135502483Y-87071592D01*
X135502483Y-87071592D02*
X135359626Y-87071592D01*
X135359626Y-87071592D02*
X135264388Y-87119211D01*
X134835816Y-87690640D02*
X134740578Y-87738259D01*
X134740578Y-87738259D02*
X134550102Y-87738259D01*
X134550102Y-87738259D02*
X134454864Y-87690640D01*
X134454864Y-87690640D02*
X134407245Y-87595401D01*
X134407245Y-87595401D02*
X134407245Y-87547782D01*
X134407245Y-87547782D02*
X134454864Y-87452544D01*
X134454864Y-87452544D02*
X134550102Y-87404925D01*
X134550102Y-87404925D02*
X134692959Y-87404925D01*
X134692959Y-87404925D02*
X134788197Y-87357306D01*
X134788197Y-87357306D02*
X134835816Y-87262068D01*
X134835816Y-87262068D02*
X134835816Y-87214449D01*
X134835816Y-87214449D02*
X134788197Y-87119211D01*
X134788197Y-87119211D02*
X134692959Y-87071592D01*
X134692959Y-87071592D02*
X134550102Y-87071592D01*
X134550102Y-87071592D02*
X134454864Y-87119211D01*
X133978673Y-87738259D02*
X133978673Y-87071592D01*
X133978673Y-86738259D02*
X134026292Y-86785878D01*
X134026292Y-86785878D02*
X133978673Y-86833497D01*
X133978673Y-86833497D02*
X133931054Y-86785878D01*
X133931054Y-86785878D02*
X133978673Y-86738259D01*
X133978673Y-86738259D02*
X133978673Y-86833497D01*
X133359626Y-87738259D02*
X133454864Y-87690640D01*
X133454864Y-87690640D02*
X133502483Y-87643020D01*
X133502483Y-87643020D02*
X133550102Y-87547782D01*
X133550102Y-87547782D02*
X133550102Y-87262068D01*
X133550102Y-87262068D02*
X133502483Y-87166830D01*
X133502483Y-87166830D02*
X133454864Y-87119211D01*
X133454864Y-87119211D02*
X133359626Y-87071592D01*
X133359626Y-87071592D02*
X133216769Y-87071592D01*
X133216769Y-87071592D02*
X133121531Y-87119211D01*
X133121531Y-87119211D02*
X133073912Y-87166830D01*
X133073912Y-87166830D02*
X133026293Y-87262068D01*
X133026293Y-87262068D02*
X133026293Y-87547782D01*
X133026293Y-87547782D02*
X133073912Y-87643020D01*
X133073912Y-87643020D02*
X133121531Y-87690640D01*
X133121531Y-87690640D02*
X133216769Y-87738259D01*
X133216769Y-87738259D02*
X133359626Y-87738259D01*
X132597721Y-87071592D02*
X132597721Y-87738259D01*
X132597721Y-87166830D02*
X132550102Y-87119211D01*
X132550102Y-87119211D02*
X132454864Y-87071592D01*
X132454864Y-87071592D02*
X132312007Y-87071592D01*
X132312007Y-87071592D02*
X132216769Y-87119211D01*
X132216769Y-87119211D02*
X132169150Y-87214449D01*
X132169150Y-87214449D02*
X132169150Y-87738259D01*
X131740578Y-87690640D02*
X131645340Y-87738259D01*
X131645340Y-87738259D02*
X131454864Y-87738259D01*
X131454864Y-87738259D02*
X131359626Y-87690640D01*
X131359626Y-87690640D02*
X131312007Y-87595401D01*
X131312007Y-87595401D02*
X131312007Y-87547782D01*
X131312007Y-87547782D02*
X131359626Y-87452544D01*
X131359626Y-87452544D02*
X131454864Y-87404925D01*
X131454864Y-87404925D02*
X131597721Y-87404925D01*
X131597721Y-87404925D02*
X131692959Y-87357306D01*
X131692959Y-87357306D02*
X131740578Y-87262068D01*
X131740578Y-87262068D02*
X131740578Y-87214449D01*
X131740578Y-87214449D02*
X131692959Y-87119211D01*
X131692959Y-87119211D02*
X131597721Y-87071592D01*
X131597721Y-87071592D02*
X131454864Y-87071592D01*
X131454864Y-87071592D02*
X131359626Y-87119211D01*
X130883435Y-87643020D02*
X130835816Y-87690640D01*
X130835816Y-87690640D02*
X130883435Y-87738259D01*
X130883435Y-87738259D02*
X130931054Y-87690640D01*
X130931054Y-87690640D02*
X130883435Y-87643020D01*
X130883435Y-87643020D02*
X130883435Y-87738259D01*
X130264388Y-87738259D02*
X130359626Y-87690640D01*
X130359626Y-87690640D02*
X130407245Y-87643020D01*
X130407245Y-87643020D02*
X130454864Y-87547782D01*
X130454864Y-87547782D02*
X130454864Y-87262068D01*
X130454864Y-87262068D02*
X130407245Y-87166830D01*
X130407245Y-87166830D02*
X130359626Y-87119211D01*
X130359626Y-87119211D02*
X130264388Y-87071592D01*
X130264388Y-87071592D02*
X130121531Y-87071592D01*
X130121531Y-87071592D02*
X130026293Y-87119211D01*
X130026293Y-87119211D02*
X129978674Y-87166830D01*
X129978674Y-87166830D02*
X129931055Y-87262068D01*
X129931055Y-87262068D02*
X129931055Y-87547782D01*
X129931055Y-87547782D02*
X129978674Y-87643020D01*
X129978674Y-87643020D02*
X130026293Y-87690640D01*
X130026293Y-87690640D02*
X130121531Y-87738259D01*
X130121531Y-87738259D02*
X130264388Y-87738259D01*
X129502483Y-87738259D02*
X129502483Y-87071592D01*
X129502483Y-87262068D02*
X129454864Y-87166830D01*
X129454864Y-87166830D02*
X129407245Y-87119211D01*
X129407245Y-87119211D02*
X129312007Y-87071592D01*
X129312007Y-87071592D02*
X129216769Y-87071592D01*
X128454864Y-87071592D02*
X128454864Y-87881116D01*
X128454864Y-87881116D02*
X128502483Y-87976354D01*
X128502483Y-87976354D02*
X128550102Y-88023973D01*
X128550102Y-88023973D02*
X128645340Y-88071592D01*
X128645340Y-88071592D02*
X128788197Y-88071592D01*
X128788197Y-88071592D02*
X128883435Y-88023973D01*
X128454864Y-87690640D02*
X128550102Y-87738259D01*
X128550102Y-87738259D02*
X128740578Y-87738259D01*
X128740578Y-87738259D02*
X128835816Y-87690640D01*
X128835816Y-87690640D02*
X128883435Y-87643020D01*
X128883435Y-87643020D02*
X128931054Y-87547782D01*
X128931054Y-87547782D02*
X128931054Y-87262068D01*
X128931054Y-87262068D02*
X128883435Y-87166830D01*
X128883435Y-87166830D02*
X128835816Y-87119211D01*
X128835816Y-87119211D02*
X128740578Y-87071592D01*
X128740578Y-87071592D02*
X128550102Y-87071592D01*
X128550102Y-87071592D02*
X128454864Y-87119211D01*
X140978674Y-89348259D02*
X141550102Y-89348259D01*
X141264388Y-89348259D02*
X141264388Y-88348259D01*
X141264388Y-88348259D02*
X141359626Y-88491116D01*
X141359626Y-88491116D02*
X141454864Y-88586354D01*
X141454864Y-88586354D02*
X141550102Y-88633973D01*
X140597721Y-88443497D02*
X140550102Y-88395878D01*
X140550102Y-88395878D02*
X140454864Y-88348259D01*
X140454864Y-88348259D02*
X140216769Y-88348259D01*
X140216769Y-88348259D02*
X140121531Y-88395878D01*
X140121531Y-88395878D02*
X140073912Y-88443497D01*
X140073912Y-88443497D02*
X140026293Y-88538735D01*
X140026293Y-88538735D02*
X140026293Y-88633973D01*
X140026293Y-88633973D02*
X140073912Y-88776830D01*
X140073912Y-88776830D02*
X140645340Y-89348259D01*
X140645340Y-89348259D02*
X140026293Y-89348259D01*
X139597721Y-88967306D02*
X138835817Y-88967306D01*
X138454864Y-88348259D02*
X137835817Y-88348259D01*
X137835817Y-88348259D02*
X138169150Y-88729211D01*
X138169150Y-88729211D02*
X138026293Y-88729211D01*
X138026293Y-88729211D02*
X137931055Y-88776830D01*
X137931055Y-88776830D02*
X137883436Y-88824449D01*
X137883436Y-88824449D02*
X137835817Y-88919687D01*
X137835817Y-88919687D02*
X137835817Y-89157782D01*
X137835817Y-89157782D02*
X137883436Y-89253020D01*
X137883436Y-89253020D02*
X137931055Y-89300640D01*
X137931055Y-89300640D02*
X138026293Y-89348259D01*
X138026293Y-89348259D02*
X138312007Y-89348259D01*
X138312007Y-89348259D02*
X138407245Y-89300640D01*
X138407245Y-89300640D02*
X138454864Y-89253020D01*
X137216769Y-88348259D02*
X137121531Y-88348259D01*
X137121531Y-88348259D02*
X137026293Y-88395878D01*
X137026293Y-88395878D02*
X136978674Y-88443497D01*
X136978674Y-88443497D02*
X136931055Y-88538735D01*
X136931055Y-88538735D02*
X136883436Y-88729211D01*
X136883436Y-88729211D02*
X136883436Y-88967306D01*
X136883436Y-88967306D02*
X136931055Y-89157782D01*
X136931055Y-89157782D02*
X136978674Y-89253020D01*
X136978674Y-89253020D02*
X137026293Y-89300640D01*
X137026293Y-89300640D02*
X137121531Y-89348259D01*
X137121531Y-89348259D02*
X137216769Y-89348259D01*
X137216769Y-89348259D02*
X137312007Y-89300640D01*
X137312007Y-89300640D02*
X137359626Y-89253020D01*
X137359626Y-89253020D02*
X137407245Y-89157782D01*
X137407245Y-89157782D02*
X137454864Y-88967306D01*
X137454864Y-88967306D02*
X137454864Y-88729211D01*
X137454864Y-88729211D02*
X137407245Y-88538735D01*
X137407245Y-88538735D02*
X137359626Y-88443497D01*
X137359626Y-88443497D02*
X137312007Y-88395878D01*
X137312007Y-88395878D02*
X137216769Y-88348259D01*
X136454864Y-88967306D02*
X135692960Y-88967306D01*
X135264388Y-88443497D02*
X135216769Y-88395878D01*
X135216769Y-88395878D02*
X135121531Y-88348259D01*
X135121531Y-88348259D02*
X134883436Y-88348259D01*
X134883436Y-88348259D02*
X134788198Y-88395878D01*
X134788198Y-88395878D02*
X134740579Y-88443497D01*
X134740579Y-88443497D02*
X134692960Y-88538735D01*
X134692960Y-88538735D02*
X134692960Y-88633973D01*
X134692960Y-88633973D02*
X134740579Y-88776830D01*
X134740579Y-88776830D02*
X135312007Y-89348259D01*
X135312007Y-89348259D02*
X134692960Y-89348259D01*
X134359626Y-88348259D02*
X133740579Y-88348259D01*
X133740579Y-88348259D02*
X134073912Y-88729211D01*
X134073912Y-88729211D02*
X133931055Y-88729211D01*
X133931055Y-88729211D02*
X133835817Y-88776830D01*
X133835817Y-88776830D02*
X133788198Y-88824449D01*
X133788198Y-88824449D02*
X133740579Y-88919687D01*
X133740579Y-88919687D02*
X133740579Y-89157782D01*
X133740579Y-89157782D02*
X133788198Y-89253020D01*
X133788198Y-89253020D02*
X133835817Y-89300640D01*
X133835817Y-89300640D02*
X133931055Y-89348259D01*
X133931055Y-89348259D02*
X134216769Y-89348259D01*
X134216769Y-89348259D02*
X134312007Y-89300640D01*
X134312007Y-89300640D02*
X134359626Y-89253020D01*
X141597721Y-90291592D02*
X141359626Y-90958259D01*
X141359626Y-90958259D02*
X141121531Y-90291592D01*
X140216769Y-90958259D02*
X140788197Y-90958259D01*
X140502483Y-90958259D02*
X140502483Y-89958259D01*
X140502483Y-89958259D02*
X140597721Y-90101116D01*
X140597721Y-90101116D02*
X140692959Y-90196354D01*
X140692959Y-90196354D02*
X140788197Y-90243973D01*
X139788197Y-90863020D02*
X139740578Y-90910640D01*
X139740578Y-90910640D02*
X139788197Y-90958259D01*
X139788197Y-90958259D02*
X139835816Y-90910640D01*
X139835816Y-90910640D02*
X139788197Y-90863020D01*
X139788197Y-90863020D02*
X139788197Y-90958259D01*
X139121531Y-89958259D02*
X139026293Y-89958259D01*
X139026293Y-89958259D02*
X138931055Y-90005878D01*
X138931055Y-90005878D02*
X138883436Y-90053497D01*
X138883436Y-90053497D02*
X138835817Y-90148735D01*
X138835817Y-90148735D02*
X138788198Y-90339211D01*
X138788198Y-90339211D02*
X138788198Y-90577306D01*
X138788198Y-90577306D02*
X138835817Y-90767782D01*
X138835817Y-90767782D02*
X138883436Y-90863020D01*
X138883436Y-90863020D02*
X138931055Y-90910640D01*
X138931055Y-90910640D02*
X139026293Y-90958259D01*
X139026293Y-90958259D02*
X139121531Y-90958259D01*
X139121531Y-90958259D02*
X139216769Y-90910640D01*
X139216769Y-90910640D02*
X139264388Y-90863020D01*
X139264388Y-90863020D02*
X139312007Y-90767782D01*
X139312007Y-90767782D02*
X139359626Y-90577306D01*
X139359626Y-90577306D02*
X139359626Y-90339211D01*
X139359626Y-90339211D02*
X139312007Y-90148735D01*
X139312007Y-90148735D02*
X139264388Y-90053497D01*
X139264388Y-90053497D02*
X139216769Y-90005878D01*
X139216769Y-90005878D02*
X139121531Y-89958259D01*
D11*
X127868564Y-101129219D02*
X127249517Y-101129219D01*
X127249517Y-101129219D02*
X127582850Y-101510171D01*
X127582850Y-101510171D02*
X127439993Y-101510171D01*
X127439993Y-101510171D02*
X127344755Y-101557790D01*
X127344755Y-101557790D02*
X127297136Y-101605409D01*
X127297136Y-101605409D02*
X127249517Y-101700647D01*
X127249517Y-101700647D02*
X127249517Y-101938742D01*
X127249517Y-101938742D02*
X127297136Y-102033980D01*
X127297136Y-102033980D02*
X127344755Y-102081600D01*
X127344755Y-102081600D02*
X127439993Y-102129219D01*
X127439993Y-102129219D02*
X127725707Y-102129219D01*
X127725707Y-102129219D02*
X127820945Y-102081600D01*
X127820945Y-102081600D02*
X127868564Y-102033980D01*
X126916183Y-102129219D02*
X126392374Y-101462552D01*
X126916183Y-101462552D02*
X126392374Y-102129219D01*
X126059040Y-101843504D02*
X125582850Y-101843504D01*
X126154278Y-102129219D02*
X125820945Y-101129219D01*
X125820945Y-101129219D02*
X125487612Y-102129219D01*
X125201897Y-101843504D02*
X124725707Y-101843504D01*
X125297135Y-102129219D02*
X124963802Y-101129219D01*
X124963802Y-101129219D02*
X124630469Y-102129219D01*
X111263326Y-99335219D02*
X111263326Y-98335219D01*
X111263326Y-98335219D02*
X110691898Y-99335219D01*
X110691898Y-99335219D02*
X110691898Y-98335219D01*
X109834755Y-99287600D02*
X109929993Y-99335219D01*
X109929993Y-99335219D02*
X110120469Y-99335219D01*
X110120469Y-99335219D02*
X110215707Y-99287600D01*
X110215707Y-99287600D02*
X110263326Y-99192361D01*
X110263326Y-99192361D02*
X110263326Y-98811409D01*
X110263326Y-98811409D02*
X110215707Y-98716171D01*
X110215707Y-98716171D02*
X110120469Y-98668552D01*
X110120469Y-98668552D02*
X109929993Y-98668552D01*
X109929993Y-98668552D02*
X109834755Y-98716171D01*
X109834755Y-98716171D02*
X109787136Y-98811409D01*
X109787136Y-98811409D02*
X109787136Y-98906647D01*
X109787136Y-98906647D02*
X110263326Y-99001885D01*
X109215707Y-99335219D02*
X109310945Y-99287600D01*
X109310945Y-99287600D02*
X109358564Y-99239980D01*
X109358564Y-99239980D02*
X109406183Y-99144742D01*
X109406183Y-99144742D02*
X109406183Y-98859028D01*
X109406183Y-98859028D02*
X109358564Y-98763790D01*
X109358564Y-98763790D02*
X109310945Y-98716171D01*
X109310945Y-98716171D02*
X109215707Y-98668552D01*
X109215707Y-98668552D02*
X109072850Y-98668552D01*
X109072850Y-98668552D02*
X108977612Y-98716171D01*
X108977612Y-98716171D02*
X108929993Y-98763790D01*
X108929993Y-98763790D02*
X108882374Y-98859028D01*
X108882374Y-98859028D02*
X108882374Y-99144742D01*
X108882374Y-99144742D02*
X108929993Y-99239980D01*
X108929993Y-99239980D02*
X108977612Y-99287600D01*
X108977612Y-99287600D02*
X109072850Y-99335219D01*
X109072850Y-99335219D02*
X109215707Y-99335219D01*
X107168088Y-99335219D02*
X107739516Y-99335219D01*
X107453802Y-99335219D02*
X107453802Y-98335219D01*
X107453802Y-98335219D02*
X107549040Y-98478076D01*
X107549040Y-98478076D02*
X107644278Y-98573314D01*
X107644278Y-98573314D02*
X107739516Y-98620933D01*
D13*
X120563340Y-81064259D02*
X120230007Y-82064259D01*
X120230007Y-82064259D02*
X119896674Y-81064259D01*
X119801436Y-82159497D02*
X119039531Y-82159497D01*
X118801435Y-82064259D02*
X118801435Y-81064259D01*
X118325245Y-82064259D02*
X118325245Y-81064259D01*
X118325245Y-81064259D02*
X117753817Y-82064259D01*
X117753817Y-82064259D02*
X117753817Y-81064259D01*
X117277626Y-81969020D02*
X117230007Y-82016640D01*
X117230007Y-82016640D02*
X117277626Y-82064259D01*
X117277626Y-82064259D02*
X117325245Y-82016640D01*
X117325245Y-82016640D02*
X117277626Y-81969020D01*
X117277626Y-81969020D02*
X117277626Y-82064259D01*
X117277626Y-81445211D02*
X117230007Y-81492830D01*
X117230007Y-81492830D02*
X117277626Y-81540449D01*
X117277626Y-81540449D02*
X117325245Y-81492830D01*
X117325245Y-81492830D02*
X117277626Y-81445211D01*
X117277626Y-81445211D02*
X117277626Y-81540449D01*
X115849055Y-81064259D02*
X115753817Y-81064259D01*
X115753817Y-81064259D02*
X115658579Y-81111878D01*
X115658579Y-81111878D02*
X115610960Y-81159497D01*
X115610960Y-81159497D02*
X115563341Y-81254735D01*
X115563341Y-81254735D02*
X115515722Y-81445211D01*
X115515722Y-81445211D02*
X115515722Y-81683306D01*
X115515722Y-81683306D02*
X115563341Y-81873782D01*
X115563341Y-81873782D02*
X115610960Y-81969020D01*
X115610960Y-81969020D02*
X115658579Y-82016640D01*
X115658579Y-82016640D02*
X115753817Y-82064259D01*
X115753817Y-82064259D02*
X115849055Y-82064259D01*
X115849055Y-82064259D02*
X115944293Y-82016640D01*
X115944293Y-82016640D02*
X115991912Y-81969020D01*
X115991912Y-81969020D02*
X116039531Y-81873782D01*
X116039531Y-81873782D02*
X116087150Y-81683306D01*
X116087150Y-81683306D02*
X116087150Y-81445211D01*
X116087150Y-81445211D02*
X116039531Y-81254735D01*
X116039531Y-81254735D02*
X115991912Y-81159497D01*
X115991912Y-81159497D02*
X115944293Y-81111878D01*
X115944293Y-81111878D02*
X115849055Y-81064259D01*
X115087150Y-81969020D02*
X115039531Y-82016640D01*
X115039531Y-82016640D02*
X115087150Y-82064259D01*
X115087150Y-82064259D02*
X115134769Y-82016640D01*
X115134769Y-82016640D02*
X115087150Y-81969020D01*
X115087150Y-81969020D02*
X115087150Y-82064259D01*
X114563341Y-82064259D02*
X114372865Y-82064259D01*
X114372865Y-82064259D02*
X114277627Y-82016640D01*
X114277627Y-82016640D02*
X114230008Y-81969020D01*
X114230008Y-81969020D02*
X114134770Y-81826163D01*
X114134770Y-81826163D02*
X114087151Y-81635687D01*
X114087151Y-81635687D02*
X114087151Y-81254735D01*
X114087151Y-81254735D02*
X114134770Y-81159497D01*
X114134770Y-81159497D02*
X114182389Y-81111878D01*
X114182389Y-81111878D02*
X114277627Y-81064259D01*
X114277627Y-81064259D02*
X114468103Y-81064259D01*
X114468103Y-81064259D02*
X114563341Y-81111878D01*
X114563341Y-81111878D02*
X114610960Y-81159497D01*
X114610960Y-81159497D02*
X114658579Y-81254735D01*
X114658579Y-81254735D02*
X114658579Y-81492830D01*
X114658579Y-81492830D02*
X114610960Y-81588068D01*
X114610960Y-81588068D02*
X114563341Y-81635687D01*
X114563341Y-81635687D02*
X114468103Y-81683306D01*
X114468103Y-81683306D02*
X114277627Y-81683306D01*
X114277627Y-81683306D02*
X114182389Y-81635687D01*
X114182389Y-81635687D02*
X114134770Y-81588068D01*
X114134770Y-81588068D02*
X114087151Y-81492830D01*
X112896674Y-81683306D02*
X112134770Y-81683306D01*
X110468103Y-81397592D02*
X110468103Y-82064259D01*
X110706198Y-81016640D02*
X110944293Y-81730925D01*
X110944293Y-81730925D02*
X110325246Y-81730925D01*
X109944293Y-81969020D02*
X109896674Y-82016640D01*
X109896674Y-82016640D02*
X109944293Y-82064259D01*
X109944293Y-82064259D02*
X109991912Y-82016640D01*
X109991912Y-82016640D02*
X109944293Y-81969020D01*
X109944293Y-81969020D02*
X109944293Y-82064259D01*
X109563341Y-81064259D02*
X108896675Y-81064259D01*
X108896675Y-81064259D02*
X109325246Y-82064259D01*
X108039532Y-81064259D02*
X108515722Y-81064259D01*
X108515722Y-81064259D02*
X108563341Y-81540449D01*
X108563341Y-81540449D02*
X108515722Y-81492830D01*
X108515722Y-81492830D02*
X108420484Y-81445211D01*
X108420484Y-81445211D02*
X108182389Y-81445211D01*
X108182389Y-81445211D02*
X108087151Y-81492830D01*
X108087151Y-81492830D02*
X108039532Y-81540449D01*
X108039532Y-81540449D02*
X107991913Y-81635687D01*
X107991913Y-81635687D02*
X107991913Y-81873782D01*
X107991913Y-81873782D02*
X108039532Y-81969020D01*
X108039532Y-81969020D02*
X108087151Y-82016640D01*
X108087151Y-82016640D02*
X108182389Y-82064259D01*
X108182389Y-82064259D02*
X108420484Y-82064259D01*
X108420484Y-82064259D02*
X108515722Y-82016640D01*
X108515722Y-82016640D02*
X108563341Y-81969020D01*
X107706198Y-81064259D02*
X107372865Y-82064259D01*
X107372865Y-82064259D02*
X107039532Y-81064259D01*
X120563340Y-82674259D02*
X120230007Y-83674259D01*
X120230007Y-83674259D02*
X119896674Y-82674259D01*
X119801436Y-83769497D02*
X119039531Y-83769497D01*
X118610959Y-82674259D02*
X118420483Y-82674259D01*
X118420483Y-82674259D02*
X118325245Y-82721878D01*
X118325245Y-82721878D02*
X118230007Y-82817116D01*
X118230007Y-82817116D02*
X118182388Y-83007592D01*
X118182388Y-83007592D02*
X118182388Y-83340925D01*
X118182388Y-83340925D02*
X118230007Y-83531401D01*
X118230007Y-83531401D02*
X118325245Y-83626640D01*
X118325245Y-83626640D02*
X118420483Y-83674259D01*
X118420483Y-83674259D02*
X118610959Y-83674259D01*
X118610959Y-83674259D02*
X118706197Y-83626640D01*
X118706197Y-83626640D02*
X118801435Y-83531401D01*
X118801435Y-83531401D02*
X118849054Y-83340925D01*
X118849054Y-83340925D02*
X118849054Y-83007592D01*
X118849054Y-83007592D02*
X118801435Y-82817116D01*
X118801435Y-82817116D02*
X118706197Y-82721878D01*
X118706197Y-82721878D02*
X118610959Y-82674259D01*
X117753816Y-82674259D02*
X117753816Y-83483782D01*
X117753816Y-83483782D02*
X117706197Y-83579020D01*
X117706197Y-83579020D02*
X117658578Y-83626640D01*
X117658578Y-83626640D02*
X117563340Y-83674259D01*
X117563340Y-83674259D02*
X117372864Y-83674259D01*
X117372864Y-83674259D02*
X117277626Y-83626640D01*
X117277626Y-83626640D02*
X117230007Y-83579020D01*
X117230007Y-83579020D02*
X117182388Y-83483782D01*
X117182388Y-83483782D02*
X117182388Y-82674259D01*
X116849054Y-82674259D02*
X116277626Y-82674259D01*
X116563340Y-83674259D02*
X116563340Y-82674259D01*
X115944292Y-83579020D02*
X115896673Y-83626640D01*
X115896673Y-83626640D02*
X115944292Y-83674259D01*
X115944292Y-83674259D02*
X115991911Y-83626640D01*
X115991911Y-83626640D02*
X115944292Y-83579020D01*
X115944292Y-83579020D02*
X115944292Y-83674259D01*
X115944292Y-83055211D02*
X115896673Y-83102830D01*
X115896673Y-83102830D02*
X115944292Y-83150449D01*
X115944292Y-83150449D02*
X115991911Y-83102830D01*
X115991911Y-83102830D02*
X115944292Y-83055211D01*
X115944292Y-83055211D02*
X115944292Y-83150449D01*
X114230007Y-82674259D02*
X114706197Y-82674259D01*
X114706197Y-82674259D02*
X114753816Y-83150449D01*
X114753816Y-83150449D02*
X114706197Y-83102830D01*
X114706197Y-83102830D02*
X114610959Y-83055211D01*
X114610959Y-83055211D02*
X114372864Y-83055211D01*
X114372864Y-83055211D02*
X114277626Y-83102830D01*
X114277626Y-83102830D02*
X114230007Y-83150449D01*
X114230007Y-83150449D02*
X114182388Y-83245687D01*
X114182388Y-83245687D02*
X114182388Y-83483782D01*
X114182388Y-83483782D02*
X114230007Y-83579020D01*
X114230007Y-83579020D02*
X114277626Y-83626640D01*
X114277626Y-83626640D02*
X114372864Y-83674259D01*
X114372864Y-83674259D02*
X114610959Y-83674259D01*
X114610959Y-83674259D02*
X114706197Y-83626640D01*
X114706197Y-83626640D02*
X114753816Y-83579020D01*
X113896673Y-82674259D02*
X113563340Y-83674259D01*
X113563340Y-83674259D02*
X113230007Y-82674259D01*
X112849054Y-83626640D02*
X112849054Y-83674259D01*
X112849054Y-83674259D02*
X112896673Y-83769497D01*
X112896673Y-83769497D02*
X112944292Y-83817116D01*
X111753816Y-82674259D02*
X111134769Y-82674259D01*
X111134769Y-82674259D02*
X111468102Y-83055211D01*
X111468102Y-83055211D02*
X111325245Y-83055211D01*
X111325245Y-83055211D02*
X111230007Y-83102830D01*
X111230007Y-83102830D02*
X111182388Y-83150449D01*
X111182388Y-83150449D02*
X111134769Y-83245687D01*
X111134769Y-83245687D02*
X111134769Y-83483782D01*
X111134769Y-83483782D02*
X111182388Y-83579020D01*
X111182388Y-83579020D02*
X111230007Y-83626640D01*
X111230007Y-83626640D02*
X111325245Y-83674259D01*
X111325245Y-83674259D02*
X111610959Y-83674259D01*
X111610959Y-83674259D02*
X111706197Y-83626640D01*
X111706197Y-83626640D02*
X111753816Y-83579020D01*
X110753816Y-83388544D02*
X110277626Y-83388544D01*
X110849054Y-83674259D02*
X110515721Y-82674259D01*
X110515721Y-82674259D02*
X110182388Y-83674259D01*
X120563340Y-84284259D02*
X120230007Y-85284259D01*
X120230007Y-85284259D02*
X119896674Y-84284259D01*
X119801436Y-85379497D02*
X119039531Y-85379497D01*
X118230007Y-85284259D02*
X118563340Y-84808068D01*
X118801435Y-85284259D02*
X118801435Y-84284259D01*
X118801435Y-84284259D02*
X118420483Y-84284259D01*
X118420483Y-84284259D02*
X118325245Y-84331878D01*
X118325245Y-84331878D02*
X118277626Y-84379497D01*
X118277626Y-84379497D02*
X118230007Y-84474735D01*
X118230007Y-84474735D02*
X118230007Y-84617592D01*
X118230007Y-84617592D02*
X118277626Y-84712830D01*
X118277626Y-84712830D02*
X118325245Y-84760449D01*
X118325245Y-84760449D02*
X118420483Y-84808068D01*
X118420483Y-84808068D02*
X118801435Y-84808068D01*
X117801435Y-84760449D02*
X117468102Y-84760449D01*
X117325245Y-85284259D02*
X117801435Y-85284259D01*
X117801435Y-85284259D02*
X117801435Y-84284259D01*
X117801435Y-84284259D02*
X117325245Y-84284259D01*
X116372864Y-84331878D02*
X116468102Y-84284259D01*
X116468102Y-84284259D02*
X116610959Y-84284259D01*
X116610959Y-84284259D02*
X116753816Y-84331878D01*
X116753816Y-84331878D02*
X116849054Y-84427116D01*
X116849054Y-84427116D02*
X116896673Y-84522354D01*
X116896673Y-84522354D02*
X116944292Y-84712830D01*
X116944292Y-84712830D02*
X116944292Y-84855687D01*
X116944292Y-84855687D02*
X116896673Y-85046163D01*
X116896673Y-85046163D02*
X116849054Y-85141401D01*
X116849054Y-85141401D02*
X116753816Y-85236640D01*
X116753816Y-85236640D02*
X116610959Y-85284259D01*
X116610959Y-85284259D02*
X116515721Y-85284259D01*
X116515721Y-85284259D02*
X116372864Y-85236640D01*
X116372864Y-85236640D02*
X116325245Y-85189020D01*
X116325245Y-85189020D02*
X116325245Y-84855687D01*
X116325245Y-84855687D02*
X116515721Y-84855687D01*
X115896673Y-85189020D02*
X115849054Y-85236640D01*
X115849054Y-85236640D02*
X115896673Y-85284259D01*
X115896673Y-85284259D02*
X115944292Y-85236640D01*
X115944292Y-85236640D02*
X115896673Y-85189020D01*
X115896673Y-85189020D02*
X115896673Y-85284259D01*
X115896673Y-84665211D02*
X115849054Y-84712830D01*
X115849054Y-84712830D02*
X115896673Y-84760449D01*
X115896673Y-84760449D02*
X115944292Y-84712830D01*
X115944292Y-84712830D02*
X115896673Y-84665211D01*
X115896673Y-84665211D02*
X115896673Y-84760449D01*
X114753816Y-84284259D02*
X114134769Y-84284259D01*
X114134769Y-84284259D02*
X114468102Y-84665211D01*
X114468102Y-84665211D02*
X114325245Y-84665211D01*
X114325245Y-84665211D02*
X114230007Y-84712830D01*
X114230007Y-84712830D02*
X114182388Y-84760449D01*
X114182388Y-84760449D02*
X114134769Y-84855687D01*
X114134769Y-84855687D02*
X114134769Y-85093782D01*
X114134769Y-85093782D02*
X114182388Y-85189020D01*
X114182388Y-85189020D02*
X114230007Y-85236640D01*
X114230007Y-85236640D02*
X114325245Y-85284259D01*
X114325245Y-85284259D02*
X114610959Y-85284259D01*
X114610959Y-85284259D02*
X114706197Y-85236640D01*
X114706197Y-85236640D02*
X114753816Y-85189020D01*
X113706197Y-85189020D02*
X113658578Y-85236640D01*
X113658578Y-85236640D02*
X113706197Y-85284259D01*
X113706197Y-85284259D02*
X113753816Y-85236640D01*
X113753816Y-85236640D02*
X113706197Y-85189020D01*
X113706197Y-85189020D02*
X113706197Y-85284259D01*
X113325245Y-84284259D02*
X112706198Y-84284259D01*
X112706198Y-84284259D02*
X113039531Y-84665211D01*
X113039531Y-84665211D02*
X112896674Y-84665211D01*
X112896674Y-84665211D02*
X112801436Y-84712830D01*
X112801436Y-84712830D02*
X112753817Y-84760449D01*
X112753817Y-84760449D02*
X112706198Y-84855687D01*
X112706198Y-84855687D02*
X112706198Y-85093782D01*
X112706198Y-85093782D02*
X112753817Y-85189020D01*
X112753817Y-85189020D02*
X112801436Y-85236640D01*
X112801436Y-85236640D02*
X112896674Y-85284259D01*
X112896674Y-85284259D02*
X113182388Y-85284259D01*
X113182388Y-85284259D02*
X113277626Y-85236640D01*
X113277626Y-85236640D02*
X113325245Y-85189020D01*
X112420483Y-84284259D02*
X112087150Y-85284259D01*
X112087150Y-85284259D02*
X111753817Y-84284259D01*
X111372864Y-85236640D02*
X111372864Y-85284259D01*
X111372864Y-85284259D02*
X111420483Y-85379497D01*
X111420483Y-85379497D02*
X111468102Y-85427116D01*
X109658579Y-85284259D02*
X110230007Y-85284259D01*
X109944293Y-85284259D02*
X109944293Y-84284259D01*
X109944293Y-84284259D02*
X110039531Y-84427116D01*
X110039531Y-84427116D02*
X110134769Y-84522354D01*
X110134769Y-84522354D02*
X110230007Y-84569973D01*
X109277626Y-84998544D02*
X108801436Y-84998544D01*
X109372864Y-85284259D02*
X109039531Y-84284259D01*
X109039531Y-84284259D02*
X108706198Y-85284259D01*
D11*
X127297136Y-104923219D02*
X127773326Y-104923219D01*
X127773326Y-104923219D02*
X127773326Y-103923219D01*
X126963802Y-104923219D02*
X126963802Y-104256552D01*
X126963802Y-103923219D02*
X127011421Y-103970838D01*
X127011421Y-103970838D02*
X126963802Y-104018457D01*
X126963802Y-104018457D02*
X126916183Y-103970838D01*
X126916183Y-103970838D02*
X126963802Y-103923219D01*
X126963802Y-103923219D02*
X126963802Y-104018457D01*
X126487612Y-104923219D02*
X126487612Y-103923219D01*
X126487612Y-103923219D02*
X126106660Y-103923219D01*
X126106660Y-103923219D02*
X126011422Y-103970838D01*
X126011422Y-103970838D02*
X125963803Y-104018457D01*
X125963803Y-104018457D02*
X125916184Y-104113695D01*
X125916184Y-104113695D02*
X125916184Y-104256552D01*
X125916184Y-104256552D02*
X125963803Y-104351790D01*
X125963803Y-104351790D02*
X126011422Y-104399409D01*
X126011422Y-104399409D02*
X126106660Y-104447028D01*
X126106660Y-104447028D02*
X126487612Y-104447028D01*
X125344755Y-104923219D02*
X125439993Y-104875600D01*
X125439993Y-104875600D02*
X125487612Y-104827980D01*
X125487612Y-104827980D02*
X125535231Y-104732742D01*
X125535231Y-104732742D02*
X125535231Y-104447028D01*
X125535231Y-104447028D02*
X125487612Y-104351790D01*
X125487612Y-104351790D02*
X125439993Y-104304171D01*
X125439993Y-104304171D02*
X125344755Y-104256552D01*
X125344755Y-104256552D02*
X125201898Y-104256552D01*
X125201898Y-104256552D02*
X125106660Y-104304171D01*
X125106660Y-104304171D02*
X125059041Y-104351790D01*
X125059041Y-104351790D02*
X125011422Y-104447028D01*
X125011422Y-104447028D02*
X125011422Y-104732742D01*
X125011422Y-104732742D02*
X125059041Y-104827980D01*
X125059041Y-104827980D02*
X125106660Y-104875600D01*
X125106660Y-104875600D02*
X125201898Y-104923219D01*
X125201898Y-104923219D02*
X125344755Y-104923219D01*
X123297136Y-104923219D02*
X123868564Y-104923219D01*
X123582850Y-104923219D02*
X123582850Y-103923219D01*
X123582850Y-103923219D02*
X123678088Y-104066076D01*
X123678088Y-104066076D02*
X123773326Y-104161314D01*
X123773326Y-104161314D02*
X123868564Y-104208933D01*
X122916183Y-104875600D02*
X122773326Y-104923219D01*
X122773326Y-104923219D02*
X122535231Y-104923219D01*
X122535231Y-104923219D02*
X122439993Y-104875600D01*
X122439993Y-104875600D02*
X122392374Y-104827980D01*
X122392374Y-104827980D02*
X122344755Y-104732742D01*
X122344755Y-104732742D02*
X122344755Y-104637504D01*
X122344755Y-104637504D02*
X122392374Y-104542266D01*
X122392374Y-104542266D02*
X122439993Y-104494647D01*
X122439993Y-104494647D02*
X122535231Y-104447028D01*
X122535231Y-104447028D02*
X122725707Y-104399409D01*
X122725707Y-104399409D02*
X122820945Y-104351790D01*
X122820945Y-104351790D02*
X122868564Y-104304171D01*
X122868564Y-104304171D02*
X122916183Y-104208933D01*
X122916183Y-104208933D02*
X122916183Y-104113695D01*
X122916183Y-104113695D02*
X122868564Y-104018457D01*
X122868564Y-104018457D02*
X122820945Y-103970838D01*
X122820945Y-103970838D02*
X122725707Y-103923219D01*
X122725707Y-103923219D02*
X122487612Y-103923219D01*
X122487612Y-103923219D02*
X122344755Y-103970838D01*
D14*
X140384978Y-82485228D02*
X139956406Y-82628085D01*
X139956406Y-82628085D02*
X139813549Y-82770942D01*
X139813549Y-82770942D02*
X139670692Y-83056657D01*
X139670692Y-83056657D02*
X139670692Y-83485228D01*
X139670692Y-83485228D02*
X139813549Y-83770942D01*
X139813549Y-83770942D02*
X139956406Y-83913800D01*
X139956406Y-83913800D02*
X140242121Y-84056657D01*
X140242121Y-84056657D02*
X141384978Y-84056657D01*
X141384978Y-84056657D02*
X141384978Y-81056657D01*
X141384978Y-81056657D02*
X140384978Y-81056657D01*
X140384978Y-81056657D02*
X140099264Y-81199514D01*
X140099264Y-81199514D02*
X139956406Y-81342371D01*
X139956406Y-81342371D02*
X139813549Y-81628085D01*
X139813549Y-81628085D02*
X139813549Y-81913800D01*
X139813549Y-81913800D02*
X139956406Y-82199514D01*
X139956406Y-82199514D02*
X140099264Y-82342371D01*
X140099264Y-82342371D02*
X140384978Y-82485228D01*
X140384978Y-82485228D02*
X141384978Y-82485228D01*
X137956406Y-84056657D02*
X138242121Y-83913800D01*
X138242121Y-83913800D02*
X138384978Y-83770942D01*
X138384978Y-83770942D02*
X138527835Y-83485228D01*
X138527835Y-83485228D02*
X138527835Y-82628085D01*
X138527835Y-82628085D02*
X138384978Y-82342371D01*
X138384978Y-82342371D02*
X138242121Y-82199514D01*
X138242121Y-82199514D02*
X137956406Y-82056657D01*
X137956406Y-82056657D02*
X137527835Y-82056657D01*
X137527835Y-82056657D02*
X137242121Y-82199514D01*
X137242121Y-82199514D02*
X137099264Y-82342371D01*
X137099264Y-82342371D02*
X136956406Y-82628085D01*
X136956406Y-82628085D02*
X136956406Y-83485228D01*
X136956406Y-83485228D02*
X137099264Y-83770942D01*
X137099264Y-83770942D02*
X137242121Y-83913800D01*
X137242121Y-83913800D02*
X137527835Y-84056657D01*
X137527835Y-84056657D02*
X137956406Y-84056657D01*
X135242120Y-84056657D02*
X135527835Y-83913800D01*
X135527835Y-83913800D02*
X135670692Y-83770942D01*
X135670692Y-83770942D02*
X135813549Y-83485228D01*
X135813549Y-83485228D02*
X135813549Y-82628085D01*
X135813549Y-82628085D02*
X135670692Y-82342371D01*
X135670692Y-82342371D02*
X135527835Y-82199514D01*
X135527835Y-82199514D02*
X135242120Y-82056657D01*
X135242120Y-82056657D02*
X134813549Y-82056657D01*
X134813549Y-82056657D02*
X134527835Y-82199514D01*
X134527835Y-82199514D02*
X134384978Y-82342371D01*
X134384978Y-82342371D02*
X134242120Y-82628085D01*
X134242120Y-82628085D02*
X134242120Y-83485228D01*
X134242120Y-83485228D02*
X134384978Y-83770942D01*
X134384978Y-83770942D02*
X134527835Y-83913800D01*
X134527835Y-83913800D02*
X134813549Y-84056657D01*
X134813549Y-84056657D02*
X135242120Y-84056657D01*
X133099263Y-83913800D02*
X132813549Y-84056657D01*
X132813549Y-84056657D02*
X132242120Y-84056657D01*
X132242120Y-84056657D02*
X131956406Y-83913800D01*
X131956406Y-83913800D02*
X131813549Y-83628085D01*
X131813549Y-83628085D02*
X131813549Y-83485228D01*
X131813549Y-83485228D02*
X131956406Y-83199514D01*
X131956406Y-83199514D02*
X132242120Y-83056657D01*
X132242120Y-83056657D02*
X132670692Y-83056657D01*
X132670692Y-83056657D02*
X132956406Y-82913800D01*
X132956406Y-82913800D02*
X133099263Y-82628085D01*
X133099263Y-82628085D02*
X133099263Y-82485228D01*
X133099263Y-82485228D02*
X132956406Y-82199514D01*
X132956406Y-82199514D02*
X132670692Y-82056657D01*
X132670692Y-82056657D02*
X132242120Y-82056657D01*
X132242120Y-82056657D02*
X131956406Y-82199514D01*
X130956406Y-82056657D02*
X129813549Y-82056657D01*
X130527835Y-81056657D02*
X130527835Y-83628085D01*
X130527835Y-83628085D02*
X130384978Y-83913800D01*
X130384978Y-83913800D02*
X130099263Y-84056657D01*
X130099263Y-84056657D02*
X129813549Y-84056657D01*
X128384977Y-84056657D02*
X128670692Y-83913800D01*
X128670692Y-83913800D02*
X128813549Y-83628085D01*
X128813549Y-83628085D02*
X128813549Y-81056657D01*
X126099263Y-83913800D02*
X126384977Y-84056657D01*
X126384977Y-84056657D02*
X126956406Y-84056657D01*
X126956406Y-84056657D02*
X127242120Y-83913800D01*
X127242120Y-83913800D02*
X127384977Y-83628085D01*
X127384977Y-83628085D02*
X127384977Y-82485228D01*
X127384977Y-82485228D02*
X127242120Y-82199514D01*
X127242120Y-82199514D02*
X126956406Y-82056657D01*
X126956406Y-82056657D02*
X126384977Y-82056657D01*
X126384977Y-82056657D02*
X126099263Y-82199514D01*
X126099263Y-82199514D02*
X125956406Y-82485228D01*
X125956406Y-82485228D02*
X125956406Y-82770942D01*
X125956406Y-82770942D02*
X127384977Y-83056657D01*
X125099262Y-82056657D02*
X123956405Y-82056657D01*
X124670691Y-81056657D02*
X124670691Y-83628085D01*
X124670691Y-83628085D02*
X124527834Y-83913800D01*
X124527834Y-83913800D02*
X124242119Y-84056657D01*
X124242119Y-84056657D02*
X123956405Y-84056657D01*
X122956405Y-83770942D02*
X122813548Y-83913800D01*
X122813548Y-83913800D02*
X122956405Y-84056657D01*
X122956405Y-84056657D02*
X123099262Y-83913800D01*
X123099262Y-83913800D02*
X122956405Y-83770942D01*
X122956405Y-83770942D02*
X122956405Y-84056657D01*
X122956405Y-82913800D02*
X123099262Y-81199514D01*
X123099262Y-81199514D02*
X122956405Y-81056657D01*
X122956405Y-81056657D02*
X122813548Y-81199514D01*
X122813548Y-81199514D02*
X122956405Y-82913800D01*
X122956405Y-82913800D02*
X122956405Y-81056657D01*
D11*
X111263326Y-104796219D02*
X111263326Y-103796219D01*
X111263326Y-103796219D02*
X110882374Y-103796219D01*
X110882374Y-103796219D02*
X110787136Y-103843838D01*
X110787136Y-103843838D02*
X110739517Y-103891457D01*
X110739517Y-103891457D02*
X110691898Y-103986695D01*
X110691898Y-103986695D02*
X110691898Y-104129552D01*
X110691898Y-104129552D02*
X110739517Y-104224790D01*
X110739517Y-104224790D02*
X110787136Y-104272409D01*
X110787136Y-104272409D02*
X110882374Y-104320028D01*
X110882374Y-104320028D02*
X111263326Y-104320028D01*
X110406183Y-103796219D02*
X109834755Y-103796219D01*
X110120469Y-104796219D02*
X110120469Y-103796219D01*
X108929993Y-104700980D02*
X108977612Y-104748600D01*
X108977612Y-104748600D02*
X109120469Y-104796219D01*
X109120469Y-104796219D02*
X109215707Y-104796219D01*
X109215707Y-104796219D02*
X109358564Y-104748600D01*
X109358564Y-104748600D02*
X109453802Y-104653361D01*
X109453802Y-104653361D02*
X109501421Y-104558123D01*
X109501421Y-104558123D02*
X109549040Y-104367647D01*
X109549040Y-104367647D02*
X109549040Y-104224790D01*
X109549040Y-104224790D02*
X109501421Y-104034314D01*
X109501421Y-104034314D02*
X109453802Y-103939076D01*
X109453802Y-103939076D02*
X109358564Y-103843838D01*
X109358564Y-103843838D02*
X109215707Y-103796219D01*
X109215707Y-103796219D02*
X109120469Y-103796219D01*
X109120469Y-103796219D02*
X108977612Y-103843838D01*
X108977612Y-103843838D02*
X108929993Y-103891457D01*
X107739516Y-104796219D02*
X107739516Y-104129552D01*
X107739516Y-103796219D02*
X107787135Y-103843838D01*
X107787135Y-103843838D02*
X107739516Y-103891457D01*
X107739516Y-103891457D02*
X107691897Y-103843838D01*
X107691897Y-103843838D02*
X107739516Y-103796219D01*
X107739516Y-103796219D02*
X107739516Y-103891457D01*
X107263326Y-104129552D02*
X107263326Y-104796219D01*
X107263326Y-104224790D02*
X107215707Y-104177171D01*
X107215707Y-104177171D02*
X107120469Y-104129552D01*
X107120469Y-104129552D02*
X106977612Y-104129552D01*
X106977612Y-104129552D02*
X106882374Y-104177171D01*
X106882374Y-104177171D02*
X106834755Y-104272409D01*
X106834755Y-104272409D02*
X106834755Y-104796219D01*
X111263326Y-102002219D02*
X111263326Y-101002219D01*
X111263326Y-101002219D02*
X110691898Y-102002219D01*
X110691898Y-102002219D02*
X110691898Y-101002219D01*
X109834755Y-101954600D02*
X109929993Y-102002219D01*
X109929993Y-102002219D02*
X110120469Y-102002219D01*
X110120469Y-102002219D02*
X110215707Y-101954600D01*
X110215707Y-101954600D02*
X110263326Y-101859361D01*
X110263326Y-101859361D02*
X110263326Y-101478409D01*
X110263326Y-101478409D02*
X110215707Y-101383171D01*
X110215707Y-101383171D02*
X110120469Y-101335552D01*
X110120469Y-101335552D02*
X109929993Y-101335552D01*
X109929993Y-101335552D02*
X109834755Y-101383171D01*
X109834755Y-101383171D02*
X109787136Y-101478409D01*
X109787136Y-101478409D02*
X109787136Y-101573647D01*
X109787136Y-101573647D02*
X110263326Y-101668885D01*
X109215707Y-102002219D02*
X109310945Y-101954600D01*
X109310945Y-101954600D02*
X109358564Y-101906980D01*
X109358564Y-101906980D02*
X109406183Y-101811742D01*
X109406183Y-101811742D02*
X109406183Y-101526028D01*
X109406183Y-101526028D02*
X109358564Y-101430790D01*
X109358564Y-101430790D02*
X109310945Y-101383171D01*
X109310945Y-101383171D02*
X109215707Y-101335552D01*
X109215707Y-101335552D02*
X109072850Y-101335552D01*
X109072850Y-101335552D02*
X108977612Y-101383171D01*
X108977612Y-101383171D02*
X108929993Y-101430790D01*
X108929993Y-101430790D02*
X108882374Y-101526028D01*
X108882374Y-101526028D02*
X108882374Y-101811742D01*
X108882374Y-101811742D02*
X108929993Y-101906980D01*
X108929993Y-101906980D02*
X108977612Y-101954600D01*
X108977612Y-101954600D02*
X109072850Y-102002219D01*
X109072850Y-102002219D02*
X109215707Y-102002219D01*
X107739516Y-101097457D02*
X107691897Y-101049838D01*
X107691897Y-101049838D02*
X107596659Y-101002219D01*
X107596659Y-101002219D02*
X107358564Y-101002219D01*
X107358564Y-101002219D02*
X107263326Y-101049838D01*
X107263326Y-101049838D02*
X107215707Y-101097457D01*
X107215707Y-101097457D02*
X107168088Y-101192695D01*
X107168088Y-101192695D02*
X107168088Y-101287933D01*
X107168088Y-101287933D02*
X107215707Y-101430790D01*
X107215707Y-101430790D02*
X107787135Y-102002219D01*
X107787135Y-102002219D02*
X107168088Y-102002219D01*
D10*
G04 #@! TO.C,TP4*
X116577904Y-88484819D02*
X116006476Y-88484819D01*
X116292190Y-89484819D02*
X116292190Y-88484819D01*
X115673142Y-89484819D02*
X115673142Y-88484819D01*
X115673142Y-88484819D02*
X115292190Y-88484819D01*
X115292190Y-88484819D02*
X115196952Y-88532438D01*
X115196952Y-88532438D02*
X115149333Y-88580057D01*
X115149333Y-88580057D02*
X115101714Y-88675295D01*
X115101714Y-88675295D02*
X115101714Y-88818152D01*
X115101714Y-88818152D02*
X115149333Y-88913390D01*
X115149333Y-88913390D02*
X115196952Y-88961009D01*
X115196952Y-88961009D02*
X115292190Y-89008628D01*
X115292190Y-89008628D02*
X115673142Y-89008628D01*
X114244571Y-88818152D02*
X114244571Y-89484819D01*
X114482666Y-88437200D02*
X114720761Y-89151485D01*
X114720761Y-89151485D02*
X114101714Y-89151485D01*
G04 #@! TO.C,TP8*
X119879904Y-103724819D02*
X119308476Y-103724819D01*
X119594190Y-104724819D02*
X119594190Y-103724819D01*
X118975142Y-104724819D02*
X118975142Y-103724819D01*
X118975142Y-103724819D02*
X118594190Y-103724819D01*
X118594190Y-103724819D02*
X118498952Y-103772438D01*
X118498952Y-103772438D02*
X118451333Y-103820057D01*
X118451333Y-103820057D02*
X118403714Y-103915295D01*
X118403714Y-103915295D02*
X118403714Y-104058152D01*
X118403714Y-104058152D02*
X118451333Y-104153390D01*
X118451333Y-104153390D02*
X118498952Y-104201009D01*
X118498952Y-104201009D02*
X118594190Y-104248628D01*
X118594190Y-104248628D02*
X118975142Y-104248628D01*
X117832285Y-104153390D02*
X117927523Y-104105771D01*
X117927523Y-104105771D02*
X117975142Y-104058152D01*
X117975142Y-104058152D02*
X118022761Y-103962914D01*
X118022761Y-103962914D02*
X118022761Y-103915295D01*
X118022761Y-103915295D02*
X117975142Y-103820057D01*
X117975142Y-103820057D02*
X117927523Y-103772438D01*
X117927523Y-103772438D02*
X117832285Y-103724819D01*
X117832285Y-103724819D02*
X117641809Y-103724819D01*
X117641809Y-103724819D02*
X117546571Y-103772438D01*
X117546571Y-103772438D02*
X117498952Y-103820057D01*
X117498952Y-103820057D02*
X117451333Y-103915295D01*
X117451333Y-103915295D02*
X117451333Y-103962914D01*
X117451333Y-103962914D02*
X117498952Y-104058152D01*
X117498952Y-104058152D02*
X117546571Y-104105771D01*
X117546571Y-104105771D02*
X117641809Y-104153390D01*
X117641809Y-104153390D02*
X117832285Y-104153390D01*
X117832285Y-104153390D02*
X117927523Y-104201009D01*
X117927523Y-104201009D02*
X117975142Y-104248628D01*
X117975142Y-104248628D02*
X118022761Y-104343866D01*
X118022761Y-104343866D02*
X118022761Y-104534342D01*
X118022761Y-104534342D02*
X117975142Y-104629580D01*
X117975142Y-104629580D02*
X117927523Y-104677200D01*
X117927523Y-104677200D02*
X117832285Y-104724819D01*
X117832285Y-104724819D02*
X117641809Y-104724819D01*
X117641809Y-104724819D02*
X117546571Y-104677200D01*
X117546571Y-104677200D02*
X117498952Y-104629580D01*
X117498952Y-104629580D02*
X117451333Y-104534342D01*
X117451333Y-104534342D02*
X117451333Y-104343866D01*
X117451333Y-104343866D02*
X117498952Y-104248628D01*
X117498952Y-104248628D02*
X117546571Y-104201009D01*
X117546571Y-104201009D02*
X117641809Y-104153390D01*
G04 #@! TO.C,TP9*
X117339904Y-100168819D02*
X116768476Y-100168819D01*
X117054190Y-101168819D02*
X117054190Y-100168819D01*
X116435142Y-101168819D02*
X116435142Y-100168819D01*
X116435142Y-100168819D02*
X116054190Y-100168819D01*
X116054190Y-100168819D02*
X115958952Y-100216438D01*
X115958952Y-100216438D02*
X115911333Y-100264057D01*
X115911333Y-100264057D02*
X115863714Y-100359295D01*
X115863714Y-100359295D02*
X115863714Y-100502152D01*
X115863714Y-100502152D02*
X115911333Y-100597390D01*
X115911333Y-100597390D02*
X115958952Y-100645009D01*
X115958952Y-100645009D02*
X116054190Y-100692628D01*
X116054190Y-100692628D02*
X116435142Y-100692628D01*
X115387523Y-101168819D02*
X115197047Y-101168819D01*
X115197047Y-101168819D02*
X115101809Y-101121200D01*
X115101809Y-101121200D02*
X115054190Y-101073580D01*
X115054190Y-101073580D02*
X114958952Y-100930723D01*
X114958952Y-100930723D02*
X114911333Y-100740247D01*
X114911333Y-100740247D02*
X114911333Y-100359295D01*
X114911333Y-100359295D02*
X114958952Y-100264057D01*
X114958952Y-100264057D02*
X115006571Y-100216438D01*
X115006571Y-100216438D02*
X115101809Y-100168819D01*
X115101809Y-100168819D02*
X115292285Y-100168819D01*
X115292285Y-100168819D02*
X115387523Y-100216438D01*
X115387523Y-100216438D02*
X115435142Y-100264057D01*
X115435142Y-100264057D02*
X115482761Y-100359295D01*
X115482761Y-100359295D02*
X115482761Y-100597390D01*
X115482761Y-100597390D02*
X115435142Y-100692628D01*
X115435142Y-100692628D02*
X115387523Y-100740247D01*
X115387523Y-100740247D02*
X115292285Y-100787866D01*
X115292285Y-100787866D02*
X115101809Y-100787866D01*
X115101809Y-100787866D02*
X115006571Y-100740247D01*
X115006571Y-100740247D02*
X114958952Y-100692628D01*
X114958952Y-100692628D02*
X114911333Y-100597390D01*
G04 #@! TO.C,TP15*
X128357094Y-93942819D02*
X127785666Y-93942819D01*
X128071380Y-94942819D02*
X128071380Y-93942819D01*
X127452332Y-94942819D02*
X127452332Y-93942819D01*
X127452332Y-93942819D02*
X127071380Y-93942819D01*
X127071380Y-93942819D02*
X126976142Y-93990438D01*
X126976142Y-93990438D02*
X126928523Y-94038057D01*
X126928523Y-94038057D02*
X126880904Y-94133295D01*
X126880904Y-94133295D02*
X126880904Y-94276152D01*
X126880904Y-94276152D02*
X126928523Y-94371390D01*
X126928523Y-94371390D02*
X126976142Y-94419009D01*
X126976142Y-94419009D02*
X127071380Y-94466628D01*
X127071380Y-94466628D02*
X127452332Y-94466628D01*
X125928523Y-94942819D02*
X126499951Y-94942819D01*
X126214237Y-94942819D02*
X126214237Y-93942819D01*
X126214237Y-93942819D02*
X126309475Y-94085676D01*
X126309475Y-94085676D02*
X126404713Y-94180914D01*
X126404713Y-94180914D02*
X126499951Y-94228533D01*
X125023761Y-93942819D02*
X125499951Y-93942819D01*
X125499951Y-93942819D02*
X125547570Y-94419009D01*
X125547570Y-94419009D02*
X125499951Y-94371390D01*
X125499951Y-94371390D02*
X125404713Y-94323771D01*
X125404713Y-94323771D02*
X125166618Y-94323771D01*
X125166618Y-94323771D02*
X125071380Y-94371390D01*
X125071380Y-94371390D02*
X125023761Y-94419009D01*
X125023761Y-94419009D02*
X124976142Y-94514247D01*
X124976142Y-94514247D02*
X124976142Y-94752342D01*
X124976142Y-94752342D02*
X125023761Y-94847580D01*
X125023761Y-94847580D02*
X125071380Y-94895200D01*
X125071380Y-94895200D02*
X125166618Y-94942819D01*
X125166618Y-94942819D02*
X125404713Y-94942819D01*
X125404713Y-94942819D02*
X125499951Y-94895200D01*
X125499951Y-94895200D02*
X125547570Y-94847580D01*
G04 #@! TO.C,TP16*
X131659094Y-91402819D02*
X131087666Y-91402819D01*
X131373380Y-92402819D02*
X131373380Y-91402819D01*
X130754332Y-92402819D02*
X130754332Y-91402819D01*
X130754332Y-91402819D02*
X130373380Y-91402819D01*
X130373380Y-91402819D02*
X130278142Y-91450438D01*
X130278142Y-91450438D02*
X130230523Y-91498057D01*
X130230523Y-91498057D02*
X130182904Y-91593295D01*
X130182904Y-91593295D02*
X130182904Y-91736152D01*
X130182904Y-91736152D02*
X130230523Y-91831390D01*
X130230523Y-91831390D02*
X130278142Y-91879009D01*
X130278142Y-91879009D02*
X130373380Y-91926628D01*
X130373380Y-91926628D02*
X130754332Y-91926628D01*
X129230523Y-92402819D02*
X129801951Y-92402819D01*
X129516237Y-92402819D02*
X129516237Y-91402819D01*
X129516237Y-91402819D02*
X129611475Y-91545676D01*
X129611475Y-91545676D02*
X129706713Y-91640914D01*
X129706713Y-91640914D02*
X129801951Y-91688533D01*
X128373380Y-91402819D02*
X128563856Y-91402819D01*
X128563856Y-91402819D02*
X128659094Y-91450438D01*
X128659094Y-91450438D02*
X128706713Y-91498057D01*
X128706713Y-91498057D02*
X128801951Y-91640914D01*
X128801951Y-91640914D02*
X128849570Y-91831390D01*
X128849570Y-91831390D02*
X128849570Y-92212342D01*
X128849570Y-92212342D02*
X128801951Y-92307580D01*
X128801951Y-92307580D02*
X128754332Y-92355200D01*
X128754332Y-92355200D02*
X128659094Y-92402819D01*
X128659094Y-92402819D02*
X128468618Y-92402819D01*
X128468618Y-92402819D02*
X128373380Y-92355200D01*
X128373380Y-92355200D02*
X128325761Y-92307580D01*
X128325761Y-92307580D02*
X128278142Y-92212342D01*
X128278142Y-92212342D02*
X128278142Y-91974247D01*
X128278142Y-91974247D02*
X128325761Y-91879009D01*
X128325761Y-91879009D02*
X128373380Y-91831390D01*
X128373380Y-91831390D02*
X128468618Y-91783771D01*
X128468618Y-91783771D02*
X128659094Y-91783771D01*
X128659094Y-91783771D02*
X128754332Y-91831390D01*
X128754332Y-91831390D02*
X128801951Y-91879009D01*
X128801951Y-91879009D02*
X128849570Y-91974247D01*
G04 #@! TO.C,TP5*
X137659904Y-97628819D02*
X137088476Y-97628819D01*
X137374190Y-98628819D02*
X137374190Y-97628819D01*
X136755142Y-98628819D02*
X136755142Y-97628819D01*
X136755142Y-97628819D02*
X136374190Y-97628819D01*
X136374190Y-97628819D02*
X136278952Y-97676438D01*
X136278952Y-97676438D02*
X136231333Y-97724057D01*
X136231333Y-97724057D02*
X136183714Y-97819295D01*
X136183714Y-97819295D02*
X136183714Y-97962152D01*
X136183714Y-97962152D02*
X136231333Y-98057390D01*
X136231333Y-98057390D02*
X136278952Y-98105009D01*
X136278952Y-98105009D02*
X136374190Y-98152628D01*
X136374190Y-98152628D02*
X136755142Y-98152628D01*
X135278952Y-97628819D02*
X135755142Y-97628819D01*
X135755142Y-97628819D02*
X135802761Y-98105009D01*
X135802761Y-98105009D02*
X135755142Y-98057390D01*
X135755142Y-98057390D02*
X135659904Y-98009771D01*
X135659904Y-98009771D02*
X135421809Y-98009771D01*
X135421809Y-98009771D02*
X135326571Y-98057390D01*
X135326571Y-98057390D02*
X135278952Y-98105009D01*
X135278952Y-98105009D02*
X135231333Y-98200247D01*
X135231333Y-98200247D02*
X135231333Y-98438342D01*
X135231333Y-98438342D02*
X135278952Y-98533580D01*
X135278952Y-98533580D02*
X135326571Y-98581200D01*
X135326571Y-98581200D02*
X135421809Y-98628819D01*
X135421809Y-98628819D02*
X135659904Y-98628819D01*
X135659904Y-98628819D02*
X135755142Y-98581200D01*
X135755142Y-98581200D02*
X135802761Y-98533580D01*
G04 #@! TO.C,TP11*
X136231094Y-93688819D02*
X135659666Y-93688819D01*
X135945380Y-94688819D02*
X135945380Y-93688819D01*
X135326332Y-94688819D02*
X135326332Y-93688819D01*
X135326332Y-93688819D02*
X134945380Y-93688819D01*
X134945380Y-93688819D02*
X134850142Y-93736438D01*
X134850142Y-93736438D02*
X134802523Y-93784057D01*
X134802523Y-93784057D02*
X134754904Y-93879295D01*
X134754904Y-93879295D02*
X134754904Y-94022152D01*
X134754904Y-94022152D02*
X134802523Y-94117390D01*
X134802523Y-94117390D02*
X134850142Y-94165009D01*
X134850142Y-94165009D02*
X134945380Y-94212628D01*
X134945380Y-94212628D02*
X135326332Y-94212628D01*
X133802523Y-94688819D02*
X134373951Y-94688819D01*
X134088237Y-94688819D02*
X134088237Y-93688819D01*
X134088237Y-93688819D02*
X134183475Y-93831676D01*
X134183475Y-93831676D02*
X134278713Y-93926914D01*
X134278713Y-93926914D02*
X134373951Y-93974533D01*
X132850142Y-94688819D02*
X133421570Y-94688819D01*
X133135856Y-94688819D02*
X133135856Y-93688819D01*
X133135856Y-93688819D02*
X133231094Y-93831676D01*
X133231094Y-93831676D02*
X133326332Y-93926914D01*
X133326332Y-93926914D02*
X133421570Y-93974533D01*
G04 #@! TO.C,TP2*
X135119904Y-102454819D02*
X134548476Y-102454819D01*
X134834190Y-103454819D02*
X134834190Y-102454819D01*
X134215142Y-103454819D02*
X134215142Y-102454819D01*
X134215142Y-102454819D02*
X133834190Y-102454819D01*
X133834190Y-102454819D02*
X133738952Y-102502438D01*
X133738952Y-102502438D02*
X133691333Y-102550057D01*
X133691333Y-102550057D02*
X133643714Y-102645295D01*
X133643714Y-102645295D02*
X133643714Y-102788152D01*
X133643714Y-102788152D02*
X133691333Y-102883390D01*
X133691333Y-102883390D02*
X133738952Y-102931009D01*
X133738952Y-102931009D02*
X133834190Y-102978628D01*
X133834190Y-102978628D02*
X134215142Y-102978628D01*
X133262761Y-102550057D02*
X133215142Y-102502438D01*
X133215142Y-102502438D02*
X133119904Y-102454819D01*
X133119904Y-102454819D02*
X132881809Y-102454819D01*
X132881809Y-102454819D02*
X132786571Y-102502438D01*
X132786571Y-102502438D02*
X132738952Y-102550057D01*
X132738952Y-102550057D02*
X132691333Y-102645295D01*
X132691333Y-102645295D02*
X132691333Y-102740533D01*
X132691333Y-102740533D02*
X132738952Y-102883390D01*
X132738952Y-102883390D02*
X133310380Y-103454819D01*
X133310380Y-103454819D02*
X132691333Y-103454819D01*
G04 #@! TO.C,TP14*
X124293094Y-85687819D02*
X123721666Y-85687819D01*
X124007380Y-86687819D02*
X124007380Y-85687819D01*
X123388332Y-86687819D02*
X123388332Y-85687819D01*
X123388332Y-85687819D02*
X123007380Y-85687819D01*
X123007380Y-85687819D02*
X122912142Y-85735438D01*
X122912142Y-85735438D02*
X122864523Y-85783057D01*
X122864523Y-85783057D02*
X122816904Y-85878295D01*
X122816904Y-85878295D02*
X122816904Y-86021152D01*
X122816904Y-86021152D02*
X122864523Y-86116390D01*
X122864523Y-86116390D02*
X122912142Y-86164009D01*
X122912142Y-86164009D02*
X123007380Y-86211628D01*
X123007380Y-86211628D02*
X123388332Y-86211628D01*
X121864523Y-86687819D02*
X122435951Y-86687819D01*
X122150237Y-86687819D02*
X122150237Y-85687819D01*
X122150237Y-85687819D02*
X122245475Y-85830676D01*
X122245475Y-85830676D02*
X122340713Y-85925914D01*
X122340713Y-85925914D02*
X122435951Y-85973533D01*
X121007380Y-86021152D02*
X121007380Y-86687819D01*
X121245475Y-85640200D02*
X121483570Y-86354485D01*
X121483570Y-86354485D02*
X120864523Y-86354485D01*
G04 #@! TO.C,TP6*
X116450904Y-96228819D02*
X115879476Y-96228819D01*
X116165190Y-97228819D02*
X116165190Y-96228819D01*
X115546142Y-97228819D02*
X115546142Y-96228819D01*
X115546142Y-96228819D02*
X115165190Y-96228819D01*
X115165190Y-96228819D02*
X115069952Y-96276438D01*
X115069952Y-96276438D02*
X115022333Y-96324057D01*
X115022333Y-96324057D02*
X114974714Y-96419295D01*
X114974714Y-96419295D02*
X114974714Y-96562152D01*
X114974714Y-96562152D02*
X115022333Y-96657390D01*
X115022333Y-96657390D02*
X115069952Y-96705009D01*
X115069952Y-96705009D02*
X115165190Y-96752628D01*
X115165190Y-96752628D02*
X115546142Y-96752628D01*
X114117571Y-96228819D02*
X114308047Y-96228819D01*
X114308047Y-96228819D02*
X114403285Y-96276438D01*
X114403285Y-96276438D02*
X114450904Y-96324057D01*
X114450904Y-96324057D02*
X114546142Y-96466914D01*
X114546142Y-96466914D02*
X114593761Y-96657390D01*
X114593761Y-96657390D02*
X114593761Y-97038342D01*
X114593761Y-97038342D02*
X114546142Y-97133580D01*
X114546142Y-97133580D02*
X114498523Y-97181200D01*
X114498523Y-97181200D02*
X114403285Y-97228819D01*
X114403285Y-97228819D02*
X114212809Y-97228819D01*
X114212809Y-97228819D02*
X114117571Y-97181200D01*
X114117571Y-97181200D02*
X114069952Y-97133580D01*
X114069952Y-97133580D02*
X114022333Y-97038342D01*
X114022333Y-97038342D02*
X114022333Y-96800247D01*
X114022333Y-96800247D02*
X114069952Y-96705009D01*
X114069952Y-96705009D02*
X114117571Y-96657390D01*
X114117571Y-96657390D02*
X114212809Y-96609771D01*
X114212809Y-96609771D02*
X114403285Y-96609771D01*
X114403285Y-96609771D02*
X114498523Y-96657390D01*
X114498523Y-96657390D02*
X114546142Y-96705009D01*
X114546142Y-96705009D02*
X114593761Y-96800247D01*
G04 #@! TO.C,TP3*
X112005904Y-86957819D02*
X111434476Y-86957819D01*
X111720190Y-87957819D02*
X111720190Y-86957819D01*
X111101142Y-87957819D02*
X111101142Y-86957819D01*
X111101142Y-86957819D02*
X110720190Y-86957819D01*
X110720190Y-86957819D02*
X110624952Y-87005438D01*
X110624952Y-87005438D02*
X110577333Y-87053057D01*
X110577333Y-87053057D02*
X110529714Y-87148295D01*
X110529714Y-87148295D02*
X110529714Y-87291152D01*
X110529714Y-87291152D02*
X110577333Y-87386390D01*
X110577333Y-87386390D02*
X110624952Y-87434009D01*
X110624952Y-87434009D02*
X110720190Y-87481628D01*
X110720190Y-87481628D02*
X111101142Y-87481628D01*
X110196380Y-86957819D02*
X109577333Y-86957819D01*
X109577333Y-86957819D02*
X109910666Y-87338771D01*
X109910666Y-87338771D02*
X109767809Y-87338771D01*
X109767809Y-87338771D02*
X109672571Y-87386390D01*
X109672571Y-87386390D02*
X109624952Y-87434009D01*
X109624952Y-87434009D02*
X109577333Y-87529247D01*
X109577333Y-87529247D02*
X109577333Y-87767342D01*
X109577333Y-87767342D02*
X109624952Y-87862580D01*
X109624952Y-87862580D02*
X109672571Y-87910200D01*
X109672571Y-87910200D02*
X109767809Y-87957819D01*
X109767809Y-87957819D02*
X110053523Y-87957819D01*
X110053523Y-87957819D02*
X110148761Y-87910200D01*
X110148761Y-87910200D02*
X110196380Y-87862580D01*
G04 #@! TO.C,TP13*
X140930094Y-93564819D02*
X140358666Y-93564819D01*
X140644380Y-94564819D02*
X140644380Y-93564819D01*
X140025332Y-94564819D02*
X140025332Y-93564819D01*
X140025332Y-93564819D02*
X139644380Y-93564819D01*
X139644380Y-93564819D02*
X139549142Y-93612438D01*
X139549142Y-93612438D02*
X139501523Y-93660057D01*
X139501523Y-93660057D02*
X139453904Y-93755295D01*
X139453904Y-93755295D02*
X139453904Y-93898152D01*
X139453904Y-93898152D02*
X139501523Y-93993390D01*
X139501523Y-93993390D02*
X139549142Y-94041009D01*
X139549142Y-94041009D02*
X139644380Y-94088628D01*
X139644380Y-94088628D02*
X140025332Y-94088628D01*
X138501523Y-94564819D02*
X139072951Y-94564819D01*
X138787237Y-94564819D02*
X138787237Y-93564819D01*
X138787237Y-93564819D02*
X138882475Y-93707676D01*
X138882475Y-93707676D02*
X138977713Y-93802914D01*
X138977713Y-93802914D02*
X139072951Y-93850533D01*
X138168189Y-93564819D02*
X137549142Y-93564819D01*
X137549142Y-93564819D02*
X137882475Y-93945771D01*
X137882475Y-93945771D02*
X137739618Y-93945771D01*
X137739618Y-93945771D02*
X137644380Y-93993390D01*
X137644380Y-93993390D02*
X137596761Y-94041009D01*
X137596761Y-94041009D02*
X137549142Y-94136247D01*
X137549142Y-94136247D02*
X137549142Y-94374342D01*
X137549142Y-94374342D02*
X137596761Y-94469580D01*
X137596761Y-94469580D02*
X137644380Y-94517200D01*
X137644380Y-94517200D02*
X137739618Y-94564819D01*
X137739618Y-94564819D02*
X138025332Y-94564819D01*
X138025332Y-94564819D02*
X138120570Y-94517200D01*
X138120570Y-94517200D02*
X138168189Y-94469580D01*
G04 #@! TO.C,TP1*
X137405904Y-105248819D02*
X136834476Y-105248819D01*
X137120190Y-106248819D02*
X137120190Y-105248819D01*
X136501142Y-106248819D02*
X136501142Y-105248819D01*
X136501142Y-105248819D02*
X136120190Y-105248819D01*
X136120190Y-105248819D02*
X136024952Y-105296438D01*
X136024952Y-105296438D02*
X135977333Y-105344057D01*
X135977333Y-105344057D02*
X135929714Y-105439295D01*
X135929714Y-105439295D02*
X135929714Y-105582152D01*
X135929714Y-105582152D02*
X135977333Y-105677390D01*
X135977333Y-105677390D02*
X136024952Y-105725009D01*
X136024952Y-105725009D02*
X136120190Y-105772628D01*
X136120190Y-105772628D02*
X136501142Y-105772628D01*
X134977333Y-106248819D02*
X135548761Y-106248819D01*
X135263047Y-106248819D02*
X135263047Y-105248819D01*
X135263047Y-105248819D02*
X135358285Y-105391676D01*
X135358285Y-105391676D02*
X135453523Y-105486914D01*
X135453523Y-105486914D02*
X135548761Y-105534533D01*
G04 #@! TO.C,TP10*
X122007094Y-100165819D02*
X121435666Y-100165819D01*
X121721380Y-101165819D02*
X121721380Y-100165819D01*
X121102332Y-101165819D02*
X121102332Y-100165819D01*
X121102332Y-100165819D02*
X120721380Y-100165819D01*
X120721380Y-100165819D02*
X120626142Y-100213438D01*
X120626142Y-100213438D02*
X120578523Y-100261057D01*
X120578523Y-100261057D02*
X120530904Y-100356295D01*
X120530904Y-100356295D02*
X120530904Y-100499152D01*
X120530904Y-100499152D02*
X120578523Y-100594390D01*
X120578523Y-100594390D02*
X120626142Y-100642009D01*
X120626142Y-100642009D02*
X120721380Y-100689628D01*
X120721380Y-100689628D02*
X121102332Y-100689628D01*
X119578523Y-101165819D02*
X120149951Y-101165819D01*
X119864237Y-101165819D02*
X119864237Y-100165819D01*
X119864237Y-100165819D02*
X119959475Y-100308676D01*
X119959475Y-100308676D02*
X120054713Y-100403914D01*
X120054713Y-100403914D02*
X120149951Y-100451533D01*
X118959475Y-100165819D02*
X118864237Y-100165819D01*
X118864237Y-100165819D02*
X118768999Y-100213438D01*
X118768999Y-100213438D02*
X118721380Y-100261057D01*
X118721380Y-100261057D02*
X118673761Y-100356295D01*
X118673761Y-100356295D02*
X118626142Y-100546771D01*
X118626142Y-100546771D02*
X118626142Y-100784866D01*
X118626142Y-100784866D02*
X118673761Y-100975342D01*
X118673761Y-100975342D02*
X118721380Y-101070580D01*
X118721380Y-101070580D02*
X118768999Y-101118200D01*
X118768999Y-101118200D02*
X118864237Y-101165819D01*
X118864237Y-101165819D02*
X118959475Y-101165819D01*
X118959475Y-101165819D02*
X119054713Y-101118200D01*
X119054713Y-101118200D02*
X119102332Y-101070580D01*
X119102332Y-101070580D02*
X119149951Y-100975342D01*
X119149951Y-100975342D02*
X119197570Y-100784866D01*
X119197570Y-100784866D02*
X119197570Y-100546771D01*
X119197570Y-100546771D02*
X119149951Y-100356295D01*
X119149951Y-100356295D02*
X119102332Y-100261057D01*
X119102332Y-100261057D02*
X119054713Y-100213438D01*
X119054713Y-100213438D02*
X118959475Y-100165819D01*
G04 #@! TO.C,TP12*
X123025819Y-88050905D02*
X123025819Y-88622333D01*
X124025819Y-88336619D02*
X123025819Y-88336619D01*
X124025819Y-88955667D02*
X123025819Y-88955667D01*
X123025819Y-88955667D02*
X123025819Y-89336619D01*
X123025819Y-89336619D02*
X123073438Y-89431857D01*
X123073438Y-89431857D02*
X123121057Y-89479476D01*
X123121057Y-89479476D02*
X123216295Y-89527095D01*
X123216295Y-89527095D02*
X123359152Y-89527095D01*
X123359152Y-89527095D02*
X123454390Y-89479476D01*
X123454390Y-89479476D02*
X123502009Y-89431857D01*
X123502009Y-89431857D02*
X123549628Y-89336619D01*
X123549628Y-89336619D02*
X123549628Y-88955667D01*
X124025819Y-90479476D02*
X124025819Y-89908048D01*
X124025819Y-90193762D02*
X123025819Y-90193762D01*
X123025819Y-90193762D02*
X123168676Y-90098524D01*
X123168676Y-90098524D02*
X123263914Y-90003286D01*
X123263914Y-90003286D02*
X123311533Y-89908048D01*
X123121057Y-90860429D02*
X123073438Y-90908048D01*
X123073438Y-90908048D02*
X123025819Y-91003286D01*
X123025819Y-91003286D02*
X123025819Y-91241381D01*
X123025819Y-91241381D02*
X123073438Y-91336619D01*
X123073438Y-91336619D02*
X123121057Y-91384238D01*
X123121057Y-91384238D02*
X123216295Y-91431857D01*
X123216295Y-91431857D02*
X123311533Y-91431857D01*
X123311533Y-91431857D02*
X123454390Y-91384238D01*
X123454390Y-91384238D02*
X124025819Y-90812810D01*
X124025819Y-90812810D02*
X124025819Y-91431857D01*
D15*
G04 #@! TO.C,TP4*
X116266000Y-90678000D02*
G75*
G03*
X116266000Y-90678000I-950000J0D01*
G01*
G04 #@! TO.C,TP8*
X119568000Y-105918000D02*
G75*
G03*
X119568000Y-105918000I-950000J0D01*
G01*
G04 #@! TO.C,TP9*
X117028000Y-102362000D02*
G75*
G03*
X117028000Y-102362000I-950000J0D01*
G01*
G04 #@! TO.C,TP15*
X127696000Y-92456000D02*
G75*
G03*
X127696000Y-92456000I-950000J0D01*
G01*
G04 #@! TO.C,REF\u002A\u002A*
D16*
X119747933Y-87666371D02*
X119823856Y-87666865D01*
X119878491Y-87668135D01*
X119915500Y-87670547D01*
X119938547Y-87674467D01*
X119951296Y-87680262D01*
X119957411Y-87688299D01*
X119960556Y-87698943D01*
X119960646Y-87699325D01*
X119965814Y-87724347D01*
X119975209Y-87772681D01*
X119987867Y-87839260D01*
X120002825Y-87919014D01*
X120019119Y-88006875D01*
X120020448Y-88014064D01*
X120036691Y-88099340D01*
X120051805Y-88174242D01*
X120064808Y-88234219D01*
X120074715Y-88274717D01*
X120080544Y-88291184D01*
X120080575Y-88291210D01*
X120098943Y-88300320D01*
X120136640Y-88315457D01*
X120185543Y-88333358D01*
X120188297Y-88334330D01*
X120250817Y-88357959D01*
X120323543Y-88387595D01*
X120391294Y-88417062D01*
X120502703Y-88467626D01*
X120749399Y-88299160D01*
X120766775Y-88287311D01*
X120841202Y-88236947D01*
X120907614Y-88192612D01*
X120962039Y-88156916D01*
X121000506Y-88132471D01*
X121019042Y-88121889D01*
X121031743Y-88124315D01*
X121060579Y-88143110D01*
X121105143Y-88180330D01*
X121166670Y-88237020D01*
X121246398Y-88314227D01*
X121253532Y-88321255D01*
X121316796Y-88384222D01*
X121372990Y-88441268D01*
X121418677Y-88488817D01*
X121450414Y-88523297D01*
X121464764Y-88541131D01*
X121464810Y-88541217D01*
X121466633Y-88554795D01*
X121459910Y-88576820D01*
X121442946Y-88610304D01*
X121414044Y-88658261D01*
X121371508Y-88723704D01*
X121313644Y-88809645D01*
X121303783Y-88824151D01*
X121253913Y-88897635D01*
X121209905Y-88962687D01*
X121174380Y-89015417D01*
X121149959Y-89051936D01*
X121139264Y-89068356D01*
X121138458Y-89071834D01*
X121143518Y-89097785D01*
X121158677Y-89140159D01*
X121181463Y-89191728D01*
X121212429Y-89259170D01*
X121247004Y-89339195D01*
X121276366Y-89411629D01*
X121283645Y-89430377D01*
X121302710Y-89478246D01*
X121316715Y-89511596D01*
X121323041Y-89524114D01*
X121330025Y-89525050D01*
X121361413Y-89530461D01*
X121412787Y-89539806D01*
X121478802Y-89552069D01*
X121554113Y-89566232D01*
X121633375Y-89581280D01*
X121711243Y-89596195D01*
X121782370Y-89609961D01*
X121841412Y-89621562D01*
X121883022Y-89629980D01*
X121901857Y-89634199D01*
X121904980Y-89635389D01*
X121912591Y-89641805D01*
X121918254Y-89655465D01*
X121922251Y-89679999D01*
X121924866Y-89719038D01*
X121926384Y-89776213D01*
X121927086Y-89855154D01*
X121927257Y-89959492D01*
X121927257Y-90276799D01*
X121851057Y-90291839D01*
X121841840Y-90293642D01*
X121792891Y-90302980D01*
X121725205Y-90315669D01*
X121646478Y-90330273D01*
X121564400Y-90345355D01*
X121532078Y-90351422D01*
X121459855Y-90366181D01*
X121399666Y-90380137D01*
X121357040Y-90391952D01*
X121337510Y-90400287D01*
X121328660Y-90413905D01*
X121312548Y-90449938D01*
X121296065Y-90496572D01*
X121290263Y-90514034D01*
X121268906Y-90571358D01*
X121241359Y-90639201D01*
X121212107Y-90706355D01*
X121196463Y-90741430D01*
X121174174Y-90793822D01*
X121158857Y-90833058D01*
X121153162Y-90852563D01*
X121153478Y-90854036D01*
X121164281Y-90874729D01*
X121188638Y-90914665D01*
X121224081Y-90969972D01*
X121268136Y-91036781D01*
X121318332Y-91111220D01*
X121483501Y-91353623D01*
X121266503Y-91570983D01*
X121245516Y-91591899D01*
X121181342Y-91654505D01*
X121123990Y-91708495D01*
X121076820Y-91750826D01*
X121043192Y-91778457D01*
X121026467Y-91788343D01*
X121008303Y-91780821D01*
X120970265Y-91759227D01*
X120916726Y-91726151D01*
X120851884Y-91684191D01*
X120779940Y-91635943D01*
X120709275Y-91588291D01*
X120645526Y-91546328D01*
X120593513Y-91513165D01*
X120557279Y-91491378D01*
X120540867Y-91483543D01*
X120539905Y-91483614D01*
X120518103Y-91491338D01*
X120479440Y-91509323D01*
X120431612Y-91534013D01*
X120431110Y-91534284D01*
X120367587Y-91566099D01*
X120324060Y-91581642D01*
X120297052Y-91581685D01*
X120283090Y-91567000D01*
X120277180Y-91552544D01*
X120261229Y-91513831D01*
X120236660Y-91454316D01*
X120204779Y-91377165D01*
X120166893Y-91285541D01*
X120124310Y-91182607D01*
X120078337Y-91071526D01*
X120036667Y-90970472D01*
X119994268Y-90866780D01*
X119956756Y-90774119D01*
X119925388Y-90695642D01*
X119901425Y-90634500D01*
X119886123Y-90593843D01*
X119880743Y-90576825D01*
X119891018Y-90561219D01*
X119919563Y-90535162D01*
X119959971Y-90504887D01*
X120056979Y-90425684D01*
X120143793Y-90324475D01*
X120207322Y-90213116D01*
X120247177Y-90094893D01*
X120262965Y-89973095D01*
X120254296Y-89851010D01*
X120220778Y-89731925D01*
X120162021Y-89619129D01*
X120077632Y-89515911D01*
X120033631Y-89475713D01*
X119928211Y-89404638D01*
X119815410Y-89358301D01*
X119698525Y-89335599D01*
X119580853Y-89335428D01*
X119465690Y-89356687D01*
X119356335Y-89398270D01*
X119256083Y-89459076D01*
X119168233Y-89538001D01*
X119096080Y-89633941D01*
X119042922Y-89745795D01*
X119012057Y-89872457D01*
X119006392Y-89933507D01*
X119014185Y-90065776D01*
X119049284Y-90191266D01*
X119110649Y-90307759D01*
X119197243Y-90413039D01*
X119308029Y-90504887D01*
X119346931Y-90533930D01*
X119376104Y-90560272D01*
X119387257Y-90576800D01*
X119382810Y-90591209D01*
X119368378Y-90629815D01*
X119345173Y-90689201D01*
X119314452Y-90766215D01*
X119277474Y-90857703D01*
X119235496Y-90960516D01*
X119189778Y-91071502D01*
X119148178Y-91172072D01*
X119105222Y-91275947D01*
X119066829Y-91368819D01*
X119034305Y-91447525D01*
X119008958Y-91508899D01*
X118992095Y-91549779D01*
X118985025Y-91567000D01*
X118984943Y-91567204D01*
X118970798Y-91581745D01*
X118943659Y-91581579D01*
X118900023Y-91565927D01*
X118836388Y-91534013D01*
X118831379Y-91531326D01*
X118784125Y-91507150D01*
X118746811Y-91490037D01*
X118727133Y-91483543D01*
X118711005Y-91491218D01*
X118674959Y-91512871D01*
X118623092Y-91545928D01*
X118559445Y-91587810D01*
X118488060Y-91635943D01*
X118417724Y-91683131D01*
X118352670Y-91725267D01*
X118298820Y-91758578D01*
X118260374Y-91780469D01*
X118241534Y-91788343D01*
X118238325Y-91787343D01*
X118215954Y-91771584D01*
X118177733Y-91739033D01*
X118127021Y-91692733D01*
X118067181Y-91635726D01*
X118001571Y-91571058D01*
X117784648Y-91353772D01*
X117953601Y-91105253D01*
X118122553Y-90856733D01*
X118071183Y-90745595D01*
X118071031Y-90745266D01*
X118040183Y-90674418D01*
X118008661Y-90595523D01*
X117983266Y-90525600D01*
X117979423Y-90514322D01*
X117960047Y-90461967D01*
X117942574Y-90421283D01*
X117930388Y-90400287D01*
X117925426Y-90397322D01*
X117895634Y-90387375D01*
X117845047Y-90374505D01*
X117779194Y-90360053D01*
X117703600Y-90345355D01*
X117680957Y-90341210D01*
X117599038Y-90326116D01*
X117522600Y-90311899D01*
X117459337Y-90299995D01*
X117416943Y-90291839D01*
X117340743Y-90276799D01*
X117340743Y-89959492D01*
X117340760Y-89920476D01*
X117341082Y-89825292D01*
X117342033Y-89754255D01*
X117343896Y-89703734D01*
X117346955Y-89670098D01*
X117351494Y-89649718D01*
X117357795Y-89638962D01*
X117366143Y-89634199D01*
X117374224Y-89632270D01*
X117407172Y-89625445D01*
X117459736Y-89615022D01*
X117526569Y-89602018D01*
X117602328Y-89587449D01*
X117681665Y-89572333D01*
X117759237Y-89557685D01*
X117829698Y-89544523D01*
X117887702Y-89533863D01*
X117927904Y-89526721D01*
X117944959Y-89524114D01*
X117946112Y-89522541D01*
X117955385Y-89502119D01*
X117971432Y-89463045D01*
X117991635Y-89411629D01*
X118019672Y-89342353D01*
X118054186Y-89262290D01*
X118086538Y-89191728D01*
X118093952Y-89175889D01*
X118114755Y-89126293D01*
X118127219Y-89088038D01*
X118128863Y-89068356D01*
X118128015Y-89066962D01*
X118114548Y-89046420D01*
X118087850Y-89006516D01*
X118050539Y-88951140D01*
X118005234Y-88884177D01*
X117954552Y-88809517D01*
X117897445Y-88724692D01*
X117854607Y-88658800D01*
X117825460Y-88610478D01*
X117808317Y-88576733D01*
X117801495Y-88554572D01*
X117803306Y-88541002D01*
X117803915Y-88539984D01*
X117820297Y-88520210D01*
X117853695Y-88484175D01*
X117900671Y-88435451D01*
X117957786Y-88377612D01*
X118021603Y-88314227D01*
X118087802Y-88249905D01*
X118152648Y-88189447D01*
X118200299Y-88148655D01*
X118231990Y-88126484D01*
X118248958Y-88121889D01*
X118251175Y-88122921D01*
X118274524Y-88136837D01*
X118316912Y-88164030D01*
X118374369Y-88201889D01*
X118442923Y-88247803D01*
X118518601Y-88299160D01*
X118765298Y-88467626D01*
X118876706Y-88417062D01*
X118879943Y-88415597D01*
X118948343Y-88385965D01*
X119020907Y-88356493D01*
X119082457Y-88333358D01*
X119082729Y-88333262D01*
X119131595Y-88315367D01*
X119169212Y-88300253D01*
X119187457Y-88291184D01*
X119187752Y-88290855D01*
X119193946Y-88272282D01*
X119204139Y-88230045D01*
X119217348Y-88168696D01*
X119232590Y-88092789D01*
X119248881Y-88006875D01*
X119249449Y-88003796D01*
X119265713Y-87916128D01*
X119280608Y-87836741D01*
X119293171Y-87770701D01*
X119302438Y-87723079D01*
X119307444Y-87698943D01*
X119307764Y-87697605D01*
X119311060Y-87687273D01*
X119317738Y-87679506D01*
X119331462Y-87673940D01*
X119355895Y-87670207D01*
X119394702Y-87667942D01*
X119451546Y-87666778D01*
X119530090Y-87666348D01*
X119634000Y-87666286D01*
X119647056Y-87666286D01*
X119747933Y-87666371D01*
G36*
X119747933Y-87666371D02*
G01*
X119823856Y-87666865D01*
X119878491Y-87668135D01*
X119915500Y-87670547D01*
X119938547Y-87674467D01*
X119951296Y-87680262D01*
X119957411Y-87688299D01*
X119960556Y-87698943D01*
X119960646Y-87699325D01*
X119965814Y-87724347D01*
X119975209Y-87772681D01*
X119987867Y-87839260D01*
X120002825Y-87919014D01*
X120019119Y-88006875D01*
X120020448Y-88014064D01*
X120036691Y-88099340D01*
X120051805Y-88174242D01*
X120064808Y-88234219D01*
X120074715Y-88274717D01*
X120080544Y-88291184D01*
X120080575Y-88291210D01*
X120098943Y-88300320D01*
X120136640Y-88315457D01*
X120185543Y-88333358D01*
X120188297Y-88334330D01*
X120250817Y-88357959D01*
X120323543Y-88387595D01*
X120391294Y-88417062D01*
X120502703Y-88467626D01*
X120749399Y-88299160D01*
X120766775Y-88287311D01*
X120841202Y-88236947D01*
X120907614Y-88192612D01*
X120962039Y-88156916D01*
X121000506Y-88132471D01*
X121019042Y-88121889D01*
X121031743Y-88124315D01*
X121060579Y-88143110D01*
X121105143Y-88180330D01*
X121166670Y-88237020D01*
X121246398Y-88314227D01*
X121253532Y-88321255D01*
X121316796Y-88384222D01*
X121372990Y-88441268D01*
X121418677Y-88488817D01*
X121450414Y-88523297D01*
X121464764Y-88541131D01*
X121464810Y-88541217D01*
X121466633Y-88554795D01*
X121459910Y-88576820D01*
X121442946Y-88610304D01*
X121414044Y-88658261D01*
X121371508Y-88723704D01*
X121313644Y-88809645D01*
X121303783Y-88824151D01*
X121253913Y-88897635D01*
X121209905Y-88962687D01*
X121174380Y-89015417D01*
X121149959Y-89051936D01*
X121139264Y-89068356D01*
X121138458Y-89071834D01*
X121143518Y-89097785D01*
X121158677Y-89140159D01*
X121181463Y-89191728D01*
X121212429Y-89259170D01*
X121247004Y-89339195D01*
X121276366Y-89411629D01*
X121283645Y-89430377D01*
X121302710Y-89478246D01*
X121316715Y-89511596D01*
X121323041Y-89524114D01*
X121330025Y-89525050D01*
X121361413Y-89530461D01*
X121412787Y-89539806D01*
X121478802Y-89552069D01*
X121554113Y-89566232D01*
X121633375Y-89581280D01*
X121711243Y-89596195D01*
X121782370Y-89609961D01*
X121841412Y-89621562D01*
X121883022Y-89629980D01*
X121901857Y-89634199D01*
X121904980Y-89635389D01*
X121912591Y-89641805D01*
X121918254Y-89655465D01*
X121922251Y-89679999D01*
X121924866Y-89719038D01*
X121926384Y-89776213D01*
X121927086Y-89855154D01*
X121927257Y-89959492D01*
X121927257Y-90276799D01*
X121851057Y-90291839D01*
X121841840Y-90293642D01*
X121792891Y-90302980D01*
X121725205Y-90315669D01*
X121646478Y-90330273D01*
X121564400Y-90345355D01*
X121532078Y-90351422D01*
X121459855Y-90366181D01*
X121399666Y-90380137D01*
X121357040Y-90391952D01*
X121337510Y-90400287D01*
X121328660Y-90413905D01*
X121312548Y-90449938D01*
X121296065Y-90496572D01*
X121290263Y-90514034D01*
X121268906Y-90571358D01*
X121241359Y-90639201D01*
X121212107Y-90706355D01*
X121196463Y-90741430D01*
X121174174Y-90793822D01*
X121158857Y-90833058D01*
X121153162Y-90852563D01*
X121153478Y-90854036D01*
X121164281Y-90874729D01*
X121188638Y-90914665D01*
X121224081Y-90969972D01*
X121268136Y-91036781D01*
X121318332Y-91111220D01*
X121483501Y-91353623D01*
X121266503Y-91570983D01*
X121245516Y-91591899D01*
X121181342Y-91654505D01*
X121123990Y-91708495D01*
X121076820Y-91750826D01*
X121043192Y-91778457D01*
X121026467Y-91788343D01*
X121008303Y-91780821D01*
X120970265Y-91759227D01*
X120916726Y-91726151D01*
X120851884Y-91684191D01*
X120779940Y-91635943D01*
X120709275Y-91588291D01*
X120645526Y-91546328D01*
X120593513Y-91513165D01*
X120557279Y-91491378D01*
X120540867Y-91483543D01*
X120539905Y-91483614D01*
X120518103Y-91491338D01*
X120479440Y-91509323D01*
X120431612Y-91534013D01*
X120431110Y-91534284D01*
X120367587Y-91566099D01*
X120324060Y-91581642D01*
X120297052Y-91581685D01*
X120283090Y-91567000D01*
X120277180Y-91552544D01*
X120261229Y-91513831D01*
X120236660Y-91454316D01*
X120204779Y-91377165D01*
X120166893Y-91285541D01*
X120124310Y-91182607D01*
X120078337Y-91071526D01*
X120036667Y-90970472D01*
X119994268Y-90866780D01*
X119956756Y-90774119D01*
X119925388Y-90695642D01*
X119901425Y-90634500D01*
X119886123Y-90593843D01*
X119880743Y-90576825D01*
X119891018Y-90561219D01*
X119919563Y-90535162D01*
X119959971Y-90504887D01*
X120056979Y-90425684D01*
X120143793Y-90324475D01*
X120207322Y-90213116D01*
X120247177Y-90094893D01*
X120262965Y-89973095D01*
X120254296Y-89851010D01*
X120220778Y-89731925D01*
X120162021Y-89619129D01*
X120077632Y-89515911D01*
X120033631Y-89475713D01*
X119928211Y-89404638D01*
X119815410Y-89358301D01*
X119698525Y-89335599D01*
X119580853Y-89335428D01*
X119465690Y-89356687D01*
X119356335Y-89398270D01*
X119256083Y-89459076D01*
X119168233Y-89538001D01*
X119096080Y-89633941D01*
X119042922Y-89745795D01*
X119012057Y-89872457D01*
X119006392Y-89933507D01*
X119014185Y-90065776D01*
X119049284Y-90191266D01*
X119110649Y-90307759D01*
X119197243Y-90413039D01*
X119308029Y-90504887D01*
X119346931Y-90533930D01*
X119376104Y-90560272D01*
X119387257Y-90576800D01*
X119382810Y-90591209D01*
X119368378Y-90629815D01*
X119345173Y-90689201D01*
X119314452Y-90766215D01*
X119277474Y-90857703D01*
X119235496Y-90960516D01*
X119189778Y-91071502D01*
X119148178Y-91172072D01*
X119105222Y-91275947D01*
X119066829Y-91368819D01*
X119034305Y-91447525D01*
X119008958Y-91508899D01*
X118992095Y-91549779D01*
X118985025Y-91567000D01*
X118984943Y-91567204D01*
X118970798Y-91581745D01*
X118943659Y-91581579D01*
X118900023Y-91565927D01*
X118836388Y-91534013D01*
X118831379Y-91531326D01*
X118784125Y-91507150D01*
X118746811Y-91490037D01*
X118727133Y-91483543D01*
X118711005Y-91491218D01*
X118674959Y-91512871D01*
X118623092Y-91545928D01*
X118559445Y-91587810D01*
X118488060Y-91635943D01*
X118417724Y-91683131D01*
X118352670Y-91725267D01*
X118298820Y-91758578D01*
X118260374Y-91780469D01*
X118241534Y-91788343D01*
X118238325Y-91787343D01*
X118215954Y-91771584D01*
X118177733Y-91739033D01*
X118127021Y-91692733D01*
X118067181Y-91635726D01*
X118001571Y-91571058D01*
X117784648Y-91353772D01*
X117953601Y-91105253D01*
X118122553Y-90856733D01*
X118071183Y-90745595D01*
X118071031Y-90745266D01*
X118040183Y-90674418D01*
X118008661Y-90595523D01*
X117983266Y-90525600D01*
X117979423Y-90514322D01*
X117960047Y-90461967D01*
X117942574Y-90421283D01*
X117930388Y-90400287D01*
X117925426Y-90397322D01*
X117895634Y-90387375D01*
X117845047Y-90374505D01*
X117779194Y-90360053D01*
X117703600Y-90345355D01*
X117680957Y-90341210D01*
X117599038Y-90326116D01*
X117522600Y-90311899D01*
X117459337Y-90299995D01*
X117416943Y-90291839D01*
X117340743Y-90276799D01*
X117340743Y-89959492D01*
X117340760Y-89920476D01*
X117341082Y-89825292D01*
X117342033Y-89754255D01*
X117343896Y-89703734D01*
X117346955Y-89670098D01*
X117351494Y-89649718D01*
X117357795Y-89638962D01*
X117366143Y-89634199D01*
X117374224Y-89632270D01*
X117407172Y-89625445D01*
X117459736Y-89615022D01*
X117526569Y-89602018D01*
X117602328Y-89587449D01*
X117681665Y-89572333D01*
X117759237Y-89557685D01*
X117829698Y-89544523D01*
X117887702Y-89533863D01*
X117927904Y-89526721D01*
X117944959Y-89524114D01*
X117946112Y-89522541D01*
X117955385Y-89502119D01*
X117971432Y-89463045D01*
X117991635Y-89411629D01*
X118019672Y-89342353D01*
X118054186Y-89262290D01*
X118086538Y-89191728D01*
X118093952Y-89175889D01*
X118114755Y-89126293D01*
X118127219Y-89088038D01*
X118128863Y-89068356D01*
X118128015Y-89066962D01*
X118114548Y-89046420D01*
X118087850Y-89006516D01*
X118050539Y-88951140D01*
X118005234Y-88884177D01*
X117954552Y-88809517D01*
X117897445Y-88724692D01*
X117854607Y-88658800D01*
X117825460Y-88610478D01*
X117808317Y-88576733D01*
X117801495Y-88554572D01*
X117803306Y-88541002D01*
X117803915Y-88539984D01*
X117820297Y-88520210D01*
X117853695Y-88484175D01*
X117900671Y-88435451D01*
X117957786Y-88377612D01*
X118021603Y-88314227D01*
X118087802Y-88249905D01*
X118152648Y-88189447D01*
X118200299Y-88148655D01*
X118231990Y-88126484D01*
X118248958Y-88121889D01*
X118251175Y-88122921D01*
X118274524Y-88136837D01*
X118316912Y-88164030D01*
X118374369Y-88201889D01*
X118442923Y-88247803D01*
X118518601Y-88299160D01*
X118765298Y-88467626D01*
X118876706Y-88417062D01*
X118879943Y-88415597D01*
X118948343Y-88385965D01*
X119020907Y-88356493D01*
X119082457Y-88333358D01*
X119082729Y-88333262D01*
X119131595Y-88315367D01*
X119169212Y-88300253D01*
X119187457Y-88291184D01*
X119187752Y-88290855D01*
X119193946Y-88272282D01*
X119204139Y-88230045D01*
X119217348Y-88168696D01*
X119232590Y-88092789D01*
X119248881Y-88006875D01*
X119249449Y-88003796D01*
X119265713Y-87916128D01*
X119280608Y-87836741D01*
X119293171Y-87770701D01*
X119302438Y-87723079D01*
X119307444Y-87698943D01*
X119307764Y-87697605D01*
X119311060Y-87687273D01*
X119317738Y-87679506D01*
X119331462Y-87673940D01*
X119355895Y-87670207D01*
X119394702Y-87667942D01*
X119451546Y-87666778D01*
X119530090Y-87666348D01*
X119634000Y-87666286D01*
X119647056Y-87666286D01*
X119747933Y-87666371D01*
G37*
X117601495Y-92370220D02*
X117632599Y-92378121D01*
X117661559Y-92397817D01*
X117698831Y-92434484D01*
X117722801Y-92460378D01*
X117747770Y-92493997D01*
X117759031Y-92525506D01*
X117761657Y-92565485D01*
X117761657Y-92630917D01*
X117717035Y-92607842D01*
X117681673Y-92579724D01*
X117657451Y-92541848D01*
X117653291Y-92531551D01*
X117621594Y-92491637D01*
X117577554Y-92471624D01*
X117529531Y-92473572D01*
X117485886Y-92499543D01*
X117467420Y-92520635D01*
X117456663Y-92547619D01*
X117468178Y-92571634D01*
X117503981Y-92595791D01*
X117566090Y-92623199D01*
X117575515Y-92626985D01*
X117632058Y-92651759D01*
X117680580Y-92676189D01*
X117711451Y-92695486D01*
X117742371Y-92729953D01*
X117762927Y-92784957D01*
X117760744Y-92843983D01*
X117736424Y-92899845D01*
X117690568Y-92945355D01*
X117653438Y-92964727D01*
X117581711Y-92978292D01*
X117541852Y-92976462D01*
X117504953Y-92966568D01*
X117490797Y-92945806D01*
X117496091Y-92911613D01*
X117497631Y-92907092D01*
X117509842Y-92883116D01*
X117530174Y-92874042D01*
X117568908Y-92874649D01*
X117596257Y-92875474D01*
X117628257Y-92868392D01*
X117650182Y-92847219D01*
X117662670Y-92821152D01*
X117664062Y-92793845D01*
X117663998Y-92793685D01*
X117647807Y-92778930D01*
X117613155Y-92757457D01*
X117568321Y-92733458D01*
X117521582Y-92711125D01*
X117481217Y-92694652D01*
X117455504Y-92688229D01*
X117451679Y-92694518D01*
X117446864Y-92724115D01*
X117443566Y-92772447D01*
X117442343Y-92833372D01*
X117442058Y-92875542D01*
X117440718Y-92928653D01*
X117438528Y-92965025D01*
X117435769Y-92978514D01*
X117421344Y-92973981D01*
X117392226Y-92961670D01*
X117355257Y-92944826D01*
X117355257Y-92728721D01*
X117355493Y-92673327D01*
X117357729Y-92589207D01*
X117363423Y-92526800D01*
X117373903Y-92481358D01*
X117390497Y-92448133D01*
X117414531Y-92422378D01*
X117447333Y-92399344D01*
X117489124Y-92380335D01*
X117566287Y-92368914D01*
X117601495Y-92370220D01*
G36*
X117601495Y-92370220D02*
G01*
X117632599Y-92378121D01*
X117661559Y-92397817D01*
X117698831Y-92434484D01*
X117722801Y-92460378D01*
X117747770Y-92493997D01*
X117759031Y-92525506D01*
X117761657Y-92565485D01*
X117761657Y-92630917D01*
X117717035Y-92607842D01*
X117681673Y-92579724D01*
X117657451Y-92541848D01*
X117653291Y-92531551D01*
X117621594Y-92491637D01*
X117577554Y-92471624D01*
X117529531Y-92473572D01*
X117485886Y-92499543D01*
X117467420Y-92520635D01*
X117456663Y-92547619D01*
X117468178Y-92571634D01*
X117503981Y-92595791D01*
X117566090Y-92623199D01*
X117575515Y-92626985D01*
X117632058Y-92651759D01*
X117680580Y-92676189D01*
X117711451Y-92695486D01*
X117742371Y-92729953D01*
X117762927Y-92784957D01*
X117760744Y-92843983D01*
X117736424Y-92899845D01*
X117690568Y-92945355D01*
X117653438Y-92964727D01*
X117581711Y-92978292D01*
X117541852Y-92976462D01*
X117504953Y-92966568D01*
X117490797Y-92945806D01*
X117496091Y-92911613D01*
X117497631Y-92907092D01*
X117509842Y-92883116D01*
X117530174Y-92874042D01*
X117568908Y-92874649D01*
X117596257Y-92875474D01*
X117628257Y-92868392D01*
X117650182Y-92847219D01*
X117662670Y-92821152D01*
X117664062Y-92793845D01*
X117663998Y-92793685D01*
X117647807Y-92778930D01*
X117613155Y-92757457D01*
X117568321Y-92733458D01*
X117521582Y-92711125D01*
X117481217Y-92694652D01*
X117455504Y-92688229D01*
X117451679Y-92694518D01*
X117446864Y-92724115D01*
X117443566Y-92772447D01*
X117442343Y-92833372D01*
X117442058Y-92875542D01*
X117440718Y-92928653D01*
X117438528Y-92965025D01*
X117435769Y-92978514D01*
X117421344Y-92973981D01*
X117392226Y-92961670D01*
X117355257Y-92944826D01*
X117355257Y-92728721D01*
X117355493Y-92673327D01*
X117357729Y-92589207D01*
X117363423Y-92526800D01*
X117373903Y-92481358D01*
X117390497Y-92448133D01*
X117414531Y-92422378D01*
X117447333Y-92399344D01*
X117489124Y-92380335D01*
X117566287Y-92368914D01*
X117601495Y-92370220D01*
G37*
X122343815Y-92725524D02*
X122345252Y-92837000D01*
X122345651Y-92869339D01*
X122346929Y-92977455D01*
X122347185Y-93060186D01*
X122345634Y-93120426D01*
X122341490Y-93161073D01*
X122333964Y-93185023D01*
X122322271Y-93195171D01*
X122305624Y-93194414D01*
X122283236Y-93185648D01*
X122254321Y-93171769D01*
X122248142Y-93168808D01*
X122222413Y-93154311D01*
X122208976Y-93137065D01*
X122203834Y-93108308D01*
X122202990Y-93059283D01*
X122202952Y-92971257D01*
X122112276Y-92971257D01*
X122056498Y-92968815D01*
X122012640Y-92958908D01*
X121976218Y-92938886D01*
X121973503Y-92936929D01*
X121936546Y-92903869D01*
X121910826Y-92863931D01*
X121894606Y-92811657D01*
X121886148Y-92741588D01*
X121884083Y-92662430D01*
X122028857Y-92662430D01*
X122028882Y-92675697D01*
X122030261Y-92735584D01*
X122034687Y-92774732D01*
X122043461Y-92800153D01*
X122057886Y-92818857D01*
X122058784Y-92819750D01*
X122094237Y-92843952D01*
X122128596Y-92841567D01*
X122167403Y-92812260D01*
X122176895Y-92802244D01*
X122190876Y-92781708D01*
X122198760Y-92754997D01*
X122202245Y-92714499D01*
X122203029Y-92652603D01*
X122202350Y-92615130D01*
X122194983Y-92546980D01*
X122178168Y-92502330D01*
X122150234Y-92477926D01*
X122109509Y-92470514D01*
X122092350Y-92472094D01*
X122062660Y-92487766D01*
X122043031Y-92522691D01*
X122032188Y-92579901D01*
X122028857Y-92662430D01*
X121884083Y-92662430D01*
X121883714Y-92648267D01*
X121884253Y-92580169D01*
X121886707Y-92528587D01*
X121892158Y-92492816D01*
X121901686Y-92466015D01*
X121916371Y-92441338D01*
X121929852Y-92422480D01*
X121978799Y-92371568D01*
X122034256Y-92343918D01*
X122103928Y-92335165D01*
X122183664Y-92343890D01*
X122252595Y-92375185D01*
X122307113Y-92430381D01*
X122311223Y-92436224D01*
X122320808Y-92451753D01*
X122328151Y-92469498D01*
X122333612Y-92493290D01*
X122337550Y-92526958D01*
X122340323Y-92574333D01*
X122342292Y-92639245D01*
X122342528Y-92652603D01*
X122343815Y-92725524D01*
G36*
X122343815Y-92725524D02*
G01*
X122345252Y-92837000D01*
X122345651Y-92869339D01*
X122346929Y-92977455D01*
X122347185Y-93060186D01*
X122345634Y-93120426D01*
X122341490Y-93161073D01*
X122333964Y-93185023D01*
X122322271Y-93195171D01*
X122305624Y-93194414D01*
X122283236Y-93185648D01*
X122254321Y-93171769D01*
X122248142Y-93168808D01*
X122222413Y-93154311D01*
X122208976Y-93137065D01*
X122203834Y-93108308D01*
X122202990Y-93059283D01*
X122202952Y-92971257D01*
X122112276Y-92971257D01*
X122056498Y-92968815D01*
X122012640Y-92958908D01*
X121976218Y-92938886D01*
X121973503Y-92936929D01*
X121936546Y-92903869D01*
X121910826Y-92863931D01*
X121894606Y-92811657D01*
X121886148Y-92741588D01*
X121884083Y-92662430D01*
X122028857Y-92662430D01*
X122028882Y-92675697D01*
X122030261Y-92735584D01*
X122034687Y-92774732D01*
X122043461Y-92800153D01*
X122057886Y-92818857D01*
X122058784Y-92819750D01*
X122094237Y-92843952D01*
X122128596Y-92841567D01*
X122167403Y-92812260D01*
X122176895Y-92802244D01*
X122190876Y-92781708D01*
X122198760Y-92754997D01*
X122202245Y-92714499D01*
X122203029Y-92652603D01*
X122202350Y-92615130D01*
X122194983Y-92546980D01*
X122178168Y-92502330D01*
X122150234Y-92477926D01*
X122109509Y-92470514D01*
X122092350Y-92472094D01*
X122062660Y-92487766D01*
X122043031Y-92522691D01*
X122032188Y-92579901D01*
X122028857Y-92662430D01*
X121884083Y-92662430D01*
X121883714Y-92648267D01*
X121884253Y-92580169D01*
X121886707Y-92528587D01*
X121892158Y-92492816D01*
X121901686Y-92466015D01*
X121916371Y-92441338D01*
X121929852Y-92422480D01*
X121978799Y-92371568D01*
X122034256Y-92343918D01*
X122103928Y-92335165D01*
X122183664Y-92343890D01*
X122252595Y-92375185D01*
X122307113Y-92430381D01*
X122311223Y-92436224D01*
X122320808Y-92451753D01*
X122328151Y-92469498D01*
X122333612Y-92493290D01*
X122337550Y-92526958D01*
X122340323Y-92574333D01*
X122342292Y-92639245D01*
X122342528Y-92652603D01*
X122343815Y-92725524D01*
G37*
X119723483Y-92384569D02*
X119773376Y-92413661D01*
X119795325Y-92436327D01*
X119837504Y-92504082D01*
X119851714Y-92577950D01*
X119851714Y-92628770D01*
X119804999Y-92609128D01*
X119772692Y-92589308D01*
X119747231Y-92548160D01*
X119744616Y-92539675D01*
X119716478Y-92496451D01*
X119674067Y-92473103D01*
X119625370Y-92472100D01*
X119578373Y-92495914D01*
X119571357Y-92502056D01*
X119547893Y-92528745D01*
X119544019Y-92552014D01*
X119561768Y-92574862D01*
X119603179Y-92600287D01*
X119670286Y-92631288D01*
X119674824Y-92633252D01*
X119749322Y-92667990D01*
X119800203Y-92698763D01*
X119831525Y-92729488D01*
X119847343Y-92764082D01*
X119851714Y-92806462D01*
X119845986Y-92853446D01*
X119817062Y-92913585D01*
X119766178Y-92956788D01*
X119729374Y-92969759D01*
X119677434Y-92976856D01*
X119626999Y-92975340D01*
X119590983Y-92964632D01*
X119587158Y-92961966D01*
X119576998Y-92943337D01*
X119584048Y-92910505D01*
X119596297Y-92884735D01*
X119615939Y-92874006D01*
X119653191Y-92874539D01*
X119704908Y-92871462D01*
X119738701Y-92850212D01*
X119750114Y-92810877D01*
X119750104Y-92809747D01*
X119743187Y-92786913D01*
X119719659Y-92765963D01*
X119673914Y-92741815D01*
X119611704Y-92712741D01*
X119570499Y-92696925D01*
X119546712Y-92697944D01*
X119535597Y-92718837D01*
X119532408Y-92762641D01*
X119532400Y-92832393D01*
X119532044Y-92875452D01*
X119530413Y-92928626D01*
X119527761Y-92965022D01*
X119524422Y-92978514D01*
X119523530Y-92978423D01*
X119504237Y-92971110D01*
X119472284Y-92955678D01*
X119428124Y-92932842D01*
X119433371Y-92727078D01*
X119433736Y-92713432D01*
X119437904Y-92617651D01*
X119445268Y-92545462D01*
X119457330Y-92492058D01*
X119475593Y-92452633D01*
X119501560Y-92422380D01*
X119536733Y-92396493D01*
X119537384Y-92396087D01*
X119594256Y-92374968D01*
X119660033Y-92371400D01*
X119723483Y-92384569D01*
G36*
X119723483Y-92384569D02*
G01*
X119773376Y-92413661D01*
X119795325Y-92436327D01*
X119837504Y-92504082D01*
X119851714Y-92577950D01*
X119851714Y-92628770D01*
X119804999Y-92609128D01*
X119772692Y-92589308D01*
X119747231Y-92548160D01*
X119744616Y-92539675D01*
X119716478Y-92496451D01*
X119674067Y-92473103D01*
X119625370Y-92472100D01*
X119578373Y-92495914D01*
X119571357Y-92502056D01*
X119547893Y-92528745D01*
X119544019Y-92552014D01*
X119561768Y-92574862D01*
X119603179Y-92600287D01*
X119670286Y-92631288D01*
X119674824Y-92633252D01*
X119749322Y-92667990D01*
X119800203Y-92698763D01*
X119831525Y-92729488D01*
X119847343Y-92764082D01*
X119851714Y-92806462D01*
X119845986Y-92853446D01*
X119817062Y-92913585D01*
X119766178Y-92956788D01*
X119729374Y-92969759D01*
X119677434Y-92976856D01*
X119626999Y-92975340D01*
X119590983Y-92964632D01*
X119587158Y-92961966D01*
X119576998Y-92943337D01*
X119584048Y-92910505D01*
X119596297Y-92884735D01*
X119615939Y-92874006D01*
X119653191Y-92874539D01*
X119704908Y-92871462D01*
X119738701Y-92850212D01*
X119750114Y-92810877D01*
X119750104Y-92809747D01*
X119743187Y-92786913D01*
X119719659Y-92765963D01*
X119673914Y-92741815D01*
X119611704Y-92712741D01*
X119570499Y-92696925D01*
X119546712Y-92697944D01*
X119535597Y-92718837D01*
X119532408Y-92762641D01*
X119532400Y-92832393D01*
X119532044Y-92875452D01*
X119530413Y-92928626D01*
X119527761Y-92965022D01*
X119524422Y-92978514D01*
X119523530Y-92978423D01*
X119504237Y-92971110D01*
X119472284Y-92955678D01*
X119428124Y-92932842D01*
X119433371Y-92727078D01*
X119433736Y-92713432D01*
X119437904Y-92617651D01*
X119445268Y-92545462D01*
X119457330Y-92492058D01*
X119475593Y-92452633D01*
X119501560Y-92422380D01*
X119536733Y-92396493D01*
X119537384Y-92396087D01*
X119594256Y-92374968D01*
X119660033Y-92371400D01*
X119723483Y-92384569D01*
G37*
X121796299Y-92618055D02*
X121791684Y-92728078D01*
X121789078Y-92751387D01*
X121769660Y-92834352D01*
X121734573Y-92897448D01*
X121681212Y-92945808D01*
X121678196Y-92947804D01*
X121610362Y-92976185D01*
X121539535Y-92978711D01*
X121471289Y-92957097D01*
X121411196Y-92913062D01*
X121364829Y-92848322D01*
X121364050Y-92846761D01*
X121348643Y-92806558D01*
X121337357Y-92760866D01*
X121331370Y-92717972D01*
X121331861Y-92686160D01*
X121340007Y-92673714D01*
X121347244Y-92674471D01*
X121381851Y-92688235D01*
X121421078Y-92713546D01*
X121454448Y-92742845D01*
X121471483Y-92768572D01*
X121489192Y-92803471D01*
X121525485Y-92835212D01*
X121567630Y-92847886D01*
X121583077Y-92844221D01*
X121613569Y-92825774D01*
X121640128Y-92800166D01*
X121651486Y-92776934D01*
X121651482Y-92776848D01*
X121638596Y-92766179D01*
X121604241Y-92746933D01*
X121553593Y-92721813D01*
X121491829Y-92693524D01*
X121491489Y-92693374D01*
X121424388Y-92663498D01*
X121379411Y-92641973D01*
X121352145Y-92625437D01*
X121338178Y-92610531D01*
X121333097Y-92593893D01*
X121332490Y-92572162D01*
X121336712Y-92531013D01*
X121480000Y-92531013D01*
X121494791Y-92543949D01*
X121531644Y-92563333D01*
X121532725Y-92563881D01*
X121576205Y-92584587D01*
X121615102Y-92601105D01*
X121639778Y-92608093D01*
X121649676Y-92598753D01*
X121651486Y-92566748D01*
X121643966Y-92526915D01*
X121617897Y-92490717D01*
X121580154Y-92471950D01*
X121538077Y-92473845D01*
X121499005Y-92499632D01*
X121483647Y-92517451D01*
X121480000Y-92531013D01*
X121336712Y-92531013D01*
X121337833Y-92520086D01*
X121364251Y-92449335D01*
X121408473Y-92393735D01*
X121465697Y-92355239D01*
X121531120Y-92335797D01*
X121599937Y-92337359D01*
X121667347Y-92361878D01*
X121728544Y-92411302D01*
X121762450Y-92460212D01*
X121786806Y-92530027D01*
X121790767Y-92566748D01*
X121796299Y-92618055D01*
G36*
X121796299Y-92618055D02*
G01*
X121791684Y-92728078D01*
X121789078Y-92751387D01*
X121769660Y-92834352D01*
X121734573Y-92897448D01*
X121681212Y-92945808D01*
X121678196Y-92947804D01*
X121610362Y-92976185D01*
X121539535Y-92978711D01*
X121471289Y-92957097D01*
X121411196Y-92913062D01*
X121364829Y-92848322D01*
X121364050Y-92846761D01*
X121348643Y-92806558D01*
X121337357Y-92760866D01*
X121331370Y-92717972D01*
X121331861Y-92686160D01*
X121340007Y-92673714D01*
X121347244Y-92674471D01*
X121381851Y-92688235D01*
X121421078Y-92713546D01*
X121454448Y-92742845D01*
X121471483Y-92768572D01*
X121489192Y-92803471D01*
X121525485Y-92835212D01*
X121567630Y-92847886D01*
X121583077Y-92844221D01*
X121613569Y-92825774D01*
X121640128Y-92800166D01*
X121651486Y-92776934D01*
X121651482Y-92776848D01*
X121638596Y-92766179D01*
X121604241Y-92746933D01*
X121553593Y-92721813D01*
X121491829Y-92693524D01*
X121491489Y-92693374D01*
X121424388Y-92663498D01*
X121379411Y-92641973D01*
X121352145Y-92625437D01*
X121338178Y-92610531D01*
X121333097Y-92593893D01*
X121332490Y-92572162D01*
X121336712Y-92531013D01*
X121480000Y-92531013D01*
X121494791Y-92543949D01*
X121531644Y-92563333D01*
X121532725Y-92563881D01*
X121576205Y-92584587D01*
X121615102Y-92601105D01*
X121639778Y-92608093D01*
X121649676Y-92598753D01*
X121651486Y-92566748D01*
X121643966Y-92526915D01*
X121617897Y-92490717D01*
X121580154Y-92471950D01*
X121538077Y-92473845D01*
X121499005Y-92499632D01*
X121483647Y-92517451D01*
X121480000Y-92531013D01*
X121336712Y-92531013D01*
X121337833Y-92520086D01*
X121364251Y-92449335D01*
X121408473Y-92393735D01*
X121465697Y-92355239D01*
X121531120Y-92335797D01*
X121599937Y-92337359D01*
X121667347Y-92361878D01*
X121728544Y-92411302D01*
X121762450Y-92460212D01*
X121786806Y-92530027D01*
X121790767Y-92566748D01*
X121796299Y-92618055D01*
G37*
X118864698Y-92673714D02*
X118863537Y-92730313D01*
X118855345Y-92807462D01*
X118837519Y-92865276D01*
X118807975Y-92909422D01*
X118764625Y-92945568D01*
X118723332Y-92966463D01*
X118653987Y-92978090D01*
X118584736Y-92965377D01*
X118522145Y-92929945D01*
X118472779Y-92873418D01*
X118466818Y-92862995D01*
X118458945Y-92844733D01*
X118453106Y-92821429D01*
X118448999Y-92789085D01*
X118446325Y-92743704D01*
X118444781Y-92681287D01*
X118444734Y-92675748D01*
X118545429Y-92675748D01*
X118545772Y-92728577D01*
X118547942Y-92776362D01*
X118553307Y-92807209D01*
X118563217Y-92827935D01*
X118579021Y-92845356D01*
X118582724Y-92848705D01*
X118630299Y-92873419D01*
X118680635Y-92870890D01*
X118727517Y-92841288D01*
X118741477Y-92825953D01*
X118753160Y-92805622D01*
X118759686Y-92777514D01*
X118762524Y-92734550D01*
X118763143Y-92669647D01*
X118762837Y-92620122D01*
X118760722Y-92571782D01*
X118755390Y-92540587D01*
X118745460Y-92519647D01*
X118729550Y-92502073D01*
X118720204Y-92494159D01*
X118671776Y-92472843D01*
X118621040Y-92476198D01*
X118576987Y-92504107D01*
X118567504Y-92515173D01*
X118555939Y-92536009D01*
X118549252Y-92565106D01*
X118546173Y-92609381D01*
X118545429Y-92675748D01*
X118444734Y-92675748D01*
X118444067Y-92597837D01*
X118443883Y-92489358D01*
X118443829Y-92152601D01*
X118491000Y-92172362D01*
X118503472Y-92177770D01*
X118523324Y-92189985D01*
X118534687Y-92208482D01*
X118540933Y-92240829D01*
X118545429Y-92294593D01*
X118549535Y-92342866D01*
X118554963Y-92374557D01*
X118562739Y-92386383D01*
X118574457Y-92383212D01*
X118604318Y-92372067D01*
X118657684Y-92369304D01*
X118715093Y-92379625D01*
X118764625Y-92401861D01*
X118791876Y-92422443D01*
X118826865Y-92462600D01*
X118849274Y-92514086D01*
X118861190Y-92582568D01*
X118864542Y-92669647D01*
X118864698Y-92673714D01*
G36*
X118864698Y-92673714D02*
G01*
X118863537Y-92730313D01*
X118855345Y-92807462D01*
X118837519Y-92865276D01*
X118807975Y-92909422D01*
X118764625Y-92945568D01*
X118723332Y-92966463D01*
X118653987Y-92978090D01*
X118584736Y-92965377D01*
X118522145Y-92929945D01*
X118472779Y-92873418D01*
X118466818Y-92862995D01*
X118458945Y-92844733D01*
X118453106Y-92821429D01*
X118448999Y-92789085D01*
X118446325Y-92743704D01*
X118444781Y-92681287D01*
X118444734Y-92675748D01*
X118545429Y-92675748D01*
X118545772Y-92728577D01*
X118547942Y-92776362D01*
X118553307Y-92807209D01*
X118563217Y-92827935D01*
X118579021Y-92845356D01*
X118582724Y-92848705D01*
X118630299Y-92873419D01*
X118680635Y-92870890D01*
X118727517Y-92841288D01*
X118741477Y-92825953D01*
X118753160Y-92805622D01*
X118759686Y-92777514D01*
X118762524Y-92734550D01*
X118763143Y-92669647D01*
X118762837Y-92620122D01*
X118760722Y-92571782D01*
X118755390Y-92540587D01*
X118745460Y-92519647D01*
X118729550Y-92502073D01*
X118720204Y-92494159D01*
X118671776Y-92472843D01*
X118621040Y-92476198D01*
X118576987Y-92504107D01*
X118567504Y-92515173D01*
X118555939Y-92536009D01*
X118549252Y-92565106D01*
X118546173Y-92609381D01*
X118545429Y-92675748D01*
X118444734Y-92675748D01*
X118444067Y-92597837D01*
X118443883Y-92489358D01*
X118443829Y-92152601D01*
X118491000Y-92172362D01*
X118503472Y-92177770D01*
X118523324Y-92189985D01*
X118534687Y-92208482D01*
X118540933Y-92240829D01*
X118545429Y-92294593D01*
X118549535Y-92342866D01*
X118554963Y-92374557D01*
X118562739Y-92386383D01*
X118574457Y-92383212D01*
X118604318Y-92372067D01*
X118657684Y-92369304D01*
X118715093Y-92379625D01*
X118764625Y-92401861D01*
X118791876Y-92422443D01*
X118826865Y-92462600D01*
X118849274Y-92514086D01*
X118861190Y-92582568D01*
X118864542Y-92669647D01*
X118864698Y-92673714D01*
G37*
X116774590Y-92676622D02*
X116774307Y-92715305D01*
X116770762Y-92791521D01*
X116761483Y-92847294D01*
X116744375Y-92888613D01*
X116717344Y-92921467D01*
X116678292Y-92951846D01*
X116653445Y-92965660D01*
X116613615Y-92974965D01*
X116557665Y-92974230D01*
X116526385Y-92971283D01*
X116488653Y-92962283D01*
X116458494Y-92942720D01*
X116423408Y-92906267D01*
X116418720Y-92900943D01*
X116387177Y-92859969D01*
X116372128Y-92824283D01*
X116368286Y-92781966D01*
X116368286Y-92719779D01*
X116411742Y-92736182D01*
X116443424Y-92755356D01*
X116470962Y-92800347D01*
X116476711Y-92814752D01*
X116508855Y-92855546D01*
X116552611Y-92876081D01*
X116600254Y-92874235D01*
X116644057Y-92847886D01*
X116659111Y-92831455D01*
X116672763Y-92806667D01*
X116668493Y-92784144D01*
X116643916Y-92760964D01*
X116596651Y-92734202D01*
X116524314Y-92700934D01*
X116375543Y-92635816D01*
X116371595Y-92571308D01*
X116373079Y-92530220D01*
X116470010Y-92530220D01*
X116477368Y-92555657D01*
X116510848Y-92582814D01*
X116571614Y-92613714D01*
X116581669Y-92618190D01*
X116629751Y-92639017D01*
X116665726Y-92653665D01*
X116682444Y-92659200D01*
X116684977Y-92655126D01*
X116685993Y-92630247D01*
X116682369Y-92590257D01*
X116673242Y-92551152D01*
X116644773Y-92501884D01*
X116603678Y-92474122D01*
X116554590Y-92470364D01*
X116502144Y-92493109D01*
X116487609Y-92504481D01*
X116470010Y-92530220D01*
X116373079Y-92530220D01*
X116373338Y-92523064D01*
X116395281Y-92462096D01*
X116422979Y-92428497D01*
X116480405Y-92390966D01*
X116548527Y-92372006D01*
X116618947Y-92373507D01*
X116683267Y-92397355D01*
X116697426Y-92406513D01*
X116729904Y-92434849D01*
X116752116Y-92470695D01*
X116765804Y-92519384D01*
X116772715Y-92586249D01*
X116773628Y-92630247D01*
X116774590Y-92676622D01*
G36*
X116774590Y-92676622D02*
G01*
X116774307Y-92715305D01*
X116770762Y-92791521D01*
X116761483Y-92847294D01*
X116744375Y-92888613D01*
X116717344Y-92921467D01*
X116678292Y-92951846D01*
X116653445Y-92965660D01*
X116613615Y-92974965D01*
X116557665Y-92974230D01*
X116526385Y-92971283D01*
X116488653Y-92962283D01*
X116458494Y-92942720D01*
X116423408Y-92906267D01*
X116418720Y-92900943D01*
X116387177Y-92859969D01*
X116372128Y-92824283D01*
X116368286Y-92781966D01*
X116368286Y-92719779D01*
X116411742Y-92736182D01*
X116443424Y-92755356D01*
X116470962Y-92800347D01*
X116476711Y-92814752D01*
X116508855Y-92855546D01*
X116552611Y-92876081D01*
X116600254Y-92874235D01*
X116644057Y-92847886D01*
X116659111Y-92831455D01*
X116672763Y-92806667D01*
X116668493Y-92784144D01*
X116643916Y-92760964D01*
X116596651Y-92734202D01*
X116524314Y-92700934D01*
X116375543Y-92635816D01*
X116371595Y-92571308D01*
X116373079Y-92530220D01*
X116470010Y-92530220D01*
X116477368Y-92555657D01*
X116510848Y-92582814D01*
X116571614Y-92613714D01*
X116581669Y-92618190D01*
X116629751Y-92639017D01*
X116665726Y-92653665D01*
X116682444Y-92659200D01*
X116684977Y-92655126D01*
X116685993Y-92630247D01*
X116682369Y-92590257D01*
X116673242Y-92551152D01*
X116644773Y-92501884D01*
X116603678Y-92474122D01*
X116554590Y-92470364D01*
X116502144Y-92493109D01*
X116487609Y-92504481D01*
X116470010Y-92530220D01*
X116373079Y-92530220D01*
X116373338Y-92523064D01*
X116395281Y-92462096D01*
X116422979Y-92428497D01*
X116480405Y-92390966D01*
X116548527Y-92372006D01*
X116618947Y-92373507D01*
X116683267Y-92397355D01*
X116697426Y-92406513D01*
X116729904Y-92434849D01*
X116752116Y-92470695D01*
X116765804Y-92519384D01*
X116772715Y-92586249D01*
X116773628Y-92630247D01*
X116774590Y-92676622D01*
G37*
X122899714Y-92659200D02*
X122899701Y-92674935D01*
X122898914Y-92745119D01*
X122896210Y-92794022D01*
X122890606Y-92828178D01*
X122881119Y-92854124D01*
X122866768Y-92878397D01*
X122863237Y-92883433D01*
X122825878Y-92923143D01*
X122783311Y-92953092D01*
X122761452Y-92962810D01*
X122682908Y-92979020D01*
X122605231Y-92968535D01*
X122533645Y-92932707D01*
X122473374Y-92872887D01*
X122468286Y-92864873D01*
X122451730Y-92818342D01*
X122440573Y-92753552D01*
X122435160Y-92678727D01*
X122435768Y-92609513D01*
X122582248Y-92609513D01*
X122583402Y-92705399D01*
X122583866Y-92711569D01*
X122590629Y-92764478D01*
X122602671Y-92798029D01*
X122623005Y-92821016D01*
X122657097Y-92842548D01*
X122690814Y-92843680D01*
X122725543Y-92818857D01*
X122731584Y-92812325D01*
X122743417Y-92792779D01*
X122750404Y-92764386D01*
X122753727Y-92720430D01*
X122754571Y-92654192D01*
X122753125Y-92592150D01*
X122745907Y-92533042D01*
X122731006Y-92495686D01*
X122706636Y-92476152D01*
X122671008Y-92470514D01*
X122657440Y-92471635D01*
X122619430Y-92492194D01*
X122594312Y-92538299D01*
X122582248Y-92609513D01*
X122435768Y-92609513D01*
X122435833Y-92602096D01*
X122442937Y-92531882D01*
X122456815Y-92476312D01*
X122474649Y-92439301D01*
X122524855Y-92381733D01*
X122592885Y-92345962D01*
X122676158Y-92333665D01*
X122698398Y-92334331D01*
X122763891Y-92347947D01*
X122817687Y-92382249D01*
X122867057Y-92441338D01*
X122869995Y-92445722D01*
X122883287Y-92469299D01*
X122891932Y-92495949D01*
X122896904Y-92532159D01*
X122899174Y-92584413D01*
X122899678Y-92654192D01*
X122899714Y-92659200D01*
G36*
X122899714Y-92659200D02*
G01*
X122899701Y-92674935D01*
X122898914Y-92745119D01*
X122896210Y-92794022D01*
X122890606Y-92828178D01*
X122881119Y-92854124D01*
X122866768Y-92878397D01*
X122863237Y-92883433D01*
X122825878Y-92923143D01*
X122783311Y-92953092D01*
X122761452Y-92962810D01*
X122682908Y-92979020D01*
X122605231Y-92968535D01*
X122533645Y-92932707D01*
X122473374Y-92872887D01*
X122468286Y-92864873D01*
X122451730Y-92818342D01*
X122440573Y-92753552D01*
X122435160Y-92678727D01*
X122435768Y-92609513D01*
X122582248Y-92609513D01*
X122583402Y-92705399D01*
X122583866Y-92711569D01*
X122590629Y-92764478D01*
X122602671Y-92798029D01*
X122623005Y-92821016D01*
X122657097Y-92842548D01*
X122690814Y-92843680D01*
X122725543Y-92818857D01*
X122731584Y-92812325D01*
X122743417Y-92792779D01*
X122750404Y-92764386D01*
X122753727Y-92720430D01*
X122754571Y-92654192D01*
X122753125Y-92592150D01*
X122745907Y-92533042D01*
X122731006Y-92495686D01*
X122706636Y-92476152D01*
X122671008Y-92470514D01*
X122657440Y-92471635D01*
X122619430Y-92492194D01*
X122594312Y-92538299D01*
X122582248Y-92609513D01*
X122435768Y-92609513D01*
X122435833Y-92602096D01*
X122442937Y-92531882D01*
X122456815Y-92476312D01*
X122474649Y-92439301D01*
X122524855Y-92381733D01*
X122592885Y-92345962D01*
X122676158Y-92333665D01*
X122698398Y-92334331D01*
X122763891Y-92347947D01*
X122817687Y-92382249D01*
X122867057Y-92441338D01*
X122869995Y-92445722D01*
X122883287Y-92469299D01*
X122891932Y-92495949D01*
X122896904Y-92532159D01*
X122899174Y-92584413D01*
X122899678Y-92654192D01*
X122899714Y-92659200D01*
G37*
X118287941Y-92373282D02*
X118319774Y-92385758D01*
X118356743Y-92402602D01*
X118356743Y-92889196D01*
X118310812Y-92935127D01*
X118300320Y-92945427D01*
X118271255Y-92968320D01*
X118241943Y-92975735D01*
X118198326Y-92972321D01*
X118180568Y-92970114D01*
X118134767Y-92965445D01*
X118102743Y-92963585D01*
X118093244Y-92963869D01*
X118054274Y-92966948D01*
X118007160Y-92972321D01*
X117992085Y-92974168D01*
X117954110Y-92974893D01*
X117926325Y-92963429D01*
X117894674Y-92935127D01*
X117848743Y-92889196D01*
X117848743Y-92629055D01*
X117849101Y-92552180D01*
X117850216Y-92478886D01*
X117851952Y-92420850D01*
X117854167Y-92382663D01*
X117856721Y-92368914D01*
X117857256Y-92368951D01*
X117875808Y-92375793D01*
X117907153Y-92390868D01*
X117949608Y-92412822D01*
X117953604Y-92641240D01*
X117957600Y-92869657D01*
X118044686Y-92869657D01*
X118048657Y-92619286D01*
X118049916Y-92551227D01*
X118051718Y-92478482D01*
X118053671Y-92420730D01*
X118055612Y-92382648D01*
X118057377Y-92368914D01*
X118057885Y-92368962D01*
X118075482Y-92374015D01*
X118107834Y-92384849D01*
X118153543Y-92400783D01*
X118153765Y-92620706D01*
X118153988Y-92658909D01*
X118155531Y-92733146D01*
X118158292Y-92795145D01*
X118161977Y-92839308D01*
X118166292Y-92860041D01*
X118181732Y-92871131D01*
X118213241Y-92874556D01*
X118247886Y-92869657D01*
X118251857Y-92619286D01*
X118253278Y-92555663D01*
X118256225Y-92480356D01*
X118260079Y-92421286D01*
X118264542Y-92382718D01*
X118269317Y-92368914D01*
X118287941Y-92373282D01*
G36*
X118287941Y-92373282D02*
G01*
X118319774Y-92385758D01*
X118356743Y-92402602D01*
X118356743Y-92889196D01*
X118310812Y-92935127D01*
X118300320Y-92945427D01*
X118271255Y-92968320D01*
X118241943Y-92975735D01*
X118198326Y-92972321D01*
X118180568Y-92970114D01*
X118134767Y-92965445D01*
X118102743Y-92963585D01*
X118093244Y-92963869D01*
X118054274Y-92966948D01*
X118007160Y-92972321D01*
X117992085Y-92974168D01*
X117954110Y-92974893D01*
X117926325Y-92963429D01*
X117894674Y-92935127D01*
X117848743Y-92889196D01*
X117848743Y-92629055D01*
X117849101Y-92552180D01*
X117850216Y-92478886D01*
X117851952Y-92420850D01*
X117854167Y-92382663D01*
X117856721Y-92368914D01*
X117857256Y-92368951D01*
X117875808Y-92375793D01*
X117907153Y-92390868D01*
X117949608Y-92412822D01*
X117953604Y-92641240D01*
X117957600Y-92869657D01*
X118044686Y-92869657D01*
X118048657Y-92619286D01*
X118049916Y-92551227D01*
X118051718Y-92478482D01*
X118053671Y-92420730D01*
X118055612Y-92382648D01*
X118057377Y-92368914D01*
X118057885Y-92368962D01*
X118075482Y-92374015D01*
X118107834Y-92384849D01*
X118153543Y-92400783D01*
X118153765Y-92620706D01*
X118153988Y-92658909D01*
X118155531Y-92733146D01*
X118158292Y-92795145D01*
X118161977Y-92839308D01*
X118166292Y-92860041D01*
X118181732Y-92871131D01*
X118213241Y-92874556D01*
X118247886Y-92869657D01*
X118251857Y-92619286D01*
X118253278Y-92555663D01*
X118256225Y-92480356D01*
X118260079Y-92421286D01*
X118264542Y-92382718D01*
X118269317Y-92368914D01*
X118287941Y-92373282D01*
G37*
X120312543Y-92173444D02*
X120359714Y-92193342D01*
X120359714Y-92590509D01*
X120359519Y-92693498D01*
X120358998Y-92786141D01*
X120358199Y-92864700D01*
X120357172Y-92925439D01*
X120355963Y-92964623D01*
X120354623Y-92978514D01*
X120354099Y-92978468D01*
X120336287Y-92973420D01*
X120303823Y-92962580D01*
X120258114Y-92946646D01*
X120258114Y-92742173D01*
X120257824Y-92661832D01*
X120256474Y-92603562D01*
X120253369Y-92563909D01*
X120247812Y-92537618D01*
X120239107Y-92519436D01*
X120226556Y-92504107D01*
X120217999Y-92495955D01*
X120171728Y-92473375D01*
X120120728Y-92475375D01*
X120073993Y-92502073D01*
X120067189Y-92508698D01*
X120056293Y-92522456D01*
X120048836Y-92540642D01*
X120044169Y-92568177D01*
X120041642Y-92609981D01*
X120040602Y-92670973D01*
X120040400Y-92756073D01*
X120040303Y-92799234D01*
X120039674Y-92870224D01*
X120038556Y-92927076D01*
X120037063Y-92964828D01*
X120035309Y-92978514D01*
X120034785Y-92978468D01*
X120016973Y-92973420D01*
X119984509Y-92962580D01*
X119938800Y-92946646D01*
X119938823Y-92741237D01*
X119938857Y-92722951D01*
X119940778Y-92627626D01*
X119946678Y-92555543D01*
X119958001Y-92501813D01*
X119976187Y-92461549D01*
X120002679Y-92429861D01*
X120038918Y-92401861D01*
X120074263Y-92384333D01*
X120130773Y-92370785D01*
X120186356Y-92370015D01*
X120229086Y-92383195D01*
X120232298Y-92385015D01*
X120242205Y-92384820D01*
X120248975Y-92369572D01*
X120253861Y-92334613D01*
X120258114Y-92275289D01*
X120265371Y-92153547D01*
X120312543Y-92173444D01*
G36*
X120312543Y-92173444D02*
G01*
X120359714Y-92193342D01*
X120359714Y-92590509D01*
X120359519Y-92693498D01*
X120358998Y-92786141D01*
X120358199Y-92864700D01*
X120357172Y-92925439D01*
X120355963Y-92964623D01*
X120354623Y-92978514D01*
X120354099Y-92978468D01*
X120336287Y-92973420D01*
X120303823Y-92962580D01*
X120258114Y-92946646D01*
X120258114Y-92742173D01*
X120257824Y-92661832D01*
X120256474Y-92603562D01*
X120253369Y-92563909D01*
X120247812Y-92537618D01*
X120239107Y-92519436D01*
X120226556Y-92504107D01*
X120217999Y-92495955D01*
X120171728Y-92473375D01*
X120120728Y-92475375D01*
X120073993Y-92502073D01*
X120067189Y-92508698D01*
X120056293Y-92522456D01*
X120048836Y-92540642D01*
X120044169Y-92568177D01*
X120041642Y-92609981D01*
X120040602Y-92670973D01*
X120040400Y-92756073D01*
X120040303Y-92799234D01*
X120039674Y-92870224D01*
X120038556Y-92927076D01*
X120037063Y-92964828D01*
X120035309Y-92978514D01*
X120034785Y-92978468D01*
X120016973Y-92973420D01*
X119984509Y-92962580D01*
X119938800Y-92946646D01*
X119938823Y-92741237D01*
X119938857Y-92722951D01*
X119940778Y-92627626D01*
X119946678Y-92555543D01*
X119958001Y-92501813D01*
X119976187Y-92461549D01*
X120002679Y-92429861D01*
X120038918Y-92401861D01*
X120074263Y-92384333D01*
X120130773Y-92370785D01*
X120186356Y-92370015D01*
X120229086Y-92383195D01*
X120232298Y-92385015D01*
X120242205Y-92384820D01*
X120248975Y-92369572D01*
X120253861Y-92334613D01*
X120258114Y-92275289D01*
X120265371Y-92153547D01*
X120312543Y-92173444D01*
G37*
X119241691Y-92390467D02*
X119246273Y-92393003D01*
X119283704Y-92422057D01*
X119317170Y-92459410D01*
X119323007Y-92467852D01*
X119334165Y-92487553D01*
X119342136Y-92510935D01*
X119347618Y-92543067D01*
X119351307Y-92589019D01*
X119353899Y-92653859D01*
X119356092Y-92742657D01*
X119356402Y-92757669D01*
X119357400Y-92854999D01*
X119355994Y-92923934D01*
X119352164Y-92964948D01*
X119345889Y-92978514D01*
X119326898Y-92974452D01*
X119294638Y-92962144D01*
X119287041Y-92958545D01*
X119275176Y-92950398D01*
X119266994Y-92937004D01*
X119261643Y-92913608D01*
X119258269Y-92875455D01*
X119256019Y-92817790D01*
X119254040Y-92735857D01*
X119253498Y-92711907D01*
X119251403Y-92636266D01*
X119248683Y-92583328D01*
X119244515Y-92548075D01*
X119238079Y-92525487D01*
X119228550Y-92510544D01*
X119215106Y-92498227D01*
X119175305Y-92476634D01*
X119126341Y-92472476D01*
X119082529Y-92488999D01*
X119051008Y-92523210D01*
X119038914Y-92572114D01*
X119038578Y-92585407D01*
X119031972Y-92609472D01*
X119012470Y-92613144D01*
X118974283Y-92598813D01*
X118965438Y-92594217D01*
X118941534Y-92567186D01*
X118941061Y-92526994D01*
X118963836Y-92471409D01*
X118984727Y-92441117D01*
X119038142Y-92398084D01*
X119104074Y-92373755D01*
X119174574Y-92370443D01*
X119241691Y-92390467D01*
G36*
X119241691Y-92390467D02*
G01*
X119246273Y-92393003D01*
X119283704Y-92422057D01*
X119317170Y-92459410D01*
X119323007Y-92467852D01*
X119334165Y-92487553D01*
X119342136Y-92510935D01*
X119347618Y-92543067D01*
X119351307Y-92589019D01*
X119353899Y-92653859D01*
X119356092Y-92742657D01*
X119356402Y-92757669D01*
X119357400Y-92854999D01*
X119355994Y-92923934D01*
X119352164Y-92964948D01*
X119345889Y-92978514D01*
X119326898Y-92974452D01*
X119294638Y-92962144D01*
X119287041Y-92958545D01*
X119275176Y-92950398D01*
X119266994Y-92937004D01*
X119261643Y-92913608D01*
X119258269Y-92875455D01*
X119256019Y-92817790D01*
X119254040Y-92735857D01*
X119253498Y-92711907D01*
X119251403Y-92636266D01*
X119248683Y-92583328D01*
X119244515Y-92548075D01*
X119238079Y-92525487D01*
X119228550Y-92510544D01*
X119215106Y-92498227D01*
X119175305Y-92476634D01*
X119126341Y-92472476D01*
X119082529Y-92488999D01*
X119051008Y-92523210D01*
X119038914Y-92572114D01*
X119038578Y-92585407D01*
X119031972Y-92609472D01*
X119012470Y-92613144D01*
X118974283Y-92598813D01*
X118965438Y-92594217D01*
X118941534Y-92567186D01*
X118941061Y-92526994D01*
X118963836Y-92471409D01*
X118984727Y-92441117D01*
X119038142Y-92398084D01*
X119104074Y-92373755D01*
X119174574Y-92370443D01*
X119241691Y-92390467D01*
G37*
X121065020Y-92341822D02*
X121132810Y-92373680D01*
X121188366Y-92428770D01*
X121199881Y-92446016D01*
X121209432Y-92465562D01*
X121216206Y-92490198D01*
X121220819Y-92524711D01*
X121223888Y-92573889D01*
X121226029Y-92642519D01*
X121227859Y-92735389D01*
X121232404Y-92993007D01*
X121194225Y-92978491D01*
X121159268Y-92965156D01*
X121133097Y-92952323D01*
X121116013Y-92935780D01*
X121106086Y-92910465D01*
X121101386Y-92871316D01*
X121099982Y-92813268D01*
X121099943Y-92731261D01*
X121099744Y-92665895D01*
X121098559Y-92603173D01*
X121095729Y-92560334D01*
X121090609Y-92532220D01*
X121082553Y-92513675D01*
X121070914Y-92499543D01*
X121042303Y-92479600D01*
X120994239Y-92472083D01*
X120946688Y-92491079D01*
X120943550Y-92493511D01*
X120933769Y-92504748D01*
X120926553Y-92522770D01*
X120921299Y-92552026D01*
X120917402Y-92596962D01*
X120914256Y-92662028D01*
X120911257Y-92751670D01*
X120904000Y-92991697D01*
X120842314Y-92964044D01*
X120780629Y-92936391D01*
X120780629Y-92717246D01*
X120780884Y-92657711D01*
X120783086Y-92574892D01*
X120788661Y-92513227D01*
X120798941Y-92467748D01*
X120815258Y-92433484D01*
X120838943Y-92405466D01*
X120871328Y-92378723D01*
X120917907Y-92351780D01*
X120991287Y-92334191D01*
X121065020Y-92341822D01*
G36*
X121065020Y-92341822D02*
G01*
X121132810Y-92373680D01*
X121188366Y-92428770D01*
X121199881Y-92446016D01*
X121209432Y-92465562D01*
X121216206Y-92490198D01*
X121220819Y-92524711D01*
X121223888Y-92573889D01*
X121226029Y-92642519D01*
X121227859Y-92735389D01*
X121232404Y-92993007D01*
X121194225Y-92978491D01*
X121159268Y-92965156D01*
X121133097Y-92952323D01*
X121116013Y-92935780D01*
X121106086Y-92910465D01*
X121101386Y-92871316D01*
X121099982Y-92813268D01*
X121099943Y-92731261D01*
X121099744Y-92665895D01*
X121098559Y-92603173D01*
X121095729Y-92560334D01*
X121090609Y-92532220D01*
X121082553Y-92513675D01*
X121070914Y-92499543D01*
X121042303Y-92479600D01*
X120994239Y-92472083D01*
X120946688Y-92491079D01*
X120943550Y-92493511D01*
X120933769Y-92504748D01*
X120926553Y-92522770D01*
X120921299Y-92552026D01*
X120917402Y-92596962D01*
X120914256Y-92662028D01*
X120911257Y-92751670D01*
X120904000Y-92991697D01*
X120842314Y-92964044D01*
X120780629Y-92936391D01*
X120780629Y-92717246D01*
X120780884Y-92657711D01*
X120783086Y-92574892D01*
X120788661Y-92513227D01*
X120798941Y-92467748D01*
X120815258Y-92433484D01*
X120838943Y-92405466D01*
X120871328Y-92378723D01*
X120917907Y-92351780D01*
X120991287Y-92334191D01*
X121065020Y-92341822D01*
G37*
X117116829Y-92375097D02*
X117176753Y-92397355D01*
X117201673Y-92414080D01*
X117226910Y-92438043D01*
X117244912Y-92468526D01*
X117256858Y-92510023D01*
X117263930Y-92567032D01*
X117267308Y-92644047D01*
X117268171Y-92745565D01*
X117268002Y-92798027D01*
X117267153Y-92869715D01*
X117265711Y-92926925D01*
X117263814Y-92964809D01*
X117261597Y-92978514D01*
X117247172Y-92973981D01*
X117218054Y-92961670D01*
X117217181Y-92961272D01*
X117202060Y-92953356D01*
X117191891Y-92942495D01*
X117185691Y-92923471D01*
X117182478Y-92891069D01*
X117181270Y-92840071D01*
X117181086Y-92765261D01*
X117180714Y-92717804D01*
X117176750Y-92628615D01*
X117167673Y-92563287D01*
X117152524Y-92518393D01*
X117130345Y-92490507D01*
X117100175Y-92476203D01*
X117095990Y-92475206D01*
X117039480Y-92474427D01*
X116995410Y-92499744D01*
X116964972Y-92550502D01*
X116959544Y-92565175D01*
X116947171Y-92597649D01*
X116940905Y-92612572D01*
X116928036Y-92610516D01*
X116899933Y-92599357D01*
X116873721Y-92580927D01*
X116861771Y-92546098D01*
X116865336Y-92521151D01*
X116887235Y-92470547D01*
X116922644Y-92423128D01*
X116964052Y-92390334D01*
X116981400Y-92382752D01*
X117047089Y-92370076D01*
X117116829Y-92375097D01*
G36*
X117116829Y-92375097D02*
G01*
X117176753Y-92397355D01*
X117201673Y-92414080D01*
X117226910Y-92438043D01*
X117244912Y-92468526D01*
X117256858Y-92510023D01*
X117263930Y-92567032D01*
X117267308Y-92644047D01*
X117268171Y-92745565D01*
X117268002Y-92798027D01*
X117267153Y-92869715D01*
X117265711Y-92926925D01*
X117263814Y-92964809D01*
X117261597Y-92978514D01*
X117247172Y-92973981D01*
X117218054Y-92961670D01*
X117217181Y-92961272D01*
X117202060Y-92953356D01*
X117191891Y-92942495D01*
X117185691Y-92923471D01*
X117182478Y-92891069D01*
X117181270Y-92840071D01*
X117181086Y-92765261D01*
X117180714Y-92717804D01*
X117176750Y-92628615D01*
X117167673Y-92563287D01*
X117152524Y-92518393D01*
X117130345Y-92490507D01*
X117100175Y-92476203D01*
X117095990Y-92475206D01*
X117039480Y-92474427D01*
X116995410Y-92499744D01*
X116964972Y-92550502D01*
X116959544Y-92565175D01*
X116947171Y-92597649D01*
X116940905Y-92612572D01*
X116928036Y-92610516D01*
X116899933Y-92599357D01*
X116873721Y-92580927D01*
X116861771Y-92546098D01*
X116865336Y-92521151D01*
X116887235Y-92470547D01*
X116922644Y-92423128D01*
X116964052Y-92390334D01*
X116981400Y-92382752D01*
X117047089Y-92370076D01*
X117116829Y-92375097D01*
G37*
D15*
G04 #@! TO.C,TP16*
X130490000Y-89916000D02*
G75*
G03*
X130490000Y-89916000I-950000J0D01*
G01*
G04 #@! TO.C,TP5*
X137348000Y-99822000D02*
G75*
G03*
X137348000Y-99822000I-950000J0D01*
G01*
G04 #@! TO.C,TP11*
X135570000Y-92202000D02*
G75*
G03*
X135570000Y-92202000I-950000J0D01*
G01*
G04 #@! TO.C,TP2*
X134808000Y-104648000D02*
G75*
G03*
X134808000Y-104648000I-950000J0D01*
G01*
G04 #@! TO.C,TP14*
X126426000Y-86614000D02*
G75*
G03*
X126426000Y-86614000I-950000J0D01*
G01*
G04 #@! TO.C,TP6*
X113472000Y-96774000D02*
G75*
G03*
X113472000Y-96774000I-950000J0D01*
G01*
G04 #@! TO.C,TP3*
X109154000Y-87376000D02*
G75*
G03*
X109154000Y-87376000I-950000J0D01*
G01*
G04 #@! TO.C,TP13*
X140142000Y-95758000D02*
G75*
G03*
X140142000Y-95758000I-950000J0D01*
G01*
G04 #@! TO.C,TP1*
X137094000Y-107442000D02*
G75*
G03*
X137094000Y-107442000I-950000J0D01*
G01*
G04 #@! TO.C,TP10*
X119314000Y-98806000D02*
G75*
G03*
X119314000Y-98806000I-950000J0D01*
G01*
G04 #@! TO.C,TP12*
X126426000Y-89662000D02*
G75*
G03*
X126426000Y-89662000I-950000J0D01*
G01*
G04 #@! TD*
M02*
