G04 #@! TF.GenerationSoftware,KiCad,Pcbnew,7.0.5-0*
G04 #@! TF.CreationDate,2023-12-30T21:45:12-05:00*
G04 #@! TF.ProjectId,boostlet,626f6f73-746c-4657-942e-6b696361645f,rev?*
G04 #@! TF.SameCoordinates,Original*
G04 #@! TF.FileFunction,Copper,L2,Bot*
G04 #@! TF.FilePolarity,Positive*
%FSLAX46Y46*%
G04 Gerber Fmt 4.6, Leading zero omitted, Abs format (unit mm)*
G04 Created by KiCad (PCBNEW 7.0.5-0) date 2023-12-30 21:45:12*
%MOMM*%
%LPD*%
G01*
G04 APERTURE LIST*
G04 Aperture macros list*
%AMRoundRect*
0 Rectangle with rounded corners*
0 $1 Rounding radius*
0 $2 $3 $4 $5 $6 $7 $8 $9 X,Y pos of 4 corners*
0 Add a 4 corners polygon primitive as box body*
4,1,4,$2,$3,$4,$5,$6,$7,$8,$9,$2,$3,0*
0 Add four circle primitives for the rounded corners*
1,1,$1+$1,$2,$3*
1,1,$1+$1,$4,$5*
1,1,$1+$1,$6,$7*
1,1,$1+$1,$8,$9*
0 Add four rect primitives between the rounded corners*
20,1,$1+$1,$2,$3,$4,$5,0*
20,1,$1+$1,$4,$5,$6,$7,0*
20,1,$1+$1,$6,$7,$8,$9,0*
20,1,$1+$1,$8,$9,$2,$3,0*%
%AMOutline5P*
0 Free polygon, 5 corners , with rotation*
0 The origin of the aperture is its center*
0 number of corners: always 5*
0 $1 to $10 corner X, Y*
0 $11 Rotation angle, in degrees counterclockwise*
0 create outline with 5 corners*
4,1,5,$1,$2,$3,$4,$5,$6,$7,$8,$9,$10,$1,$2,$11*%
%AMOutline6P*
0 Free polygon, 6 corners , with rotation*
0 The origin of the aperture is its center*
0 number of corners: always 6*
0 $1 to $12 corner X, Y*
0 $13 Rotation angle, in degrees counterclockwise*
0 create outline with 6 corners*
4,1,6,$1,$2,$3,$4,$5,$6,$7,$8,$9,$10,$11,$12,$1,$2,$13*%
%AMOutline7P*
0 Free polygon, 7 corners , with rotation*
0 The origin of the aperture is its center*
0 number of corners: always 7*
0 $1 to $14 corner X, Y*
0 $15 Rotation angle, in degrees counterclockwise*
0 create outline with 7 corners*
4,1,7,$1,$2,$3,$4,$5,$6,$7,$8,$9,$10,$11,$12,$13,$14,$1,$2,$15*%
%AMOutline8P*
0 Free polygon, 8 corners , with rotation*
0 The origin of the aperture is its center*
0 number of corners: always 8*
0 $1 to $16 corner X, Y*
0 $17 Rotation angle, in degrees counterclockwise*
0 create outline with 8 corners*
4,1,8,$1,$2,$3,$4,$5,$6,$7,$8,$9,$10,$11,$12,$13,$14,$15,$16,$1,$2,$17*%
G04 Aperture macros list end*
G04 #@! TA.AperFunction,CastellatedPad*
%ADD10RoundRect,0.425000X1.425000X0.425000X-1.425000X0.425000X-1.425000X-0.425000X1.425000X-0.425000X0*%
G04 #@! TD*
G04 #@! TA.AperFunction,CastellatedPad*
%ADD11Outline8P,-1.850000X0.340000X-1.340000X0.850000X1.340000X0.850000X1.850000X0.340000X1.850000X-0.340000X1.340000X-0.850000X-1.340000X-0.850000X-1.850000X-0.340000X180.000000*%
G04 #@! TD*
G04 #@! TA.AperFunction,CastellatedPad*
%ADD12RoundRect,0.425000X0.425000X-1.425000X0.425000X1.425000X-0.425000X1.425000X-0.425000X-1.425000X0*%
G04 #@! TD*
G04 #@! TA.AperFunction,CastellatedPad*
%ADD13Outline8P,-1.850000X0.340000X-1.340000X0.850000X1.340000X0.850000X1.850000X0.340000X1.850000X-0.340000X1.340000X-0.850000X-1.340000X-0.850000X-1.850000X-0.340000X90.000000*%
G04 #@! TD*
G04 #@! TA.AperFunction,CastellatedPad*
%ADD14RoundRect,0.425000X-1.425000X-0.425000X1.425000X-0.425000X1.425000X0.425000X-1.425000X0.425000X0*%
G04 #@! TD*
G04 #@! TA.AperFunction,CastellatedPad*
%ADD15Outline8P,-1.850000X0.340000X-1.340000X0.850000X1.340000X0.850000X1.850000X0.340000X1.850000X-0.340000X1.340000X-0.850000X-1.340000X-0.850000X-1.850000X-0.340000X0.000000*%
G04 #@! TD*
G04 #@! TA.AperFunction,SMDPad,CuDef*
%ADD16C,1.500000*%
G04 #@! TD*
G04 #@! TA.AperFunction,ViaPad*
%ADD17C,0.800000*%
G04 #@! TD*
G04 #@! TA.AperFunction,Conductor*
%ADD18C,0.304800*%
G04 #@! TD*
G04 APERTURE END LIST*
D10*
G04 #@! TO.P,J3,1,Pin_1*
G04 #@! TO.N,/5V*
X142637000Y-108204000D03*
G04 #@! TO.P,J3,2,Pin_2*
G04 #@! TO.N,unconnected-(J3-Pin_2-Pad2)*
X142637000Y-105664000D03*
D11*
G04 #@! TO.P,J3,3,Pin_3*
G04 #@! TO.N,GND*
X142637000Y-103124000D03*
D10*
G04 #@! TO.P,J3,4,Pin_4*
G04 #@! TO.N,unconnected-(J3-Pin_4-Pad4)*
X142637000Y-100584000D03*
G04 #@! TO.P,J3,5,Pin_5*
G04 #@! TO.N,/3.3V*
X142637000Y-98044000D03*
G04 #@! TD*
D12*
G04 #@! TO.P,J1,1,Pin_1*
G04 #@! TO.N,VCC*
X107696000Y-113808000D03*
G04 #@! TO.P,J1,2,Pin_2*
G04 #@! TO.N,unconnected-(J1-Pin_2-Pad2)*
X110236000Y-113808000D03*
G04 #@! TO.P,J1,3,Pin_3*
G04 #@! TO.N,/NEO_IN2*
X112776000Y-113808000D03*
G04 #@! TO.P,J1,4,Pin_4*
G04 #@! TO.N,unconnected-(J1-Pin_4-Pad4)*
X115316000Y-113808000D03*
G04 #@! TO.P,J1,5,Pin_5*
G04 #@! TO.N,/NEO_OUT2*
X117856000Y-113808000D03*
G04 #@! TO.P,J1,6,Pin_6*
G04 #@! TO.N,unconnected-(J1-Pin_6-Pad6)*
X120396000Y-113808000D03*
G04 #@! TO.P,J1,7,Pin_7*
G04 #@! TO.N,/BATT_SIG*
X122936000Y-113808000D03*
G04 #@! TO.P,J1,8,Pin_8*
G04 #@! TO.N,unconnected-(J1-Pin_8-Pad8)*
X125476000Y-113808000D03*
G04 #@! TO.P,J1,9,Pin_9*
G04 #@! TO.N,/NEO_IN1*
X128016000Y-113808000D03*
G04 #@! TO.P,J1,10,Pin_10*
G04 #@! TO.N,unconnected-(J1-Pin_10-Pad10)*
X130556000Y-113808000D03*
G04 #@! TO.P,J1,11,Pin_11*
G04 #@! TO.N,/NEO_OUT1*
X133096000Y-113808000D03*
G04 #@! TO.P,J1,12,Pin_12*
G04 #@! TO.N,unconnected-(J1-Pin_12-Pad12)*
X135636000Y-113808000D03*
D13*
G04 #@! TO.P,J1,13,Pin_13*
G04 #@! TO.N,GND*
X138176000Y-113808000D03*
G04 #@! TD*
D14*
G04 #@! TO.P,J2,1,Pin_1*
G04 #@! TO.N,/V_BATT*
X104632000Y-85090000D03*
G04 #@! TO.P,J2,2,Pin_2*
G04 #@! TO.N,unconnected-(J2-Pin_2-Pad2)*
X104632000Y-87630000D03*
D15*
G04 #@! TO.P,J2,3,Pin_3*
G04 #@! TO.N,GND*
X104632000Y-90170000D03*
D14*
G04 #@! TO.P,J2,4,Pin_4*
G04 #@! TO.N,unconnected-(J2-Pin_4-Pad4)*
X104632000Y-92710000D03*
G04 #@! TO.P,J2,5,Pin_5*
G04 #@! TO.N,VCC*
X104632000Y-95250000D03*
G04 #@! TD*
D16*
G04 #@! TO.P,TP4,1,1*
G04 #@! TO.N,Net-(JP1-B)*
X115316000Y-90678000D03*
G04 #@! TD*
G04 #@! TO.P,TP8,1,1*
G04 #@! TO.N,/NEO_IN2*
X118618000Y-105918000D03*
G04 #@! TD*
G04 #@! TO.P,TP9,1,1*
G04 #@! TO.N,VCC*
X116078000Y-102362000D03*
G04 #@! TD*
G04 #@! TO.P,TP15,1,1*
G04 #@! TO.N,/BATT_SIG*
X126746000Y-92456000D03*
G04 #@! TD*
G04 #@! TO.P,TP16,1,1*
G04 #@! TO.N,/5V*
X129540000Y-89916000D03*
G04 #@! TD*
G04 #@! TO.P,TP5,1,1*
G04 #@! TO.N,/NEO_OUT1*
X136398000Y-99822000D03*
G04 #@! TD*
G04 #@! TO.P,TP11,1,1*
G04 #@! TO.N,Net-(JP2-B)*
X134620000Y-92202000D03*
G04 #@! TD*
G04 #@! TO.P,TP2,1,1*
G04 #@! TO.N,VCC*
X133858000Y-104648000D03*
G04 #@! TD*
G04 #@! TO.P,TP14,1,1*
G04 #@! TO.N,Net-(D1-K)*
X125476000Y-86614000D03*
G04 #@! TD*
G04 #@! TO.P,TP6,1,1*
G04 #@! TO.N,Net-(U1-EN)*
X112522000Y-96774000D03*
G04 #@! TD*
G04 #@! TO.P,TP3,1,1*
G04 #@! TO.N,/V_BATT*
X108204000Y-87376000D03*
G04 #@! TD*
G04 #@! TO.P,TP13,1,1*
G04 #@! TO.N,/3.3V*
X139192000Y-95758000D03*
G04 #@! TD*
G04 #@! TO.P,TP1,1,1*
G04 #@! TO.N,/NEO_IN1*
X136144000Y-107442000D03*
G04 #@! TD*
G04 #@! TO.P,TP10,1,1*
G04 #@! TO.N,/NEO_OUT2*
X118364000Y-98806000D03*
G04 #@! TD*
G04 #@! TO.P,TP12,1,1*
G04 #@! TO.N,Net-(D1-A)*
X125476000Y-89662000D03*
G04 #@! TD*
D17*
G04 #@! TO.N,/5V*
X129540000Y-89916000D03*
X129540000Y-100076000D03*
X140462000Y-111506000D03*
X112776000Y-107696000D03*
X125476000Y-100076000D03*
G04 #@! TO.N,/V_BATT*
X122428000Y-94234000D03*
X108204000Y-87376000D03*
G04 #@! TO.N,Net-(D1-A)*
X125476000Y-89662000D03*
G04 #@! TO.N,Net-(JP1-B)*
X111252000Y-92710000D03*
X120904000Y-91694000D03*
X115316000Y-90678000D03*
G04 #@! TO.N,/3.3V*
X138303000Y-86995000D03*
X141351000Y-89154000D03*
X139192000Y-95758000D03*
G04 #@! TO.N,/NEO_OUT1*
X136398000Y-99822000D03*
G04 #@! TO.N,GND*
X121158000Y-81534000D03*
X121158000Y-89662000D03*
X128524000Y-81280000D03*
X116840000Y-84582000D03*
X107188000Y-90170000D03*
X134620000Y-83312000D03*
X139700000Y-109728000D03*
X128778000Y-97790000D03*
X136906000Y-94996000D03*
X123190000Y-91694000D03*
X117309500Y-95973500D03*
X131826000Y-101346000D03*
X113030000Y-99060000D03*
X132588000Y-92202000D03*
X141732000Y-95758000D03*
X134633500Y-89916000D03*
X139700000Y-102616000D03*
G04 #@! TO.N,VCC*
X139700000Y-84455000D03*
X107696000Y-95250000D03*
X116078000Y-102362000D03*
X125476000Y-107696000D03*
X114808000Y-107696000D03*
X133858000Y-104648000D03*
G04 #@! TO.N,/NEO_OUT2*
X118364000Y-98806000D03*
G04 #@! TO.N,/BATT_SIG*
X126746000Y-92456000D03*
G04 #@! TO.N,/NEO_IN1*
X136144000Y-107442000D03*
G04 #@! TO.N,/NEO_IN2*
X118618000Y-105918000D03*
G04 #@! TO.N,Net-(D1-K)*
X125476000Y-86614000D03*
G04 #@! TO.N,Net-(JP2-B)*
X134620000Y-92202000D03*
G04 #@! TO.N,Net-(U1-EN)*
X112522000Y-96774000D03*
G04 #@! TD*
D18*
G04 #@! TO.N,/5V*
X127762000Y-110744000D02*
X115824000Y-110744000D01*
X139954000Y-111506000D02*
X139192000Y-110744000D01*
X140462000Y-111506000D02*
X139954000Y-111506000D01*
X115824000Y-110744000D02*
X112776000Y-107696000D01*
X127762000Y-100076000D02*
X129540000Y-100076000D01*
X127762000Y-110744000D02*
X127762000Y-100076000D01*
X125476000Y-100076000D02*
X127762000Y-100076000D01*
X139192000Y-110744000D02*
X127762000Y-110744000D01*
G04 #@! TO.N,/V_BATT*
X122428000Y-94234000D02*
X109728000Y-94234000D01*
X108204000Y-92710000D02*
X108204000Y-87376000D01*
X109728000Y-94234000D02*
X108204000Y-92710000D01*
G04 #@! TO.N,Net-(JP1-B)*
X120904000Y-91694000D02*
X119888000Y-92710000D01*
X119888000Y-92710000D02*
X111252000Y-92710000D01*
G04 #@! TO.N,/3.3V*
X139192000Y-86995000D02*
X141351000Y-89154000D01*
X138303000Y-86995000D02*
X139192000Y-86995000D01*
G04 #@! TO.N,VCC*
X133858000Y-97282000D02*
X133858000Y-104648000D01*
X132461000Y-86233000D02*
X132461000Y-90043000D01*
X114808000Y-103886000D02*
X107696000Y-96774000D01*
X132461000Y-90043000D02*
X130556000Y-91948000D01*
X139700000Y-84455000D02*
X139065000Y-85090000D01*
X130556000Y-93980000D02*
X133858000Y-97282000D01*
X125476000Y-107696000D02*
X114808000Y-107696000D01*
X114808000Y-107696000D02*
X114808000Y-103886000D01*
X133604000Y-85090000D02*
X132461000Y-86233000D01*
X130556000Y-91948000D02*
X130556000Y-93980000D01*
X139065000Y-85090000D02*
X133604000Y-85090000D01*
X107696000Y-96774000D02*
X107696000Y-95250000D01*
G04 #@! TD*
G04 #@! TA.AperFunction,Conductor*
G04 #@! TO.N,GND*
G36*
X140633620Y-79804584D02*
G01*
X140765434Y-79811493D01*
X140949027Y-79821803D01*
X140955212Y-79822465D01*
X141107667Y-79846611D01*
X141270178Y-79874223D01*
X141275811Y-79875453D01*
X141428699Y-79916419D01*
X141530647Y-79945790D01*
X141583724Y-79961082D01*
X141588766Y-79962772D01*
X141737467Y-80019852D01*
X141738828Y-80020395D01*
X141886017Y-80081362D01*
X141890412Y-80083388D01*
X141965591Y-80121694D01*
X142032993Y-80156038D01*
X142034835Y-80157016D01*
X142101888Y-80194074D01*
X142173480Y-80233641D01*
X142177215Y-80235882D01*
X142311797Y-80323281D01*
X142313907Y-80324714D01*
X142384735Y-80374969D01*
X142442764Y-80416142D01*
X142445886Y-80418510D01*
X142570748Y-80519621D01*
X142573034Y-80521567D01*
X142690721Y-80626738D01*
X142693248Y-80629128D01*
X142806870Y-80742750D01*
X142809260Y-80745277D01*
X142914431Y-80862964D01*
X142916385Y-80865260D01*
X143017480Y-80990102D01*
X143019862Y-80993243D01*
X143111284Y-81122091D01*
X143112717Y-81124201D01*
X143153560Y-81187093D01*
X143200106Y-81258767D01*
X143202364Y-81262531D01*
X143278982Y-81401163D01*
X143279960Y-81403005D01*
X143352604Y-81545574D01*
X143354643Y-81549997D01*
X143415570Y-81697087D01*
X143416171Y-81698595D01*
X143473221Y-81847217D01*
X143474916Y-81852274D01*
X143519579Y-82007299D01*
X143560541Y-82160170D01*
X143561778Y-82165835D01*
X143589399Y-82328400D01*
X143613530Y-82480758D01*
X143614196Y-82486985D01*
X143624511Y-82670652D01*
X143631415Y-82802377D01*
X143631500Y-82805623D01*
X143631500Y-96569500D01*
X143611815Y-96636539D01*
X143559011Y-96682294D01*
X143507500Y-96693500D01*
X141147216Y-96693500D01*
X141066425Y-96699858D01*
X140878504Y-96750212D01*
X140705161Y-96838534D01*
X140553968Y-96960968D01*
X140431534Y-97112161D01*
X140343212Y-97285504D01*
X140292858Y-97473425D01*
X140286500Y-97554216D01*
X140286500Y-98533783D01*
X140292858Y-98614574D01*
X140292858Y-98614577D01*
X140292859Y-98614578D01*
X140343212Y-98802496D01*
X140431535Y-98975840D01*
X140553968Y-99127032D01*
X140637114Y-99194362D01*
X140665852Y-99217634D01*
X140705563Y-99275121D01*
X140707891Y-99344952D01*
X140672095Y-99404956D01*
X140665852Y-99410366D01*
X140553968Y-99500968D01*
X140431534Y-99652161D01*
X140343212Y-99825504D01*
X140292858Y-100013425D01*
X140286500Y-100094216D01*
X140286500Y-101073783D01*
X140292858Y-101154574D01*
X140292858Y-101154577D01*
X140292859Y-101154578D01*
X140343212Y-101342496D01*
X140431535Y-101515840D01*
X140553968Y-101667032D01*
X140637114Y-101734362D01*
X140705162Y-101789467D01*
X140797715Y-101836624D01*
X140848511Y-101884598D01*
X140865307Y-101952419D01*
X140842770Y-102018554D01*
X140829102Y-102034790D01*
X140404504Y-102459389D01*
X140404492Y-102459403D01*
X140352570Y-102526241D01*
X140352570Y-102526242D01*
X140297549Y-102659075D01*
X140287000Y-102743058D01*
X140287000Y-102874000D01*
X142763000Y-102874000D01*
X142830039Y-102893685D01*
X142875794Y-102946489D01*
X142887000Y-102998000D01*
X142887000Y-103250000D01*
X142867315Y-103317039D01*
X142814511Y-103362794D01*
X142763000Y-103374000D01*
X140287000Y-103374000D01*
X140287000Y-103504943D01*
X140297549Y-103588925D01*
X140352570Y-103721758D01*
X140404492Y-103788596D01*
X140404503Y-103788609D01*
X140829102Y-104213208D01*
X140862587Y-104274531D01*
X140857603Y-104344223D01*
X140815731Y-104400156D01*
X140797717Y-104411373D01*
X140705163Y-104458532D01*
X140553968Y-104580968D01*
X140431534Y-104732161D01*
X140343212Y-104905504D01*
X140292858Y-105093425D01*
X140286500Y-105174216D01*
X140286500Y-106153783D01*
X140292858Y-106234574D01*
X140292858Y-106234577D01*
X140292859Y-106234578D01*
X140343212Y-106422496D01*
X140431535Y-106595840D01*
X140553968Y-106747032D01*
X140637114Y-106814362D01*
X140665852Y-106837634D01*
X140705563Y-106895121D01*
X140707891Y-106964952D01*
X140672095Y-107024956D01*
X140665852Y-107030366D01*
X140553968Y-107120968D01*
X140431534Y-107272161D01*
X140343212Y-107445504D01*
X140292858Y-107633425D01*
X140286500Y-107714216D01*
X140286500Y-108693783D01*
X140292858Y-108774574D01*
X140292858Y-108774577D01*
X140292859Y-108774578D01*
X140343212Y-108962496D01*
X140431535Y-109135840D01*
X140553968Y-109287032D01*
X140705160Y-109409465D01*
X140878504Y-109497788D01*
X141066422Y-109548141D01*
X141147222Y-109554500D01*
X143507500Y-109554500D01*
X143574539Y-109574185D01*
X143620294Y-109626989D01*
X143631500Y-109678500D01*
X143631500Y-111802376D01*
X143631415Y-111805622D01*
X143624511Y-111937346D01*
X143614196Y-112121013D01*
X143613530Y-112127240D01*
X143589399Y-112279598D01*
X143561778Y-112442163D01*
X143560541Y-112447828D01*
X143519579Y-112600699D01*
X143474916Y-112755724D01*
X143473221Y-112760781D01*
X143416171Y-112909403D01*
X143415570Y-112910911D01*
X143354643Y-113058001D01*
X143352604Y-113062424D01*
X143279960Y-113204993D01*
X143278982Y-113206835D01*
X143202364Y-113345467D01*
X143200097Y-113349246D01*
X143112717Y-113483797D01*
X143111284Y-113485907D01*
X143019862Y-113614755D01*
X143017480Y-113617896D01*
X142916385Y-113742738D01*
X142914431Y-113745034D01*
X142809260Y-113862721D01*
X142806870Y-113865248D01*
X142693248Y-113978870D01*
X142690721Y-113981260D01*
X142573034Y-114086431D01*
X142570738Y-114088385D01*
X142445896Y-114189480D01*
X142442755Y-114191862D01*
X142313907Y-114283284D01*
X142311797Y-114284717D01*
X142177246Y-114372097D01*
X142173467Y-114374364D01*
X142034835Y-114450982D01*
X142032993Y-114451960D01*
X141890424Y-114524604D01*
X141886001Y-114526643D01*
X141738911Y-114587570D01*
X141737403Y-114588171D01*
X141588781Y-114645221D01*
X141583724Y-114646916D01*
X141428699Y-114691579D01*
X141275828Y-114732541D01*
X141270163Y-114733778D01*
X141107598Y-114761399D01*
X140955240Y-114785530D01*
X140949013Y-114786196D01*
X140765346Y-114796511D01*
X140633622Y-114803415D01*
X140630376Y-114803500D01*
X139650000Y-114803500D01*
X139582961Y-114783815D01*
X139537206Y-114731011D01*
X139526000Y-114679500D01*
X139526000Y-114058000D01*
X138050000Y-114058000D01*
X137982961Y-114038315D01*
X137937206Y-113985511D01*
X137926000Y-113934000D01*
X137926000Y-113682000D01*
X137945685Y-113614961D01*
X137998489Y-113569206D01*
X138050000Y-113558000D01*
X139526000Y-113558000D01*
X139526000Y-112427058D01*
X139525999Y-112427056D01*
X139515450Y-112343076D01*
X139473409Y-112241580D01*
X139465940Y-112172111D01*
X139497215Y-112109631D01*
X139557304Y-112073979D01*
X139627129Y-112076473D01*
X139637212Y-112080324D01*
X139652152Y-112086788D01*
X139663767Y-112091814D01*
X139668996Y-112094376D01*
X139692695Y-112107405D01*
X139711738Y-112117875D01*
X139711740Y-112117875D01*
X139711741Y-112117876D01*
X139722936Y-112120750D01*
X139732407Y-112123182D01*
X139750819Y-112129485D01*
X139770399Y-112137959D01*
X139784032Y-112140118D01*
X139847166Y-112170043D01*
X139855326Y-112178165D01*
X139856135Y-112178893D01*
X140009265Y-112290148D01*
X140009270Y-112290151D01*
X140182192Y-112367142D01*
X140182197Y-112367144D01*
X140367354Y-112406500D01*
X140367355Y-112406500D01*
X140556644Y-112406500D01*
X140556646Y-112406500D01*
X140741803Y-112367144D01*
X140914730Y-112290151D01*
X141067871Y-112178888D01*
X141194533Y-112038216D01*
X141289179Y-111874284D01*
X141347674Y-111694256D01*
X141367460Y-111506000D01*
X141347674Y-111317744D01*
X141289179Y-111137716D01*
X141194533Y-110973784D01*
X141067871Y-110833112D01*
X141067870Y-110833111D01*
X140914734Y-110721851D01*
X140914729Y-110721848D01*
X140741807Y-110644857D01*
X140741802Y-110644855D01*
X140596000Y-110613865D01*
X140556646Y-110605500D01*
X140367354Y-110605500D01*
X140334897Y-110612398D01*
X140182197Y-110644855D01*
X140182196Y-110644855D01*
X140145187Y-110661333D01*
X140075937Y-110670616D01*
X140012661Y-110640986D01*
X140007073Y-110635733D01*
X139714319Y-110342979D01*
X139704227Y-110330381D01*
X139704043Y-110330534D01*
X139699067Y-110324519D01*
X139699066Y-110324518D01*
X139647100Y-110275719D01*
X139645725Y-110274385D01*
X139624629Y-110253289D01*
X139624626Y-110253286D01*
X139618804Y-110248770D01*
X139614361Y-110244975D01*
X139578813Y-110211593D01*
X139560115Y-110201314D01*
X139543852Y-110190631D01*
X139526996Y-110177556D01*
X139526994Y-110177554D01*
X139503300Y-110167301D01*
X139482229Y-110158182D01*
X139477007Y-110155625D01*
X139434259Y-110132124D01*
X139434256Y-110132123D01*
X139413587Y-110126816D01*
X139395184Y-110120515D01*
X139375601Y-110112041D01*
X139375595Y-110112039D01*
X139327434Y-110104412D01*
X139321714Y-110103227D01*
X139313593Y-110101142D01*
X139274483Y-110091100D01*
X139274480Y-110091100D01*
X139253139Y-110091100D01*
X139233741Y-110089573D01*
X139225717Y-110088302D01*
X139212672Y-110086236D01*
X139212671Y-110086236D01*
X139164123Y-110090825D01*
X139158287Y-110091100D01*
X128538900Y-110091100D01*
X128471861Y-110071415D01*
X128426106Y-110018611D01*
X128414900Y-109967100D01*
X128414900Y-107442002D01*
X134888723Y-107442002D01*
X134907793Y-107659975D01*
X134907793Y-107659979D01*
X134964422Y-107871322D01*
X134964424Y-107871326D01*
X134964425Y-107871330D01*
X134970454Y-107884259D01*
X135056897Y-108069638D01*
X135056898Y-108069639D01*
X135182402Y-108248877D01*
X135337123Y-108403598D01*
X135516361Y-108529102D01*
X135714670Y-108621575D01*
X135926023Y-108678207D01*
X136108926Y-108694208D01*
X136143998Y-108697277D01*
X136144000Y-108697277D01*
X136144002Y-108697277D01*
X136172254Y-108694805D01*
X136361977Y-108678207D01*
X136573330Y-108621575D01*
X136771639Y-108529102D01*
X136950877Y-108403598D01*
X137105598Y-108248877D01*
X137231102Y-108069639D01*
X137323575Y-107871330D01*
X137380207Y-107659977D01*
X137396805Y-107470254D01*
X137399277Y-107442002D01*
X137399277Y-107441997D01*
X137389279Y-107327722D01*
X137380207Y-107224023D01*
X137323575Y-107012670D01*
X137231102Y-106814362D01*
X137231100Y-106814359D01*
X137231099Y-106814357D01*
X137105599Y-106635124D01*
X137066313Y-106595838D01*
X136950877Y-106480402D01*
X136771639Y-106354898D01*
X136771640Y-106354898D01*
X136771638Y-106354897D01*
X136672484Y-106308661D01*
X136573330Y-106262425D01*
X136573326Y-106262424D01*
X136573322Y-106262422D01*
X136361977Y-106205793D01*
X136144002Y-106186723D01*
X136143998Y-106186723D01*
X135998681Y-106199436D01*
X135926023Y-106205793D01*
X135926020Y-106205793D01*
X135714677Y-106262422D01*
X135714668Y-106262426D01*
X135516361Y-106354898D01*
X135516357Y-106354900D01*
X135337121Y-106480402D01*
X135182402Y-106635121D01*
X135056900Y-106814357D01*
X135056898Y-106814361D01*
X134964426Y-107012668D01*
X134964422Y-107012677D01*
X134907793Y-107224020D01*
X134907793Y-107224024D01*
X134888723Y-107441997D01*
X134888723Y-107442002D01*
X128414900Y-107442002D01*
X128414900Y-100852900D01*
X128434585Y-100785861D01*
X128487389Y-100740106D01*
X128538900Y-100728900D01*
X128866328Y-100728900D01*
X128933367Y-100748585D01*
X128939213Y-100752582D01*
X129087265Y-100860148D01*
X129087270Y-100860151D01*
X129260192Y-100937142D01*
X129260197Y-100937144D01*
X129445354Y-100976500D01*
X129445355Y-100976500D01*
X129634644Y-100976500D01*
X129634646Y-100976500D01*
X129819803Y-100937144D01*
X129992730Y-100860151D01*
X130145871Y-100748888D01*
X130272533Y-100608216D01*
X130367179Y-100444284D01*
X130425674Y-100264256D01*
X130445460Y-100076000D01*
X130425674Y-99887744D01*
X130367179Y-99707716D01*
X130272533Y-99543784D01*
X130145871Y-99403112D01*
X130140787Y-99399418D01*
X129992734Y-99291851D01*
X129992729Y-99291848D01*
X129819807Y-99214857D01*
X129819802Y-99214855D01*
X129674000Y-99183865D01*
X129634646Y-99175500D01*
X129445354Y-99175500D01*
X129412897Y-99182398D01*
X129260197Y-99214855D01*
X129260192Y-99214857D01*
X129087270Y-99291848D01*
X129087265Y-99291851D01*
X128939213Y-99399418D01*
X128873407Y-99422898D01*
X128866328Y-99423100D01*
X127835435Y-99423100D01*
X127812202Y-99420904D01*
X127803322Y-99419210D01*
X127803320Y-99419210D01*
X127794006Y-99419796D01*
X127743420Y-99422978D01*
X127739548Y-99423100D01*
X126149672Y-99423100D01*
X126082633Y-99403415D01*
X126076787Y-99399418D01*
X125928734Y-99291851D01*
X125928729Y-99291848D01*
X125755807Y-99214857D01*
X125755802Y-99214855D01*
X125610001Y-99183865D01*
X125570646Y-99175500D01*
X125381354Y-99175500D01*
X125348897Y-99182398D01*
X125196197Y-99214855D01*
X125196192Y-99214857D01*
X125023270Y-99291848D01*
X125023265Y-99291851D01*
X124870129Y-99403111D01*
X124743466Y-99543785D01*
X124648821Y-99707715D01*
X124648818Y-99707722D01*
X124610549Y-99825504D01*
X124590326Y-99887744D01*
X124570540Y-100076000D01*
X124590326Y-100264256D01*
X124590327Y-100264259D01*
X124648818Y-100444277D01*
X124648821Y-100444284D01*
X124743467Y-100608216D01*
X124852132Y-100728900D01*
X124870129Y-100748888D01*
X125023265Y-100860148D01*
X125023270Y-100860151D01*
X125196192Y-100937142D01*
X125196197Y-100937144D01*
X125381354Y-100976500D01*
X125381355Y-100976500D01*
X125570644Y-100976500D01*
X125570646Y-100976500D01*
X125755803Y-100937144D01*
X125928730Y-100860151D01*
X126034097Y-100783598D01*
X126076787Y-100752582D01*
X126142593Y-100729102D01*
X126149672Y-100728900D01*
X126985100Y-100728900D01*
X127052139Y-100748585D01*
X127097894Y-100801389D01*
X127109100Y-100852900D01*
X127109100Y-109967100D01*
X127089415Y-110034139D01*
X127036611Y-110079894D01*
X126985100Y-110091100D01*
X116145802Y-110091100D01*
X116078763Y-110071415D01*
X116058121Y-110054781D01*
X114811521Y-108808181D01*
X114778036Y-108746858D01*
X114783020Y-108677166D01*
X114824892Y-108621233D01*
X114890356Y-108596816D01*
X114899202Y-108596500D01*
X114902644Y-108596500D01*
X114902646Y-108596500D01*
X115087803Y-108557144D01*
X115260730Y-108480151D01*
X115366097Y-108403598D01*
X115408787Y-108372582D01*
X115474593Y-108349102D01*
X115481672Y-108348900D01*
X124802328Y-108348900D01*
X124869367Y-108368585D01*
X124875213Y-108372582D01*
X125023265Y-108480148D01*
X125023270Y-108480151D01*
X125196192Y-108557142D01*
X125196197Y-108557144D01*
X125381354Y-108596500D01*
X125381355Y-108596500D01*
X125570644Y-108596500D01*
X125570646Y-108596500D01*
X125755803Y-108557144D01*
X125928730Y-108480151D01*
X126081871Y-108368888D01*
X126208533Y-108228216D01*
X126303179Y-108064284D01*
X126361674Y-107884256D01*
X126381460Y-107696000D01*
X126361674Y-107507744D01*
X126303179Y-107327716D01*
X126208533Y-107163784D01*
X126081871Y-107023112D01*
X126075340Y-107018367D01*
X125928734Y-106911851D01*
X125928729Y-106911848D01*
X125755807Y-106834857D01*
X125755802Y-106834855D01*
X125610001Y-106803865D01*
X125570646Y-106795500D01*
X125381354Y-106795500D01*
X125348897Y-106802398D01*
X125196197Y-106834855D01*
X125196192Y-106834857D01*
X125023270Y-106911848D01*
X125023265Y-106911851D01*
X124875213Y-107019418D01*
X124809407Y-107042898D01*
X124802328Y-107043100D01*
X119560737Y-107043100D01*
X119493698Y-107023415D01*
X119447943Y-106970611D01*
X119437999Y-106901453D01*
X119467024Y-106837897D01*
X119473056Y-106831419D01*
X119508975Y-106795500D01*
X119579598Y-106724877D01*
X119705102Y-106545639D01*
X119797575Y-106347330D01*
X119854207Y-106135977D01*
X119873277Y-105918000D01*
X119870320Y-105884206D01*
X119865366Y-105827573D01*
X119854207Y-105700023D01*
X119797575Y-105488670D01*
X119705102Y-105290362D01*
X119705100Y-105290359D01*
X119705099Y-105290357D01*
X119579599Y-105111124D01*
X119545797Y-105077322D01*
X119424877Y-104956402D01*
X119245639Y-104830898D01*
X119245640Y-104830898D01*
X119245638Y-104830897D01*
X119146484Y-104784661D01*
X119047330Y-104738425D01*
X119047326Y-104738424D01*
X119047322Y-104738422D01*
X118835977Y-104681793D01*
X118618002Y-104662723D01*
X118617998Y-104662723D01*
X118472681Y-104675436D01*
X118400023Y-104681793D01*
X118400020Y-104681793D01*
X118188677Y-104738422D01*
X118188668Y-104738426D01*
X117990361Y-104830898D01*
X117990357Y-104830900D01*
X117811121Y-104956402D01*
X117656402Y-105111121D01*
X117530900Y-105290357D01*
X117530898Y-105290361D01*
X117438426Y-105488668D01*
X117438422Y-105488677D01*
X117381793Y-105700020D01*
X117381793Y-105700024D01*
X117362723Y-105917997D01*
X117362723Y-105918002D01*
X117381793Y-106135975D01*
X117381793Y-106135979D01*
X117438422Y-106347322D01*
X117438424Y-106347326D01*
X117438425Y-106347330D01*
X117484661Y-106446484D01*
X117530897Y-106545638D01*
X117530898Y-106545639D01*
X117656402Y-106724877D01*
X117656406Y-106724881D01*
X117762944Y-106831419D01*
X117796429Y-106892742D01*
X117791445Y-106962434D01*
X117749573Y-107018367D01*
X117684109Y-107042784D01*
X117675263Y-107043100D01*
X115584900Y-107043100D01*
X115517861Y-107023415D01*
X115472106Y-106970611D01*
X115460900Y-106919100D01*
X115460900Y-103971765D01*
X115462671Y-103955716D01*
X115462434Y-103955694D01*
X115463168Y-103947931D01*
X115460931Y-103876722D01*
X115460900Y-103874775D01*
X115460900Y-103844929D01*
X115460899Y-103844921D01*
X115459977Y-103837618D01*
X115459518Y-103831790D01*
X115457987Y-103783054D01*
X115457987Y-103783052D01*
X115452030Y-103762549D01*
X115448087Y-103743502D01*
X115445414Y-103722341D01*
X115445413Y-103722338D01*
X115427463Y-103677004D01*
X115425573Y-103671483D01*
X115423222Y-103663389D01*
X115423418Y-103593522D01*
X115461358Y-103534850D01*
X115524995Y-103506004D01*
X115594125Y-103516142D01*
X115594615Y-103516368D01*
X115648670Y-103541575D01*
X115860023Y-103598207D01*
X116042926Y-103614208D01*
X116077998Y-103617277D01*
X116078000Y-103617277D01*
X116078002Y-103617277D01*
X116106254Y-103614805D01*
X116295977Y-103598207D01*
X116507330Y-103541575D01*
X116705639Y-103449102D01*
X116884877Y-103323598D01*
X117039598Y-103168877D01*
X117165102Y-102989639D01*
X117257575Y-102791330D01*
X117314207Y-102579977D01*
X117333277Y-102362000D01*
X117314207Y-102144023D01*
X117257575Y-101932670D01*
X117165102Y-101734362D01*
X117165100Y-101734359D01*
X117165099Y-101734357D01*
X117039599Y-101555124D01*
X117000313Y-101515838D01*
X116884877Y-101400402D01*
X116705639Y-101274898D01*
X116705640Y-101274898D01*
X116705638Y-101274897D01*
X116606484Y-101228661D01*
X116507330Y-101182425D01*
X116507326Y-101182424D01*
X116507322Y-101182422D01*
X116295977Y-101125793D01*
X116078002Y-101106723D01*
X116077998Y-101106723D01*
X115932682Y-101119436D01*
X115860023Y-101125793D01*
X115860020Y-101125793D01*
X115648677Y-101182422D01*
X115648668Y-101182426D01*
X115450361Y-101274898D01*
X115450357Y-101274900D01*
X115271121Y-101400402D01*
X115116402Y-101555121D01*
X114990900Y-101734357D01*
X114990898Y-101734361D01*
X114898426Y-101932668D01*
X114898422Y-101932677D01*
X114841793Y-102144020D01*
X114841793Y-102144024D01*
X114822723Y-102361997D01*
X114822723Y-102362002D01*
X114841793Y-102579975D01*
X114841793Y-102579979D01*
X114874459Y-102701889D01*
X114872796Y-102771739D01*
X114833633Y-102829601D01*
X114769405Y-102857105D01*
X114700503Y-102845518D01*
X114667003Y-102821663D01*
X111738442Y-99893102D01*
X110651342Y-98806002D01*
X117108723Y-98806002D01*
X117118258Y-98914988D01*
X117127018Y-99015124D01*
X117127793Y-99023975D01*
X117127793Y-99023979D01*
X117184422Y-99235322D01*
X117184424Y-99235326D01*
X117184425Y-99235330D01*
X117230661Y-99334484D01*
X117276897Y-99433638D01*
X117276898Y-99433639D01*
X117402402Y-99612877D01*
X117557123Y-99767598D01*
X117736361Y-99893102D01*
X117934670Y-99985575D01*
X118146023Y-100042207D01*
X118328926Y-100058208D01*
X118363998Y-100061277D01*
X118364000Y-100061277D01*
X118364002Y-100061277D01*
X118392254Y-100058805D01*
X118581977Y-100042207D01*
X118793330Y-99985575D01*
X118991639Y-99893102D01*
X119170877Y-99767598D01*
X119325598Y-99612877D01*
X119451102Y-99433639D01*
X119543575Y-99235330D01*
X119600207Y-99023977D01*
X119619277Y-98806000D01*
X119618970Y-98802496D01*
X119613057Y-98734900D01*
X119600207Y-98588023D01*
X119543575Y-98376670D01*
X119451102Y-98178362D01*
X119451100Y-98178359D01*
X119451099Y-98178357D01*
X119325599Y-97999124D01*
X119280048Y-97953573D01*
X119170877Y-97844402D01*
X118991639Y-97718898D01*
X118991640Y-97718898D01*
X118991638Y-97718897D01*
X118892484Y-97672661D01*
X118793330Y-97626425D01*
X118793326Y-97626424D01*
X118793322Y-97626422D01*
X118581977Y-97569793D01*
X118364002Y-97550723D01*
X118363998Y-97550723D01*
X118218681Y-97563436D01*
X118146023Y-97569793D01*
X118146020Y-97569793D01*
X117934677Y-97626422D01*
X117934668Y-97626426D01*
X117736361Y-97718898D01*
X117736357Y-97718900D01*
X117557121Y-97844402D01*
X117402402Y-97999121D01*
X117276900Y-98178357D01*
X117276898Y-98178361D01*
X117184426Y-98376668D01*
X117184422Y-98376677D01*
X117127793Y-98588020D01*
X117127793Y-98588024D01*
X117108723Y-98805997D01*
X117108723Y-98806002D01*
X110651342Y-98806002D01*
X108619343Y-96774002D01*
X111266723Y-96774002D01*
X111285793Y-96991975D01*
X111285793Y-96991979D01*
X111342422Y-97203322D01*
X111342424Y-97203326D01*
X111342425Y-97203330D01*
X111373875Y-97270775D01*
X111434897Y-97401638D01*
X111434898Y-97401639D01*
X111560402Y-97580877D01*
X111715123Y-97735598D01*
X111894361Y-97861102D01*
X112092670Y-97953575D01*
X112304023Y-98010207D01*
X112486926Y-98026208D01*
X112521998Y-98029277D01*
X112522000Y-98029277D01*
X112522002Y-98029277D01*
X112550254Y-98026805D01*
X112739977Y-98010207D01*
X112951330Y-97953575D01*
X113149639Y-97861102D01*
X113328877Y-97735598D01*
X113483598Y-97580877D01*
X113609102Y-97401639D01*
X113701575Y-97203330D01*
X113758207Y-96991977D01*
X113776381Y-96784245D01*
X113777277Y-96774002D01*
X113777277Y-96773997D01*
X113772946Y-96724500D01*
X113758207Y-96556023D01*
X113701575Y-96344670D01*
X113609102Y-96146362D01*
X113609100Y-96146359D01*
X113609099Y-96146357D01*
X113483599Y-95967124D01*
X113434731Y-95918256D01*
X113328877Y-95812402D01*
X113149639Y-95686898D01*
X113149640Y-95686898D01*
X113149638Y-95686897D01*
X113050484Y-95640661D01*
X112951330Y-95594425D01*
X112951326Y-95594424D01*
X112951322Y-95594422D01*
X112739977Y-95537793D01*
X112522002Y-95518723D01*
X112521998Y-95518723D01*
X112376682Y-95531436D01*
X112304023Y-95537793D01*
X112304020Y-95537793D01*
X112092677Y-95594422D01*
X112092668Y-95594426D01*
X111894361Y-95686898D01*
X111894357Y-95686900D01*
X111715121Y-95812402D01*
X111560402Y-95967121D01*
X111434900Y-96146357D01*
X111434898Y-96146361D01*
X111342426Y-96344668D01*
X111342422Y-96344677D01*
X111285793Y-96556020D01*
X111285793Y-96556024D01*
X111266723Y-96773997D01*
X111266723Y-96774002D01*
X108619343Y-96774002D01*
X108385219Y-96539878D01*
X108351734Y-96478555D01*
X108348900Y-96452197D01*
X108348900Y-96187322D01*
X108348899Y-95918252D01*
X108368583Y-95851217D01*
X108380744Y-95835290D01*
X108428533Y-95782216D01*
X108523179Y-95618284D01*
X108581674Y-95438256D01*
X108601460Y-95250000D01*
X108581674Y-95061744D01*
X108523179Y-94881716D01*
X108428533Y-94717784D01*
X108301871Y-94577112D01*
X108301870Y-94577111D01*
X108148734Y-94465851D01*
X108148729Y-94465848D01*
X107975807Y-94388857D01*
X107975802Y-94388855D01*
X107830001Y-94357865D01*
X107790646Y-94349500D01*
X107601354Y-94349500D01*
X107568897Y-94356398D01*
X107416197Y-94388855D01*
X107416192Y-94388857D01*
X107243271Y-94465848D01*
X107117732Y-94557057D01*
X107051925Y-94580536D01*
X106983872Y-94564710D01*
X106935177Y-94514604D01*
X106928449Y-94497444D01*
X106928118Y-94497572D01*
X106925790Y-94491509D01*
X106925788Y-94491506D01*
X106925788Y-94491504D01*
X106837465Y-94318160D01*
X106715032Y-94166968D01*
X106603145Y-94076364D01*
X106563436Y-94018879D01*
X106561108Y-93949048D01*
X106596903Y-93889044D01*
X106603133Y-93883646D01*
X106715032Y-93793032D01*
X106837465Y-93641840D01*
X106925788Y-93468496D01*
X106976141Y-93280578D01*
X106982500Y-93199778D01*
X106982500Y-92220222D01*
X106976141Y-92139422D01*
X106925788Y-91951504D01*
X106837465Y-91778160D01*
X106715032Y-91626968D01*
X106563840Y-91504535D01*
X106525259Y-91484877D01*
X106471282Y-91457374D01*
X106420486Y-91409399D01*
X106403691Y-91341578D01*
X106426228Y-91275443D01*
X106439896Y-91259207D01*
X106864500Y-90834605D01*
X106864504Y-90834601D01*
X106916429Y-90767758D01*
X106916429Y-90767757D01*
X106971450Y-90634924D01*
X106981999Y-90550941D01*
X106982000Y-90550934D01*
X106982000Y-90420000D01*
X104506000Y-90420000D01*
X104438961Y-90400315D01*
X104393206Y-90347511D01*
X104382000Y-90296000D01*
X104382000Y-90044000D01*
X104401685Y-89976961D01*
X104454489Y-89931206D01*
X104506000Y-89920000D01*
X106982000Y-89920000D01*
X106982000Y-89789058D01*
X106981999Y-89789056D01*
X106971450Y-89705074D01*
X106916429Y-89572241D01*
X106864507Y-89505403D01*
X106864496Y-89505390D01*
X106439896Y-89080790D01*
X106406411Y-89019467D01*
X106411395Y-88949775D01*
X106453267Y-88893842D01*
X106471270Y-88882631D01*
X106563840Y-88835465D01*
X106715032Y-88713032D01*
X106837465Y-88561840D01*
X106925788Y-88388496D01*
X106976141Y-88200578D01*
X106977199Y-88187132D01*
X107002081Y-88121844D01*
X107058312Y-88080372D01*
X107128037Y-88075884D01*
X107189120Y-88109804D01*
X107202383Y-88125725D01*
X107242402Y-88182877D01*
X107397123Y-88337598D01*
X107498225Y-88408390D01*
X107541849Y-88462966D01*
X107551100Y-88509964D01*
X107551100Y-92624232D01*
X107549328Y-92640279D01*
X107549566Y-92640302D01*
X107548831Y-92648068D01*
X107551069Y-92719277D01*
X107551100Y-92721224D01*
X107551100Y-92751076D01*
X107552022Y-92758384D01*
X107552480Y-92764203D01*
X107554012Y-92812945D01*
X107554013Y-92812951D01*
X107559965Y-92833438D01*
X107563910Y-92852483D01*
X107566585Y-92873657D01*
X107566588Y-92873668D01*
X107584538Y-92919005D01*
X107586430Y-92924532D01*
X107600033Y-92971355D01*
X107600035Y-92971360D01*
X107610900Y-92989731D01*
X107619457Y-93007199D01*
X107620123Y-93008881D01*
X107627311Y-93027035D01*
X107627314Y-93027041D01*
X107655973Y-93066486D01*
X107659182Y-93071370D01*
X107684009Y-93113350D01*
X107699094Y-93128434D01*
X107711731Y-93143230D01*
X107716577Y-93149899D01*
X107724273Y-93160492D01*
X107724275Y-93160494D01*
X107761852Y-93191581D01*
X107766175Y-93195515D01*
X109205681Y-94635021D01*
X109215779Y-94647625D01*
X109215963Y-94647474D01*
X109220930Y-94653479D01*
X109272873Y-94702256D01*
X109274272Y-94703612D01*
X109295373Y-94724713D01*
X109301194Y-94729229D01*
X109305636Y-94733022D01*
X109341185Y-94766405D01*
X109341189Y-94766408D01*
X109359875Y-94776680D01*
X109376142Y-94787365D01*
X109393000Y-94800441D01*
X109393005Y-94800445D01*
X109437760Y-94819812D01*
X109443007Y-94822383D01*
X109475952Y-94840494D01*
X109485741Y-94845876D01*
X109505436Y-94850932D01*
X109506411Y-94851183D01*
X109524812Y-94857482D01*
X109544399Y-94865959D01*
X109578200Y-94871311D01*
X109592564Y-94873587D01*
X109598279Y-94874770D01*
X109645520Y-94886900D01*
X109666861Y-94886900D01*
X109686258Y-94888426D01*
X109707329Y-94891764D01*
X109755876Y-94887174D01*
X109761713Y-94886900D01*
X121754328Y-94886900D01*
X121821367Y-94906585D01*
X121827213Y-94910582D01*
X121975265Y-95018148D01*
X121975270Y-95018151D01*
X122148192Y-95095142D01*
X122148197Y-95095144D01*
X122333354Y-95134500D01*
X122333355Y-95134500D01*
X122522644Y-95134500D01*
X122522646Y-95134500D01*
X122707803Y-95095144D01*
X122880730Y-95018151D01*
X123033871Y-94906888D01*
X123160533Y-94766216D01*
X123255179Y-94602284D01*
X123313674Y-94422256D01*
X123333460Y-94234000D01*
X123313674Y-94045744D01*
X123255179Y-93865716D01*
X123160533Y-93701784D01*
X123033871Y-93561112D01*
X123028787Y-93557418D01*
X122880734Y-93449851D01*
X122880729Y-93449848D01*
X122707807Y-93372857D01*
X122707802Y-93372855D01*
X122561732Y-93341808D01*
X122522646Y-93333500D01*
X122333354Y-93333500D01*
X122300897Y-93340398D01*
X122148197Y-93372855D01*
X122148192Y-93372857D01*
X121975270Y-93449848D01*
X121975265Y-93449851D01*
X121827213Y-93557418D01*
X121761407Y-93580898D01*
X121754328Y-93581100D01*
X120111467Y-93581100D01*
X120044428Y-93561415D01*
X119998673Y-93508611D01*
X119988729Y-93439453D01*
X120017754Y-93375897D01*
X120065817Y-93341808D01*
X120097000Y-93329461D01*
X120102528Y-93327570D01*
X120111275Y-93325028D01*
X120149359Y-93313965D01*
X120167730Y-93303100D01*
X120185196Y-93294543D01*
X120205037Y-93286688D01*
X120244497Y-93258016D01*
X120249363Y-93254820D01*
X120291348Y-93229992D01*
X120306443Y-93214895D01*
X120321224Y-93202272D01*
X120338493Y-93189726D01*
X120369587Y-93152138D01*
X120373489Y-93147849D01*
X120890520Y-92630819D01*
X120951844Y-92597334D01*
X120978202Y-92594500D01*
X120998644Y-92594500D01*
X120998646Y-92594500D01*
X121183803Y-92555144D01*
X121356730Y-92478151D01*
X121387218Y-92456000D01*
X125490723Y-92456000D01*
X125507526Y-92648069D01*
X125509793Y-92673975D01*
X125509793Y-92673979D01*
X125566422Y-92885322D01*
X125566424Y-92885326D01*
X125566425Y-92885330D01*
X125612661Y-92984484D01*
X125658897Y-93083638D01*
X125658898Y-93083639D01*
X125784402Y-93262877D01*
X125939123Y-93417598D01*
X126118361Y-93543102D01*
X126316670Y-93635575D01*
X126528023Y-93692207D01*
X126710926Y-93708208D01*
X126745998Y-93711277D01*
X126746000Y-93711277D01*
X126746002Y-93711277D01*
X126774254Y-93708805D01*
X126963977Y-93692207D01*
X127175330Y-93635575D01*
X127373639Y-93543102D01*
X127552877Y-93417598D01*
X127707598Y-93262877D01*
X127833102Y-93083639D01*
X127925575Y-92885330D01*
X127982207Y-92673977D01*
X128001277Y-92456000D01*
X127998125Y-92419977D01*
X127991279Y-92341722D01*
X127982207Y-92238023D01*
X127925575Y-92026670D01*
X127879251Y-91927329D01*
X129898236Y-91927329D01*
X129902825Y-91975875D01*
X129903100Y-91981713D01*
X129903100Y-93894232D01*
X129901328Y-93910279D01*
X129901566Y-93910302D01*
X129900831Y-93918068D01*
X129903069Y-93989277D01*
X129903100Y-93991224D01*
X129903100Y-94021076D01*
X129904022Y-94028384D01*
X129904480Y-94034203D01*
X129906012Y-94082945D01*
X129906013Y-94082951D01*
X129911965Y-94103438D01*
X129915910Y-94122483D01*
X129918585Y-94143657D01*
X129918588Y-94143668D01*
X129936538Y-94189005D01*
X129938430Y-94194532D01*
X129952033Y-94241355D01*
X129952035Y-94241360D01*
X129962900Y-94259731D01*
X129971458Y-94277201D01*
X129979311Y-94297035D01*
X129979314Y-94297041D01*
X130007973Y-94336486D01*
X130011182Y-94341370D01*
X130036009Y-94383350D01*
X130051094Y-94398434D01*
X130063734Y-94413233D01*
X130076274Y-94430494D01*
X130113852Y-94461581D01*
X130118175Y-94465515D01*
X133168780Y-97516120D01*
X133202265Y-97577443D01*
X133205099Y-97603801D01*
X133205099Y-103514035D01*
X133185414Y-103581074D01*
X133152224Y-103615609D01*
X133051123Y-103686402D01*
X132896400Y-103841124D01*
X132770900Y-104020357D01*
X132770898Y-104020361D01*
X132678426Y-104218668D01*
X132678422Y-104218677D01*
X132621793Y-104430020D01*
X132621793Y-104430024D01*
X132602723Y-104647997D01*
X132602723Y-104648002D01*
X132621793Y-104865975D01*
X132621793Y-104865979D01*
X132678422Y-105077322D01*
X132678424Y-105077326D01*
X132678425Y-105077330D01*
X132723604Y-105174216D01*
X132770897Y-105275638D01*
X132781206Y-105290361D01*
X132896402Y-105454877D01*
X133051123Y-105609598D01*
X133230361Y-105735102D01*
X133428670Y-105827575D01*
X133640023Y-105884207D01*
X133822926Y-105900208D01*
X133857998Y-105903277D01*
X133858000Y-105903277D01*
X133858002Y-105903277D01*
X133886254Y-105900805D01*
X134075977Y-105884207D01*
X134287330Y-105827575D01*
X134485639Y-105735102D01*
X134664877Y-105609598D01*
X134819598Y-105454877D01*
X134945102Y-105275639D01*
X135037575Y-105077330D01*
X135094207Y-104865977D01*
X135113277Y-104648000D01*
X135094207Y-104430023D01*
X135037575Y-104218670D01*
X134945102Y-104020362D01*
X134945100Y-104020359D01*
X134945099Y-104020357D01*
X134819599Y-103841124D01*
X134761527Y-103783052D01*
X134664877Y-103686402D01*
X134664872Y-103686399D01*
X134664869Y-103686396D01*
X134563776Y-103615609D01*
X134520151Y-103561032D01*
X134510900Y-103514035D01*
X134510900Y-99822002D01*
X135142723Y-99822002D01*
X135161793Y-100039975D01*
X135161793Y-100039979D01*
X135218422Y-100251322D01*
X135218424Y-100251326D01*
X135218425Y-100251330D01*
X135224454Y-100264259D01*
X135310897Y-100449638D01*
X135310898Y-100449639D01*
X135436402Y-100628877D01*
X135591123Y-100783598D01*
X135770361Y-100909102D01*
X135968670Y-101001575D01*
X136180023Y-101058207D01*
X136362926Y-101074208D01*
X136397998Y-101077277D01*
X136398000Y-101077277D01*
X136398002Y-101077277D01*
X136426254Y-101074805D01*
X136615977Y-101058207D01*
X136827330Y-101001575D01*
X137025639Y-100909102D01*
X137204877Y-100783598D01*
X137359598Y-100628877D01*
X137485102Y-100449639D01*
X137577575Y-100251330D01*
X137634207Y-100039977D01*
X137650805Y-99850254D01*
X137653277Y-99822002D01*
X137653277Y-99821997D01*
X137649569Y-99779618D01*
X137634207Y-99604023D01*
X137577575Y-99392670D01*
X137485102Y-99194362D01*
X137485100Y-99194359D01*
X137485099Y-99194357D01*
X137359599Y-99015124D01*
X137320313Y-98975838D01*
X137204877Y-98860402D01*
X137025639Y-98734898D01*
X137025640Y-98734898D01*
X137025638Y-98734897D01*
X136926484Y-98688661D01*
X136827330Y-98642425D01*
X136827326Y-98642424D01*
X136827322Y-98642422D01*
X136615977Y-98585793D01*
X136398002Y-98566723D01*
X136397998Y-98566723D01*
X136252682Y-98579436D01*
X136180023Y-98585793D01*
X136180020Y-98585793D01*
X135968677Y-98642422D01*
X135968668Y-98642426D01*
X135770361Y-98734898D01*
X135770357Y-98734900D01*
X135591121Y-98860402D01*
X135436402Y-99015121D01*
X135310900Y-99194357D01*
X135310898Y-99194361D01*
X135218426Y-99392668D01*
X135218422Y-99392677D01*
X135161793Y-99604020D01*
X135161793Y-99604024D01*
X135142723Y-99821997D01*
X135142723Y-99822002D01*
X134510900Y-99822002D01*
X134510900Y-97367765D01*
X134512671Y-97351716D01*
X134512434Y-97351694D01*
X134513168Y-97343931D01*
X134510931Y-97272722D01*
X134510900Y-97270775D01*
X134510900Y-97240929D01*
X134510899Y-97240921D01*
X134509977Y-97233618D01*
X134509518Y-97227790D01*
X134507987Y-97179052D01*
X134502030Y-97158549D01*
X134498087Y-97139502D01*
X134497247Y-97132854D01*
X134495414Y-97118340D01*
X134477461Y-97072998D01*
X134475572Y-97067478D01*
X134466241Y-97035360D01*
X134461965Y-97020641D01*
X134451097Y-97002265D01*
X134442542Y-96984801D01*
X134434688Y-96964963D01*
X134406022Y-96925508D01*
X134402813Y-96920623D01*
X134377995Y-96878657D01*
X134377994Y-96878656D01*
X134377992Y-96878652D01*
X134362906Y-96863566D01*
X134350271Y-96848774D01*
X134337726Y-96831507D01*
X134337723Y-96831505D01*
X134337723Y-96831504D01*
X134337722Y-96831503D01*
X134300151Y-96800422D01*
X134295839Y-96796499D01*
X133257342Y-95758002D01*
X137936723Y-95758002D01*
X137942198Y-95820578D01*
X137955018Y-95967124D01*
X137955793Y-95975975D01*
X137955793Y-95975979D01*
X138012422Y-96187322D01*
X138012424Y-96187326D01*
X138012425Y-96187330D01*
X138044605Y-96256340D01*
X138104897Y-96385638D01*
X138104898Y-96385639D01*
X138230402Y-96564877D01*
X138385123Y-96719598D01*
X138564361Y-96845102D01*
X138762670Y-96937575D01*
X138974023Y-96994207D01*
X139156926Y-97010208D01*
X139191998Y-97013277D01*
X139192000Y-97013277D01*
X139192002Y-97013277D01*
X139220254Y-97010805D01*
X139409977Y-96994207D01*
X139621330Y-96937575D01*
X139819639Y-96845102D01*
X139998877Y-96719598D01*
X140153598Y-96564877D01*
X140279102Y-96385639D01*
X140371575Y-96187330D01*
X140428207Y-95975977D01*
X140447277Y-95758000D01*
X140428207Y-95540023D01*
X140371575Y-95328670D01*
X140279102Y-95130362D01*
X140279100Y-95130359D01*
X140279099Y-95130357D01*
X140153599Y-94951124D01*
X140076519Y-94874044D01*
X139998877Y-94796402D01*
X139819639Y-94670898D01*
X139819640Y-94670898D01*
X139819638Y-94670897D01*
X139720484Y-94624661D01*
X139621330Y-94578425D01*
X139621326Y-94578424D01*
X139621322Y-94578422D01*
X139409977Y-94521793D01*
X139192002Y-94502723D01*
X139191998Y-94502723D01*
X139056196Y-94514604D01*
X138974023Y-94521793D01*
X138974020Y-94521793D01*
X138762677Y-94578422D01*
X138762668Y-94578426D01*
X138564361Y-94670898D01*
X138564357Y-94670900D01*
X138385121Y-94796402D01*
X138230402Y-94951121D01*
X138104900Y-95130357D01*
X138104898Y-95130361D01*
X138012426Y-95328668D01*
X138012422Y-95328677D01*
X137955793Y-95540020D01*
X137955793Y-95540024D01*
X137936723Y-95757997D01*
X137936723Y-95758002D01*
X133257342Y-95758002D01*
X131245218Y-93745879D01*
X131211734Y-93684556D01*
X131208900Y-93658198D01*
X131208900Y-92971355D01*
X131208900Y-92269797D01*
X131228584Y-92202762D01*
X131229196Y-92202002D01*
X133364723Y-92202002D01*
X133370655Y-92269801D01*
X133379148Y-92366888D01*
X133383793Y-92419975D01*
X133383793Y-92419979D01*
X133440422Y-92631322D01*
X133440424Y-92631326D01*
X133440425Y-92631330D01*
X133481435Y-92719277D01*
X133532897Y-92829638D01*
X133557998Y-92865486D01*
X133658402Y-93008877D01*
X133813123Y-93163598D01*
X133992361Y-93289102D01*
X134190670Y-93381575D01*
X134402023Y-93438207D01*
X134584926Y-93454208D01*
X134619998Y-93457277D01*
X134620000Y-93457277D01*
X134620002Y-93457277D01*
X134648254Y-93454805D01*
X134837977Y-93438207D01*
X135049330Y-93381575D01*
X135247639Y-93289102D01*
X135426877Y-93163598D01*
X135581598Y-93008877D01*
X135707102Y-92829639D01*
X135799575Y-92631330D01*
X135856207Y-92419977D01*
X135873839Y-92218440D01*
X135875277Y-92202002D01*
X135875277Y-92201997D01*
X135871569Y-92159618D01*
X135856207Y-91984023D01*
X135814496Y-91828357D01*
X135799577Y-91772677D01*
X135799576Y-91772676D01*
X135799575Y-91772670D01*
X135707102Y-91574362D01*
X135707100Y-91574359D01*
X135707099Y-91574357D01*
X135581599Y-91395124D01*
X135512190Y-91325715D01*
X135426877Y-91240402D01*
X135247639Y-91114898D01*
X135247640Y-91114898D01*
X135247638Y-91114897D01*
X135148484Y-91068661D01*
X135049330Y-91022425D01*
X135049326Y-91022424D01*
X135049322Y-91022422D01*
X134837977Y-90965793D01*
X134620002Y-90946723D01*
X134619998Y-90946723D01*
X134474682Y-90959436D01*
X134402023Y-90965793D01*
X134402020Y-90965793D01*
X134190677Y-91022422D01*
X134190668Y-91022426D01*
X133992361Y-91114898D01*
X133992357Y-91114900D01*
X133813121Y-91240402D01*
X133658402Y-91395121D01*
X133532900Y-91574357D01*
X133532898Y-91574361D01*
X133440426Y-91772668D01*
X133440422Y-91772677D01*
X133383793Y-91984020D01*
X133383793Y-91984024D01*
X133364723Y-92201997D01*
X133364723Y-92202002D01*
X131229196Y-92202002D01*
X131245209Y-92182130D01*
X132862021Y-90565317D01*
X132874620Y-90555225D01*
X132874468Y-90555041D01*
X132880477Y-90550068D01*
X132880482Y-90550066D01*
X132929310Y-90498068D01*
X132930582Y-90496756D01*
X132951715Y-90475625D01*
X132956238Y-90469792D01*
X132960012Y-90465373D01*
X132993405Y-90429815D01*
X133003686Y-90411111D01*
X133014357Y-90394865D01*
X133027445Y-90377995D01*
X133046824Y-90333210D01*
X133049368Y-90328016D01*
X133072876Y-90285259D01*
X133078182Y-90264593D01*
X133084487Y-90246177D01*
X133086343Y-90241889D01*
X133092959Y-90226601D01*
X133100589Y-90178418D01*
X133101766Y-90172731D01*
X133113900Y-90125480D01*
X133113900Y-90104137D01*
X133115427Y-90084737D01*
X133118764Y-90063671D01*
X133114172Y-90015101D01*
X133113899Y-90009307D01*
X133113899Y-86995000D01*
X137397540Y-86995000D01*
X137417326Y-87183256D01*
X137417327Y-87183259D01*
X137475818Y-87363277D01*
X137475821Y-87363284D01*
X137570467Y-87527216D01*
X137630579Y-87593977D01*
X137697129Y-87667888D01*
X137850265Y-87779148D01*
X137850270Y-87779151D01*
X138023192Y-87856142D01*
X138023197Y-87856144D01*
X138208354Y-87895500D01*
X138208355Y-87895500D01*
X138397644Y-87895500D01*
X138397646Y-87895500D01*
X138582803Y-87856144D01*
X138755730Y-87779151D01*
X138842117Y-87716387D01*
X138907924Y-87692907D01*
X138975978Y-87708732D01*
X139002684Y-87729024D01*
X140416589Y-89142929D01*
X140450074Y-89204252D01*
X140452229Y-89217648D01*
X140465326Y-89342257D01*
X140465327Y-89342260D01*
X140523818Y-89522277D01*
X140523821Y-89522284D01*
X140618467Y-89686216D01*
X140711065Y-89789056D01*
X140745129Y-89826888D01*
X140898265Y-89938148D01*
X140898270Y-89938151D01*
X141071192Y-90015142D01*
X141071197Y-90015144D01*
X141256354Y-90054500D01*
X141256355Y-90054500D01*
X141445644Y-90054500D01*
X141445646Y-90054500D01*
X141630803Y-90015144D01*
X141803730Y-89938151D01*
X141956871Y-89826888D01*
X142083533Y-89686216D01*
X142178179Y-89522284D01*
X142236674Y-89342256D01*
X142256460Y-89154000D01*
X142236674Y-88965744D01*
X142178179Y-88785716D01*
X142083533Y-88621784D01*
X141956871Y-88481112D01*
X141956870Y-88481111D01*
X141803734Y-88369851D01*
X141803729Y-88369848D01*
X141630807Y-88292857D01*
X141630802Y-88292855D01*
X141485001Y-88261865D01*
X141445646Y-88253500D01*
X141445645Y-88253500D01*
X141425202Y-88253500D01*
X141358163Y-88233815D01*
X141337521Y-88217181D01*
X139714319Y-86593979D01*
X139704227Y-86581381D01*
X139704043Y-86581534D01*
X139699067Y-86575519D01*
X139692254Y-86569121D01*
X139647100Y-86526719D01*
X139645725Y-86525385D01*
X139624629Y-86504289D01*
X139624626Y-86504286D01*
X139618804Y-86499770D01*
X139614361Y-86495975D01*
X139578813Y-86462593D01*
X139560115Y-86452314D01*
X139543852Y-86441631D01*
X139526996Y-86428556D01*
X139526994Y-86428554D01*
X139494290Y-86414402D01*
X139482229Y-86409182D01*
X139477007Y-86406625D01*
X139434259Y-86383124D01*
X139434256Y-86383123D01*
X139413587Y-86377816D01*
X139395184Y-86371515D01*
X139375601Y-86363041D01*
X139375595Y-86363039D01*
X139327434Y-86355412D01*
X139321714Y-86354227D01*
X139313593Y-86352142D01*
X139274483Y-86342100D01*
X139274480Y-86342100D01*
X139253139Y-86342100D01*
X139233741Y-86340573D01*
X139225717Y-86339302D01*
X139212672Y-86337236D01*
X139212671Y-86337236D01*
X139164123Y-86341825D01*
X139158287Y-86342100D01*
X138976672Y-86342100D01*
X138909633Y-86322415D01*
X138903787Y-86318418D01*
X138755734Y-86210851D01*
X138755729Y-86210848D01*
X138582807Y-86133857D01*
X138582802Y-86133855D01*
X138425648Y-86100452D01*
X138397646Y-86094500D01*
X138208354Y-86094500D01*
X138193939Y-86097564D01*
X138023197Y-86133855D01*
X138023192Y-86133857D01*
X137850270Y-86210848D01*
X137850265Y-86210851D01*
X137697129Y-86322111D01*
X137570466Y-86462785D01*
X137475821Y-86626715D01*
X137475818Y-86626722D01*
X137426637Y-86778088D01*
X137417326Y-86806744D01*
X137397540Y-86995000D01*
X133113899Y-86995000D01*
X133113899Y-86554801D01*
X133133584Y-86487763D01*
X133150218Y-86467121D01*
X133838121Y-85779219D01*
X133899444Y-85745734D01*
X133925802Y-85742900D01*
X138979232Y-85742900D01*
X138995279Y-85744671D01*
X138995302Y-85744434D01*
X139003068Y-85745168D01*
X139003068Y-85745167D01*
X139003069Y-85745168D01*
X139006536Y-85745059D01*
X139074278Y-85742931D01*
X139076225Y-85742900D01*
X139106071Y-85742900D01*
X139106075Y-85742900D01*
X139113377Y-85741977D01*
X139119194Y-85741518D01*
X139167948Y-85739987D01*
X139188449Y-85734030D01*
X139207476Y-85730089D01*
X139228660Y-85727414D01*
X139274000Y-85709461D01*
X139279528Y-85707570D01*
X139288275Y-85705028D01*
X139326359Y-85693965D01*
X139344730Y-85683100D01*
X139362196Y-85674543D01*
X139382037Y-85666688D01*
X139421497Y-85638016D01*
X139426363Y-85634820D01*
X139468348Y-85609992D01*
X139483443Y-85594895D01*
X139498224Y-85582272D01*
X139515493Y-85569726D01*
X139546587Y-85532138D01*
X139550500Y-85527838D01*
X139686522Y-85391817D01*
X139747845Y-85358334D01*
X139774202Y-85355500D01*
X139794644Y-85355500D01*
X139794646Y-85355500D01*
X139979803Y-85316144D01*
X140152730Y-85239151D01*
X140305871Y-85127888D01*
X140432533Y-84987216D01*
X140527179Y-84823284D01*
X140585674Y-84643256D01*
X140605460Y-84455000D01*
X140585674Y-84266744D01*
X140527179Y-84086716D01*
X140432533Y-83922784D01*
X140305871Y-83782112D01*
X140255973Y-83745859D01*
X140152734Y-83670851D01*
X140152729Y-83670848D01*
X139979807Y-83593857D01*
X139979802Y-83593855D01*
X139834000Y-83562865D01*
X139794646Y-83554500D01*
X139605354Y-83554500D01*
X139572897Y-83561398D01*
X139420197Y-83593855D01*
X139420192Y-83593857D01*
X139247270Y-83670848D01*
X139247265Y-83670851D01*
X139094129Y-83782111D01*
X138967466Y-83922785D01*
X138872821Y-84086715D01*
X138872818Y-84086722D01*
X138814327Y-84266739D01*
X138814326Y-84266741D01*
X138814326Y-84266744D01*
X138808091Y-84326064D01*
X138781507Y-84390676D01*
X138724210Y-84430661D01*
X138684771Y-84437100D01*
X133689768Y-84437100D01*
X133673720Y-84435328D01*
X133673698Y-84435566D01*
X133665931Y-84434831D01*
X133594722Y-84437069D01*
X133592775Y-84437100D01*
X133562922Y-84437100D01*
X133555615Y-84438022D01*
X133549796Y-84438480D01*
X133501051Y-84440012D01*
X133501050Y-84440013D01*
X133480552Y-84445967D01*
X133461514Y-84449909D01*
X133440349Y-84452584D01*
X133440342Y-84452585D01*
X133440340Y-84452586D01*
X133440338Y-84452586D01*
X133440337Y-84452587D01*
X133394999Y-84470536D01*
X133389473Y-84472428D01*
X133342639Y-84486035D01*
X133342637Y-84486036D01*
X133324266Y-84496900D01*
X133306804Y-84505455D01*
X133286966Y-84513310D01*
X133286965Y-84513311D01*
X133286964Y-84513311D01*
X133286963Y-84513312D01*
X133278881Y-84519183D01*
X133247510Y-84541974D01*
X133242630Y-84545180D01*
X133200649Y-84570009D01*
X133185560Y-84585098D01*
X133170772Y-84597729D01*
X133153508Y-84610273D01*
X133153503Y-84610277D01*
X133122422Y-84647847D01*
X133118490Y-84652169D01*
X132059976Y-85710682D01*
X132047378Y-85720776D01*
X132047530Y-85720960D01*
X132041518Y-85725933D01*
X131992741Y-85777874D01*
X131991388Y-85779270D01*
X131970287Y-85800371D01*
X131970284Y-85800375D01*
X131965769Y-85806196D01*
X131961977Y-85810635D01*
X131928596Y-85846182D01*
X131928594Y-85846186D01*
X131918313Y-85864885D01*
X131907638Y-85881136D01*
X131894557Y-85898001D01*
X131894552Y-85898009D01*
X131875185Y-85942761D01*
X131872616Y-85948005D01*
X131849123Y-85990741D01*
X131843814Y-86011416D01*
X131837515Y-86029812D01*
X131829042Y-86049392D01*
X131829040Y-86049400D01*
X131821412Y-86097564D01*
X131820227Y-86103286D01*
X131808100Y-86150513D01*
X131808100Y-86171861D01*
X131806573Y-86191260D01*
X131803236Y-86212327D01*
X131803236Y-86212328D01*
X131807825Y-86260875D01*
X131808100Y-86266713D01*
X131808100Y-89721197D01*
X131788415Y-89788236D01*
X131771781Y-89808878D01*
X130154976Y-91425682D01*
X130142378Y-91435776D01*
X130142530Y-91435960D01*
X130136518Y-91440933D01*
X130087741Y-91492874D01*
X130086388Y-91494270D01*
X130065287Y-91515371D01*
X130065284Y-91515375D01*
X130060769Y-91521196D01*
X130056977Y-91525635D01*
X130023596Y-91561182D01*
X130023594Y-91561186D01*
X130013313Y-91579885D01*
X130002638Y-91596136D01*
X129989557Y-91613001D01*
X129989552Y-91613009D01*
X129970185Y-91657761D01*
X129967616Y-91663005D01*
X129944123Y-91705741D01*
X129938814Y-91726416D01*
X129932515Y-91744812D01*
X129924042Y-91764392D01*
X129924040Y-91764400D01*
X129916412Y-91812563D01*
X129915227Y-91818285D01*
X129903100Y-91865518D01*
X129903099Y-91865526D01*
X129903099Y-91886864D01*
X129901573Y-91906252D01*
X129898236Y-91927325D01*
X129898236Y-91927329D01*
X127879251Y-91927329D01*
X127833102Y-91828362D01*
X127833100Y-91828359D01*
X127833099Y-91828357D01*
X127707599Y-91649124D01*
X127632832Y-91574357D01*
X127552877Y-91494402D01*
X127373639Y-91368898D01*
X127373640Y-91368898D01*
X127373638Y-91368897D01*
X127274484Y-91322661D01*
X127175330Y-91276425D01*
X127175326Y-91276424D01*
X127175322Y-91276422D01*
X126963977Y-91219793D01*
X126746002Y-91200723D01*
X126745998Y-91200723D01*
X126600681Y-91213436D01*
X126528023Y-91219793D01*
X126528020Y-91219793D01*
X126316677Y-91276422D01*
X126316668Y-91276426D01*
X126118361Y-91368898D01*
X126118357Y-91368900D01*
X125939121Y-91494402D01*
X125784402Y-91649121D01*
X125658900Y-91828357D01*
X125658898Y-91828361D01*
X125566426Y-92026668D01*
X125566422Y-92026677D01*
X125509793Y-92238020D01*
X125509793Y-92238024D01*
X125493875Y-92419977D01*
X125490723Y-92456000D01*
X121387218Y-92456000D01*
X121509871Y-92366888D01*
X121636533Y-92226216D01*
X121731179Y-92062284D01*
X121789674Y-91882256D01*
X121809460Y-91694000D01*
X121789674Y-91505744D01*
X121731179Y-91325716D01*
X121636533Y-91161784D01*
X121509871Y-91021112D01*
X121509870Y-91021111D01*
X121356734Y-90909851D01*
X121356729Y-90909848D01*
X121183807Y-90832857D01*
X121183802Y-90832855D01*
X121038001Y-90801865D01*
X120998646Y-90793500D01*
X120809354Y-90793500D01*
X120776897Y-90800398D01*
X120624197Y-90832855D01*
X120624192Y-90832857D01*
X120451270Y-90909848D01*
X120451265Y-90909851D01*
X120298129Y-91021111D01*
X120171466Y-91161785D01*
X120076821Y-91325715D01*
X120076818Y-91325722D01*
X120018327Y-91505739D01*
X120018327Y-91505740D01*
X120018326Y-91505744D01*
X120005229Y-91630351D01*
X119978644Y-91694965D01*
X119969589Y-91705069D01*
X119653877Y-92020782D01*
X119592556Y-92054266D01*
X119566198Y-92057100D01*
X115876775Y-92057100D01*
X115809736Y-92037415D01*
X115763981Y-91984611D01*
X115754037Y-91915453D01*
X115783062Y-91851897D01*
X115824370Y-91820718D01*
X115835663Y-91815452D01*
X115943639Y-91765102D01*
X116122877Y-91639598D01*
X116277598Y-91484877D01*
X116403102Y-91305639D01*
X116495575Y-91107330D01*
X116552207Y-90895977D01*
X116571277Y-90678000D01*
X116552207Y-90460023D01*
X116505379Y-90285259D01*
X116495577Y-90248677D01*
X116495576Y-90248676D01*
X116495575Y-90248670D01*
X116403102Y-90050362D01*
X116403100Y-90050359D01*
X116403099Y-90050357D01*
X116277599Y-89871124D01*
X116215353Y-89808878D01*
X116122877Y-89716402D01*
X116045186Y-89662002D01*
X124220723Y-89662002D01*
X124225902Y-89721197D01*
X124239018Y-89871124D01*
X124239793Y-89879975D01*
X124239793Y-89879979D01*
X124296422Y-90091322D01*
X124296424Y-90091326D01*
X124296425Y-90091330D01*
X124316311Y-90133975D01*
X124388897Y-90289638D01*
X124388898Y-90289639D01*
X124514402Y-90468877D01*
X124669123Y-90623598D01*
X124848361Y-90749102D01*
X125046670Y-90841575D01*
X125258023Y-90898207D01*
X125440926Y-90914208D01*
X125475998Y-90917277D01*
X125476000Y-90917277D01*
X125476002Y-90917277D01*
X125504254Y-90914805D01*
X125693977Y-90898207D01*
X125905330Y-90841575D01*
X126103639Y-90749102D01*
X126282877Y-90623598D01*
X126437598Y-90468877D01*
X126563102Y-90289639D01*
X126655575Y-90091330D01*
X126702555Y-89916000D01*
X128284723Y-89916000D01*
X128303049Y-90125477D01*
X128303793Y-90133975D01*
X128303793Y-90133979D01*
X128360422Y-90345322D01*
X128360424Y-90345326D01*
X128360425Y-90345330D01*
X128375657Y-90377995D01*
X128452897Y-90543638D01*
X128461299Y-90555637D01*
X128578402Y-90722877D01*
X128733123Y-90877598D01*
X128912361Y-91003102D01*
X129110670Y-91095575D01*
X129322023Y-91152207D01*
X129504926Y-91168208D01*
X129539998Y-91171277D01*
X129540000Y-91171277D01*
X129540002Y-91171277D01*
X129568254Y-91168805D01*
X129757977Y-91152207D01*
X129969330Y-91095575D01*
X130167639Y-91003102D01*
X130346877Y-90877598D01*
X130501598Y-90722877D01*
X130627102Y-90543639D01*
X130719575Y-90345330D01*
X130776207Y-90133977D01*
X130795277Y-89916000D01*
X130792125Y-89879977D01*
X130784099Y-89788236D01*
X130776207Y-89698023D01*
X130719575Y-89486670D01*
X130627102Y-89288362D01*
X130627100Y-89288359D01*
X130627099Y-89288357D01*
X130501599Y-89109124D01*
X130426832Y-89034357D01*
X130346877Y-88954402D01*
X130167639Y-88828898D01*
X130167640Y-88828898D01*
X130167638Y-88828897D01*
X130068484Y-88782661D01*
X129969330Y-88736425D01*
X129969326Y-88736424D01*
X129969322Y-88736422D01*
X129757977Y-88679793D01*
X129540002Y-88660723D01*
X129539998Y-88660723D01*
X129394682Y-88673436D01*
X129322023Y-88679793D01*
X129322020Y-88679793D01*
X129110677Y-88736422D01*
X129110668Y-88736426D01*
X128912361Y-88828898D01*
X128912357Y-88828900D01*
X128733121Y-88954402D01*
X128578402Y-89109121D01*
X128452900Y-89288357D01*
X128452898Y-89288361D01*
X128360426Y-89486668D01*
X128360422Y-89486677D01*
X128303793Y-89698020D01*
X128303793Y-89698024D01*
X128287875Y-89879977D01*
X128284723Y-89916000D01*
X126702555Y-89916000D01*
X126712207Y-89879977D01*
X126731277Y-89662000D01*
X126712207Y-89444023D01*
X126655575Y-89232670D01*
X126563102Y-89034362D01*
X126563100Y-89034359D01*
X126563099Y-89034357D01*
X126437599Y-88855124D01*
X126368190Y-88785715D01*
X126282877Y-88700402D01*
X126103639Y-88574898D01*
X126103640Y-88574898D01*
X126103638Y-88574897D01*
X126004484Y-88528661D01*
X125905330Y-88482425D01*
X125905326Y-88482424D01*
X125905322Y-88482422D01*
X125693977Y-88425793D01*
X125476002Y-88406723D01*
X125475998Y-88406723D01*
X125330681Y-88419436D01*
X125258023Y-88425793D01*
X125258020Y-88425793D01*
X125046677Y-88482422D01*
X125046668Y-88482426D01*
X124848361Y-88574898D01*
X124848357Y-88574900D01*
X124669121Y-88700402D01*
X124514402Y-88855121D01*
X124388900Y-89034357D01*
X124388898Y-89034361D01*
X124296426Y-89232668D01*
X124296422Y-89232677D01*
X124239793Y-89444020D01*
X124239793Y-89444024D01*
X124220723Y-89661997D01*
X124220723Y-89662002D01*
X116045186Y-89662002D01*
X115943639Y-89590898D01*
X115943640Y-89590898D01*
X115943638Y-89590897D01*
X115844484Y-89544661D01*
X115745330Y-89498425D01*
X115745326Y-89498424D01*
X115745322Y-89498422D01*
X115533977Y-89441793D01*
X115316002Y-89422723D01*
X115315998Y-89422723D01*
X115170682Y-89435436D01*
X115098023Y-89441793D01*
X115098020Y-89441793D01*
X114886677Y-89498422D01*
X114886668Y-89498426D01*
X114688361Y-89590898D01*
X114688357Y-89590900D01*
X114509121Y-89716402D01*
X114354402Y-89871121D01*
X114228900Y-90050357D01*
X114228898Y-90050361D01*
X114136426Y-90248668D01*
X114136422Y-90248677D01*
X114079793Y-90460020D01*
X114079793Y-90460024D01*
X114060723Y-90677997D01*
X114060723Y-90678002D01*
X114068576Y-90767758D01*
X114074423Y-90834601D01*
X114079793Y-90895975D01*
X114079793Y-90895979D01*
X114136422Y-91107322D01*
X114136424Y-91107326D01*
X114136425Y-91107330D01*
X114161818Y-91161785D01*
X114228897Y-91305638D01*
X114228898Y-91305639D01*
X114354402Y-91484877D01*
X114509123Y-91639598D01*
X114688361Y-91765102D01*
X114790141Y-91812563D01*
X114807630Y-91820718D01*
X114860069Y-91866890D01*
X114879221Y-91934084D01*
X114859005Y-92000965D01*
X114805840Y-92046300D01*
X114755225Y-92057100D01*
X111925672Y-92057100D01*
X111858633Y-92037415D01*
X111852787Y-92033418D01*
X111704734Y-91925851D01*
X111704729Y-91925848D01*
X111531807Y-91848857D01*
X111531802Y-91848855D01*
X111361056Y-91812563D01*
X111346646Y-91809500D01*
X111157354Y-91809500D01*
X111142944Y-91812563D01*
X110972197Y-91848855D01*
X110972192Y-91848857D01*
X110799270Y-91925848D01*
X110799265Y-91925851D01*
X110646129Y-92037111D01*
X110519466Y-92177785D01*
X110424821Y-92341715D01*
X110424818Y-92341722D01*
X110380491Y-92478148D01*
X110366326Y-92521744D01*
X110346540Y-92710000D01*
X110366326Y-92898256D01*
X110366327Y-92898259D01*
X110424818Y-93078277D01*
X110424821Y-93078284D01*
X110519467Y-93242216D01*
X110584070Y-93313965D01*
X110638241Y-93374128D01*
X110668471Y-93437119D01*
X110659846Y-93506455D01*
X110615104Y-93560120D01*
X110548452Y-93581078D01*
X110546091Y-93581100D01*
X110049802Y-93581100D01*
X109982763Y-93561415D01*
X109962121Y-93544781D01*
X108893219Y-92475878D01*
X108859734Y-92414555D01*
X108856900Y-92388197D01*
X108856900Y-88509964D01*
X108876585Y-88442925D01*
X108909773Y-88408391D01*
X109010877Y-88337598D01*
X109165598Y-88182877D01*
X109291102Y-88003639D01*
X109383575Y-87805330D01*
X109440207Y-87593977D01*
X109459277Y-87376000D01*
X109440207Y-87158023D01*
X109383575Y-86946670D01*
X109291102Y-86748362D01*
X109291100Y-86748359D01*
X109291099Y-86748357D01*
X109197021Y-86614000D01*
X124220723Y-86614000D01*
X124237585Y-86806744D01*
X124239793Y-86831975D01*
X124239793Y-86831979D01*
X124296422Y-87043322D01*
X124296424Y-87043326D01*
X124296425Y-87043330D01*
X124303929Y-87059422D01*
X124388897Y-87241638D01*
X124388898Y-87241639D01*
X124514402Y-87420877D01*
X124669123Y-87575598D01*
X124848361Y-87701102D01*
X125046670Y-87793575D01*
X125258023Y-87850207D01*
X125440926Y-87866208D01*
X125475998Y-87869277D01*
X125476000Y-87869277D01*
X125476002Y-87869277D01*
X125504254Y-87866805D01*
X125693977Y-87850207D01*
X125905330Y-87793575D01*
X126103639Y-87701102D01*
X126282877Y-87575598D01*
X126437598Y-87420877D01*
X126563102Y-87241639D01*
X126655575Y-87043330D01*
X126712207Y-86831977D01*
X126731277Y-86614000D01*
X126729525Y-86593979D01*
X126726098Y-86554802D01*
X126712207Y-86396023D01*
X126655575Y-86184670D01*
X126563102Y-85986362D01*
X126563100Y-85986359D01*
X126563099Y-85986357D01*
X126437599Y-85807124D01*
X126360561Y-85730086D01*
X126282877Y-85652402D01*
X126103639Y-85526898D01*
X126103640Y-85526898D01*
X126103638Y-85526897D01*
X126004484Y-85480661D01*
X125905330Y-85434425D01*
X125905326Y-85434424D01*
X125905322Y-85434422D01*
X125693977Y-85377793D01*
X125476002Y-85358723D01*
X125475998Y-85358723D01*
X125330681Y-85371436D01*
X125258023Y-85377793D01*
X125258020Y-85377793D01*
X125046677Y-85434422D01*
X125046668Y-85434426D01*
X124848361Y-85526898D01*
X124848357Y-85526900D01*
X124669121Y-85652402D01*
X124514402Y-85807121D01*
X124388900Y-85986357D01*
X124388898Y-85986361D01*
X124296426Y-86184668D01*
X124296422Y-86184677D01*
X124239793Y-86396020D01*
X124239793Y-86396024D01*
X124222475Y-86593979D01*
X124220723Y-86614000D01*
X109197021Y-86614000D01*
X109165599Y-86569124D01*
X109092450Y-86495975D01*
X109010877Y-86414402D01*
X108831639Y-86288898D01*
X108831640Y-86288898D01*
X108831638Y-86288897D01*
X108732484Y-86242661D01*
X108633330Y-86196425D01*
X108633326Y-86196424D01*
X108633322Y-86196422D01*
X108421977Y-86139793D01*
X108204002Y-86120723D01*
X108203998Y-86120723D01*
X108058682Y-86133436D01*
X107986023Y-86139793D01*
X107986020Y-86139793D01*
X107774677Y-86196422D01*
X107774668Y-86196426D01*
X107576361Y-86288898D01*
X107576357Y-86288900D01*
X107397121Y-86414402D01*
X107242402Y-86569121D01*
X107116900Y-86748357D01*
X107116899Y-86748359D01*
X107103036Y-86778088D01*
X107056862Y-86830526D01*
X106989668Y-86849676D01*
X106922787Y-86829458D01*
X106880170Y-86781974D01*
X106837467Y-86698162D01*
X106803725Y-86656494D01*
X106715032Y-86546968D01*
X106603145Y-86456364D01*
X106563436Y-86398879D01*
X106561108Y-86329048D01*
X106596903Y-86269044D01*
X106603133Y-86263646D01*
X106715032Y-86173032D01*
X106837465Y-86021840D01*
X106925788Y-85848496D01*
X106976141Y-85660578D01*
X106982500Y-85579778D01*
X106982500Y-84600222D01*
X106976141Y-84519422D01*
X106925788Y-84331504D01*
X106837465Y-84158160D01*
X106715032Y-84006968D01*
X106563840Y-83884535D01*
X106390496Y-83796212D01*
X106202578Y-83745859D01*
X106202577Y-83745858D01*
X106202574Y-83745858D01*
X106121783Y-83739500D01*
X106121778Y-83739500D01*
X103756500Y-83739500D01*
X103689461Y-83719815D01*
X103643706Y-83667011D01*
X103632500Y-83615500D01*
X103632500Y-82805622D01*
X103632585Y-82802377D01*
X103639500Y-82670421D01*
X103649803Y-82486968D01*
X103650464Y-82480791D01*
X103674619Y-82328281D01*
X103702224Y-82165812D01*
X103703451Y-82160196D01*
X103744430Y-82007260D01*
X103789083Y-81852268D01*
X103790766Y-81847247D01*
X103847874Y-81698474D01*
X103848374Y-81697221D01*
X103909370Y-81549962D01*
X103911378Y-81545606D01*
X103984051Y-81402980D01*
X103985003Y-81401187D01*
X104061655Y-81262494D01*
X104063867Y-81258808D01*
X104151311Y-81124156D01*
X104152694Y-81122119D01*
X104244164Y-80993204D01*
X104246486Y-80990143D01*
X104347655Y-80865209D01*
X104349537Y-80862998D01*
X104454773Y-80745239D01*
X104457092Y-80742787D01*
X104570787Y-80629092D01*
X104573239Y-80626773D01*
X104690998Y-80521537D01*
X104693209Y-80519655D01*
X104818143Y-80418486D01*
X104821204Y-80416164D01*
X104950119Y-80324694D01*
X104952156Y-80323311D01*
X105086808Y-80235867D01*
X105090494Y-80233655D01*
X105229187Y-80157003D01*
X105230980Y-80156051D01*
X105373606Y-80083378D01*
X105377962Y-80081370D01*
X105525221Y-80020374D01*
X105526474Y-80019874D01*
X105675247Y-79962766D01*
X105680268Y-79961083D01*
X105835260Y-79916430D01*
X105988196Y-79875451D01*
X105993812Y-79874224D01*
X106156281Y-79846619D01*
X106308791Y-79822464D01*
X106314968Y-79821803D01*
X106498421Y-79811500D01*
X106630379Y-79804584D01*
X106633622Y-79804500D01*
X140630378Y-79804500D01*
X140633620Y-79804584D01*
G37*
G04 #@! TD.AperFunction*
G04 #@! TD*
M02*
