M48
; DRILL file {KiCad 7.0.5-0} date 2023 December 30, Saturday 21:45:24
; FORMAT={-:-/ absolute / metric / decimal}
; #@! TF.CreationDate,2023-12-30T21:45:24-05:00
; #@! TF.GenerationSoftware,Kicad,Pcbnew,7.0.5-0
; #@! TF.FileFunction,MixedPlating,1,2
FMAT,2
METRIC
; #@! TA.AperFunction,Plated,PTH,ViaDrill
T1C0.400
; #@! TA.AperFunction,Plated,PTH,ComponentDrill
T2C1.000
%
G90
G05
T1
X107.188Y-90.17
X107.696Y-95.25
X108.204Y-87.376
X111.252Y-92.71
X112.522Y-96.774
X112.776Y-107.696
X113.03Y-99.06
X114.808Y-107.696
X115.316Y-90.678
X116.078Y-102.362
X116.84Y-84.582
X117.309Y-95.974
X118.364Y-98.806
X118.618Y-105.918
X120.904Y-91.694
X121.158Y-81.534
X121.158Y-89.662
X122.428Y-94.234
X123.19Y-91.694
X125.476Y-86.614
X125.476Y-89.662
X125.476Y-100.076
X125.476Y-107.696
X126.746Y-92.456
X128.524Y-81.28
X128.778Y-97.79
X129.54Y-89.916
X129.54Y-100.076
X131.826Y-101.346
X132.588Y-92.202
X133.858Y-104.648
X134.62Y-83.312
X134.62Y-92.202
X134.633Y-89.916
X136.144Y-107.442
X136.398Y-99.822
X136.906Y-94.996
X138.303Y-86.995
X139.192Y-95.758
X139.7Y-84.455
X139.7Y-102.616
X139.7Y-109.728
X140.462Y-111.506
X141.351Y-89.154
X141.732Y-95.758
T2
X103.632Y-85.09
X103.632Y-87.63
X103.632Y-90.17
X103.632Y-92.71
X103.632Y-95.25
X107.696Y-114.808
X110.236Y-114.808
X112.776Y-114.808
X115.316Y-114.808
X117.856Y-114.808
X120.396Y-114.808
X122.936Y-114.808
X125.476Y-114.808
X128.016Y-114.808
X130.556Y-114.808
X133.096Y-114.808
X135.636Y-114.808
X138.176Y-114.808
X143.637Y-98.044
X143.637Y-100.584
X143.637Y-103.124
X143.637Y-105.664
X143.637Y-108.204
T0
M30
