M48
; DRILL file {KiCad 8.0.1-rc1} date 2024-03-16T10:33:14-0400
; FORMAT={-:-/ absolute / metric / decimal}
; #@! TF.CreationDate,2024-03-16T10:33:14-04:00
; #@! TF.GenerationSoftware,Kicad,Pcbnew,8.0.1-rc1
; #@! TF.FileFunction,MixedPlating,1,2
FMAT,2
METRIC
; #@! TA.AperFunction,Plated,PTH,ViaDrill
T1C0.400
; #@! TA.AperFunction,Plated,PTH,ComponentDrill
T2C1.000
%
G90
G05
T1
X108.204Y-89.408
X110.49Y-84.328
X110.49Y-95.25
X110.744Y-100.584
X111.252Y-91.948
X114.046Y-96.774
X115.824Y-106.68
X116.332Y-85.344
X116.84Y-101.854
X118.364Y-97.028
X118.618Y-88.138
X119.38Y-93.98
X119.888Y-88.646
X120.65Y-99.06
X120.904Y-83.82
X120.904Y-91.694
X120.904Y-103.378
X121.793Y-97.028
X121.92Y-89.154
X121.92Y-94.488
X123.444Y-91.948
X123.952Y-102.616
X125.222Y-100.33
X125.222Y-105.664
X125.349Y-91.567
X125.984Y-80.772
X126.746Y-106.68
X127.254Y-96.012
X128.777Y-90.423
X128.778Y-94.234
X129.032Y-103.124
X129.286Y-86.106
X129.286Y-96.774
X129.286Y-99.822
X130.81Y-98.806
X131.064Y-103.632
X131.572Y-100.33
X131.572Y-105.664
X132.334Y-83.312
X132.588Y-92.71
X133.858Y-107.188
X134.874Y-94.234
X134.874Y-96.012
X135.636Y-81.788
T2
X111.887Y-112.776
X114.427Y-112.776
X116.967Y-112.776
X119.507Y-112.776
X122.047Y-112.776
X124.587Y-112.776
X127.127Y-112.776
X129.667Y-112.776
X132.207Y-112.776
X134.747Y-112.776
M30
