G04 #@! TF.GenerationSoftware,KiCad,Pcbnew,8.0.1-rc1*
G04 #@! TF.CreationDate,2024-03-16T10:33:16-04:00*
G04 #@! TF.ProjectId,boostlet,626f6f73-746c-4657-942e-6b696361645f,rev?*
G04 #@! TF.SameCoordinates,Original*
G04 #@! TF.FileFunction,Copper,L1,Top*
G04 #@! TF.FilePolarity,Positive*
%FSLAX46Y46*%
G04 Gerber Fmt 4.6, Leading zero omitted, Abs format (unit mm)*
G04 Created by KiCad (PCBNEW 8.0.1-rc1) date 2024-03-16 10:33:16*
%MOMM*%
%LPD*%
G01*
G04 APERTURE LIST*
G04 Aperture macros list*
%AMRoundRect*
0 Rectangle with rounded corners*
0 $1 Rounding radius*
0 $2 $3 $4 $5 $6 $7 $8 $9 X,Y pos of 4 corners*
0 Add a 4 corners polygon primitive as box body*
4,1,4,$2,$3,$4,$5,$6,$7,$8,$9,$2,$3,0*
0 Add four circle primitives for the rounded corners*
1,1,$1+$1,$2,$3*
1,1,$1+$1,$4,$5*
1,1,$1+$1,$6,$7*
1,1,$1+$1,$8,$9*
0 Add four rect primitives between the rounded corners*
20,1,$1+$1,$2,$3,$4,$5,0*
20,1,$1+$1,$4,$5,$6,$7,0*
20,1,$1+$1,$6,$7,$8,$9,0*
20,1,$1+$1,$8,$9,$2,$3,0*%
%AMFreePoly0*
4,1,19,0.500000,-0.750000,0.000000,-0.750000,0.000000,-0.744911,-0.071157,-0.744911,-0.207708,-0.704816,-0.327430,-0.627875,-0.420627,-0.520320,-0.479746,-0.390866,-0.500000,-0.250000,-0.500000,0.250000,-0.479746,0.390866,-0.420627,0.520320,-0.327430,0.627875,-0.207708,0.704816,-0.071157,0.744911,0.000000,0.744911,0.000000,0.750000,0.500000,0.750000,0.500000,-0.750000,0.500000,-0.750000,
$1*%
%AMFreePoly1*
4,1,19,0.000000,0.744911,0.071157,0.744911,0.207708,0.704816,0.327430,0.627875,0.420627,0.520320,0.479746,0.390866,0.500000,0.250000,0.500000,-0.250000,0.479746,-0.390866,0.420627,-0.520320,0.327430,-0.627875,0.207708,-0.704816,0.071157,-0.744911,0.000000,-0.744911,0.000000,-0.750000,-0.500000,-0.750000,-0.500000,0.750000,0.000000,0.750000,0.000000,0.744911,0.000000,0.744911,
$1*%
G04 Aperture macros list end*
G04 #@! TA.AperFunction,EtchedComponent*
%ADD10C,0.000000*%
G04 #@! TD*
G04 #@! TA.AperFunction,SMDPad,CuDef*
%ADD11RoundRect,0.250000X-1.750000X-1.000000X1.750000X-1.000000X1.750000X1.000000X-1.750000X1.000000X0*%
G04 #@! TD*
G04 #@! TA.AperFunction,SMDPad,CuDef*
%ADD12RoundRect,0.250000X0.625000X-0.400000X0.625000X0.400000X-0.625000X0.400000X-0.625000X-0.400000X0*%
G04 #@! TD*
G04 #@! TA.AperFunction,SMDPad,CuDef*
%ADD13R,0.381000X1.447800*%
G04 #@! TD*
G04 #@! TA.AperFunction,SMDPad,CuDef*
%ADD14RoundRect,0.250000X-0.400000X-0.625000X0.400000X-0.625000X0.400000X0.625000X-0.400000X0.625000X0*%
G04 #@! TD*
G04 #@! TA.AperFunction,SMDPad,CuDef*
%ADD15FreePoly0,270.000000*%
G04 #@! TD*
G04 #@! TA.AperFunction,SMDPad,CuDef*
%ADD16FreePoly1,270.000000*%
G04 #@! TD*
G04 #@! TA.AperFunction,SMDPad,CuDef*
%ADD17C,1.000000*%
G04 #@! TD*
G04 #@! TA.AperFunction,SMDPad,CuDef*
%ADD18RoundRect,0.250000X-0.625000X0.400000X-0.625000X-0.400000X0.625000X-0.400000X0.625000X0.400000X0*%
G04 #@! TD*
G04 #@! TA.AperFunction,SMDPad,CuDef*
%ADD19RoundRect,0.150000X0.150000X-0.587500X0.150000X0.587500X-0.150000X0.587500X-0.150000X-0.587500X0*%
G04 #@! TD*
G04 #@! TA.AperFunction,SMDPad,CuDef*
%ADD20RoundRect,0.250000X0.400000X1.450000X-0.400000X1.450000X-0.400000X-1.450000X0.400000X-1.450000X0*%
G04 #@! TD*
G04 #@! TA.AperFunction,SMDPad,CuDef*
%ADD21RoundRect,0.250000X0.412500X0.650000X-0.412500X0.650000X-0.412500X-0.650000X0.412500X-0.650000X0*%
G04 #@! TD*
G04 #@! TA.AperFunction,SMDPad,CuDef*
%ADD22FreePoly0,0.000000*%
G04 #@! TD*
G04 #@! TA.AperFunction,SMDPad,CuDef*
%ADD23FreePoly1,0.000000*%
G04 #@! TD*
G04 #@! TA.AperFunction,SMDPad,CuDef*
%ADD24RoundRect,0.250000X-0.412500X-0.650000X0.412500X-0.650000X0.412500X0.650000X-0.412500X0.650000X0*%
G04 #@! TD*
G04 #@! TA.AperFunction,SMDPad,CuDef*
%ADD25FreePoly0,90.000000*%
G04 #@! TD*
G04 #@! TA.AperFunction,SMDPad,CuDef*
%ADD26FreePoly1,90.000000*%
G04 #@! TD*
G04 #@! TA.AperFunction,SMDPad,CuDef*
%ADD27RoundRect,0.150000X0.587500X0.150000X-0.587500X0.150000X-0.587500X-0.150000X0.587500X-0.150000X0*%
G04 #@! TD*
G04 #@! TA.AperFunction,SMDPad,CuDef*
%ADD28RoundRect,0.375000X0.625000X0.375000X-0.625000X0.375000X-0.625000X-0.375000X0.625000X-0.375000X0*%
G04 #@! TD*
G04 #@! TA.AperFunction,SMDPad,CuDef*
%ADD29RoundRect,0.500000X0.500000X1.400000X-0.500000X1.400000X-0.500000X-1.400000X0.500000X-1.400000X0*%
G04 #@! TD*
G04 #@! TA.AperFunction,SMDPad,CuDef*
%ADD30RoundRect,0.325000X-0.550000X0.325000X-0.550000X-0.325000X0.550000X-0.325000X0.550000X0.325000X0*%
G04 #@! TD*
G04 #@! TA.AperFunction,SMDPad,CuDef*
%ADD31R,2.450000X5.900000*%
G04 #@! TD*
G04 #@! TA.AperFunction,ComponentPad*
%ADD32O,1.700000X3.700000*%
G04 #@! TD*
G04 #@! TA.AperFunction,SMDPad,CuDef*
%ADD33RoundRect,0.250000X1.450000X-0.400000X1.450000X0.400000X-1.450000X0.400000X-1.450000X-0.400000X0*%
G04 #@! TD*
G04 #@! TA.AperFunction,ViaPad*
%ADD34C,0.800000*%
G04 #@! TD*
G04 #@! TA.AperFunction,Conductor*
%ADD35C,0.304800*%
G04 #@! TD*
G04 APERTURE END LIST*
D10*
G04 #@! TA.AperFunction,EtchedComponent*
G04 #@! TO.C,JP2*
G36*
X134539000Y-82546000D02*
G01*
X133939000Y-82546000D01*
X133939000Y-82046000D01*
X134539000Y-82046000D01*
X134539000Y-82546000D01*
G37*
G04 #@! TD.AperFunction*
G04 #@! TA.AperFunction,EtchedComponent*
G04 #@! TO.C,JP4*
G36*
X135174000Y-97913000D02*
G01*
X134574000Y-97913000D01*
X134574000Y-97413000D01*
X135174000Y-97413000D01*
X135174000Y-97913000D01*
G37*
G04 #@! TD.AperFunction*
G04 #@! TD*
D11*
G04 #@! TO.P,C1,1*
G04 #@! TO.N,/5V*
X108903000Y-104140000D03*
G04 #@! TO.P,C1,2*
G04 #@! TO.N,GND*
X116903000Y-104140000D03*
G04 #@! TD*
D12*
G04 #@! TO.P,R8,1*
G04 #@! TO.N,Net-(U1-FB)*
X125857000Y-84608000D03*
G04 #@! TO.P,R8,2*
G04 #@! TO.N,GND*
X125857000Y-81508000D03*
G04 #@! TD*
D13*
G04 #@! TO.P,U1,1,LX*
G04 #@! TO.N,Net-(U1-LX)*
X117388640Y-90208100D03*
G04 #@! TO.P,U1,2,EN*
G04 #@! TO.N,Net-(U1-EN)*
X118038880Y-90208100D03*
G04 #@! TO.P,U1,3,VIN*
G04 #@! TO.N,Net-(JP1-B)*
X118689120Y-90208100D03*
G04 #@! TO.P,U1,4,AGND*
G04 #@! TO.N,GND*
X119339360Y-90208100D03*
G04 #@! TO.P,U1,5,FB*
G04 #@! TO.N,Net-(U1-FB)*
X119339360Y-85559900D03*
G04 #@! TO.P,U1,6,RSET*
G04 #@! TO.N,Net-(U1-RSET)*
X118689120Y-85559900D03*
G04 #@! TO.P,U1,7,OUT*
G04 #@! TO.N,/V_BOOST*
X118038880Y-85559900D03*
G04 #@! TO.P,U1,8,PGND*
G04 #@! TO.N,GND*
X117388640Y-85559900D03*
G04 #@! TD*
D14*
G04 #@! TO.P,R3,1*
G04 #@! TO.N,Net-(JP1-B)*
X109321000Y-96774000D03*
G04 #@! TO.P,R3,2*
G04 #@! TO.N,Net-(U1-EN)*
X112421000Y-96774000D03*
G04 #@! TD*
D15*
G04 #@! TO.P,JP3,1,A*
G04 #@! TO.N,Net-(D2-K)*
X134874000Y-91044000D03*
D16*
G04 #@! TO.P,JP3,2,B*
G04 #@! TO.N,/5V*
X134874000Y-92344000D03*
G04 #@! TD*
D15*
G04 #@! TO.P,JP2,1,A*
G04 #@! TO.N,/5V*
X134239000Y-81646000D03*
D16*
G04 #@! TO.P,JP2,2,B*
G04 #@! TO.N,Net-(JP2-B)*
X134239000Y-82946000D03*
G04 #@! TD*
D17*
G04 #@! TO.P,FID1,*
G04 #@! TO.N,*
X107950000Y-111633000D03*
G04 #@! TD*
D14*
G04 #@! TO.P,R9,1*
G04 #@! TO.N,/V_BATT*
X117195000Y-97028000D03*
G04 #@! TO.P,R9,2*
G04 #@! TO.N,/BATT_SIG*
X120295000Y-97028000D03*
G04 #@! TD*
D18*
G04 #@! TO.P,R7,1*
G04 #@! TO.N,/V_BOOST*
X123190000Y-81508000D03*
G04 #@! TO.P,R7,2*
G04 #@! TO.N,Net-(U1-FB)*
X123190000Y-84608000D03*
G04 #@! TD*
D14*
G04 #@! TO.P,R1,1*
G04 #@! TO.N,VCC*
X120751000Y-108331000D03*
G04 #@! TO.P,R1,2*
G04 #@! TO.N,/NEO_IN1*
X123851000Y-108331000D03*
G04 #@! TD*
G04 #@! TO.P,R11,1*
G04 #@! TO.N,/V_BUS*
X130657000Y-85979000D03*
G04 #@! TO.P,R11,2*
G04 #@! TO.N,GND*
X133757000Y-85979000D03*
G04 #@! TD*
D17*
G04 #@! TO.P,FID3,*
G04 #@! TO.N,*
X135382000Y-108204000D03*
G04 #@! TD*
D19*
G04 #@! TO.P,Q1,1,G*
G04 #@! TO.N,VCC*
X121732000Y-105458500D03*
G04 #@! TO.P,Q1,2,S*
G04 #@! TO.N,/NEO_IN1*
X123632000Y-105458500D03*
G04 #@! TO.P,Q1,3,D*
G04 #@! TO.N,/NEO_OUT1*
X122682000Y-103583500D03*
G04 #@! TD*
D20*
G04 #@! TO.P,F1,1*
G04 #@! TO.N,Net-(JP1-B)*
X112969000Y-92964000D03*
G04 #@! TO.P,F1,2*
G04 #@! TO.N,/V_BATT*
X108519000Y-92964000D03*
G04 #@! TD*
D14*
G04 #@! TO.P,R2,1*
G04 #@! TO.N,/5V*
X120624000Y-100457000D03*
G04 #@! TO.P,R2,2*
G04 #@! TO.N,/NEO_OUT1*
X123724000Y-100457000D03*
G04 #@! TD*
D21*
G04 #@! TO.P,C3,1*
G04 #@! TO.N,Net-(JP2-B)*
X132118500Y-98171000D03*
G04 #@! TO.P,C3,2*
G04 #@! TO.N,GND*
X128993500Y-98171000D03*
G04 #@! TD*
D22*
G04 #@! TO.P,JP1,1,A*
G04 #@! TO.N,/V_BATT*
X110094000Y-89281000D03*
D23*
G04 #@! TO.P,JP1,2,B*
G04 #@! TO.N,Net-(JP1-B)*
X111394000Y-89281000D03*
G04 #@! TD*
D24*
G04 #@! TO.P,C4,1*
G04 #@! TO.N,/3.3V*
X128993500Y-108458000D03*
G04 #@! TO.P,C4,2*
G04 #@! TO.N,GND*
X132118500Y-108458000D03*
G04 #@! TD*
D25*
G04 #@! TO.P,JP4,1,A*
G04 #@! TO.N,/3.3V*
X134874000Y-98313000D03*
D26*
G04 #@! TO.P,JP4,2,B*
G04 #@! TO.N,VCC*
X134874000Y-97013000D03*
G04 #@! TD*
D24*
G04 #@! TO.P,C5,1*
G04 #@! TO.N,/V_BOOST*
X116801500Y-82042000D03*
G04 #@! TO.P,C5,2*
G04 #@! TO.N,GND*
X119926500Y-82042000D03*
G04 #@! TD*
D17*
G04 #@! TO.P,FID2,*
G04 #@! TO.N,*
X113919000Y-88900000D03*
G04 #@! TD*
D14*
G04 #@! TO.P,R10,1*
G04 #@! TO.N,/BATT_SIG*
X123418000Y-97409000D03*
G04 #@! TO.P,R10,2*
G04 #@! TO.N,GND*
X126518000Y-97409000D03*
G04 #@! TD*
D27*
G04 #@! TO.P,Q3,1,G*
G04 #@! TO.N,/V_BUS*
X127048500Y-94549000D03*
G04 #@! TO.P,Q3,2,S*
G04 #@! TO.N,Net-(D2-K)*
X127048500Y-92649000D03*
G04 #@! TO.P,Q3,3,D*
G04 #@! TO.N,/V_BOOST*
X125173500Y-93599000D03*
G04 #@! TD*
D24*
G04 #@! TO.P,C7,1*
G04 #@! TO.N,/V_BOOST*
X128485500Y-81788000D03*
G04 #@! TO.P,C7,2*
G04 #@! TO.N,GND*
X131610500Y-81788000D03*
G04 #@! TD*
D28*
G04 #@! TO.P,U4,1,GND*
G04 #@! TO.N,GND*
X133198000Y-105678000D03*
G04 #@! TO.P,U4,2,VO*
G04 #@! TO.N,/3.3V*
X133198000Y-103378000D03*
D29*
X126898000Y-103378000D03*
D28*
G04 #@! TO.P,U4,3,VI*
G04 #@! TO.N,Net-(JP2-B)*
X133198000Y-101078000D03*
G04 #@! TD*
D30*
G04 #@! TO.P,D2,1,K*
G04 #@! TO.N,Net-(D2-K)*
X127254000Y-87123000D03*
G04 #@! TO.P,D2,2,A*
G04 #@! TO.N,/V_BUS*
X127254000Y-90423000D03*
G04 #@! TD*
D24*
G04 #@! TO.P,C2,1*
G04 #@! TO.N,Net-(JP1-B)*
X117182500Y-93980000D03*
G04 #@! TO.P,C2,2*
G04 #@! TO.N,GND*
X120307500Y-93980000D03*
G04 #@! TD*
D31*
G04 #@! TO.P,L1,1,1*
G04 #@! TO.N,Net-(JP1-B)*
X107969000Y-84201000D03*
G04 #@! TO.P,L1,2,2*
G04 #@! TO.N,Net-(U1-LX)*
X113519000Y-84201000D03*
G04 #@! TD*
D18*
G04 #@! TO.P,R6,1*
G04 #@! TO.N,Net-(U1-RSET)*
X123190000Y-87350000D03*
G04 #@! TO.P,R6,2*
G04 #@! TO.N,GND*
X123190000Y-90450000D03*
G04 #@! TD*
D17*
G04 #@! TO.P,FID4,*
G04 #@! TO.N,*
X107188000Y-98425000D03*
G04 #@! TD*
D32*
G04 #@! TO.P,J4,1,Pin_1*
G04 #@! TO.N,GND*
X111887000Y-112776000D03*
G04 #@! TO.P,J4,2,Pin_2*
G04 #@! TO.N,/V_BUS*
X114427000Y-112776000D03*
G04 #@! TO.P,J4,3,Pin_3*
G04 #@! TO.N,VCC*
X116967000Y-112776000D03*
G04 #@! TO.P,J4,4,Pin_4*
G04 #@! TO.N,/V_BATT*
X119507000Y-112776000D03*
G04 #@! TO.P,J4,5,Pin_5*
G04 #@! TO.N,/BATT_SIG*
X122047000Y-112776000D03*
G04 #@! TO.P,J4,6,Pin_6*
G04 #@! TO.N,/NEO_OUT1*
X124587000Y-112776000D03*
G04 #@! TO.P,J4,7,Pin_7*
G04 #@! TO.N,/NEO_IN1*
X127127000Y-112776000D03*
G04 #@! TO.P,J4,8,Pin_8*
G04 #@! TO.N,/3.3V*
X129667000Y-112776000D03*
G04 #@! TO.P,J4,9,Pin_9*
G04 #@! TO.N,/5V*
X132207000Y-112776000D03*
G04 #@! TO.P,J4,10,Pin_10*
G04 #@! TO.N,GND*
X134747000Y-112776000D03*
G04 #@! TD*
D33*
G04 #@! TO.P,F2,1*
G04 #@! TO.N,/5V*
X131445000Y-94046000D03*
G04 #@! TO.P,F2,2*
G04 #@! TO.N,Net-(D2-K)*
X131445000Y-89596000D03*
G04 #@! TD*
D34*
G04 #@! TO.N,/5V*
X120650000Y-99060000D03*
X110744000Y-100584000D03*
X129032000Y-103124000D03*
X132588000Y-92710000D03*
X135636000Y-81788000D03*
X134874000Y-94234000D03*
G04 #@! TO.N,/V_BATT*
X108204000Y-89408000D03*
X118364000Y-97028000D03*
X111252000Y-91948000D03*
G04 #@! TO.N,/V_BOOST*
X120904000Y-83820000D03*
X120904000Y-91694000D03*
G04 #@! TO.N,Net-(JP1-B)*
X110490000Y-95250000D03*
X118618000Y-88138000D03*
X110490000Y-84328000D03*
G04 #@! TO.N,/3.3V*
X131064000Y-103632000D03*
G04 #@! TO.N,/NEO_OUT1*
X125222000Y-100330000D03*
G04 #@! TO.N,GND*
X116332000Y-85344000D03*
X116840000Y-101854000D03*
X119888000Y-88646000D03*
X133858000Y-107188000D03*
X131572000Y-105664000D03*
X121920000Y-94488000D03*
X119380000Y-93980000D03*
X123444000Y-91948000D03*
X115824000Y-106680000D03*
X129286000Y-99822000D03*
X129286000Y-96774000D03*
X127254000Y-96012000D03*
X125984000Y-80772000D03*
X121920000Y-89154000D03*
G04 #@! TO.N,VCC*
X120904000Y-103378000D03*
X134874000Y-96012000D03*
G04 #@! TO.N,/BATT_SIG*
X125222000Y-105664000D03*
X121793000Y-97028000D03*
X123952000Y-102616000D03*
G04 #@! TO.N,/NEO_IN1*
X126746000Y-106680000D03*
G04 #@! TO.N,Net-(D2-K)*
X125349000Y-91567000D03*
G04 #@! TO.N,Net-(JP2-B)*
X131572000Y-100330000D03*
X130810000Y-98806000D03*
X132334000Y-83312000D03*
G04 #@! TO.N,Net-(U1-EN)*
X114046000Y-96774000D03*
G04 #@! TO.N,/V_BUS*
X128778000Y-94234000D03*
X128777000Y-90423000D03*
X129286000Y-86106000D03*
G04 #@! TD*
D35*
G04 #@! TO.N,/5V*
X131445000Y-94869000D02*
X131445000Y-94046000D01*
X134224000Y-81788000D02*
X134239000Y-81788000D01*
X131445000Y-94046000D02*
X134686000Y-94046000D01*
X129032000Y-101600000D02*
X127127000Y-99695000D01*
X134686000Y-94046000D02*
X134874000Y-94234000D01*
X132588000Y-92710000D02*
X132588000Y-92903000D01*
X127762000Y-99060000D02*
X127762000Y-96901000D01*
X120624000Y-99086000D02*
X120624000Y-100457000D01*
X127127000Y-99695000D02*
X126365000Y-98933000D01*
X129032000Y-103124000D02*
X129032000Y-101600000D01*
X126365000Y-98933000D02*
X120777000Y-98933000D01*
X134239000Y-81646000D02*
X134239000Y-81788000D01*
X108903000Y-104140000D02*
X108903000Y-101409000D01*
X127762000Y-96901000D02*
X128905000Y-95758000D01*
X108903000Y-101409000D02*
X109728000Y-100584000D01*
X127127000Y-99695000D02*
X127762000Y-99060000D01*
X133172000Y-94046000D02*
X134874000Y-92344000D01*
X131445000Y-94046000D02*
X133172000Y-94046000D01*
X134239000Y-81788000D02*
X135636000Y-81788000D01*
X130556000Y-95758000D02*
X131445000Y-94869000D01*
X109728000Y-100584000D02*
X110744000Y-100584000D01*
X132588000Y-92903000D02*
X131445000Y-94046000D01*
X120777000Y-98933000D02*
X120624000Y-99086000D01*
X128905000Y-95758000D02*
X130556000Y-95758000D01*
G04 #@! TO.N,/V_BATT*
X108519000Y-90856000D02*
X108958500Y-90416500D01*
X119126000Y-112395000D02*
X119507000Y-112776000D01*
X119634000Y-105918000D02*
X119126000Y-106426000D01*
X118364000Y-97028000D02*
X117195000Y-97028000D01*
X108958500Y-90416500D02*
X108204000Y-89662000D01*
X108204000Y-89662000D02*
X108204000Y-89408000D01*
X119126000Y-106426000D02*
X119126000Y-112395000D01*
X110236000Y-92964000D02*
X108519000Y-92964000D01*
X108519000Y-92964000D02*
X108519000Y-90856000D01*
X111252000Y-91948000D02*
X110236000Y-92964000D01*
X117195000Y-99669000D02*
X119634000Y-102108000D01*
X119634000Y-102108000D02*
X119634000Y-105918000D01*
X117195000Y-97028000D02*
X117195000Y-99669000D01*
X108958500Y-90416500D02*
X110094000Y-89281000D01*
G04 #@! TO.N,/V_BOOST*
X127254000Y-83019500D02*
X128485500Y-81788000D01*
X120904000Y-83820000D02*
X123190000Y-81534000D01*
X125173500Y-93599000D02*
X122809000Y-93599000D01*
X122809000Y-93599000D02*
X120904000Y-91694000D01*
X118038880Y-83820000D02*
X118038880Y-83279380D01*
X123190000Y-81534000D02*
X123190000Y-81508000D01*
X118038880Y-83279380D02*
X116801500Y-82042000D01*
X120904000Y-83820000D02*
X121666000Y-83058000D01*
X118038880Y-85559900D02*
X118038880Y-83820000D01*
X118038880Y-83820000D02*
X120904000Y-83820000D01*
X127254000Y-83058000D02*
X127254000Y-83019500D01*
X121666000Y-83058000D02*
X127254000Y-83058000D01*
G04 #@! TO.N,Net-(JP1-B)*
X118618000Y-88138000D02*
X118689120Y-88209120D01*
X112776000Y-92964000D02*
X112969000Y-92964000D01*
X109321000Y-96774000D02*
X109321000Y-96419000D01*
X110363000Y-84201000D02*
X107969000Y-84201000D01*
X112969000Y-91125000D02*
X112969000Y-92964000D01*
X118689120Y-90208100D02*
X118689120Y-92600380D01*
X111394000Y-89281000D02*
X111394000Y-89550000D01*
X111394000Y-89550000D02*
X112969000Y-91125000D01*
X118689120Y-92600380D02*
X117309500Y-93980000D01*
X109321000Y-96419000D02*
X112776000Y-92964000D01*
X118689120Y-88209120D02*
X118689120Y-90208100D01*
X110490000Y-84328000D02*
X110363000Y-84201000D01*
G04 #@! TO.N,/3.3V*
X130556000Y-104648000D02*
X128778000Y-104648000D01*
X128778000Y-104648000D02*
X127508000Y-103378000D01*
X134620000Y-103378000D02*
X133198000Y-103378000D01*
X130556000Y-104140000D02*
X130556000Y-108458000D01*
X130556000Y-109728000D02*
X129667000Y-110617000D01*
X135382000Y-98821000D02*
X135382000Y-102616000D01*
X131318000Y-103378000D02*
X131064000Y-103632000D01*
X128993500Y-108458000D02*
X130556000Y-108458000D01*
X135382000Y-98821000D02*
X134874000Y-98313000D01*
X129667000Y-110617000D02*
X129667000Y-112776000D01*
X135382000Y-102616000D02*
X134620000Y-103378000D01*
X133198000Y-103378000D02*
X131318000Y-103378000D01*
X127508000Y-103378000D02*
X126898000Y-103378000D01*
X130556000Y-108458000D02*
X130556000Y-109728000D01*
X131318000Y-103378000D02*
X130556000Y-104140000D01*
G04 #@! TO.N,/NEO_OUT1*
X122174000Y-109220000D02*
X122174000Y-107442000D01*
X122682000Y-101499000D02*
X123724000Y-100457000D01*
X122682000Y-103583500D02*
X122682000Y-101499000D01*
X123724000Y-100457000D02*
X125095000Y-100457000D01*
X122936000Y-109982000D02*
X122174000Y-109220000D01*
X122174000Y-107442000D02*
X122682000Y-106934000D01*
X125095000Y-100457000D02*
X125222000Y-100330000D01*
X124587000Y-110617000D02*
X123952000Y-109982000D01*
X124587000Y-110617000D02*
X124587000Y-112776000D01*
X123952000Y-109982000D02*
X122936000Y-109982000D01*
X122682000Y-106934000D02*
X122682000Y-103583500D01*
G04 #@! TO.N,GND*
X125857000Y-80899000D02*
X125984000Y-80772000D01*
X123190000Y-90424000D02*
X121920000Y-89154000D01*
X116903000Y-101917000D02*
X116840000Y-101854000D01*
X116903000Y-105601000D02*
X115824000Y-106680000D01*
X123190000Y-90450000D02*
X123190000Y-90424000D01*
X120307500Y-93980000D02*
X119380000Y-93980000D01*
X117388640Y-85559900D02*
X116547900Y-85559900D01*
X116903000Y-104140000D02*
X116903000Y-105601000D01*
X133198000Y-105678000D02*
X131586000Y-105678000D01*
X123190000Y-90450000D02*
X123190000Y-91694000D01*
X126518000Y-97409000D02*
X126518000Y-96748000D01*
X123190000Y-91694000D02*
X123444000Y-91948000D01*
X133198000Y-106528000D02*
X133858000Y-107188000D01*
X126518000Y-96748000D02*
X127254000Y-96012000D01*
X128993500Y-97066500D02*
X129286000Y-96774000D01*
X116547900Y-85559900D02*
X116332000Y-85344000D01*
X116903000Y-104140000D02*
X116903000Y-101917000D01*
X128993500Y-98171000D02*
X128993500Y-97066500D01*
X121412000Y-93980000D02*
X121920000Y-94488000D01*
X119339360Y-90208100D02*
X119339360Y-89194640D01*
X125857000Y-81508000D02*
X125857000Y-80899000D01*
X120307500Y-93980000D02*
X121412000Y-93980000D01*
X128993500Y-98171000D02*
X128993500Y-99529500D01*
X119339360Y-89194640D02*
X119888000Y-88646000D01*
X131586000Y-105678000D02*
X131572000Y-105664000D01*
X133198000Y-105678000D02*
X133198000Y-106528000D01*
X128993500Y-99529500D02*
X129286000Y-99822000D01*
G04 #@! TO.N,VCC*
X120751000Y-103531000D02*
X120751000Y-108331000D01*
X120904000Y-103378000D02*
X121732000Y-104206000D01*
X121732000Y-104206000D02*
X121732000Y-105458500D01*
X134874000Y-96012000D02*
X134874000Y-97013000D01*
X120751000Y-108331000D02*
X120751000Y-107849000D01*
X120904000Y-103378000D02*
X120751000Y-103531000D01*
G04 #@! TO.N,/BATT_SIG*
X123037000Y-97028000D02*
X123418000Y-97409000D01*
X120295000Y-97028000D02*
X123037000Y-97028000D01*
X123952000Y-102616000D02*
X125222000Y-103886000D01*
X125222000Y-103886000D02*
X125222000Y-105664000D01*
G04 #@! TO.N,/NEO_IN1*
X123851000Y-108331000D02*
X123698000Y-108178000D01*
X123698000Y-108178000D02*
X123698000Y-105524500D01*
X123851000Y-108331000D02*
X125095000Y-108331000D01*
X125095000Y-108331000D02*
X126746000Y-106680000D01*
X125222000Y-108331000D02*
X123851000Y-108331000D01*
X123698000Y-105524500D02*
X123632000Y-105458500D01*
X127127000Y-110236000D02*
X127127000Y-112776000D01*
X125222000Y-108331000D02*
X127127000Y-110236000D01*
G04 #@! TO.N,Net-(U1-LX)*
X117388640Y-88432640D02*
X113519000Y-84563000D01*
X117388640Y-90208100D02*
X117388640Y-88432640D01*
X113519000Y-84563000D02*
X113519000Y-84201000D01*
G04 #@! TO.N,Net-(U1-FB)*
X121196100Y-85559900D02*
X122148000Y-84608000D01*
X123190000Y-84608000D02*
X125857000Y-84608000D01*
X119339360Y-85559900D02*
X121196100Y-85559900D01*
X122148000Y-84608000D02*
X123190000Y-84608000D01*
G04 #@! TO.N,Net-(U1-RSET)*
X119126000Y-87376000D02*
X123164000Y-87376000D01*
X118689120Y-86939120D02*
X119126000Y-87376000D01*
X118689120Y-85559900D02*
X118689120Y-86939120D01*
X123164000Y-87376000D02*
X123190000Y-87350000D01*
G04 #@! TO.N,Net-(D2-K)*
X125349000Y-91567000D02*
X125222000Y-91440000D01*
X127048500Y-92649000D02*
X128839000Y-92649000D01*
X125349000Y-91567000D02*
X126431000Y-92649000D01*
X126431000Y-92649000D02*
X127048500Y-92649000D01*
X133426000Y-89596000D02*
X134874000Y-91044000D01*
X129794000Y-91694000D02*
X130810000Y-91694000D01*
X131445000Y-89596000D02*
X133426000Y-89596000D01*
X127253000Y-87123000D02*
X127254000Y-87123000D01*
X131445000Y-91059000D02*
X131445000Y-89596000D01*
X128839000Y-92649000D02*
X129794000Y-91694000D01*
X125222000Y-89154000D02*
X127253000Y-87123000D01*
X125222000Y-91440000D02*
X125222000Y-89154000D01*
X130810000Y-91694000D02*
X131445000Y-91059000D01*
G04 #@! TO.N,Net-(JP2-B)*
X132334000Y-83312000D02*
X134000000Y-83312000D01*
X131572000Y-100330000D02*
X132320000Y-101078000D01*
X134239000Y-82946000D02*
X134239000Y-83073000D01*
X132118500Y-98171000D02*
X132842000Y-98894500D01*
X132320000Y-101078000D02*
X133198000Y-101078000D01*
X132842000Y-98894500D02*
X132842000Y-100722000D01*
X134239000Y-83073000D02*
X134000000Y-83312000D01*
X132842000Y-100722000D02*
X133198000Y-101078000D01*
X130810000Y-98806000D02*
X132118500Y-98806000D01*
G04 #@! TO.N,Net-(U1-EN)*
X118038880Y-91257120D02*
X117348000Y-91948000D01*
X114300000Y-93980000D02*
X114300000Y-95758000D01*
X116332000Y-91948000D02*
X114300000Y-93980000D01*
X114300000Y-95758000D02*
X113792000Y-96266000D01*
X113284000Y-96774000D02*
X112421000Y-96774000D01*
X113792000Y-96266000D02*
X113284000Y-96774000D01*
X113792000Y-96266000D02*
X114046000Y-96520000D01*
X117348000Y-91948000D02*
X116332000Y-91948000D01*
X114046000Y-96520000D02*
X114046000Y-96774000D01*
X118038880Y-90208100D02*
X118038880Y-91257120D01*
G04 #@! TO.N,/V_BUS*
X126093500Y-95504000D02*
X116332000Y-95504000D01*
X116332000Y-95504000D02*
X115570000Y-96266000D01*
X115570000Y-99060000D02*
X112903000Y-101727000D01*
X112903000Y-101727000D02*
X112903000Y-106045000D01*
X112903000Y-106045000D02*
X114427000Y-107569000D01*
X130530000Y-86106000D02*
X130657000Y-85979000D01*
X128778000Y-90424000D02*
X128777000Y-90423000D01*
X129286000Y-86106000D02*
X130530000Y-86106000D01*
X114427000Y-107569000D02*
X114427000Y-112776000D01*
X127048500Y-94549000D02*
X128463000Y-94549000D01*
X127254000Y-90423000D02*
X128777000Y-90423000D01*
X128463000Y-94549000D02*
X128778000Y-94234000D01*
X115570000Y-96266000D02*
X115570000Y-99060000D01*
X127048500Y-94549000D02*
X126093500Y-95504000D01*
G04 #@! TD*
G04 #@! TA.AperFunction,Conductor*
G04 #@! TO.N,GND*
G36*
X116411993Y-98298540D02*
G01*
X116475666Y-98337814D01*
X116475667Y-98337814D01*
X116481813Y-98341605D01*
X116480308Y-98344044D01*
X116522929Y-98381556D01*
X116542100Y-98447789D01*
X116542100Y-99733305D01*
X116542100Y-99733307D01*
X116542099Y-99733307D01*
X116559913Y-99822857D01*
X116567190Y-99859439D01*
X116567191Y-99859444D01*
X116574198Y-99876360D01*
X116609553Y-99961716D01*
X116616408Y-99978264D01*
X116684806Y-100080631D01*
X116687862Y-100085204D01*
X116687863Y-100085205D01*
X118780979Y-102178319D01*
X118814464Y-102239642D01*
X118809480Y-102309334D01*
X118767608Y-102365267D01*
X118702144Y-102389684D01*
X118693298Y-102390000D01*
X117153000Y-102390000D01*
X117153000Y-105889999D01*
X118466921Y-105889999D01*
X118533960Y-105909684D01*
X118579715Y-105962488D01*
X118589659Y-106031646D01*
X118570024Y-106082886D01*
X118552373Y-106109305D01*
X118550777Y-106111694D01*
X118547408Y-106116734D01*
X118547407Y-106116736D01*
X118498191Y-106235555D01*
X118498189Y-106235561D01*
X118473100Y-106361692D01*
X118473100Y-110861141D01*
X118453415Y-110928180D01*
X118449419Y-110934025D01*
X118351949Y-111068183D01*
X118351945Y-111068190D01*
X118347484Y-111076946D01*
X118299509Y-111127742D01*
X118231688Y-111144536D01*
X118165553Y-111121998D01*
X118126516Y-111076946D01*
X118122050Y-111068182D01*
X117997109Y-110896213D01*
X117846786Y-110745890D01*
X117674820Y-110620951D01*
X117485414Y-110524444D01*
X117485413Y-110524443D01*
X117485412Y-110524443D01*
X117283243Y-110458754D01*
X117283241Y-110458753D01*
X117283240Y-110458753D01*
X117119049Y-110432748D01*
X117073287Y-110425500D01*
X116860713Y-110425500D01*
X116814951Y-110432748D01*
X116650760Y-110458753D01*
X116448585Y-110524444D01*
X116259179Y-110620951D01*
X116087213Y-110745890D01*
X115936890Y-110896213D01*
X115811949Y-111068182D01*
X115807484Y-111076946D01*
X115759509Y-111127742D01*
X115691688Y-111144536D01*
X115625553Y-111121998D01*
X115586516Y-111076946D01*
X115582050Y-111068182D01*
X115457109Y-110896213D01*
X115306790Y-110745894D01*
X115306785Y-110745890D01*
X115131015Y-110618186D01*
X115088349Y-110562856D01*
X115079900Y-110517868D01*
X115079900Y-107504692D01*
X115054810Y-107378561D01*
X115054809Y-107378560D01*
X115054809Y-107378556D01*
X115005592Y-107259736D01*
X115005590Y-107259733D01*
X114973840Y-107212215D01*
X114973840Y-107212216D01*
X114934138Y-107152797D01*
X113592219Y-105810878D01*
X113558734Y-105749555D01*
X113555900Y-105723197D01*
X113555900Y-104390000D01*
X114403001Y-104390000D01*
X114403001Y-105189986D01*
X114413494Y-105292697D01*
X114468641Y-105459119D01*
X114468643Y-105459124D01*
X114560684Y-105608345D01*
X114684654Y-105732315D01*
X114833875Y-105824356D01*
X114833880Y-105824358D01*
X115000302Y-105879505D01*
X115000309Y-105879506D01*
X115103019Y-105889999D01*
X116652999Y-105889999D01*
X116653000Y-105889998D01*
X116653000Y-104390000D01*
X114403001Y-104390000D01*
X113555900Y-104390000D01*
X113555900Y-103890000D01*
X114403000Y-103890000D01*
X116653000Y-103890000D01*
X116653000Y-102390000D01*
X115103028Y-102390000D01*
X115103012Y-102390001D01*
X115000302Y-102400494D01*
X114833880Y-102455641D01*
X114833875Y-102455643D01*
X114684654Y-102547684D01*
X114560684Y-102671654D01*
X114468643Y-102820875D01*
X114468641Y-102820880D01*
X114413494Y-102987302D01*
X114413493Y-102987309D01*
X114403000Y-103090013D01*
X114403000Y-103890000D01*
X113555900Y-103890000D01*
X113555900Y-102048802D01*
X113575585Y-101981763D01*
X113592219Y-101961121D01*
X116077139Y-99476201D01*
X116077141Y-99476199D01*
X116148593Y-99369263D01*
X116186063Y-99278801D01*
X116197809Y-99250444D01*
X116208287Y-99197768D01*
X116222900Y-99124307D01*
X116222900Y-98404081D01*
X116242585Y-98337042D01*
X116295389Y-98291287D01*
X116364547Y-98281343D01*
X116411993Y-98298540D01*
G37*
G04 #@! TD.AperFunction*
G04 #@! TA.AperFunction,Conductor*
G36*
X129186539Y-97940685D02*
G01*
X129232294Y-97993489D01*
X129243500Y-98045000D01*
X129243500Y-99570999D01*
X129455972Y-99570999D01*
X129455986Y-99570998D01*
X129558697Y-99560505D01*
X129725119Y-99505358D01*
X129725124Y-99505356D01*
X129874345Y-99413315D01*
X129924413Y-99363247D01*
X129985736Y-99329761D01*
X130055428Y-99334745D01*
X130104242Y-99367953D01*
X130201708Y-99476199D01*
X130204129Y-99478888D01*
X130357265Y-99590148D01*
X130357270Y-99590151D01*
X130530192Y-99667142D01*
X130530193Y-99667142D01*
X130530197Y-99667144D01*
X130705901Y-99704490D01*
X130767382Y-99737682D01*
X130801159Y-99798845D01*
X130796507Y-99868559D01*
X130787508Y-99887779D01*
X130744820Y-99961717D01*
X130744818Y-99961722D01*
X130696251Y-100111197D01*
X130686326Y-100141744D01*
X130666540Y-100330000D01*
X130686326Y-100518256D01*
X130686327Y-100518259D01*
X130744818Y-100698277D01*
X130744821Y-100698284D01*
X130839467Y-100862216D01*
X130952826Y-100988114D01*
X130966129Y-101002888D01*
X131119265Y-101114148D01*
X131119270Y-101114151D01*
X131292192Y-101191142D01*
X131292197Y-101191144D01*
X131477354Y-101230500D01*
X131497797Y-101230500D01*
X131564836Y-101250185D01*
X131585479Y-101266819D01*
X131661182Y-101342523D01*
X131694666Y-101403847D01*
X131697500Y-101430203D01*
X131697500Y-101529121D01*
X131697501Y-101529125D01*
X131700399Y-101571886D01*
X131700399Y-101571887D01*
X131746360Y-101756696D01*
X131830967Y-101927292D01*
X131830969Y-101927295D01*
X131950277Y-102075721D01*
X131950278Y-102075722D01*
X132019486Y-102131353D01*
X132059405Y-102188696D01*
X132061985Y-102258518D01*
X132026406Y-102318651D01*
X132019486Y-102324647D01*
X131950278Y-102380277D01*
X131950277Y-102380278D01*
X131830969Y-102528704D01*
X131767740Y-102656195D01*
X131720319Y-102707507D01*
X131656652Y-102725100D01*
X131253690Y-102725100D01*
X131214055Y-102732983D01*
X131164096Y-102732657D01*
X131158651Y-102731500D01*
X131158646Y-102731500D01*
X130969354Y-102731500D01*
X130950051Y-102735603D01*
X130784197Y-102770855D01*
X130784192Y-102770857D01*
X130611270Y-102847848D01*
X130611265Y-102847851D01*
X130458129Y-102959111D01*
X130331466Y-103099785D01*
X130236821Y-103263715D01*
X130236818Y-103263722D01*
X130196449Y-103387966D01*
X130178326Y-103443744D01*
X130176524Y-103460890D01*
X130165229Y-103568351D01*
X130138644Y-103632965D01*
X130129590Y-103643069D01*
X130048859Y-103723800D01*
X129981575Y-103824500D01*
X129977404Y-103830740D01*
X129941033Y-103918552D01*
X129897193Y-103972956D01*
X129830899Y-103995021D01*
X129826472Y-103995100D01*
X129737909Y-103995100D01*
X129670870Y-103975415D01*
X129625115Y-103922611D01*
X129615171Y-103853453D01*
X129644196Y-103789897D01*
X129645759Y-103788128D01*
X129668996Y-103762319D01*
X129764533Y-103656216D01*
X129859179Y-103492284D01*
X129917674Y-103312256D01*
X129937460Y-103124000D01*
X129917674Y-102935744D01*
X129859179Y-102755716D01*
X129784905Y-102627069D01*
X129764534Y-102591785D01*
X129764529Y-102591778D01*
X129716750Y-102538714D01*
X129686520Y-102475722D01*
X129684900Y-102455742D01*
X129684900Y-101535692D01*
X129659810Y-101409561D01*
X129659809Y-101409557D01*
X129659809Y-101409556D01*
X129610592Y-101290736D01*
X129605304Y-101282823D01*
X129594659Y-101266890D01*
X129539139Y-101183798D01*
X128138021Y-99782680D01*
X128104536Y-99721357D01*
X128109520Y-99651665D01*
X128138020Y-99607319D01*
X128159439Y-99585900D01*
X128191350Y-99553989D01*
X128252670Y-99520505D01*
X128318033Y-99523965D01*
X128428302Y-99560505D01*
X128428309Y-99560506D01*
X128531019Y-99570999D01*
X128743499Y-99570999D01*
X128743500Y-99570998D01*
X128743500Y-98045000D01*
X128763185Y-97977961D01*
X128815989Y-97932206D01*
X128867500Y-97921000D01*
X129119500Y-97921000D01*
X129186539Y-97940685D01*
G37*
G04 #@! TD.AperFunction*
G04 #@! TA.AperFunction,Conductor*
G36*
X134098050Y-94718585D02*
G01*
X134138400Y-94760904D01*
X134141465Y-94766214D01*
X134268129Y-94906888D01*
X134426527Y-95021971D01*
X134424976Y-95024105D01*
X134465098Y-95066199D01*
X134478309Y-95134808D01*
X134452330Y-95199668D01*
X134425634Y-95222800D01*
X134426527Y-95224029D01*
X134268129Y-95339111D01*
X134141466Y-95479785D01*
X134046821Y-95643715D01*
X134046818Y-95643722D01*
X133988789Y-95822319D01*
X133988326Y-95823744D01*
X133972194Y-95977236D01*
X133968540Y-96012000D01*
X133984753Y-96166263D01*
X133972183Y-96234993D01*
X133942636Y-96272936D01*
X133911222Y-96300156D01*
X133911212Y-96300164D01*
X133911209Y-96300168D01*
X133911206Y-96300171D01*
X133816985Y-96408909D01*
X133816983Y-96408911D01*
X133816983Y-96408912D01*
X133816981Y-96408915D01*
X133739255Y-96529857D01*
X133739252Y-96529863D01*
X133679483Y-96660741D01*
X133638977Y-96798691D01*
X133638974Y-96798703D01*
X133618500Y-96941110D01*
X133618500Y-97513002D01*
X133623644Y-97584939D01*
X133634603Y-97622262D01*
X133638363Y-97674841D01*
X133619535Y-97805799D01*
X133618500Y-97813000D01*
X133618500Y-98384889D01*
X133624267Y-98425000D01*
X133631691Y-98476635D01*
X133621747Y-98545794D01*
X133575992Y-98598598D01*
X133508952Y-98618282D01*
X133441913Y-98598597D01*
X133405851Y-98563173D01*
X133349141Y-98478301D01*
X133349138Y-98478297D01*
X133317818Y-98446977D01*
X133284333Y-98385654D01*
X133281499Y-98359296D01*
X133281499Y-97470998D01*
X133281498Y-97470981D01*
X133270999Y-97368203D01*
X133270998Y-97368200D01*
X133266866Y-97355731D01*
X133215814Y-97201666D01*
X133123712Y-97052344D01*
X132999656Y-96928288D01*
X132906888Y-96871069D01*
X132850336Y-96836187D01*
X132850331Y-96836185D01*
X132848862Y-96835698D01*
X132683797Y-96781001D01*
X132683795Y-96781000D01*
X132581010Y-96770500D01*
X131655998Y-96770500D01*
X131655980Y-96770501D01*
X131553203Y-96781000D01*
X131553200Y-96781001D01*
X131386668Y-96836185D01*
X131386663Y-96836187D01*
X131237342Y-96928289D01*
X131113289Y-97052342D01*
X131021187Y-97201663D01*
X131021185Y-97201668D01*
X130994235Y-97283000D01*
X130966001Y-97368203D01*
X130966001Y-97368204D01*
X130966000Y-97368204D01*
X130955500Y-97470983D01*
X130955500Y-97781500D01*
X130935815Y-97848539D01*
X130883011Y-97894294D01*
X130831500Y-97905500D01*
X130715354Y-97905500D01*
X130682897Y-97912398D01*
X130530197Y-97944855D01*
X130530192Y-97944857D01*
X130357270Y-98021848D01*
X130357261Y-98021854D01*
X130352877Y-98025039D01*
X130287069Y-98048514D01*
X130219016Y-98032684D01*
X130170325Y-97982575D01*
X130155999Y-97924716D01*
X130155999Y-97471028D01*
X130155998Y-97471013D01*
X130145505Y-97368302D01*
X130090358Y-97201880D01*
X130090356Y-97201875D01*
X129998315Y-97052654D01*
X129874345Y-96928684D01*
X129725124Y-96836643D01*
X129725119Y-96836641D01*
X129558697Y-96781494D01*
X129558690Y-96781493D01*
X129455986Y-96771000D01*
X129114702Y-96771000D01*
X129047663Y-96751315D01*
X129001908Y-96698511D01*
X128991964Y-96629353D01*
X129020989Y-96565797D01*
X129027021Y-96559319D01*
X129139121Y-96447219D01*
X129200444Y-96413734D01*
X129226802Y-96410900D01*
X130620307Y-96410900D01*
X130705165Y-96394019D01*
X130746444Y-96385809D01*
X130865264Y-96336592D01*
X130897063Y-96315345D01*
X130897065Y-96315344D01*
X130972198Y-96265143D01*
X130972202Y-96265139D01*
X131203341Y-96034000D01*
X131952141Y-95285199D01*
X131974585Y-95251607D01*
X132028196Y-95206804D01*
X132077687Y-95196499D01*
X132945002Y-95196499D01*
X132945008Y-95196499D01*
X133047797Y-95185999D01*
X133214334Y-95130814D01*
X133363656Y-95038712D01*
X133487712Y-94914656D01*
X133579814Y-94765334D01*
X133579814Y-94765332D01*
X133583605Y-94759187D01*
X133586044Y-94760691D01*
X133623556Y-94718071D01*
X133689789Y-94698900D01*
X134031011Y-94698900D01*
X134098050Y-94718585D01*
G37*
G04 #@! TD.AperFunction*
G04 #@! TA.AperFunction,Conductor*
G36*
X125468469Y-96176585D02*
G01*
X125514224Y-96229389D01*
X125524168Y-96298547D01*
X125506969Y-96345997D01*
X125433643Y-96464875D01*
X125433641Y-96464880D01*
X125378494Y-96631302D01*
X125378493Y-96631309D01*
X125368000Y-96734013D01*
X125368000Y-97159000D01*
X126644000Y-97159000D01*
X126711039Y-97178685D01*
X126756794Y-97231489D01*
X126768000Y-97283000D01*
X126768000Y-97535000D01*
X126748315Y-97602039D01*
X126695511Y-97647794D01*
X126644000Y-97659000D01*
X125368001Y-97659000D01*
X125368001Y-98083988D01*
X125374081Y-98143499D01*
X125361311Y-98212191D01*
X125313430Y-98263076D01*
X125250723Y-98280100D01*
X124685781Y-98280100D01*
X124618742Y-98260415D01*
X124572987Y-98207611D01*
X124562423Y-98143498D01*
X124568499Y-98084018D01*
X124568499Y-98084017D01*
X124568500Y-98084009D01*
X124568499Y-96733992D01*
X124557999Y-96631203D01*
X124502814Y-96464666D01*
X124429617Y-96345994D01*
X124411178Y-96278604D01*
X124432101Y-96211941D01*
X124485743Y-96167171D01*
X124535157Y-96156900D01*
X125401430Y-96156900D01*
X125468469Y-96176585D01*
G37*
G04 #@! TD.AperFunction*
G04 #@! TA.AperFunction,Conductor*
G36*
X128305436Y-95221585D02*
G01*
X128351191Y-95274389D01*
X128361135Y-95343547D01*
X128332110Y-95407103D01*
X128326078Y-95413581D01*
X127554635Y-96185023D01*
X127493312Y-96218508D01*
X127423620Y-96213524D01*
X127390043Y-96194608D01*
X127386346Y-96191684D01*
X127237124Y-96099643D01*
X127237119Y-96099641D01*
X127070697Y-96044494D01*
X127070690Y-96044493D01*
X126967986Y-96034000D01*
X126786203Y-96034000D01*
X126719164Y-96014315D01*
X126673409Y-95961511D01*
X126663465Y-95892353D01*
X126692490Y-95828797D01*
X126698522Y-95822319D01*
X127135021Y-95385819D01*
X127196344Y-95352334D01*
X127222702Y-95349500D01*
X127701686Y-95349500D01*
X127701694Y-95349500D01*
X127738569Y-95346598D01*
X127738571Y-95346597D01*
X127738573Y-95346597D01*
X127809429Y-95326011D01*
X127896398Y-95300744D01*
X128034336Y-95219167D01*
X128097457Y-95201900D01*
X128238397Y-95201900D01*
X128305436Y-95221585D01*
G37*
G04 #@! TD.AperFunction*
G04 #@! TA.AperFunction,Conductor*
G36*
X119974131Y-91314547D02*
G01*
X120023537Y-91363951D01*
X120038390Y-91432224D01*
X120032637Y-91461697D01*
X120018327Y-91505739D01*
X120018326Y-91505741D01*
X120018326Y-91505744D01*
X119998540Y-91694000D01*
X120018326Y-91882256D01*
X120018327Y-91882259D01*
X120076818Y-92062277D01*
X120076821Y-92062284D01*
X120171467Y-92226216D01*
X120283957Y-92351148D01*
X120298129Y-92366888D01*
X120451265Y-92478148D01*
X120451270Y-92478151D01*
X120483936Y-92492695D01*
X120537173Y-92537945D01*
X120557494Y-92604794D01*
X120557500Y-92605974D01*
X120557500Y-93730000D01*
X121469999Y-93730000D01*
X121469999Y-93482702D01*
X121489684Y-93415663D01*
X121542488Y-93369908D01*
X121611646Y-93359964D01*
X121675202Y-93388989D01*
X121681680Y-93395021D01*
X122392798Y-94106139D01*
X122392801Y-94106141D01*
X122459736Y-94150865D01*
X122499736Y-94177592D01*
X122618556Y-94226809D01*
X122618560Y-94226809D01*
X122618561Y-94226810D01*
X122744692Y-94251900D01*
X122744695Y-94251900D01*
X124124543Y-94251900D01*
X124187663Y-94269167D01*
X124325602Y-94350744D01*
X124367224Y-94362836D01*
X124483426Y-94396597D01*
X124483429Y-94396597D01*
X124483431Y-94396598D01*
X124520306Y-94399500D01*
X125686500Y-94399500D01*
X125753539Y-94419185D01*
X125799294Y-94471989D01*
X125810500Y-94523500D01*
X125810500Y-94727100D01*
X125790815Y-94794139D01*
X125738011Y-94839894D01*
X125686500Y-94851100D01*
X121589832Y-94851100D01*
X121522793Y-94831415D01*
X121477038Y-94778611D01*
X121466474Y-94714499D01*
X121469999Y-94679990D01*
X121470000Y-94679973D01*
X121470000Y-94230000D01*
X119145001Y-94230000D01*
X119145001Y-94679989D01*
X119148527Y-94714499D01*
X119135757Y-94783192D01*
X119087876Y-94834076D01*
X119025169Y-94851100D01*
X118465335Y-94851100D01*
X118398296Y-94831415D01*
X118352541Y-94778611D01*
X118341977Y-94714498D01*
X118345499Y-94680018D01*
X118345500Y-94680009D01*
X118345499Y-93918701D01*
X118365183Y-93851663D01*
X118381813Y-93831026D01*
X118933319Y-93279521D01*
X118994642Y-93246036D01*
X119064334Y-93251020D01*
X119120267Y-93292892D01*
X119144684Y-93358356D01*
X119145000Y-93367202D01*
X119145000Y-93730000D01*
X120057500Y-93730000D01*
X120057500Y-92580000D01*
X119845029Y-92580000D01*
X119845012Y-92580001D01*
X119742302Y-92590494D01*
X119575880Y-92645641D01*
X119575871Y-92645645D01*
X119531116Y-92673251D01*
X119463724Y-92691691D01*
X119397060Y-92670768D01*
X119352291Y-92617126D01*
X119342020Y-92567712D01*
X119342020Y-91556000D01*
X119361705Y-91488961D01*
X119414509Y-91443206D01*
X119466020Y-91432000D01*
X119577688Y-91432000D01*
X119577704Y-91431999D01*
X119637232Y-91425598D01*
X119637239Y-91425596D01*
X119771946Y-91375354D01*
X119771949Y-91375352D01*
X119840394Y-91324114D01*
X119905858Y-91299696D01*
X119974131Y-91314547D01*
G37*
G04 #@! TD.AperFunction*
G04 #@! TA.AperFunction,Conductor*
G36*
X124602952Y-85429933D02*
G01*
X124629037Y-85460036D01*
X124639288Y-85476656D01*
X124763344Y-85600712D01*
X124912666Y-85692814D01*
X125079203Y-85747999D01*
X125181991Y-85758500D01*
X126450991Y-85758499D01*
X126518030Y-85778184D01*
X126563785Y-85830987D01*
X126573729Y-85900146D01*
X126544704Y-85963702D01*
X126485926Y-86001476D01*
X126480928Y-86002830D01*
X126458960Y-86008293D01*
X126417649Y-86018567D01*
X126256790Y-86098346D01*
X126116841Y-86210840D01*
X126116840Y-86210841D01*
X126004346Y-86350790D01*
X125924567Y-86511649D01*
X125881234Y-86685897D01*
X125878500Y-86726218D01*
X125878500Y-87521883D01*
X125877639Y-87521883D01*
X125860989Y-87586345D01*
X125842210Y-87610447D01*
X124714861Y-88737797D01*
X124714860Y-88737798D01*
X124655081Y-88827266D01*
X124655080Y-88827265D01*
X124643408Y-88844735D01*
X124594191Y-88963555D01*
X124594189Y-88963561D01*
X124569100Y-89089692D01*
X124569100Y-89444077D01*
X124549415Y-89511116D01*
X124496611Y-89556871D01*
X124427453Y-89566815D01*
X124363897Y-89537790D01*
X124357419Y-89531758D01*
X124283345Y-89457684D01*
X124134124Y-89365643D01*
X124134119Y-89365641D01*
X123967697Y-89310494D01*
X123967690Y-89310493D01*
X123864986Y-89300000D01*
X123440000Y-89300000D01*
X123440000Y-91599999D01*
X123864972Y-91599999D01*
X123864986Y-91599998D01*
X123967697Y-91589505D01*
X124134119Y-91534358D01*
X124134130Y-91534353D01*
X124254443Y-91460143D01*
X124321835Y-91441702D01*
X124388499Y-91462624D01*
X124433268Y-91516266D01*
X124442479Y-91560577D01*
X124442861Y-91560537D01*
X124443260Y-91564334D01*
X124443540Y-91565681D01*
X124443540Y-91566997D01*
X124443540Y-91567000D01*
X124463326Y-91755256D01*
X124463327Y-91755259D01*
X124521818Y-91935277D01*
X124521821Y-91935284D01*
X124616467Y-92099216D01*
X124708241Y-92201141D01*
X124743129Y-92239888D01*
X124896265Y-92351148D01*
X124896270Y-92351151D01*
X125069192Y-92428142D01*
X125069197Y-92428144D01*
X125254354Y-92467500D01*
X125274797Y-92467500D01*
X125341836Y-92487185D01*
X125362478Y-92503819D01*
X125445478Y-92586819D01*
X125478963Y-92648142D01*
X125473979Y-92717834D01*
X125432107Y-92773767D01*
X125366643Y-92798184D01*
X125357797Y-92798500D01*
X124520298Y-92798500D01*
X124483432Y-92801401D01*
X124483426Y-92801402D01*
X124325606Y-92847254D01*
X124325603Y-92847255D01*
X124187664Y-92928832D01*
X124124543Y-92946100D01*
X123130802Y-92946100D01*
X123063763Y-92926415D01*
X123043121Y-92909781D01*
X121838409Y-91705069D01*
X121804924Y-91643746D01*
X121802769Y-91630348D01*
X121799579Y-91599998D01*
X121789674Y-91505744D01*
X121770999Y-91448271D01*
X121769005Y-91378431D01*
X121805085Y-91318598D01*
X121867786Y-91287770D01*
X121937200Y-91295735D01*
X121976612Y-91322273D01*
X122096654Y-91442315D01*
X122245875Y-91534356D01*
X122245880Y-91534358D01*
X122412302Y-91589505D01*
X122412309Y-91589506D01*
X122515019Y-91599999D01*
X122939999Y-91599999D01*
X122940000Y-91599998D01*
X122940000Y-90700000D01*
X121815001Y-90700000D01*
X121815001Y-90899986D01*
X121825494Y-91002698D01*
X121832785Y-91024702D01*
X121835185Y-91094530D01*
X121799452Y-91154571D01*
X121736931Y-91185762D01*
X121667471Y-91178200D01*
X121622930Y-91146676D01*
X121509871Y-91021112D01*
X121509870Y-91021111D01*
X121356734Y-90909851D01*
X121356729Y-90909848D01*
X121183807Y-90832857D01*
X121183802Y-90832855D01*
X121038001Y-90801865D01*
X120998646Y-90793500D01*
X120809354Y-90793500D01*
X120781742Y-90799369D01*
X120624197Y-90832855D01*
X120624192Y-90832857D01*
X120451270Y-90909848D01*
X120451265Y-90909851D01*
X120298129Y-91021111D01*
X120298128Y-91021112D01*
X120244843Y-91080291D01*
X120185356Y-91116939D01*
X120115499Y-91115608D01*
X120057451Y-91076721D01*
X120029642Y-91012624D01*
X120029406Y-90984052D01*
X120029859Y-90979837D01*
X120029860Y-90979827D01*
X120029860Y-90398600D01*
X119504120Y-90398600D01*
X119437081Y-90378915D01*
X119391326Y-90326111D01*
X119380120Y-90274601D01*
X119380119Y-90200000D01*
X121815000Y-90200000D01*
X122940000Y-90200000D01*
X122940000Y-89300000D01*
X122515028Y-89300000D01*
X122515012Y-89300001D01*
X122412302Y-89310494D01*
X122245880Y-89365641D01*
X122245875Y-89365643D01*
X122096654Y-89457684D01*
X121972684Y-89581654D01*
X121880643Y-89730875D01*
X121880641Y-89730880D01*
X121825494Y-89897302D01*
X121825493Y-89897309D01*
X121815000Y-90000013D01*
X121815000Y-90200000D01*
X119380119Y-90200000D01*
X119380119Y-90141601D01*
X119399803Y-90074561D01*
X119452607Y-90028806D01*
X119504119Y-90017600D01*
X120029860Y-90017600D01*
X120029860Y-89436372D01*
X120029859Y-89436355D01*
X120023458Y-89376827D01*
X120023456Y-89376820D01*
X119973214Y-89242113D01*
X119973210Y-89242106D01*
X119887050Y-89127012D01*
X119887047Y-89127009D01*
X119771953Y-89040849D01*
X119771946Y-89040845D01*
X119637239Y-88990603D01*
X119637232Y-88990601D01*
X119577704Y-88984200D01*
X119466020Y-88984200D01*
X119398981Y-88964515D01*
X119353226Y-88911711D01*
X119342020Y-88860200D01*
X119342020Y-88718186D01*
X119358633Y-88656186D01*
X119445179Y-88506284D01*
X119503674Y-88326256D01*
X119523256Y-88139936D01*
X119549841Y-88075324D01*
X119607138Y-88035339D01*
X119646577Y-88028900D01*
X121786039Y-88028900D01*
X121853078Y-88048585D01*
X121891577Y-88087802D01*
X121972288Y-88218656D01*
X122096344Y-88342712D01*
X122245666Y-88434814D01*
X122412203Y-88489999D01*
X122514991Y-88500500D01*
X123865008Y-88500499D01*
X123967797Y-88489999D01*
X124134334Y-88434814D01*
X124283656Y-88342712D01*
X124407712Y-88218656D01*
X124499814Y-88069334D01*
X124554999Y-87902797D01*
X124565500Y-87800009D01*
X124565499Y-86899992D01*
X124562708Y-86872673D01*
X124554999Y-86797203D01*
X124554998Y-86797200D01*
X124548325Y-86777061D01*
X124499814Y-86630666D01*
X124407712Y-86481344D01*
X124283656Y-86357288D01*
X124134334Y-86265186D01*
X123967797Y-86210001D01*
X123967795Y-86210000D01*
X123865010Y-86199500D01*
X122514998Y-86199500D01*
X122514981Y-86199501D01*
X122412203Y-86210000D01*
X122412200Y-86210001D01*
X122245668Y-86265185D01*
X122245663Y-86265187D01*
X122096342Y-86357289D01*
X121972289Y-86481342D01*
X121880185Y-86630667D01*
X121877720Y-86638107D01*
X121837946Y-86695551D01*
X121773429Y-86722372D01*
X121760015Y-86723100D01*
X120073928Y-86723100D01*
X120006889Y-86703415D01*
X119961134Y-86650611D01*
X119951190Y-86581453D01*
X119970608Y-86534570D01*
X119969406Y-86533914D01*
X119973653Y-86526134D01*
X119973656Y-86526131D01*
X120023951Y-86391283D01*
X120030360Y-86331673D01*
X120030360Y-86331663D01*
X120030441Y-86330156D01*
X120030559Y-86329820D01*
X120030715Y-86328372D01*
X120031057Y-86328408D01*
X120053689Y-86264268D01*
X120108869Y-86221408D01*
X120154263Y-86212800D01*
X121260407Y-86212800D01*
X121345265Y-86195919D01*
X121386544Y-86187709D01*
X121505364Y-86138492D01*
X121612300Y-86067041D01*
X122016060Y-85663279D01*
X122077379Y-85629797D01*
X122147071Y-85634781D01*
X122168830Y-85645421D01*
X122245666Y-85692814D01*
X122412203Y-85747999D01*
X122514991Y-85758500D01*
X123865008Y-85758499D01*
X123967797Y-85747999D01*
X124134334Y-85692814D01*
X124283656Y-85600712D01*
X124407712Y-85476656D01*
X124417961Y-85460038D01*
X124469907Y-85413315D01*
X124538870Y-85402091D01*
X124602952Y-85429933D01*
G37*
G04 #@! TD.AperFunction*
G04 #@! TA.AperFunction,Conductor*
G36*
X134160855Y-79249011D02*
G01*
X134322269Y-79251274D01*
X134334390Y-79252041D01*
X134638553Y-79286312D01*
X134655992Y-79288277D01*
X134669700Y-79290606D01*
X134984366Y-79362426D01*
X134997725Y-79366273D01*
X135302392Y-79472881D01*
X135315228Y-79478199D01*
X135605867Y-79618163D01*
X135606025Y-79618239D01*
X135618195Y-79624965D01*
X135891486Y-79796685D01*
X135902827Y-79804732D01*
X136155173Y-80005971D01*
X136165541Y-80015237D01*
X136393762Y-80243458D01*
X136403028Y-80253826D01*
X136604267Y-80506172D01*
X136612314Y-80517513D01*
X136784034Y-80790804D01*
X136790760Y-80802974D01*
X136930798Y-81093766D01*
X136936120Y-81106613D01*
X137042724Y-81411270D01*
X137046573Y-81424633D01*
X137118393Y-81739299D01*
X137120722Y-81753007D01*
X137156957Y-82074597D01*
X137157725Y-82086743D01*
X137159988Y-82248144D01*
X137160000Y-82249882D01*
X137160000Y-112648117D01*
X137159988Y-112649855D01*
X137157725Y-112811256D01*
X137156957Y-112823402D01*
X137120722Y-113144992D01*
X137118393Y-113158700D01*
X137046573Y-113473366D01*
X137042724Y-113486729D01*
X136936120Y-113791386D01*
X136930798Y-113804233D01*
X136790760Y-114095025D01*
X136784034Y-114107195D01*
X136612314Y-114380486D01*
X136604267Y-114391827D01*
X136403028Y-114644173D01*
X136393762Y-114654541D01*
X136165541Y-114882762D01*
X136155173Y-114892028D01*
X135902827Y-115093267D01*
X135891486Y-115101314D01*
X135618195Y-115273034D01*
X135606025Y-115279760D01*
X135315233Y-115419798D01*
X135302386Y-115425120D01*
X134997729Y-115531724D01*
X134984366Y-115535573D01*
X134669700Y-115607393D01*
X134655992Y-115609722D01*
X134334402Y-115645957D01*
X134322256Y-115646725D01*
X134160856Y-115648988D01*
X134159118Y-115649000D01*
X108760860Y-115649000D01*
X108759187Y-115648989D01*
X108754561Y-115648926D01*
X108597769Y-115646809D01*
X108585560Y-115646040D01*
X108263992Y-115609808D01*
X108250284Y-115607479D01*
X107935609Y-115535657D01*
X107922246Y-115531808D01*
X107617583Y-115425202D01*
X107604736Y-115419880D01*
X107313932Y-115279836D01*
X107301762Y-115273110D01*
X107028463Y-115101385D01*
X107017122Y-115093338D01*
X106764768Y-114892093D01*
X106754400Y-114882827D01*
X106526172Y-114654599D01*
X106516906Y-114644231D01*
X106388981Y-114483818D01*
X106315659Y-114391874D01*
X106307614Y-114380536D01*
X106135889Y-114107237D01*
X106129163Y-114095067D01*
X105989119Y-113804263D01*
X105983797Y-113791416D01*
X105983787Y-113791386D01*
X105877188Y-113486743D01*
X105873342Y-113473390D01*
X105801520Y-113158715D01*
X105799191Y-113145007D01*
X105762958Y-112823433D01*
X105762190Y-112811229D01*
X105760011Y-112649813D01*
X105760000Y-112648139D01*
X105760000Y-111633000D01*
X106944659Y-111633000D01*
X106963975Y-111829129D01*
X107021188Y-112017733D01*
X107114086Y-112191532D01*
X107114090Y-112191539D01*
X107239116Y-112343883D01*
X107391460Y-112468909D01*
X107391467Y-112468913D01*
X107565266Y-112561811D01*
X107565269Y-112561811D01*
X107565273Y-112561814D01*
X107753868Y-112619024D01*
X107950000Y-112638341D01*
X108146132Y-112619024D01*
X108334727Y-112561814D01*
X108508538Y-112468910D01*
X108660883Y-112343883D01*
X108785910Y-112191538D01*
X108878814Y-112017727D01*
X108936024Y-111829132D01*
X108955341Y-111633000D01*
X108936024Y-111436868D01*
X108878814Y-111248273D01*
X108878811Y-111248269D01*
X108878811Y-111248266D01*
X108785913Y-111074467D01*
X108785909Y-111074460D01*
X108660883Y-110922116D01*
X108508539Y-110797090D01*
X108508532Y-110797086D01*
X108334733Y-110704188D01*
X108334727Y-110704186D01*
X108187856Y-110659633D01*
X108146129Y-110646975D01*
X107950000Y-110627659D01*
X107753870Y-110646975D01*
X107565266Y-110704188D01*
X107391467Y-110797086D01*
X107391460Y-110797090D01*
X107239116Y-110922116D01*
X107114090Y-111074460D01*
X107114086Y-111074467D01*
X107021188Y-111248266D01*
X106963975Y-111436870D01*
X106944659Y-111633000D01*
X105760000Y-111633000D01*
X105760000Y-105190001D01*
X106402500Y-105190001D01*
X106402501Y-105190018D01*
X106413000Y-105292796D01*
X106413001Y-105292799D01*
X106456776Y-105424900D01*
X106468186Y-105459334D01*
X106560288Y-105608656D01*
X106684344Y-105732712D01*
X106833666Y-105824814D01*
X107000203Y-105879999D01*
X107102991Y-105890500D01*
X110703008Y-105890499D01*
X110805797Y-105879999D01*
X110972334Y-105824814D01*
X111121656Y-105732712D01*
X111245712Y-105608656D01*
X111337814Y-105459334D01*
X111392999Y-105292797D01*
X111403500Y-105190009D01*
X111403499Y-103089992D01*
X111392999Y-102987203D01*
X111337814Y-102820666D01*
X111245712Y-102671344D01*
X111121656Y-102547288D01*
X111006222Y-102476088D01*
X110972336Y-102455187D01*
X110972331Y-102455185D01*
X110953349Y-102448895D01*
X110805797Y-102400001D01*
X110805795Y-102400000D01*
X110703016Y-102389500D01*
X110703009Y-102389500D01*
X109679900Y-102389500D01*
X109612861Y-102369815D01*
X109567106Y-102317011D01*
X109555900Y-102265500D01*
X109555900Y-101730802D01*
X109575585Y-101663763D01*
X109592219Y-101643121D01*
X109962121Y-101273219D01*
X110023444Y-101239734D01*
X110049802Y-101236900D01*
X110070328Y-101236900D01*
X110137367Y-101256585D01*
X110143213Y-101260582D01*
X110291265Y-101368148D01*
X110291270Y-101368151D01*
X110464192Y-101445142D01*
X110464197Y-101445144D01*
X110649354Y-101484500D01*
X110649355Y-101484500D01*
X110838644Y-101484500D01*
X110838646Y-101484500D01*
X111023803Y-101445144D01*
X111196730Y-101368151D01*
X111349871Y-101256888D01*
X111476533Y-101116216D01*
X111571179Y-100952284D01*
X111629674Y-100772256D01*
X111649460Y-100584000D01*
X111629674Y-100395744D01*
X111571179Y-100215716D01*
X111476533Y-100051784D01*
X111349871Y-99911112D01*
X111302039Y-99876360D01*
X111196734Y-99799851D01*
X111196729Y-99799848D01*
X111023807Y-99722857D01*
X111023802Y-99722855D01*
X110878001Y-99691865D01*
X110838646Y-99683500D01*
X110649354Y-99683500D01*
X110616897Y-99690398D01*
X110464197Y-99722855D01*
X110464192Y-99722857D01*
X110291270Y-99799848D01*
X110291265Y-99799851D01*
X110143213Y-99907418D01*
X110077407Y-99930898D01*
X110070328Y-99931100D01*
X109663693Y-99931100D01*
X109537561Y-99956189D01*
X109537555Y-99956191D01*
X109418737Y-100005407D01*
X109311797Y-100076861D01*
X109311796Y-100076862D01*
X108395863Y-100992794D01*
X108395863Y-100992795D01*
X108395860Y-100992798D01*
X108395859Y-100992800D01*
X108335721Y-101082805D01*
X108334383Y-101084808D01*
X108324406Y-101099739D01*
X108275191Y-101218555D01*
X108275189Y-101218561D01*
X108250100Y-101344692D01*
X108250100Y-102265500D01*
X108230415Y-102332539D01*
X108177611Y-102378294D01*
X108126100Y-102389500D01*
X107102998Y-102389500D01*
X107102981Y-102389501D01*
X107000203Y-102400000D01*
X107000200Y-102400001D01*
X106833668Y-102455185D01*
X106833663Y-102455187D01*
X106684342Y-102547289D01*
X106560289Y-102671342D01*
X106468187Y-102820663D01*
X106468185Y-102820668D01*
X106459179Y-102847848D01*
X106413001Y-102987203D01*
X106413001Y-102987204D01*
X106413000Y-102987204D01*
X106402500Y-103089983D01*
X106402500Y-105190001D01*
X105760000Y-105190001D01*
X105760000Y-98425000D01*
X106182659Y-98425000D01*
X106201975Y-98621129D01*
X106201976Y-98621132D01*
X106258055Y-98806000D01*
X106259188Y-98809733D01*
X106352086Y-98983532D01*
X106352090Y-98983539D01*
X106477116Y-99135883D01*
X106629460Y-99260909D01*
X106629467Y-99260913D01*
X106803266Y-99353811D01*
X106803269Y-99353811D01*
X106803273Y-99353814D01*
X106991868Y-99411024D01*
X107188000Y-99430341D01*
X107384132Y-99411024D01*
X107572727Y-99353814D01*
X107601973Y-99338182D01*
X107746532Y-99260913D01*
X107746538Y-99260910D01*
X107898883Y-99135883D01*
X108023910Y-98983538D01*
X108116814Y-98809727D01*
X108174024Y-98621132D01*
X108193341Y-98425000D01*
X108174024Y-98228868D01*
X108116814Y-98040273D01*
X108116811Y-98040269D01*
X108116811Y-98040266D01*
X108023913Y-97866467D01*
X108023909Y-97866460D01*
X107898883Y-97714116D01*
X107746539Y-97589090D01*
X107746532Y-97589086D01*
X107572733Y-97496188D01*
X107572727Y-97496186D01*
X107384132Y-97438976D01*
X107384129Y-97438975D01*
X107188000Y-97419659D01*
X106991870Y-97438975D01*
X106803266Y-97496188D01*
X106629467Y-97589086D01*
X106629460Y-97589090D01*
X106477116Y-97714116D01*
X106352090Y-97866460D01*
X106352086Y-97866467D01*
X106259188Y-98040266D01*
X106201975Y-98228870D01*
X106182659Y-98425000D01*
X105760000Y-98425000D01*
X105760000Y-89408000D01*
X107298540Y-89408000D01*
X107318326Y-89596256D01*
X107318327Y-89596259D01*
X107376818Y-89776277D01*
X107376821Y-89776284D01*
X107471467Y-89940216D01*
X107578390Y-90058966D01*
X107598129Y-90080888D01*
X107751265Y-90192148D01*
X107751270Y-90192151D01*
X107837601Y-90230589D01*
X107874846Y-90256187D01*
X107958566Y-90339907D01*
X107992051Y-90401230D01*
X107987067Y-90470922D01*
X107973989Y-90496477D01*
X107940627Y-90546408D01*
X107940616Y-90546423D01*
X107940410Y-90546731D01*
X107940407Y-90546737D01*
X107891191Y-90665555D01*
X107891189Y-90665561D01*
X107876888Y-90737458D01*
X107844503Y-90799369D01*
X107805250Y-90824075D01*
X107806211Y-90826134D01*
X107799669Y-90829184D01*
X107650342Y-90921289D01*
X107526289Y-91045342D01*
X107434187Y-91194663D01*
X107434186Y-91194666D01*
X107379001Y-91361203D01*
X107379001Y-91361204D01*
X107379000Y-91361204D01*
X107368500Y-91463983D01*
X107368500Y-94464001D01*
X107368501Y-94464018D01*
X107379000Y-94566796D01*
X107379001Y-94566799D01*
X107416513Y-94680001D01*
X107434186Y-94733334D01*
X107526288Y-94882656D01*
X107650344Y-95006712D01*
X107799666Y-95098814D01*
X107966203Y-95153999D01*
X108068991Y-95164500D01*
X108738736Y-95164499D01*
X108805775Y-95184183D01*
X108851530Y-95236987D01*
X108861474Y-95306146D01*
X108832449Y-95369702D01*
X108774626Y-95406861D01*
X108774630Y-95406871D01*
X108774593Y-95406883D01*
X108773671Y-95407476D01*
X108769980Y-95408411D01*
X108601668Y-95464185D01*
X108601663Y-95464187D01*
X108452342Y-95556289D01*
X108328289Y-95680342D01*
X108236187Y-95829663D01*
X108236185Y-95829668D01*
X108209635Y-95909790D01*
X108181001Y-95996203D01*
X108181001Y-95996204D01*
X108181000Y-95996204D01*
X108170500Y-96098983D01*
X108170500Y-97449001D01*
X108170501Y-97449018D01*
X108181000Y-97551796D01*
X108181001Y-97551799D01*
X108231107Y-97703008D01*
X108236186Y-97718334D01*
X108328288Y-97867656D01*
X108452344Y-97991712D01*
X108601666Y-98083814D01*
X108768203Y-98138999D01*
X108870991Y-98149500D01*
X109771008Y-98149499D01*
X109771016Y-98149498D01*
X109771019Y-98149498D01*
X109841795Y-98142268D01*
X109873797Y-98138999D01*
X110040334Y-98083814D01*
X110189656Y-97991712D01*
X110313712Y-97867656D01*
X110405814Y-97718334D01*
X110460999Y-97551797D01*
X110471500Y-97449009D01*
X110471499Y-96274041D01*
X110491184Y-96207003D01*
X110543987Y-96161248D01*
X110578295Y-96151879D01*
X110578289Y-96151851D01*
X110578791Y-96151744D01*
X110582535Y-96150722D01*
X110584643Y-96150500D01*
X110584646Y-96150500D01*
X110769803Y-96111144D01*
X110942730Y-96034151D01*
X111079496Y-95934784D01*
X111145302Y-95911305D01*
X111213356Y-95927130D01*
X111262051Y-95977236D01*
X111275926Y-96045714D01*
X111275739Y-96047705D01*
X111270500Y-96098981D01*
X111270500Y-97449001D01*
X111270501Y-97449018D01*
X111281000Y-97551796D01*
X111281001Y-97551799D01*
X111331107Y-97703008D01*
X111336186Y-97718334D01*
X111428288Y-97867656D01*
X111552344Y-97991712D01*
X111701666Y-98083814D01*
X111868203Y-98138999D01*
X111970991Y-98149500D01*
X112871008Y-98149499D01*
X112871016Y-98149498D01*
X112871019Y-98149498D01*
X112941795Y-98142268D01*
X112973797Y-98138999D01*
X113140334Y-98083814D01*
X113289656Y-97991712D01*
X113413712Y-97867656D01*
X113505814Y-97718334D01*
X113520247Y-97674775D01*
X113560019Y-97617331D01*
X113624535Y-97590508D01*
X113688387Y-97600500D01*
X113766197Y-97635144D01*
X113951354Y-97674500D01*
X113951355Y-97674500D01*
X114140644Y-97674500D01*
X114140646Y-97674500D01*
X114325803Y-97635144D01*
X114498730Y-97558151D01*
X114651871Y-97446888D01*
X114700950Y-97392379D01*
X114760436Y-97355731D01*
X114830293Y-97357061D01*
X114888342Y-97395948D01*
X114916152Y-97460045D01*
X114917100Y-97475352D01*
X114917100Y-98738197D01*
X114897415Y-98805236D01*
X114880781Y-98825878D01*
X112395858Y-101310800D01*
X112395854Y-101310805D01*
X112329874Y-101409555D01*
X112329873Y-101409557D01*
X112324405Y-101417739D01*
X112275192Y-101536551D01*
X112275189Y-101536561D01*
X112250100Y-101662692D01*
X112250100Y-101662695D01*
X112250100Y-106109305D01*
X112250100Y-106109306D01*
X112250099Y-106109306D01*
X112262400Y-106171140D01*
X112262400Y-106171141D01*
X112275189Y-106235436D01*
X112275191Y-106235444D01*
X112317210Y-106336888D01*
X112324408Y-106354264D01*
X112379952Y-106437393D01*
X112395862Y-106461204D01*
X112395863Y-106461205D01*
X113737781Y-107803121D01*
X113771266Y-107864444D01*
X113774100Y-107890802D01*
X113774100Y-110517868D01*
X113754415Y-110584907D01*
X113722985Y-110618186D01*
X113547214Y-110745890D01*
X113547209Y-110745894D01*
X113396890Y-110896213D01*
X113271949Y-111068182D01*
X113267202Y-111077499D01*
X113219227Y-111128293D01*
X113151405Y-111145087D01*
X113085271Y-111122548D01*
X113046234Y-111077495D01*
X113041622Y-111068444D01*
X112916727Y-110896540D01*
X112916723Y-110896535D01*
X112766464Y-110746276D01*
X112766459Y-110746272D01*
X112594557Y-110621379D01*
X112405215Y-110524903D01*
X112203124Y-110459241D01*
X112137000Y-110448768D01*
X112137000Y-112342988D01*
X112079993Y-112310075D01*
X111952826Y-112276000D01*
X111821174Y-112276000D01*
X111694007Y-112310075D01*
X111637000Y-112342988D01*
X111637000Y-110448768D01*
X111636999Y-110448768D01*
X111570875Y-110459241D01*
X111368784Y-110524903D01*
X111179442Y-110621379D01*
X111007540Y-110746272D01*
X111007535Y-110746276D01*
X110857276Y-110896535D01*
X110857272Y-110896540D01*
X110732379Y-111068442D01*
X110635904Y-111257782D01*
X110570242Y-111459869D01*
X110570242Y-111459872D01*
X110537000Y-111669753D01*
X110537000Y-112526000D01*
X111453988Y-112526000D01*
X111421075Y-112583007D01*
X111387000Y-112710174D01*
X111387000Y-112841826D01*
X111421075Y-112968993D01*
X111453988Y-113026000D01*
X110537000Y-113026000D01*
X110537000Y-113882246D01*
X110570242Y-114092127D01*
X110570242Y-114092130D01*
X110635904Y-114294217D01*
X110732379Y-114483557D01*
X110857272Y-114655459D01*
X110857276Y-114655464D01*
X111007535Y-114805723D01*
X111007540Y-114805727D01*
X111179442Y-114930620D01*
X111368782Y-115027095D01*
X111570871Y-115092757D01*
X111637000Y-115103231D01*
X111637000Y-113209012D01*
X111694007Y-113241925D01*
X111821174Y-113276000D01*
X111952826Y-113276000D01*
X112079993Y-113241925D01*
X112137000Y-113209012D01*
X112137000Y-115103230D01*
X112203126Y-115092757D01*
X112203129Y-115092757D01*
X112405217Y-115027095D01*
X112594557Y-114930620D01*
X112766459Y-114805727D01*
X112766464Y-114805723D01*
X112916723Y-114655464D01*
X112916727Y-114655459D01*
X113041620Y-114483558D01*
X113046232Y-114474507D01*
X113094205Y-114423709D01*
X113162025Y-114406912D01*
X113228161Y-114429447D01*
X113267204Y-114474504D01*
X113271949Y-114483817D01*
X113396890Y-114655786D01*
X113547213Y-114806109D01*
X113719179Y-114931048D01*
X113719181Y-114931049D01*
X113719184Y-114931051D01*
X113908588Y-115027557D01*
X114110757Y-115093246D01*
X114320713Y-115126500D01*
X114320714Y-115126500D01*
X114533286Y-115126500D01*
X114533287Y-115126500D01*
X114743243Y-115093246D01*
X114945412Y-115027557D01*
X115134816Y-114931051D01*
X115156789Y-114915086D01*
X115306786Y-114806109D01*
X115306788Y-114806106D01*
X115306792Y-114806104D01*
X115457104Y-114655792D01*
X115457106Y-114655788D01*
X115457109Y-114655786D01*
X115582048Y-114483820D01*
X115582047Y-114483820D01*
X115582051Y-114483816D01*
X115586514Y-114475054D01*
X115634488Y-114424259D01*
X115702308Y-114407463D01*
X115768444Y-114429999D01*
X115807486Y-114475056D01*
X115811951Y-114483820D01*
X115936890Y-114655786D01*
X116087213Y-114806109D01*
X116259179Y-114931048D01*
X116259181Y-114931049D01*
X116259184Y-114931051D01*
X116448588Y-115027557D01*
X116650757Y-115093246D01*
X116860713Y-115126500D01*
X116860714Y-115126500D01*
X117073286Y-115126500D01*
X117073287Y-115126500D01*
X117283243Y-115093246D01*
X117485412Y-115027557D01*
X117674816Y-114931051D01*
X117696789Y-114915086D01*
X117846786Y-114806109D01*
X117846788Y-114806106D01*
X117846792Y-114806104D01*
X117997104Y-114655792D01*
X117997106Y-114655788D01*
X117997109Y-114655786D01*
X118122048Y-114483820D01*
X118122047Y-114483820D01*
X118122051Y-114483816D01*
X118126514Y-114475054D01*
X118174488Y-114424259D01*
X118242308Y-114407463D01*
X118308444Y-114429999D01*
X118347486Y-114475056D01*
X118351951Y-114483820D01*
X118476890Y-114655786D01*
X118627213Y-114806109D01*
X118799179Y-114931048D01*
X118799181Y-114931049D01*
X118799184Y-114931051D01*
X118988588Y-115027557D01*
X119190757Y-115093246D01*
X119400713Y-115126500D01*
X119400714Y-115126500D01*
X119613286Y-115126500D01*
X119613287Y-115126500D01*
X119823243Y-115093246D01*
X120025412Y-115027557D01*
X120214816Y-114931051D01*
X120236789Y-114915086D01*
X120386786Y-114806109D01*
X120386788Y-114806106D01*
X120386792Y-114806104D01*
X120537104Y-114655792D01*
X120537106Y-114655788D01*
X120537109Y-114655786D01*
X120662048Y-114483820D01*
X120662047Y-114483820D01*
X120662051Y-114483816D01*
X120666514Y-114475054D01*
X120714488Y-114424259D01*
X120782308Y-114407463D01*
X120848444Y-114429999D01*
X120887486Y-114475056D01*
X120891951Y-114483820D01*
X121016890Y-114655786D01*
X121167213Y-114806109D01*
X121339179Y-114931048D01*
X121339181Y-114931049D01*
X121339184Y-114931051D01*
X121528588Y-115027557D01*
X121730757Y-115093246D01*
X121940713Y-115126500D01*
X121940714Y-115126500D01*
X122153286Y-115126500D01*
X122153287Y-115126500D01*
X122363243Y-115093246D01*
X122565412Y-115027557D01*
X122754816Y-114931051D01*
X122776789Y-114915086D01*
X122926786Y-114806109D01*
X122926788Y-114806106D01*
X122926792Y-114806104D01*
X123077104Y-114655792D01*
X123077106Y-114655788D01*
X123077109Y-114655786D01*
X123202048Y-114483820D01*
X123202047Y-114483820D01*
X123202051Y-114483816D01*
X123206514Y-114475054D01*
X123254488Y-114424259D01*
X123322308Y-114407463D01*
X123388444Y-114429999D01*
X123427486Y-114475056D01*
X123431951Y-114483820D01*
X123556890Y-114655786D01*
X123707213Y-114806109D01*
X123879179Y-114931048D01*
X123879181Y-114931049D01*
X123879184Y-114931051D01*
X124068588Y-115027557D01*
X124270757Y-115093246D01*
X124480713Y-115126500D01*
X124480714Y-115126500D01*
X124693286Y-115126500D01*
X124693287Y-115126500D01*
X124903243Y-115093246D01*
X125105412Y-115027557D01*
X125294816Y-114931051D01*
X125316789Y-114915086D01*
X125466786Y-114806109D01*
X125466788Y-114806106D01*
X125466792Y-114806104D01*
X125617104Y-114655792D01*
X125617106Y-114655788D01*
X125617109Y-114655786D01*
X125742048Y-114483820D01*
X125742047Y-114483820D01*
X125742051Y-114483816D01*
X125746514Y-114475054D01*
X125794488Y-114424259D01*
X125862308Y-114407463D01*
X125928444Y-114429999D01*
X125967486Y-114475056D01*
X125971951Y-114483820D01*
X126096890Y-114655786D01*
X126247213Y-114806109D01*
X126419179Y-114931048D01*
X126419181Y-114931049D01*
X126419184Y-114931051D01*
X126608588Y-115027557D01*
X126810757Y-115093246D01*
X127020713Y-115126500D01*
X127020714Y-115126500D01*
X127233286Y-115126500D01*
X127233287Y-115126500D01*
X127443243Y-115093246D01*
X127645412Y-115027557D01*
X127834816Y-114931051D01*
X127856789Y-114915086D01*
X128006786Y-114806109D01*
X128006788Y-114806106D01*
X128006792Y-114806104D01*
X128157104Y-114655792D01*
X128157106Y-114655788D01*
X128157109Y-114655786D01*
X128282048Y-114483820D01*
X128282047Y-114483820D01*
X128282051Y-114483816D01*
X128286514Y-114475054D01*
X128334488Y-114424259D01*
X128402308Y-114407463D01*
X128468444Y-114429999D01*
X128507486Y-114475056D01*
X128511951Y-114483820D01*
X128636890Y-114655786D01*
X128787213Y-114806109D01*
X128959179Y-114931048D01*
X128959181Y-114931049D01*
X128959184Y-114931051D01*
X129148588Y-115027557D01*
X129350757Y-115093246D01*
X129560713Y-115126500D01*
X129560714Y-115126500D01*
X129773286Y-115126500D01*
X129773287Y-115126500D01*
X129983243Y-115093246D01*
X130185412Y-115027557D01*
X130374816Y-114931051D01*
X130396789Y-114915086D01*
X130546786Y-114806109D01*
X130546788Y-114806106D01*
X130546792Y-114806104D01*
X130697104Y-114655792D01*
X130697106Y-114655788D01*
X130697109Y-114655786D01*
X130822048Y-114483820D01*
X130822047Y-114483820D01*
X130822051Y-114483816D01*
X130826514Y-114475054D01*
X130874488Y-114424259D01*
X130942308Y-114407463D01*
X131008444Y-114429999D01*
X131047486Y-114475056D01*
X131051951Y-114483820D01*
X131176890Y-114655786D01*
X131327213Y-114806109D01*
X131499179Y-114931048D01*
X131499181Y-114931049D01*
X131499184Y-114931051D01*
X131688588Y-115027557D01*
X131890757Y-115093246D01*
X132100713Y-115126500D01*
X132100714Y-115126500D01*
X132313286Y-115126500D01*
X132313287Y-115126500D01*
X132523243Y-115093246D01*
X132725412Y-115027557D01*
X132914816Y-114931051D01*
X132936789Y-114915086D01*
X133086786Y-114806109D01*
X133086788Y-114806106D01*
X133086792Y-114806104D01*
X133237104Y-114655792D01*
X133237106Y-114655788D01*
X133237109Y-114655786D01*
X133362048Y-114483820D01*
X133362051Y-114483816D01*
X133366793Y-114474508D01*
X133414763Y-114423711D01*
X133482583Y-114406911D01*
X133548719Y-114429445D01*
X133587763Y-114474500D01*
X133592377Y-114483555D01*
X133717272Y-114655459D01*
X133717276Y-114655464D01*
X133867535Y-114805723D01*
X133867540Y-114805727D01*
X134039442Y-114930620D01*
X134228782Y-115027095D01*
X134430871Y-115092757D01*
X134497000Y-115103231D01*
X134497000Y-113209012D01*
X134554007Y-113241925D01*
X134681174Y-113276000D01*
X134812826Y-113276000D01*
X134939993Y-113241925D01*
X134997000Y-113209012D01*
X134997000Y-115103230D01*
X135063126Y-115092757D01*
X135063129Y-115092757D01*
X135265217Y-115027095D01*
X135454557Y-114930620D01*
X135626459Y-114805727D01*
X135626464Y-114805723D01*
X135776723Y-114655464D01*
X135776727Y-114655459D01*
X135901620Y-114483557D01*
X135998095Y-114294217D01*
X136063757Y-114092130D01*
X136063757Y-114092127D01*
X136097000Y-113882246D01*
X136097000Y-113026000D01*
X135180012Y-113026000D01*
X135212925Y-112968993D01*
X135247000Y-112841826D01*
X135247000Y-112710174D01*
X135212925Y-112583007D01*
X135180012Y-112526000D01*
X136097000Y-112526000D01*
X136097000Y-111669753D01*
X136063757Y-111459872D01*
X136063757Y-111459869D01*
X135998095Y-111257782D01*
X135901620Y-111068442D01*
X135776727Y-110896540D01*
X135776723Y-110896535D01*
X135626464Y-110746276D01*
X135626459Y-110746272D01*
X135454557Y-110621379D01*
X135265215Y-110524903D01*
X135063124Y-110459241D01*
X134997000Y-110448768D01*
X134997000Y-112342988D01*
X134939993Y-112310075D01*
X134812826Y-112276000D01*
X134681174Y-112276000D01*
X134554007Y-112310075D01*
X134497000Y-112342988D01*
X134497000Y-110448768D01*
X134496999Y-110448768D01*
X134430875Y-110459241D01*
X134228784Y-110524903D01*
X134039442Y-110621379D01*
X133867540Y-110746272D01*
X133867535Y-110746276D01*
X133717276Y-110896535D01*
X133717272Y-110896540D01*
X133592378Y-111068443D01*
X133587762Y-111077502D01*
X133539784Y-111128295D01*
X133471963Y-111145087D01*
X133405829Y-111122546D01*
X133366794Y-111077493D01*
X133362051Y-111068184D01*
X133362049Y-111068181D01*
X133362048Y-111068179D01*
X133237109Y-110896213D01*
X133086786Y-110745890D01*
X132914820Y-110620951D01*
X132725414Y-110524444D01*
X132725413Y-110524443D01*
X132725412Y-110524443D01*
X132523243Y-110458754D01*
X132523241Y-110458753D01*
X132523240Y-110458753D01*
X132359049Y-110432748D01*
X132313287Y-110425500D01*
X132100713Y-110425500D01*
X132054951Y-110432748D01*
X131890760Y-110458753D01*
X131688585Y-110524444D01*
X131499179Y-110620951D01*
X131327213Y-110745890D01*
X131176890Y-110896213D01*
X131051949Y-111068182D01*
X131047484Y-111076946D01*
X130999509Y-111127742D01*
X130931688Y-111144536D01*
X130865553Y-111121998D01*
X130826516Y-111076946D01*
X130822050Y-111068182D01*
X130697109Y-110896213D01*
X130591799Y-110790903D01*
X130558314Y-110729580D01*
X130563298Y-110659888D01*
X130591799Y-110615541D01*
X131063139Y-110144201D01*
X131063141Y-110144199D01*
X131134592Y-110037264D01*
X131183809Y-109918444D01*
X131187462Y-109900075D01*
X131192865Y-109872918D01*
X131192865Y-109872914D01*
X131192868Y-109872900D01*
X131193520Y-109869621D01*
X131225896Y-109807709D01*
X131286608Y-109773127D01*
X131356378Y-109776858D01*
X131380234Y-109788260D01*
X131386873Y-109792354D01*
X131386880Y-109792358D01*
X131553302Y-109847505D01*
X131553309Y-109847506D01*
X131656019Y-109857999D01*
X131868499Y-109857999D01*
X131868500Y-109857998D01*
X131868500Y-108708000D01*
X132368500Y-108708000D01*
X132368500Y-109857999D01*
X132580972Y-109857999D01*
X132580986Y-109857998D01*
X132683697Y-109847505D01*
X132850119Y-109792358D01*
X132850124Y-109792356D01*
X132999345Y-109700315D01*
X133123315Y-109576345D01*
X133215356Y-109427124D01*
X133215358Y-109427119D01*
X133270505Y-109260697D01*
X133270506Y-109260690D01*
X133280999Y-109157986D01*
X133281000Y-109157973D01*
X133281000Y-108708000D01*
X132368500Y-108708000D01*
X131868500Y-108708000D01*
X131868500Y-107058000D01*
X131656029Y-107058000D01*
X131656012Y-107058001D01*
X131553302Y-107068494D01*
X131386871Y-107123644D01*
X131385294Y-107124380D01*
X131384109Y-107124559D01*
X131380023Y-107125914D01*
X131379791Y-107125215D01*
X131316215Y-107134865D01*
X131252434Y-107106339D01*
X131214200Y-107047859D01*
X131208900Y-107011993D01*
X131208900Y-105928000D01*
X131698000Y-105928000D01*
X131698000Y-106129096D01*
X131700897Y-106171824D01*
X131746831Y-106356523D01*
X131831390Y-106527022D01*
X131831392Y-106527025D01*
X131950632Y-106675366D01*
X131950633Y-106675367D01*
X132098974Y-106794607D01*
X132098977Y-106794609D01*
X132269476Y-106879168D01*
X132269481Y-106879170D01*
X132279151Y-106881575D01*
X132339459Y-106916856D01*
X132371119Y-106979141D01*
X132368334Y-107006638D01*
X132368500Y-107006638D01*
X132368500Y-108208000D01*
X133280999Y-108208000D01*
X133280999Y-108204000D01*
X134376659Y-108204000D01*
X134395975Y-108400129D01*
X134453188Y-108588733D01*
X134546086Y-108762532D01*
X134546090Y-108762539D01*
X134671116Y-108914883D01*
X134823460Y-109039909D01*
X134823467Y-109039913D01*
X134997266Y-109132811D01*
X134997269Y-109132811D01*
X134997273Y-109132814D01*
X135185868Y-109190024D01*
X135382000Y-109209341D01*
X135578132Y-109190024D01*
X135766727Y-109132814D01*
X135940538Y-109039910D01*
X136092883Y-108914883D01*
X136217910Y-108762538D01*
X136310814Y-108588727D01*
X136368024Y-108400132D01*
X136387341Y-108204000D01*
X136368024Y-108007868D01*
X136310814Y-107819273D01*
X136310811Y-107819269D01*
X136310811Y-107819266D01*
X136217913Y-107645467D01*
X136217909Y-107645460D01*
X136092883Y-107493116D01*
X135940539Y-107368090D01*
X135940532Y-107368086D01*
X135766733Y-107275188D01*
X135766727Y-107275186D01*
X135578132Y-107217976D01*
X135578129Y-107217975D01*
X135382000Y-107198659D01*
X135185870Y-107217975D01*
X134997266Y-107275188D01*
X134823467Y-107368086D01*
X134823460Y-107368090D01*
X134671116Y-107493116D01*
X134546090Y-107645460D01*
X134546086Y-107645467D01*
X134453188Y-107819266D01*
X134395975Y-108007870D01*
X134376659Y-108204000D01*
X133280999Y-108204000D01*
X133280999Y-107758028D01*
X133280998Y-107758013D01*
X133270505Y-107655302D01*
X133215358Y-107488880D01*
X133215356Y-107488875D01*
X133123315Y-107339654D01*
X132999345Y-107215684D01*
X132905077Y-107157539D01*
X132858353Y-107105591D01*
X132847130Y-107036628D01*
X132874974Y-106972546D01*
X132933043Y-106933690D01*
X132943987Y-106932012D01*
X132948000Y-106928000D01*
X132948000Y-105928000D01*
X133448000Y-105928000D01*
X133448000Y-106928000D01*
X133899097Y-106928000D01*
X133941824Y-106925102D01*
X134126523Y-106879168D01*
X134297022Y-106794609D01*
X134297025Y-106794607D01*
X134445366Y-106675367D01*
X134445367Y-106675366D01*
X134564607Y-106527025D01*
X134564609Y-106527022D01*
X134649168Y-106356523D01*
X134695102Y-106171824D01*
X134698000Y-106129096D01*
X134698000Y-105928000D01*
X133448000Y-105928000D01*
X132948000Y-105928000D01*
X131698000Y-105928000D01*
X131208900Y-105928000D01*
X131208900Y-104622231D01*
X131228585Y-104555192D01*
X131281389Y-104509437D01*
X131307110Y-104500943D01*
X131343803Y-104493144D01*
X131516730Y-104416151D01*
X131669871Y-104304888D01*
X131690434Y-104282050D01*
X131749920Y-104245402D01*
X131819777Y-104246731D01*
X131877825Y-104285617D01*
X131879158Y-104287244D01*
X131931952Y-104352923D01*
X131950280Y-104375724D01*
X132019884Y-104431673D01*
X132059803Y-104489016D01*
X132062383Y-104558838D01*
X132026804Y-104618971D01*
X132019885Y-104624967D01*
X131950631Y-104680635D01*
X131831392Y-104828974D01*
X131831390Y-104828977D01*
X131746831Y-104999476D01*
X131700897Y-105184175D01*
X131698000Y-105226903D01*
X131698000Y-105428000D01*
X134698000Y-105428000D01*
X134698000Y-105226903D01*
X134695102Y-105184175D01*
X134649168Y-104999476D01*
X134564609Y-104828977D01*
X134564607Y-104828974D01*
X134445367Y-104680633D01*
X134445366Y-104680632D01*
X134376115Y-104624967D01*
X134336196Y-104567624D01*
X134333616Y-104497802D01*
X134369194Y-104437669D01*
X134376089Y-104431694D01*
X134445722Y-104375722D01*
X134565030Y-104227296D01*
X134566962Y-104223401D01*
X134632947Y-104090354D01*
X134680368Y-104039041D01*
X134719844Y-104023831D01*
X134747312Y-104018366D01*
X134810444Y-104005809D01*
X134929264Y-103956592D01*
X134952204Y-103941264D01*
X135036200Y-103885141D01*
X135889141Y-103032199D01*
X135960592Y-102925264D01*
X136009809Y-102806443D01*
X136010244Y-102804256D01*
X136034900Y-102680305D01*
X136034900Y-98765843D01*
X136046106Y-98714331D01*
X136048833Y-98708360D01*
X136068517Y-98665259D01*
X136109024Y-98527304D01*
X136129500Y-98384889D01*
X136129500Y-97813000D01*
X136124355Y-97741060D01*
X136113396Y-97703740D01*
X136109636Y-97651158D01*
X136110120Y-97647794D01*
X136129500Y-97513000D01*
X136129500Y-96941111D01*
X136109024Y-96798696D01*
X136068517Y-96660741D01*
X136008747Y-96529863D01*
X135934623Y-96414523D01*
X135933802Y-96413081D01*
X135931011Y-96408901D01*
X135836793Y-96300170D01*
X135805363Y-96272935D01*
X135767589Y-96214156D01*
X135763246Y-96166265D01*
X135779460Y-96012000D01*
X135759674Y-95823744D01*
X135701179Y-95643716D01*
X135606533Y-95479784D01*
X135479871Y-95339112D01*
X135450034Y-95317434D01*
X135321473Y-95224029D01*
X135323028Y-95221888D01*
X135282921Y-95179840D01*
X135269685Y-95111235D01*
X135295642Y-95046366D01*
X135322370Y-95023205D01*
X135321473Y-95021971D01*
X135391879Y-94970817D01*
X135479871Y-94906888D01*
X135606533Y-94766216D01*
X135701179Y-94602284D01*
X135759674Y-94422256D01*
X135779460Y-94234000D01*
X135759674Y-94045744D01*
X135701179Y-93865716D01*
X135606533Y-93701784D01*
X135479871Y-93561112D01*
X135415656Y-93514457D01*
X135372992Y-93459128D01*
X135367013Y-93389514D01*
X135399619Y-93327719D01*
X135453606Y-93295164D01*
X135476309Y-93288498D01*
X135607094Y-93228770D01*
X135728130Y-93150986D01*
X135836791Y-93056832D01*
X135836794Y-93056829D01*
X135931015Y-92948091D01*
X136008747Y-92827137D01*
X136068517Y-92696259D01*
X136109024Y-92558304D01*
X136129500Y-92415889D01*
X136129500Y-91844000D01*
X136124355Y-91772060D01*
X136120737Y-91759740D01*
X136113397Y-91734741D01*
X136109636Y-91682158D01*
X136110806Y-91674019D01*
X136129500Y-91544000D01*
X136129500Y-90972111D01*
X136109024Y-90829696D01*
X136068517Y-90691741D01*
X136008747Y-90560863D01*
X135999457Y-90546408D01*
X135934623Y-90445523D01*
X135933802Y-90444081D01*
X135931011Y-90439901D01*
X135836792Y-90331169D01*
X135836789Y-90331166D01*
X135728135Y-90237018D01*
X135728132Y-90237015D01*
X135670534Y-90200000D01*
X135607094Y-90159230D01*
X135607087Y-90159227D01*
X135607081Y-90159223D01*
X135482356Y-90102263D01*
X135478057Y-90100014D01*
X135338261Y-90058966D01*
X135338251Y-90058963D01*
X135210300Y-90040567D01*
X135195941Y-90038503D01*
X135195940Y-90038503D01*
X135139601Y-90038503D01*
X135139591Y-90038500D01*
X135088236Y-90038500D01*
X134843202Y-90038500D01*
X134776163Y-90018815D01*
X134755521Y-90002181D01*
X133842205Y-89088863D01*
X133842204Y-89088862D01*
X133842200Y-89088859D01*
X133735264Y-89017408D01*
X133670551Y-88990603D01*
X133661549Y-88986874D01*
X133607146Y-88943033D01*
X133591295Y-88911315D01*
X133587546Y-88900000D01*
X133579814Y-88876666D01*
X133487712Y-88727344D01*
X133363656Y-88603288D01*
X133214334Y-88511186D01*
X133047797Y-88456001D01*
X133047795Y-88456000D01*
X132945010Y-88445500D01*
X129944998Y-88445500D01*
X129944981Y-88445501D01*
X129842203Y-88456000D01*
X129842200Y-88456001D01*
X129675668Y-88511185D01*
X129675663Y-88511187D01*
X129526342Y-88603289D01*
X129402289Y-88727342D01*
X129310187Y-88876663D01*
X129310186Y-88876667D01*
X129255001Y-89043203D01*
X129255001Y-89043204D01*
X129255000Y-89043204D01*
X129244500Y-89145983D01*
X129244500Y-89454480D01*
X129224815Y-89521519D01*
X129172011Y-89567274D01*
X129102853Y-89577218D01*
X129070067Y-89567761D01*
X129056802Y-89561855D01*
X128911001Y-89530865D01*
X128871646Y-89522500D01*
X128682354Y-89522500D01*
X128610420Y-89537790D01*
X128516283Y-89557799D01*
X128446615Y-89552483D01*
X128393852Y-89514191D01*
X128391159Y-89510841D01*
X128371745Y-89495236D01*
X128251209Y-89398346D01*
X128090350Y-89318567D01*
X127916102Y-89275234D01*
X127916103Y-89275234D01*
X127891910Y-89273593D01*
X127875784Y-89272500D01*
X126632216Y-89272500D01*
X126616089Y-89273593D01*
X126591897Y-89275234D01*
X126417649Y-89318567D01*
X126256790Y-89398346D01*
X126225689Y-89423346D01*
X126161104Y-89450004D01*
X126092360Y-89437513D01*
X126041282Y-89389839D01*
X126024088Y-89322118D01*
X126046235Y-89255851D01*
X126060316Y-89239023D01*
X126989521Y-88309819D01*
X127050844Y-88276334D01*
X127077202Y-88273500D01*
X127875782Y-88273500D01*
X127875784Y-88273500D01*
X127916100Y-88270766D01*
X128090349Y-88227433D01*
X128251210Y-88147653D01*
X128391159Y-88035159D01*
X128503653Y-87895210D01*
X128583433Y-87734349D01*
X128626766Y-87560100D01*
X128629500Y-87519784D01*
X128629500Y-86985467D01*
X128649185Y-86918428D01*
X128701989Y-86872673D01*
X128771147Y-86862729D01*
X128826387Y-86885150D01*
X128833269Y-86890150D01*
X128833270Y-86890151D01*
X129006192Y-86967142D01*
X129006197Y-86967144D01*
X129191354Y-87006500D01*
X129191355Y-87006500D01*
X129380644Y-87006500D01*
X129380646Y-87006500D01*
X129509882Y-86979030D01*
X129579546Y-86984346D01*
X129635279Y-87026483D01*
X129641198Y-87035222D01*
X129664288Y-87072656D01*
X129788344Y-87196712D01*
X129937666Y-87288814D01*
X130104203Y-87343999D01*
X130206991Y-87354500D01*
X131107008Y-87354499D01*
X131107016Y-87354498D01*
X131107019Y-87354498D01*
X131166205Y-87348452D01*
X131209797Y-87343999D01*
X131376334Y-87288814D01*
X131525656Y-87196712D01*
X131649712Y-87072656D01*
X131741814Y-86923334D01*
X131796999Y-86756797D01*
X131807500Y-86654009D01*
X131807500Y-86229000D01*
X132607001Y-86229000D01*
X132607001Y-86653986D01*
X132617494Y-86756697D01*
X132672641Y-86923119D01*
X132672643Y-86923124D01*
X132764684Y-87072345D01*
X132888654Y-87196315D01*
X133037875Y-87288356D01*
X133037880Y-87288358D01*
X133204302Y-87343505D01*
X133204309Y-87343506D01*
X133307019Y-87353999D01*
X133506999Y-87353999D01*
X133507000Y-87353998D01*
X133507000Y-86229000D01*
X134007000Y-86229000D01*
X134007000Y-87353999D01*
X134206972Y-87353999D01*
X134206986Y-87353998D01*
X134309697Y-87343505D01*
X134476119Y-87288358D01*
X134476124Y-87288356D01*
X134625345Y-87196315D01*
X134749315Y-87072345D01*
X134841356Y-86923124D01*
X134841358Y-86923119D01*
X134896505Y-86756697D01*
X134896506Y-86756690D01*
X134906999Y-86653986D01*
X134907000Y-86653973D01*
X134907000Y-86229000D01*
X134007000Y-86229000D01*
X133507000Y-86229000D01*
X132607001Y-86229000D01*
X131807500Y-86229000D01*
X131807499Y-85729000D01*
X132607000Y-85729000D01*
X133507000Y-85729000D01*
X133507000Y-84604000D01*
X134007000Y-84604000D01*
X134007000Y-85729000D01*
X134906999Y-85729000D01*
X134906999Y-85304028D01*
X134906998Y-85304013D01*
X134896505Y-85201302D01*
X134841358Y-85034880D01*
X134841356Y-85034875D01*
X134749315Y-84885654D01*
X134625345Y-84761684D01*
X134476124Y-84669643D01*
X134476119Y-84669641D01*
X134309697Y-84614494D01*
X134309690Y-84614493D01*
X134206986Y-84604000D01*
X134007000Y-84604000D01*
X133507000Y-84604000D01*
X133307029Y-84604000D01*
X133307012Y-84604001D01*
X133204302Y-84614494D01*
X133037880Y-84669641D01*
X133037875Y-84669643D01*
X132888654Y-84761684D01*
X132764684Y-84885654D01*
X132672643Y-85034875D01*
X132672641Y-85034880D01*
X132617494Y-85201302D01*
X132617493Y-85201309D01*
X132607000Y-85304013D01*
X132607000Y-85729000D01*
X131807499Y-85729000D01*
X131807499Y-85303992D01*
X131796999Y-85201203D01*
X131741814Y-85034666D01*
X131649712Y-84885344D01*
X131525656Y-84761288D01*
X131420256Y-84696277D01*
X131376336Y-84669187D01*
X131376331Y-84669185D01*
X131374862Y-84668698D01*
X131209797Y-84614001D01*
X131209795Y-84614000D01*
X131107010Y-84603500D01*
X130206998Y-84603500D01*
X130206980Y-84603501D01*
X130104203Y-84614000D01*
X130104200Y-84614001D01*
X129937668Y-84669185D01*
X129937663Y-84669187D01*
X129788342Y-84761289D01*
X129664289Y-84885342D01*
X129572187Y-85034663D01*
X129572186Y-85034666D01*
X129541613Y-85126929D01*
X129501840Y-85184373D01*
X129437324Y-85211196D01*
X129398129Y-85209215D01*
X129380649Y-85205500D01*
X129380646Y-85205500D01*
X129191354Y-85205500D01*
X129164556Y-85211196D01*
X129006197Y-85244855D01*
X129006192Y-85244857D01*
X128833270Y-85321848D01*
X128833265Y-85321851D01*
X128680129Y-85433111D01*
X128553466Y-85573785D01*
X128458821Y-85737715D01*
X128458818Y-85737722D01*
X128406044Y-85900146D01*
X128400326Y-85917744D01*
X128396640Y-85952815D01*
X128393539Y-85982323D01*
X128366954Y-86046938D01*
X128309657Y-86086922D01*
X128239838Y-86089582D01*
X128215124Y-86080449D01*
X128090352Y-86018568D01*
X128090350Y-86018567D01*
X128090349Y-86018567D01*
X128021623Y-86001476D01*
X127916102Y-85975234D01*
X127916103Y-85975234D01*
X127891910Y-85973593D01*
X127875784Y-85972500D01*
X126725722Y-85972500D01*
X126658683Y-85952815D01*
X126612928Y-85900011D01*
X126602984Y-85830853D01*
X126632009Y-85767297D01*
X126686718Y-85730794D01*
X126692132Y-85729000D01*
X126801334Y-85692814D01*
X126950656Y-85600712D01*
X127074712Y-85476656D01*
X127166814Y-85327334D01*
X127221999Y-85160797D01*
X127232500Y-85058009D01*
X127232499Y-84157992D01*
X127224240Y-84077146D01*
X127221999Y-84055203D01*
X127221998Y-84055200D01*
X127199923Y-83988582D01*
X127166814Y-83888666D01*
X127166808Y-83888656D01*
X127166178Y-83887304D01*
X127166022Y-83886277D01*
X127164542Y-83881811D01*
X127165305Y-83881558D01*
X127155687Y-83818226D01*
X127184208Y-83754442D01*
X127242685Y-83716203D01*
X127278561Y-83710900D01*
X127318307Y-83710900D01*
X127403165Y-83694019D01*
X127444444Y-83685809D01*
X127563264Y-83636592D01*
X127670199Y-83565140D01*
X127761140Y-83474199D01*
X127831885Y-83368321D01*
X127847297Y-83349542D01*
X127972023Y-83224816D01*
X128033344Y-83191333D01*
X128059693Y-83188499D01*
X128948008Y-83188499D01*
X128948016Y-83188498D01*
X128948019Y-83188498D01*
X129004302Y-83182748D01*
X129050797Y-83177999D01*
X129217334Y-83122814D01*
X129366656Y-83030712D01*
X129490712Y-82906656D01*
X129582814Y-82757334D01*
X129637999Y-82590797D01*
X129648500Y-82488009D01*
X129648500Y-82487986D01*
X130448001Y-82487986D01*
X130458494Y-82590697D01*
X130513641Y-82757119D01*
X130513643Y-82757124D01*
X130605684Y-82906345D01*
X130729654Y-83030315D01*
X130878875Y-83122356D01*
X130878880Y-83122358D01*
X131045302Y-83177505D01*
X131045309Y-83177506D01*
X131148019Y-83187999D01*
X131304539Y-83187999D01*
X131371579Y-83207683D01*
X131417334Y-83260487D01*
X131427150Y-83305611D01*
X131427861Y-83305537D01*
X131428540Y-83311998D01*
X131428540Y-83312000D01*
X131448326Y-83500256D01*
X131448327Y-83500259D01*
X131506818Y-83680277D01*
X131506821Y-83680284D01*
X131601467Y-83844216D01*
X131710132Y-83964900D01*
X131728129Y-83984888D01*
X131881265Y-84096148D01*
X131881270Y-84096151D01*
X132054192Y-84173142D01*
X132054197Y-84173144D01*
X132239354Y-84212500D01*
X132239355Y-84212500D01*
X132428644Y-84212500D01*
X132428646Y-84212500D01*
X132613803Y-84173144D01*
X132786730Y-84096151D01*
X132843090Y-84055203D01*
X132934787Y-83988582D01*
X133000593Y-83965102D01*
X133007672Y-83964900D01*
X134064306Y-83964900D01*
X134090805Y-83959628D01*
X134119691Y-83953882D01*
X134143882Y-83951500D01*
X134504573Y-83951500D01*
X134504601Y-83951497D01*
X134560940Y-83951497D01*
X134560941Y-83951497D01*
X134694479Y-83932297D01*
X134694481Y-83932297D01*
X134700612Y-83931415D01*
X134703256Y-83931035D01*
X134703257Y-83931035D01*
X134841309Y-83890498D01*
X134972094Y-83830770D01*
X135093130Y-83752986D01*
X135201791Y-83658832D01*
X135201794Y-83658829D01*
X135296015Y-83550091D01*
X135371908Y-83431999D01*
X135373744Y-83429142D01*
X135373744Y-83429140D01*
X135373747Y-83429137D01*
X135433517Y-83298259D01*
X135474024Y-83160304D01*
X135494500Y-83017889D01*
X135494500Y-82812500D01*
X135514185Y-82745461D01*
X135566989Y-82699706D01*
X135618500Y-82688500D01*
X135730644Y-82688500D01*
X135730646Y-82688500D01*
X135915803Y-82649144D01*
X136088730Y-82572151D01*
X136241871Y-82460888D01*
X136368533Y-82320216D01*
X136463179Y-82156284D01*
X136521674Y-81976256D01*
X136541460Y-81788000D01*
X136521674Y-81599744D01*
X136463179Y-81419716D01*
X136368533Y-81255784D01*
X136241871Y-81115112D01*
X136241870Y-81115111D01*
X136088734Y-81003851D01*
X136088729Y-81003848D01*
X135915807Y-80926857D01*
X135915802Y-80926855D01*
X135758662Y-80893455D01*
X135730646Y-80887500D01*
X135541354Y-80887500D01*
X135513338Y-80893455D01*
X135356197Y-80926855D01*
X135356192Y-80926857D01*
X135321426Y-80942336D01*
X135252176Y-80951620D01*
X135189790Y-80922769D01*
X135093135Y-80839018D01*
X135093132Y-80839015D01*
X135061793Y-80818875D01*
X134972094Y-80761230D01*
X134972087Y-80761227D01*
X134972081Y-80761223D01*
X134847356Y-80704263D01*
X134843057Y-80702014D01*
X134703261Y-80660966D01*
X134703251Y-80660963D01*
X134575300Y-80642567D01*
X134560941Y-80640503D01*
X134560940Y-80640503D01*
X134504601Y-80640503D01*
X134504591Y-80640500D01*
X134453236Y-80640500D01*
X134024764Y-80640500D01*
X133973427Y-80640500D01*
X133973399Y-80640503D01*
X133917059Y-80640503D01*
X133783521Y-80659703D01*
X133783519Y-80659703D01*
X133774744Y-80660964D01*
X133636686Y-80701503D01*
X133505918Y-80761223D01*
X133505908Y-80761228D01*
X133505906Y-80761230D01*
X133472253Y-80782857D01*
X133384867Y-80839015D01*
X133384863Y-80839018D01*
X133276226Y-80933152D01*
X133276207Y-80933169D01*
X133276205Y-80933172D01*
X133260220Y-80951620D01*
X133181985Y-81041909D01*
X133181983Y-81041911D01*
X133181983Y-81041912D01*
X133181981Y-81041915D01*
X133104255Y-81162857D01*
X133104252Y-81162863D01*
X133044483Y-81293741D01*
X133015976Y-81390827D01*
X132978201Y-81449605D01*
X132914646Y-81478630D01*
X132845487Y-81468686D01*
X132792683Y-81422931D01*
X132772999Y-81355892D01*
X132772999Y-81088028D01*
X132772998Y-81088012D01*
X132762505Y-80985302D01*
X132707358Y-80818880D01*
X132707356Y-80818875D01*
X132615315Y-80669654D01*
X132491345Y-80545684D01*
X132342124Y-80453643D01*
X132342119Y-80453641D01*
X132175697Y-80398494D01*
X132175690Y-80398493D01*
X132072986Y-80388000D01*
X131860500Y-80388000D01*
X131860500Y-81914000D01*
X131840815Y-81981039D01*
X131788011Y-82026794D01*
X131736500Y-82038000D01*
X130448001Y-82038000D01*
X130448001Y-82487986D01*
X129648500Y-82487986D01*
X129648499Y-81538000D01*
X130448000Y-81538000D01*
X131360500Y-81538000D01*
X131360500Y-80388000D01*
X131148029Y-80388000D01*
X131148012Y-80388001D01*
X131045302Y-80398494D01*
X130878880Y-80453641D01*
X130878875Y-80453643D01*
X130729654Y-80545684D01*
X130605684Y-80669654D01*
X130513643Y-80818875D01*
X130513641Y-80818880D01*
X130458494Y-80985302D01*
X130458493Y-80985309D01*
X130448000Y-81088013D01*
X130448000Y-81538000D01*
X129648499Y-81538000D01*
X129648499Y-81087992D01*
X129646933Y-81072666D01*
X129637999Y-80985203D01*
X129637998Y-80985200D01*
X129628058Y-80955203D01*
X129582814Y-80818666D01*
X129490712Y-80669344D01*
X129366656Y-80545288D01*
X129217334Y-80453186D01*
X129050797Y-80398001D01*
X129050795Y-80398000D01*
X128948010Y-80387500D01*
X128022998Y-80387500D01*
X128022980Y-80387501D01*
X127920203Y-80398000D01*
X127920200Y-80398001D01*
X127753668Y-80453185D01*
X127753663Y-80453187D01*
X127604342Y-80545289D01*
X127480289Y-80669342D01*
X127460453Y-80701502D01*
X127400139Y-80799288D01*
X127389904Y-80815881D01*
X127337956Y-80862605D01*
X127268993Y-80873828D01*
X127204911Y-80845984D01*
X127170232Y-80795036D01*
X127169408Y-80795421D01*
X127167046Y-80790356D01*
X127166659Y-80789787D01*
X127166359Y-80788882D01*
X127166356Y-80788875D01*
X127074315Y-80639654D01*
X126950345Y-80515684D01*
X126801124Y-80423643D01*
X126801119Y-80423641D01*
X126634697Y-80368494D01*
X126634690Y-80368493D01*
X126531986Y-80358000D01*
X126107000Y-80358000D01*
X126107000Y-81634000D01*
X126087315Y-81701039D01*
X126034511Y-81746794D01*
X125983000Y-81758000D01*
X125731000Y-81758000D01*
X125663961Y-81738315D01*
X125618206Y-81685511D01*
X125607000Y-81634000D01*
X125607000Y-80358000D01*
X125182028Y-80358000D01*
X125182012Y-80358001D01*
X125079302Y-80368494D01*
X124912880Y-80423641D01*
X124912875Y-80423643D01*
X124763654Y-80515684D01*
X124639683Y-80639655D01*
X124629330Y-80656440D01*
X124577381Y-80703163D01*
X124508418Y-80714383D01*
X124444336Y-80686538D01*
X124418255Y-80656438D01*
X124407712Y-80639344D01*
X124283656Y-80515288D01*
X124134334Y-80423186D01*
X123967797Y-80368001D01*
X123967795Y-80368000D01*
X123865010Y-80357500D01*
X122514998Y-80357500D01*
X122514981Y-80357501D01*
X122412203Y-80368000D01*
X122412200Y-80368001D01*
X122245668Y-80423185D01*
X122245663Y-80423187D01*
X122096342Y-80515289D01*
X121972289Y-80639342D01*
X121880187Y-80788663D01*
X121880185Y-80788668D01*
X121870174Y-80818880D01*
X121825001Y-80955203D01*
X121825001Y-80955204D01*
X121825000Y-80955204D01*
X121814500Y-81057983D01*
X121814500Y-81934795D01*
X121794815Y-82001834D01*
X121778181Y-82022476D01*
X121300680Y-82499977D01*
X121239357Y-82533462D01*
X121169665Y-82528478D01*
X121113732Y-82486606D01*
X121089315Y-82421142D01*
X121088999Y-82412295D01*
X121089000Y-82292000D01*
X118764001Y-82292000D01*
X118764001Y-82741971D01*
X118764002Y-82741993D01*
X118767318Y-82774459D01*
X118754547Y-82843151D01*
X118706666Y-82894035D01*
X118638875Y-82910954D01*
X118572700Y-82888537D01*
X118548102Y-82865717D01*
X118546016Y-82863175D01*
X118000818Y-82317977D01*
X117967333Y-82256654D01*
X117964499Y-82230296D01*
X117964499Y-81792000D01*
X118764000Y-81792000D01*
X119676500Y-81792000D01*
X119676500Y-80642000D01*
X120176500Y-80642000D01*
X120176500Y-81792000D01*
X121088999Y-81792000D01*
X121088999Y-81342028D01*
X121088998Y-81342013D01*
X121078505Y-81239302D01*
X121023358Y-81072880D01*
X121023356Y-81072875D01*
X120931315Y-80923654D01*
X120807345Y-80799684D01*
X120658124Y-80707643D01*
X120658119Y-80707641D01*
X120491697Y-80652494D01*
X120491690Y-80652493D01*
X120388986Y-80642000D01*
X120176500Y-80642000D01*
X119676500Y-80642000D01*
X119464029Y-80642000D01*
X119464012Y-80642001D01*
X119361302Y-80652494D01*
X119194880Y-80707641D01*
X119194875Y-80707643D01*
X119045654Y-80799684D01*
X118921684Y-80923654D01*
X118829643Y-81072875D01*
X118829641Y-81072880D01*
X118774494Y-81239302D01*
X118774493Y-81239309D01*
X118764000Y-81342013D01*
X118764000Y-81792000D01*
X117964499Y-81792000D01*
X117964499Y-81341998D01*
X117964498Y-81341981D01*
X117953999Y-81239203D01*
X117953998Y-81239200D01*
X117942045Y-81203128D01*
X117898814Y-81072666D01*
X117806712Y-80923344D01*
X117682656Y-80799288D01*
X117589888Y-80742069D01*
X117533336Y-80707187D01*
X117533331Y-80707185D01*
X117516178Y-80701501D01*
X117366797Y-80652001D01*
X117366795Y-80652000D01*
X117264010Y-80641500D01*
X116338998Y-80641500D01*
X116338980Y-80641501D01*
X116236203Y-80652000D01*
X116236200Y-80652001D01*
X116069668Y-80707185D01*
X116069663Y-80707187D01*
X115920342Y-80799289D01*
X115796289Y-80923342D01*
X115704187Y-81072663D01*
X115704185Y-81072668D01*
X115697194Y-81093766D01*
X115649001Y-81239203D01*
X115649001Y-81239204D01*
X115649000Y-81239204D01*
X115638500Y-81341983D01*
X115638500Y-82742001D01*
X115638501Y-82742018D01*
X115649000Y-82844796D01*
X115649001Y-82844799D01*
X115704185Y-83011331D01*
X115704187Y-83011336D01*
X115716137Y-83030710D01*
X115796288Y-83160656D01*
X115920344Y-83284712D01*
X116069666Y-83376814D01*
X116236203Y-83431999D01*
X116338991Y-83442500D01*
X117227295Y-83442499D01*
X117294334Y-83462183D01*
X117314975Y-83478816D01*
X117349660Y-83513500D01*
X117383146Y-83574823D01*
X117385980Y-83601183D01*
X117385980Y-84212000D01*
X117366295Y-84279039D01*
X117313491Y-84324794D01*
X117261980Y-84336000D01*
X117150295Y-84336000D01*
X117090767Y-84342401D01*
X117090760Y-84342403D01*
X116956053Y-84392645D01*
X116956046Y-84392649D01*
X116840952Y-84478809D01*
X116840949Y-84478812D01*
X116754789Y-84593906D01*
X116754785Y-84593913D01*
X116704543Y-84728620D01*
X116704541Y-84728627D01*
X116698140Y-84788155D01*
X116698140Y-85369400D01*
X117223880Y-85369400D01*
X117290919Y-85389085D01*
X117336674Y-85441889D01*
X117347880Y-85493400D01*
X117347880Y-85626400D01*
X117328195Y-85693439D01*
X117275391Y-85739194D01*
X117223880Y-85750400D01*
X116698140Y-85750400D01*
X116698140Y-86331644D01*
X116704541Y-86391172D01*
X116704543Y-86391179D01*
X116754785Y-86525886D01*
X116754789Y-86525893D01*
X116756627Y-86528348D01*
X116757698Y-86531220D01*
X116759037Y-86533672D01*
X116758684Y-86533864D01*
X116781044Y-86593812D01*
X116766192Y-86662085D01*
X116716787Y-86711490D01*
X116648514Y-86726342D01*
X116583049Y-86701925D01*
X116569679Y-86690339D01*
X115280818Y-85401478D01*
X115247333Y-85340155D01*
X115244499Y-85313797D01*
X115244499Y-81203129D01*
X115244498Y-81203123D01*
X115244497Y-81203116D01*
X115238091Y-81143517D01*
X115227496Y-81115111D01*
X115187797Y-81008671D01*
X115187793Y-81008664D01*
X115101547Y-80893455D01*
X115101544Y-80893452D01*
X114986335Y-80807206D01*
X114986328Y-80807202D01*
X114851482Y-80756908D01*
X114851483Y-80756908D01*
X114791883Y-80750501D01*
X114791881Y-80750500D01*
X114791873Y-80750500D01*
X114791864Y-80750500D01*
X112246129Y-80750500D01*
X112246123Y-80750501D01*
X112186516Y-80756908D01*
X112051671Y-80807202D01*
X112051664Y-80807206D01*
X111936455Y-80893452D01*
X111936452Y-80893455D01*
X111850206Y-81008664D01*
X111850202Y-81008671D01*
X111799908Y-81143517D01*
X111793501Y-81203116D01*
X111793501Y-81203123D01*
X111793500Y-81203135D01*
X111793500Y-87198870D01*
X111793501Y-87198876D01*
X111799908Y-87258483D01*
X111850202Y-87393328D01*
X111850206Y-87393335D01*
X111936452Y-87508544D01*
X111936455Y-87508547D01*
X112051664Y-87594793D01*
X112051671Y-87594797D01*
X112186517Y-87645091D01*
X112186516Y-87645091D01*
X112193444Y-87645835D01*
X112246127Y-87651500D01*
X113863762Y-87651499D01*
X113921975Y-87668592D01*
X113951132Y-87653671D01*
X113974233Y-87651499D01*
X114791872Y-87651499D01*
X114851483Y-87645091D01*
X114986331Y-87594796D01*
X115101546Y-87508546D01*
X115187796Y-87393331D01*
X115187797Y-87393326D01*
X115192047Y-87385546D01*
X115195119Y-87387223D01*
X115226897Y-87344729D01*
X115292349Y-87320279D01*
X115360630Y-87335097D01*
X115388938Y-87356278D01*
X116699421Y-88666761D01*
X116732906Y-88728084D01*
X116735740Y-88754442D01*
X116735740Y-89269376D01*
X116727922Y-89312709D01*
X116704048Y-89376717D01*
X116697641Y-89436316D01*
X116697640Y-89436335D01*
X116697640Y-90979870D01*
X116697641Y-90979876D01*
X116704049Y-91039484D01*
X116736976Y-91127768D01*
X116741960Y-91197459D01*
X116708474Y-91258782D01*
X116647151Y-91292266D01*
X116620794Y-91295100D01*
X116267693Y-91295100D01*
X116141561Y-91320189D01*
X116141555Y-91320191D01*
X116022736Y-91369407D01*
X115915798Y-91440860D01*
X114331180Y-93025478D01*
X114269857Y-93058963D01*
X114200165Y-93053979D01*
X114144232Y-93012107D01*
X114119815Y-92946643D01*
X114119499Y-92937797D01*
X114119499Y-91463998D01*
X114119498Y-91463981D01*
X114108999Y-91361203D01*
X114108998Y-91361200D01*
X114108018Y-91358243D01*
X114053814Y-91194666D01*
X113961712Y-91045344D01*
X113837656Y-90921288D01*
X113694284Y-90832856D01*
X113688336Y-90829187D01*
X113688331Y-90829185D01*
X113559544Y-90786509D01*
X113502099Y-90746736D01*
X113495445Y-90737692D01*
X113476141Y-90708801D01*
X113476137Y-90708796D01*
X112435816Y-89668475D01*
X112402331Y-89607152D01*
X112399497Y-89580794D01*
X112399497Y-89546601D01*
X112399500Y-89546590D01*
X112399500Y-89015426D01*
X112399497Y-89015399D01*
X112399497Y-88959060D01*
X112391005Y-88900000D01*
X112913659Y-88900000D01*
X112932975Y-89096129D01*
X112990188Y-89284733D01*
X113083086Y-89458532D01*
X113083090Y-89458539D01*
X113208116Y-89610883D01*
X113360460Y-89735909D01*
X113360467Y-89735913D01*
X113534266Y-89828811D01*
X113534269Y-89828811D01*
X113534273Y-89828814D01*
X113722868Y-89886024D01*
X113919000Y-89905341D01*
X114115132Y-89886024D01*
X114303727Y-89828814D01*
X114477538Y-89735910D01*
X114629883Y-89610883D01*
X114754910Y-89458538D01*
X114839650Y-89300001D01*
X114847811Y-89284733D01*
X114847811Y-89284732D01*
X114847814Y-89284727D01*
X114905024Y-89096132D01*
X114924341Y-88900000D01*
X114905024Y-88703868D01*
X114847814Y-88515273D01*
X114847811Y-88515269D01*
X114847811Y-88515266D01*
X114754913Y-88341467D01*
X114754909Y-88341460D01*
X114629883Y-88189116D01*
X114477539Y-88064090D01*
X114477532Y-88064086D01*
X114303733Y-87971188D01*
X114303727Y-87971186D01*
X114115132Y-87913976D01*
X114115129Y-87913975D01*
X113962083Y-87898902D01*
X113918925Y-87881475D01*
X113898696Y-87894476D01*
X113875915Y-87898902D01*
X113722870Y-87913975D01*
X113534266Y-87971188D01*
X113360467Y-88064086D01*
X113360460Y-88064090D01*
X113208116Y-88189116D01*
X113083090Y-88341460D01*
X113083086Y-88341467D01*
X112990188Y-88515266D01*
X112932975Y-88703870D01*
X112913659Y-88900000D01*
X112391005Y-88900000D01*
X112379035Y-88816744D01*
X112379035Y-88816743D01*
X112338498Y-88678691D01*
X112333050Y-88666761D01*
X112278776Y-88547918D01*
X112278773Y-88547914D01*
X112278770Y-88547906D01*
X112200986Y-88426870D01*
X112200985Y-88426869D01*
X112200984Y-88426867D01*
X112200981Y-88426863D01*
X112106847Y-88318226D01*
X112106830Y-88318207D01*
X112106829Y-88318206D01*
X111998091Y-88223985D01*
X111943835Y-88189117D01*
X111877142Y-88146255D01*
X111877136Y-88146252D01*
X111806028Y-88113778D01*
X111746259Y-88086483D01*
X111628650Y-88051950D01*
X111608308Y-88045977D01*
X111608296Y-88045974D01*
X111465889Y-88025500D01*
X110894000Y-88025500D01*
X110893997Y-88025500D01*
X110822061Y-88030644D01*
X110822056Y-88030645D01*
X110784735Y-88041603D01*
X110732158Y-88045363D01*
X110594001Y-88025500D01*
X110594000Y-88025500D01*
X110022111Y-88025500D01*
X110022110Y-88025500D01*
X109879703Y-88045974D01*
X109879691Y-88045977D01*
X109741741Y-88086483D01*
X109610863Y-88146252D01*
X109610861Y-88146254D01*
X109495523Y-88220376D01*
X109494083Y-88221196D01*
X109489901Y-88223988D01*
X109381169Y-88318207D01*
X109381166Y-88318210D01*
X109287018Y-88426864D01*
X109287015Y-88426867D01*
X109230857Y-88514253D01*
X109209906Y-88546855D01*
X109209231Y-88547905D01*
X109209223Y-88547918D01*
X109152263Y-88672643D01*
X109150015Y-88676939D01*
X109116044Y-88792634D01*
X109078269Y-88851412D01*
X109014713Y-88880437D01*
X108945555Y-88870493D01*
X108904917Y-88840671D01*
X108812289Y-88737798D01*
X108809871Y-88735112D01*
X108800198Y-88728084D01*
X108656734Y-88623851D01*
X108656729Y-88623848D01*
X108483807Y-88546857D01*
X108483802Y-88546855D01*
X108315987Y-88511186D01*
X108298646Y-88507500D01*
X108109354Y-88507500D01*
X108092013Y-88511186D01*
X107924197Y-88546855D01*
X107924192Y-88546857D01*
X107751270Y-88623848D01*
X107751265Y-88623851D01*
X107598129Y-88735111D01*
X107471466Y-88875785D01*
X107376821Y-89039715D01*
X107376818Y-89039722D01*
X107319500Y-89216130D01*
X107318326Y-89219744D01*
X107298540Y-89408000D01*
X105760000Y-89408000D01*
X105760000Y-87198870D01*
X106243500Y-87198870D01*
X106243501Y-87198876D01*
X106249908Y-87258483D01*
X106300202Y-87393328D01*
X106300206Y-87393335D01*
X106386452Y-87508544D01*
X106386455Y-87508547D01*
X106501664Y-87594793D01*
X106501671Y-87594797D01*
X106636517Y-87645091D01*
X106636516Y-87645091D01*
X106643444Y-87645835D01*
X106696127Y-87651500D01*
X109241872Y-87651499D01*
X109301483Y-87645091D01*
X109436331Y-87594796D01*
X109551546Y-87508546D01*
X109637796Y-87393331D01*
X109688091Y-87258483D01*
X109694500Y-87198873D01*
X109694500Y-85106477D01*
X109714185Y-85039438D01*
X109766989Y-84993683D01*
X109836147Y-84983739D01*
X109891381Y-85006157D01*
X110029460Y-85106477D01*
X110037270Y-85112151D01*
X110210192Y-85189142D01*
X110210197Y-85189144D01*
X110395354Y-85228500D01*
X110395355Y-85228500D01*
X110584644Y-85228500D01*
X110584646Y-85228500D01*
X110769803Y-85189144D01*
X110942730Y-85112151D01*
X111095871Y-85000888D01*
X111222533Y-84860216D01*
X111317179Y-84696284D01*
X111375674Y-84516256D01*
X111395460Y-84328000D01*
X111375674Y-84139744D01*
X111317179Y-83959716D01*
X111222533Y-83795784D01*
X111095871Y-83655112D01*
X111070382Y-83636593D01*
X110942734Y-83543851D01*
X110942729Y-83543848D01*
X110769807Y-83466857D01*
X110769802Y-83466855D01*
X110605812Y-83431999D01*
X110584646Y-83427500D01*
X110395354Y-83427500D01*
X110374188Y-83431999D01*
X110210197Y-83466855D01*
X110210193Y-83466857D01*
X110051802Y-83537379D01*
X110001366Y-83548100D01*
X109818499Y-83548100D01*
X109751460Y-83528415D01*
X109705705Y-83475611D01*
X109694499Y-83424100D01*
X109694499Y-81203129D01*
X109694498Y-81203123D01*
X109694497Y-81203116D01*
X109688091Y-81143517D01*
X109677496Y-81115111D01*
X109637797Y-81008671D01*
X109637793Y-81008664D01*
X109551547Y-80893455D01*
X109551544Y-80893452D01*
X109436335Y-80807206D01*
X109436328Y-80807202D01*
X109301482Y-80756908D01*
X109301483Y-80756908D01*
X109241883Y-80750501D01*
X109241881Y-80750500D01*
X109241873Y-80750500D01*
X109241864Y-80750500D01*
X106696129Y-80750500D01*
X106696123Y-80750501D01*
X106636516Y-80756908D01*
X106501671Y-80807202D01*
X106501664Y-80807206D01*
X106386455Y-80893452D01*
X106307392Y-80999065D01*
X106288911Y-81012899D01*
X106290706Y-81027488D01*
X106284536Y-81050673D01*
X106249909Y-81143514D01*
X106249908Y-81143516D01*
X106243501Y-81203116D01*
X106243501Y-81203123D01*
X106243500Y-81203135D01*
X106243500Y-87198870D01*
X105760000Y-87198870D01*
X105760000Y-82249860D01*
X105760011Y-82248186D01*
X105762190Y-82086770D01*
X105762959Y-82074560D01*
X105767079Y-82038000D01*
X105799191Y-81752986D01*
X105801520Y-81739284D01*
X105810249Y-81701039D01*
X105873344Y-81424599D01*
X105877186Y-81411261D01*
X105983801Y-81106571D01*
X105989119Y-81093737D01*
X106014075Y-81041915D01*
X106056634Y-80953539D01*
X106089379Y-80917270D01*
X106091945Y-80881417D01*
X106096392Y-80870981D01*
X106129171Y-80802915D01*
X106135883Y-80790771D01*
X106307622Y-80517451D01*
X106315652Y-80506133D01*
X106516914Y-80253758D01*
X106526163Y-80243409D01*
X106754409Y-80015163D01*
X106764758Y-80005914D01*
X107017133Y-79804652D01*
X107028451Y-79796622D01*
X107301771Y-79624883D01*
X107313923Y-79618167D01*
X107604741Y-79478116D01*
X107617571Y-79472801D01*
X107922261Y-79366186D01*
X107935599Y-79362344D01*
X108250289Y-79290519D01*
X108263986Y-79288191D01*
X108585568Y-79251958D01*
X108597761Y-79251190D01*
X108759186Y-79249010D01*
X108760860Y-79249000D01*
X134159118Y-79249000D01*
X134160855Y-79249011D01*
G37*
G04 #@! TD.AperFunction*
G04 #@! TD*
M02*
