G04 #@! TF.GenerationSoftware,KiCad,Pcbnew,8.0.1-rc1*
G04 #@! TF.CreationDate,2024-03-16T10:33:16-04:00*
G04 #@! TF.ProjectId,boostlet,626f6f73-746c-4657-942e-6b696361645f,rev?*
G04 #@! TF.SameCoordinates,Original*
G04 #@! TF.FileFunction,Paste,Top*
G04 #@! TF.FilePolarity,Positive*
%FSLAX46Y46*%
G04 Gerber Fmt 4.6, Leading zero omitted, Abs format (unit mm)*
G04 Created by KiCad (PCBNEW 8.0.1-rc1) date 2024-03-16 10:33:16*
%MOMM*%
%LPD*%
G01*
G04 APERTURE LIST*
G04 Aperture macros list*
%AMRoundRect*
0 Rectangle with rounded corners*
0 $1 Rounding radius*
0 $2 $3 $4 $5 $6 $7 $8 $9 X,Y pos of 4 corners*
0 Add a 4 corners polygon primitive as box body*
4,1,4,$2,$3,$4,$5,$6,$7,$8,$9,$2,$3,0*
0 Add four circle primitives for the rounded corners*
1,1,$1+$1,$2,$3*
1,1,$1+$1,$4,$5*
1,1,$1+$1,$6,$7*
1,1,$1+$1,$8,$9*
0 Add four rect primitives between the rounded corners*
20,1,$1+$1,$2,$3,$4,$5,0*
20,1,$1+$1,$4,$5,$6,$7,0*
20,1,$1+$1,$6,$7,$8,$9,0*
20,1,$1+$1,$8,$9,$2,$3,0*%
G04 Aperture macros list end*
%ADD10RoundRect,0.250000X-1.750000X-1.000000X1.750000X-1.000000X1.750000X1.000000X-1.750000X1.000000X0*%
%ADD11RoundRect,0.250000X0.625000X-0.400000X0.625000X0.400000X-0.625000X0.400000X-0.625000X-0.400000X0*%
%ADD12R,0.381000X1.447800*%
%ADD13RoundRect,0.250000X-0.400000X-0.625000X0.400000X-0.625000X0.400000X0.625000X-0.400000X0.625000X0*%
%ADD14RoundRect,0.250000X-0.625000X0.400000X-0.625000X-0.400000X0.625000X-0.400000X0.625000X0.400000X0*%
%ADD15RoundRect,0.150000X0.150000X-0.587500X0.150000X0.587500X-0.150000X0.587500X-0.150000X-0.587500X0*%
%ADD16RoundRect,0.250000X0.400000X1.450000X-0.400000X1.450000X-0.400000X-1.450000X0.400000X-1.450000X0*%
%ADD17RoundRect,0.250000X0.412500X0.650000X-0.412500X0.650000X-0.412500X-0.650000X0.412500X-0.650000X0*%
%ADD18RoundRect,0.250000X-0.412500X-0.650000X0.412500X-0.650000X0.412500X0.650000X-0.412500X0.650000X0*%
%ADD19RoundRect,0.150000X0.587500X0.150000X-0.587500X0.150000X-0.587500X-0.150000X0.587500X-0.150000X0*%
%ADD20RoundRect,0.375000X0.625000X0.375000X-0.625000X0.375000X-0.625000X-0.375000X0.625000X-0.375000X0*%
%ADD21RoundRect,0.500000X0.500000X1.400000X-0.500000X1.400000X-0.500000X-1.400000X0.500000X-1.400000X0*%
%ADD22RoundRect,0.325000X-0.550000X0.325000X-0.550000X-0.325000X0.550000X-0.325000X0.550000X0.325000X0*%
%ADD23R,2.450000X5.900000*%
%ADD24RoundRect,0.250000X1.450000X-0.400000X1.450000X0.400000X-1.450000X0.400000X-1.450000X-0.400000X0*%
G04 APERTURE END LIST*
D10*
G04 #@! TO.C,C1*
X108903000Y-104140000D03*
X116903000Y-104140000D03*
G04 #@! TD*
D11*
G04 #@! TO.C,R8*
X125857000Y-84608000D03*
X125857000Y-81508000D03*
G04 #@! TD*
D12*
G04 #@! TO.C,U1*
X117388640Y-90208100D03*
X118038880Y-90208100D03*
X118689120Y-90208100D03*
X119339360Y-90208100D03*
X119339360Y-85559900D03*
X118689120Y-85559900D03*
X118038880Y-85559900D03*
X117388640Y-85559900D03*
G04 #@! TD*
D13*
G04 #@! TO.C,R3*
X109321000Y-96774000D03*
X112421000Y-96774000D03*
G04 #@! TD*
G04 #@! TO.C,R9*
X117195000Y-97028000D03*
X120295000Y-97028000D03*
G04 #@! TD*
D14*
G04 #@! TO.C,R7*
X123190000Y-81508000D03*
X123190000Y-84608000D03*
G04 #@! TD*
D13*
G04 #@! TO.C,R1*
X120751000Y-108331000D03*
X123851000Y-108331000D03*
G04 #@! TD*
G04 #@! TO.C,R11*
X130657000Y-85979000D03*
X133757000Y-85979000D03*
G04 #@! TD*
D15*
G04 #@! TO.C,Q1*
X121732000Y-105458500D03*
X123632000Y-105458500D03*
X122682000Y-103583500D03*
G04 #@! TD*
D16*
G04 #@! TO.C,F1*
X112969000Y-92964000D03*
X108519000Y-92964000D03*
G04 #@! TD*
D13*
G04 #@! TO.C,R2*
X120624000Y-100457000D03*
X123724000Y-100457000D03*
G04 #@! TD*
D17*
G04 #@! TO.C,C3*
X132118500Y-98171000D03*
X128993500Y-98171000D03*
G04 #@! TD*
D18*
G04 #@! TO.C,C4*
X128993500Y-108458000D03*
X132118500Y-108458000D03*
G04 #@! TD*
G04 #@! TO.C,C5*
X116801500Y-82042000D03*
X119926500Y-82042000D03*
G04 #@! TD*
D13*
G04 #@! TO.C,R10*
X123418000Y-97409000D03*
X126518000Y-97409000D03*
G04 #@! TD*
D19*
G04 #@! TO.C,Q3*
X127048500Y-94549000D03*
X127048500Y-92649000D03*
X125173500Y-93599000D03*
G04 #@! TD*
D18*
G04 #@! TO.C,C7*
X128485500Y-81788000D03*
X131610500Y-81788000D03*
G04 #@! TD*
D20*
G04 #@! TO.C,U4*
X133198000Y-105678000D03*
X133198000Y-103378000D03*
D21*
X126898000Y-103378000D03*
D20*
X133198000Y-101078000D03*
G04 #@! TD*
D22*
G04 #@! TO.C,D2*
X127254000Y-87123000D03*
X127254000Y-90423000D03*
G04 #@! TD*
D18*
G04 #@! TO.C,C2*
X117182500Y-93980000D03*
X120307500Y-93980000D03*
G04 #@! TD*
D23*
G04 #@! TO.C,L1*
X107969000Y-84201000D03*
X113519000Y-84201000D03*
G04 #@! TD*
D14*
G04 #@! TO.C,R6*
X123190000Y-87350000D03*
X123190000Y-90450000D03*
G04 #@! TD*
D24*
G04 #@! TO.C,F2*
X131445000Y-94046000D03*
X131445000Y-89596000D03*
G04 #@! TD*
M02*
