G04 #@! TF.GenerationSoftware,KiCad,Pcbnew,8.0.1-rc1*
G04 #@! TF.CreationDate,2024-03-16T10:33:16-04:00*
G04 #@! TF.ProjectId,boostlet,626f6f73-746c-4657-942e-6b696361645f,rev?*
G04 #@! TF.SameCoordinates,Original*
G04 #@! TF.FileFunction,Copper,L2,Bot*
G04 #@! TF.FilePolarity,Positive*
%FSLAX46Y46*%
G04 Gerber Fmt 4.6, Leading zero omitted, Abs format (unit mm)*
G04 Created by KiCad (PCBNEW 8.0.1-rc1) date 2024-03-16 10:33:16*
%MOMM*%
%LPD*%
G01*
G04 APERTURE LIST*
G04 #@! TA.AperFunction,ComponentPad*
%ADD10O,1.700000X3.700000*%
G04 #@! TD*
G04 #@! TA.AperFunction,SMDPad,CuDef*
%ADD11C,1.500000*%
G04 #@! TD*
G04 #@! TA.AperFunction,ViaPad*
%ADD12C,0.800000*%
G04 #@! TD*
G04 #@! TA.AperFunction,Conductor*
%ADD13C,0.304800*%
G04 #@! TD*
G04 APERTURE END LIST*
D10*
G04 #@! TO.P,J4,1,Pin_1*
G04 #@! TO.N,GND*
X111887000Y-112776000D03*
G04 #@! TO.P,J4,2,Pin_2*
G04 #@! TO.N,/V_BUS*
X114427000Y-112776000D03*
G04 #@! TO.P,J4,3,Pin_3*
G04 #@! TO.N,VCC*
X116967000Y-112776000D03*
G04 #@! TO.P,J4,4,Pin_4*
G04 #@! TO.N,/V_BATT*
X119507000Y-112776000D03*
G04 #@! TO.P,J4,5,Pin_5*
G04 #@! TO.N,/BATT_SIG*
X122047000Y-112776000D03*
G04 #@! TO.P,J4,6,Pin_6*
G04 #@! TO.N,/NEO_OUT1*
X124587000Y-112776000D03*
G04 #@! TO.P,J4,7,Pin_7*
G04 #@! TO.N,/NEO_IN1*
X127127000Y-112776000D03*
G04 #@! TO.P,J4,8,Pin_8*
G04 #@! TO.N,/3.3V*
X129667000Y-112776000D03*
G04 #@! TO.P,J4,9,Pin_9*
G04 #@! TO.N,/5V*
X132207000Y-112776000D03*
G04 #@! TO.P,J4,10,Pin_10*
G04 #@! TO.N,GND*
X134747000Y-112776000D03*
G04 #@! TD*
D11*
G04 #@! TO.P,TP4,1,1*
G04 #@! TO.N,Net-(JP1-B)*
X110490000Y-95250000D03*
G04 #@! TD*
G04 #@! TO.P,TP16,1,1*
G04 #@! TO.N,/BATT_SIG*
X121793000Y-96901000D03*
G04 #@! TD*
G04 #@! TO.P,TP15,1,1*
G04 #@! TO.N,/5V*
X134874000Y-94234000D03*
G04 #@! TD*
G04 #@! TO.P,TP5,1,1*
G04 #@! TO.N,/NEO_OUT1*
X125222000Y-100330000D03*
G04 #@! TD*
G04 #@! TO.P,TP11,1,1*
G04 #@! TO.N,Net-(JP2-B)*
X131572000Y-100330000D03*
G04 #@! TD*
G04 #@! TO.P,TP2,1,1*
G04 #@! TO.N,VCC*
X120904000Y-103378000D03*
G04 #@! TD*
G04 #@! TO.P,TP14,1,1*
G04 #@! TO.N,Net-(D2-K)*
X125349000Y-91567000D03*
G04 #@! TD*
G04 #@! TO.P,TP6,1,1*
G04 #@! TO.N,Net-(U1-EN)*
X114046000Y-96774000D03*
G04 #@! TD*
G04 #@! TO.P,TP3,1,1*
G04 #@! TO.N,/V_BATT*
X108204000Y-89408000D03*
G04 #@! TD*
G04 #@! TO.P,TP13,1,1*
G04 #@! TO.N,/3.3V*
X131064000Y-103632000D03*
G04 #@! TD*
G04 #@! TO.P,TP1,1,1*
G04 #@! TO.N,/NEO_IN1*
X126746000Y-106680000D03*
G04 #@! TD*
G04 #@! TO.P,TP12,1,1*
G04 #@! TO.N,/V_BOOST*
X120904000Y-91694000D03*
G04 #@! TD*
D12*
G04 #@! TO.N,/5V*
X120650000Y-99060000D03*
X110744000Y-100584000D03*
X129032000Y-103124000D03*
X132588000Y-92710000D03*
X135636000Y-81788000D03*
X134874000Y-94234000D03*
G04 #@! TO.N,/V_BATT*
X108204000Y-89408000D03*
X118364000Y-97028000D03*
X111252000Y-91948000D03*
G04 #@! TO.N,/V_BOOST*
X120904000Y-83820000D03*
X120904000Y-91694000D03*
G04 #@! TO.N,Net-(JP1-B)*
X110490000Y-95250000D03*
X118618000Y-88138000D03*
X110490000Y-84328000D03*
G04 #@! TO.N,/3.3V*
X131064000Y-103632000D03*
G04 #@! TO.N,/NEO_OUT1*
X125222000Y-100330000D03*
G04 #@! TO.N,GND*
X116332000Y-85344000D03*
X116840000Y-101854000D03*
X119888000Y-88646000D03*
X133858000Y-107188000D03*
X131572000Y-105664000D03*
X121920000Y-94488000D03*
X119380000Y-93980000D03*
X123444000Y-91948000D03*
X115824000Y-106680000D03*
X129286000Y-99822000D03*
X129286000Y-96774000D03*
X127254000Y-96012000D03*
X125984000Y-80772000D03*
X121920000Y-89154000D03*
G04 #@! TO.N,VCC*
X120904000Y-103378000D03*
X134874000Y-96012000D03*
G04 #@! TO.N,/BATT_SIG*
X125222000Y-105664000D03*
X121793000Y-97028000D03*
X123952000Y-102616000D03*
G04 #@! TO.N,/NEO_IN1*
X126746000Y-106680000D03*
G04 #@! TO.N,Net-(D2-K)*
X125349000Y-91567000D03*
G04 #@! TO.N,Net-(JP2-B)*
X131572000Y-100330000D03*
X130810000Y-98806000D03*
X132334000Y-83312000D03*
G04 #@! TO.N,Net-(U1-EN)*
X114046000Y-96774000D03*
G04 #@! TO.N,/V_BUS*
X128778000Y-94234000D03*
X128777000Y-90423000D03*
X129286000Y-86106000D03*
G04 #@! TD*
D13*
G04 #@! TO.N,/5V*
X135636000Y-81788000D02*
X135636000Y-85598000D01*
X110744000Y-100584000D02*
X118364000Y-100584000D01*
X118364000Y-100584000D02*
X119888000Y-99060000D01*
X132588000Y-88646000D02*
X132588000Y-92710000D01*
X132207000Y-108585000D02*
X132207000Y-112776000D01*
X129032000Y-103124000D02*
X129032000Y-105410000D01*
X119888000Y-99060000D02*
X120650000Y-99060000D01*
X129032000Y-105410000D02*
X132207000Y-108585000D01*
X135636000Y-85598000D02*
X132588000Y-88646000D01*
G04 #@! TO.N,/V_BATT*
X116586000Y-91948000D02*
X118364000Y-93726000D01*
X111252000Y-91948000D02*
X116586000Y-91948000D01*
X118364000Y-93726000D02*
X118364000Y-97028000D01*
G04 #@! TO.N,/V_BOOST*
X120904000Y-91694000D02*
X120904000Y-83820000D01*
G04 #@! TO.N,Net-(JP1-B)*
X111760000Y-88138000D02*
X109982000Y-89916000D01*
X110490000Y-84328000D02*
X114300000Y-88138000D01*
X109982000Y-89916000D02*
X109982000Y-94742000D01*
X114300000Y-88138000D02*
X118618000Y-88138000D01*
X109982000Y-94742000D02*
X110490000Y-95250000D01*
X114300000Y-88138000D02*
X111760000Y-88138000D01*
G04 #@! TO.N,VCC*
X134366000Y-96012000D02*
X134874000Y-96012000D01*
X132755600Y-102194400D02*
X133858000Y-101092000D01*
X118110000Y-104648000D02*
X119380000Y-103378000D01*
X120904000Y-103378000D02*
X121412000Y-103886000D01*
X131150400Y-102194400D02*
X132755600Y-102194400D01*
X117094000Y-112649000D02*
X117094000Y-107950000D01*
X133858000Y-96520000D02*
X134366000Y-96012000D01*
X133858000Y-101092000D02*
X133858000Y-96520000D01*
X117094000Y-107950000D02*
X118110000Y-106934000D01*
X125730000Y-103886000D02*
X127762000Y-101854000D01*
X118110000Y-106934000D02*
X118110000Y-104648000D01*
X127762000Y-101854000D02*
X130810000Y-101854000D01*
X121412000Y-103886000D02*
X125730000Y-103886000D01*
X130810000Y-101854000D02*
X131150400Y-102194400D01*
X116967000Y-112776000D02*
X117094000Y-112649000D01*
X119380000Y-103378000D02*
X120904000Y-103378000D01*
G04 #@! TO.N,/BATT_SIG*
X125222000Y-105664000D02*
X125222000Y-105918000D01*
X125222000Y-105918000D02*
X122047000Y-109093000D01*
X122047000Y-97282000D02*
X121793000Y-97028000D01*
X121793000Y-100457000D02*
X121793000Y-97028000D01*
X123952000Y-102616000D02*
X121793000Y-100457000D01*
X122047000Y-109093000D02*
X122047000Y-112776000D01*
G04 #@! TO.N,Net-(JP2-B)*
X130810000Y-84836000D02*
X132334000Y-83312000D01*
X130810000Y-98806000D02*
X130810000Y-84836000D01*
G04 #@! TO.N,/V_BUS*
X129286000Y-88392000D02*
X129286000Y-86106000D01*
X128778000Y-88900000D02*
X129286000Y-88392000D01*
X128778000Y-94234000D02*
X128778000Y-88900000D01*
G04 #@! TD*
G04 #@! TA.AperFunction,Conductor*
G04 #@! TO.N,GND*
G36*
X134160855Y-79249011D02*
G01*
X134322269Y-79251274D01*
X134334390Y-79252041D01*
X134638553Y-79286312D01*
X134655992Y-79288277D01*
X134669700Y-79290606D01*
X134984366Y-79362426D01*
X134997725Y-79366273D01*
X135302392Y-79472881D01*
X135315228Y-79478199D01*
X135605867Y-79618163D01*
X135606025Y-79618239D01*
X135618195Y-79624965D01*
X135891486Y-79796685D01*
X135902827Y-79804732D01*
X136155173Y-80005971D01*
X136165541Y-80015237D01*
X136393762Y-80243458D01*
X136403028Y-80253826D01*
X136604267Y-80506172D01*
X136612314Y-80517513D01*
X136784034Y-80790804D01*
X136790760Y-80802974D01*
X136930798Y-81093766D01*
X136936120Y-81106613D01*
X137042724Y-81411270D01*
X137046573Y-81424633D01*
X137118393Y-81739299D01*
X137120722Y-81753007D01*
X137156957Y-82074597D01*
X137157725Y-82086743D01*
X137159988Y-82248144D01*
X137160000Y-82249882D01*
X137160000Y-112648117D01*
X137159988Y-112649855D01*
X137157725Y-112811256D01*
X137156957Y-112823402D01*
X137120722Y-113144992D01*
X137118393Y-113158700D01*
X137046573Y-113473366D01*
X137042724Y-113486729D01*
X136936120Y-113791386D01*
X136930798Y-113804233D01*
X136790760Y-114095025D01*
X136784034Y-114107195D01*
X136612314Y-114380486D01*
X136604267Y-114391827D01*
X136403028Y-114644173D01*
X136393762Y-114654541D01*
X136165541Y-114882762D01*
X136155173Y-114892028D01*
X135902827Y-115093267D01*
X135891486Y-115101314D01*
X135618195Y-115273034D01*
X135606025Y-115279760D01*
X135315233Y-115419798D01*
X135302386Y-115425120D01*
X134997729Y-115531724D01*
X134984366Y-115535573D01*
X134669700Y-115607393D01*
X134655992Y-115609722D01*
X134334402Y-115645957D01*
X134322256Y-115646725D01*
X134160856Y-115648988D01*
X134159118Y-115649000D01*
X108760860Y-115649000D01*
X108759187Y-115648989D01*
X108754561Y-115648926D01*
X108597769Y-115646809D01*
X108585560Y-115646040D01*
X108263992Y-115609808D01*
X108250284Y-115607479D01*
X107935609Y-115535657D01*
X107922246Y-115531808D01*
X107617583Y-115425202D01*
X107604736Y-115419880D01*
X107313932Y-115279836D01*
X107301762Y-115273110D01*
X107028463Y-115101385D01*
X107017122Y-115093338D01*
X106764768Y-114892093D01*
X106754400Y-114882827D01*
X106526172Y-114654599D01*
X106516906Y-114644231D01*
X106388981Y-114483818D01*
X106315659Y-114391874D01*
X106307614Y-114380536D01*
X106135889Y-114107237D01*
X106129163Y-114095067D01*
X105989119Y-113804263D01*
X105983797Y-113791416D01*
X105983787Y-113791386D01*
X105877188Y-113486743D01*
X105873342Y-113473390D01*
X105801520Y-113158715D01*
X105799191Y-113145007D01*
X105762958Y-112823433D01*
X105762190Y-112811229D01*
X105760011Y-112649813D01*
X105760000Y-112648139D01*
X105760000Y-100584000D01*
X109838540Y-100584000D01*
X109858326Y-100772256D01*
X109858327Y-100772259D01*
X109916818Y-100952277D01*
X109916821Y-100952284D01*
X110011467Y-101116216D01*
X110110489Y-101226191D01*
X110138129Y-101256888D01*
X110291265Y-101368148D01*
X110291270Y-101368151D01*
X110464192Y-101445142D01*
X110464197Y-101445144D01*
X110649354Y-101484500D01*
X110649355Y-101484500D01*
X110838644Y-101484500D01*
X110838646Y-101484500D01*
X111023803Y-101445144D01*
X111196730Y-101368151D01*
X111302097Y-101291598D01*
X111344787Y-101260582D01*
X111410593Y-101237102D01*
X111417672Y-101236900D01*
X118428307Y-101236900D01*
X118513165Y-101220019D01*
X118554444Y-101211809D01*
X118673264Y-101162592D01*
X118682673Y-101156305D01*
X118780200Y-101091141D01*
X120023874Y-99847464D01*
X120085195Y-99813981D01*
X120154886Y-99818965D01*
X120184437Y-99834828D01*
X120197269Y-99844151D01*
X120370192Y-99921142D01*
X120370197Y-99921144D01*
X120555354Y-99960500D01*
X120555355Y-99960500D01*
X120744644Y-99960500D01*
X120744646Y-99960500D01*
X120929803Y-99921144D01*
X120940146Y-99916538D01*
X120965664Y-99905178D01*
X121034914Y-99895893D01*
X121098191Y-99925521D01*
X121135404Y-99984656D01*
X121140100Y-100018457D01*
X121140100Y-100521305D01*
X121140100Y-100521307D01*
X121140099Y-100521307D01*
X121165189Y-100647438D01*
X121165191Y-100647444D01*
X121211532Y-100759322D01*
X121214408Y-100766264D01*
X121285859Y-100873200D01*
X121285862Y-100873204D01*
X121285863Y-100873205D01*
X123017589Y-102604930D01*
X123051074Y-102666253D01*
X123053229Y-102679649D01*
X123066326Y-102804257D01*
X123066327Y-102804260D01*
X123124818Y-102984277D01*
X123124821Y-102984284D01*
X123161088Y-103047100D01*
X123177561Y-103115000D01*
X123154708Y-103181027D01*
X123099787Y-103224218D01*
X123053701Y-103233100D01*
X122254936Y-103233100D01*
X122187897Y-103213415D01*
X122142142Y-103160611D01*
X122135162Y-103141198D01*
X122083575Y-102948670D01*
X121991102Y-102750362D01*
X121991100Y-102750359D01*
X121991099Y-102750357D01*
X121865599Y-102571124D01*
X121801375Y-102506900D01*
X121710877Y-102416402D01*
X121531639Y-102290898D01*
X121531640Y-102290898D01*
X121531638Y-102290897D01*
X121432484Y-102244661D01*
X121333330Y-102198425D01*
X121333326Y-102198424D01*
X121333322Y-102198422D01*
X121121977Y-102141793D01*
X120904002Y-102122723D01*
X120903998Y-102122723D01*
X120758682Y-102135436D01*
X120686023Y-102141793D01*
X120686020Y-102141793D01*
X120474677Y-102198422D01*
X120474668Y-102198426D01*
X120276361Y-102290898D01*
X120276357Y-102290900D01*
X120097121Y-102416402D01*
X119942402Y-102571121D01*
X119871611Y-102672223D01*
X119817034Y-102715848D01*
X119770036Y-102725100D01*
X119315693Y-102725100D01*
X119189561Y-102750189D01*
X119189555Y-102750191D01*
X119070737Y-102799407D01*
X118963797Y-102870861D01*
X118963796Y-102870862D01*
X117602863Y-104231794D01*
X117602862Y-104231795D01*
X117535575Y-104332500D01*
X117531404Y-104338741D01*
X117482192Y-104457551D01*
X117482191Y-104457556D01*
X117457100Y-104583692D01*
X117457100Y-106612196D01*
X117437415Y-106679235D01*
X117420781Y-106699877D01*
X116586863Y-107533794D01*
X116586862Y-107533795D01*
X116515407Y-107640737D01*
X116466191Y-107759555D01*
X116466189Y-107759561D01*
X116441100Y-107885692D01*
X116441100Y-110452270D01*
X116421415Y-110519309D01*
X116373395Y-110562755D01*
X116259180Y-110620951D01*
X116087213Y-110745890D01*
X115936890Y-110896213D01*
X115811949Y-111068182D01*
X115807484Y-111076946D01*
X115759509Y-111127742D01*
X115691688Y-111144536D01*
X115625553Y-111121998D01*
X115586516Y-111076946D01*
X115582050Y-111068182D01*
X115457109Y-110896213D01*
X115306786Y-110745890D01*
X115134820Y-110620951D01*
X114945414Y-110524444D01*
X114945413Y-110524443D01*
X114945412Y-110524443D01*
X114743243Y-110458754D01*
X114743241Y-110458753D01*
X114743240Y-110458753D01*
X114581957Y-110433208D01*
X114533287Y-110425500D01*
X114320713Y-110425500D01*
X114272042Y-110433208D01*
X114110760Y-110458753D01*
X113908585Y-110524444D01*
X113719179Y-110620951D01*
X113547213Y-110745890D01*
X113396890Y-110896213D01*
X113271949Y-111068182D01*
X113267202Y-111077499D01*
X113219227Y-111128293D01*
X113151405Y-111145087D01*
X113085271Y-111122548D01*
X113046234Y-111077495D01*
X113041622Y-111068444D01*
X112916727Y-110896540D01*
X112916723Y-110896535D01*
X112766464Y-110746276D01*
X112766459Y-110746272D01*
X112594557Y-110621379D01*
X112405215Y-110524903D01*
X112203124Y-110459241D01*
X112137000Y-110448768D01*
X112137000Y-112342988D01*
X112079993Y-112310075D01*
X111952826Y-112276000D01*
X111821174Y-112276000D01*
X111694007Y-112310075D01*
X111637000Y-112342988D01*
X111637000Y-110448768D01*
X111636999Y-110448768D01*
X111570875Y-110459241D01*
X111368784Y-110524903D01*
X111179442Y-110621379D01*
X111007540Y-110746272D01*
X111007535Y-110746276D01*
X110857276Y-110896535D01*
X110857272Y-110896540D01*
X110732379Y-111068442D01*
X110635904Y-111257782D01*
X110570242Y-111459869D01*
X110570242Y-111459872D01*
X110537000Y-111669753D01*
X110537000Y-112526000D01*
X111453988Y-112526000D01*
X111421075Y-112583007D01*
X111387000Y-112710174D01*
X111387000Y-112841826D01*
X111421075Y-112968993D01*
X111453988Y-113026000D01*
X110537000Y-113026000D01*
X110537000Y-113882246D01*
X110570242Y-114092127D01*
X110570242Y-114092130D01*
X110635904Y-114294217D01*
X110732379Y-114483557D01*
X110857272Y-114655459D01*
X110857276Y-114655464D01*
X111007535Y-114805723D01*
X111007540Y-114805727D01*
X111179442Y-114930620D01*
X111368782Y-115027095D01*
X111570871Y-115092757D01*
X111637000Y-115103231D01*
X111637000Y-113209012D01*
X111694007Y-113241925D01*
X111821174Y-113276000D01*
X111952826Y-113276000D01*
X112079993Y-113241925D01*
X112137000Y-113209012D01*
X112137000Y-115103230D01*
X112203126Y-115092757D01*
X112203129Y-115092757D01*
X112405217Y-115027095D01*
X112594557Y-114930620D01*
X112766459Y-114805727D01*
X112766464Y-114805723D01*
X112916723Y-114655464D01*
X112916727Y-114655459D01*
X113041620Y-114483558D01*
X113046232Y-114474507D01*
X113094205Y-114423709D01*
X113162025Y-114406912D01*
X113228161Y-114429447D01*
X113267204Y-114474504D01*
X113271949Y-114483817D01*
X113396890Y-114655786D01*
X113547213Y-114806109D01*
X113719179Y-114931048D01*
X113719181Y-114931049D01*
X113719184Y-114931051D01*
X113908588Y-115027557D01*
X114110757Y-115093246D01*
X114320713Y-115126500D01*
X114320714Y-115126500D01*
X114533286Y-115126500D01*
X114533287Y-115126500D01*
X114743243Y-115093246D01*
X114945412Y-115027557D01*
X115134816Y-114931051D01*
X115156789Y-114915086D01*
X115306786Y-114806109D01*
X115306788Y-114806106D01*
X115306792Y-114806104D01*
X115457104Y-114655792D01*
X115457106Y-114655788D01*
X115457109Y-114655786D01*
X115582048Y-114483820D01*
X115582047Y-114483820D01*
X115582051Y-114483816D01*
X115586514Y-114475054D01*
X115634488Y-114424259D01*
X115702308Y-114407463D01*
X115768444Y-114429999D01*
X115807486Y-114475056D01*
X115811951Y-114483820D01*
X115936890Y-114655786D01*
X116087213Y-114806109D01*
X116259179Y-114931048D01*
X116259181Y-114931049D01*
X116259184Y-114931051D01*
X116448588Y-115027557D01*
X116650757Y-115093246D01*
X116860713Y-115126500D01*
X116860714Y-115126500D01*
X117073286Y-115126500D01*
X117073287Y-115126500D01*
X117283243Y-115093246D01*
X117485412Y-115027557D01*
X117674816Y-114931051D01*
X117696789Y-114915086D01*
X117846786Y-114806109D01*
X117846788Y-114806106D01*
X117846792Y-114806104D01*
X117997104Y-114655792D01*
X117997106Y-114655788D01*
X117997109Y-114655786D01*
X118122048Y-114483820D01*
X118122047Y-114483820D01*
X118122051Y-114483816D01*
X118126514Y-114475054D01*
X118174488Y-114424259D01*
X118242308Y-114407463D01*
X118308444Y-114429999D01*
X118347486Y-114475056D01*
X118351951Y-114483820D01*
X118476890Y-114655786D01*
X118627213Y-114806109D01*
X118799179Y-114931048D01*
X118799181Y-114931049D01*
X118799184Y-114931051D01*
X118988588Y-115027557D01*
X119190757Y-115093246D01*
X119400713Y-115126500D01*
X119400714Y-115126500D01*
X119613286Y-115126500D01*
X119613287Y-115126500D01*
X119823243Y-115093246D01*
X120025412Y-115027557D01*
X120214816Y-114931051D01*
X120236789Y-114915086D01*
X120386786Y-114806109D01*
X120386788Y-114806106D01*
X120386792Y-114806104D01*
X120537104Y-114655792D01*
X120537106Y-114655788D01*
X120537109Y-114655786D01*
X120662048Y-114483820D01*
X120662047Y-114483820D01*
X120662051Y-114483816D01*
X120666514Y-114475054D01*
X120714488Y-114424259D01*
X120782308Y-114407463D01*
X120848444Y-114429999D01*
X120887486Y-114475056D01*
X120891951Y-114483820D01*
X121016890Y-114655786D01*
X121167213Y-114806109D01*
X121339179Y-114931048D01*
X121339181Y-114931049D01*
X121339184Y-114931051D01*
X121528588Y-115027557D01*
X121730757Y-115093246D01*
X121940713Y-115126500D01*
X121940714Y-115126500D01*
X122153286Y-115126500D01*
X122153287Y-115126500D01*
X122363243Y-115093246D01*
X122565412Y-115027557D01*
X122754816Y-114931051D01*
X122776789Y-114915086D01*
X122926786Y-114806109D01*
X122926788Y-114806106D01*
X122926792Y-114806104D01*
X123077104Y-114655792D01*
X123077106Y-114655788D01*
X123077109Y-114655786D01*
X123202048Y-114483820D01*
X123202047Y-114483820D01*
X123202051Y-114483816D01*
X123206514Y-114475054D01*
X123254488Y-114424259D01*
X123322308Y-114407463D01*
X123388444Y-114429999D01*
X123427486Y-114475056D01*
X123431951Y-114483820D01*
X123556890Y-114655786D01*
X123707213Y-114806109D01*
X123879179Y-114931048D01*
X123879181Y-114931049D01*
X123879184Y-114931051D01*
X124068588Y-115027557D01*
X124270757Y-115093246D01*
X124480713Y-115126500D01*
X124480714Y-115126500D01*
X124693286Y-115126500D01*
X124693287Y-115126500D01*
X124903243Y-115093246D01*
X125105412Y-115027557D01*
X125294816Y-114931051D01*
X125316789Y-114915086D01*
X125466786Y-114806109D01*
X125466788Y-114806106D01*
X125466792Y-114806104D01*
X125617104Y-114655792D01*
X125617106Y-114655788D01*
X125617109Y-114655786D01*
X125742048Y-114483820D01*
X125742047Y-114483820D01*
X125742051Y-114483816D01*
X125746514Y-114475054D01*
X125794488Y-114424259D01*
X125862308Y-114407463D01*
X125928444Y-114429999D01*
X125967486Y-114475056D01*
X125971951Y-114483820D01*
X126096890Y-114655786D01*
X126247213Y-114806109D01*
X126419179Y-114931048D01*
X126419181Y-114931049D01*
X126419184Y-114931051D01*
X126608588Y-115027557D01*
X126810757Y-115093246D01*
X127020713Y-115126500D01*
X127020714Y-115126500D01*
X127233286Y-115126500D01*
X127233287Y-115126500D01*
X127443243Y-115093246D01*
X127645412Y-115027557D01*
X127834816Y-114931051D01*
X127856789Y-114915086D01*
X128006786Y-114806109D01*
X128006788Y-114806106D01*
X128006792Y-114806104D01*
X128157104Y-114655792D01*
X128157106Y-114655788D01*
X128157109Y-114655786D01*
X128282048Y-114483820D01*
X128282047Y-114483820D01*
X128282051Y-114483816D01*
X128286514Y-114475054D01*
X128334488Y-114424259D01*
X128402308Y-114407463D01*
X128468444Y-114429999D01*
X128507486Y-114475056D01*
X128511951Y-114483820D01*
X128636890Y-114655786D01*
X128787213Y-114806109D01*
X128959179Y-114931048D01*
X128959181Y-114931049D01*
X128959184Y-114931051D01*
X129148588Y-115027557D01*
X129350757Y-115093246D01*
X129560713Y-115126500D01*
X129560714Y-115126500D01*
X129773286Y-115126500D01*
X129773287Y-115126500D01*
X129983243Y-115093246D01*
X130185412Y-115027557D01*
X130374816Y-114931051D01*
X130396789Y-114915086D01*
X130546786Y-114806109D01*
X130546788Y-114806106D01*
X130546792Y-114806104D01*
X130697104Y-114655792D01*
X130697106Y-114655788D01*
X130697109Y-114655786D01*
X130822048Y-114483820D01*
X130822047Y-114483820D01*
X130822051Y-114483816D01*
X130826514Y-114475054D01*
X130874488Y-114424259D01*
X130942308Y-114407463D01*
X131008444Y-114429999D01*
X131047486Y-114475056D01*
X131051951Y-114483820D01*
X131176890Y-114655786D01*
X131327213Y-114806109D01*
X131499179Y-114931048D01*
X131499181Y-114931049D01*
X131499184Y-114931051D01*
X131688588Y-115027557D01*
X131890757Y-115093246D01*
X132100713Y-115126500D01*
X132100714Y-115126500D01*
X132313286Y-115126500D01*
X132313287Y-115126500D01*
X132523243Y-115093246D01*
X132725412Y-115027557D01*
X132914816Y-114931051D01*
X132936789Y-114915086D01*
X133086786Y-114806109D01*
X133086788Y-114806106D01*
X133086792Y-114806104D01*
X133237104Y-114655792D01*
X133237106Y-114655788D01*
X133237109Y-114655786D01*
X133362048Y-114483820D01*
X133362051Y-114483816D01*
X133366793Y-114474508D01*
X133414763Y-114423711D01*
X133482583Y-114406911D01*
X133548719Y-114429445D01*
X133587763Y-114474500D01*
X133592377Y-114483555D01*
X133717272Y-114655459D01*
X133717276Y-114655464D01*
X133867535Y-114805723D01*
X133867540Y-114805727D01*
X134039442Y-114930620D01*
X134228782Y-115027095D01*
X134430871Y-115092757D01*
X134497000Y-115103231D01*
X134497000Y-113209012D01*
X134554007Y-113241925D01*
X134681174Y-113276000D01*
X134812826Y-113276000D01*
X134939993Y-113241925D01*
X134997000Y-113209012D01*
X134997000Y-115103230D01*
X135063126Y-115092757D01*
X135063129Y-115092757D01*
X135265217Y-115027095D01*
X135454557Y-114930620D01*
X135626459Y-114805727D01*
X135626464Y-114805723D01*
X135776723Y-114655464D01*
X135776727Y-114655459D01*
X135901620Y-114483557D01*
X135998095Y-114294217D01*
X136063757Y-114092130D01*
X136063757Y-114092127D01*
X136097000Y-113882246D01*
X136097000Y-113026000D01*
X135180012Y-113026000D01*
X135212925Y-112968993D01*
X135247000Y-112841826D01*
X135247000Y-112710174D01*
X135212925Y-112583007D01*
X135180012Y-112526000D01*
X136097000Y-112526000D01*
X136097000Y-111669753D01*
X136063757Y-111459872D01*
X136063757Y-111459869D01*
X135998095Y-111257782D01*
X135901620Y-111068442D01*
X135776727Y-110896540D01*
X135776723Y-110896535D01*
X135626464Y-110746276D01*
X135626459Y-110746272D01*
X135454557Y-110621379D01*
X135265215Y-110524903D01*
X135063124Y-110459241D01*
X134997000Y-110448768D01*
X134997000Y-112342988D01*
X134939993Y-112310075D01*
X134812826Y-112276000D01*
X134681174Y-112276000D01*
X134554007Y-112310075D01*
X134497000Y-112342988D01*
X134497000Y-110448768D01*
X134496999Y-110448768D01*
X134430875Y-110459241D01*
X134228784Y-110524903D01*
X134039442Y-110621379D01*
X133867540Y-110746272D01*
X133867535Y-110746276D01*
X133717276Y-110896535D01*
X133717272Y-110896540D01*
X133592378Y-111068443D01*
X133587762Y-111077502D01*
X133539784Y-111128295D01*
X133471963Y-111145087D01*
X133405829Y-111122546D01*
X133366794Y-111077493D01*
X133362051Y-111068184D01*
X133362049Y-111068181D01*
X133362048Y-111068179D01*
X133237109Y-110896213D01*
X133086790Y-110745894D01*
X133086785Y-110745890D01*
X132911015Y-110618186D01*
X132868349Y-110562856D01*
X132859900Y-110517868D01*
X132859900Y-108520692D01*
X132834810Y-108394561D01*
X132834809Y-108394560D01*
X132834809Y-108394556D01*
X132785592Y-108275736D01*
X132774586Y-108259264D01*
X132714140Y-108168799D01*
X129721219Y-105175878D01*
X129687734Y-105114555D01*
X129684900Y-105088197D01*
X129684900Y-104192774D01*
X129704585Y-104125735D01*
X129757389Y-104079980D01*
X129826547Y-104070036D01*
X129890103Y-104099061D01*
X129921280Y-104140367D01*
X129976898Y-104259639D01*
X130102402Y-104438877D01*
X130257123Y-104593598D01*
X130436361Y-104719102D01*
X130634670Y-104811575D01*
X130846023Y-104868207D01*
X131028926Y-104884208D01*
X131063998Y-104887277D01*
X131064000Y-104887277D01*
X131064002Y-104887277D01*
X131092254Y-104884805D01*
X131281977Y-104868207D01*
X131493330Y-104811575D01*
X131691639Y-104719102D01*
X131870877Y-104593598D01*
X132025598Y-104438877D01*
X132151102Y-104259639D01*
X132243575Y-104061330D01*
X132300207Y-103849977D01*
X132319277Y-103632000D01*
X132300207Y-103414023D01*
X132243575Y-103202670D01*
X132160122Y-103023705D01*
X132149630Y-102954627D01*
X132178150Y-102890843D01*
X132236626Y-102852604D01*
X132272504Y-102847300D01*
X132819907Y-102847300D01*
X132904765Y-102830419D01*
X132946044Y-102822209D01*
X133064864Y-102772992D01*
X133068061Y-102770856D01*
X133171800Y-102701541D01*
X134365140Y-101508200D01*
X134436592Y-101401264D01*
X134485809Y-101282444D01*
X134489403Y-101264374D01*
X134494868Y-101236903D01*
X134494868Y-101236900D01*
X134510900Y-101156305D01*
X134510900Y-97008565D01*
X134530585Y-96941526D01*
X134583389Y-96895771D01*
X134652547Y-96885827D01*
X134660666Y-96887272D01*
X134779354Y-96912500D01*
X134779355Y-96912500D01*
X134968644Y-96912500D01*
X134968646Y-96912500D01*
X135153803Y-96873144D01*
X135326730Y-96796151D01*
X135479871Y-96684888D01*
X135606533Y-96544216D01*
X135701179Y-96380284D01*
X135759674Y-96200256D01*
X135779460Y-96012000D01*
X135759674Y-95823744D01*
X135701179Y-95643716D01*
X135606533Y-95479784D01*
X135572125Y-95441570D01*
X135541895Y-95378578D01*
X135550520Y-95309243D01*
X135593150Y-95257024D01*
X135680877Y-95195598D01*
X135835598Y-95040877D01*
X135961102Y-94861639D01*
X136053575Y-94663330D01*
X136110207Y-94451977D01*
X136129277Y-94234000D01*
X136110207Y-94016023D01*
X136053575Y-93804670D01*
X135961102Y-93606362D01*
X135961100Y-93606359D01*
X135961099Y-93606357D01*
X135835599Y-93427124D01*
X135791363Y-93382888D01*
X135680877Y-93272402D01*
X135501639Y-93146898D01*
X135501640Y-93146898D01*
X135501638Y-93146897D01*
X135402484Y-93100661D01*
X135303330Y-93054425D01*
X135303326Y-93054424D01*
X135303322Y-93054422D01*
X135091977Y-92997793D01*
X134874002Y-92978723D01*
X134873998Y-92978723D01*
X134728682Y-92991436D01*
X134656023Y-92997793D01*
X134656020Y-92997793D01*
X134444677Y-93054422D01*
X134444668Y-93054426D01*
X134246361Y-93146898D01*
X134246357Y-93146900D01*
X134067121Y-93272402D01*
X133912402Y-93427121D01*
X133786900Y-93606357D01*
X133786898Y-93606361D01*
X133694426Y-93804668D01*
X133694422Y-93804677D01*
X133637793Y-94016020D01*
X133637793Y-94016024D01*
X133618723Y-94233997D01*
X133618723Y-94234002D01*
X133628258Y-94342988D01*
X133637018Y-94443124D01*
X133637793Y-94451975D01*
X133637793Y-94451979D01*
X133694422Y-94663322D01*
X133694424Y-94663326D01*
X133694425Y-94663330D01*
X133736300Y-94753131D01*
X133786897Y-94861638D01*
X133786898Y-94861639D01*
X133912402Y-95040877D01*
X134067123Y-95195598D01*
X134091510Y-95212674D01*
X134135134Y-95267247D01*
X134142328Y-95336746D01*
X134110806Y-95399101D01*
X134067843Y-95428806D01*
X134056740Y-95433405D01*
X133949797Y-95504861D01*
X133949796Y-95504862D01*
X133350863Y-96103794D01*
X133350862Y-96103795D01*
X133279407Y-96210737D01*
X133230191Y-96329555D01*
X133230189Y-96329561D01*
X133205100Y-96455692D01*
X133205100Y-100770197D01*
X133185415Y-100837236D01*
X133168781Y-100857878D01*
X132521478Y-101505181D01*
X132460155Y-101538666D01*
X132433797Y-101541500D01*
X132415257Y-101541500D01*
X132348218Y-101521815D01*
X132302463Y-101469011D01*
X132292519Y-101399853D01*
X132321544Y-101336297D01*
X132344127Y-101315929D01*
X132378877Y-101291598D01*
X132533598Y-101136877D01*
X132659102Y-100957639D01*
X132751575Y-100759330D01*
X132808207Y-100547977D01*
X132827277Y-100330000D01*
X132808207Y-100112023D01*
X132757061Y-99921144D01*
X132751577Y-99900677D01*
X132751576Y-99900676D01*
X132751575Y-99900670D01*
X132659102Y-99702362D01*
X132659100Y-99702359D01*
X132659099Y-99702357D01*
X132533599Y-99523124D01*
X132489363Y-99478888D01*
X132378877Y-99368402D01*
X132199639Y-99242898D01*
X132199640Y-99242898D01*
X132199638Y-99242897D01*
X132100484Y-99196661D01*
X132001330Y-99150425D01*
X132001326Y-99150424D01*
X132001324Y-99150423D01*
X131790378Y-99093900D01*
X131730718Y-99057535D01*
X131700189Y-98994688D01*
X131699151Y-98961171D01*
X131715460Y-98806000D01*
X131695674Y-98617744D01*
X131637179Y-98437716D01*
X131589856Y-98355750D01*
X131542534Y-98273785D01*
X131542529Y-98273778D01*
X131494750Y-98220714D01*
X131464520Y-98157722D01*
X131462900Y-98137742D01*
X131462900Y-92944283D01*
X131482585Y-92877244D01*
X131535389Y-92831489D01*
X131604547Y-92821545D01*
X131668103Y-92850570D01*
X131704831Y-92905965D01*
X131760818Y-93078278D01*
X131760821Y-93078284D01*
X131855467Y-93242216D01*
X131916321Y-93309801D01*
X131982129Y-93382888D01*
X132135265Y-93494148D01*
X132135270Y-93494151D01*
X132308192Y-93571142D01*
X132308197Y-93571144D01*
X132493354Y-93610500D01*
X132493355Y-93610500D01*
X132682644Y-93610500D01*
X132682646Y-93610500D01*
X132867803Y-93571144D01*
X133040730Y-93494151D01*
X133193871Y-93382888D01*
X133320533Y-93242216D01*
X133415179Y-93078284D01*
X133473674Y-92898256D01*
X133493460Y-92710000D01*
X133473674Y-92521744D01*
X133415179Y-92341716D01*
X133367856Y-92259750D01*
X133320534Y-92177785D01*
X133320529Y-92177778D01*
X133272750Y-92124714D01*
X133242520Y-92061722D01*
X133240900Y-92041742D01*
X133240900Y-88967802D01*
X133260585Y-88900763D01*
X133277219Y-88880121D01*
X136143139Y-86014201D01*
X136143141Y-86014199D01*
X136214592Y-85907264D01*
X136263809Y-85788444D01*
X136288900Y-85662305D01*
X136288900Y-82456256D01*
X136308585Y-82389217D01*
X136320750Y-82373284D01*
X136368533Y-82320216D01*
X136463179Y-82156284D01*
X136521674Y-81976256D01*
X136541460Y-81788000D01*
X136521674Y-81599744D01*
X136463179Y-81419716D01*
X136368533Y-81255784D01*
X136241871Y-81115112D01*
X136241870Y-81115111D01*
X136088734Y-81003851D01*
X136088729Y-81003848D01*
X135915807Y-80926857D01*
X135915802Y-80926855D01*
X135770001Y-80895865D01*
X135730646Y-80887500D01*
X135541354Y-80887500D01*
X135508897Y-80894398D01*
X135356197Y-80926855D01*
X135356192Y-80926857D01*
X135183270Y-81003848D01*
X135183265Y-81003851D01*
X135030129Y-81115111D01*
X134903466Y-81255785D01*
X134808821Y-81419715D01*
X134808818Y-81419722D01*
X134750327Y-81599740D01*
X134750326Y-81599744D01*
X134730540Y-81788000D01*
X134750326Y-81976256D01*
X134750327Y-81976259D01*
X134808818Y-82156277D01*
X134808821Y-82156284D01*
X134903467Y-82320216D01*
X134951250Y-82373284D01*
X134981480Y-82436275D01*
X134983100Y-82456256D01*
X134983100Y-85276196D01*
X134963415Y-85343235D01*
X134946781Y-85363877D01*
X132080863Y-88229794D01*
X132080862Y-88229795D01*
X132009407Y-88336737D01*
X131960191Y-88455555D01*
X131960189Y-88455561D01*
X131935100Y-88581692D01*
X131935100Y-92041742D01*
X131915415Y-92108781D01*
X131903250Y-92124714D01*
X131855470Y-92177778D01*
X131855465Y-92177785D01*
X131760821Y-92341715D01*
X131760818Y-92341722D01*
X131704831Y-92514034D01*
X131665393Y-92571710D01*
X131601035Y-92598908D01*
X131532188Y-92586993D01*
X131480713Y-92539749D01*
X131462900Y-92475716D01*
X131462900Y-85157802D01*
X131482585Y-85090763D01*
X131499219Y-85070121D01*
X132320521Y-84248819D01*
X132381844Y-84215334D01*
X132408202Y-84212500D01*
X132428644Y-84212500D01*
X132428646Y-84212500D01*
X132613803Y-84173144D01*
X132786730Y-84096151D01*
X132939871Y-83984888D01*
X133066533Y-83844216D01*
X133161179Y-83680284D01*
X133219674Y-83500256D01*
X133239460Y-83312000D01*
X133219674Y-83123744D01*
X133161179Y-82943716D01*
X133066533Y-82779784D01*
X132939871Y-82639112D01*
X132939870Y-82639111D01*
X132786734Y-82527851D01*
X132786729Y-82527848D01*
X132613807Y-82450857D01*
X132613802Y-82450855D01*
X132468001Y-82419865D01*
X132428646Y-82411500D01*
X132239354Y-82411500D01*
X132206897Y-82418398D01*
X132054197Y-82450855D01*
X132054192Y-82450857D01*
X131881270Y-82527848D01*
X131881265Y-82527851D01*
X131728129Y-82639111D01*
X131601466Y-82779785D01*
X131506821Y-82943715D01*
X131506818Y-82943722D01*
X131448327Y-83123739D01*
X131448327Y-83123740D01*
X131448326Y-83123744D01*
X131445870Y-83147112D01*
X131435229Y-83248350D01*
X131408644Y-83312964D01*
X131399589Y-83323068D01*
X130302861Y-84419797D01*
X130302860Y-84419798D01*
X130235575Y-84520500D01*
X130231404Y-84526741D01*
X130182192Y-84645551D01*
X130182189Y-84645561D01*
X130157100Y-84771692D01*
X130157100Y-85404647D01*
X130137415Y-85471686D01*
X130084611Y-85517441D01*
X130015453Y-85527385D01*
X129951897Y-85498360D01*
X129940951Y-85487620D01*
X129891871Y-85433112D01*
X129891870Y-85433111D01*
X129738734Y-85321851D01*
X129738729Y-85321848D01*
X129565807Y-85244857D01*
X129565802Y-85244855D01*
X129420001Y-85213865D01*
X129380646Y-85205500D01*
X129191354Y-85205500D01*
X129158897Y-85212398D01*
X129006197Y-85244855D01*
X129006192Y-85244857D01*
X128833270Y-85321848D01*
X128833265Y-85321851D01*
X128680129Y-85433111D01*
X128553466Y-85573785D01*
X128458821Y-85737715D01*
X128458818Y-85737722D01*
X128403731Y-85907264D01*
X128400326Y-85917744D01*
X128380540Y-86106000D01*
X128400326Y-86294256D01*
X128400327Y-86294259D01*
X128458818Y-86474277D01*
X128458821Y-86474284D01*
X128553467Y-86638216D01*
X128601250Y-86691284D01*
X128631480Y-86754275D01*
X128633100Y-86774256D01*
X128633100Y-88070196D01*
X128613415Y-88137235D01*
X128596781Y-88157877D01*
X128270863Y-88483794D01*
X128270862Y-88483795D01*
X128199407Y-88590737D01*
X128150191Y-88709555D01*
X128150189Y-88709561D01*
X128125100Y-88835692D01*
X128125100Y-89753633D01*
X128105415Y-89820672D01*
X128093250Y-89836605D01*
X128044466Y-89890785D01*
X127949821Y-90054715D01*
X127949818Y-90054722D01*
X127891387Y-90234555D01*
X127891326Y-90234744D01*
X127871540Y-90423000D01*
X127891326Y-90611256D01*
X127891327Y-90611259D01*
X127949818Y-90791277D01*
X127949821Y-90791284D01*
X128044466Y-90955215D01*
X128093249Y-91009393D01*
X128123479Y-91072384D01*
X128125100Y-91092366D01*
X128125100Y-93565742D01*
X128105415Y-93632781D01*
X128093250Y-93648714D01*
X128045470Y-93701778D01*
X128045465Y-93701785D01*
X127950821Y-93865715D01*
X127950818Y-93865722D01*
X127892327Y-94045740D01*
X127892326Y-94045744D01*
X127872540Y-94234000D01*
X127892326Y-94422256D01*
X127892327Y-94422259D01*
X127950818Y-94602277D01*
X127950821Y-94602284D01*
X128045467Y-94766216D01*
X128131386Y-94861638D01*
X128172129Y-94906888D01*
X128325265Y-95018148D01*
X128325270Y-95018151D01*
X128498192Y-95095142D01*
X128498197Y-95095144D01*
X128683354Y-95134500D01*
X128683355Y-95134500D01*
X128872644Y-95134500D01*
X128872646Y-95134500D01*
X129057803Y-95095144D01*
X129230730Y-95018151D01*
X129383871Y-94906888D01*
X129510533Y-94766216D01*
X129605179Y-94602284D01*
X129663674Y-94422256D01*
X129683460Y-94234000D01*
X129663674Y-94045744D01*
X129605179Y-93865716D01*
X129510533Y-93701784D01*
X129510529Y-93701778D01*
X129462750Y-93648714D01*
X129432520Y-93585722D01*
X129430900Y-93565742D01*
X129430900Y-91090145D01*
X129450585Y-91023106D01*
X129462751Y-91007172D01*
X129509533Y-90955216D01*
X129604179Y-90791284D01*
X129662674Y-90611256D01*
X129682460Y-90423000D01*
X129662674Y-90234744D01*
X129604179Y-90054716D01*
X129509533Y-89890784D01*
X129462750Y-89838826D01*
X129432520Y-89775834D01*
X129430900Y-89755854D01*
X129430900Y-89221802D01*
X129450585Y-89154763D01*
X129467219Y-89134121D01*
X129793138Y-88808202D01*
X129793140Y-88808200D01*
X129864592Y-88701264D01*
X129913809Y-88582444D01*
X129913810Y-88582438D01*
X129914440Y-88580364D01*
X129915066Y-88579408D01*
X129916140Y-88576816D01*
X129916631Y-88577019D01*
X129952738Y-88521926D01*
X130016551Y-88493470D01*
X130085618Y-88504032D01*
X130138011Y-88550257D01*
X130157100Y-88616361D01*
X130157100Y-98137742D01*
X130137415Y-98204781D01*
X130125250Y-98220714D01*
X130077470Y-98273778D01*
X130077465Y-98273785D01*
X129982821Y-98437715D01*
X129982818Y-98437722D01*
X129924327Y-98617740D01*
X129924326Y-98617744D01*
X129904540Y-98806000D01*
X129924326Y-98994256D01*
X129924327Y-98994259D01*
X129982818Y-99174277D01*
X129982821Y-99174284D01*
X130077467Y-99338216D01*
X130104647Y-99368402D01*
X130204129Y-99478888D01*
X130357265Y-99590148D01*
X130357267Y-99590149D01*
X130357270Y-99590151D01*
X130391012Y-99605174D01*
X130444247Y-99650422D01*
X130464569Y-99717271D01*
X130452957Y-99770856D01*
X130392427Y-99900663D01*
X130392422Y-99900677D01*
X130335793Y-100112020D01*
X130335793Y-100112024D01*
X130316723Y-100329997D01*
X130316723Y-100330002D01*
X130335793Y-100547975D01*
X130335793Y-100547979D01*
X130392422Y-100759322D01*
X130392424Y-100759326D01*
X130392425Y-100759330D01*
X130445526Y-100873205D01*
X130484898Y-100957639D01*
X130484901Y-100957645D01*
X130518744Y-101005976D01*
X130541072Y-101072182D01*
X130524062Y-101139949D01*
X130473115Y-101187762D01*
X130417170Y-101201100D01*
X127697693Y-101201100D01*
X127571561Y-101226189D01*
X127571555Y-101226191D01*
X127452736Y-101275407D01*
X127345798Y-101346860D01*
X127345795Y-101346863D01*
X125495878Y-103196781D01*
X125434555Y-103230266D01*
X125408197Y-103233100D01*
X124850299Y-103233100D01*
X124783260Y-103213415D01*
X124737505Y-103160611D01*
X124727561Y-103091453D01*
X124742912Y-103047100D01*
X124756419Y-103023705D01*
X124779179Y-102984284D01*
X124837674Y-102804256D01*
X124857460Y-102616000D01*
X124837674Y-102427744D01*
X124779179Y-102247716D01*
X124684533Y-102083784D01*
X124557871Y-101943112D01*
X124557870Y-101943111D01*
X124404734Y-101831851D01*
X124404729Y-101831848D01*
X124231807Y-101754857D01*
X124231802Y-101754855D01*
X124086001Y-101723865D01*
X124046646Y-101715500D01*
X124046645Y-101715500D01*
X124026202Y-101715500D01*
X123959163Y-101695815D01*
X123938521Y-101679181D01*
X122589343Y-100330002D01*
X123966723Y-100330002D01*
X123985793Y-100547975D01*
X123985793Y-100547979D01*
X124042422Y-100759322D01*
X124042424Y-100759326D01*
X124042425Y-100759330D01*
X124048454Y-100772259D01*
X124134897Y-100957638D01*
X124134898Y-100957639D01*
X124260402Y-101136877D01*
X124415123Y-101291598D01*
X124594361Y-101417102D01*
X124792670Y-101509575D01*
X125004023Y-101566207D01*
X125186926Y-101582208D01*
X125221998Y-101585277D01*
X125222000Y-101585277D01*
X125222002Y-101585277D01*
X125250254Y-101582805D01*
X125439977Y-101566207D01*
X125651330Y-101509575D01*
X125849639Y-101417102D01*
X126028877Y-101291598D01*
X126183598Y-101136877D01*
X126309102Y-100957639D01*
X126401575Y-100759330D01*
X126458207Y-100547977D01*
X126477277Y-100330000D01*
X126458207Y-100112023D01*
X126407061Y-99921144D01*
X126401577Y-99900677D01*
X126401576Y-99900676D01*
X126401575Y-99900670D01*
X126309102Y-99702362D01*
X126309100Y-99702359D01*
X126309099Y-99702357D01*
X126183599Y-99523124D01*
X126139363Y-99478888D01*
X126028877Y-99368402D01*
X125849639Y-99242898D01*
X125849640Y-99242898D01*
X125849638Y-99242897D01*
X125750484Y-99196661D01*
X125651330Y-99150425D01*
X125651326Y-99150424D01*
X125651322Y-99150422D01*
X125439977Y-99093793D01*
X125222002Y-99074723D01*
X125221998Y-99074723D01*
X125076682Y-99087436D01*
X125004023Y-99093793D01*
X125004020Y-99093793D01*
X124792677Y-99150422D01*
X124792668Y-99150426D01*
X124594361Y-99242898D01*
X124594357Y-99242900D01*
X124415121Y-99368402D01*
X124260402Y-99523121D01*
X124134900Y-99702357D01*
X124134898Y-99702361D01*
X124042426Y-99900668D01*
X124042422Y-99900677D01*
X123985793Y-100112020D01*
X123985793Y-100112024D01*
X123966723Y-100329997D01*
X123966723Y-100330002D01*
X122589343Y-100330002D01*
X122482219Y-100222878D01*
X122448734Y-100161555D01*
X122445900Y-100135197D01*
X122445900Y-98034964D01*
X122465585Y-97967925D01*
X122498773Y-97933391D01*
X122599877Y-97862598D01*
X122754598Y-97707877D01*
X122880102Y-97528639D01*
X122972575Y-97330330D01*
X123029207Y-97118977D01*
X123048277Y-96901000D01*
X123029207Y-96683023D01*
X122972575Y-96471670D01*
X122880102Y-96273362D01*
X122880100Y-96273359D01*
X122880099Y-96273357D01*
X122754599Y-96094124D01*
X122717352Y-96056877D01*
X122599877Y-95939402D01*
X122420639Y-95813898D01*
X122420640Y-95813898D01*
X122420638Y-95813897D01*
X122321484Y-95767661D01*
X122222330Y-95721425D01*
X122222326Y-95721424D01*
X122222322Y-95721422D01*
X122010977Y-95664793D01*
X121793002Y-95645723D01*
X121792998Y-95645723D01*
X121647682Y-95658436D01*
X121575023Y-95664793D01*
X121575020Y-95664793D01*
X121363677Y-95721422D01*
X121363668Y-95721426D01*
X121165361Y-95813898D01*
X121165357Y-95813900D01*
X120986121Y-95939402D01*
X120831402Y-96094121D01*
X120705900Y-96273357D01*
X120705898Y-96273361D01*
X120613426Y-96471668D01*
X120613422Y-96471677D01*
X120556793Y-96683020D01*
X120556793Y-96683024D01*
X120537723Y-96900997D01*
X120537723Y-96901002D01*
X120556793Y-97118975D01*
X120556793Y-97118979D01*
X120613422Y-97330322D01*
X120613424Y-97330326D01*
X120613425Y-97330330D01*
X120646677Y-97401639D01*
X120705897Y-97528638D01*
X120705898Y-97528639D01*
X120831402Y-97707877D01*
X120986123Y-97862598D01*
X121087225Y-97933390D01*
X121130849Y-97987966D01*
X121140100Y-98034964D01*
X121140100Y-98101543D01*
X121120415Y-98168582D01*
X121067611Y-98214337D01*
X120998453Y-98224281D01*
X120965664Y-98214822D01*
X120929807Y-98198857D01*
X120929802Y-98198855D01*
X120784001Y-98167865D01*
X120744646Y-98159500D01*
X120555354Y-98159500D01*
X120522897Y-98166398D01*
X120370197Y-98198855D01*
X120370192Y-98198857D01*
X120197270Y-98275848D01*
X120197265Y-98275851D01*
X120049213Y-98383418D01*
X119983407Y-98406898D01*
X119976328Y-98407100D01*
X119823693Y-98407100D01*
X119697561Y-98432189D01*
X119697555Y-98432191D01*
X119578737Y-98481407D01*
X119471797Y-98552861D01*
X119471796Y-98552862D01*
X118129878Y-99894781D01*
X118068555Y-99928266D01*
X118042197Y-99931100D01*
X111417672Y-99931100D01*
X111350633Y-99911415D01*
X111344787Y-99907418D01*
X111196734Y-99799851D01*
X111196729Y-99799848D01*
X111023807Y-99722857D01*
X111023802Y-99722855D01*
X110878001Y-99691865D01*
X110838646Y-99683500D01*
X110649354Y-99683500D01*
X110616897Y-99690398D01*
X110464197Y-99722855D01*
X110464192Y-99722857D01*
X110291270Y-99799848D01*
X110291265Y-99799851D01*
X110138129Y-99911111D01*
X110011466Y-100051785D01*
X109916821Y-100215715D01*
X109916818Y-100215722D01*
X109858327Y-100395740D01*
X109858326Y-100395744D01*
X109838540Y-100584000D01*
X105760000Y-100584000D01*
X105760000Y-96774000D01*
X112790723Y-96774000D01*
X112801833Y-96900997D01*
X112809793Y-96991975D01*
X112809793Y-96991979D01*
X112866422Y-97203322D01*
X112866424Y-97203326D01*
X112866425Y-97203330D01*
X112872454Y-97216259D01*
X112958897Y-97401638D01*
X112958898Y-97401639D01*
X113084402Y-97580877D01*
X113239123Y-97735598D01*
X113418361Y-97861102D01*
X113616670Y-97953575D01*
X113828023Y-98010207D01*
X114010926Y-98026208D01*
X114045998Y-98029277D01*
X114046000Y-98029277D01*
X114046002Y-98029277D01*
X114074254Y-98026805D01*
X114263977Y-98010207D01*
X114475330Y-97953575D01*
X114673639Y-97861102D01*
X114852877Y-97735598D01*
X115007598Y-97580877D01*
X115133102Y-97401639D01*
X115225575Y-97203330D01*
X115282207Y-96991977D01*
X115301277Y-96774000D01*
X115282207Y-96556023D01*
X115225575Y-96344670D01*
X115133102Y-96146362D01*
X115133100Y-96146359D01*
X115133099Y-96146357D01*
X115007599Y-95967124D01*
X114979877Y-95939402D01*
X114852877Y-95812402D01*
X114673639Y-95686898D01*
X114673640Y-95686898D01*
X114673638Y-95686897D01*
X114574484Y-95640661D01*
X114475330Y-95594425D01*
X114475326Y-95594424D01*
X114475322Y-95594422D01*
X114263977Y-95537793D01*
X114046002Y-95518723D01*
X114045998Y-95518723D01*
X113900682Y-95531436D01*
X113828023Y-95537793D01*
X113828020Y-95537793D01*
X113616677Y-95594422D01*
X113616668Y-95594426D01*
X113418361Y-95686898D01*
X113418357Y-95686900D01*
X113239121Y-95812402D01*
X113084402Y-95967121D01*
X112958900Y-96146357D01*
X112958898Y-96146361D01*
X112928879Y-96210737D01*
X112873471Y-96329561D01*
X112866426Y-96344668D01*
X112866422Y-96344677D01*
X112809793Y-96556020D01*
X112809793Y-96556024D01*
X112798683Y-96683020D01*
X112790723Y-96774000D01*
X105760000Y-96774000D01*
X105760000Y-89408002D01*
X106948723Y-89408002D01*
X106967793Y-89625975D01*
X106967793Y-89625979D01*
X107024422Y-89837322D01*
X107024424Y-89837326D01*
X107024425Y-89837330D01*
X107070661Y-89936484D01*
X107116897Y-90035638D01*
X107116898Y-90035639D01*
X107242402Y-90214877D01*
X107397123Y-90369598D01*
X107576361Y-90495102D01*
X107774670Y-90587575D01*
X107986023Y-90644207D01*
X108168926Y-90660208D01*
X108203998Y-90663277D01*
X108204000Y-90663277D01*
X108204002Y-90663277D01*
X108232254Y-90660805D01*
X108421977Y-90644207D01*
X108633330Y-90587575D01*
X108831639Y-90495102D01*
X109010877Y-90369598D01*
X109117419Y-90263056D01*
X109178742Y-90229571D01*
X109248434Y-90234555D01*
X109304367Y-90276427D01*
X109328784Y-90341891D01*
X109329100Y-90350737D01*
X109329100Y-94753131D01*
X109317483Y-94805534D01*
X109310426Y-94820668D01*
X109310422Y-94820677D01*
X109253793Y-95032020D01*
X109253793Y-95032024D01*
X109239483Y-95195596D01*
X109234723Y-95250000D01*
X109250768Y-95433405D01*
X109253793Y-95467975D01*
X109253793Y-95467979D01*
X109310422Y-95679322D01*
X109310424Y-95679326D01*
X109310425Y-95679330D01*
X109330055Y-95721426D01*
X109402897Y-95877638D01*
X109402898Y-95877639D01*
X109528402Y-96056877D01*
X109683123Y-96211598D01*
X109862361Y-96337102D01*
X110060670Y-96429575D01*
X110272023Y-96486207D01*
X110454926Y-96502208D01*
X110489998Y-96505277D01*
X110490000Y-96505277D01*
X110490002Y-96505277D01*
X110518254Y-96502805D01*
X110707977Y-96486207D01*
X110919330Y-96429575D01*
X111117639Y-96337102D01*
X111296877Y-96211598D01*
X111451598Y-96056877D01*
X111577102Y-95877639D01*
X111669575Y-95679330D01*
X111726207Y-95467977D01*
X111745277Y-95250000D01*
X111726207Y-95032023D01*
X111669575Y-94820670D01*
X111577102Y-94622362D01*
X111577100Y-94622359D01*
X111577099Y-94622357D01*
X111451599Y-94443124D01*
X111430731Y-94422256D01*
X111296877Y-94288402D01*
X111117639Y-94162898D01*
X111117640Y-94162898D01*
X111117638Y-94162897D01*
X111018484Y-94116661D01*
X110919330Y-94070425D01*
X110919327Y-94070424D01*
X110919325Y-94070423D01*
X110726806Y-94018838D01*
X110667146Y-93982473D01*
X110636617Y-93919626D01*
X110634900Y-93899063D01*
X110634900Y-92849911D01*
X110654585Y-92782872D01*
X110707389Y-92737117D01*
X110776547Y-92727173D01*
X110809329Y-92736629D01*
X110972197Y-92809144D01*
X111157354Y-92848500D01*
X111157355Y-92848500D01*
X111346644Y-92848500D01*
X111346646Y-92848500D01*
X111531803Y-92809144D01*
X111704730Y-92732151D01*
X111810097Y-92655598D01*
X111852787Y-92624582D01*
X111918593Y-92601102D01*
X111925672Y-92600900D01*
X116264197Y-92600900D01*
X116331236Y-92620585D01*
X116351878Y-92637219D01*
X117674781Y-93960121D01*
X117708266Y-94021444D01*
X117711100Y-94047802D01*
X117711100Y-96359742D01*
X117691415Y-96426781D01*
X117679250Y-96442714D01*
X117631470Y-96495778D01*
X117631465Y-96495785D01*
X117536821Y-96659715D01*
X117536818Y-96659722D01*
X117492491Y-96796148D01*
X117478326Y-96839744D01*
X117458540Y-97028000D01*
X117478326Y-97216256D01*
X117478327Y-97216259D01*
X117536818Y-97396277D01*
X117536821Y-97396284D01*
X117631467Y-97560216D01*
X117758129Y-97700888D01*
X117911265Y-97812148D01*
X117911270Y-97812151D01*
X118084192Y-97889142D01*
X118084197Y-97889144D01*
X118269354Y-97928500D01*
X118269355Y-97928500D01*
X118458644Y-97928500D01*
X118458646Y-97928500D01*
X118643803Y-97889144D01*
X118816730Y-97812151D01*
X118969871Y-97700888D01*
X119096533Y-97560216D01*
X119191179Y-97396284D01*
X119249674Y-97216256D01*
X119269460Y-97028000D01*
X119249674Y-96839744D01*
X119191179Y-96659716D01*
X119096533Y-96495784D01*
X119096529Y-96495778D01*
X119048750Y-96442714D01*
X119018520Y-96379722D01*
X119016900Y-96359742D01*
X119016900Y-93661692D01*
X118991810Y-93535561D01*
X118991809Y-93535560D01*
X118991809Y-93535556D01*
X118991807Y-93535551D01*
X118942594Y-93416738D01*
X118938429Y-93410506D01*
X118938427Y-93410500D01*
X118938426Y-93410501D01*
X118871139Y-93309798D01*
X118871136Y-93309795D01*
X117255344Y-91694002D01*
X119648723Y-91694002D01*
X119667793Y-91911975D01*
X119667793Y-91911979D01*
X119724422Y-92123322D01*
X119724424Y-92123326D01*
X119724425Y-92123330D01*
X119757677Y-92194639D01*
X119816897Y-92321638D01*
X119816898Y-92321639D01*
X119942402Y-92500877D01*
X120097123Y-92655598D01*
X120276361Y-92781102D01*
X120474670Y-92873575D01*
X120686023Y-92930207D01*
X120868926Y-92946208D01*
X120903998Y-92949277D01*
X120904000Y-92949277D01*
X120904002Y-92949277D01*
X120932254Y-92946805D01*
X121121977Y-92930207D01*
X121333330Y-92873575D01*
X121531639Y-92781102D01*
X121710877Y-92655598D01*
X121865598Y-92500877D01*
X121991102Y-92321639D01*
X122083575Y-92123330D01*
X122140207Y-91911977D01*
X122159277Y-91694000D01*
X122148166Y-91567000D01*
X124093723Y-91567000D01*
X124104833Y-91693997D01*
X124112793Y-91784975D01*
X124112793Y-91784979D01*
X124169422Y-91996322D01*
X124169424Y-91996326D01*
X124169425Y-91996330D01*
X124190601Y-92041742D01*
X124261897Y-92194638D01*
X124261898Y-92194639D01*
X124387402Y-92373877D01*
X124542123Y-92528598D01*
X124721361Y-92654102D01*
X124919670Y-92746575D01*
X125131023Y-92803207D01*
X125313926Y-92819208D01*
X125348998Y-92822277D01*
X125349000Y-92822277D01*
X125349002Y-92822277D01*
X125377254Y-92819805D01*
X125566977Y-92803207D01*
X125778330Y-92746575D01*
X125976639Y-92654102D01*
X126155877Y-92528598D01*
X126310598Y-92373877D01*
X126436102Y-92194639D01*
X126528575Y-91996330D01*
X126585207Y-91784977D01*
X126604277Y-91567000D01*
X126585207Y-91349023D01*
X126528575Y-91137670D01*
X126436102Y-90939362D01*
X126436100Y-90939359D01*
X126436099Y-90939357D01*
X126310599Y-90760124D01*
X126282871Y-90732396D01*
X126155877Y-90605402D01*
X125976639Y-90479898D01*
X125976640Y-90479898D01*
X125976638Y-90479897D01*
X125854621Y-90423000D01*
X125778330Y-90387425D01*
X125778326Y-90387424D01*
X125778322Y-90387422D01*
X125566977Y-90330793D01*
X125349002Y-90311723D01*
X125348998Y-90311723D01*
X125203682Y-90324436D01*
X125131023Y-90330793D01*
X125131020Y-90330793D01*
X124919677Y-90387422D01*
X124919668Y-90387426D01*
X124721361Y-90479898D01*
X124721357Y-90479900D01*
X124542121Y-90605402D01*
X124387402Y-90760121D01*
X124261900Y-90939357D01*
X124261898Y-90939361D01*
X124169426Y-91137668D01*
X124169422Y-91137677D01*
X124112793Y-91349020D01*
X124112793Y-91349024D01*
X124101683Y-91476020D01*
X124093723Y-91567000D01*
X122148166Y-91567000D01*
X122140207Y-91476023D01*
X122083575Y-91264670D01*
X121991102Y-91066362D01*
X121991100Y-91066359D01*
X121991099Y-91066357D01*
X121865599Y-90887124D01*
X121865598Y-90887123D01*
X121710877Y-90732402D01*
X121710872Y-90732399D01*
X121710869Y-90732396D01*
X121609776Y-90661609D01*
X121566151Y-90607032D01*
X121556900Y-90560035D01*
X121556900Y-84488256D01*
X121576585Y-84421217D01*
X121588750Y-84405284D01*
X121636533Y-84352216D01*
X121731179Y-84188284D01*
X121789674Y-84008256D01*
X121809460Y-83820000D01*
X121789674Y-83631744D01*
X121731179Y-83451716D01*
X121636533Y-83287784D01*
X121509871Y-83147112D01*
X121477708Y-83123744D01*
X121356734Y-83035851D01*
X121356729Y-83035848D01*
X121183807Y-82958857D01*
X121183802Y-82958855D01*
X121038001Y-82927865D01*
X120998646Y-82919500D01*
X120809354Y-82919500D01*
X120776897Y-82926398D01*
X120624197Y-82958855D01*
X120624192Y-82958857D01*
X120451270Y-83035848D01*
X120451265Y-83035851D01*
X120298129Y-83147111D01*
X120171466Y-83287785D01*
X120076821Y-83451715D01*
X120076818Y-83451722D01*
X120046884Y-83543851D01*
X120018326Y-83631744D01*
X119998540Y-83820000D01*
X120018326Y-84008256D01*
X120018327Y-84008259D01*
X120076818Y-84188277D01*
X120076821Y-84188284D01*
X120171467Y-84352216D01*
X120219250Y-84405284D01*
X120249480Y-84468275D01*
X120251100Y-84488256D01*
X120251100Y-90560035D01*
X120231415Y-90627074D01*
X120198225Y-90661609D01*
X120097123Y-90732402D01*
X119942400Y-90887124D01*
X119816900Y-91066357D01*
X119816898Y-91066361D01*
X119724426Y-91264668D01*
X119724422Y-91264677D01*
X119667793Y-91476020D01*
X119667793Y-91476024D01*
X119648723Y-91693997D01*
X119648723Y-91694002D01*
X117255344Y-91694002D01*
X117002205Y-91440863D01*
X117002204Y-91440862D01*
X117002200Y-91440859D01*
X116895264Y-91369408D01*
X116846050Y-91349023D01*
X116776444Y-91320191D01*
X116776438Y-91320189D01*
X116650307Y-91295100D01*
X116650305Y-91295100D01*
X111925672Y-91295100D01*
X111858633Y-91275415D01*
X111852787Y-91271418D01*
X111704734Y-91163851D01*
X111704729Y-91163848D01*
X111531807Y-91086857D01*
X111531802Y-91086855D01*
X111386001Y-91055865D01*
X111346646Y-91047500D01*
X111157354Y-91047500D01*
X111124897Y-91054398D01*
X110972197Y-91086855D01*
X110972192Y-91086857D01*
X110809336Y-91159367D01*
X110740086Y-91168652D01*
X110676809Y-91139024D01*
X110639596Y-91079889D01*
X110634900Y-91046088D01*
X110634900Y-90237802D01*
X110654585Y-90170763D01*
X110671219Y-90150121D01*
X111994121Y-88827219D01*
X112055444Y-88793734D01*
X112081802Y-88790900D01*
X114235695Y-88790900D01*
X117944328Y-88790900D01*
X118011367Y-88810585D01*
X118017213Y-88814582D01*
X118165265Y-88922148D01*
X118165270Y-88922151D01*
X118338192Y-88999142D01*
X118338197Y-88999144D01*
X118523354Y-89038500D01*
X118523355Y-89038500D01*
X118712644Y-89038500D01*
X118712646Y-89038500D01*
X118897803Y-88999144D01*
X119070730Y-88922151D01*
X119223871Y-88810888D01*
X119350533Y-88670216D01*
X119445179Y-88506284D01*
X119503674Y-88326256D01*
X119523460Y-88138000D01*
X119503674Y-87949744D01*
X119445179Y-87769716D01*
X119350533Y-87605784D01*
X119223871Y-87465112D01*
X119217340Y-87460367D01*
X119070734Y-87353851D01*
X119070729Y-87353848D01*
X118897807Y-87276857D01*
X118897802Y-87276855D01*
X118752001Y-87245865D01*
X118712646Y-87237500D01*
X118523354Y-87237500D01*
X118490897Y-87244398D01*
X118338197Y-87276855D01*
X118338192Y-87276857D01*
X118165270Y-87353848D01*
X118165265Y-87353851D01*
X118017213Y-87461418D01*
X117951407Y-87484898D01*
X117944328Y-87485100D01*
X114621802Y-87485100D01*
X114554763Y-87465415D01*
X114534121Y-87448781D01*
X111424409Y-84339069D01*
X111390924Y-84277746D01*
X111388769Y-84264348D01*
X111380774Y-84188277D01*
X111375674Y-84139744D01*
X111317179Y-83959716D01*
X111222533Y-83795784D01*
X111095871Y-83655112D01*
X111063708Y-83631744D01*
X110942734Y-83543851D01*
X110942729Y-83543848D01*
X110769807Y-83466857D01*
X110769802Y-83466855D01*
X110624001Y-83435865D01*
X110584646Y-83427500D01*
X110395354Y-83427500D01*
X110362897Y-83434398D01*
X110210197Y-83466855D01*
X110210192Y-83466857D01*
X110037270Y-83543848D01*
X110037265Y-83543851D01*
X109884129Y-83655111D01*
X109757466Y-83795785D01*
X109662821Y-83959715D01*
X109662818Y-83959722D01*
X109618491Y-84096148D01*
X109604326Y-84139744D01*
X109584540Y-84328000D01*
X109604326Y-84516256D01*
X109604327Y-84516259D01*
X109662818Y-84696277D01*
X109662821Y-84696284D01*
X109757467Y-84860216D01*
X109884129Y-85000888D01*
X110037265Y-85112148D01*
X110037270Y-85112151D01*
X110210192Y-85189142D01*
X110210197Y-85189144D01*
X110395354Y-85228500D01*
X110415797Y-85228500D01*
X110482836Y-85248185D01*
X110503478Y-85264819D01*
X111577768Y-86339109D01*
X112512079Y-87273419D01*
X112545564Y-87334742D01*
X112540580Y-87404434D01*
X112498708Y-87460367D01*
X112433244Y-87484784D01*
X112424398Y-87485100D01*
X111695693Y-87485100D01*
X111569561Y-87510189D01*
X111569551Y-87510192D01*
X111455913Y-87557262D01*
X111455914Y-87557263D01*
X111450736Y-87559408D01*
X111450729Y-87559411D01*
X111343798Y-87630860D01*
X111343795Y-87630863D01*
X109655948Y-89318709D01*
X109594625Y-89352194D01*
X109524933Y-89347210D01*
X109469000Y-89305338D01*
X109444739Y-89241836D01*
X109440207Y-89190023D01*
X109389061Y-88999144D01*
X109383577Y-88978677D01*
X109383576Y-88978676D01*
X109383575Y-88978670D01*
X109291102Y-88780362D01*
X109291100Y-88780359D01*
X109291099Y-88780357D01*
X109165599Y-88601124D01*
X109111331Y-88546856D01*
X109010877Y-88446402D01*
X108872978Y-88349844D01*
X108831638Y-88320897D01*
X108732484Y-88274661D01*
X108633330Y-88228425D01*
X108633326Y-88228424D01*
X108633322Y-88228422D01*
X108421977Y-88171793D01*
X108204002Y-88152723D01*
X108203998Y-88152723D01*
X108058682Y-88165436D01*
X107986023Y-88171793D01*
X107986020Y-88171793D01*
X107774677Y-88228422D01*
X107774668Y-88228426D01*
X107576361Y-88320898D01*
X107576357Y-88320900D01*
X107397121Y-88446402D01*
X107242402Y-88601121D01*
X107116900Y-88780357D01*
X107116898Y-88780361D01*
X107024426Y-88978668D01*
X107024422Y-88978677D01*
X106967793Y-89190020D01*
X106967793Y-89190024D01*
X106948723Y-89407997D01*
X106948723Y-89408002D01*
X105760000Y-89408002D01*
X105760000Y-82249860D01*
X105760011Y-82248186D01*
X105762190Y-82086770D01*
X105762959Y-82074560D01*
X105799190Y-81753007D01*
X105799191Y-81752986D01*
X105801520Y-81739284D01*
X105873337Y-81424633D01*
X105873344Y-81424599D01*
X105877186Y-81411261D01*
X105983801Y-81106571D01*
X105989119Y-81093736D01*
X106129167Y-80802923D01*
X106135883Y-80790771D01*
X106307622Y-80517451D01*
X106315652Y-80506133D01*
X106516914Y-80253758D01*
X106526163Y-80243409D01*
X106754409Y-80015163D01*
X106764758Y-80005914D01*
X107017133Y-79804652D01*
X107028451Y-79796622D01*
X107301771Y-79624883D01*
X107313923Y-79618167D01*
X107604741Y-79478116D01*
X107617571Y-79472801D01*
X107922261Y-79366186D01*
X107935599Y-79362344D01*
X108250289Y-79290519D01*
X108263986Y-79288191D01*
X108585568Y-79251958D01*
X108597761Y-79251190D01*
X108759186Y-79249010D01*
X108760860Y-79249000D01*
X134159118Y-79249000D01*
X134160855Y-79249011D01*
G37*
G04 #@! TD.AperFunction*
G04 #@! TD*
M02*
