G04 #@! TF.GenerationSoftware,KiCad,Pcbnew,8.0.1-rc1*
G04 #@! TF.CreationDate,2024-03-16T10:33:16-04:00*
G04 #@! TF.ProjectId,boostlet,626f6f73-746c-4657-942e-6b696361645f,rev?*
G04 #@! TF.SameCoordinates,Original*
G04 #@! TF.FileFunction,Legend,Bot*
G04 #@! TF.FilePolarity,Positive*
%FSLAX46Y46*%
G04 Gerber Fmt 4.6, Leading zero omitted, Abs format (unit mm)*
G04 Created by KiCad (PCBNEW 8.0.1-rc1) date 2024-03-16 10:33:16*
%MOMM*%
%LPD*%
G01*
G04 APERTURE LIST*
%ADD10C,0.150000*%
%ADD11C,0.175000*%
%ADD12C,0.200000*%
%ADD13C,0.162500*%
%ADD14C,0.180000*%
%ADD15C,0.600000*%
%ADD16C,0.120000*%
G04 APERTURE END LIST*
D10*
X106426000Y-102901750D02*
X108521500Y-102901750D01*
X108521500Y-104870250D01*
X106426000Y-104870250D01*
X106426000Y-102901750D01*
G36*
X106426000Y-102901750D02*
G01*
X108521500Y-102901750D01*
X108521500Y-104870250D01*
X106426000Y-104870250D01*
X106426000Y-102901750D01*
G37*
X106426000Y-100361750D02*
X108521500Y-100361750D01*
X108521500Y-102330250D01*
X106426000Y-102330250D01*
X106426000Y-100361750D01*
G36*
X106426000Y-100361750D02*
G01*
X108521500Y-100361750D01*
X108521500Y-102330250D01*
X106426000Y-102330250D01*
X106426000Y-100361750D01*
G37*
X114871500Y-100488750D02*
X116967000Y-100488750D01*
X116967000Y-102457250D01*
X114871500Y-102457250D01*
X114871500Y-100488750D01*
G36*
X114871500Y-100488750D02*
G01*
X116967000Y-100488750D01*
X116967000Y-102457250D01*
X114871500Y-102457250D01*
X114871500Y-100488750D01*
G37*
X106489500Y-105441750D02*
X108585000Y-105441750D01*
X108585000Y-107410250D01*
X106489500Y-107410250D01*
X106489500Y-105441750D01*
G36*
X106489500Y-105441750D02*
G01*
X108585000Y-105441750D01*
X108585000Y-107410250D01*
X106489500Y-107410250D01*
X106489500Y-105441750D01*
G37*
D11*
X132606004Y-110044678D02*
X131806004Y-109778011D01*
X131806004Y-109778011D02*
X132606004Y-109511345D01*
X131729814Y-109435155D02*
X131729814Y-108825631D01*
X132606004Y-108482773D02*
X132606004Y-108330392D01*
X132606004Y-108330392D02*
X132567909Y-108254202D01*
X132567909Y-108254202D02*
X132491719Y-108178011D01*
X132491719Y-108178011D02*
X132339338Y-108139916D01*
X132339338Y-108139916D02*
X132072671Y-108139916D01*
X132072671Y-108139916D02*
X131920290Y-108178011D01*
X131920290Y-108178011D02*
X131844100Y-108254202D01*
X131844100Y-108254202D02*
X131806004Y-108330392D01*
X131806004Y-108330392D02*
X131806004Y-108482773D01*
X131806004Y-108482773D02*
X131844100Y-108558964D01*
X131844100Y-108558964D02*
X131920290Y-108635154D01*
X131920290Y-108635154D02*
X132072671Y-108673250D01*
X132072671Y-108673250D02*
X132339338Y-108673250D01*
X132339338Y-108673250D02*
X132491719Y-108635154D01*
X132491719Y-108635154D02*
X132567909Y-108558964D01*
X132567909Y-108558964D02*
X132606004Y-108482773D01*
X132606004Y-107797059D02*
X131958385Y-107797059D01*
X131958385Y-107797059D02*
X131882195Y-107758964D01*
X131882195Y-107758964D02*
X131844100Y-107720869D01*
X131844100Y-107720869D02*
X131806004Y-107644678D01*
X131806004Y-107644678D02*
X131806004Y-107492297D01*
X131806004Y-107492297D02*
X131844100Y-107416107D01*
X131844100Y-107416107D02*
X131882195Y-107378012D01*
X131882195Y-107378012D02*
X131958385Y-107339916D01*
X131958385Y-107339916D02*
X132606004Y-107339916D01*
X132606004Y-107073250D02*
X132606004Y-106616107D01*
X131806004Y-106844679D02*
X132606004Y-106844679D01*
X130066004Y-110044678D02*
X129266004Y-109778011D01*
X129266004Y-109778011D02*
X130066004Y-109511345D01*
X129189814Y-109435155D02*
X129189814Y-108825631D01*
X129266004Y-108178011D02*
X129646957Y-108444678D01*
X129266004Y-108635154D02*
X130066004Y-108635154D01*
X130066004Y-108635154D02*
X130066004Y-108330392D01*
X130066004Y-108330392D02*
X130027909Y-108254202D01*
X130027909Y-108254202D02*
X129989814Y-108216107D01*
X129989814Y-108216107D02*
X129913623Y-108178011D01*
X129913623Y-108178011D02*
X129799338Y-108178011D01*
X129799338Y-108178011D02*
X129723147Y-108216107D01*
X129723147Y-108216107D02*
X129685052Y-108254202D01*
X129685052Y-108254202D02*
X129646957Y-108330392D01*
X129646957Y-108330392D02*
X129646957Y-108635154D01*
X129685052Y-107835154D02*
X129685052Y-107568488D01*
X129266004Y-107454202D02*
X129266004Y-107835154D01*
X129266004Y-107835154D02*
X130066004Y-107835154D01*
X130066004Y-107835154D02*
X130066004Y-107454202D01*
X130027909Y-106692297D02*
X130066004Y-106768487D01*
X130066004Y-106768487D02*
X130066004Y-106882773D01*
X130066004Y-106882773D02*
X130027909Y-106997059D01*
X130027909Y-106997059D02*
X129951719Y-107073249D01*
X129951719Y-107073249D02*
X129875528Y-107111344D01*
X129875528Y-107111344D02*
X129723147Y-107149440D01*
X129723147Y-107149440D02*
X129608861Y-107149440D01*
X129608861Y-107149440D02*
X129456480Y-107111344D01*
X129456480Y-107111344D02*
X129380290Y-107073249D01*
X129380290Y-107073249D02*
X129304100Y-106997059D01*
X129304100Y-106997059D02*
X129266004Y-106882773D01*
X129266004Y-106882773D02*
X129266004Y-106806582D01*
X129266004Y-106806582D02*
X129304100Y-106692297D01*
X129304100Y-106692297D02*
X129342195Y-106654201D01*
X129342195Y-106654201D02*
X129608861Y-106654201D01*
X129608861Y-106654201D02*
X129608861Y-106806582D01*
D12*
X124098625Y-100875219D02*
X123479578Y-100875219D01*
X123479578Y-100875219D02*
X123812911Y-101256171D01*
X123812911Y-101256171D02*
X123670054Y-101256171D01*
X123670054Y-101256171D02*
X123574816Y-101303790D01*
X123574816Y-101303790D02*
X123527197Y-101351409D01*
X123527197Y-101351409D02*
X123479578Y-101446647D01*
X123479578Y-101446647D02*
X123479578Y-101684742D01*
X123479578Y-101684742D02*
X123527197Y-101779980D01*
X123527197Y-101779980D02*
X123574816Y-101827600D01*
X123574816Y-101827600D02*
X123670054Y-101875219D01*
X123670054Y-101875219D02*
X123955768Y-101875219D01*
X123955768Y-101875219D02*
X124051006Y-101827600D01*
X124051006Y-101827600D02*
X124098625Y-101779980D01*
X123051006Y-101779980D02*
X123003387Y-101827600D01*
X123003387Y-101827600D02*
X123051006Y-101875219D01*
X123051006Y-101875219D02*
X123098625Y-101827600D01*
X123098625Y-101827600D02*
X123051006Y-101779980D01*
X123051006Y-101779980D02*
X123051006Y-101875219D01*
X122670054Y-100875219D02*
X122051007Y-100875219D01*
X122051007Y-100875219D02*
X122384340Y-101256171D01*
X122384340Y-101256171D02*
X122241483Y-101256171D01*
X122241483Y-101256171D02*
X122146245Y-101303790D01*
X122146245Y-101303790D02*
X122098626Y-101351409D01*
X122098626Y-101351409D02*
X122051007Y-101446647D01*
X122051007Y-101446647D02*
X122051007Y-101684742D01*
X122051007Y-101684742D02*
X122098626Y-101779980D01*
X122098626Y-101779980D02*
X122146245Y-101827600D01*
X122146245Y-101827600D02*
X122241483Y-101875219D01*
X122241483Y-101875219D02*
X122527197Y-101875219D01*
X122527197Y-101875219D02*
X122622435Y-101827600D01*
X122622435Y-101827600D02*
X122670054Y-101779980D01*
X121765292Y-100875219D02*
X121431959Y-101875219D01*
X121431959Y-101875219D02*
X121098626Y-100875219D01*
X119431959Y-101875219D02*
X119765292Y-101399028D01*
X120003387Y-101875219D02*
X120003387Y-100875219D01*
X120003387Y-100875219D02*
X119622435Y-100875219D01*
X119622435Y-100875219D02*
X119527197Y-100922838D01*
X119527197Y-100922838D02*
X119479578Y-100970457D01*
X119479578Y-100970457D02*
X119431959Y-101065695D01*
X119431959Y-101065695D02*
X119431959Y-101208552D01*
X119431959Y-101208552D02*
X119479578Y-101303790D01*
X119479578Y-101303790D02*
X119527197Y-101351409D01*
X119527197Y-101351409D02*
X119622435Y-101399028D01*
X119622435Y-101399028D02*
X120003387Y-101399028D01*
X118622435Y-101827600D02*
X118717673Y-101875219D01*
X118717673Y-101875219D02*
X118908149Y-101875219D01*
X118908149Y-101875219D02*
X119003387Y-101827600D01*
X119003387Y-101827600D02*
X119051006Y-101732361D01*
X119051006Y-101732361D02*
X119051006Y-101351409D01*
X119051006Y-101351409D02*
X119003387Y-101256171D01*
X119003387Y-101256171D02*
X118908149Y-101208552D01*
X118908149Y-101208552D02*
X118717673Y-101208552D01*
X118717673Y-101208552D02*
X118622435Y-101256171D01*
X118622435Y-101256171D02*
X118574816Y-101351409D01*
X118574816Y-101351409D02*
X118574816Y-101446647D01*
X118574816Y-101446647D02*
X119051006Y-101541885D01*
X117717673Y-101208552D02*
X117717673Y-102018076D01*
X117717673Y-102018076D02*
X117765292Y-102113314D01*
X117765292Y-102113314D02*
X117812911Y-102160933D01*
X117812911Y-102160933D02*
X117908149Y-102208552D01*
X117908149Y-102208552D02*
X118051006Y-102208552D01*
X118051006Y-102208552D02*
X118146244Y-102160933D01*
X117717673Y-101827600D02*
X117812911Y-101875219D01*
X117812911Y-101875219D02*
X118003387Y-101875219D01*
X118003387Y-101875219D02*
X118098625Y-101827600D01*
X118098625Y-101827600D02*
X118146244Y-101779980D01*
X118146244Y-101779980D02*
X118193863Y-101684742D01*
X118193863Y-101684742D02*
X118193863Y-101399028D01*
X118193863Y-101399028D02*
X118146244Y-101303790D01*
X118146244Y-101303790D02*
X118098625Y-101256171D01*
X118098625Y-101256171D02*
X118003387Y-101208552D01*
X118003387Y-101208552D02*
X117812911Y-101208552D01*
X117812911Y-101208552D02*
X117717673Y-101256171D01*
D11*
X112247909Y-109511345D02*
X112286004Y-109587535D01*
X112286004Y-109587535D02*
X112286004Y-109701821D01*
X112286004Y-109701821D02*
X112247909Y-109816107D01*
X112247909Y-109816107D02*
X112171719Y-109892297D01*
X112171719Y-109892297D02*
X112095528Y-109930392D01*
X112095528Y-109930392D02*
X111943147Y-109968488D01*
X111943147Y-109968488D02*
X111828861Y-109968488D01*
X111828861Y-109968488D02*
X111676480Y-109930392D01*
X111676480Y-109930392D02*
X111600290Y-109892297D01*
X111600290Y-109892297D02*
X111524100Y-109816107D01*
X111524100Y-109816107D02*
X111486004Y-109701821D01*
X111486004Y-109701821D02*
X111486004Y-109625630D01*
X111486004Y-109625630D02*
X111524100Y-109511345D01*
X111524100Y-109511345D02*
X111562195Y-109473249D01*
X111562195Y-109473249D02*
X111828861Y-109473249D01*
X111828861Y-109473249D02*
X111828861Y-109625630D01*
X111486004Y-109130392D02*
X112286004Y-109130392D01*
X112286004Y-109130392D02*
X111486004Y-108673249D01*
X111486004Y-108673249D02*
X112286004Y-108673249D01*
X111486004Y-108292297D02*
X112286004Y-108292297D01*
X112286004Y-108292297D02*
X112286004Y-108101821D01*
X112286004Y-108101821D02*
X112247909Y-107987535D01*
X112247909Y-107987535D02*
X112171719Y-107911345D01*
X112171719Y-107911345D02*
X112095528Y-107873250D01*
X112095528Y-107873250D02*
X111943147Y-107835154D01*
X111943147Y-107835154D02*
X111828861Y-107835154D01*
X111828861Y-107835154D02*
X111676480Y-107873250D01*
X111676480Y-107873250D02*
X111600290Y-107911345D01*
X111600290Y-107911345D02*
X111524100Y-107987535D01*
X111524100Y-107987535D02*
X111486004Y-108101821D01*
X111486004Y-108101821D02*
X111486004Y-108292297D01*
X117493004Y-110044678D02*
X116693004Y-109778011D01*
X116693004Y-109778011D02*
X117493004Y-109511345D01*
X116769195Y-108787535D02*
X116731100Y-108825631D01*
X116731100Y-108825631D02*
X116693004Y-108939916D01*
X116693004Y-108939916D02*
X116693004Y-109016107D01*
X116693004Y-109016107D02*
X116731100Y-109130393D01*
X116731100Y-109130393D02*
X116807290Y-109206583D01*
X116807290Y-109206583D02*
X116883480Y-109244678D01*
X116883480Y-109244678D02*
X117035861Y-109282774D01*
X117035861Y-109282774D02*
X117150147Y-109282774D01*
X117150147Y-109282774D02*
X117302528Y-109244678D01*
X117302528Y-109244678D02*
X117378719Y-109206583D01*
X117378719Y-109206583D02*
X117454909Y-109130393D01*
X117454909Y-109130393D02*
X117493004Y-109016107D01*
X117493004Y-109016107D02*
X117493004Y-108939916D01*
X117493004Y-108939916D02*
X117454909Y-108825631D01*
X117454909Y-108825631D02*
X117416814Y-108787535D01*
X116769195Y-107987535D02*
X116731100Y-108025631D01*
X116731100Y-108025631D02*
X116693004Y-108139916D01*
X116693004Y-108139916D02*
X116693004Y-108216107D01*
X116693004Y-108216107D02*
X116731100Y-108330393D01*
X116731100Y-108330393D02*
X116807290Y-108406583D01*
X116807290Y-108406583D02*
X116883480Y-108444678D01*
X116883480Y-108444678D02*
X117035861Y-108482774D01*
X117035861Y-108482774D02*
X117150147Y-108482774D01*
X117150147Y-108482774D02*
X117302528Y-108444678D01*
X117302528Y-108444678D02*
X117378719Y-108406583D01*
X117378719Y-108406583D02*
X117454909Y-108330393D01*
X117454909Y-108330393D02*
X117493004Y-108216107D01*
X117493004Y-108216107D02*
X117493004Y-108139916D01*
X117493004Y-108139916D02*
X117454909Y-108025631D01*
X117454909Y-108025631D02*
X117416814Y-107987535D01*
D13*
X120830521Y-95209692D02*
X120873378Y-95252550D01*
X120873378Y-95252550D02*
X121001950Y-95295407D01*
X121001950Y-95295407D02*
X121087664Y-95295407D01*
X121087664Y-95295407D02*
X121216235Y-95252550D01*
X121216235Y-95252550D02*
X121301950Y-95166835D01*
X121301950Y-95166835D02*
X121344807Y-95081121D01*
X121344807Y-95081121D02*
X121387664Y-94909692D01*
X121387664Y-94909692D02*
X121387664Y-94781121D01*
X121387664Y-94781121D02*
X121344807Y-94609692D01*
X121344807Y-94609692D02*
X121301950Y-94523978D01*
X121301950Y-94523978D02*
X121216235Y-94438264D01*
X121216235Y-94438264D02*
X121087664Y-94395407D01*
X121087664Y-94395407D02*
X121001950Y-94395407D01*
X121001950Y-94395407D02*
X120873378Y-94438264D01*
X120873378Y-94438264D02*
X120830521Y-94481121D01*
X120444807Y-94823978D02*
X120144807Y-94823978D01*
X120016235Y-95295407D02*
X120444807Y-95295407D01*
X120444807Y-95295407D02*
X120444807Y-94395407D01*
X120444807Y-94395407D02*
X120016235Y-94395407D01*
X119116235Y-95295407D02*
X119416235Y-94866835D01*
X119630521Y-95295407D02*
X119630521Y-94395407D01*
X119630521Y-94395407D02*
X119287664Y-94395407D01*
X119287664Y-94395407D02*
X119201949Y-94438264D01*
X119201949Y-94438264D02*
X119159092Y-94481121D01*
X119159092Y-94481121D02*
X119116235Y-94566835D01*
X119116235Y-94566835D02*
X119116235Y-94695407D01*
X119116235Y-94695407D02*
X119159092Y-94781121D01*
X119159092Y-94781121D02*
X119201949Y-94823978D01*
X119201949Y-94823978D02*
X119287664Y-94866835D01*
X119287664Y-94866835D02*
X119630521Y-94866835D01*
X118730521Y-95295407D02*
X118730521Y-94395407D01*
X118730521Y-94395407D02*
X118216235Y-95295407D01*
X118216235Y-95295407D02*
X118216235Y-94395407D01*
X117787664Y-94952550D02*
X117101950Y-94952550D01*
X116501949Y-94395407D02*
X116330521Y-94395407D01*
X116330521Y-94395407D02*
X116244806Y-94438264D01*
X116244806Y-94438264D02*
X116159092Y-94523978D01*
X116159092Y-94523978D02*
X116116235Y-94695407D01*
X116116235Y-94695407D02*
X116116235Y-94995407D01*
X116116235Y-94995407D02*
X116159092Y-95166835D01*
X116159092Y-95166835D02*
X116244806Y-95252550D01*
X116244806Y-95252550D02*
X116330521Y-95295407D01*
X116330521Y-95295407D02*
X116501949Y-95295407D01*
X116501949Y-95295407D02*
X116587664Y-95252550D01*
X116587664Y-95252550D02*
X116673378Y-95166835D01*
X116673378Y-95166835D02*
X116716235Y-94995407D01*
X116716235Y-94995407D02*
X116716235Y-94695407D01*
X116716235Y-94695407D02*
X116673378Y-94523978D01*
X116673378Y-94523978D02*
X116587664Y-94438264D01*
X116587664Y-94438264D02*
X116501949Y-94395407D01*
X115730521Y-95295407D02*
X115730521Y-94395407D01*
X115730521Y-94823978D02*
X115216235Y-94823978D01*
X115216235Y-95295407D02*
X115216235Y-94395407D01*
X114359092Y-95295407D02*
X114787664Y-95295407D01*
X114787664Y-95295407D02*
X114787664Y-94395407D01*
X114059093Y-94952550D02*
X113373379Y-94952550D01*
X112944807Y-95295407D02*
X112944807Y-94395407D01*
X112944807Y-94395407D02*
X112601950Y-94395407D01*
X112601950Y-94395407D02*
X112516235Y-94438264D01*
X112516235Y-94438264D02*
X112473378Y-94481121D01*
X112473378Y-94481121D02*
X112430521Y-94566835D01*
X112430521Y-94566835D02*
X112430521Y-94695407D01*
X112430521Y-94695407D02*
X112473378Y-94781121D01*
X112473378Y-94781121D02*
X112516235Y-94823978D01*
X112516235Y-94823978D02*
X112601950Y-94866835D01*
X112601950Y-94866835D02*
X112944807Y-94866835D01*
D11*
X122718007Y-109663726D02*
X122679912Y-109549440D01*
X122679912Y-109549440D02*
X122641816Y-109511345D01*
X122641816Y-109511345D02*
X122565626Y-109473249D01*
X122565626Y-109473249D02*
X122451340Y-109473249D01*
X122451340Y-109473249D02*
X122375150Y-109511345D01*
X122375150Y-109511345D02*
X122337055Y-109549440D01*
X122337055Y-109549440D02*
X122298959Y-109625630D01*
X122298959Y-109625630D02*
X122298959Y-109930392D01*
X122298959Y-109930392D02*
X123098959Y-109930392D01*
X123098959Y-109930392D02*
X123098959Y-109663726D01*
X123098959Y-109663726D02*
X123060864Y-109587535D01*
X123060864Y-109587535D02*
X123022769Y-109549440D01*
X123022769Y-109549440D02*
X122946578Y-109511345D01*
X122946578Y-109511345D02*
X122870388Y-109511345D01*
X122870388Y-109511345D02*
X122794197Y-109549440D01*
X122794197Y-109549440D02*
X122756102Y-109587535D01*
X122756102Y-109587535D02*
X122718007Y-109663726D01*
X122718007Y-109663726D02*
X122718007Y-109930392D01*
X122298959Y-108787535D02*
X122718007Y-108787535D01*
X122718007Y-108787535D02*
X122794197Y-108825630D01*
X122794197Y-108825630D02*
X122832293Y-108901821D01*
X122832293Y-108901821D02*
X122832293Y-109054202D01*
X122832293Y-109054202D02*
X122794197Y-109130392D01*
X122337055Y-108787535D02*
X122298959Y-108863726D01*
X122298959Y-108863726D02*
X122298959Y-109054202D01*
X122298959Y-109054202D02*
X122337055Y-109130392D01*
X122337055Y-109130392D02*
X122413245Y-109168488D01*
X122413245Y-109168488D02*
X122489435Y-109168488D01*
X122489435Y-109168488D02*
X122565626Y-109130392D01*
X122565626Y-109130392D02*
X122603721Y-109054202D01*
X122603721Y-109054202D02*
X122603721Y-108863726D01*
X122603721Y-108863726D02*
X122641816Y-108787535D01*
X122832293Y-108520868D02*
X122832293Y-108216106D01*
X123098959Y-108406582D02*
X122413245Y-108406582D01*
X122413245Y-108406582D02*
X122337055Y-108368487D01*
X122337055Y-108368487D02*
X122298959Y-108292297D01*
X122298959Y-108292297D02*
X122298959Y-108216106D01*
X122832293Y-108063725D02*
X122832293Y-107758963D01*
X123098959Y-107949439D02*
X122413245Y-107949439D01*
X122413245Y-107949439D02*
X122337055Y-107911344D01*
X122337055Y-107911344D02*
X122298959Y-107835154D01*
X122298959Y-107835154D02*
X122298959Y-107758963D01*
X121049100Y-109968488D02*
X121011004Y-109854202D01*
X121011004Y-109854202D02*
X121011004Y-109663726D01*
X121011004Y-109663726D02*
X121049100Y-109587535D01*
X121049100Y-109587535D02*
X121087195Y-109549440D01*
X121087195Y-109549440D02*
X121163385Y-109511345D01*
X121163385Y-109511345D02*
X121239576Y-109511345D01*
X121239576Y-109511345D02*
X121315766Y-109549440D01*
X121315766Y-109549440D02*
X121353861Y-109587535D01*
X121353861Y-109587535D02*
X121391957Y-109663726D01*
X121391957Y-109663726D02*
X121430052Y-109816107D01*
X121430052Y-109816107D02*
X121468147Y-109892297D01*
X121468147Y-109892297D02*
X121506242Y-109930392D01*
X121506242Y-109930392D02*
X121582433Y-109968488D01*
X121582433Y-109968488D02*
X121658623Y-109968488D01*
X121658623Y-109968488D02*
X121734814Y-109930392D01*
X121734814Y-109930392D02*
X121772909Y-109892297D01*
X121772909Y-109892297D02*
X121811004Y-109816107D01*
X121811004Y-109816107D02*
X121811004Y-109625630D01*
X121811004Y-109625630D02*
X121772909Y-109511345D01*
X121011004Y-109168487D02*
X121544338Y-109168487D01*
X121811004Y-109168487D02*
X121772909Y-109206583D01*
X121772909Y-109206583D02*
X121734814Y-109168487D01*
X121734814Y-109168487D02*
X121772909Y-109130392D01*
X121772909Y-109130392D02*
X121811004Y-109168487D01*
X121811004Y-109168487D02*
X121734814Y-109168487D01*
X121544338Y-108444678D02*
X120896719Y-108444678D01*
X120896719Y-108444678D02*
X120820528Y-108482773D01*
X120820528Y-108482773D02*
X120782433Y-108520869D01*
X120782433Y-108520869D02*
X120744338Y-108597059D01*
X120744338Y-108597059D02*
X120744338Y-108711345D01*
X120744338Y-108711345D02*
X120782433Y-108787535D01*
X121049100Y-108444678D02*
X121011004Y-108520869D01*
X121011004Y-108520869D02*
X121011004Y-108673250D01*
X121011004Y-108673250D02*
X121049100Y-108749440D01*
X121049100Y-108749440D02*
X121087195Y-108787535D01*
X121087195Y-108787535D02*
X121163385Y-108825631D01*
X121163385Y-108825631D02*
X121391957Y-108825631D01*
X121391957Y-108825631D02*
X121468147Y-108787535D01*
X121468147Y-108787535D02*
X121506242Y-108749440D01*
X121506242Y-108749440D02*
X121544338Y-108673250D01*
X121544338Y-108673250D02*
X121544338Y-108520869D01*
X121544338Y-108520869D02*
X121506242Y-108444678D01*
D12*
X115145245Y-104415219D02*
X115145245Y-103415219D01*
X115145245Y-103415219D02*
X114764293Y-103415219D01*
X114764293Y-103415219D02*
X114669055Y-103462838D01*
X114669055Y-103462838D02*
X114621436Y-103510457D01*
X114621436Y-103510457D02*
X114573817Y-103605695D01*
X114573817Y-103605695D02*
X114573817Y-103748552D01*
X114573817Y-103748552D02*
X114621436Y-103843790D01*
X114621436Y-103843790D02*
X114669055Y-103891409D01*
X114669055Y-103891409D02*
X114764293Y-103939028D01*
X114764293Y-103939028D02*
X115145245Y-103939028D01*
X114288102Y-103415219D02*
X113716674Y-103415219D01*
X114002388Y-104415219D02*
X114002388Y-103415219D01*
X112811912Y-104319980D02*
X112859531Y-104367600D01*
X112859531Y-104367600D02*
X113002388Y-104415219D01*
X113002388Y-104415219D02*
X113097626Y-104415219D01*
X113097626Y-104415219D02*
X113240483Y-104367600D01*
X113240483Y-104367600D02*
X113335721Y-104272361D01*
X113335721Y-104272361D02*
X113383340Y-104177123D01*
X113383340Y-104177123D02*
X113430959Y-103986647D01*
X113430959Y-103986647D02*
X113430959Y-103843790D01*
X113430959Y-103843790D02*
X113383340Y-103653314D01*
X113383340Y-103653314D02*
X113335721Y-103558076D01*
X113335721Y-103558076D02*
X113240483Y-103462838D01*
X113240483Y-103462838D02*
X113097626Y-103415219D01*
X113097626Y-103415219D02*
X113002388Y-103415219D01*
X113002388Y-103415219D02*
X112859531Y-103462838D01*
X112859531Y-103462838D02*
X112811912Y-103510457D01*
X111478578Y-104415219D02*
X111573816Y-104367600D01*
X111573816Y-104367600D02*
X111621435Y-104319980D01*
X111621435Y-104319980D02*
X111669054Y-104224742D01*
X111669054Y-104224742D02*
X111669054Y-103939028D01*
X111669054Y-103939028D02*
X111621435Y-103843790D01*
X111621435Y-103843790D02*
X111573816Y-103796171D01*
X111573816Y-103796171D02*
X111478578Y-103748552D01*
X111478578Y-103748552D02*
X111335721Y-103748552D01*
X111335721Y-103748552D02*
X111240483Y-103796171D01*
X111240483Y-103796171D02*
X111192864Y-103843790D01*
X111192864Y-103843790D02*
X111145245Y-103939028D01*
X111145245Y-103939028D02*
X111145245Y-104224742D01*
X111145245Y-104224742D02*
X111192864Y-104319980D01*
X111192864Y-104319980D02*
X111240483Y-104367600D01*
X111240483Y-104367600D02*
X111335721Y-104415219D01*
X111335721Y-104415219D02*
X111478578Y-104415219D01*
X110288102Y-103748552D02*
X110288102Y-104415219D01*
X110716673Y-103748552D02*
X110716673Y-104272361D01*
X110716673Y-104272361D02*
X110669054Y-104367600D01*
X110669054Y-104367600D02*
X110573816Y-104415219D01*
X110573816Y-104415219D02*
X110430959Y-104415219D01*
X110430959Y-104415219D02*
X110335721Y-104367600D01*
X110335721Y-104367600D02*
X110288102Y-104319980D01*
X109954768Y-103748552D02*
X109573816Y-103748552D01*
X109811911Y-103415219D02*
X109811911Y-104272361D01*
X109811911Y-104272361D02*
X109764292Y-104367600D01*
X109764292Y-104367600D02*
X109669054Y-104415219D01*
X109669054Y-104415219D02*
X109573816Y-104415219D01*
D11*
X124313004Y-109930392D02*
X125113004Y-109930392D01*
X125113004Y-109930392D02*
X124313004Y-109473249D01*
X124313004Y-109473249D02*
X125113004Y-109473249D01*
X124236814Y-109282774D02*
X124236814Y-108673250D01*
X124313004Y-108368488D02*
X124351100Y-108444678D01*
X124351100Y-108444678D02*
X124389195Y-108482773D01*
X124389195Y-108482773D02*
X124465385Y-108520869D01*
X124465385Y-108520869D02*
X124693957Y-108520869D01*
X124693957Y-108520869D02*
X124770147Y-108482773D01*
X124770147Y-108482773D02*
X124808242Y-108444678D01*
X124808242Y-108444678D02*
X124846338Y-108368488D01*
X124846338Y-108368488D02*
X124846338Y-108254202D01*
X124846338Y-108254202D02*
X124808242Y-108178011D01*
X124808242Y-108178011D02*
X124770147Y-108139916D01*
X124770147Y-108139916D02*
X124693957Y-108101821D01*
X124693957Y-108101821D02*
X124465385Y-108101821D01*
X124465385Y-108101821D02*
X124389195Y-108139916D01*
X124389195Y-108139916D02*
X124351100Y-108178011D01*
X124351100Y-108178011D02*
X124313004Y-108254202D01*
X124313004Y-108254202D02*
X124313004Y-108368488D01*
X124846338Y-107416106D02*
X124313004Y-107416106D01*
X124846338Y-107758963D02*
X124427290Y-107758963D01*
X124427290Y-107758963D02*
X124351100Y-107720868D01*
X124351100Y-107720868D02*
X124313004Y-107644678D01*
X124313004Y-107644678D02*
X124313004Y-107530392D01*
X124313004Y-107530392D02*
X124351100Y-107454201D01*
X124351100Y-107454201D02*
X124389195Y-107416106D01*
X124846338Y-107149439D02*
X124846338Y-106844677D01*
X125113004Y-107035153D02*
X124427290Y-107035153D01*
X124427290Y-107035153D02*
X124351100Y-106997058D01*
X124351100Y-106997058D02*
X124313004Y-106920868D01*
X124313004Y-106920868D02*
X124313004Y-106844677D01*
D14*
X135787483Y-86001259D02*
X135787483Y-85001259D01*
X135787483Y-85382211D02*
X135692245Y-85334592D01*
X135692245Y-85334592D02*
X135501769Y-85334592D01*
X135501769Y-85334592D02*
X135406531Y-85382211D01*
X135406531Y-85382211D02*
X135358912Y-85429830D01*
X135358912Y-85429830D02*
X135311293Y-85525068D01*
X135311293Y-85525068D02*
X135311293Y-85810782D01*
X135311293Y-85810782D02*
X135358912Y-85906020D01*
X135358912Y-85906020D02*
X135406531Y-85953640D01*
X135406531Y-85953640D02*
X135501769Y-86001259D01*
X135501769Y-86001259D02*
X135692245Y-86001259D01*
X135692245Y-86001259D02*
X135787483Y-85953640D01*
X134977959Y-85334592D02*
X134739864Y-86001259D01*
X134501769Y-85334592D02*
X134739864Y-86001259D01*
X134739864Y-86001259D02*
X134835102Y-86239354D01*
X134835102Y-86239354D02*
X134882721Y-86286973D01*
X134882721Y-86286973D02*
X134977959Y-86334592D01*
X132787483Y-86001259D02*
X133120816Y-85525068D01*
X133358911Y-86001259D02*
X133358911Y-85001259D01*
X133358911Y-85001259D02*
X132977959Y-85001259D01*
X132977959Y-85001259D02*
X132882721Y-85048878D01*
X132882721Y-85048878D02*
X132835102Y-85096497D01*
X132835102Y-85096497D02*
X132787483Y-85191735D01*
X132787483Y-85191735D02*
X132787483Y-85334592D01*
X132787483Y-85334592D02*
X132835102Y-85429830D01*
X132835102Y-85429830D02*
X132882721Y-85477449D01*
X132882721Y-85477449D02*
X132977959Y-85525068D01*
X132977959Y-85525068D02*
X133358911Y-85525068D01*
X132216054Y-86001259D02*
X132311292Y-85953640D01*
X132311292Y-85953640D02*
X132358911Y-85906020D01*
X132358911Y-85906020D02*
X132406530Y-85810782D01*
X132406530Y-85810782D02*
X132406530Y-85525068D01*
X132406530Y-85525068D02*
X132358911Y-85429830D01*
X132358911Y-85429830D02*
X132311292Y-85382211D01*
X132311292Y-85382211D02*
X132216054Y-85334592D01*
X132216054Y-85334592D02*
X132073197Y-85334592D01*
X132073197Y-85334592D02*
X131977959Y-85382211D01*
X131977959Y-85382211D02*
X131930340Y-85429830D01*
X131930340Y-85429830D02*
X131882721Y-85525068D01*
X131882721Y-85525068D02*
X131882721Y-85810782D01*
X131882721Y-85810782D02*
X131930340Y-85906020D01*
X131930340Y-85906020D02*
X131977959Y-85953640D01*
X131977959Y-85953640D02*
X132073197Y-86001259D01*
X132073197Y-86001259D02*
X132216054Y-86001259D01*
X131454149Y-86001259D02*
X131454149Y-85001259D01*
X131454149Y-85382211D02*
X131358911Y-85334592D01*
X131358911Y-85334592D02*
X131168435Y-85334592D01*
X131168435Y-85334592D02*
X131073197Y-85382211D01*
X131073197Y-85382211D02*
X131025578Y-85429830D01*
X131025578Y-85429830D02*
X130977959Y-85525068D01*
X130977959Y-85525068D02*
X130977959Y-85810782D01*
X130977959Y-85810782D02*
X131025578Y-85906020D01*
X131025578Y-85906020D02*
X131073197Y-85953640D01*
X131073197Y-85953640D02*
X131168435Y-86001259D01*
X131168435Y-86001259D02*
X131358911Y-86001259D01*
X131358911Y-86001259D02*
X131454149Y-85953640D01*
X130406530Y-86001259D02*
X130501768Y-85953640D01*
X130501768Y-85953640D02*
X130549387Y-85906020D01*
X130549387Y-85906020D02*
X130597006Y-85810782D01*
X130597006Y-85810782D02*
X130597006Y-85525068D01*
X130597006Y-85525068D02*
X130549387Y-85429830D01*
X130549387Y-85429830D02*
X130501768Y-85382211D01*
X130501768Y-85382211D02*
X130406530Y-85334592D01*
X130406530Y-85334592D02*
X130263673Y-85334592D01*
X130263673Y-85334592D02*
X130168435Y-85382211D01*
X130168435Y-85382211D02*
X130120816Y-85429830D01*
X130120816Y-85429830D02*
X130073197Y-85525068D01*
X130073197Y-85525068D02*
X130073197Y-85810782D01*
X130073197Y-85810782D02*
X130120816Y-85906020D01*
X130120816Y-85906020D02*
X130168435Y-85953640D01*
X130168435Y-85953640D02*
X130263673Y-86001259D01*
X130263673Y-86001259D02*
X130406530Y-86001259D01*
X129787482Y-85334592D02*
X129406530Y-85334592D01*
X129644625Y-85001259D02*
X129644625Y-85858401D01*
X129644625Y-85858401D02*
X129597006Y-85953640D01*
X129597006Y-85953640D02*
X129501768Y-86001259D01*
X129501768Y-86001259D02*
X129406530Y-86001259D01*
X129168434Y-85001259D02*
X128501768Y-85001259D01*
X128501768Y-85001259D02*
X129168434Y-86001259D01*
X129168434Y-86001259D02*
X128501768Y-86001259D01*
X128216053Y-85334592D02*
X128025577Y-86001259D01*
X128025577Y-86001259D02*
X127835101Y-85525068D01*
X127835101Y-85525068D02*
X127644625Y-86001259D01*
X127644625Y-86001259D02*
X127454149Y-85334592D01*
X127073196Y-86001259D02*
X127073196Y-85334592D01*
X127073196Y-85525068D02*
X127025577Y-85429830D01*
X127025577Y-85429830D02*
X126977958Y-85382211D01*
X126977958Y-85382211D02*
X126882720Y-85334592D01*
X126882720Y-85334592D02*
X126787482Y-85334592D01*
X126454148Y-86001259D02*
X126454148Y-85334592D01*
X126454148Y-85525068D02*
X126406529Y-85429830D01*
X126406529Y-85429830D02*
X126358910Y-85382211D01*
X126358910Y-85382211D02*
X126263672Y-85334592D01*
X126263672Y-85334592D02*
X126168434Y-85334592D01*
X125692243Y-86001259D02*
X125787481Y-85953640D01*
X125787481Y-85953640D02*
X125835100Y-85858401D01*
X125835100Y-85858401D02*
X125835100Y-85001259D01*
X125311290Y-85906020D02*
X125263671Y-85953640D01*
X125263671Y-85953640D02*
X125311290Y-86001259D01*
X125311290Y-86001259D02*
X125358909Y-85953640D01*
X125358909Y-85953640D02*
X125311290Y-85906020D01*
X125311290Y-85906020D02*
X125311290Y-86001259D01*
X124930338Y-86001259D02*
X124406529Y-85334592D01*
X124930338Y-85334592D02*
X124406529Y-86001259D01*
X124120814Y-85334592D02*
X123882719Y-86001259D01*
X123644624Y-85334592D02*
X123882719Y-86001259D01*
X123882719Y-86001259D02*
X123977957Y-86239354D01*
X123977957Y-86239354D02*
X124025576Y-86286973D01*
X124025576Y-86286973D02*
X124120814Y-86334592D01*
X123358909Y-85334592D02*
X122835100Y-85334592D01*
X122835100Y-85334592D02*
X123358909Y-86001259D01*
X123358909Y-86001259D02*
X122835100Y-86001259D01*
X135216055Y-87611203D02*
X135549388Y-87135012D01*
X135787483Y-87611203D02*
X135787483Y-86611203D01*
X135787483Y-86611203D02*
X135406531Y-86611203D01*
X135406531Y-86611203D02*
X135311293Y-86658822D01*
X135311293Y-86658822D02*
X135263674Y-86706441D01*
X135263674Y-86706441D02*
X135216055Y-86801679D01*
X135216055Y-86801679D02*
X135216055Y-86944536D01*
X135216055Y-86944536D02*
X135263674Y-87039774D01*
X135263674Y-87039774D02*
X135311293Y-87087393D01*
X135311293Y-87087393D02*
X135406531Y-87135012D01*
X135406531Y-87135012D02*
X135787483Y-87135012D01*
X134644626Y-87611203D02*
X134739864Y-87563584D01*
X134739864Y-87563584D02*
X134787483Y-87515964D01*
X134787483Y-87515964D02*
X134835102Y-87420726D01*
X134835102Y-87420726D02*
X134835102Y-87135012D01*
X134835102Y-87135012D02*
X134787483Y-87039774D01*
X134787483Y-87039774D02*
X134739864Y-86992155D01*
X134739864Y-86992155D02*
X134644626Y-86944536D01*
X134644626Y-86944536D02*
X134501769Y-86944536D01*
X134501769Y-86944536D02*
X134406531Y-86992155D01*
X134406531Y-86992155D02*
X134358912Y-87039774D01*
X134358912Y-87039774D02*
X134311293Y-87135012D01*
X134311293Y-87135012D02*
X134311293Y-87420726D01*
X134311293Y-87420726D02*
X134358912Y-87515964D01*
X134358912Y-87515964D02*
X134406531Y-87563584D01*
X134406531Y-87563584D02*
X134501769Y-87611203D01*
X134501769Y-87611203D02*
X134644626Y-87611203D01*
X133882721Y-87611203D02*
X133882721Y-86611203D01*
X133882721Y-86992155D02*
X133787483Y-86944536D01*
X133787483Y-86944536D02*
X133597007Y-86944536D01*
X133597007Y-86944536D02*
X133501769Y-86992155D01*
X133501769Y-86992155D02*
X133454150Y-87039774D01*
X133454150Y-87039774D02*
X133406531Y-87135012D01*
X133406531Y-87135012D02*
X133406531Y-87420726D01*
X133406531Y-87420726D02*
X133454150Y-87515964D01*
X133454150Y-87515964D02*
X133501769Y-87563584D01*
X133501769Y-87563584D02*
X133597007Y-87611203D01*
X133597007Y-87611203D02*
X133787483Y-87611203D01*
X133787483Y-87611203D02*
X133882721Y-87563584D01*
X132835102Y-87611203D02*
X132930340Y-87563584D01*
X132930340Y-87563584D02*
X132977959Y-87515964D01*
X132977959Y-87515964D02*
X133025578Y-87420726D01*
X133025578Y-87420726D02*
X133025578Y-87135012D01*
X133025578Y-87135012D02*
X132977959Y-87039774D01*
X132977959Y-87039774D02*
X132930340Y-86992155D01*
X132930340Y-86992155D02*
X132835102Y-86944536D01*
X132835102Y-86944536D02*
X132692245Y-86944536D01*
X132692245Y-86944536D02*
X132597007Y-86992155D01*
X132597007Y-86992155D02*
X132549388Y-87039774D01*
X132549388Y-87039774D02*
X132501769Y-87135012D01*
X132501769Y-87135012D02*
X132501769Y-87420726D01*
X132501769Y-87420726D02*
X132549388Y-87515964D01*
X132549388Y-87515964D02*
X132597007Y-87563584D01*
X132597007Y-87563584D02*
X132692245Y-87611203D01*
X132692245Y-87611203D02*
X132835102Y-87611203D01*
X132216054Y-86944536D02*
X131835102Y-86944536D01*
X132073197Y-86611203D02*
X132073197Y-87468345D01*
X132073197Y-87468345D02*
X132025578Y-87563584D01*
X132025578Y-87563584D02*
X131930340Y-87611203D01*
X131930340Y-87611203D02*
X131835102Y-87611203D01*
X131501768Y-87611203D02*
X131501768Y-86611203D01*
X131501768Y-86611203D02*
X131168435Y-87325488D01*
X131168435Y-87325488D02*
X130835102Y-86611203D01*
X130835102Y-86611203D02*
X130835102Y-87611203D01*
X130358911Y-87611203D02*
X130358911Y-86944536D01*
X130358911Y-86611203D02*
X130406530Y-86658822D01*
X130406530Y-86658822D02*
X130358911Y-86706441D01*
X130358911Y-86706441D02*
X130311292Y-86658822D01*
X130311292Y-86658822D02*
X130358911Y-86611203D01*
X130358911Y-86611203D02*
X130358911Y-86706441D01*
X129930340Y-87563584D02*
X129835102Y-87611203D01*
X129835102Y-87611203D02*
X129644626Y-87611203D01*
X129644626Y-87611203D02*
X129549388Y-87563584D01*
X129549388Y-87563584D02*
X129501769Y-87468345D01*
X129501769Y-87468345D02*
X129501769Y-87420726D01*
X129501769Y-87420726D02*
X129549388Y-87325488D01*
X129549388Y-87325488D02*
X129644626Y-87277869D01*
X129644626Y-87277869D02*
X129787483Y-87277869D01*
X129787483Y-87277869D02*
X129882721Y-87230250D01*
X129882721Y-87230250D02*
X129930340Y-87135012D01*
X129930340Y-87135012D02*
X129930340Y-87087393D01*
X129930340Y-87087393D02*
X129882721Y-86992155D01*
X129882721Y-86992155D02*
X129787483Y-86944536D01*
X129787483Y-86944536D02*
X129644626Y-86944536D01*
X129644626Y-86944536D02*
X129549388Y-86992155D01*
X129120816Y-87563584D02*
X129025578Y-87611203D01*
X129025578Y-87611203D02*
X128835102Y-87611203D01*
X128835102Y-87611203D02*
X128739864Y-87563584D01*
X128739864Y-87563584D02*
X128692245Y-87468345D01*
X128692245Y-87468345D02*
X128692245Y-87420726D01*
X128692245Y-87420726D02*
X128739864Y-87325488D01*
X128739864Y-87325488D02*
X128835102Y-87277869D01*
X128835102Y-87277869D02*
X128977959Y-87277869D01*
X128977959Y-87277869D02*
X129073197Y-87230250D01*
X129073197Y-87230250D02*
X129120816Y-87135012D01*
X129120816Y-87135012D02*
X129120816Y-87087393D01*
X129120816Y-87087393D02*
X129073197Y-86992155D01*
X129073197Y-86992155D02*
X128977959Y-86944536D01*
X128977959Y-86944536D02*
X128835102Y-86944536D01*
X128835102Y-86944536D02*
X128739864Y-86992155D01*
X128263673Y-87611203D02*
X128263673Y-86944536D01*
X128263673Y-86611203D02*
X128311292Y-86658822D01*
X128311292Y-86658822D02*
X128263673Y-86706441D01*
X128263673Y-86706441D02*
X128216054Y-86658822D01*
X128216054Y-86658822D02*
X128263673Y-86611203D01*
X128263673Y-86611203D02*
X128263673Y-86706441D01*
X127644626Y-87611203D02*
X127739864Y-87563584D01*
X127739864Y-87563584D02*
X127787483Y-87515964D01*
X127787483Y-87515964D02*
X127835102Y-87420726D01*
X127835102Y-87420726D02*
X127835102Y-87135012D01*
X127835102Y-87135012D02*
X127787483Y-87039774D01*
X127787483Y-87039774D02*
X127739864Y-86992155D01*
X127739864Y-86992155D02*
X127644626Y-86944536D01*
X127644626Y-86944536D02*
X127501769Y-86944536D01*
X127501769Y-86944536D02*
X127406531Y-86992155D01*
X127406531Y-86992155D02*
X127358912Y-87039774D01*
X127358912Y-87039774D02*
X127311293Y-87135012D01*
X127311293Y-87135012D02*
X127311293Y-87420726D01*
X127311293Y-87420726D02*
X127358912Y-87515964D01*
X127358912Y-87515964D02*
X127406531Y-87563584D01*
X127406531Y-87563584D02*
X127501769Y-87611203D01*
X127501769Y-87611203D02*
X127644626Y-87611203D01*
X126882721Y-86944536D02*
X126882721Y-87611203D01*
X126882721Y-87039774D02*
X126835102Y-86992155D01*
X126835102Y-86992155D02*
X126739864Y-86944536D01*
X126739864Y-86944536D02*
X126597007Y-86944536D01*
X126597007Y-86944536D02*
X126501769Y-86992155D01*
X126501769Y-86992155D02*
X126454150Y-87087393D01*
X126454150Y-87087393D02*
X126454150Y-87611203D01*
X126025578Y-87563584D02*
X125930340Y-87611203D01*
X125930340Y-87611203D02*
X125739864Y-87611203D01*
X125739864Y-87611203D02*
X125644626Y-87563584D01*
X125644626Y-87563584D02*
X125597007Y-87468345D01*
X125597007Y-87468345D02*
X125597007Y-87420726D01*
X125597007Y-87420726D02*
X125644626Y-87325488D01*
X125644626Y-87325488D02*
X125739864Y-87277869D01*
X125739864Y-87277869D02*
X125882721Y-87277869D01*
X125882721Y-87277869D02*
X125977959Y-87230250D01*
X125977959Y-87230250D02*
X126025578Y-87135012D01*
X126025578Y-87135012D02*
X126025578Y-87087393D01*
X126025578Y-87087393D02*
X125977959Y-86992155D01*
X125977959Y-86992155D02*
X125882721Y-86944536D01*
X125882721Y-86944536D02*
X125739864Y-86944536D01*
X125739864Y-86944536D02*
X125644626Y-86992155D01*
X125168435Y-87515964D02*
X125120816Y-87563584D01*
X125120816Y-87563584D02*
X125168435Y-87611203D01*
X125168435Y-87611203D02*
X125216054Y-87563584D01*
X125216054Y-87563584D02*
X125168435Y-87515964D01*
X125168435Y-87515964D02*
X125168435Y-87611203D01*
X124549388Y-87611203D02*
X124644626Y-87563584D01*
X124644626Y-87563584D02*
X124692245Y-87515964D01*
X124692245Y-87515964D02*
X124739864Y-87420726D01*
X124739864Y-87420726D02*
X124739864Y-87135012D01*
X124739864Y-87135012D02*
X124692245Y-87039774D01*
X124692245Y-87039774D02*
X124644626Y-86992155D01*
X124644626Y-86992155D02*
X124549388Y-86944536D01*
X124549388Y-86944536D02*
X124406531Y-86944536D01*
X124406531Y-86944536D02*
X124311293Y-86992155D01*
X124311293Y-86992155D02*
X124263674Y-87039774D01*
X124263674Y-87039774D02*
X124216055Y-87135012D01*
X124216055Y-87135012D02*
X124216055Y-87420726D01*
X124216055Y-87420726D02*
X124263674Y-87515964D01*
X124263674Y-87515964D02*
X124311293Y-87563584D01*
X124311293Y-87563584D02*
X124406531Y-87611203D01*
X124406531Y-87611203D02*
X124549388Y-87611203D01*
X123787483Y-87611203D02*
X123787483Y-86944536D01*
X123787483Y-87135012D02*
X123739864Y-87039774D01*
X123739864Y-87039774D02*
X123692245Y-86992155D01*
X123692245Y-86992155D02*
X123597007Y-86944536D01*
X123597007Y-86944536D02*
X123501769Y-86944536D01*
X122739864Y-86944536D02*
X122739864Y-87754060D01*
X122739864Y-87754060D02*
X122787483Y-87849298D01*
X122787483Y-87849298D02*
X122835102Y-87896917D01*
X122835102Y-87896917D02*
X122930340Y-87944536D01*
X122930340Y-87944536D02*
X123073197Y-87944536D01*
X123073197Y-87944536D02*
X123168435Y-87896917D01*
X122739864Y-87563584D02*
X122835102Y-87611203D01*
X122835102Y-87611203D02*
X123025578Y-87611203D01*
X123025578Y-87611203D02*
X123120816Y-87563584D01*
X123120816Y-87563584D02*
X123168435Y-87515964D01*
X123168435Y-87515964D02*
X123216054Y-87420726D01*
X123216054Y-87420726D02*
X123216054Y-87135012D01*
X123216054Y-87135012D02*
X123168435Y-87039774D01*
X123168435Y-87039774D02*
X123120816Y-86992155D01*
X123120816Y-86992155D02*
X123025578Y-86944536D01*
X123025578Y-86944536D02*
X122835102Y-86944536D01*
X122835102Y-86944536D02*
X122739864Y-86992155D01*
X135597007Y-88221147D02*
X135501769Y-88221147D01*
X135501769Y-88221147D02*
X135406531Y-88268766D01*
X135406531Y-88268766D02*
X135358912Y-88316385D01*
X135358912Y-88316385D02*
X135311293Y-88411623D01*
X135311293Y-88411623D02*
X135263674Y-88602099D01*
X135263674Y-88602099D02*
X135263674Y-88840194D01*
X135263674Y-88840194D02*
X135311293Y-89030670D01*
X135311293Y-89030670D02*
X135358912Y-89125908D01*
X135358912Y-89125908D02*
X135406531Y-89173528D01*
X135406531Y-89173528D02*
X135501769Y-89221147D01*
X135501769Y-89221147D02*
X135597007Y-89221147D01*
X135597007Y-89221147D02*
X135692245Y-89173528D01*
X135692245Y-89173528D02*
X135739864Y-89125908D01*
X135739864Y-89125908D02*
X135787483Y-89030670D01*
X135787483Y-89030670D02*
X135835102Y-88840194D01*
X135835102Y-88840194D02*
X135835102Y-88602099D01*
X135835102Y-88602099D02*
X135787483Y-88411623D01*
X135787483Y-88411623D02*
X135739864Y-88316385D01*
X135739864Y-88316385D02*
X135692245Y-88268766D01*
X135692245Y-88268766D02*
X135597007Y-88221147D01*
X134930340Y-88221147D02*
X134311293Y-88221147D01*
X134311293Y-88221147D02*
X134644626Y-88602099D01*
X134644626Y-88602099D02*
X134501769Y-88602099D01*
X134501769Y-88602099D02*
X134406531Y-88649718D01*
X134406531Y-88649718D02*
X134358912Y-88697337D01*
X134358912Y-88697337D02*
X134311293Y-88792575D01*
X134311293Y-88792575D02*
X134311293Y-89030670D01*
X134311293Y-89030670D02*
X134358912Y-89125908D01*
X134358912Y-89125908D02*
X134406531Y-89173528D01*
X134406531Y-89173528D02*
X134501769Y-89221147D01*
X134501769Y-89221147D02*
X134787483Y-89221147D01*
X134787483Y-89221147D02*
X134882721Y-89173528D01*
X134882721Y-89173528D02*
X134930340Y-89125908D01*
X133882721Y-88840194D02*
X133120817Y-88840194D01*
X132454150Y-88221147D02*
X132358912Y-88221147D01*
X132358912Y-88221147D02*
X132263674Y-88268766D01*
X132263674Y-88268766D02*
X132216055Y-88316385D01*
X132216055Y-88316385D02*
X132168436Y-88411623D01*
X132168436Y-88411623D02*
X132120817Y-88602099D01*
X132120817Y-88602099D02*
X132120817Y-88840194D01*
X132120817Y-88840194D02*
X132168436Y-89030670D01*
X132168436Y-89030670D02*
X132216055Y-89125908D01*
X132216055Y-89125908D02*
X132263674Y-89173528D01*
X132263674Y-89173528D02*
X132358912Y-89221147D01*
X132358912Y-89221147D02*
X132454150Y-89221147D01*
X132454150Y-89221147D02*
X132549388Y-89173528D01*
X132549388Y-89173528D02*
X132597007Y-89125908D01*
X132597007Y-89125908D02*
X132644626Y-89030670D01*
X132644626Y-89030670D02*
X132692245Y-88840194D01*
X132692245Y-88840194D02*
X132692245Y-88602099D01*
X132692245Y-88602099D02*
X132644626Y-88411623D01*
X132644626Y-88411623D02*
X132597007Y-88316385D01*
X132597007Y-88316385D02*
X132549388Y-88268766D01*
X132549388Y-88268766D02*
X132454150Y-88221147D01*
X131644626Y-89221147D02*
X131454150Y-89221147D01*
X131454150Y-89221147D02*
X131358912Y-89173528D01*
X131358912Y-89173528D02*
X131311293Y-89125908D01*
X131311293Y-89125908D02*
X131216055Y-88983051D01*
X131216055Y-88983051D02*
X131168436Y-88792575D01*
X131168436Y-88792575D02*
X131168436Y-88411623D01*
X131168436Y-88411623D02*
X131216055Y-88316385D01*
X131216055Y-88316385D02*
X131263674Y-88268766D01*
X131263674Y-88268766D02*
X131358912Y-88221147D01*
X131358912Y-88221147D02*
X131549388Y-88221147D01*
X131549388Y-88221147D02*
X131644626Y-88268766D01*
X131644626Y-88268766D02*
X131692245Y-88316385D01*
X131692245Y-88316385D02*
X131739864Y-88411623D01*
X131739864Y-88411623D02*
X131739864Y-88649718D01*
X131739864Y-88649718D02*
X131692245Y-88744956D01*
X131692245Y-88744956D02*
X131644626Y-88792575D01*
X131644626Y-88792575D02*
X131549388Y-88840194D01*
X131549388Y-88840194D02*
X131358912Y-88840194D01*
X131358912Y-88840194D02*
X131263674Y-88792575D01*
X131263674Y-88792575D02*
X131216055Y-88744956D01*
X131216055Y-88744956D02*
X131168436Y-88649718D01*
X130739864Y-88840194D02*
X129977960Y-88840194D01*
X129549388Y-88316385D02*
X129501769Y-88268766D01*
X129501769Y-88268766D02*
X129406531Y-88221147D01*
X129406531Y-88221147D02*
X129168436Y-88221147D01*
X129168436Y-88221147D02*
X129073198Y-88268766D01*
X129073198Y-88268766D02*
X129025579Y-88316385D01*
X129025579Y-88316385D02*
X128977960Y-88411623D01*
X128977960Y-88411623D02*
X128977960Y-88506861D01*
X128977960Y-88506861D02*
X129025579Y-88649718D01*
X129025579Y-88649718D02*
X129597007Y-89221147D01*
X129597007Y-89221147D02*
X128977960Y-89221147D01*
X128120817Y-88554480D02*
X128120817Y-89221147D01*
X128358912Y-88173528D02*
X128597007Y-88887813D01*
X128597007Y-88887813D02*
X127977960Y-88887813D01*
X135882721Y-90164424D02*
X135644626Y-90831091D01*
X135644626Y-90831091D02*
X135406531Y-90164424D01*
X134501769Y-90831091D02*
X135073197Y-90831091D01*
X134787483Y-90831091D02*
X134787483Y-89831091D01*
X134787483Y-89831091D02*
X134882721Y-89973948D01*
X134882721Y-89973948D02*
X134977959Y-90069186D01*
X134977959Y-90069186D02*
X135073197Y-90116805D01*
X134073197Y-90735852D02*
X134025578Y-90783472D01*
X134025578Y-90783472D02*
X134073197Y-90831091D01*
X134073197Y-90831091D02*
X134120816Y-90783472D01*
X134120816Y-90783472D02*
X134073197Y-90735852D01*
X134073197Y-90735852D02*
X134073197Y-90831091D01*
X133644626Y-89926329D02*
X133597007Y-89878710D01*
X133597007Y-89878710D02*
X133501769Y-89831091D01*
X133501769Y-89831091D02*
X133263674Y-89831091D01*
X133263674Y-89831091D02*
X133168436Y-89878710D01*
X133168436Y-89878710D02*
X133120817Y-89926329D01*
X133120817Y-89926329D02*
X133073198Y-90021567D01*
X133073198Y-90021567D02*
X133073198Y-90116805D01*
X133073198Y-90116805D02*
X133120817Y-90259662D01*
X133120817Y-90259662D02*
X133692245Y-90831091D01*
X133692245Y-90831091D02*
X133073198Y-90831091D01*
D11*
X114826004Y-110044678D02*
X114026004Y-109778011D01*
X114026004Y-109778011D02*
X114826004Y-109511345D01*
X113949814Y-109435155D02*
X113949814Y-108825631D01*
X114445052Y-108368488D02*
X114406957Y-108254202D01*
X114406957Y-108254202D02*
X114368861Y-108216107D01*
X114368861Y-108216107D02*
X114292671Y-108178011D01*
X114292671Y-108178011D02*
X114178385Y-108178011D01*
X114178385Y-108178011D02*
X114102195Y-108216107D01*
X114102195Y-108216107D02*
X114064100Y-108254202D01*
X114064100Y-108254202D02*
X114026004Y-108330392D01*
X114026004Y-108330392D02*
X114026004Y-108635154D01*
X114026004Y-108635154D02*
X114826004Y-108635154D01*
X114826004Y-108635154D02*
X114826004Y-108368488D01*
X114826004Y-108368488D02*
X114787909Y-108292297D01*
X114787909Y-108292297D02*
X114749814Y-108254202D01*
X114749814Y-108254202D02*
X114673623Y-108216107D01*
X114673623Y-108216107D02*
X114597433Y-108216107D01*
X114597433Y-108216107D02*
X114521242Y-108254202D01*
X114521242Y-108254202D02*
X114483147Y-108292297D01*
X114483147Y-108292297D02*
X114445052Y-108368488D01*
X114445052Y-108368488D02*
X114445052Y-108635154D01*
X114826004Y-107835154D02*
X114178385Y-107835154D01*
X114178385Y-107835154D02*
X114102195Y-107797059D01*
X114102195Y-107797059D02*
X114064100Y-107758964D01*
X114064100Y-107758964D02*
X114026004Y-107682773D01*
X114026004Y-107682773D02*
X114026004Y-107530392D01*
X114026004Y-107530392D02*
X114064100Y-107454202D01*
X114064100Y-107454202D02*
X114102195Y-107416107D01*
X114102195Y-107416107D02*
X114178385Y-107378011D01*
X114178385Y-107378011D02*
X114826004Y-107378011D01*
X114064100Y-107035155D02*
X114026004Y-106920869D01*
X114026004Y-106920869D02*
X114026004Y-106730393D01*
X114026004Y-106730393D02*
X114064100Y-106654202D01*
X114064100Y-106654202D02*
X114102195Y-106616107D01*
X114102195Y-106616107D02*
X114178385Y-106578012D01*
X114178385Y-106578012D02*
X114254576Y-106578012D01*
X114254576Y-106578012D02*
X114330766Y-106616107D01*
X114330766Y-106616107D02*
X114368861Y-106654202D01*
X114368861Y-106654202D02*
X114406957Y-106730393D01*
X114406957Y-106730393D02*
X114445052Y-106882774D01*
X114445052Y-106882774D02*
X114483147Y-106958964D01*
X114483147Y-106958964D02*
X114521242Y-106997059D01*
X114521242Y-106997059D02*
X114597433Y-107035155D01*
X114597433Y-107035155D02*
X114673623Y-107035155D01*
X114673623Y-107035155D02*
X114749814Y-106997059D01*
X114749814Y-106997059D02*
X114787909Y-106958964D01*
X114787909Y-106958964D02*
X114826004Y-106882774D01*
X114826004Y-106882774D02*
X114826004Y-106692297D01*
X114826004Y-106692297D02*
X114787909Y-106578012D01*
D12*
X111764256Y-106796469D02*
X111764256Y-105796469D01*
X111764256Y-105796469D02*
X111192828Y-106796469D01*
X111192828Y-106796469D02*
X111192828Y-105796469D01*
X110335685Y-106748850D02*
X110430923Y-106796469D01*
X110430923Y-106796469D02*
X110621399Y-106796469D01*
X110621399Y-106796469D02*
X110716637Y-106748850D01*
X110716637Y-106748850D02*
X110764256Y-106653611D01*
X110764256Y-106653611D02*
X110764256Y-106272659D01*
X110764256Y-106272659D02*
X110716637Y-106177421D01*
X110716637Y-106177421D02*
X110621399Y-106129802D01*
X110621399Y-106129802D02*
X110430923Y-106129802D01*
X110430923Y-106129802D02*
X110335685Y-106177421D01*
X110335685Y-106177421D02*
X110288066Y-106272659D01*
X110288066Y-106272659D02*
X110288066Y-106367897D01*
X110288066Y-106367897D02*
X110764256Y-106463135D01*
X109716637Y-106796469D02*
X109811875Y-106748850D01*
X109811875Y-106748850D02*
X109859494Y-106701230D01*
X109859494Y-106701230D02*
X109907113Y-106605992D01*
X109907113Y-106605992D02*
X109907113Y-106320278D01*
X109907113Y-106320278D02*
X109859494Y-106225040D01*
X109859494Y-106225040D02*
X109811875Y-106177421D01*
X109811875Y-106177421D02*
X109716637Y-106129802D01*
X109716637Y-106129802D02*
X109573780Y-106129802D01*
X109573780Y-106129802D02*
X109478542Y-106177421D01*
X109478542Y-106177421D02*
X109430923Y-106225040D01*
X109430923Y-106225040D02*
X109383304Y-106320278D01*
X109383304Y-106320278D02*
X109383304Y-106605992D01*
X109383304Y-106605992D02*
X109430923Y-106701230D01*
X109430923Y-106701230D02*
X109478542Y-106748850D01*
X109478542Y-106748850D02*
X109573780Y-106796469D01*
X109573780Y-106796469D02*
X109716637Y-106796469D01*
X123097244Y-99081266D02*
X122335340Y-99081266D01*
X121859149Y-99081266D02*
X121097245Y-99081266D01*
X120621054Y-99081266D02*
X119859150Y-99081266D01*
X118621054Y-99462219D02*
X118621054Y-98462219D01*
X118621054Y-98462219D02*
X118240102Y-98462219D01*
X118240102Y-98462219D02*
X118144864Y-98509838D01*
X118144864Y-98509838D02*
X118097245Y-98557457D01*
X118097245Y-98557457D02*
X118049626Y-98652695D01*
X118049626Y-98652695D02*
X118049626Y-98795552D01*
X118049626Y-98795552D02*
X118097245Y-98890790D01*
X118097245Y-98890790D02*
X118144864Y-98938409D01*
X118144864Y-98938409D02*
X118240102Y-98986028D01*
X118240102Y-98986028D02*
X118621054Y-98986028D01*
X117478197Y-99462219D02*
X117573435Y-99414600D01*
X117573435Y-99414600D02*
X117621054Y-99366980D01*
X117621054Y-99366980D02*
X117668673Y-99271742D01*
X117668673Y-99271742D02*
X117668673Y-98986028D01*
X117668673Y-98986028D02*
X117621054Y-98890790D01*
X117621054Y-98890790D02*
X117573435Y-98843171D01*
X117573435Y-98843171D02*
X117478197Y-98795552D01*
X117478197Y-98795552D02*
X117335340Y-98795552D01*
X117335340Y-98795552D02*
X117240102Y-98843171D01*
X117240102Y-98843171D02*
X117192483Y-98890790D01*
X117192483Y-98890790D02*
X117144864Y-98986028D01*
X117144864Y-98986028D02*
X117144864Y-99271742D01*
X117144864Y-99271742D02*
X117192483Y-99366980D01*
X117192483Y-99366980D02*
X117240102Y-99414600D01*
X117240102Y-99414600D02*
X117335340Y-99462219D01*
X117335340Y-99462219D02*
X117478197Y-99462219D01*
X116716292Y-98795552D02*
X116716292Y-99795552D01*
X116716292Y-98843171D02*
X116621054Y-98795552D01*
X116621054Y-98795552D02*
X116430578Y-98795552D01*
X116430578Y-98795552D02*
X116335340Y-98843171D01*
X116335340Y-98843171D02*
X116287721Y-98890790D01*
X116287721Y-98890790D02*
X116240102Y-98986028D01*
X116240102Y-98986028D02*
X116240102Y-99271742D01*
X116240102Y-99271742D02*
X116287721Y-99366980D01*
X116287721Y-99366980D02*
X116335340Y-99414600D01*
X116335340Y-99414600D02*
X116430578Y-99462219D01*
X116430578Y-99462219D02*
X116621054Y-99462219D01*
X116621054Y-99462219D02*
X116716292Y-99414600D01*
X115382959Y-98795552D02*
X115382959Y-99462219D01*
X115811530Y-98795552D02*
X115811530Y-99319361D01*
X115811530Y-99319361D02*
X115763911Y-99414600D01*
X115763911Y-99414600D02*
X115668673Y-99462219D01*
X115668673Y-99462219D02*
X115525816Y-99462219D01*
X115525816Y-99462219D02*
X115430578Y-99414600D01*
X115430578Y-99414600D02*
X115382959Y-99366980D01*
X114763911Y-99462219D02*
X114859149Y-99414600D01*
X114859149Y-99414600D02*
X114906768Y-99319361D01*
X114906768Y-99319361D02*
X114906768Y-98462219D01*
X113954387Y-99462219D02*
X113954387Y-98938409D01*
X113954387Y-98938409D02*
X114002006Y-98843171D01*
X114002006Y-98843171D02*
X114097244Y-98795552D01*
X114097244Y-98795552D02*
X114287720Y-98795552D01*
X114287720Y-98795552D02*
X114382958Y-98843171D01*
X113954387Y-99414600D02*
X114049625Y-99462219D01*
X114049625Y-99462219D02*
X114287720Y-99462219D01*
X114287720Y-99462219D02*
X114382958Y-99414600D01*
X114382958Y-99414600D02*
X114430577Y-99319361D01*
X114430577Y-99319361D02*
X114430577Y-99224123D01*
X114430577Y-99224123D02*
X114382958Y-99128885D01*
X114382958Y-99128885D02*
X114287720Y-99081266D01*
X114287720Y-99081266D02*
X114049625Y-99081266D01*
X114049625Y-99081266D02*
X113954387Y-99033647D01*
X113621053Y-98795552D02*
X113240101Y-98795552D01*
X113478196Y-98462219D02*
X113478196Y-99319361D01*
X113478196Y-99319361D02*
X113430577Y-99414600D01*
X113430577Y-99414600D02*
X113335339Y-99462219D01*
X113335339Y-99462219D02*
X113240101Y-99462219D01*
X112525815Y-99414600D02*
X112621053Y-99462219D01*
X112621053Y-99462219D02*
X112811529Y-99462219D01*
X112811529Y-99462219D02*
X112906767Y-99414600D01*
X112906767Y-99414600D02*
X112954386Y-99319361D01*
X112954386Y-99319361D02*
X112954386Y-98938409D01*
X112954386Y-98938409D02*
X112906767Y-98843171D01*
X112906767Y-98843171D02*
X112811529Y-98795552D01*
X112811529Y-98795552D02*
X112621053Y-98795552D01*
X112621053Y-98795552D02*
X112525815Y-98843171D01*
X112525815Y-98843171D02*
X112478196Y-98938409D01*
X112478196Y-98938409D02*
X112478196Y-99033647D01*
X112478196Y-99033647D02*
X112954386Y-99128885D01*
X111621053Y-99462219D02*
X111621053Y-98462219D01*
X111621053Y-99414600D02*
X111716291Y-99462219D01*
X111716291Y-99462219D02*
X111906767Y-99462219D01*
X111906767Y-99462219D02*
X112002005Y-99414600D01*
X112002005Y-99414600D02*
X112049624Y-99366980D01*
X112049624Y-99366980D02*
X112097243Y-99271742D01*
X112097243Y-99271742D02*
X112097243Y-98986028D01*
X112097243Y-98986028D02*
X112049624Y-98890790D01*
X112049624Y-98890790D02*
X112002005Y-98843171D01*
X112002005Y-98843171D02*
X111906767Y-98795552D01*
X111906767Y-98795552D02*
X111716291Y-98795552D01*
X111716291Y-98795552D02*
X111621053Y-98843171D01*
X111144862Y-99366980D02*
X111097243Y-99414600D01*
X111097243Y-99414600D02*
X111144862Y-99462219D01*
X111144862Y-99462219D02*
X111192481Y-99414600D01*
X111192481Y-99414600D02*
X111144862Y-99366980D01*
X111144862Y-99366980D02*
X111144862Y-99462219D01*
X111144862Y-98843171D02*
X111097243Y-98890790D01*
X111097243Y-98890790D02*
X111144862Y-98938409D01*
X111144862Y-98938409D02*
X111192481Y-98890790D01*
X111192481Y-98890790D02*
X111144862Y-98843171D01*
X111144862Y-98843171D02*
X111144862Y-98938409D01*
X109906767Y-99081266D02*
X109144863Y-99081266D01*
X108668672Y-99081266D02*
X107906768Y-99081266D01*
X107430577Y-99081266D02*
X106668673Y-99081266D01*
D14*
X111798373Y-81445259D02*
X111465040Y-82445259D01*
X111465040Y-82445259D02*
X111131707Y-81445259D01*
X111036469Y-82540497D02*
X110274564Y-82540497D01*
X109703135Y-81921449D02*
X109560278Y-81969068D01*
X109560278Y-81969068D02*
X109512659Y-82016687D01*
X109512659Y-82016687D02*
X109465040Y-82111925D01*
X109465040Y-82111925D02*
X109465040Y-82254782D01*
X109465040Y-82254782D02*
X109512659Y-82350020D01*
X109512659Y-82350020D02*
X109560278Y-82397640D01*
X109560278Y-82397640D02*
X109655516Y-82445259D01*
X109655516Y-82445259D02*
X110036468Y-82445259D01*
X110036468Y-82445259D02*
X110036468Y-81445259D01*
X110036468Y-81445259D02*
X109703135Y-81445259D01*
X109703135Y-81445259D02*
X109607897Y-81492878D01*
X109607897Y-81492878D02*
X109560278Y-81540497D01*
X109560278Y-81540497D02*
X109512659Y-81635735D01*
X109512659Y-81635735D02*
X109512659Y-81730973D01*
X109512659Y-81730973D02*
X109560278Y-81826211D01*
X109560278Y-81826211D02*
X109607897Y-81873830D01*
X109607897Y-81873830D02*
X109703135Y-81921449D01*
X109703135Y-81921449D02*
X110036468Y-81921449D01*
X109084087Y-82159544D02*
X108607897Y-82159544D01*
X109179325Y-82445259D02*
X108845992Y-81445259D01*
X108845992Y-81445259D02*
X108512659Y-82445259D01*
X108322182Y-81445259D02*
X107750754Y-81445259D01*
X108036468Y-82445259D02*
X108036468Y-81445259D01*
X107560277Y-81445259D02*
X106988849Y-81445259D01*
X107274563Y-82445259D02*
X107274563Y-81445259D01*
X106655515Y-82350020D02*
X106607896Y-82397640D01*
X106607896Y-82397640D02*
X106655515Y-82445259D01*
X106655515Y-82445259D02*
X106703134Y-82397640D01*
X106703134Y-82397640D02*
X106655515Y-82350020D01*
X106655515Y-82350020D02*
X106655515Y-82445259D01*
X106655515Y-81826211D02*
X106607896Y-81873830D01*
X106607896Y-81873830D02*
X106655515Y-81921449D01*
X106655515Y-81921449D02*
X106703134Y-81873830D01*
X106703134Y-81873830D02*
X106655515Y-81826211D01*
X106655515Y-81826211D02*
X106655515Y-81921449D01*
X113798372Y-83055203D02*
X113703134Y-83055203D01*
X113703134Y-83055203D02*
X113607896Y-83102822D01*
X113607896Y-83102822D02*
X113560277Y-83150441D01*
X113560277Y-83150441D02*
X113512658Y-83245679D01*
X113512658Y-83245679D02*
X113465039Y-83436155D01*
X113465039Y-83436155D02*
X113465039Y-83674250D01*
X113465039Y-83674250D02*
X113512658Y-83864726D01*
X113512658Y-83864726D02*
X113560277Y-83959964D01*
X113560277Y-83959964D02*
X113607896Y-84007584D01*
X113607896Y-84007584D02*
X113703134Y-84055203D01*
X113703134Y-84055203D02*
X113798372Y-84055203D01*
X113798372Y-84055203D02*
X113893610Y-84007584D01*
X113893610Y-84007584D02*
X113941229Y-83959964D01*
X113941229Y-83959964D02*
X113988848Y-83864726D01*
X113988848Y-83864726D02*
X114036467Y-83674250D01*
X114036467Y-83674250D02*
X114036467Y-83436155D01*
X114036467Y-83436155D02*
X113988848Y-83245679D01*
X113988848Y-83245679D02*
X113941229Y-83150441D01*
X113941229Y-83150441D02*
X113893610Y-83102822D01*
X113893610Y-83102822D02*
X113798372Y-83055203D01*
X113036467Y-83959964D02*
X112988848Y-84007584D01*
X112988848Y-84007584D02*
X113036467Y-84055203D01*
X113036467Y-84055203D02*
X113084086Y-84007584D01*
X113084086Y-84007584D02*
X113036467Y-83959964D01*
X113036467Y-83959964D02*
X113036467Y-84055203D01*
X112512658Y-84055203D02*
X112322182Y-84055203D01*
X112322182Y-84055203D02*
X112226944Y-84007584D01*
X112226944Y-84007584D02*
X112179325Y-83959964D01*
X112179325Y-83959964D02*
X112084087Y-83817107D01*
X112084087Y-83817107D02*
X112036468Y-83626631D01*
X112036468Y-83626631D02*
X112036468Y-83245679D01*
X112036468Y-83245679D02*
X112084087Y-83150441D01*
X112084087Y-83150441D02*
X112131706Y-83102822D01*
X112131706Y-83102822D02*
X112226944Y-83055203D01*
X112226944Y-83055203D02*
X112417420Y-83055203D01*
X112417420Y-83055203D02*
X112512658Y-83102822D01*
X112512658Y-83102822D02*
X112560277Y-83150441D01*
X112560277Y-83150441D02*
X112607896Y-83245679D01*
X112607896Y-83245679D02*
X112607896Y-83483774D01*
X112607896Y-83483774D02*
X112560277Y-83579012D01*
X112560277Y-83579012D02*
X112512658Y-83626631D01*
X112512658Y-83626631D02*
X112417420Y-83674250D01*
X112417420Y-83674250D02*
X112226944Y-83674250D01*
X112226944Y-83674250D02*
X112131706Y-83626631D01*
X112131706Y-83626631D02*
X112084087Y-83579012D01*
X112084087Y-83579012D02*
X112036468Y-83483774D01*
X111607896Y-83674250D02*
X110845992Y-83674250D01*
X109941230Y-83388536D02*
X109941230Y-84055203D01*
X110179325Y-83007584D02*
X110417420Y-83721869D01*
X110417420Y-83721869D02*
X109798373Y-83721869D01*
X109417420Y-83959964D02*
X109369801Y-84007584D01*
X109369801Y-84007584D02*
X109417420Y-84055203D01*
X109417420Y-84055203D02*
X109465039Y-84007584D01*
X109465039Y-84007584D02*
X109417420Y-83959964D01*
X109417420Y-83959964D02*
X109417420Y-84055203D01*
X109036468Y-83055203D02*
X108369802Y-83055203D01*
X108369802Y-83055203D02*
X108798373Y-84055203D01*
X107512659Y-83055203D02*
X107988849Y-83055203D01*
X107988849Y-83055203D02*
X108036468Y-83531393D01*
X108036468Y-83531393D02*
X107988849Y-83483774D01*
X107988849Y-83483774D02*
X107893611Y-83436155D01*
X107893611Y-83436155D02*
X107655516Y-83436155D01*
X107655516Y-83436155D02*
X107560278Y-83483774D01*
X107560278Y-83483774D02*
X107512659Y-83531393D01*
X107512659Y-83531393D02*
X107465040Y-83626631D01*
X107465040Y-83626631D02*
X107465040Y-83864726D01*
X107465040Y-83864726D02*
X107512659Y-83959964D01*
X107512659Y-83959964D02*
X107560278Y-84007584D01*
X107560278Y-84007584D02*
X107655516Y-84055203D01*
X107655516Y-84055203D02*
X107893611Y-84055203D01*
X107893611Y-84055203D02*
X107988849Y-84007584D01*
X107988849Y-84007584D02*
X108036468Y-83959964D01*
X107179325Y-83055203D02*
X106845992Y-84055203D01*
X106845992Y-84055203D02*
X106512659Y-83055203D01*
X116893611Y-84665147D02*
X116560278Y-85665147D01*
X116560278Y-85665147D02*
X116226945Y-84665147D01*
X116131707Y-85760385D02*
X115369802Y-85760385D01*
X114941230Y-84665147D02*
X114750754Y-84665147D01*
X114750754Y-84665147D02*
X114655516Y-84712766D01*
X114655516Y-84712766D02*
X114560278Y-84808004D01*
X114560278Y-84808004D02*
X114512659Y-84998480D01*
X114512659Y-84998480D02*
X114512659Y-85331813D01*
X114512659Y-85331813D02*
X114560278Y-85522289D01*
X114560278Y-85522289D02*
X114655516Y-85617528D01*
X114655516Y-85617528D02*
X114750754Y-85665147D01*
X114750754Y-85665147D02*
X114941230Y-85665147D01*
X114941230Y-85665147D02*
X115036468Y-85617528D01*
X115036468Y-85617528D02*
X115131706Y-85522289D01*
X115131706Y-85522289D02*
X115179325Y-85331813D01*
X115179325Y-85331813D02*
X115179325Y-84998480D01*
X115179325Y-84998480D02*
X115131706Y-84808004D01*
X115131706Y-84808004D02*
X115036468Y-84712766D01*
X115036468Y-84712766D02*
X114941230Y-84665147D01*
X114084087Y-84665147D02*
X114084087Y-85474670D01*
X114084087Y-85474670D02*
X114036468Y-85569908D01*
X114036468Y-85569908D02*
X113988849Y-85617528D01*
X113988849Y-85617528D02*
X113893611Y-85665147D01*
X113893611Y-85665147D02*
X113703135Y-85665147D01*
X113703135Y-85665147D02*
X113607897Y-85617528D01*
X113607897Y-85617528D02*
X113560278Y-85569908D01*
X113560278Y-85569908D02*
X113512659Y-85474670D01*
X113512659Y-85474670D02*
X113512659Y-84665147D01*
X113179325Y-84665147D02*
X112607897Y-84665147D01*
X112893611Y-85665147D02*
X112893611Y-84665147D01*
X112274563Y-85569908D02*
X112226944Y-85617528D01*
X112226944Y-85617528D02*
X112274563Y-85665147D01*
X112274563Y-85665147D02*
X112322182Y-85617528D01*
X112322182Y-85617528D02*
X112274563Y-85569908D01*
X112274563Y-85569908D02*
X112274563Y-85665147D01*
X112274563Y-85046099D02*
X112226944Y-85093718D01*
X112226944Y-85093718D02*
X112274563Y-85141337D01*
X112274563Y-85141337D02*
X112322182Y-85093718D01*
X112322182Y-85093718D02*
X112274563Y-85046099D01*
X112274563Y-85046099D02*
X112274563Y-85141337D01*
X110560278Y-84665147D02*
X111036468Y-84665147D01*
X111036468Y-84665147D02*
X111084087Y-85141337D01*
X111084087Y-85141337D02*
X111036468Y-85093718D01*
X111036468Y-85093718D02*
X110941230Y-85046099D01*
X110941230Y-85046099D02*
X110703135Y-85046099D01*
X110703135Y-85046099D02*
X110607897Y-85093718D01*
X110607897Y-85093718D02*
X110560278Y-85141337D01*
X110560278Y-85141337D02*
X110512659Y-85236575D01*
X110512659Y-85236575D02*
X110512659Y-85474670D01*
X110512659Y-85474670D02*
X110560278Y-85569908D01*
X110560278Y-85569908D02*
X110607897Y-85617528D01*
X110607897Y-85617528D02*
X110703135Y-85665147D01*
X110703135Y-85665147D02*
X110941230Y-85665147D01*
X110941230Y-85665147D02*
X111036468Y-85617528D01*
X111036468Y-85617528D02*
X111084087Y-85569908D01*
X110226944Y-84665147D02*
X109893611Y-85665147D01*
X109893611Y-85665147D02*
X109560278Y-84665147D01*
X109179325Y-85617528D02*
X109179325Y-85665147D01*
X109179325Y-85665147D02*
X109226944Y-85760385D01*
X109226944Y-85760385D02*
X109274563Y-85808004D01*
X108084087Y-84665147D02*
X107465040Y-84665147D01*
X107465040Y-84665147D02*
X107798373Y-85046099D01*
X107798373Y-85046099D02*
X107655516Y-85046099D01*
X107655516Y-85046099D02*
X107560278Y-85093718D01*
X107560278Y-85093718D02*
X107512659Y-85141337D01*
X107512659Y-85141337D02*
X107465040Y-85236575D01*
X107465040Y-85236575D02*
X107465040Y-85474670D01*
X107465040Y-85474670D02*
X107512659Y-85569908D01*
X107512659Y-85569908D02*
X107560278Y-85617528D01*
X107560278Y-85617528D02*
X107655516Y-85665147D01*
X107655516Y-85665147D02*
X107941230Y-85665147D01*
X107941230Y-85665147D02*
X108036468Y-85617528D01*
X108036468Y-85617528D02*
X108084087Y-85569908D01*
X107084087Y-85379432D02*
X106607897Y-85379432D01*
X107179325Y-85665147D02*
X106845992Y-84665147D01*
X106845992Y-84665147D02*
X106512659Y-85665147D01*
X119798372Y-86275091D02*
X119465039Y-87275091D01*
X119465039Y-87275091D02*
X119131706Y-86275091D01*
X119036468Y-87370329D02*
X118274563Y-87370329D01*
X117465039Y-87275091D02*
X117798372Y-86798900D01*
X118036467Y-87275091D02*
X118036467Y-86275091D01*
X118036467Y-86275091D02*
X117655515Y-86275091D01*
X117655515Y-86275091D02*
X117560277Y-86322710D01*
X117560277Y-86322710D02*
X117512658Y-86370329D01*
X117512658Y-86370329D02*
X117465039Y-86465567D01*
X117465039Y-86465567D02*
X117465039Y-86608424D01*
X117465039Y-86608424D02*
X117512658Y-86703662D01*
X117512658Y-86703662D02*
X117560277Y-86751281D01*
X117560277Y-86751281D02*
X117655515Y-86798900D01*
X117655515Y-86798900D02*
X118036467Y-86798900D01*
X117036467Y-86751281D02*
X116703134Y-86751281D01*
X116560277Y-87275091D02*
X117036467Y-87275091D01*
X117036467Y-87275091D02*
X117036467Y-86275091D01*
X117036467Y-86275091D02*
X116560277Y-86275091D01*
X115607896Y-86322710D02*
X115703134Y-86275091D01*
X115703134Y-86275091D02*
X115845991Y-86275091D01*
X115845991Y-86275091D02*
X115988848Y-86322710D01*
X115988848Y-86322710D02*
X116084086Y-86417948D01*
X116084086Y-86417948D02*
X116131705Y-86513186D01*
X116131705Y-86513186D02*
X116179324Y-86703662D01*
X116179324Y-86703662D02*
X116179324Y-86846519D01*
X116179324Y-86846519D02*
X116131705Y-87036995D01*
X116131705Y-87036995D02*
X116084086Y-87132233D01*
X116084086Y-87132233D02*
X115988848Y-87227472D01*
X115988848Y-87227472D02*
X115845991Y-87275091D01*
X115845991Y-87275091D02*
X115750753Y-87275091D01*
X115750753Y-87275091D02*
X115607896Y-87227472D01*
X115607896Y-87227472D02*
X115560277Y-87179852D01*
X115560277Y-87179852D02*
X115560277Y-86846519D01*
X115560277Y-86846519D02*
X115750753Y-86846519D01*
X115131705Y-87179852D02*
X115084086Y-87227472D01*
X115084086Y-87227472D02*
X115131705Y-87275091D01*
X115131705Y-87275091D02*
X115179324Y-87227472D01*
X115179324Y-87227472D02*
X115131705Y-87179852D01*
X115131705Y-87179852D02*
X115131705Y-87275091D01*
X115131705Y-86656043D02*
X115084086Y-86703662D01*
X115084086Y-86703662D02*
X115131705Y-86751281D01*
X115131705Y-86751281D02*
X115179324Y-86703662D01*
X115179324Y-86703662D02*
X115131705Y-86656043D01*
X115131705Y-86656043D02*
X115131705Y-86751281D01*
X113988848Y-86275091D02*
X113369801Y-86275091D01*
X113369801Y-86275091D02*
X113703134Y-86656043D01*
X113703134Y-86656043D02*
X113560277Y-86656043D01*
X113560277Y-86656043D02*
X113465039Y-86703662D01*
X113465039Y-86703662D02*
X113417420Y-86751281D01*
X113417420Y-86751281D02*
X113369801Y-86846519D01*
X113369801Y-86846519D02*
X113369801Y-87084614D01*
X113369801Y-87084614D02*
X113417420Y-87179852D01*
X113417420Y-87179852D02*
X113465039Y-87227472D01*
X113465039Y-87227472D02*
X113560277Y-87275091D01*
X113560277Y-87275091D02*
X113845991Y-87275091D01*
X113845991Y-87275091D02*
X113941229Y-87227472D01*
X113941229Y-87227472D02*
X113988848Y-87179852D01*
X112941229Y-87179852D02*
X112893610Y-87227472D01*
X112893610Y-87227472D02*
X112941229Y-87275091D01*
X112941229Y-87275091D02*
X112988848Y-87227472D01*
X112988848Y-87227472D02*
X112941229Y-87179852D01*
X112941229Y-87179852D02*
X112941229Y-87275091D01*
X112560277Y-86275091D02*
X111941230Y-86275091D01*
X111941230Y-86275091D02*
X112274563Y-86656043D01*
X112274563Y-86656043D02*
X112131706Y-86656043D01*
X112131706Y-86656043D02*
X112036468Y-86703662D01*
X112036468Y-86703662D02*
X111988849Y-86751281D01*
X111988849Y-86751281D02*
X111941230Y-86846519D01*
X111941230Y-86846519D02*
X111941230Y-87084614D01*
X111941230Y-87084614D02*
X111988849Y-87179852D01*
X111988849Y-87179852D02*
X112036468Y-87227472D01*
X112036468Y-87227472D02*
X112131706Y-87275091D01*
X112131706Y-87275091D02*
X112417420Y-87275091D01*
X112417420Y-87275091D02*
X112512658Y-87227472D01*
X112512658Y-87227472D02*
X112560277Y-87179852D01*
X111655515Y-86275091D02*
X111322182Y-87275091D01*
X111322182Y-87275091D02*
X110988849Y-86275091D01*
X110607896Y-87227472D02*
X110607896Y-87275091D01*
X110607896Y-87275091D02*
X110655515Y-87370329D01*
X110655515Y-87370329D02*
X110703134Y-87417948D01*
X109226944Y-86275091D02*
X109131706Y-86275091D01*
X109131706Y-86275091D02*
X109036468Y-86322710D01*
X109036468Y-86322710D02*
X108988849Y-86370329D01*
X108988849Y-86370329D02*
X108941230Y-86465567D01*
X108941230Y-86465567D02*
X108893611Y-86656043D01*
X108893611Y-86656043D02*
X108893611Y-86894138D01*
X108893611Y-86894138D02*
X108941230Y-87084614D01*
X108941230Y-87084614D02*
X108988849Y-87179852D01*
X108988849Y-87179852D02*
X109036468Y-87227472D01*
X109036468Y-87227472D02*
X109131706Y-87275091D01*
X109131706Y-87275091D02*
X109226944Y-87275091D01*
X109226944Y-87275091D02*
X109322182Y-87227472D01*
X109322182Y-87227472D02*
X109369801Y-87179852D01*
X109369801Y-87179852D02*
X109417420Y-87084614D01*
X109417420Y-87084614D02*
X109465039Y-86894138D01*
X109465039Y-86894138D02*
X109465039Y-86656043D01*
X109465039Y-86656043D02*
X109417420Y-86465567D01*
X109417420Y-86465567D02*
X109369801Y-86370329D01*
X109369801Y-86370329D02*
X109322182Y-86322710D01*
X109322182Y-86322710D02*
X109226944Y-86275091D01*
X108465039Y-87179852D02*
X108417420Y-87227472D01*
X108417420Y-87227472D02*
X108465039Y-87275091D01*
X108465039Y-87275091D02*
X108512658Y-87227472D01*
X108512658Y-87227472D02*
X108465039Y-87179852D01*
X108465039Y-87179852D02*
X108465039Y-87275091D01*
X107560278Y-86275091D02*
X107750754Y-86275091D01*
X107750754Y-86275091D02*
X107845992Y-86322710D01*
X107845992Y-86322710D02*
X107893611Y-86370329D01*
X107893611Y-86370329D02*
X107988849Y-86513186D01*
X107988849Y-86513186D02*
X108036468Y-86703662D01*
X108036468Y-86703662D02*
X108036468Y-87084614D01*
X108036468Y-87084614D02*
X107988849Y-87179852D01*
X107988849Y-87179852D02*
X107941230Y-87227472D01*
X107941230Y-87227472D02*
X107845992Y-87275091D01*
X107845992Y-87275091D02*
X107655516Y-87275091D01*
X107655516Y-87275091D02*
X107560278Y-87227472D01*
X107560278Y-87227472D02*
X107512659Y-87179852D01*
X107512659Y-87179852D02*
X107465040Y-87084614D01*
X107465040Y-87084614D02*
X107465040Y-86846519D01*
X107465040Y-86846519D02*
X107512659Y-86751281D01*
X107512659Y-86751281D02*
X107560278Y-86703662D01*
X107560278Y-86703662D02*
X107655516Y-86656043D01*
X107655516Y-86656043D02*
X107845992Y-86656043D01*
X107845992Y-86656043D02*
X107941230Y-86703662D01*
X107941230Y-86703662D02*
X107988849Y-86751281D01*
X107988849Y-86751281D02*
X108036468Y-86846519D01*
X107084087Y-86989376D02*
X106607897Y-86989376D01*
X107179325Y-87275091D02*
X106845992Y-86275091D01*
X106845992Y-86275091D02*
X106512659Y-87275091D01*
D11*
X119906004Y-110044678D02*
X119106004Y-109778011D01*
X119106004Y-109778011D02*
X119906004Y-109511345D01*
X119029814Y-109435155D02*
X119029814Y-108825631D01*
X119525052Y-108368488D02*
X119486957Y-108254202D01*
X119486957Y-108254202D02*
X119448861Y-108216107D01*
X119448861Y-108216107D02*
X119372671Y-108178011D01*
X119372671Y-108178011D02*
X119258385Y-108178011D01*
X119258385Y-108178011D02*
X119182195Y-108216107D01*
X119182195Y-108216107D02*
X119144100Y-108254202D01*
X119144100Y-108254202D02*
X119106004Y-108330392D01*
X119106004Y-108330392D02*
X119106004Y-108635154D01*
X119106004Y-108635154D02*
X119906004Y-108635154D01*
X119906004Y-108635154D02*
X119906004Y-108368488D01*
X119906004Y-108368488D02*
X119867909Y-108292297D01*
X119867909Y-108292297D02*
X119829814Y-108254202D01*
X119829814Y-108254202D02*
X119753623Y-108216107D01*
X119753623Y-108216107D02*
X119677433Y-108216107D01*
X119677433Y-108216107D02*
X119601242Y-108254202D01*
X119601242Y-108254202D02*
X119563147Y-108292297D01*
X119563147Y-108292297D02*
X119525052Y-108368488D01*
X119525052Y-108368488D02*
X119525052Y-108635154D01*
X119334576Y-107873250D02*
X119334576Y-107492297D01*
X119106004Y-107949440D02*
X119906004Y-107682773D01*
X119906004Y-107682773D02*
X119106004Y-107416107D01*
X119906004Y-107263726D02*
X119906004Y-106806583D01*
X119106004Y-107035155D02*
X119906004Y-107035155D01*
X119906004Y-106654202D02*
X119906004Y-106197059D01*
X119106004Y-106425631D02*
X119906004Y-106425631D01*
X126853004Y-109930392D02*
X127653004Y-109930392D01*
X127653004Y-109930392D02*
X126853004Y-109473249D01*
X126853004Y-109473249D02*
X127653004Y-109473249D01*
X126776814Y-109282774D02*
X126776814Y-108673250D01*
X126853004Y-108482773D02*
X127386338Y-108482773D01*
X127653004Y-108482773D02*
X127614909Y-108520869D01*
X127614909Y-108520869D02*
X127576814Y-108482773D01*
X127576814Y-108482773D02*
X127614909Y-108444678D01*
X127614909Y-108444678D02*
X127653004Y-108482773D01*
X127653004Y-108482773D02*
X127576814Y-108482773D01*
X127386338Y-108101821D02*
X126853004Y-108101821D01*
X127310147Y-108101821D02*
X127348242Y-108063726D01*
X127348242Y-108063726D02*
X127386338Y-107987536D01*
X127386338Y-107987536D02*
X127386338Y-107873250D01*
X127386338Y-107873250D02*
X127348242Y-107797059D01*
X127348242Y-107797059D02*
X127272052Y-107758964D01*
X127272052Y-107758964D02*
X126853004Y-107758964D01*
X135107909Y-109511345D02*
X135146004Y-109587535D01*
X135146004Y-109587535D02*
X135146004Y-109701821D01*
X135146004Y-109701821D02*
X135107909Y-109816107D01*
X135107909Y-109816107D02*
X135031719Y-109892297D01*
X135031719Y-109892297D02*
X134955528Y-109930392D01*
X134955528Y-109930392D02*
X134803147Y-109968488D01*
X134803147Y-109968488D02*
X134688861Y-109968488D01*
X134688861Y-109968488D02*
X134536480Y-109930392D01*
X134536480Y-109930392D02*
X134460290Y-109892297D01*
X134460290Y-109892297D02*
X134384100Y-109816107D01*
X134384100Y-109816107D02*
X134346004Y-109701821D01*
X134346004Y-109701821D02*
X134346004Y-109625630D01*
X134346004Y-109625630D02*
X134384100Y-109511345D01*
X134384100Y-109511345D02*
X134422195Y-109473249D01*
X134422195Y-109473249D02*
X134688861Y-109473249D01*
X134688861Y-109473249D02*
X134688861Y-109625630D01*
X134346004Y-109130392D02*
X135146004Y-109130392D01*
X135146004Y-109130392D02*
X134346004Y-108673249D01*
X134346004Y-108673249D02*
X135146004Y-108673249D01*
X134346004Y-108292297D02*
X135146004Y-108292297D01*
X135146004Y-108292297D02*
X135146004Y-108101821D01*
X135146004Y-108101821D02*
X135107909Y-107987535D01*
X135107909Y-107987535D02*
X135031719Y-107911345D01*
X135031719Y-107911345D02*
X134955528Y-107873250D01*
X134955528Y-107873250D02*
X134803147Y-107835154D01*
X134803147Y-107835154D02*
X134688861Y-107835154D01*
X134688861Y-107835154D02*
X134536480Y-107873250D01*
X134536480Y-107873250D02*
X134460290Y-107911345D01*
X134460290Y-107911345D02*
X134384100Y-107987535D01*
X134384100Y-107987535D02*
X134346004Y-108101821D01*
X134346004Y-108101821D02*
X134346004Y-108292297D01*
D15*
X134669978Y-82485228D02*
X134241406Y-82628085D01*
X134241406Y-82628085D02*
X134098549Y-82770942D01*
X134098549Y-82770942D02*
X133955692Y-83056657D01*
X133955692Y-83056657D02*
X133955692Y-83485228D01*
X133955692Y-83485228D02*
X134098549Y-83770942D01*
X134098549Y-83770942D02*
X134241406Y-83913800D01*
X134241406Y-83913800D02*
X134527121Y-84056657D01*
X134527121Y-84056657D02*
X135669978Y-84056657D01*
X135669978Y-84056657D02*
X135669978Y-81056657D01*
X135669978Y-81056657D02*
X134669978Y-81056657D01*
X134669978Y-81056657D02*
X134384264Y-81199514D01*
X134384264Y-81199514D02*
X134241406Y-81342371D01*
X134241406Y-81342371D02*
X134098549Y-81628085D01*
X134098549Y-81628085D02*
X134098549Y-81913800D01*
X134098549Y-81913800D02*
X134241406Y-82199514D01*
X134241406Y-82199514D02*
X134384264Y-82342371D01*
X134384264Y-82342371D02*
X134669978Y-82485228D01*
X134669978Y-82485228D02*
X135669978Y-82485228D01*
X132241406Y-84056657D02*
X132527121Y-83913800D01*
X132527121Y-83913800D02*
X132669978Y-83770942D01*
X132669978Y-83770942D02*
X132812835Y-83485228D01*
X132812835Y-83485228D02*
X132812835Y-82628085D01*
X132812835Y-82628085D02*
X132669978Y-82342371D01*
X132669978Y-82342371D02*
X132527121Y-82199514D01*
X132527121Y-82199514D02*
X132241406Y-82056657D01*
X132241406Y-82056657D02*
X131812835Y-82056657D01*
X131812835Y-82056657D02*
X131527121Y-82199514D01*
X131527121Y-82199514D02*
X131384264Y-82342371D01*
X131384264Y-82342371D02*
X131241406Y-82628085D01*
X131241406Y-82628085D02*
X131241406Y-83485228D01*
X131241406Y-83485228D02*
X131384264Y-83770942D01*
X131384264Y-83770942D02*
X131527121Y-83913800D01*
X131527121Y-83913800D02*
X131812835Y-84056657D01*
X131812835Y-84056657D02*
X132241406Y-84056657D01*
X129527120Y-84056657D02*
X129812835Y-83913800D01*
X129812835Y-83913800D02*
X129955692Y-83770942D01*
X129955692Y-83770942D02*
X130098549Y-83485228D01*
X130098549Y-83485228D02*
X130098549Y-82628085D01*
X130098549Y-82628085D02*
X129955692Y-82342371D01*
X129955692Y-82342371D02*
X129812835Y-82199514D01*
X129812835Y-82199514D02*
X129527120Y-82056657D01*
X129527120Y-82056657D02*
X129098549Y-82056657D01*
X129098549Y-82056657D02*
X128812835Y-82199514D01*
X128812835Y-82199514D02*
X128669978Y-82342371D01*
X128669978Y-82342371D02*
X128527120Y-82628085D01*
X128527120Y-82628085D02*
X128527120Y-83485228D01*
X128527120Y-83485228D02*
X128669978Y-83770942D01*
X128669978Y-83770942D02*
X128812835Y-83913800D01*
X128812835Y-83913800D02*
X129098549Y-84056657D01*
X129098549Y-84056657D02*
X129527120Y-84056657D01*
X127384263Y-83913800D02*
X127098549Y-84056657D01*
X127098549Y-84056657D02*
X126527120Y-84056657D01*
X126527120Y-84056657D02*
X126241406Y-83913800D01*
X126241406Y-83913800D02*
X126098549Y-83628085D01*
X126098549Y-83628085D02*
X126098549Y-83485228D01*
X126098549Y-83485228D02*
X126241406Y-83199514D01*
X126241406Y-83199514D02*
X126527120Y-83056657D01*
X126527120Y-83056657D02*
X126955692Y-83056657D01*
X126955692Y-83056657D02*
X127241406Y-82913800D01*
X127241406Y-82913800D02*
X127384263Y-82628085D01*
X127384263Y-82628085D02*
X127384263Y-82485228D01*
X127384263Y-82485228D02*
X127241406Y-82199514D01*
X127241406Y-82199514D02*
X126955692Y-82056657D01*
X126955692Y-82056657D02*
X126527120Y-82056657D01*
X126527120Y-82056657D02*
X126241406Y-82199514D01*
X125241406Y-82056657D02*
X124098549Y-82056657D01*
X124812835Y-81056657D02*
X124812835Y-83628085D01*
X124812835Y-83628085D02*
X124669978Y-83913800D01*
X124669978Y-83913800D02*
X124384263Y-84056657D01*
X124384263Y-84056657D02*
X124098549Y-84056657D01*
X122669977Y-84056657D02*
X122955692Y-83913800D01*
X122955692Y-83913800D02*
X123098549Y-83628085D01*
X123098549Y-83628085D02*
X123098549Y-81056657D01*
X120384263Y-83913800D02*
X120669977Y-84056657D01*
X120669977Y-84056657D02*
X121241406Y-84056657D01*
X121241406Y-84056657D02*
X121527120Y-83913800D01*
X121527120Y-83913800D02*
X121669977Y-83628085D01*
X121669977Y-83628085D02*
X121669977Y-82485228D01*
X121669977Y-82485228D02*
X121527120Y-82199514D01*
X121527120Y-82199514D02*
X121241406Y-82056657D01*
X121241406Y-82056657D02*
X120669977Y-82056657D01*
X120669977Y-82056657D02*
X120384263Y-82199514D01*
X120384263Y-82199514D02*
X120241406Y-82485228D01*
X120241406Y-82485228D02*
X120241406Y-82770942D01*
X120241406Y-82770942D02*
X121669977Y-83056657D01*
X119384262Y-82056657D02*
X118241405Y-82056657D01*
X118955691Y-81056657D02*
X118955691Y-83628085D01*
X118955691Y-83628085D02*
X118812834Y-83913800D01*
X118812834Y-83913800D02*
X118527119Y-84056657D01*
X118527119Y-84056657D02*
X118241405Y-84056657D01*
X117241405Y-83770942D02*
X117098548Y-83913800D01*
X117098548Y-83913800D02*
X117241405Y-84056657D01*
X117241405Y-84056657D02*
X117384262Y-83913800D01*
X117384262Y-83913800D02*
X117241405Y-83770942D01*
X117241405Y-83770942D02*
X117241405Y-84056657D01*
X117241405Y-82913800D02*
X117384262Y-81199514D01*
X117384262Y-81199514D02*
X117241405Y-81056657D01*
X117241405Y-81056657D02*
X117098548Y-81199514D01*
X117098548Y-81199514D02*
X117241405Y-82913800D01*
X117241405Y-82913800D02*
X117241405Y-81056657D01*
D12*
X114018244Y-101875219D02*
X114018244Y-100875219D01*
X114018244Y-100875219D02*
X113637292Y-100875219D01*
X113637292Y-100875219D02*
X113542054Y-100922838D01*
X113542054Y-100922838D02*
X113494435Y-100970457D01*
X113494435Y-100970457D02*
X113446816Y-101065695D01*
X113446816Y-101065695D02*
X113446816Y-101208552D01*
X113446816Y-101208552D02*
X113494435Y-101303790D01*
X113494435Y-101303790D02*
X113542054Y-101351409D01*
X113542054Y-101351409D02*
X113637292Y-101399028D01*
X113637292Y-101399028D02*
X114018244Y-101399028D01*
X113161101Y-100875219D02*
X112589673Y-100875219D01*
X112875387Y-101875219D02*
X112875387Y-100875219D01*
X111684911Y-101779980D02*
X111732530Y-101827600D01*
X111732530Y-101827600D02*
X111875387Y-101875219D01*
X111875387Y-101875219D02*
X111970625Y-101875219D01*
X111970625Y-101875219D02*
X112113482Y-101827600D01*
X112113482Y-101827600D02*
X112208720Y-101732361D01*
X112208720Y-101732361D02*
X112256339Y-101637123D01*
X112256339Y-101637123D02*
X112303958Y-101446647D01*
X112303958Y-101446647D02*
X112303958Y-101303790D01*
X112303958Y-101303790D02*
X112256339Y-101113314D01*
X112256339Y-101113314D02*
X112208720Y-101018076D01*
X112208720Y-101018076D02*
X112113482Y-100922838D01*
X112113482Y-100922838D02*
X111970625Y-100875219D01*
X111970625Y-100875219D02*
X111875387Y-100875219D01*
X111875387Y-100875219D02*
X111732530Y-100922838D01*
X111732530Y-100922838D02*
X111684911Y-100970457D01*
X110494434Y-101875219D02*
X110494434Y-101208552D01*
X110494434Y-100875219D02*
X110542053Y-100922838D01*
X110542053Y-100922838D02*
X110494434Y-100970457D01*
X110494434Y-100970457D02*
X110446815Y-100922838D01*
X110446815Y-100922838D02*
X110494434Y-100875219D01*
X110494434Y-100875219D02*
X110494434Y-100970457D01*
X110018244Y-101208552D02*
X110018244Y-101875219D01*
X110018244Y-101303790D02*
X109970625Y-101256171D01*
X109970625Y-101256171D02*
X109875387Y-101208552D01*
X109875387Y-101208552D02*
X109732530Y-101208552D01*
X109732530Y-101208552D02*
X109637292Y-101256171D01*
X109637292Y-101256171D02*
X109589673Y-101351409D01*
X109589673Y-101351409D02*
X109589673Y-101875219D01*
D10*
X109211904Y-94831819D02*
X108640476Y-94831819D01*
X108926190Y-95831819D02*
X108926190Y-94831819D01*
X108307142Y-95831819D02*
X108307142Y-94831819D01*
X108307142Y-94831819D02*
X107926190Y-94831819D01*
X107926190Y-94831819D02*
X107830952Y-94879438D01*
X107830952Y-94879438D02*
X107783333Y-94927057D01*
X107783333Y-94927057D02*
X107735714Y-95022295D01*
X107735714Y-95022295D02*
X107735714Y-95165152D01*
X107735714Y-95165152D02*
X107783333Y-95260390D01*
X107783333Y-95260390D02*
X107830952Y-95308009D01*
X107830952Y-95308009D02*
X107926190Y-95355628D01*
X107926190Y-95355628D02*
X108307142Y-95355628D01*
X106878571Y-95165152D02*
X106878571Y-95831819D01*
X107116666Y-94784200D02*
X107354761Y-95498485D01*
X107354761Y-95498485D02*
X106735714Y-95498485D01*
X126706094Y-96482819D02*
X126134666Y-96482819D01*
X126420380Y-97482819D02*
X126420380Y-96482819D01*
X125801332Y-97482819D02*
X125801332Y-96482819D01*
X125801332Y-96482819D02*
X125420380Y-96482819D01*
X125420380Y-96482819D02*
X125325142Y-96530438D01*
X125325142Y-96530438D02*
X125277523Y-96578057D01*
X125277523Y-96578057D02*
X125229904Y-96673295D01*
X125229904Y-96673295D02*
X125229904Y-96816152D01*
X125229904Y-96816152D02*
X125277523Y-96911390D01*
X125277523Y-96911390D02*
X125325142Y-96959009D01*
X125325142Y-96959009D02*
X125420380Y-97006628D01*
X125420380Y-97006628D02*
X125801332Y-97006628D01*
X124277523Y-97482819D02*
X124848951Y-97482819D01*
X124563237Y-97482819D02*
X124563237Y-96482819D01*
X124563237Y-96482819D02*
X124658475Y-96625676D01*
X124658475Y-96625676D02*
X124753713Y-96720914D01*
X124753713Y-96720914D02*
X124848951Y-96768533D01*
X123420380Y-96482819D02*
X123610856Y-96482819D01*
X123610856Y-96482819D02*
X123706094Y-96530438D01*
X123706094Y-96530438D02*
X123753713Y-96578057D01*
X123753713Y-96578057D02*
X123848951Y-96720914D01*
X123848951Y-96720914D02*
X123896570Y-96911390D01*
X123896570Y-96911390D02*
X123896570Y-97292342D01*
X123896570Y-97292342D02*
X123848951Y-97387580D01*
X123848951Y-97387580D02*
X123801332Y-97435200D01*
X123801332Y-97435200D02*
X123706094Y-97482819D01*
X123706094Y-97482819D02*
X123515618Y-97482819D01*
X123515618Y-97482819D02*
X123420380Y-97435200D01*
X123420380Y-97435200D02*
X123372761Y-97387580D01*
X123372761Y-97387580D02*
X123325142Y-97292342D01*
X123325142Y-97292342D02*
X123325142Y-97054247D01*
X123325142Y-97054247D02*
X123372761Y-96959009D01*
X123372761Y-96959009D02*
X123420380Y-96911390D01*
X123420380Y-96911390D02*
X123515618Y-96863771D01*
X123515618Y-96863771D02*
X123706094Y-96863771D01*
X123706094Y-96863771D02*
X123801332Y-96911390D01*
X123801332Y-96911390D02*
X123848951Y-96959009D01*
X123848951Y-96959009D02*
X123896570Y-97054247D01*
X133564094Y-93815819D02*
X132992666Y-93815819D01*
X133278380Y-94815819D02*
X133278380Y-93815819D01*
X132659332Y-94815819D02*
X132659332Y-93815819D01*
X132659332Y-93815819D02*
X132278380Y-93815819D01*
X132278380Y-93815819D02*
X132183142Y-93863438D01*
X132183142Y-93863438D02*
X132135523Y-93911057D01*
X132135523Y-93911057D02*
X132087904Y-94006295D01*
X132087904Y-94006295D02*
X132087904Y-94149152D01*
X132087904Y-94149152D02*
X132135523Y-94244390D01*
X132135523Y-94244390D02*
X132183142Y-94292009D01*
X132183142Y-94292009D02*
X132278380Y-94339628D01*
X132278380Y-94339628D02*
X132659332Y-94339628D01*
X131135523Y-94815819D02*
X131706951Y-94815819D01*
X131421237Y-94815819D02*
X131421237Y-93815819D01*
X131421237Y-93815819D02*
X131516475Y-93958676D01*
X131516475Y-93958676D02*
X131611713Y-94053914D01*
X131611713Y-94053914D02*
X131706951Y-94101533D01*
X130230761Y-93815819D02*
X130706951Y-93815819D01*
X130706951Y-93815819D02*
X130754570Y-94292009D01*
X130754570Y-94292009D02*
X130706951Y-94244390D01*
X130706951Y-94244390D02*
X130611713Y-94196771D01*
X130611713Y-94196771D02*
X130373618Y-94196771D01*
X130373618Y-94196771D02*
X130278380Y-94244390D01*
X130278380Y-94244390D02*
X130230761Y-94292009D01*
X130230761Y-94292009D02*
X130183142Y-94387247D01*
X130183142Y-94387247D02*
X130183142Y-94625342D01*
X130183142Y-94625342D02*
X130230761Y-94720580D01*
X130230761Y-94720580D02*
X130278380Y-94768200D01*
X130278380Y-94768200D02*
X130373618Y-94815819D01*
X130373618Y-94815819D02*
X130611713Y-94815819D01*
X130611713Y-94815819D02*
X130706951Y-94768200D01*
X130706951Y-94768200D02*
X130754570Y-94720580D01*
X129150904Y-99784819D02*
X128579476Y-99784819D01*
X128865190Y-100784819D02*
X128865190Y-99784819D01*
X128246142Y-100784819D02*
X128246142Y-99784819D01*
X128246142Y-99784819D02*
X127865190Y-99784819D01*
X127865190Y-99784819D02*
X127769952Y-99832438D01*
X127769952Y-99832438D02*
X127722333Y-99880057D01*
X127722333Y-99880057D02*
X127674714Y-99975295D01*
X127674714Y-99975295D02*
X127674714Y-100118152D01*
X127674714Y-100118152D02*
X127722333Y-100213390D01*
X127722333Y-100213390D02*
X127769952Y-100261009D01*
X127769952Y-100261009D02*
X127865190Y-100308628D01*
X127865190Y-100308628D02*
X128246142Y-100308628D01*
X126769952Y-99784819D02*
X127246142Y-99784819D01*
X127246142Y-99784819D02*
X127293761Y-100261009D01*
X127293761Y-100261009D02*
X127246142Y-100213390D01*
X127246142Y-100213390D02*
X127150904Y-100165771D01*
X127150904Y-100165771D02*
X126912809Y-100165771D01*
X126912809Y-100165771D02*
X126817571Y-100213390D01*
X126817571Y-100213390D02*
X126769952Y-100261009D01*
X126769952Y-100261009D02*
X126722333Y-100356247D01*
X126722333Y-100356247D02*
X126722333Y-100594342D01*
X126722333Y-100594342D02*
X126769952Y-100689580D01*
X126769952Y-100689580D02*
X126817571Y-100737200D01*
X126817571Y-100737200D02*
X126912809Y-100784819D01*
X126912809Y-100784819D02*
X127150904Y-100784819D01*
X127150904Y-100784819D02*
X127246142Y-100737200D01*
X127246142Y-100737200D02*
X127293761Y-100689580D01*
X136231094Y-99784819D02*
X135659666Y-99784819D01*
X135945380Y-100784819D02*
X135945380Y-99784819D01*
X135326332Y-100784819D02*
X135326332Y-99784819D01*
X135326332Y-99784819D02*
X134945380Y-99784819D01*
X134945380Y-99784819D02*
X134850142Y-99832438D01*
X134850142Y-99832438D02*
X134802523Y-99880057D01*
X134802523Y-99880057D02*
X134754904Y-99975295D01*
X134754904Y-99975295D02*
X134754904Y-100118152D01*
X134754904Y-100118152D02*
X134802523Y-100213390D01*
X134802523Y-100213390D02*
X134850142Y-100261009D01*
X134850142Y-100261009D02*
X134945380Y-100308628D01*
X134945380Y-100308628D02*
X135326332Y-100308628D01*
X133802523Y-100784819D02*
X134373951Y-100784819D01*
X134088237Y-100784819D02*
X134088237Y-99784819D01*
X134088237Y-99784819D02*
X134183475Y-99927676D01*
X134183475Y-99927676D02*
X134278713Y-100022914D01*
X134278713Y-100022914D02*
X134373951Y-100070533D01*
X132850142Y-100784819D02*
X133421570Y-100784819D01*
X133135856Y-100784819D02*
X133135856Y-99784819D01*
X133135856Y-99784819D02*
X133231094Y-99927676D01*
X133231094Y-99927676D02*
X133326332Y-100022914D01*
X133326332Y-100022914D02*
X133421570Y-100070533D01*
X124832904Y-102832819D02*
X124261476Y-102832819D01*
X124547190Y-103832819D02*
X124547190Y-102832819D01*
X123928142Y-103832819D02*
X123928142Y-102832819D01*
X123928142Y-102832819D02*
X123547190Y-102832819D01*
X123547190Y-102832819D02*
X123451952Y-102880438D01*
X123451952Y-102880438D02*
X123404333Y-102928057D01*
X123404333Y-102928057D02*
X123356714Y-103023295D01*
X123356714Y-103023295D02*
X123356714Y-103166152D01*
X123356714Y-103166152D02*
X123404333Y-103261390D01*
X123404333Y-103261390D02*
X123451952Y-103309009D01*
X123451952Y-103309009D02*
X123547190Y-103356628D01*
X123547190Y-103356628D02*
X123928142Y-103356628D01*
X122975761Y-102928057D02*
X122928142Y-102880438D01*
X122928142Y-102880438D02*
X122832904Y-102832819D01*
X122832904Y-102832819D02*
X122594809Y-102832819D01*
X122594809Y-102832819D02*
X122499571Y-102880438D01*
X122499571Y-102880438D02*
X122451952Y-102928057D01*
X122451952Y-102928057D02*
X122404333Y-103023295D01*
X122404333Y-103023295D02*
X122404333Y-103118533D01*
X122404333Y-103118533D02*
X122451952Y-103261390D01*
X122451952Y-103261390D02*
X123023380Y-103832819D01*
X123023380Y-103832819D02*
X122404333Y-103832819D01*
X127087094Y-92926819D02*
X126515666Y-92926819D01*
X126801380Y-93926819D02*
X126801380Y-92926819D01*
X126182332Y-93926819D02*
X126182332Y-92926819D01*
X126182332Y-92926819D02*
X125801380Y-92926819D01*
X125801380Y-92926819D02*
X125706142Y-92974438D01*
X125706142Y-92974438D02*
X125658523Y-93022057D01*
X125658523Y-93022057D02*
X125610904Y-93117295D01*
X125610904Y-93117295D02*
X125610904Y-93260152D01*
X125610904Y-93260152D02*
X125658523Y-93355390D01*
X125658523Y-93355390D02*
X125706142Y-93403009D01*
X125706142Y-93403009D02*
X125801380Y-93450628D01*
X125801380Y-93450628D02*
X126182332Y-93450628D01*
X124658523Y-93926819D02*
X125229951Y-93926819D01*
X124944237Y-93926819D02*
X124944237Y-92926819D01*
X124944237Y-92926819D02*
X125039475Y-93069676D01*
X125039475Y-93069676D02*
X125134713Y-93164914D01*
X125134713Y-93164914D02*
X125229951Y-93212533D01*
X123801380Y-93260152D02*
X123801380Y-93926819D01*
X124039475Y-92879200D02*
X124277570Y-93593485D01*
X124277570Y-93593485D02*
X123658523Y-93593485D01*
X112513904Y-96736819D02*
X111942476Y-96736819D01*
X112228190Y-97736819D02*
X112228190Y-96736819D01*
X111609142Y-97736819D02*
X111609142Y-96736819D01*
X111609142Y-96736819D02*
X111228190Y-96736819D01*
X111228190Y-96736819D02*
X111132952Y-96784438D01*
X111132952Y-96784438D02*
X111085333Y-96832057D01*
X111085333Y-96832057D02*
X111037714Y-96927295D01*
X111037714Y-96927295D02*
X111037714Y-97070152D01*
X111037714Y-97070152D02*
X111085333Y-97165390D01*
X111085333Y-97165390D02*
X111132952Y-97213009D01*
X111132952Y-97213009D02*
X111228190Y-97260628D01*
X111228190Y-97260628D02*
X111609142Y-97260628D01*
X110180571Y-96736819D02*
X110371047Y-96736819D01*
X110371047Y-96736819D02*
X110466285Y-96784438D01*
X110466285Y-96784438D02*
X110513904Y-96832057D01*
X110513904Y-96832057D02*
X110609142Y-96974914D01*
X110609142Y-96974914D02*
X110656761Y-97165390D01*
X110656761Y-97165390D02*
X110656761Y-97546342D01*
X110656761Y-97546342D02*
X110609142Y-97641580D01*
X110609142Y-97641580D02*
X110561523Y-97689200D01*
X110561523Y-97689200D02*
X110466285Y-97736819D01*
X110466285Y-97736819D02*
X110275809Y-97736819D01*
X110275809Y-97736819D02*
X110180571Y-97689200D01*
X110180571Y-97689200D02*
X110132952Y-97641580D01*
X110132952Y-97641580D02*
X110085333Y-97546342D01*
X110085333Y-97546342D02*
X110085333Y-97308247D01*
X110085333Y-97308247D02*
X110132952Y-97213009D01*
X110132952Y-97213009D02*
X110180571Y-97165390D01*
X110180571Y-97165390D02*
X110275809Y-97117771D01*
X110275809Y-97117771D02*
X110466285Y-97117771D01*
X110466285Y-97117771D02*
X110561523Y-97165390D01*
X110561523Y-97165390D02*
X110609142Y-97213009D01*
X110609142Y-97213009D02*
X110656761Y-97308247D01*
X109465904Y-90894819D02*
X108894476Y-90894819D01*
X109180190Y-91894819D02*
X109180190Y-90894819D01*
X108561142Y-91894819D02*
X108561142Y-90894819D01*
X108561142Y-90894819D02*
X108180190Y-90894819D01*
X108180190Y-90894819D02*
X108084952Y-90942438D01*
X108084952Y-90942438D02*
X108037333Y-90990057D01*
X108037333Y-90990057D02*
X107989714Y-91085295D01*
X107989714Y-91085295D02*
X107989714Y-91228152D01*
X107989714Y-91228152D02*
X108037333Y-91323390D01*
X108037333Y-91323390D02*
X108084952Y-91371009D01*
X108084952Y-91371009D02*
X108180190Y-91418628D01*
X108180190Y-91418628D02*
X108561142Y-91418628D01*
X107656380Y-90894819D02*
X107037333Y-90894819D01*
X107037333Y-90894819D02*
X107370666Y-91275771D01*
X107370666Y-91275771D02*
X107227809Y-91275771D01*
X107227809Y-91275771D02*
X107132571Y-91323390D01*
X107132571Y-91323390D02*
X107084952Y-91371009D01*
X107084952Y-91371009D02*
X107037333Y-91466247D01*
X107037333Y-91466247D02*
X107037333Y-91704342D01*
X107037333Y-91704342D02*
X107084952Y-91799580D01*
X107084952Y-91799580D02*
X107132571Y-91847200D01*
X107132571Y-91847200D02*
X107227809Y-91894819D01*
X107227809Y-91894819D02*
X107513523Y-91894819D01*
X107513523Y-91894819D02*
X107608761Y-91847200D01*
X107608761Y-91847200D02*
X107656380Y-91799580D01*
X135977094Y-103213819D02*
X135405666Y-103213819D01*
X135691380Y-104213819D02*
X135691380Y-103213819D01*
X135072332Y-104213819D02*
X135072332Y-103213819D01*
X135072332Y-103213819D02*
X134691380Y-103213819D01*
X134691380Y-103213819D02*
X134596142Y-103261438D01*
X134596142Y-103261438D02*
X134548523Y-103309057D01*
X134548523Y-103309057D02*
X134500904Y-103404295D01*
X134500904Y-103404295D02*
X134500904Y-103547152D01*
X134500904Y-103547152D02*
X134548523Y-103642390D01*
X134548523Y-103642390D02*
X134596142Y-103690009D01*
X134596142Y-103690009D02*
X134691380Y-103737628D01*
X134691380Y-103737628D02*
X135072332Y-103737628D01*
X133548523Y-104213819D02*
X134119951Y-104213819D01*
X133834237Y-104213819D02*
X133834237Y-103213819D01*
X133834237Y-103213819D02*
X133929475Y-103356676D01*
X133929475Y-103356676D02*
X134024713Y-103451914D01*
X134024713Y-103451914D02*
X134119951Y-103499533D01*
X133215189Y-103213819D02*
X132596142Y-103213819D01*
X132596142Y-103213819D02*
X132929475Y-103594771D01*
X132929475Y-103594771D02*
X132786618Y-103594771D01*
X132786618Y-103594771D02*
X132691380Y-103642390D01*
X132691380Y-103642390D02*
X132643761Y-103690009D01*
X132643761Y-103690009D02*
X132596142Y-103785247D01*
X132596142Y-103785247D02*
X132596142Y-104023342D01*
X132596142Y-104023342D02*
X132643761Y-104118580D01*
X132643761Y-104118580D02*
X132691380Y-104166200D01*
X132691380Y-104166200D02*
X132786618Y-104213819D01*
X132786618Y-104213819D02*
X133072332Y-104213819D01*
X133072332Y-104213819D02*
X133167570Y-104166200D01*
X133167570Y-104166200D02*
X133215189Y-104118580D01*
X128007904Y-104356819D02*
X127436476Y-104356819D01*
X127722190Y-105356819D02*
X127722190Y-104356819D01*
X127103142Y-105356819D02*
X127103142Y-104356819D01*
X127103142Y-104356819D02*
X126722190Y-104356819D01*
X126722190Y-104356819D02*
X126626952Y-104404438D01*
X126626952Y-104404438D02*
X126579333Y-104452057D01*
X126579333Y-104452057D02*
X126531714Y-104547295D01*
X126531714Y-104547295D02*
X126531714Y-104690152D01*
X126531714Y-104690152D02*
X126579333Y-104785390D01*
X126579333Y-104785390D02*
X126626952Y-104833009D01*
X126626952Y-104833009D02*
X126722190Y-104880628D01*
X126722190Y-104880628D02*
X127103142Y-104880628D01*
X125579333Y-105356819D02*
X126150761Y-105356819D01*
X125865047Y-105356819D02*
X125865047Y-104356819D01*
X125865047Y-104356819D02*
X125960285Y-104499676D01*
X125960285Y-104499676D02*
X126055523Y-104594914D01*
X126055523Y-104594914D02*
X126150761Y-104642533D01*
X123404094Y-89243819D02*
X122832666Y-89243819D01*
X123118380Y-90243819D02*
X123118380Y-89243819D01*
X122499332Y-90243819D02*
X122499332Y-89243819D01*
X122499332Y-89243819D02*
X122118380Y-89243819D01*
X122118380Y-89243819D02*
X122023142Y-89291438D01*
X122023142Y-89291438D02*
X121975523Y-89339057D01*
X121975523Y-89339057D02*
X121927904Y-89434295D01*
X121927904Y-89434295D02*
X121927904Y-89577152D01*
X121927904Y-89577152D02*
X121975523Y-89672390D01*
X121975523Y-89672390D02*
X122023142Y-89720009D01*
X122023142Y-89720009D02*
X122118380Y-89767628D01*
X122118380Y-89767628D02*
X122499332Y-89767628D01*
X120975523Y-90243819D02*
X121546951Y-90243819D01*
X121261237Y-90243819D02*
X121261237Y-89243819D01*
X121261237Y-89243819D02*
X121356475Y-89386676D01*
X121356475Y-89386676D02*
X121451713Y-89481914D01*
X121451713Y-89481914D02*
X121546951Y-89529533D01*
X120594570Y-89339057D02*
X120546951Y-89291438D01*
X120546951Y-89291438D02*
X120451713Y-89243819D01*
X120451713Y-89243819D02*
X120213618Y-89243819D01*
X120213618Y-89243819D02*
X120118380Y-89291438D01*
X120118380Y-89291438D02*
X120070761Y-89339057D01*
X120070761Y-89339057D02*
X120023142Y-89434295D01*
X120023142Y-89434295D02*
X120023142Y-89529533D01*
X120023142Y-89529533D02*
X120070761Y-89672390D01*
X120070761Y-89672390D02*
X120642189Y-90243819D01*
X120642189Y-90243819D02*
X120023142Y-90243819D01*
D16*
G04 #@! TO.C,TP4*
X111440000Y-95250000D02*
G75*
G02*
X109540000Y-95250000I-950000J0D01*
G01*
X109540000Y-95250000D02*
G75*
G02*
X111440000Y-95250000I950000J0D01*
G01*
G04 #@! TO.C,TP16*
X122743000Y-96901000D02*
G75*
G02*
X120843000Y-96901000I-950000J0D01*
G01*
X120843000Y-96901000D02*
G75*
G02*
X122743000Y-96901000I950000J0D01*
G01*
G04 #@! TO.C,TP15*
X135824000Y-94234000D02*
G75*
G02*
X133924000Y-94234000I-950000J0D01*
G01*
X133924000Y-94234000D02*
G75*
G02*
X135824000Y-94234000I950000J0D01*
G01*
G04 #@! TO.C,TP5*
X126172000Y-100330000D02*
G75*
G02*
X124272000Y-100330000I-950000J0D01*
G01*
X124272000Y-100330000D02*
G75*
G02*
X126172000Y-100330000I950000J0D01*
G01*
G04 #@! TO.C,TP11*
X132522000Y-100330000D02*
G75*
G02*
X130622000Y-100330000I-950000J0D01*
G01*
X130622000Y-100330000D02*
G75*
G02*
X132522000Y-100330000I950000J0D01*
G01*
G04 #@! TO.C,TP2*
X121854000Y-103378000D02*
G75*
G02*
X119954000Y-103378000I-950000J0D01*
G01*
X119954000Y-103378000D02*
G75*
G02*
X121854000Y-103378000I950000J0D01*
G01*
G04 #@! TO.C,TP14*
X126299000Y-91567000D02*
G75*
G02*
X124399000Y-91567000I-950000J0D01*
G01*
X124399000Y-91567000D02*
G75*
G02*
X126299000Y-91567000I950000J0D01*
G01*
G04 #@! TO.C,TP6*
X114996000Y-96774000D02*
G75*
G02*
X113096000Y-96774000I-950000J0D01*
G01*
X113096000Y-96774000D02*
G75*
G02*
X114996000Y-96774000I950000J0D01*
G01*
G04 #@! TO.C,TP3*
X109154000Y-89408000D02*
G75*
G02*
X107254000Y-89408000I-950000J0D01*
G01*
X107254000Y-89408000D02*
G75*
G02*
X109154000Y-89408000I950000J0D01*
G01*
G04 #@! TO.C,TP13*
X132014000Y-103632000D02*
G75*
G02*
X130114000Y-103632000I-950000J0D01*
G01*
X130114000Y-103632000D02*
G75*
G02*
X132014000Y-103632000I950000J0D01*
G01*
G04 #@! TO.C,TP1*
X127696000Y-106680000D02*
G75*
G02*
X125796000Y-106680000I-950000J0D01*
G01*
X125796000Y-106680000D02*
G75*
G02*
X127696000Y-106680000I950000J0D01*
G01*
G04 #@! TO.C,TP12*
X121854000Y-91694000D02*
G75*
G02*
X119954000Y-91694000I-950000J0D01*
G01*
X119954000Y-91694000D02*
G75*
G02*
X121854000Y-91694000I950000J0D01*
G01*
G04 #@! TD*
M02*
