G04 #@! TF.GenerationSoftware,KiCad,Pcbnew,7.0.5-0*
G04 #@! TF.CreationDate,2024-02-05T02:53:32-05:00*
G04 #@! TF.ProjectId,boostlet,626f6f73-746c-4657-942e-6b696361645f,rev?*
G04 #@! TF.SameCoordinates,Original*
G04 #@! TF.FileFunction,Paste,Top*
G04 #@! TF.FilePolarity,Positive*
%FSLAX46Y46*%
G04 Gerber Fmt 4.6, Leading zero omitted, Abs format (unit mm)*
G04 Created by KiCad (PCBNEW 7.0.5-0) date 2024-02-05 02:53:32*
%MOMM*%
%LPD*%
G01*
G04 APERTURE LIST*
G04 Aperture macros list*
%AMRoundRect*
0 Rectangle with rounded corners*
0 $1 Rounding radius*
0 $2 $3 $4 $5 $6 $7 $8 $9 X,Y pos of 4 corners*
0 Add a 4 corners polygon primitive as box body*
4,1,4,$2,$3,$4,$5,$6,$7,$8,$9,$2,$3,0*
0 Add four circle primitives for the rounded corners*
1,1,$1+$1,$2,$3*
1,1,$1+$1,$4,$5*
1,1,$1+$1,$6,$7*
1,1,$1+$1,$8,$9*
0 Add four rect primitives between the rounded corners*
20,1,$1+$1,$2,$3,$4,$5,0*
20,1,$1+$1,$4,$5,$6,$7,0*
20,1,$1+$1,$6,$7,$8,$9,0*
20,1,$1+$1,$8,$9,$2,$3,0*%
G04 Aperture macros list end*
%ADD10R,2.209800X4.064000*%
%ADD11RoundRect,0.150000X-0.150000X0.755500X-0.150000X-0.755500X0.150000X-0.755500X0.150000X0.755500X0*%
%ADD12R,0.381000X1.447800*%
%ADD13RoundRect,0.250000X-1.450000X0.400000X-1.450000X-0.400000X1.450000X-0.400000X1.450000X0.400000X0*%
%ADD14RoundRect,0.250000X-0.400000X-0.625000X0.400000X-0.625000X0.400000X0.625000X-0.400000X0.625000X0*%
%ADD15RoundRect,0.150000X0.150000X-0.587500X0.150000X0.587500X-0.150000X0.587500X-0.150000X-0.587500X0*%
%ADD16RoundRect,0.225000X-0.375000X0.225000X-0.375000X-0.225000X0.375000X-0.225000X0.375000X0.225000X0*%
%ADD17RoundRect,0.250000X-1.750000X-1.000000X1.750000X-1.000000X1.750000X1.000000X-1.750000X1.000000X0*%
%ADD18RoundRect,0.250000X0.625000X-0.400000X0.625000X0.400000X-0.625000X0.400000X-0.625000X-0.400000X0*%
%ADD19RoundRect,0.250000X-0.625000X0.400000X-0.625000X-0.400000X0.625000X-0.400000X0.625000X0.400000X0*%
%ADD20RoundRect,0.250000X0.650000X-0.412500X0.650000X0.412500X-0.650000X0.412500X-0.650000X-0.412500X0*%
%ADD21RoundRect,0.250000X0.400000X1.450000X-0.400000X1.450000X-0.400000X-1.450000X0.400000X-1.450000X0*%
%ADD22RoundRect,0.250000X-0.412500X-0.650000X0.412500X-0.650000X0.412500X0.650000X-0.412500X0.650000X0*%
%ADD23RoundRect,0.250000X0.412500X0.650000X-0.412500X0.650000X-0.412500X-0.650000X0.412500X-0.650000X0*%
%ADD24RoundRect,0.250000X1.000000X-1.750000X1.000000X1.750000X-1.000000X1.750000X-1.000000X-1.750000X0*%
G04 APERTURE END LIST*
D10*
G04 #@! TO.C,L1*
X109283500Y-83566000D03*
X112204500Y-83566000D03*
G04 #@! TD*
D11*
G04 #@! TO.C,U2*
X136012000Y-93621000D03*
X135062000Y-93621000D03*
X134112000Y-93621000D03*
X134112000Y-96382000D03*
X136012000Y-96382000D03*
G04 #@! TD*
D12*
G04 #@! TO.C,U1*
X117388640Y-85559900D03*
X118038880Y-85559900D03*
X118689120Y-85559900D03*
X119339360Y-85559900D03*
X119339360Y-90208100D03*
X118689120Y-90208100D03*
X118038880Y-90208100D03*
X117388640Y-90208100D03*
G04 #@! TD*
D13*
G04 #@! TO.C,F2*
X137287000Y-85659000D03*
X137287000Y-90109000D03*
G04 #@! TD*
D14*
G04 #@! TO.C,R11*
X130657000Y-85979000D03*
X133757000Y-85979000D03*
G04 #@! TD*
D15*
G04 #@! TO.C,Q3*
X131003000Y-90726500D03*
X132903000Y-90726500D03*
X131953000Y-88851500D03*
G04 #@! TD*
D16*
G04 #@! TO.C,D2*
X127635000Y-90423000D03*
X127635000Y-87123000D03*
G04 #@! TD*
D17*
G04 #@! TO.C,C1*
X131000000Y-103886000D03*
X123000000Y-103886000D03*
G04 #@! TD*
D18*
G04 #@! TO.C,R8*
X125857000Y-81508000D03*
X125857000Y-84608000D03*
G04 #@! TD*
D14*
G04 #@! TO.C,R3*
X112548000Y-94488000D03*
X109448000Y-94488000D03*
G04 #@! TD*
D18*
G04 #@! TO.C,R9*
X124460000Y-93065000D03*
X124460000Y-96165000D03*
G04 #@! TD*
D19*
G04 #@! TO.C,R7*
X123190000Y-81508000D03*
X123190000Y-84608000D03*
G04 #@! TD*
D14*
G04 #@! TO.C,R1*
X137948000Y-107696000D03*
X134848000Y-107696000D03*
G04 #@! TD*
D20*
G04 #@! TO.C,C6*
X141859000Y-91528500D03*
X141859000Y-94653500D03*
G04 #@! TD*
D15*
G04 #@! TO.C,Q1*
X136398000Y-102948500D03*
X137348000Y-104823500D03*
X135448000Y-104823500D03*
G04 #@! TD*
D21*
G04 #@! TO.C,F1*
X113223000Y-90678000D03*
X108773000Y-90678000D03*
G04 #@! TD*
D15*
G04 #@! TO.C,Q2*
X117856000Y-102440500D03*
X118806000Y-104315500D03*
X116906000Y-104315500D03*
G04 #@! TD*
D14*
G04 #@! TO.C,R2*
X137948000Y-99822000D03*
X134848000Y-99822000D03*
G04 #@! TD*
G04 #@! TO.C,R4*
X119914000Y-107696000D03*
X116814000Y-107696000D03*
G04 #@! TD*
D20*
G04 #@! TO.C,C8*
X138811000Y-92671500D03*
X138811000Y-95796500D03*
G04 #@! TD*
D14*
G04 #@! TO.C,R5*
X119914000Y-98806000D03*
X116814000Y-98806000D03*
G04 #@! TD*
D22*
G04 #@! TO.C,C5*
X119926500Y-82042000D03*
X116801500Y-82042000D03*
G04 #@! TD*
D19*
G04 #@! TO.C,R10*
X127635000Y-96165000D03*
X127635000Y-93065000D03*
G04 #@! TD*
D22*
G04 #@! TO.C,C7*
X131610500Y-81788000D03*
X128485500Y-81788000D03*
G04 #@! TD*
D23*
G04 #@! TO.C,C2*
X117309500Y-93980000D03*
X120434500Y-93980000D03*
G04 #@! TD*
D20*
G04 #@! TO.C,C3*
X130810000Y-93052500D03*
X130810000Y-96177500D03*
G04 #@! TD*
D19*
G04 #@! TO.C,R6*
X123190000Y-87350000D03*
X123190000Y-90450000D03*
G04 #@! TD*
D24*
G04 #@! TO.C,C4*
X109728000Y-108013000D03*
X109728000Y-100013000D03*
G04 #@! TD*
M02*
