G04 #@! TF.GenerationSoftware,KiCad,Pcbnew,7.0.5-0*
G04 #@! TF.CreationDate,2024-02-05T02:53:32-05:00*
G04 #@! TF.ProjectId,boostlet,626f6f73-746c-4657-942e-6b696361645f,rev?*
G04 #@! TF.SameCoordinates,Original*
G04 #@! TF.FileFunction,Legend,Top*
G04 #@! TF.FilePolarity,Positive*
%FSLAX46Y46*%
G04 Gerber Fmt 4.6, Leading zero omitted, Abs format (unit mm)*
G04 Created by KiCad (PCBNEW 7.0.5-0) date 2024-02-05 02:53:32*
%MOMM*%
%LPD*%
G01*
G04 APERTURE LIST*
%ADD10C,0.150000*%
%ADD11C,0.175000*%
%ADD12C,0.500000*%
%ADD13C,0.707905*%
%ADD14C,0.120000*%
%ADD15C,0.152400*%
G04 APERTURE END LIST*
D10*
X134620000Y-87122000D02*
X134874000Y-87249000D01*
X134366000Y-87249000D02*
X134620000Y-87122000D01*
X134620000Y-87122000D02*
X134366000Y-87249000D01*
X134620000Y-87503000D02*
X134620000Y-87122000D01*
D11*
X107333004Y-89516190D02*
X106533004Y-89782857D01*
X106533004Y-89782857D02*
X107333004Y-90049523D01*
X106456814Y-90125714D02*
X106456814Y-90735237D01*
X106952052Y-91192380D02*
X106913957Y-91306666D01*
X106913957Y-91306666D02*
X106875861Y-91344761D01*
X106875861Y-91344761D02*
X106799671Y-91382857D01*
X106799671Y-91382857D02*
X106685385Y-91382857D01*
X106685385Y-91382857D02*
X106609195Y-91344761D01*
X106609195Y-91344761D02*
X106571100Y-91306666D01*
X106571100Y-91306666D02*
X106533004Y-91230476D01*
X106533004Y-91230476D02*
X106533004Y-90925714D01*
X106533004Y-90925714D02*
X107333004Y-90925714D01*
X107333004Y-90925714D02*
X107333004Y-91192380D01*
X107333004Y-91192380D02*
X107294909Y-91268571D01*
X107294909Y-91268571D02*
X107256814Y-91306666D01*
X107256814Y-91306666D02*
X107180623Y-91344761D01*
X107180623Y-91344761D02*
X107104433Y-91344761D01*
X107104433Y-91344761D02*
X107028242Y-91306666D01*
X107028242Y-91306666D02*
X106990147Y-91268571D01*
X106990147Y-91268571D02*
X106952052Y-91192380D01*
X106952052Y-91192380D02*
X106952052Y-90925714D01*
X106761576Y-91687618D02*
X106761576Y-92068571D01*
X106533004Y-91611428D02*
X107333004Y-91878095D01*
X107333004Y-91878095D02*
X106533004Y-92144761D01*
X107333004Y-92297142D02*
X107333004Y-92754285D01*
X106533004Y-92525713D02*
X107333004Y-92525713D01*
X107333004Y-92906666D02*
X107333004Y-93363809D01*
X106533004Y-93135237D02*
X107333004Y-93135237D01*
D12*
X125603000Y-85979000D02*
X129413000Y-85979000D01*
X125603000Y-88138000D02*
X129413000Y-88138000D01*
D13*
X117066952Y-91694000D02*
G75*
G03*
X117066952Y-91694000I-353952J0D01*
G01*
X117955952Y-88519000D02*
G75*
G03*
X117955952Y-88519000I-353952J0D01*
G01*
D11*
X107206004Y-85547333D02*
X106406004Y-85814000D01*
X106406004Y-85814000D02*
X107206004Y-86080666D01*
X106482195Y-86804476D02*
X106444100Y-86766380D01*
X106444100Y-86766380D02*
X106406004Y-86652095D01*
X106406004Y-86652095D02*
X106406004Y-86575904D01*
X106406004Y-86575904D02*
X106444100Y-86461618D01*
X106444100Y-86461618D02*
X106520290Y-86385428D01*
X106520290Y-86385428D02*
X106596480Y-86347333D01*
X106596480Y-86347333D02*
X106748861Y-86309237D01*
X106748861Y-86309237D02*
X106863147Y-86309237D01*
X106863147Y-86309237D02*
X107015528Y-86347333D01*
X107015528Y-86347333D02*
X107091719Y-86385428D01*
X107091719Y-86385428D02*
X107167909Y-86461618D01*
X107167909Y-86461618D02*
X107206004Y-86575904D01*
X107206004Y-86575904D02*
X107206004Y-86652095D01*
X107206004Y-86652095D02*
X107167909Y-86766380D01*
X107167909Y-86766380D02*
X107129814Y-86804476D01*
X106482195Y-87604476D02*
X106444100Y-87566380D01*
X106444100Y-87566380D02*
X106406004Y-87452095D01*
X106406004Y-87452095D02*
X106406004Y-87375904D01*
X106406004Y-87375904D02*
X106444100Y-87261618D01*
X106444100Y-87261618D02*
X106520290Y-87185428D01*
X106520290Y-87185428D02*
X106596480Y-87147333D01*
X106596480Y-87147333D02*
X106748861Y-87109237D01*
X106748861Y-87109237D02*
X106863147Y-87109237D01*
X106863147Y-87109237D02*
X107015528Y-87147333D01*
X107015528Y-87147333D02*
X107091719Y-87185428D01*
X107091719Y-87185428D02*
X107167909Y-87261618D01*
X107167909Y-87261618D02*
X107206004Y-87375904D01*
X107206004Y-87375904D02*
X107206004Y-87452095D01*
X107206004Y-87452095D02*
X107167909Y-87566380D01*
X107167909Y-87566380D02*
X107129814Y-87604476D01*
D10*
X143125819Y-88817220D02*
X142125819Y-88817220D01*
X142506771Y-88817220D02*
X142459152Y-88721982D01*
X142459152Y-88721982D02*
X142459152Y-88531506D01*
X142459152Y-88531506D02*
X142506771Y-88436268D01*
X142506771Y-88436268D02*
X142554390Y-88388649D01*
X142554390Y-88388649D02*
X142649628Y-88341030D01*
X142649628Y-88341030D02*
X142935342Y-88341030D01*
X142935342Y-88341030D02*
X143030580Y-88388649D01*
X143030580Y-88388649D02*
X143078200Y-88436268D01*
X143078200Y-88436268D02*
X143125819Y-88531506D01*
X143125819Y-88531506D02*
X143125819Y-88721982D01*
X143125819Y-88721982D02*
X143078200Y-88817220D01*
X143125819Y-87769601D02*
X143078200Y-87864839D01*
X143078200Y-87864839D02*
X143030580Y-87912458D01*
X143030580Y-87912458D02*
X142935342Y-87960077D01*
X142935342Y-87960077D02*
X142649628Y-87960077D01*
X142649628Y-87960077D02*
X142554390Y-87912458D01*
X142554390Y-87912458D02*
X142506771Y-87864839D01*
X142506771Y-87864839D02*
X142459152Y-87769601D01*
X142459152Y-87769601D02*
X142459152Y-87626744D01*
X142459152Y-87626744D02*
X142506771Y-87531506D01*
X142506771Y-87531506D02*
X142554390Y-87483887D01*
X142554390Y-87483887D02*
X142649628Y-87436268D01*
X142649628Y-87436268D02*
X142935342Y-87436268D01*
X142935342Y-87436268D02*
X143030580Y-87483887D01*
X143030580Y-87483887D02*
X143078200Y-87531506D01*
X143078200Y-87531506D02*
X143125819Y-87626744D01*
X143125819Y-87626744D02*
X143125819Y-87769601D01*
X143125819Y-86864839D02*
X143078200Y-86960077D01*
X143078200Y-86960077D02*
X143030580Y-87007696D01*
X143030580Y-87007696D02*
X142935342Y-87055315D01*
X142935342Y-87055315D02*
X142649628Y-87055315D01*
X142649628Y-87055315D02*
X142554390Y-87007696D01*
X142554390Y-87007696D02*
X142506771Y-86960077D01*
X142506771Y-86960077D02*
X142459152Y-86864839D01*
X142459152Y-86864839D02*
X142459152Y-86721982D01*
X142459152Y-86721982D02*
X142506771Y-86626744D01*
X142506771Y-86626744D02*
X142554390Y-86579125D01*
X142554390Y-86579125D02*
X142649628Y-86531506D01*
X142649628Y-86531506D02*
X142935342Y-86531506D01*
X142935342Y-86531506D02*
X143030580Y-86579125D01*
X143030580Y-86579125D02*
X143078200Y-86626744D01*
X143078200Y-86626744D02*
X143125819Y-86721982D01*
X143125819Y-86721982D02*
X143125819Y-86864839D01*
X143078200Y-86150553D02*
X143125819Y-86055315D01*
X143125819Y-86055315D02*
X143125819Y-85864839D01*
X143125819Y-85864839D02*
X143078200Y-85769601D01*
X143078200Y-85769601D02*
X142982961Y-85721982D01*
X142982961Y-85721982D02*
X142935342Y-85721982D01*
X142935342Y-85721982D02*
X142840104Y-85769601D01*
X142840104Y-85769601D02*
X142792485Y-85864839D01*
X142792485Y-85864839D02*
X142792485Y-86007696D01*
X142792485Y-86007696D02*
X142744866Y-86102934D01*
X142744866Y-86102934D02*
X142649628Y-86150553D01*
X142649628Y-86150553D02*
X142602009Y-86150553D01*
X142602009Y-86150553D02*
X142506771Y-86102934D01*
X142506771Y-86102934D02*
X142459152Y-86007696D01*
X142459152Y-86007696D02*
X142459152Y-85864839D01*
X142459152Y-85864839D02*
X142506771Y-85769601D01*
X142459152Y-85436267D02*
X142459152Y-85055315D01*
X142125819Y-85293410D02*
X142982961Y-85293410D01*
X142982961Y-85293410D02*
X143078200Y-85245791D01*
X143078200Y-85245791D02*
X143125819Y-85150553D01*
X143125819Y-85150553D02*
X143125819Y-85055315D01*
X143125819Y-84579124D02*
X143078200Y-84674362D01*
X143078200Y-84674362D02*
X142982961Y-84721981D01*
X142982961Y-84721981D02*
X142125819Y-84721981D01*
X143078200Y-83817219D02*
X143125819Y-83912457D01*
X143125819Y-83912457D02*
X143125819Y-84102933D01*
X143125819Y-84102933D02*
X143078200Y-84198171D01*
X143078200Y-84198171D02*
X142982961Y-84245790D01*
X142982961Y-84245790D02*
X142602009Y-84245790D01*
X142602009Y-84245790D02*
X142506771Y-84198171D01*
X142506771Y-84198171D02*
X142459152Y-84102933D01*
X142459152Y-84102933D02*
X142459152Y-83912457D01*
X142459152Y-83912457D02*
X142506771Y-83817219D01*
X142506771Y-83817219D02*
X142602009Y-83769600D01*
X142602009Y-83769600D02*
X142697247Y-83769600D01*
X142697247Y-83769600D02*
X142792485Y-84245790D01*
X142459152Y-83483885D02*
X142459152Y-83102933D01*
X142125819Y-83341028D02*
X142982961Y-83341028D01*
X142982961Y-83341028D02*
X143078200Y-83293409D01*
X143078200Y-83293409D02*
X143125819Y-83198171D01*
X143125819Y-83198171D02*
X143125819Y-83102933D01*
X143030580Y-82769599D02*
X143078200Y-82721980D01*
X143078200Y-82721980D02*
X143125819Y-82769599D01*
X143125819Y-82769599D02*
X143078200Y-82817218D01*
X143078200Y-82817218D02*
X143030580Y-82769599D01*
X143030580Y-82769599D02*
X143125819Y-82769599D01*
X142744866Y-82769599D02*
X142173438Y-82817218D01*
X142173438Y-82817218D02*
X142125819Y-82769599D01*
X142125819Y-82769599D02*
X142173438Y-82721980D01*
X142173438Y-82721980D02*
X142744866Y-82769599D01*
X142744866Y-82769599D02*
X142125819Y-82769599D01*
D11*
X139300995Y-109918285D02*
X140100995Y-109651618D01*
X140100995Y-109651618D02*
X139300995Y-109384952D01*
X140177185Y-109308762D02*
X140177185Y-108699238D01*
X139300995Y-108356380D02*
X139300995Y-108203999D01*
X139300995Y-108203999D02*
X139339090Y-108127809D01*
X139339090Y-108127809D02*
X139415280Y-108051618D01*
X139415280Y-108051618D02*
X139567661Y-108013523D01*
X139567661Y-108013523D02*
X139834328Y-108013523D01*
X139834328Y-108013523D02*
X139986709Y-108051618D01*
X139986709Y-108051618D02*
X140062900Y-108127809D01*
X140062900Y-108127809D02*
X140100995Y-108203999D01*
X140100995Y-108203999D02*
X140100995Y-108356380D01*
X140100995Y-108356380D02*
X140062900Y-108432571D01*
X140062900Y-108432571D02*
X139986709Y-108508761D01*
X139986709Y-108508761D02*
X139834328Y-108546857D01*
X139834328Y-108546857D02*
X139567661Y-108546857D01*
X139567661Y-108546857D02*
X139415280Y-108508761D01*
X139415280Y-108508761D02*
X139339090Y-108432571D01*
X139339090Y-108432571D02*
X139300995Y-108356380D01*
X139300995Y-107670666D02*
X139948614Y-107670666D01*
X139948614Y-107670666D02*
X140024804Y-107632571D01*
X140024804Y-107632571D02*
X140062900Y-107594476D01*
X140062900Y-107594476D02*
X140100995Y-107518285D01*
X140100995Y-107518285D02*
X140100995Y-107365904D01*
X140100995Y-107365904D02*
X140062900Y-107289714D01*
X140062900Y-107289714D02*
X140024804Y-107251619D01*
X140024804Y-107251619D02*
X139948614Y-107213523D01*
X139948614Y-107213523D02*
X139300995Y-107213523D01*
X139300995Y-106946857D02*
X139300995Y-106489714D01*
X140100995Y-106718286D02*
X139300995Y-106718286D01*
X139300995Y-99904333D02*
X140100995Y-99637666D01*
X140100995Y-99637666D02*
X139300995Y-99371000D01*
X140177185Y-99294810D02*
X140177185Y-98685286D01*
X140100995Y-98037666D02*
X139720042Y-98304333D01*
X140100995Y-98494809D02*
X139300995Y-98494809D01*
X139300995Y-98494809D02*
X139300995Y-98190047D01*
X139300995Y-98190047D02*
X139339090Y-98113857D01*
X139339090Y-98113857D02*
X139377185Y-98075762D01*
X139377185Y-98075762D02*
X139453376Y-98037666D01*
X139453376Y-98037666D02*
X139567661Y-98037666D01*
X139567661Y-98037666D02*
X139643852Y-98075762D01*
X139643852Y-98075762D02*
X139681947Y-98113857D01*
X139681947Y-98113857D02*
X139720042Y-98190047D01*
X139720042Y-98190047D02*
X139720042Y-98494809D01*
X139681947Y-97694809D02*
X139681947Y-97428143D01*
X140100995Y-97313857D02*
X140100995Y-97694809D01*
X140100995Y-97694809D02*
X139300995Y-97694809D01*
X139300995Y-97694809D02*
X139300995Y-97313857D01*
X139339090Y-96551952D02*
X139300995Y-96628142D01*
X139300995Y-96628142D02*
X139300995Y-96742428D01*
X139300995Y-96742428D02*
X139339090Y-96856714D01*
X139339090Y-96856714D02*
X139415280Y-96932904D01*
X139415280Y-96932904D02*
X139491471Y-96970999D01*
X139491471Y-96970999D02*
X139643852Y-97009095D01*
X139643852Y-97009095D02*
X139758138Y-97009095D01*
X139758138Y-97009095D02*
X139910519Y-96970999D01*
X139910519Y-96970999D02*
X139986709Y-96932904D01*
X139986709Y-96932904D02*
X140062900Y-96856714D01*
X140062900Y-96856714D02*
X140100995Y-96742428D01*
X140100995Y-96742428D02*
X140100995Y-96666237D01*
X140100995Y-96666237D02*
X140062900Y-96551952D01*
X140062900Y-96551952D02*
X140024804Y-96513856D01*
X140024804Y-96513856D02*
X139758138Y-96513856D01*
X139758138Y-96513856D02*
X139758138Y-96666237D01*
X111182333Y-111398995D02*
X111182333Y-110598995D01*
X111182333Y-110598995D02*
X111639476Y-111398995D01*
X111639476Y-111398995D02*
X111639476Y-110598995D01*
X111829952Y-111475185D02*
X112439475Y-111475185D01*
X112629952Y-111398995D02*
X112629952Y-110865661D01*
X112629952Y-110598995D02*
X112591856Y-110637090D01*
X112591856Y-110637090D02*
X112629952Y-110675185D01*
X112629952Y-110675185D02*
X112668047Y-110637090D01*
X112668047Y-110637090D02*
X112629952Y-110598995D01*
X112629952Y-110598995D02*
X112629952Y-110675185D01*
X113010904Y-110865661D02*
X113010904Y-111398995D01*
X113010904Y-110941852D02*
X113048999Y-110903757D01*
X113048999Y-110903757D02*
X113125189Y-110865661D01*
X113125189Y-110865661D02*
X113239475Y-110865661D01*
X113239475Y-110865661D02*
X113315666Y-110903757D01*
X113315666Y-110903757D02*
X113353761Y-110979947D01*
X113353761Y-110979947D02*
X113353761Y-111398995D01*
X113696618Y-110675185D02*
X113734714Y-110637090D01*
X113734714Y-110637090D02*
X113810904Y-110598995D01*
X113810904Y-110598995D02*
X114001380Y-110598995D01*
X114001380Y-110598995D02*
X114077571Y-110637090D01*
X114077571Y-110637090D02*
X114115666Y-110675185D01*
X114115666Y-110675185D02*
X114153761Y-110751376D01*
X114153761Y-110751376D02*
X114153761Y-110827566D01*
X114153761Y-110827566D02*
X114115666Y-110941852D01*
X114115666Y-110941852D02*
X113658523Y-111398995D01*
X113658523Y-111398995D02*
X114153761Y-111398995D01*
X106756333Y-110725995D02*
X107023000Y-111525995D01*
X107023000Y-111525995D02*
X107289666Y-110725995D01*
X108013476Y-111449804D02*
X107975380Y-111487900D01*
X107975380Y-111487900D02*
X107861095Y-111525995D01*
X107861095Y-111525995D02*
X107784904Y-111525995D01*
X107784904Y-111525995D02*
X107670618Y-111487900D01*
X107670618Y-111487900D02*
X107594428Y-111411709D01*
X107594428Y-111411709D02*
X107556333Y-111335519D01*
X107556333Y-111335519D02*
X107518237Y-111183138D01*
X107518237Y-111183138D02*
X107518237Y-111068852D01*
X107518237Y-111068852D02*
X107556333Y-110916471D01*
X107556333Y-110916471D02*
X107594428Y-110840280D01*
X107594428Y-110840280D02*
X107670618Y-110764090D01*
X107670618Y-110764090D02*
X107784904Y-110725995D01*
X107784904Y-110725995D02*
X107861095Y-110725995D01*
X107861095Y-110725995D02*
X107975380Y-110764090D01*
X107975380Y-110764090D02*
X108013476Y-110802185D01*
X108813476Y-111449804D02*
X108775380Y-111487900D01*
X108775380Y-111487900D02*
X108661095Y-111525995D01*
X108661095Y-111525995D02*
X108584904Y-111525995D01*
X108584904Y-111525995D02*
X108470618Y-111487900D01*
X108470618Y-111487900D02*
X108394428Y-111411709D01*
X108394428Y-111411709D02*
X108356333Y-111335519D01*
X108356333Y-111335519D02*
X108318237Y-111183138D01*
X108318237Y-111183138D02*
X108318237Y-111068852D01*
X108318237Y-111068852D02*
X108356333Y-110916471D01*
X108356333Y-110916471D02*
X108394428Y-110840280D01*
X108394428Y-110840280D02*
X108470618Y-110764090D01*
X108470618Y-110764090D02*
X108584904Y-110725995D01*
X108584904Y-110725995D02*
X108661095Y-110725995D01*
X108661095Y-110725995D02*
X108775380Y-110764090D01*
X108775380Y-110764090D02*
X108813476Y-110802185D01*
X122174094Y-109691947D02*
X122288380Y-109730042D01*
X122288380Y-109730042D02*
X122326475Y-109768138D01*
X122326475Y-109768138D02*
X122364571Y-109844328D01*
X122364571Y-109844328D02*
X122364571Y-109958614D01*
X122364571Y-109958614D02*
X122326475Y-110034804D01*
X122326475Y-110034804D02*
X122288380Y-110072900D01*
X122288380Y-110072900D02*
X122212190Y-110110995D01*
X122212190Y-110110995D02*
X121907428Y-110110995D01*
X121907428Y-110110995D02*
X121907428Y-109310995D01*
X121907428Y-109310995D02*
X122174094Y-109310995D01*
X122174094Y-109310995D02*
X122250285Y-109349090D01*
X122250285Y-109349090D02*
X122288380Y-109387185D01*
X122288380Y-109387185D02*
X122326475Y-109463376D01*
X122326475Y-109463376D02*
X122326475Y-109539566D01*
X122326475Y-109539566D02*
X122288380Y-109615757D01*
X122288380Y-109615757D02*
X122250285Y-109653852D01*
X122250285Y-109653852D02*
X122174094Y-109691947D01*
X122174094Y-109691947D02*
X121907428Y-109691947D01*
X123050285Y-110110995D02*
X123050285Y-109691947D01*
X123050285Y-109691947D02*
X123012190Y-109615757D01*
X123012190Y-109615757D02*
X122935999Y-109577661D01*
X122935999Y-109577661D02*
X122783618Y-109577661D01*
X122783618Y-109577661D02*
X122707428Y-109615757D01*
X123050285Y-110072900D02*
X122974094Y-110110995D01*
X122974094Y-110110995D02*
X122783618Y-110110995D01*
X122783618Y-110110995D02*
X122707428Y-110072900D01*
X122707428Y-110072900D02*
X122669332Y-109996709D01*
X122669332Y-109996709D02*
X122669332Y-109920519D01*
X122669332Y-109920519D02*
X122707428Y-109844328D01*
X122707428Y-109844328D02*
X122783618Y-109806233D01*
X122783618Y-109806233D02*
X122974094Y-109806233D01*
X122974094Y-109806233D02*
X123050285Y-109768138D01*
X123316952Y-109577661D02*
X123621714Y-109577661D01*
X123431238Y-109310995D02*
X123431238Y-109996709D01*
X123431238Y-109996709D02*
X123469333Y-110072900D01*
X123469333Y-110072900D02*
X123545523Y-110110995D01*
X123545523Y-110110995D02*
X123621714Y-110110995D01*
X123774095Y-109577661D02*
X124078857Y-109577661D01*
X123888381Y-109310995D02*
X123888381Y-109996709D01*
X123888381Y-109996709D02*
X123926476Y-110072900D01*
X123926476Y-110072900D02*
X124002666Y-110110995D01*
X124002666Y-110110995D02*
X124078857Y-110110995D01*
X122155047Y-111360900D02*
X122269333Y-111398995D01*
X122269333Y-111398995D02*
X122459809Y-111398995D01*
X122459809Y-111398995D02*
X122536000Y-111360900D01*
X122536000Y-111360900D02*
X122574095Y-111322804D01*
X122574095Y-111322804D02*
X122612190Y-111246614D01*
X122612190Y-111246614D02*
X122612190Y-111170423D01*
X122612190Y-111170423D02*
X122574095Y-111094233D01*
X122574095Y-111094233D02*
X122536000Y-111056138D01*
X122536000Y-111056138D02*
X122459809Y-111018042D01*
X122459809Y-111018042D02*
X122307428Y-110979947D01*
X122307428Y-110979947D02*
X122231238Y-110941852D01*
X122231238Y-110941852D02*
X122193143Y-110903757D01*
X122193143Y-110903757D02*
X122155047Y-110827566D01*
X122155047Y-110827566D02*
X122155047Y-110751376D01*
X122155047Y-110751376D02*
X122193143Y-110675185D01*
X122193143Y-110675185D02*
X122231238Y-110637090D01*
X122231238Y-110637090D02*
X122307428Y-110598995D01*
X122307428Y-110598995D02*
X122497905Y-110598995D01*
X122497905Y-110598995D02*
X122612190Y-110637090D01*
X122955048Y-111398995D02*
X122955048Y-110865661D01*
X122955048Y-110598995D02*
X122916952Y-110637090D01*
X122916952Y-110637090D02*
X122955048Y-110675185D01*
X122955048Y-110675185D02*
X122993143Y-110637090D01*
X122993143Y-110637090D02*
X122955048Y-110598995D01*
X122955048Y-110598995D02*
X122955048Y-110675185D01*
X123678857Y-110865661D02*
X123678857Y-111513280D01*
X123678857Y-111513280D02*
X123640762Y-111589471D01*
X123640762Y-111589471D02*
X123602666Y-111627566D01*
X123602666Y-111627566D02*
X123526476Y-111665661D01*
X123526476Y-111665661D02*
X123412190Y-111665661D01*
X123412190Y-111665661D02*
X123336000Y-111627566D01*
X123678857Y-111360900D02*
X123602666Y-111398995D01*
X123602666Y-111398995D02*
X123450285Y-111398995D01*
X123450285Y-111398995D02*
X123374095Y-111360900D01*
X123374095Y-111360900D02*
X123336000Y-111322804D01*
X123336000Y-111322804D02*
X123297904Y-111246614D01*
X123297904Y-111246614D02*
X123297904Y-111018042D01*
X123297904Y-111018042D02*
X123336000Y-110941852D01*
X123336000Y-110941852D02*
X123374095Y-110903757D01*
X123374095Y-110903757D02*
X123450285Y-110865661D01*
X123450285Y-110865661D02*
X123602666Y-110865661D01*
X123602666Y-110865661D02*
X123678857Y-110903757D01*
X137566476Y-110637090D02*
X137490286Y-110598995D01*
X137490286Y-110598995D02*
X137376000Y-110598995D01*
X137376000Y-110598995D02*
X137261714Y-110637090D01*
X137261714Y-110637090D02*
X137185524Y-110713280D01*
X137185524Y-110713280D02*
X137147429Y-110789471D01*
X137147429Y-110789471D02*
X137109333Y-110941852D01*
X137109333Y-110941852D02*
X137109333Y-111056138D01*
X137109333Y-111056138D02*
X137147429Y-111208519D01*
X137147429Y-111208519D02*
X137185524Y-111284709D01*
X137185524Y-111284709D02*
X137261714Y-111360900D01*
X137261714Y-111360900D02*
X137376000Y-111398995D01*
X137376000Y-111398995D02*
X137452191Y-111398995D01*
X137452191Y-111398995D02*
X137566476Y-111360900D01*
X137566476Y-111360900D02*
X137604572Y-111322804D01*
X137604572Y-111322804D02*
X137604572Y-111056138D01*
X137604572Y-111056138D02*
X137452191Y-111056138D01*
X137947429Y-111398995D02*
X137947429Y-110598995D01*
X137947429Y-110598995D02*
X138404572Y-111398995D01*
X138404572Y-111398995D02*
X138404572Y-110598995D01*
X138785524Y-111398995D02*
X138785524Y-110598995D01*
X138785524Y-110598995D02*
X138976000Y-110598995D01*
X138976000Y-110598995D02*
X139090286Y-110637090D01*
X139090286Y-110637090D02*
X139166476Y-110713280D01*
X139166476Y-110713280D02*
X139204571Y-110789471D01*
X139204571Y-110789471D02*
X139242667Y-110941852D01*
X139242667Y-110941852D02*
X139242667Y-111056138D01*
X139242667Y-111056138D02*
X139204571Y-111208519D01*
X139204571Y-111208519D02*
X139166476Y-111284709D01*
X139166476Y-111284709D02*
X139090286Y-111360900D01*
X139090286Y-111360900D02*
X138976000Y-111398995D01*
X138976000Y-111398995D02*
X138785524Y-111398995D01*
X131483333Y-111398995D02*
X131483333Y-110598995D01*
X131483333Y-110598995D02*
X131940476Y-111398995D01*
X131940476Y-111398995D02*
X131940476Y-110598995D01*
X132130952Y-111475185D02*
X132740475Y-111475185D01*
X133045237Y-111398995D02*
X132969047Y-111360900D01*
X132969047Y-111360900D02*
X132930952Y-111322804D01*
X132930952Y-111322804D02*
X132892856Y-111246614D01*
X132892856Y-111246614D02*
X132892856Y-111018042D01*
X132892856Y-111018042D02*
X132930952Y-110941852D01*
X132930952Y-110941852D02*
X132969047Y-110903757D01*
X132969047Y-110903757D02*
X133045237Y-110865661D01*
X133045237Y-110865661D02*
X133159523Y-110865661D01*
X133159523Y-110865661D02*
X133235714Y-110903757D01*
X133235714Y-110903757D02*
X133273809Y-110941852D01*
X133273809Y-110941852D02*
X133311904Y-111018042D01*
X133311904Y-111018042D02*
X133311904Y-111246614D01*
X133311904Y-111246614D02*
X133273809Y-111322804D01*
X133273809Y-111322804D02*
X133235714Y-111360900D01*
X133235714Y-111360900D02*
X133159523Y-111398995D01*
X133159523Y-111398995D02*
X133045237Y-111398995D01*
X133997619Y-110865661D02*
X133997619Y-111398995D01*
X133654762Y-110865661D02*
X133654762Y-111284709D01*
X133654762Y-111284709D02*
X133692857Y-111360900D01*
X133692857Y-111360900D02*
X133769047Y-111398995D01*
X133769047Y-111398995D02*
X133883333Y-111398995D01*
X133883333Y-111398995D02*
X133959524Y-111360900D01*
X133959524Y-111360900D02*
X133997619Y-111322804D01*
X134264286Y-110865661D02*
X134569048Y-110865661D01*
X134378572Y-110598995D02*
X134378572Y-111284709D01*
X134378572Y-111284709D02*
X134416667Y-111360900D01*
X134416667Y-111360900D02*
X134492857Y-111398995D01*
X134492857Y-111398995D02*
X134569048Y-111398995D01*
X135254762Y-111398995D02*
X134797619Y-111398995D01*
X135026191Y-111398995D02*
X135026191Y-110598995D01*
X135026191Y-110598995D02*
X134950000Y-110713280D01*
X134950000Y-110713280D02*
X134873810Y-110789471D01*
X134873810Y-110789471D02*
X134797619Y-110827566D01*
X139339090Y-103733523D02*
X139300995Y-103809713D01*
X139300995Y-103809713D02*
X139300995Y-103923999D01*
X139300995Y-103923999D02*
X139339090Y-104038285D01*
X139339090Y-104038285D02*
X139415280Y-104114475D01*
X139415280Y-104114475D02*
X139491471Y-104152570D01*
X139491471Y-104152570D02*
X139643852Y-104190666D01*
X139643852Y-104190666D02*
X139758138Y-104190666D01*
X139758138Y-104190666D02*
X139910519Y-104152570D01*
X139910519Y-104152570D02*
X139986709Y-104114475D01*
X139986709Y-104114475D02*
X140062900Y-104038285D01*
X140062900Y-104038285D02*
X140100995Y-103923999D01*
X140100995Y-103923999D02*
X140100995Y-103847808D01*
X140100995Y-103847808D02*
X140062900Y-103733523D01*
X140062900Y-103733523D02*
X140024804Y-103695427D01*
X140024804Y-103695427D02*
X139758138Y-103695427D01*
X139758138Y-103695427D02*
X139758138Y-103847808D01*
X140100995Y-103352570D02*
X139300995Y-103352570D01*
X139300995Y-103352570D02*
X140100995Y-102895427D01*
X140100995Y-102895427D02*
X139300995Y-102895427D01*
X140100995Y-102514475D02*
X139300995Y-102514475D01*
X139300995Y-102514475D02*
X139300995Y-102323999D01*
X139300995Y-102323999D02*
X139339090Y-102209713D01*
X139339090Y-102209713D02*
X139415280Y-102133523D01*
X139415280Y-102133523D02*
X139491471Y-102095428D01*
X139491471Y-102095428D02*
X139643852Y-102057332D01*
X139643852Y-102057332D02*
X139758138Y-102057332D01*
X139758138Y-102057332D02*
X139910519Y-102095428D01*
X139910519Y-102095428D02*
X139986709Y-102133523D01*
X139986709Y-102133523D02*
X140062900Y-102209713D01*
X140062900Y-102209713D02*
X140100995Y-102323999D01*
X140100995Y-102323999D02*
X140100995Y-102514475D01*
X107206004Y-80143571D02*
X106406004Y-80410238D01*
X106406004Y-80410238D02*
X107206004Y-80676904D01*
X106329814Y-80753095D02*
X106329814Y-81362618D01*
X106825052Y-81819761D02*
X106786957Y-81934047D01*
X106786957Y-81934047D02*
X106748861Y-81972142D01*
X106748861Y-81972142D02*
X106672671Y-82010238D01*
X106672671Y-82010238D02*
X106558385Y-82010238D01*
X106558385Y-82010238D02*
X106482195Y-81972142D01*
X106482195Y-81972142D02*
X106444100Y-81934047D01*
X106444100Y-81934047D02*
X106406004Y-81857857D01*
X106406004Y-81857857D02*
X106406004Y-81553095D01*
X106406004Y-81553095D02*
X107206004Y-81553095D01*
X107206004Y-81553095D02*
X107206004Y-81819761D01*
X107206004Y-81819761D02*
X107167909Y-81895952D01*
X107167909Y-81895952D02*
X107129814Y-81934047D01*
X107129814Y-81934047D02*
X107053623Y-81972142D01*
X107053623Y-81972142D02*
X106977433Y-81972142D01*
X106977433Y-81972142D02*
X106901242Y-81934047D01*
X106901242Y-81934047D02*
X106863147Y-81895952D01*
X106863147Y-81895952D02*
X106825052Y-81819761D01*
X106825052Y-81819761D02*
X106825052Y-81553095D01*
X107206004Y-82353095D02*
X106558385Y-82353095D01*
X106558385Y-82353095D02*
X106482195Y-82391190D01*
X106482195Y-82391190D02*
X106444100Y-82429285D01*
X106444100Y-82429285D02*
X106406004Y-82505476D01*
X106406004Y-82505476D02*
X106406004Y-82657857D01*
X106406004Y-82657857D02*
X106444100Y-82734047D01*
X106444100Y-82734047D02*
X106482195Y-82772142D01*
X106482195Y-82772142D02*
X106558385Y-82810238D01*
X106558385Y-82810238D02*
X107206004Y-82810238D01*
X106444100Y-83153094D02*
X106406004Y-83267380D01*
X106406004Y-83267380D02*
X106406004Y-83457856D01*
X106406004Y-83457856D02*
X106444100Y-83534047D01*
X106444100Y-83534047D02*
X106482195Y-83572142D01*
X106482195Y-83572142D02*
X106558385Y-83610237D01*
X106558385Y-83610237D02*
X106634576Y-83610237D01*
X106634576Y-83610237D02*
X106710766Y-83572142D01*
X106710766Y-83572142D02*
X106748861Y-83534047D01*
X106748861Y-83534047D02*
X106786957Y-83457856D01*
X106786957Y-83457856D02*
X106825052Y-83305475D01*
X106825052Y-83305475D02*
X106863147Y-83229285D01*
X106863147Y-83229285D02*
X106901242Y-83191190D01*
X106901242Y-83191190D02*
X106977433Y-83153094D01*
X106977433Y-83153094D02*
X107053623Y-83153094D01*
X107053623Y-83153094D02*
X107129814Y-83191190D01*
X107129814Y-83191190D02*
X107167909Y-83229285D01*
X107167909Y-83229285D02*
X107206004Y-83305475D01*
X107206004Y-83305475D02*
X107206004Y-83495952D01*
X107206004Y-83495952D02*
X107167909Y-83610237D01*
X126549333Y-111398995D02*
X126549333Y-110598995D01*
X126549333Y-110598995D02*
X127006476Y-111398995D01*
X127006476Y-111398995D02*
X127006476Y-110598995D01*
X127196952Y-111475185D02*
X127806475Y-111475185D01*
X127996952Y-111398995D02*
X127996952Y-110865661D01*
X127996952Y-110598995D02*
X127958856Y-110637090D01*
X127958856Y-110637090D02*
X127996952Y-110675185D01*
X127996952Y-110675185D02*
X128035047Y-110637090D01*
X128035047Y-110637090D02*
X127996952Y-110598995D01*
X127996952Y-110598995D02*
X127996952Y-110675185D01*
X128377904Y-110865661D02*
X128377904Y-111398995D01*
X128377904Y-110941852D02*
X128415999Y-110903757D01*
X128415999Y-110903757D02*
X128492189Y-110865661D01*
X128492189Y-110865661D02*
X128606475Y-110865661D01*
X128606475Y-110865661D02*
X128682666Y-110903757D01*
X128682666Y-110903757D02*
X128720761Y-110979947D01*
X128720761Y-110979947D02*
X128720761Y-111398995D01*
X129520761Y-111398995D02*
X129063618Y-111398995D01*
X129292190Y-111398995D02*
X129292190Y-110598995D01*
X129292190Y-110598995D02*
X129215999Y-110713280D01*
X129215999Y-110713280D02*
X129139809Y-110789471D01*
X129139809Y-110789471D02*
X129063618Y-110827566D01*
X107294909Y-96037476D02*
X107333004Y-95961286D01*
X107333004Y-95961286D02*
X107333004Y-95847000D01*
X107333004Y-95847000D02*
X107294909Y-95732714D01*
X107294909Y-95732714D02*
X107218719Y-95656524D01*
X107218719Y-95656524D02*
X107142528Y-95618429D01*
X107142528Y-95618429D02*
X106990147Y-95580333D01*
X106990147Y-95580333D02*
X106875861Y-95580333D01*
X106875861Y-95580333D02*
X106723480Y-95618429D01*
X106723480Y-95618429D02*
X106647290Y-95656524D01*
X106647290Y-95656524D02*
X106571100Y-95732714D01*
X106571100Y-95732714D02*
X106533004Y-95847000D01*
X106533004Y-95847000D02*
X106533004Y-95923191D01*
X106533004Y-95923191D02*
X106571100Y-96037476D01*
X106571100Y-96037476D02*
X106609195Y-96075572D01*
X106609195Y-96075572D02*
X106875861Y-96075572D01*
X106875861Y-96075572D02*
X106875861Y-95923191D01*
X106533004Y-96418429D02*
X107333004Y-96418429D01*
X107333004Y-96418429D02*
X106533004Y-96875572D01*
X106533004Y-96875572D02*
X107333004Y-96875572D01*
X106533004Y-97256524D02*
X107333004Y-97256524D01*
X107333004Y-97256524D02*
X107333004Y-97447000D01*
X107333004Y-97447000D02*
X107294909Y-97561286D01*
X107294909Y-97561286D02*
X107218719Y-97637476D01*
X107218719Y-97637476D02*
X107142528Y-97675571D01*
X107142528Y-97675571D02*
X106990147Y-97713667D01*
X106990147Y-97713667D02*
X106875861Y-97713667D01*
X106875861Y-97713667D02*
X106723480Y-97675571D01*
X106723480Y-97675571D02*
X106647290Y-97637476D01*
X106647290Y-97637476D02*
X106571100Y-97561286D01*
X106571100Y-97561286D02*
X106533004Y-97447000D01*
X106533004Y-97447000D02*
X106533004Y-97256524D01*
X116116333Y-111398995D02*
X116116333Y-110598995D01*
X116116333Y-110598995D02*
X116573476Y-111398995D01*
X116573476Y-111398995D02*
X116573476Y-110598995D01*
X116763952Y-111475185D02*
X117373475Y-111475185D01*
X117678237Y-111398995D02*
X117602047Y-111360900D01*
X117602047Y-111360900D02*
X117563952Y-111322804D01*
X117563952Y-111322804D02*
X117525856Y-111246614D01*
X117525856Y-111246614D02*
X117525856Y-111018042D01*
X117525856Y-111018042D02*
X117563952Y-110941852D01*
X117563952Y-110941852D02*
X117602047Y-110903757D01*
X117602047Y-110903757D02*
X117678237Y-110865661D01*
X117678237Y-110865661D02*
X117792523Y-110865661D01*
X117792523Y-110865661D02*
X117868714Y-110903757D01*
X117868714Y-110903757D02*
X117906809Y-110941852D01*
X117906809Y-110941852D02*
X117944904Y-111018042D01*
X117944904Y-111018042D02*
X117944904Y-111246614D01*
X117944904Y-111246614D02*
X117906809Y-111322804D01*
X117906809Y-111322804D02*
X117868714Y-111360900D01*
X117868714Y-111360900D02*
X117792523Y-111398995D01*
X117792523Y-111398995D02*
X117678237Y-111398995D01*
X118630619Y-110865661D02*
X118630619Y-111398995D01*
X118287762Y-110865661D02*
X118287762Y-111284709D01*
X118287762Y-111284709D02*
X118325857Y-111360900D01*
X118325857Y-111360900D02*
X118402047Y-111398995D01*
X118402047Y-111398995D02*
X118516333Y-111398995D01*
X118516333Y-111398995D02*
X118592524Y-111360900D01*
X118592524Y-111360900D02*
X118630619Y-111322804D01*
X118897286Y-110865661D02*
X119202048Y-110865661D01*
X119011572Y-110598995D02*
X119011572Y-111284709D01*
X119011572Y-111284709D02*
X119049667Y-111360900D01*
X119049667Y-111360900D02*
X119125857Y-111398995D01*
X119125857Y-111398995D02*
X119202048Y-111398995D01*
X119430619Y-110675185D02*
X119468715Y-110637090D01*
X119468715Y-110637090D02*
X119544905Y-110598995D01*
X119544905Y-110598995D02*
X119735381Y-110598995D01*
X119735381Y-110598995D02*
X119811572Y-110637090D01*
X119811572Y-110637090D02*
X119849667Y-110675185D01*
X119849667Y-110675185D02*
X119887762Y-110751376D01*
X119887762Y-110751376D02*
X119887762Y-110827566D01*
X119887762Y-110827566D02*
X119849667Y-110941852D01*
X119849667Y-110941852D02*
X119392524Y-111398995D01*
X119392524Y-111398995D02*
X119887762Y-111398995D01*
D10*
G04 #@! TO.C,J1*
X105076666Y-112738819D02*
X105076666Y-113453104D01*
X105076666Y-113453104D02*
X105029047Y-113595961D01*
X105029047Y-113595961D02*
X104933809Y-113691200D01*
X104933809Y-113691200D02*
X104790952Y-113738819D01*
X104790952Y-113738819D02*
X104695714Y-113738819D01*
X106076666Y-113738819D02*
X105505238Y-113738819D01*
X105790952Y-113738819D02*
X105790952Y-112738819D01*
X105790952Y-112738819D02*
X105695714Y-112881676D01*
X105695714Y-112881676D02*
X105600476Y-112976914D01*
X105600476Y-112976914D02*
X105505238Y-113024533D01*
G04 #@! TO.C,L1*
X114226180Y-82129333D02*
X114226180Y-81653143D01*
X114226180Y-81653143D02*
X115226180Y-81653143D01*
X114226180Y-82986476D02*
X114226180Y-82415048D01*
X114226180Y-82700762D02*
X115226180Y-82700762D01*
X115226180Y-82700762D02*
X115083323Y-82605524D01*
X115083323Y-82605524D02*
X114988085Y-82510286D01*
X114988085Y-82510286D02*
X114940466Y-82415048D01*
G04 #@! TO.C,J3*
X141271666Y-109944819D02*
X141271666Y-110659104D01*
X141271666Y-110659104D02*
X141224047Y-110801961D01*
X141224047Y-110801961D02*
X141128809Y-110897200D01*
X141128809Y-110897200D02*
X140985952Y-110944819D01*
X140985952Y-110944819D02*
X140890714Y-110944819D01*
X141652619Y-109944819D02*
X142271666Y-109944819D01*
X142271666Y-109944819D02*
X141938333Y-110325771D01*
X141938333Y-110325771D02*
X142081190Y-110325771D01*
X142081190Y-110325771D02*
X142176428Y-110373390D01*
X142176428Y-110373390D02*
X142224047Y-110421009D01*
X142224047Y-110421009D02*
X142271666Y-110516247D01*
X142271666Y-110516247D02*
X142271666Y-110754342D01*
X142271666Y-110754342D02*
X142224047Y-110849580D01*
X142224047Y-110849580D02*
X142176428Y-110897200D01*
X142176428Y-110897200D02*
X142081190Y-110944819D01*
X142081190Y-110944819D02*
X141795476Y-110944819D01*
X141795476Y-110944819D02*
X141700238Y-110897200D01*
X141700238Y-110897200D02*
X141652619Y-110849580D01*
G04 #@! TO.C,JP4*
X140009666Y-84544819D02*
X140009666Y-85259104D01*
X140009666Y-85259104D02*
X139962047Y-85401961D01*
X139962047Y-85401961D02*
X139866809Y-85497200D01*
X139866809Y-85497200D02*
X139723952Y-85544819D01*
X139723952Y-85544819D02*
X139628714Y-85544819D01*
X140485857Y-85544819D02*
X140485857Y-84544819D01*
X140485857Y-84544819D02*
X140866809Y-84544819D01*
X140866809Y-84544819D02*
X140962047Y-84592438D01*
X140962047Y-84592438D02*
X141009666Y-84640057D01*
X141009666Y-84640057D02*
X141057285Y-84735295D01*
X141057285Y-84735295D02*
X141057285Y-84878152D01*
X141057285Y-84878152D02*
X141009666Y-84973390D01*
X141009666Y-84973390D02*
X140962047Y-85021009D01*
X140962047Y-85021009D02*
X140866809Y-85068628D01*
X140866809Y-85068628D02*
X140485857Y-85068628D01*
X141914428Y-84878152D02*
X141914428Y-85544819D01*
X141676333Y-84497200D02*
X141438238Y-85211485D01*
X141438238Y-85211485D02*
X142057285Y-85211485D01*
G04 #@! TO.C,U2*
X132230819Y-95763404D02*
X133040342Y-95763404D01*
X133040342Y-95763404D02*
X133135580Y-95715785D01*
X133135580Y-95715785D02*
X133183200Y-95668166D01*
X133183200Y-95668166D02*
X133230819Y-95572928D01*
X133230819Y-95572928D02*
X133230819Y-95382452D01*
X133230819Y-95382452D02*
X133183200Y-95287214D01*
X133183200Y-95287214D02*
X133135580Y-95239595D01*
X133135580Y-95239595D02*
X133040342Y-95191976D01*
X133040342Y-95191976D02*
X132230819Y-95191976D01*
X132326057Y-94763404D02*
X132278438Y-94715785D01*
X132278438Y-94715785D02*
X132230819Y-94620547D01*
X132230819Y-94620547D02*
X132230819Y-94382452D01*
X132230819Y-94382452D02*
X132278438Y-94287214D01*
X132278438Y-94287214D02*
X132326057Y-94239595D01*
X132326057Y-94239595D02*
X132421295Y-94191976D01*
X132421295Y-94191976D02*
X132516533Y-94191976D01*
X132516533Y-94191976D02*
X132659390Y-94239595D01*
X132659390Y-94239595D02*
X133230819Y-94811023D01*
X133230819Y-94811023D02*
X133230819Y-94191976D01*
G04 #@! TO.C,U1*
X115278819Y-89407904D02*
X116088342Y-89407904D01*
X116088342Y-89407904D02*
X116183580Y-89360285D01*
X116183580Y-89360285D02*
X116231200Y-89312666D01*
X116231200Y-89312666D02*
X116278819Y-89217428D01*
X116278819Y-89217428D02*
X116278819Y-89026952D01*
X116278819Y-89026952D02*
X116231200Y-88931714D01*
X116231200Y-88931714D02*
X116183580Y-88884095D01*
X116183580Y-88884095D02*
X116088342Y-88836476D01*
X116088342Y-88836476D02*
X115278819Y-88836476D01*
X116278819Y-87836476D02*
X116278819Y-88407904D01*
X116278819Y-88122190D02*
X115278819Y-88122190D01*
X115278819Y-88122190D02*
X115421676Y-88217428D01*
X115421676Y-88217428D02*
X115516914Y-88312666D01*
X115516914Y-88312666D02*
X115564533Y-88407904D01*
G04 #@! TO.C,F2*
X139885009Y-90249333D02*
X139885009Y-90582666D01*
X140408819Y-90582666D02*
X139408819Y-90582666D01*
X139408819Y-90582666D02*
X139408819Y-90106476D01*
X139504057Y-89773142D02*
X139456438Y-89725523D01*
X139456438Y-89725523D02*
X139408819Y-89630285D01*
X139408819Y-89630285D02*
X139408819Y-89392190D01*
X139408819Y-89392190D02*
X139456438Y-89296952D01*
X139456438Y-89296952D02*
X139504057Y-89249333D01*
X139504057Y-89249333D02*
X139599295Y-89201714D01*
X139599295Y-89201714D02*
X139694533Y-89201714D01*
X139694533Y-89201714D02*
X139837390Y-89249333D01*
X139837390Y-89249333D02*
X140408819Y-89820761D01*
X140408819Y-89820761D02*
X140408819Y-89201714D01*
G04 #@! TO.C,J2*
X103213819Y-99774333D02*
X103928104Y-99774333D01*
X103928104Y-99774333D02*
X104070961Y-99821952D01*
X104070961Y-99821952D02*
X104166200Y-99917190D01*
X104166200Y-99917190D02*
X104213819Y-100060047D01*
X104213819Y-100060047D02*
X104213819Y-100155285D01*
X103309057Y-99345761D02*
X103261438Y-99298142D01*
X103261438Y-99298142D02*
X103213819Y-99202904D01*
X103213819Y-99202904D02*
X103213819Y-98964809D01*
X103213819Y-98964809D02*
X103261438Y-98869571D01*
X103261438Y-98869571D02*
X103309057Y-98821952D01*
X103309057Y-98821952D02*
X103404295Y-98774333D01*
X103404295Y-98774333D02*
X103499533Y-98774333D01*
X103499533Y-98774333D02*
X103642390Y-98821952D01*
X103642390Y-98821952D02*
X104213819Y-99393380D01*
X104213819Y-99393380D02*
X104213819Y-98774333D01*
G04 #@! TO.C,R11*
X135201819Y-89542857D02*
X134725628Y-89876190D01*
X135201819Y-90114285D02*
X134201819Y-90114285D01*
X134201819Y-90114285D02*
X134201819Y-89733333D01*
X134201819Y-89733333D02*
X134249438Y-89638095D01*
X134249438Y-89638095D02*
X134297057Y-89590476D01*
X134297057Y-89590476D02*
X134392295Y-89542857D01*
X134392295Y-89542857D02*
X134535152Y-89542857D01*
X134535152Y-89542857D02*
X134630390Y-89590476D01*
X134630390Y-89590476D02*
X134678009Y-89638095D01*
X134678009Y-89638095D02*
X134725628Y-89733333D01*
X134725628Y-89733333D02*
X134725628Y-90114285D01*
X135201819Y-88590476D02*
X135201819Y-89161904D01*
X135201819Y-88876190D02*
X134201819Y-88876190D01*
X134201819Y-88876190D02*
X134344676Y-88971428D01*
X134344676Y-88971428D02*
X134439914Y-89066666D01*
X134439914Y-89066666D02*
X134487533Y-89161904D01*
X135201819Y-87638095D02*
X135201819Y-88209523D01*
X135201819Y-87923809D02*
X134201819Y-87923809D01*
X134201819Y-87923809D02*
X134344676Y-88019047D01*
X134344676Y-88019047D02*
X134439914Y-88114285D01*
X134439914Y-88114285D02*
X134487533Y-88209523D01*
G04 #@! TO.C,Q3*
X129963057Y-90011238D02*
X129915438Y-90106476D01*
X129915438Y-90106476D02*
X129820200Y-90201714D01*
X129820200Y-90201714D02*
X129677342Y-90344571D01*
X129677342Y-90344571D02*
X129629723Y-90439809D01*
X129629723Y-90439809D02*
X129629723Y-90535047D01*
X129867819Y-90487428D02*
X129820200Y-90582666D01*
X129820200Y-90582666D02*
X129724961Y-90677904D01*
X129724961Y-90677904D02*
X129534485Y-90725523D01*
X129534485Y-90725523D02*
X129201152Y-90725523D01*
X129201152Y-90725523D02*
X129010676Y-90677904D01*
X129010676Y-90677904D02*
X128915438Y-90582666D01*
X128915438Y-90582666D02*
X128867819Y-90487428D01*
X128867819Y-90487428D02*
X128867819Y-90296952D01*
X128867819Y-90296952D02*
X128915438Y-90201714D01*
X128915438Y-90201714D02*
X129010676Y-90106476D01*
X129010676Y-90106476D02*
X129201152Y-90058857D01*
X129201152Y-90058857D02*
X129534485Y-90058857D01*
X129534485Y-90058857D02*
X129724961Y-90106476D01*
X129724961Y-90106476D02*
X129820200Y-90201714D01*
X129820200Y-90201714D02*
X129867819Y-90296952D01*
X129867819Y-90296952D02*
X129867819Y-90487428D01*
X128867819Y-89725523D02*
X128867819Y-89106476D01*
X128867819Y-89106476D02*
X129248771Y-89439809D01*
X129248771Y-89439809D02*
X129248771Y-89296952D01*
X129248771Y-89296952D02*
X129296390Y-89201714D01*
X129296390Y-89201714D02*
X129344009Y-89154095D01*
X129344009Y-89154095D02*
X129439247Y-89106476D01*
X129439247Y-89106476D02*
X129677342Y-89106476D01*
X129677342Y-89106476D02*
X129772580Y-89154095D01*
X129772580Y-89154095D02*
X129820200Y-89201714D01*
X129820200Y-89201714D02*
X129867819Y-89296952D01*
X129867819Y-89296952D02*
X129867819Y-89582666D01*
X129867819Y-89582666D02*
X129820200Y-89677904D01*
X129820200Y-89677904D02*
X129772580Y-89725523D01*
G04 #@! TO.C,D2*
X126311819Y-90527094D02*
X125311819Y-90527094D01*
X125311819Y-90527094D02*
X125311819Y-90288999D01*
X125311819Y-90288999D02*
X125359438Y-90146142D01*
X125359438Y-90146142D02*
X125454676Y-90050904D01*
X125454676Y-90050904D02*
X125549914Y-90003285D01*
X125549914Y-90003285D02*
X125740390Y-89955666D01*
X125740390Y-89955666D02*
X125883247Y-89955666D01*
X125883247Y-89955666D02*
X126073723Y-90003285D01*
X126073723Y-90003285D02*
X126168961Y-90050904D01*
X126168961Y-90050904D02*
X126264200Y-90146142D01*
X126264200Y-90146142D02*
X126311819Y-90288999D01*
X126311819Y-90288999D02*
X126311819Y-90527094D01*
X125407057Y-89574713D02*
X125359438Y-89527094D01*
X125359438Y-89527094D02*
X125311819Y-89431856D01*
X125311819Y-89431856D02*
X125311819Y-89193761D01*
X125311819Y-89193761D02*
X125359438Y-89098523D01*
X125359438Y-89098523D02*
X125407057Y-89050904D01*
X125407057Y-89050904D02*
X125502295Y-89003285D01*
X125502295Y-89003285D02*
X125597533Y-89003285D01*
X125597533Y-89003285D02*
X125740390Y-89050904D01*
X125740390Y-89050904D02*
X126311819Y-89622332D01*
X126311819Y-89622332D02*
X126311819Y-89003285D01*
G04 #@! TO.C,C1*
X121753333Y-98784580D02*
X121705714Y-98832200D01*
X121705714Y-98832200D02*
X121562857Y-98879819D01*
X121562857Y-98879819D02*
X121467619Y-98879819D01*
X121467619Y-98879819D02*
X121324762Y-98832200D01*
X121324762Y-98832200D02*
X121229524Y-98736961D01*
X121229524Y-98736961D02*
X121181905Y-98641723D01*
X121181905Y-98641723D02*
X121134286Y-98451247D01*
X121134286Y-98451247D02*
X121134286Y-98308390D01*
X121134286Y-98308390D02*
X121181905Y-98117914D01*
X121181905Y-98117914D02*
X121229524Y-98022676D01*
X121229524Y-98022676D02*
X121324762Y-97927438D01*
X121324762Y-97927438D02*
X121467619Y-97879819D01*
X121467619Y-97879819D02*
X121562857Y-97879819D01*
X121562857Y-97879819D02*
X121705714Y-97927438D01*
X121705714Y-97927438D02*
X121753333Y-97975057D01*
X122705714Y-98879819D02*
X122134286Y-98879819D01*
X122420000Y-98879819D02*
X122420000Y-97879819D01*
X122420000Y-97879819D02*
X122324762Y-98022676D01*
X122324762Y-98022676D02*
X122229524Y-98117914D01*
X122229524Y-98117914D02*
X122134286Y-98165533D01*
G04 #@! TO.C,JP2*
X136199666Y-80607819D02*
X136199666Y-81322104D01*
X136199666Y-81322104D02*
X136152047Y-81464961D01*
X136152047Y-81464961D02*
X136056809Y-81560200D01*
X136056809Y-81560200D02*
X135913952Y-81607819D01*
X135913952Y-81607819D02*
X135818714Y-81607819D01*
X136675857Y-81607819D02*
X136675857Y-80607819D01*
X136675857Y-80607819D02*
X137056809Y-80607819D01*
X137056809Y-80607819D02*
X137152047Y-80655438D01*
X137152047Y-80655438D02*
X137199666Y-80703057D01*
X137199666Y-80703057D02*
X137247285Y-80798295D01*
X137247285Y-80798295D02*
X137247285Y-80941152D01*
X137247285Y-80941152D02*
X137199666Y-81036390D01*
X137199666Y-81036390D02*
X137152047Y-81084009D01*
X137152047Y-81084009D02*
X137056809Y-81131628D01*
X137056809Y-81131628D02*
X136675857Y-81131628D01*
X137628238Y-80703057D02*
X137675857Y-80655438D01*
X137675857Y-80655438D02*
X137771095Y-80607819D01*
X137771095Y-80607819D02*
X138009190Y-80607819D01*
X138009190Y-80607819D02*
X138104428Y-80655438D01*
X138104428Y-80655438D02*
X138152047Y-80703057D01*
X138152047Y-80703057D02*
X138199666Y-80798295D01*
X138199666Y-80798295D02*
X138199666Y-80893533D01*
X138199666Y-80893533D02*
X138152047Y-81036390D01*
X138152047Y-81036390D02*
X137580619Y-81607819D01*
X137580619Y-81607819D02*
X138199666Y-81607819D01*
G04 #@! TO.C,R8*
X128343819Y-84748666D02*
X127867628Y-85081999D01*
X128343819Y-85320094D02*
X127343819Y-85320094D01*
X127343819Y-85320094D02*
X127343819Y-84939142D01*
X127343819Y-84939142D02*
X127391438Y-84843904D01*
X127391438Y-84843904D02*
X127439057Y-84796285D01*
X127439057Y-84796285D02*
X127534295Y-84748666D01*
X127534295Y-84748666D02*
X127677152Y-84748666D01*
X127677152Y-84748666D02*
X127772390Y-84796285D01*
X127772390Y-84796285D02*
X127820009Y-84843904D01*
X127820009Y-84843904D02*
X127867628Y-84939142D01*
X127867628Y-84939142D02*
X127867628Y-85320094D01*
X127772390Y-84177237D02*
X127724771Y-84272475D01*
X127724771Y-84272475D02*
X127677152Y-84320094D01*
X127677152Y-84320094D02*
X127581914Y-84367713D01*
X127581914Y-84367713D02*
X127534295Y-84367713D01*
X127534295Y-84367713D02*
X127439057Y-84320094D01*
X127439057Y-84320094D02*
X127391438Y-84272475D01*
X127391438Y-84272475D02*
X127343819Y-84177237D01*
X127343819Y-84177237D02*
X127343819Y-83986761D01*
X127343819Y-83986761D02*
X127391438Y-83891523D01*
X127391438Y-83891523D02*
X127439057Y-83843904D01*
X127439057Y-83843904D02*
X127534295Y-83796285D01*
X127534295Y-83796285D02*
X127581914Y-83796285D01*
X127581914Y-83796285D02*
X127677152Y-83843904D01*
X127677152Y-83843904D02*
X127724771Y-83891523D01*
X127724771Y-83891523D02*
X127772390Y-83986761D01*
X127772390Y-83986761D02*
X127772390Y-84177237D01*
X127772390Y-84177237D02*
X127820009Y-84272475D01*
X127820009Y-84272475D02*
X127867628Y-84320094D01*
X127867628Y-84320094D02*
X127962866Y-84367713D01*
X127962866Y-84367713D02*
X128153342Y-84367713D01*
X128153342Y-84367713D02*
X128248580Y-84320094D01*
X128248580Y-84320094D02*
X128296200Y-84272475D01*
X128296200Y-84272475D02*
X128343819Y-84177237D01*
X128343819Y-84177237D02*
X128343819Y-83986761D01*
X128343819Y-83986761D02*
X128296200Y-83891523D01*
X128296200Y-83891523D02*
X128248580Y-83843904D01*
X128248580Y-83843904D02*
X128153342Y-83796285D01*
X128153342Y-83796285D02*
X127962866Y-83796285D01*
X127962866Y-83796285D02*
X127867628Y-83843904D01*
X127867628Y-83843904D02*
X127820009Y-83891523D01*
X127820009Y-83891523D02*
X127772390Y-83986761D01*
G04 #@! TO.C,R3*
X110831333Y-96847819D02*
X110498000Y-96371628D01*
X110259905Y-96847819D02*
X110259905Y-95847819D01*
X110259905Y-95847819D02*
X110640857Y-95847819D01*
X110640857Y-95847819D02*
X110736095Y-95895438D01*
X110736095Y-95895438D02*
X110783714Y-95943057D01*
X110783714Y-95943057D02*
X110831333Y-96038295D01*
X110831333Y-96038295D02*
X110831333Y-96181152D01*
X110831333Y-96181152D02*
X110783714Y-96276390D01*
X110783714Y-96276390D02*
X110736095Y-96324009D01*
X110736095Y-96324009D02*
X110640857Y-96371628D01*
X110640857Y-96371628D02*
X110259905Y-96371628D01*
X111164667Y-95847819D02*
X111783714Y-95847819D01*
X111783714Y-95847819D02*
X111450381Y-96228771D01*
X111450381Y-96228771D02*
X111593238Y-96228771D01*
X111593238Y-96228771D02*
X111688476Y-96276390D01*
X111688476Y-96276390D02*
X111736095Y-96324009D01*
X111736095Y-96324009D02*
X111783714Y-96419247D01*
X111783714Y-96419247D02*
X111783714Y-96657342D01*
X111783714Y-96657342D02*
X111736095Y-96752580D01*
X111736095Y-96752580D02*
X111688476Y-96800200D01*
X111688476Y-96800200D02*
X111593238Y-96847819D01*
X111593238Y-96847819D02*
X111307524Y-96847819D01*
X111307524Y-96847819D02*
X111212286Y-96800200D01*
X111212286Y-96800200D02*
X111164667Y-96752580D01*
G04 #@! TO.C,JP3*
X133151666Y-80226819D02*
X133151666Y-80941104D01*
X133151666Y-80941104D02*
X133104047Y-81083961D01*
X133104047Y-81083961D02*
X133008809Y-81179200D01*
X133008809Y-81179200D02*
X132865952Y-81226819D01*
X132865952Y-81226819D02*
X132770714Y-81226819D01*
X133627857Y-81226819D02*
X133627857Y-80226819D01*
X133627857Y-80226819D02*
X134008809Y-80226819D01*
X134008809Y-80226819D02*
X134104047Y-80274438D01*
X134104047Y-80274438D02*
X134151666Y-80322057D01*
X134151666Y-80322057D02*
X134199285Y-80417295D01*
X134199285Y-80417295D02*
X134199285Y-80560152D01*
X134199285Y-80560152D02*
X134151666Y-80655390D01*
X134151666Y-80655390D02*
X134104047Y-80703009D01*
X134104047Y-80703009D02*
X134008809Y-80750628D01*
X134008809Y-80750628D02*
X133627857Y-80750628D01*
X134532619Y-80226819D02*
X135151666Y-80226819D01*
X135151666Y-80226819D02*
X134818333Y-80607771D01*
X134818333Y-80607771D02*
X134961190Y-80607771D01*
X134961190Y-80607771D02*
X135056428Y-80655390D01*
X135056428Y-80655390D02*
X135104047Y-80703009D01*
X135104047Y-80703009D02*
X135151666Y-80798247D01*
X135151666Y-80798247D02*
X135151666Y-81036342D01*
X135151666Y-81036342D02*
X135104047Y-81131580D01*
X135104047Y-81131580D02*
X135056428Y-81179200D01*
X135056428Y-81179200D02*
X134961190Y-81226819D01*
X134961190Y-81226819D02*
X134675476Y-81226819D01*
X134675476Y-81226819D02*
X134580238Y-81179200D01*
X134580238Y-81179200D02*
X134532619Y-81131580D01*
G04 #@! TO.C,R9*
X124293333Y-98244819D02*
X123960000Y-97768628D01*
X123721905Y-98244819D02*
X123721905Y-97244819D01*
X123721905Y-97244819D02*
X124102857Y-97244819D01*
X124102857Y-97244819D02*
X124198095Y-97292438D01*
X124198095Y-97292438D02*
X124245714Y-97340057D01*
X124245714Y-97340057D02*
X124293333Y-97435295D01*
X124293333Y-97435295D02*
X124293333Y-97578152D01*
X124293333Y-97578152D02*
X124245714Y-97673390D01*
X124245714Y-97673390D02*
X124198095Y-97721009D01*
X124198095Y-97721009D02*
X124102857Y-97768628D01*
X124102857Y-97768628D02*
X123721905Y-97768628D01*
X124769524Y-98244819D02*
X124960000Y-98244819D01*
X124960000Y-98244819D02*
X125055238Y-98197200D01*
X125055238Y-98197200D02*
X125102857Y-98149580D01*
X125102857Y-98149580D02*
X125198095Y-98006723D01*
X125198095Y-98006723D02*
X125245714Y-97816247D01*
X125245714Y-97816247D02*
X125245714Y-97435295D01*
X125245714Y-97435295D02*
X125198095Y-97340057D01*
X125198095Y-97340057D02*
X125150476Y-97292438D01*
X125150476Y-97292438D02*
X125055238Y-97244819D01*
X125055238Y-97244819D02*
X124864762Y-97244819D01*
X124864762Y-97244819D02*
X124769524Y-97292438D01*
X124769524Y-97292438D02*
X124721905Y-97340057D01*
X124721905Y-97340057D02*
X124674286Y-97435295D01*
X124674286Y-97435295D02*
X124674286Y-97673390D01*
X124674286Y-97673390D02*
X124721905Y-97768628D01*
X124721905Y-97768628D02*
X124769524Y-97816247D01*
X124769524Y-97816247D02*
X124864762Y-97863866D01*
X124864762Y-97863866D02*
X125055238Y-97863866D01*
X125055238Y-97863866D02*
X125150476Y-97816247D01*
X125150476Y-97816247D02*
X125198095Y-97768628D01*
X125198095Y-97768628D02*
X125245714Y-97673390D01*
G04 #@! TO.C,R7*
X121612819Y-85256666D02*
X121136628Y-85589999D01*
X121612819Y-85828094D02*
X120612819Y-85828094D01*
X120612819Y-85828094D02*
X120612819Y-85447142D01*
X120612819Y-85447142D02*
X120660438Y-85351904D01*
X120660438Y-85351904D02*
X120708057Y-85304285D01*
X120708057Y-85304285D02*
X120803295Y-85256666D01*
X120803295Y-85256666D02*
X120946152Y-85256666D01*
X120946152Y-85256666D02*
X121041390Y-85304285D01*
X121041390Y-85304285D02*
X121089009Y-85351904D01*
X121089009Y-85351904D02*
X121136628Y-85447142D01*
X121136628Y-85447142D02*
X121136628Y-85828094D01*
X120612819Y-84923332D02*
X120612819Y-84256666D01*
X120612819Y-84256666D02*
X121612819Y-84685237D01*
G04 #@! TO.C,R1*
X136231333Y-110182819D02*
X135898000Y-109706628D01*
X135659905Y-110182819D02*
X135659905Y-109182819D01*
X135659905Y-109182819D02*
X136040857Y-109182819D01*
X136040857Y-109182819D02*
X136136095Y-109230438D01*
X136136095Y-109230438D02*
X136183714Y-109278057D01*
X136183714Y-109278057D02*
X136231333Y-109373295D01*
X136231333Y-109373295D02*
X136231333Y-109516152D01*
X136231333Y-109516152D02*
X136183714Y-109611390D01*
X136183714Y-109611390D02*
X136136095Y-109659009D01*
X136136095Y-109659009D02*
X136040857Y-109706628D01*
X136040857Y-109706628D02*
X135659905Y-109706628D01*
X137183714Y-110182819D02*
X136612286Y-110182819D01*
X136898000Y-110182819D02*
X136898000Y-109182819D01*
X136898000Y-109182819D02*
X136802762Y-109325676D01*
X136802762Y-109325676D02*
X136707524Y-109420914D01*
X136707524Y-109420914D02*
X136612286Y-109468533D01*
G04 #@! TO.C,C6*
X141692333Y-90275580D02*
X141644714Y-90323200D01*
X141644714Y-90323200D02*
X141501857Y-90370819D01*
X141501857Y-90370819D02*
X141406619Y-90370819D01*
X141406619Y-90370819D02*
X141263762Y-90323200D01*
X141263762Y-90323200D02*
X141168524Y-90227961D01*
X141168524Y-90227961D02*
X141120905Y-90132723D01*
X141120905Y-90132723D02*
X141073286Y-89942247D01*
X141073286Y-89942247D02*
X141073286Y-89799390D01*
X141073286Y-89799390D02*
X141120905Y-89608914D01*
X141120905Y-89608914D02*
X141168524Y-89513676D01*
X141168524Y-89513676D02*
X141263762Y-89418438D01*
X141263762Y-89418438D02*
X141406619Y-89370819D01*
X141406619Y-89370819D02*
X141501857Y-89370819D01*
X141501857Y-89370819D02*
X141644714Y-89418438D01*
X141644714Y-89418438D02*
X141692333Y-89466057D01*
X142549476Y-89370819D02*
X142359000Y-89370819D01*
X142359000Y-89370819D02*
X142263762Y-89418438D01*
X142263762Y-89418438D02*
X142216143Y-89466057D01*
X142216143Y-89466057D02*
X142120905Y-89608914D01*
X142120905Y-89608914D02*
X142073286Y-89799390D01*
X142073286Y-89799390D02*
X142073286Y-90180342D01*
X142073286Y-90180342D02*
X142120905Y-90275580D01*
X142120905Y-90275580D02*
X142168524Y-90323200D01*
X142168524Y-90323200D02*
X142263762Y-90370819D01*
X142263762Y-90370819D02*
X142454238Y-90370819D01*
X142454238Y-90370819D02*
X142549476Y-90323200D01*
X142549476Y-90323200D02*
X142597095Y-90275580D01*
X142597095Y-90275580D02*
X142644714Y-90180342D01*
X142644714Y-90180342D02*
X142644714Y-89942247D01*
X142644714Y-89942247D02*
X142597095Y-89847009D01*
X142597095Y-89847009D02*
X142549476Y-89799390D01*
X142549476Y-89799390D02*
X142454238Y-89751771D01*
X142454238Y-89751771D02*
X142263762Y-89751771D01*
X142263762Y-89751771D02*
X142168524Y-89799390D01*
X142168524Y-89799390D02*
X142120905Y-89847009D01*
X142120905Y-89847009D02*
X142073286Y-89942247D01*
G04 #@! TO.C,Q1*
X134143761Y-102404057D02*
X134048523Y-102356438D01*
X134048523Y-102356438D02*
X133953285Y-102261200D01*
X133953285Y-102261200D02*
X133810428Y-102118342D01*
X133810428Y-102118342D02*
X133715190Y-102070723D01*
X133715190Y-102070723D02*
X133619952Y-102070723D01*
X133667571Y-102308819D02*
X133572333Y-102261200D01*
X133572333Y-102261200D02*
X133477095Y-102165961D01*
X133477095Y-102165961D02*
X133429476Y-101975485D01*
X133429476Y-101975485D02*
X133429476Y-101642152D01*
X133429476Y-101642152D02*
X133477095Y-101451676D01*
X133477095Y-101451676D02*
X133572333Y-101356438D01*
X133572333Y-101356438D02*
X133667571Y-101308819D01*
X133667571Y-101308819D02*
X133858047Y-101308819D01*
X133858047Y-101308819D02*
X133953285Y-101356438D01*
X133953285Y-101356438D02*
X134048523Y-101451676D01*
X134048523Y-101451676D02*
X134096142Y-101642152D01*
X134096142Y-101642152D02*
X134096142Y-101975485D01*
X134096142Y-101975485D02*
X134048523Y-102165961D01*
X134048523Y-102165961D02*
X133953285Y-102261200D01*
X133953285Y-102261200D02*
X133858047Y-102308819D01*
X133858047Y-102308819D02*
X133667571Y-102308819D01*
X135048523Y-102308819D02*
X134477095Y-102308819D01*
X134762809Y-102308819D02*
X134762809Y-101308819D01*
X134762809Y-101308819D02*
X134667571Y-101451676D01*
X134667571Y-101451676D02*
X134572333Y-101546914D01*
X134572333Y-101546914D02*
X134477095Y-101594533D01*
G04 #@! TO.C,F1*
X114728666Y-91879009D02*
X114395333Y-91879009D01*
X114395333Y-92402819D02*
X114395333Y-91402819D01*
X114395333Y-91402819D02*
X114871523Y-91402819D01*
X115776285Y-92402819D02*
X115204857Y-92402819D01*
X115490571Y-92402819D02*
X115490571Y-91402819D01*
X115490571Y-91402819D02*
X115395333Y-91545676D01*
X115395333Y-91545676D02*
X115300095Y-91640914D01*
X115300095Y-91640914D02*
X115204857Y-91688533D01*
G04 #@! TO.C,Q2*
X116744761Y-101261057D02*
X116649523Y-101213438D01*
X116649523Y-101213438D02*
X116554285Y-101118200D01*
X116554285Y-101118200D02*
X116411428Y-100975342D01*
X116411428Y-100975342D02*
X116316190Y-100927723D01*
X116316190Y-100927723D02*
X116220952Y-100927723D01*
X116268571Y-101165819D02*
X116173333Y-101118200D01*
X116173333Y-101118200D02*
X116078095Y-101022961D01*
X116078095Y-101022961D02*
X116030476Y-100832485D01*
X116030476Y-100832485D02*
X116030476Y-100499152D01*
X116030476Y-100499152D02*
X116078095Y-100308676D01*
X116078095Y-100308676D02*
X116173333Y-100213438D01*
X116173333Y-100213438D02*
X116268571Y-100165819D01*
X116268571Y-100165819D02*
X116459047Y-100165819D01*
X116459047Y-100165819D02*
X116554285Y-100213438D01*
X116554285Y-100213438D02*
X116649523Y-100308676D01*
X116649523Y-100308676D02*
X116697142Y-100499152D01*
X116697142Y-100499152D02*
X116697142Y-100832485D01*
X116697142Y-100832485D02*
X116649523Y-101022961D01*
X116649523Y-101022961D02*
X116554285Y-101118200D01*
X116554285Y-101118200D02*
X116459047Y-101165819D01*
X116459047Y-101165819D02*
X116268571Y-101165819D01*
X117078095Y-100261057D02*
X117125714Y-100213438D01*
X117125714Y-100213438D02*
X117220952Y-100165819D01*
X117220952Y-100165819D02*
X117459047Y-100165819D01*
X117459047Y-100165819D02*
X117554285Y-100213438D01*
X117554285Y-100213438D02*
X117601904Y-100261057D01*
X117601904Y-100261057D02*
X117649523Y-100356295D01*
X117649523Y-100356295D02*
X117649523Y-100451533D01*
X117649523Y-100451533D02*
X117601904Y-100594390D01*
X117601904Y-100594390D02*
X117030476Y-101165819D01*
X117030476Y-101165819D02*
X117649523Y-101165819D01*
G04 #@! TO.C,R2*
X136231333Y-98456819D02*
X135898000Y-97980628D01*
X135659905Y-98456819D02*
X135659905Y-97456819D01*
X135659905Y-97456819D02*
X136040857Y-97456819D01*
X136040857Y-97456819D02*
X136136095Y-97504438D01*
X136136095Y-97504438D02*
X136183714Y-97552057D01*
X136183714Y-97552057D02*
X136231333Y-97647295D01*
X136231333Y-97647295D02*
X136231333Y-97790152D01*
X136231333Y-97790152D02*
X136183714Y-97885390D01*
X136183714Y-97885390D02*
X136136095Y-97933009D01*
X136136095Y-97933009D02*
X136040857Y-97980628D01*
X136040857Y-97980628D02*
X135659905Y-97980628D01*
X136612286Y-97552057D02*
X136659905Y-97504438D01*
X136659905Y-97504438D02*
X136755143Y-97456819D01*
X136755143Y-97456819D02*
X136993238Y-97456819D01*
X136993238Y-97456819D02*
X137088476Y-97504438D01*
X137088476Y-97504438D02*
X137136095Y-97552057D01*
X137136095Y-97552057D02*
X137183714Y-97647295D01*
X137183714Y-97647295D02*
X137183714Y-97742533D01*
X137183714Y-97742533D02*
X137136095Y-97885390D01*
X137136095Y-97885390D02*
X136564667Y-98456819D01*
X136564667Y-98456819D02*
X137183714Y-98456819D01*
G04 #@! TO.C,JP1*
X113212666Y-86576819D02*
X113212666Y-87291104D01*
X113212666Y-87291104D02*
X113165047Y-87433961D01*
X113165047Y-87433961D02*
X113069809Y-87529200D01*
X113069809Y-87529200D02*
X112926952Y-87576819D01*
X112926952Y-87576819D02*
X112831714Y-87576819D01*
X113688857Y-87576819D02*
X113688857Y-86576819D01*
X113688857Y-86576819D02*
X114069809Y-86576819D01*
X114069809Y-86576819D02*
X114165047Y-86624438D01*
X114165047Y-86624438D02*
X114212666Y-86672057D01*
X114212666Y-86672057D02*
X114260285Y-86767295D01*
X114260285Y-86767295D02*
X114260285Y-86910152D01*
X114260285Y-86910152D02*
X114212666Y-87005390D01*
X114212666Y-87005390D02*
X114165047Y-87053009D01*
X114165047Y-87053009D02*
X114069809Y-87100628D01*
X114069809Y-87100628D02*
X113688857Y-87100628D01*
X115212666Y-87576819D02*
X114641238Y-87576819D01*
X114926952Y-87576819D02*
X114926952Y-86576819D01*
X114926952Y-86576819D02*
X114831714Y-86719676D01*
X114831714Y-86719676D02*
X114736476Y-86814914D01*
X114736476Y-86814914D02*
X114641238Y-86862533D01*
G04 #@! TO.C,R4*
X118197333Y-110182819D02*
X117864000Y-109706628D01*
X117625905Y-110182819D02*
X117625905Y-109182819D01*
X117625905Y-109182819D02*
X118006857Y-109182819D01*
X118006857Y-109182819D02*
X118102095Y-109230438D01*
X118102095Y-109230438D02*
X118149714Y-109278057D01*
X118149714Y-109278057D02*
X118197333Y-109373295D01*
X118197333Y-109373295D02*
X118197333Y-109516152D01*
X118197333Y-109516152D02*
X118149714Y-109611390D01*
X118149714Y-109611390D02*
X118102095Y-109659009D01*
X118102095Y-109659009D02*
X118006857Y-109706628D01*
X118006857Y-109706628D02*
X117625905Y-109706628D01*
X119054476Y-109516152D02*
X119054476Y-110182819D01*
X118816381Y-109135200D02*
X118578286Y-109849485D01*
X118578286Y-109849485D02*
X119197333Y-109849485D01*
G04 #@! TO.C,C8*
X137773580Y-94400666D02*
X137821200Y-94448285D01*
X137821200Y-94448285D02*
X137868819Y-94591142D01*
X137868819Y-94591142D02*
X137868819Y-94686380D01*
X137868819Y-94686380D02*
X137821200Y-94829237D01*
X137821200Y-94829237D02*
X137725961Y-94924475D01*
X137725961Y-94924475D02*
X137630723Y-94972094D01*
X137630723Y-94972094D02*
X137440247Y-95019713D01*
X137440247Y-95019713D02*
X137297390Y-95019713D01*
X137297390Y-95019713D02*
X137106914Y-94972094D01*
X137106914Y-94972094D02*
X137011676Y-94924475D01*
X137011676Y-94924475D02*
X136916438Y-94829237D01*
X136916438Y-94829237D02*
X136868819Y-94686380D01*
X136868819Y-94686380D02*
X136868819Y-94591142D01*
X136868819Y-94591142D02*
X136916438Y-94448285D01*
X136916438Y-94448285D02*
X136964057Y-94400666D01*
X137297390Y-93829237D02*
X137249771Y-93924475D01*
X137249771Y-93924475D02*
X137202152Y-93972094D01*
X137202152Y-93972094D02*
X137106914Y-94019713D01*
X137106914Y-94019713D02*
X137059295Y-94019713D01*
X137059295Y-94019713D02*
X136964057Y-93972094D01*
X136964057Y-93972094D02*
X136916438Y-93924475D01*
X136916438Y-93924475D02*
X136868819Y-93829237D01*
X136868819Y-93829237D02*
X136868819Y-93638761D01*
X136868819Y-93638761D02*
X136916438Y-93543523D01*
X136916438Y-93543523D02*
X136964057Y-93495904D01*
X136964057Y-93495904D02*
X137059295Y-93448285D01*
X137059295Y-93448285D02*
X137106914Y-93448285D01*
X137106914Y-93448285D02*
X137202152Y-93495904D01*
X137202152Y-93495904D02*
X137249771Y-93543523D01*
X137249771Y-93543523D02*
X137297390Y-93638761D01*
X137297390Y-93638761D02*
X137297390Y-93829237D01*
X137297390Y-93829237D02*
X137345009Y-93924475D01*
X137345009Y-93924475D02*
X137392628Y-93972094D01*
X137392628Y-93972094D02*
X137487866Y-94019713D01*
X137487866Y-94019713D02*
X137678342Y-94019713D01*
X137678342Y-94019713D02*
X137773580Y-93972094D01*
X137773580Y-93972094D02*
X137821200Y-93924475D01*
X137821200Y-93924475D02*
X137868819Y-93829237D01*
X137868819Y-93829237D02*
X137868819Y-93638761D01*
X137868819Y-93638761D02*
X137821200Y-93543523D01*
X137821200Y-93543523D02*
X137773580Y-93495904D01*
X137773580Y-93495904D02*
X137678342Y-93448285D01*
X137678342Y-93448285D02*
X137487866Y-93448285D01*
X137487866Y-93448285D02*
X137392628Y-93495904D01*
X137392628Y-93495904D02*
X137345009Y-93543523D01*
X137345009Y-93543523D02*
X137297390Y-93638761D01*
G04 #@! TO.C,R5*
X118197333Y-97440819D02*
X117864000Y-96964628D01*
X117625905Y-97440819D02*
X117625905Y-96440819D01*
X117625905Y-96440819D02*
X118006857Y-96440819D01*
X118006857Y-96440819D02*
X118102095Y-96488438D01*
X118102095Y-96488438D02*
X118149714Y-96536057D01*
X118149714Y-96536057D02*
X118197333Y-96631295D01*
X118197333Y-96631295D02*
X118197333Y-96774152D01*
X118197333Y-96774152D02*
X118149714Y-96869390D01*
X118149714Y-96869390D02*
X118102095Y-96917009D01*
X118102095Y-96917009D02*
X118006857Y-96964628D01*
X118006857Y-96964628D02*
X117625905Y-96964628D01*
X119102095Y-96440819D02*
X118625905Y-96440819D01*
X118625905Y-96440819D02*
X118578286Y-96917009D01*
X118578286Y-96917009D02*
X118625905Y-96869390D01*
X118625905Y-96869390D02*
X118721143Y-96821771D01*
X118721143Y-96821771D02*
X118959238Y-96821771D01*
X118959238Y-96821771D02*
X119054476Y-96869390D01*
X119054476Y-96869390D02*
X119102095Y-96917009D01*
X119102095Y-96917009D02*
X119149714Y-97012247D01*
X119149714Y-97012247D02*
X119149714Y-97250342D01*
X119149714Y-97250342D02*
X119102095Y-97345580D01*
X119102095Y-97345580D02*
X119054476Y-97393200D01*
X119054476Y-97393200D02*
X118959238Y-97440819D01*
X118959238Y-97440819D02*
X118721143Y-97440819D01*
X118721143Y-97440819D02*
X118625905Y-97393200D01*
X118625905Y-97393200D02*
X118578286Y-97345580D01*
G04 #@! TO.C,C5*
X118197333Y-84433580D02*
X118149714Y-84481200D01*
X118149714Y-84481200D02*
X118006857Y-84528819D01*
X118006857Y-84528819D02*
X117911619Y-84528819D01*
X117911619Y-84528819D02*
X117768762Y-84481200D01*
X117768762Y-84481200D02*
X117673524Y-84385961D01*
X117673524Y-84385961D02*
X117625905Y-84290723D01*
X117625905Y-84290723D02*
X117578286Y-84100247D01*
X117578286Y-84100247D02*
X117578286Y-83957390D01*
X117578286Y-83957390D02*
X117625905Y-83766914D01*
X117625905Y-83766914D02*
X117673524Y-83671676D01*
X117673524Y-83671676D02*
X117768762Y-83576438D01*
X117768762Y-83576438D02*
X117911619Y-83528819D01*
X117911619Y-83528819D02*
X118006857Y-83528819D01*
X118006857Y-83528819D02*
X118149714Y-83576438D01*
X118149714Y-83576438D02*
X118197333Y-83624057D01*
X119102095Y-83528819D02*
X118625905Y-83528819D01*
X118625905Y-83528819D02*
X118578286Y-84005009D01*
X118578286Y-84005009D02*
X118625905Y-83957390D01*
X118625905Y-83957390D02*
X118721143Y-83909771D01*
X118721143Y-83909771D02*
X118959238Y-83909771D01*
X118959238Y-83909771D02*
X119054476Y-83957390D01*
X119054476Y-83957390D02*
X119102095Y-84005009D01*
X119102095Y-84005009D02*
X119149714Y-84100247D01*
X119149714Y-84100247D02*
X119149714Y-84338342D01*
X119149714Y-84338342D02*
X119102095Y-84433580D01*
X119102095Y-84433580D02*
X119054476Y-84481200D01*
X119054476Y-84481200D02*
X118959238Y-84528819D01*
X118959238Y-84528819D02*
X118721143Y-84528819D01*
X118721143Y-84528819D02*
X118625905Y-84481200D01*
X118625905Y-84481200D02*
X118578286Y-84433580D01*
G04 #@! TO.C,R10*
X126992142Y-98244819D02*
X126658809Y-97768628D01*
X126420714Y-98244819D02*
X126420714Y-97244819D01*
X126420714Y-97244819D02*
X126801666Y-97244819D01*
X126801666Y-97244819D02*
X126896904Y-97292438D01*
X126896904Y-97292438D02*
X126944523Y-97340057D01*
X126944523Y-97340057D02*
X126992142Y-97435295D01*
X126992142Y-97435295D02*
X126992142Y-97578152D01*
X126992142Y-97578152D02*
X126944523Y-97673390D01*
X126944523Y-97673390D02*
X126896904Y-97721009D01*
X126896904Y-97721009D02*
X126801666Y-97768628D01*
X126801666Y-97768628D02*
X126420714Y-97768628D01*
X127944523Y-98244819D02*
X127373095Y-98244819D01*
X127658809Y-98244819D02*
X127658809Y-97244819D01*
X127658809Y-97244819D02*
X127563571Y-97387676D01*
X127563571Y-97387676D02*
X127468333Y-97482914D01*
X127468333Y-97482914D02*
X127373095Y-97530533D01*
X128563571Y-97244819D02*
X128658809Y-97244819D01*
X128658809Y-97244819D02*
X128754047Y-97292438D01*
X128754047Y-97292438D02*
X128801666Y-97340057D01*
X128801666Y-97340057D02*
X128849285Y-97435295D01*
X128849285Y-97435295D02*
X128896904Y-97625771D01*
X128896904Y-97625771D02*
X128896904Y-97863866D01*
X128896904Y-97863866D02*
X128849285Y-98054342D01*
X128849285Y-98054342D02*
X128801666Y-98149580D01*
X128801666Y-98149580D02*
X128754047Y-98197200D01*
X128754047Y-98197200D02*
X128658809Y-98244819D01*
X128658809Y-98244819D02*
X128563571Y-98244819D01*
X128563571Y-98244819D02*
X128468333Y-98197200D01*
X128468333Y-98197200D02*
X128420714Y-98149580D01*
X128420714Y-98149580D02*
X128373095Y-98054342D01*
X128373095Y-98054342D02*
X128325476Y-97863866D01*
X128325476Y-97863866D02*
X128325476Y-97625771D01*
X128325476Y-97625771D02*
X128373095Y-97435295D01*
X128373095Y-97435295D02*
X128420714Y-97340057D01*
X128420714Y-97340057D02*
X128468333Y-97292438D01*
X128468333Y-97292438D02*
X128563571Y-97244819D01*
G04 #@! TO.C,C7*
X129881333Y-84052580D02*
X129833714Y-84100200D01*
X129833714Y-84100200D02*
X129690857Y-84147819D01*
X129690857Y-84147819D02*
X129595619Y-84147819D01*
X129595619Y-84147819D02*
X129452762Y-84100200D01*
X129452762Y-84100200D02*
X129357524Y-84004961D01*
X129357524Y-84004961D02*
X129309905Y-83909723D01*
X129309905Y-83909723D02*
X129262286Y-83719247D01*
X129262286Y-83719247D02*
X129262286Y-83576390D01*
X129262286Y-83576390D02*
X129309905Y-83385914D01*
X129309905Y-83385914D02*
X129357524Y-83290676D01*
X129357524Y-83290676D02*
X129452762Y-83195438D01*
X129452762Y-83195438D02*
X129595619Y-83147819D01*
X129595619Y-83147819D02*
X129690857Y-83147819D01*
X129690857Y-83147819D02*
X129833714Y-83195438D01*
X129833714Y-83195438D02*
X129881333Y-83243057D01*
X130214667Y-83147819D02*
X130881333Y-83147819D01*
X130881333Y-83147819D02*
X130452762Y-84147819D01*
G04 #@! TO.C,C2*
X120229333Y-92307580D02*
X120181714Y-92355200D01*
X120181714Y-92355200D02*
X120038857Y-92402819D01*
X120038857Y-92402819D02*
X119943619Y-92402819D01*
X119943619Y-92402819D02*
X119800762Y-92355200D01*
X119800762Y-92355200D02*
X119705524Y-92259961D01*
X119705524Y-92259961D02*
X119657905Y-92164723D01*
X119657905Y-92164723D02*
X119610286Y-91974247D01*
X119610286Y-91974247D02*
X119610286Y-91831390D01*
X119610286Y-91831390D02*
X119657905Y-91640914D01*
X119657905Y-91640914D02*
X119705524Y-91545676D01*
X119705524Y-91545676D02*
X119800762Y-91450438D01*
X119800762Y-91450438D02*
X119943619Y-91402819D01*
X119943619Y-91402819D02*
X120038857Y-91402819D01*
X120038857Y-91402819D02*
X120181714Y-91450438D01*
X120181714Y-91450438D02*
X120229333Y-91498057D01*
X120610286Y-91498057D02*
X120657905Y-91450438D01*
X120657905Y-91450438D02*
X120753143Y-91402819D01*
X120753143Y-91402819D02*
X120991238Y-91402819D01*
X120991238Y-91402819D02*
X121086476Y-91450438D01*
X121086476Y-91450438D02*
X121134095Y-91498057D01*
X121134095Y-91498057D02*
X121181714Y-91593295D01*
X121181714Y-91593295D02*
X121181714Y-91688533D01*
X121181714Y-91688533D02*
X121134095Y-91831390D01*
X121134095Y-91831390D02*
X120562667Y-92402819D01*
X120562667Y-92402819D02*
X121181714Y-92402819D01*
G04 #@! TO.C,C3*
X130643333Y-98149580D02*
X130595714Y-98197200D01*
X130595714Y-98197200D02*
X130452857Y-98244819D01*
X130452857Y-98244819D02*
X130357619Y-98244819D01*
X130357619Y-98244819D02*
X130214762Y-98197200D01*
X130214762Y-98197200D02*
X130119524Y-98101961D01*
X130119524Y-98101961D02*
X130071905Y-98006723D01*
X130071905Y-98006723D02*
X130024286Y-97816247D01*
X130024286Y-97816247D02*
X130024286Y-97673390D01*
X130024286Y-97673390D02*
X130071905Y-97482914D01*
X130071905Y-97482914D02*
X130119524Y-97387676D01*
X130119524Y-97387676D02*
X130214762Y-97292438D01*
X130214762Y-97292438D02*
X130357619Y-97244819D01*
X130357619Y-97244819D02*
X130452857Y-97244819D01*
X130452857Y-97244819D02*
X130595714Y-97292438D01*
X130595714Y-97292438D02*
X130643333Y-97340057D01*
X130976667Y-97244819D02*
X131595714Y-97244819D01*
X131595714Y-97244819D02*
X131262381Y-97625771D01*
X131262381Y-97625771D02*
X131405238Y-97625771D01*
X131405238Y-97625771D02*
X131500476Y-97673390D01*
X131500476Y-97673390D02*
X131548095Y-97721009D01*
X131548095Y-97721009D02*
X131595714Y-97816247D01*
X131595714Y-97816247D02*
X131595714Y-98054342D01*
X131595714Y-98054342D02*
X131548095Y-98149580D01*
X131548095Y-98149580D02*
X131500476Y-98197200D01*
X131500476Y-98197200D02*
X131405238Y-98244819D01*
X131405238Y-98244819D02*
X131119524Y-98244819D01*
X131119524Y-98244819D02*
X131024286Y-98197200D01*
X131024286Y-98197200D02*
X130976667Y-98149580D01*
G04 #@! TO.C,R6*
X121866819Y-88304666D02*
X121390628Y-88637999D01*
X121866819Y-88876094D02*
X120866819Y-88876094D01*
X120866819Y-88876094D02*
X120866819Y-88495142D01*
X120866819Y-88495142D02*
X120914438Y-88399904D01*
X120914438Y-88399904D02*
X120962057Y-88352285D01*
X120962057Y-88352285D02*
X121057295Y-88304666D01*
X121057295Y-88304666D02*
X121200152Y-88304666D01*
X121200152Y-88304666D02*
X121295390Y-88352285D01*
X121295390Y-88352285D02*
X121343009Y-88399904D01*
X121343009Y-88399904D02*
X121390628Y-88495142D01*
X121390628Y-88495142D02*
X121390628Y-88876094D01*
X120866819Y-87447523D02*
X120866819Y-87637999D01*
X120866819Y-87637999D02*
X120914438Y-87733237D01*
X120914438Y-87733237D02*
X120962057Y-87780856D01*
X120962057Y-87780856D02*
X121104914Y-87876094D01*
X121104914Y-87876094D02*
X121295390Y-87923713D01*
X121295390Y-87923713D02*
X121676342Y-87923713D01*
X121676342Y-87923713D02*
X121771580Y-87876094D01*
X121771580Y-87876094D02*
X121819200Y-87828475D01*
X121819200Y-87828475D02*
X121866819Y-87733237D01*
X121866819Y-87733237D02*
X121866819Y-87542761D01*
X121866819Y-87542761D02*
X121819200Y-87447523D01*
X121819200Y-87447523D02*
X121771580Y-87399904D01*
X121771580Y-87399904D02*
X121676342Y-87352285D01*
X121676342Y-87352285D02*
X121438247Y-87352285D01*
X121438247Y-87352285D02*
X121343009Y-87399904D01*
X121343009Y-87399904D02*
X121295390Y-87447523D01*
X121295390Y-87447523D02*
X121247771Y-87542761D01*
X121247771Y-87542761D02*
X121247771Y-87733237D01*
X121247771Y-87733237D02*
X121295390Y-87828475D01*
X121295390Y-87828475D02*
X121343009Y-87876094D01*
X121343009Y-87876094D02*
X121438247Y-87923713D01*
G04 #@! TO.C,C4*
X114895333Y-110087580D02*
X114847714Y-110135200D01*
X114847714Y-110135200D02*
X114704857Y-110182819D01*
X114704857Y-110182819D02*
X114609619Y-110182819D01*
X114609619Y-110182819D02*
X114466762Y-110135200D01*
X114466762Y-110135200D02*
X114371524Y-110039961D01*
X114371524Y-110039961D02*
X114323905Y-109944723D01*
X114323905Y-109944723D02*
X114276286Y-109754247D01*
X114276286Y-109754247D02*
X114276286Y-109611390D01*
X114276286Y-109611390D02*
X114323905Y-109420914D01*
X114323905Y-109420914D02*
X114371524Y-109325676D01*
X114371524Y-109325676D02*
X114466762Y-109230438D01*
X114466762Y-109230438D02*
X114609619Y-109182819D01*
X114609619Y-109182819D02*
X114704857Y-109182819D01*
X114704857Y-109182819D02*
X114847714Y-109230438D01*
X114847714Y-109230438D02*
X114895333Y-109278057D01*
X115752476Y-109516152D02*
X115752476Y-110182819D01*
X115514381Y-109135200D02*
X115276286Y-109849485D01*
X115276286Y-109849485D02*
X115895333Y-109849485D01*
D14*
G04 #@! TO.C,J1*
X106426000Y-116138000D02*
X139446000Y-116138000D01*
X106426000Y-116138000D02*
X106426000Y-113478000D01*
X139446000Y-116138000D02*
X139446000Y-113478000D01*
X106426000Y-113478000D02*
X139446000Y-113478000D01*
D15*
G04 #@! TO.C,L1*
X107416600Y-83566000D02*
G75*
G03*
X107416600Y-83566000I-76200J0D01*
G01*
D14*
G04 #@! TO.C,J3*
X144967000Y-96520000D02*
X142307000Y-96520000D01*
X144907000Y-109474000D02*
X144967000Y-96520000D01*
X144907000Y-109474000D02*
X142247000Y-109474000D01*
X142247000Y-109474000D02*
X142307000Y-96520000D01*
G04 #@! TO.C,JP4*
X141843000Y-86676000D02*
G75*
G03*
X141143000Y-85976000I-700000J0D01*
G01*
X140543000Y-85976000D02*
G75*
G03*
X139843000Y-86676000I0J-700000D01*
G01*
X141143000Y-88776000D02*
G75*
G03*
X141843000Y-88076000I1J699999D01*
G01*
X139843000Y-88076000D02*
G75*
G03*
X140543000Y-88776000I699999J-1D01*
G01*
X140543000Y-85976000D02*
X141143000Y-85976000D01*
X141843000Y-86676000D02*
X141843000Y-88076000D01*
X139843000Y-88076000D02*
X139843000Y-86676000D01*
X141143000Y-88776000D02*
X140543000Y-88776000D01*
G04 #@! TO.C,U2*
X136622000Y-95001500D02*
X136622000Y-93201500D01*
X136622000Y-95001500D02*
X136622000Y-95801500D01*
X133502000Y-95001500D02*
X133502000Y-94201500D01*
X133502000Y-95001500D02*
X133502000Y-95801500D01*
D15*
G04 #@! TO.C,U1*
X116687600Y-86207600D02*
X116687600Y-89560400D01*
X120040400Y-89560400D02*
X120040400Y-86207600D01*
D14*
G04 #@! TO.C,F2*
X138997000Y-86497748D02*
X138997000Y-89270252D01*
X135577000Y-86497748D02*
X135577000Y-89270252D01*
G04 #@! TO.C,J2*
X101794000Y-80284000D02*
X101794000Y-98124000D01*
X101794000Y-80284000D02*
X104454000Y-80284000D01*
X101794000Y-98124000D02*
X104454000Y-98124000D01*
X104454000Y-80284000D02*
X104454000Y-98124000D01*
G04 #@! TO.C,R11*
X131479936Y-85069000D02*
X132934064Y-85069000D01*
X131479936Y-86889000D02*
X132934064Y-86889000D01*
G04 #@! TO.C,Q3*
X130393000Y-89789000D02*
X130393000Y-89139000D01*
X133513000Y-89789000D02*
X133513000Y-89139000D01*
X130393000Y-89789000D02*
X130393000Y-91464000D01*
X133513000Y-89789000D02*
X133513000Y-90439000D01*
G04 #@! TO.C,D2*
X128635000Y-86413000D02*
X126635000Y-86413000D01*
X128635000Y-86413000D02*
X128635000Y-90423000D01*
X126635000Y-86413000D02*
X126635000Y-90423000D01*
G04 #@! TO.C,C1*
X132260000Y-109146000D02*
X132260000Y-105396000D01*
X132260000Y-98626000D02*
X132260000Y-102376000D01*
X122804437Y-109146000D02*
X132260000Y-109146000D01*
X122804437Y-98626000D02*
X132260000Y-98626000D01*
X121740000Y-108081563D02*
X122804437Y-109146000D01*
X121740000Y-108081563D02*
X121740000Y-105396000D01*
X121740000Y-99690437D02*
X122804437Y-98626000D01*
X121740000Y-99690437D02*
X121740000Y-102376000D01*
X120875000Y-100501000D02*
X120875000Y-101751000D01*
X120250000Y-101126000D02*
X121500000Y-101126000D01*
G04 #@! TO.C,JP2*
X138560000Y-82758000D02*
X138560000Y-83358000D01*
X137860000Y-84058000D02*
X136460000Y-84058000D01*
X136460000Y-82058000D02*
X137860000Y-82058000D01*
X135760000Y-83358000D02*
X135760000Y-82758000D01*
X137860000Y-84058000D02*
G75*
G03*
X138560000Y-83358000I1J699999D01*
G01*
X138560000Y-82758000D02*
G75*
G03*
X137860000Y-82058000I-699999J1D01*
G01*
X135760000Y-83358000D02*
G75*
G03*
X136460000Y-84058000I700000J0D01*
G01*
X136460000Y-82058000D02*
G75*
G03*
X135760000Y-82758000I0J-700000D01*
G01*
G04 #@! TO.C,R8*
X126767000Y-83785064D02*
X126767000Y-82330936D01*
X124947000Y-83785064D02*
X124947000Y-82330936D01*
G04 #@! TO.C,R3*
X110270936Y-95398000D02*
X111725064Y-95398000D01*
X110270936Y-93578000D02*
X111725064Y-93578000D01*
G04 #@! TO.C,JP3*
X134285000Y-84458000D02*
X133685000Y-84458000D01*
X132985000Y-83758000D02*
X132985000Y-82358000D01*
X134985000Y-82358000D02*
X134985000Y-83758000D01*
X133685000Y-81658000D02*
X134285000Y-81658000D01*
X132985000Y-83758000D02*
G75*
G03*
X133685000Y-84458000I699999J-1D01*
G01*
X134285000Y-84458000D02*
G75*
G03*
X134985000Y-83758000I1J699999D01*
G01*
X133685000Y-81658000D02*
G75*
G03*
X132985000Y-82358000I0J-700000D01*
G01*
X134985000Y-82358000D02*
G75*
G03*
X134285000Y-81658000I-700000J0D01*
G01*
G04 #@! TO.C,R9*
X125370000Y-95342064D02*
X125370000Y-93887936D01*
X123550000Y-95342064D02*
X123550000Y-93887936D01*
G04 #@! TO.C,R7*
X124100000Y-82330936D02*
X124100000Y-83785064D01*
X122280000Y-82330936D02*
X122280000Y-83785064D01*
G04 #@! TO.C,R1*
X135670936Y-108606000D02*
X137125064Y-108606000D01*
X135670936Y-106786000D02*
X137125064Y-106786000D01*
G04 #@! TO.C,C6*
X142769000Y-93802252D02*
X142769000Y-92379748D01*
X140949000Y-93802252D02*
X140949000Y-92379748D01*
G04 #@! TO.C,Q1*
X137958000Y-103886000D02*
X137958000Y-103236000D01*
X137958000Y-103886000D02*
X137958000Y-104536000D01*
X134838000Y-103886000D02*
X134838000Y-103236000D01*
X134838000Y-103886000D02*
X134838000Y-105561000D01*
G04 #@! TO.C,F1*
X112384252Y-92388000D02*
X109611748Y-92388000D01*
X112384252Y-88968000D02*
X109611748Y-88968000D01*
G04 #@! TO.C,Q2*
X119416000Y-103378000D02*
X119416000Y-102728000D01*
X119416000Y-103378000D02*
X119416000Y-104028000D01*
X116296000Y-103378000D02*
X116296000Y-102728000D01*
X116296000Y-103378000D02*
X116296000Y-105053000D01*
G04 #@! TO.C,R2*
X135670936Y-100732000D02*
X137125064Y-100732000D01*
X135670936Y-98912000D02*
X137125064Y-98912000D01*
G04 #@! TO.C,JP1*
X111698000Y-88376000D02*
G75*
G03*
X112398000Y-87676000I0J700000D01*
G01*
X112398000Y-87076000D02*
G75*
G03*
X111698000Y-86376000I-700000J0D01*
G01*
X109598000Y-87676000D02*
G75*
G03*
X110298000Y-88376000I699999J-1D01*
G01*
X110298000Y-86376000D02*
G75*
G03*
X109598000Y-87076000I-1J-699999D01*
G01*
X112398000Y-87076000D02*
X112398000Y-87676000D01*
X111698000Y-88376000D02*
X110298000Y-88376000D01*
X110298000Y-86376000D02*
X111698000Y-86376000D01*
X109598000Y-87676000D02*
X109598000Y-87076000D01*
G04 #@! TO.C,R4*
X117636936Y-108606000D02*
X119091064Y-108606000D01*
X117636936Y-106786000D02*
X119091064Y-106786000D01*
G04 #@! TO.C,C8*
X139721000Y-94945252D02*
X139721000Y-93522748D01*
X137901000Y-94945252D02*
X137901000Y-93522748D01*
G04 #@! TO.C,R5*
X117636936Y-99716000D02*
X119091064Y-99716000D01*
X117636936Y-97896000D02*
X119091064Y-97896000D01*
G04 #@! TO.C,C5*
X117652748Y-82952000D02*
X119075252Y-82952000D01*
X117652748Y-81132000D02*
X119075252Y-81132000D01*
G04 #@! TO.C,R10*
X126725000Y-93887936D02*
X126725000Y-95342064D01*
X128545000Y-93887936D02*
X128545000Y-95342064D01*
G04 #@! TO.C,C7*
X129336748Y-82698000D02*
X130759252Y-82698000D01*
X129336748Y-80878000D02*
X130759252Y-80878000D01*
G04 #@! TO.C,C2*
X119583252Y-93070000D02*
X118160748Y-93070000D01*
X119583252Y-94890000D02*
X118160748Y-94890000D01*
G04 #@! TO.C,C3*
X131720000Y-95326252D02*
X131720000Y-93903748D01*
X129900000Y-95326252D02*
X129900000Y-93903748D01*
G04 #@! TO.C,R6*
X124100000Y-88172936D02*
X124100000Y-89627064D01*
X122280000Y-88172936D02*
X122280000Y-89627064D01*
G04 #@! TO.C,C4*
X106968000Y-110763000D02*
X106968000Y-109513000D01*
X106343000Y-110138000D02*
X107593000Y-110138000D01*
X105532437Y-109273000D02*
X108218000Y-109273000D01*
X105532437Y-109273000D02*
X104468000Y-108208563D01*
X113923563Y-109273000D02*
X111238000Y-109273000D01*
X113923563Y-109273000D02*
X114988000Y-108208563D01*
X104468000Y-108208563D02*
X104468000Y-98753000D01*
X114988000Y-108208563D02*
X114988000Y-98753000D01*
X104468000Y-98753000D02*
X108218000Y-98753000D01*
X114988000Y-98753000D02*
X111238000Y-98753000D01*
G04 #@! TD*
M02*
