M48
; DRILL file {KiCad 7.0.5-0} date 2024 February 05, Monday 02:53:28
; FORMAT={-:-/ absolute / metric / decimal}
; #@! TF.CreationDate,2024-02-05T02:53:28-05:00
; #@! TF.GenerationSoftware,Kicad,Pcbnew,7.0.5-0
; #@! TF.FileFunction,MixedPlating,1,2
FMAT,2
METRIC
; #@! TA.AperFunction,Plated,PTH,ViaDrill
T1C0.400
; #@! TA.AperFunction,Plated,PTH,ComponentDrill
T2C1.000
%
G90
G05
T1
X106.68Y-86.741
X106.807Y-81.534
X110.109Y-90.678
X111.252Y-92.71
X112.522Y-96.774
X112.776Y-106.426
X113.03Y-99.06
X114.808Y-107.696
X115.316Y-90.678
X116.078Y-102.362
X116.205Y-84.328
X117.309Y-95.974
X118.364Y-98.806
X118.618Y-105.918
X120.904Y-91.694
X121.158Y-89.662
X121.285Y-82.042
X122.428Y-94.234
X123.19Y-91.694
X124.46Y-99.949
X125.349Y-89.789
X125.476Y-86.614
X126.111Y-93.091
X126.619Y-107.696
X127.0Y-82.55
X127.889Y-84.963
X129.413Y-85.979
X129.413Y-90.678
X129.54Y-99.822
X130.429Y-81.788
X131.826Y-101.346
X133.35Y-98.171
X133.858Y-104.648
X133.985Y-89.281
X134.112Y-87.757
X135.001Y-91.694
X136.144Y-107.442
X136.398Y-99.822
X137.16Y-91.948
X137.287Y-88.392
X137.922Y-84.582
X138.176Y-97.536
X139.7Y-102.616
X139.7Y-109.728
X140.208Y-111.379
X140.843Y-85.344
X142.24Y-89.662
T2
X103.124Y-81.554
X103.124Y-84.094
X103.124Y-86.634
X103.124Y-89.174
X103.124Y-91.714
X103.124Y-94.254
X103.124Y-96.794
X107.696Y-114.808
X110.236Y-114.808
X112.776Y-114.808
X115.316Y-114.808
X117.856Y-114.808
X120.396Y-114.808
X122.936Y-114.808
X125.476Y-114.808
X128.016Y-114.808
X130.556Y-114.808
X133.096Y-114.808
X135.636Y-114.808
X138.176Y-114.808
X143.637Y-98.044
X143.637Y-100.584
X143.637Y-103.124
X143.637Y-105.664
X143.637Y-108.204
T0
M30
