G04 #@! TF.GenerationSoftware,KiCad,Pcbnew,7.0.5-0*
G04 #@! TF.CreationDate,2024-02-05T02:53:32-05:00*
G04 #@! TF.ProjectId,boostlet,626f6f73-746c-4657-942e-6b696361645f,rev?*
G04 #@! TF.SameCoordinates,Original*
G04 #@! TF.FileFunction,Legend,Bot*
G04 #@! TF.FilePolarity,Positive*
%FSLAX46Y46*%
G04 Gerber Fmt 4.6, Leading zero omitted, Abs format (unit mm)*
G04 Created by KiCad (PCBNEW 7.0.5-0) date 2024-02-05 02:53:32*
%MOMM*%
%LPD*%
G01*
G04 APERTURE LIST*
%ADD10C,0.150000*%
%ADD11C,0.200000*%
%ADD12C,0.162500*%
%ADD13C,0.180000*%
%ADD14C,0.600000*%
%ADD15C,0.010000*%
%ADD16C,0.120000*%
G04 APERTURE END LIST*
D10*
X129127250Y-106235500D02*
X131222750Y-106235500D01*
X131222750Y-108204000D01*
X129127250Y-108204000D01*
X129127250Y-106235500D01*
G36*
X129127250Y-106235500D02*
G01*
X131222750Y-106235500D01*
X131222750Y-108204000D01*
X129127250Y-108204000D01*
X129127250Y-106235500D01*
G37*
X112395000Y-106076750D02*
X114490500Y-106076750D01*
X114490500Y-108045250D01*
X112395000Y-108045250D01*
X112395000Y-106076750D01*
G36*
X112395000Y-106076750D02*
G01*
X114490500Y-106076750D01*
X114490500Y-108045250D01*
X112395000Y-108045250D01*
X112395000Y-106076750D01*
G37*
X112395000Y-100488750D02*
X114490500Y-100488750D01*
X114490500Y-102457250D01*
X112395000Y-102457250D01*
X112395000Y-100488750D01*
G36*
X112395000Y-100488750D02*
G01*
X114490500Y-100488750D01*
X114490500Y-102457250D01*
X112395000Y-102457250D01*
X112395000Y-100488750D01*
G37*
X129127250Y-103568500D02*
X131222750Y-103568500D01*
X131222750Y-105537000D01*
X129127250Y-105537000D01*
X129127250Y-103568500D01*
G36*
X129127250Y-103568500D02*
G01*
X131222750Y-103568500D01*
X131222750Y-105537000D01*
X129127250Y-105537000D01*
X129127250Y-103568500D01*
G37*
X112395000Y-103282750D02*
X114490500Y-103282750D01*
X114490500Y-105251250D01*
X112395000Y-105251250D01*
X112395000Y-103282750D01*
G36*
X112395000Y-103282750D02*
G01*
X114490500Y-103282750D01*
X114490500Y-105251250D01*
X112395000Y-105251250D01*
X112395000Y-103282750D01*
G37*
X129127250Y-97853500D02*
X131222750Y-97853500D01*
X131222750Y-99822000D01*
X129127250Y-99822000D01*
X129127250Y-97853500D01*
G36*
X129127250Y-97853500D02*
G01*
X131222750Y-97853500D01*
X131222750Y-99822000D01*
X129127250Y-99822000D01*
X129127250Y-97853500D01*
G37*
X129127250Y-109029500D02*
X131222750Y-109029500D01*
X131222750Y-110998000D01*
X129127250Y-110998000D01*
X129127250Y-109029500D01*
G36*
X129127250Y-109029500D02*
G01*
X131222750Y-109029500D01*
X131222750Y-110998000D01*
X129127250Y-110998000D01*
X129127250Y-109029500D01*
G37*
X112395000Y-108870750D02*
X114490500Y-108870750D01*
X114490500Y-110839250D01*
X112395000Y-110839250D01*
X112395000Y-108870750D01*
G36*
X112395000Y-108870750D02*
G01*
X114490500Y-108870750D01*
X114490500Y-110839250D01*
X112395000Y-110839250D01*
X112395000Y-108870750D01*
G37*
X129127250Y-100647500D02*
X131222750Y-100647500D01*
X131222750Y-102616000D01*
X129127250Y-102616000D01*
X129127250Y-100647500D01*
G36*
X129127250Y-100647500D02*
G01*
X131222750Y-100647500D01*
X131222750Y-102616000D01*
X129127250Y-102616000D01*
X129127250Y-100647500D01*
G37*
X112458500Y-97821750D02*
X114554000Y-97821750D01*
X114554000Y-99790250D01*
X112458500Y-99790250D01*
X112458500Y-97821750D01*
G36*
X112458500Y-97821750D02*
G01*
X114554000Y-97821750D01*
X114554000Y-99790250D01*
X112458500Y-99790250D01*
X112458500Y-97821750D01*
G37*
D11*
X111358564Y-109384219D02*
X110739517Y-109384219D01*
X110739517Y-109384219D02*
X111072850Y-109765171D01*
X111072850Y-109765171D02*
X110929993Y-109765171D01*
X110929993Y-109765171D02*
X110834755Y-109812790D01*
X110834755Y-109812790D02*
X110787136Y-109860409D01*
X110787136Y-109860409D02*
X110739517Y-109955647D01*
X110739517Y-109955647D02*
X110739517Y-110193742D01*
X110739517Y-110193742D02*
X110787136Y-110288980D01*
X110787136Y-110288980D02*
X110834755Y-110336600D01*
X110834755Y-110336600D02*
X110929993Y-110384219D01*
X110929993Y-110384219D02*
X111215707Y-110384219D01*
X111215707Y-110384219D02*
X111310945Y-110336600D01*
X111310945Y-110336600D02*
X111358564Y-110288980D01*
X110310945Y-110288980D02*
X110263326Y-110336600D01*
X110263326Y-110336600D02*
X110310945Y-110384219D01*
X110310945Y-110384219D02*
X110358564Y-110336600D01*
X110358564Y-110336600D02*
X110310945Y-110288980D01*
X110310945Y-110288980D02*
X110310945Y-110384219D01*
X109929993Y-109384219D02*
X109310946Y-109384219D01*
X109310946Y-109384219D02*
X109644279Y-109765171D01*
X109644279Y-109765171D02*
X109501422Y-109765171D01*
X109501422Y-109765171D02*
X109406184Y-109812790D01*
X109406184Y-109812790D02*
X109358565Y-109860409D01*
X109358565Y-109860409D02*
X109310946Y-109955647D01*
X109310946Y-109955647D02*
X109310946Y-110193742D01*
X109310946Y-110193742D02*
X109358565Y-110288980D01*
X109358565Y-110288980D02*
X109406184Y-110336600D01*
X109406184Y-110336600D02*
X109501422Y-110384219D01*
X109501422Y-110384219D02*
X109787136Y-110384219D01*
X109787136Y-110384219D02*
X109882374Y-110336600D01*
X109882374Y-110336600D02*
X109929993Y-110288980D01*
X109025231Y-109384219D02*
X108691898Y-110384219D01*
X108691898Y-110384219D02*
X108358565Y-109384219D01*
X106691898Y-110384219D02*
X107025231Y-109908028D01*
X107263326Y-110384219D02*
X107263326Y-109384219D01*
X107263326Y-109384219D02*
X106882374Y-109384219D01*
X106882374Y-109384219D02*
X106787136Y-109431838D01*
X106787136Y-109431838D02*
X106739517Y-109479457D01*
X106739517Y-109479457D02*
X106691898Y-109574695D01*
X106691898Y-109574695D02*
X106691898Y-109717552D01*
X106691898Y-109717552D02*
X106739517Y-109812790D01*
X106739517Y-109812790D02*
X106787136Y-109860409D01*
X106787136Y-109860409D02*
X106882374Y-109908028D01*
X106882374Y-109908028D02*
X107263326Y-109908028D01*
X105882374Y-110336600D02*
X105977612Y-110384219D01*
X105977612Y-110384219D02*
X106168088Y-110384219D01*
X106168088Y-110384219D02*
X106263326Y-110336600D01*
X106263326Y-110336600D02*
X106310945Y-110241361D01*
X106310945Y-110241361D02*
X106310945Y-109860409D01*
X106310945Y-109860409D02*
X106263326Y-109765171D01*
X106263326Y-109765171D02*
X106168088Y-109717552D01*
X106168088Y-109717552D02*
X105977612Y-109717552D01*
X105977612Y-109717552D02*
X105882374Y-109765171D01*
X105882374Y-109765171D02*
X105834755Y-109860409D01*
X105834755Y-109860409D02*
X105834755Y-109955647D01*
X105834755Y-109955647D02*
X106310945Y-110050885D01*
X104977612Y-109717552D02*
X104977612Y-110527076D01*
X104977612Y-110527076D02*
X105025231Y-110622314D01*
X105025231Y-110622314D02*
X105072850Y-110669933D01*
X105072850Y-110669933D02*
X105168088Y-110717552D01*
X105168088Y-110717552D02*
X105310945Y-110717552D01*
X105310945Y-110717552D02*
X105406183Y-110669933D01*
X104977612Y-110336600D02*
X105072850Y-110384219D01*
X105072850Y-110384219D02*
X105263326Y-110384219D01*
X105263326Y-110384219D02*
X105358564Y-110336600D01*
X105358564Y-110336600D02*
X105406183Y-110288980D01*
X105406183Y-110288980D02*
X105453802Y-110193742D01*
X105453802Y-110193742D02*
X105453802Y-109908028D01*
X105453802Y-109908028D02*
X105406183Y-109812790D01*
X105406183Y-109812790D02*
X105358564Y-109765171D01*
X105358564Y-109765171D02*
X105263326Y-109717552D01*
X105263326Y-109717552D02*
X105072850Y-109717552D01*
X105072850Y-109717552D02*
X104977612Y-109765171D01*
X130487993Y-96271409D02*
X130345136Y-96319028D01*
X130345136Y-96319028D02*
X130297517Y-96366647D01*
X130297517Y-96366647D02*
X130249898Y-96461885D01*
X130249898Y-96461885D02*
X130249898Y-96604742D01*
X130249898Y-96604742D02*
X130297517Y-96699980D01*
X130297517Y-96699980D02*
X130345136Y-96747600D01*
X130345136Y-96747600D02*
X130440374Y-96795219D01*
X130440374Y-96795219D02*
X130821326Y-96795219D01*
X130821326Y-96795219D02*
X130821326Y-95795219D01*
X130821326Y-95795219D02*
X130487993Y-95795219D01*
X130487993Y-95795219D02*
X130392755Y-95842838D01*
X130392755Y-95842838D02*
X130345136Y-95890457D01*
X130345136Y-95890457D02*
X130297517Y-95985695D01*
X130297517Y-95985695D02*
X130297517Y-96080933D01*
X130297517Y-96080933D02*
X130345136Y-96176171D01*
X130345136Y-96176171D02*
X130392755Y-96223790D01*
X130392755Y-96223790D02*
X130487993Y-96271409D01*
X130487993Y-96271409D02*
X130821326Y-96271409D01*
X129392755Y-96795219D02*
X129392755Y-96271409D01*
X129392755Y-96271409D02*
X129440374Y-96176171D01*
X129440374Y-96176171D02*
X129535612Y-96128552D01*
X129535612Y-96128552D02*
X129726088Y-96128552D01*
X129726088Y-96128552D02*
X129821326Y-96176171D01*
X129392755Y-96747600D02*
X129487993Y-96795219D01*
X129487993Y-96795219D02*
X129726088Y-96795219D01*
X129726088Y-96795219D02*
X129821326Y-96747600D01*
X129821326Y-96747600D02*
X129868945Y-96652361D01*
X129868945Y-96652361D02*
X129868945Y-96557123D01*
X129868945Y-96557123D02*
X129821326Y-96461885D01*
X129821326Y-96461885D02*
X129726088Y-96414266D01*
X129726088Y-96414266D02*
X129487993Y-96414266D01*
X129487993Y-96414266D02*
X129392755Y-96366647D01*
X129059421Y-96128552D02*
X128678469Y-96128552D01*
X128916564Y-95795219D02*
X128916564Y-96652361D01*
X128916564Y-96652361D02*
X128868945Y-96747600D01*
X128868945Y-96747600D02*
X128773707Y-96795219D01*
X128773707Y-96795219D02*
X128678469Y-96795219D01*
X128487992Y-96128552D02*
X128107040Y-96128552D01*
X128345135Y-95795219D02*
X128345135Y-96652361D01*
X128345135Y-96652361D02*
X128297516Y-96747600D01*
X128297516Y-96747600D02*
X128202278Y-96795219D01*
X128202278Y-96795219D02*
X128107040Y-96795219D01*
X127059420Y-96747600D02*
X126916563Y-96795219D01*
X126916563Y-96795219D02*
X126678468Y-96795219D01*
X126678468Y-96795219D02*
X126583230Y-96747600D01*
X126583230Y-96747600D02*
X126535611Y-96699980D01*
X126535611Y-96699980D02*
X126487992Y-96604742D01*
X126487992Y-96604742D02*
X126487992Y-96509504D01*
X126487992Y-96509504D02*
X126535611Y-96414266D01*
X126535611Y-96414266D02*
X126583230Y-96366647D01*
X126583230Y-96366647D02*
X126678468Y-96319028D01*
X126678468Y-96319028D02*
X126868944Y-96271409D01*
X126868944Y-96271409D02*
X126964182Y-96223790D01*
X126964182Y-96223790D02*
X127011801Y-96176171D01*
X127011801Y-96176171D02*
X127059420Y-96080933D01*
X127059420Y-96080933D02*
X127059420Y-95985695D01*
X127059420Y-95985695D02*
X127011801Y-95890457D01*
X127011801Y-95890457D02*
X126964182Y-95842838D01*
X126964182Y-95842838D02*
X126868944Y-95795219D01*
X126868944Y-95795219D02*
X126630849Y-95795219D01*
X126630849Y-95795219D02*
X126487992Y-95842838D01*
X126059420Y-96795219D02*
X126059420Y-96128552D01*
X126059420Y-95795219D02*
X126107039Y-95842838D01*
X126107039Y-95842838D02*
X126059420Y-95890457D01*
X126059420Y-95890457D02*
X126011801Y-95842838D01*
X126011801Y-95842838D02*
X126059420Y-95795219D01*
X126059420Y-95795219D02*
X126059420Y-95890457D01*
X125154659Y-96128552D02*
X125154659Y-96938076D01*
X125154659Y-96938076D02*
X125202278Y-97033314D01*
X125202278Y-97033314D02*
X125249897Y-97080933D01*
X125249897Y-97080933D02*
X125345135Y-97128552D01*
X125345135Y-97128552D02*
X125487992Y-97128552D01*
X125487992Y-97128552D02*
X125583230Y-97080933D01*
X125154659Y-96747600D02*
X125249897Y-96795219D01*
X125249897Y-96795219D02*
X125440373Y-96795219D01*
X125440373Y-96795219D02*
X125535611Y-96747600D01*
X125535611Y-96747600D02*
X125583230Y-96699980D01*
X125583230Y-96699980D02*
X125630849Y-96604742D01*
X125630849Y-96604742D02*
X125630849Y-96319028D01*
X125630849Y-96319028D02*
X125583230Y-96223790D01*
X125583230Y-96223790D02*
X125535611Y-96176171D01*
X125535611Y-96176171D02*
X125440373Y-96128552D01*
X125440373Y-96128552D02*
X125249897Y-96128552D01*
X125249897Y-96128552D02*
X125154659Y-96176171D01*
X124678468Y-96699980D02*
X124630849Y-96747600D01*
X124630849Y-96747600D02*
X124678468Y-96795219D01*
X124678468Y-96795219D02*
X124726087Y-96747600D01*
X124726087Y-96747600D02*
X124678468Y-96699980D01*
X124678468Y-96699980D02*
X124678468Y-96795219D01*
X124678468Y-96176171D02*
X124630849Y-96223790D01*
X124630849Y-96223790D02*
X124678468Y-96271409D01*
X124678468Y-96271409D02*
X124726087Y-96223790D01*
X124726087Y-96223790D02*
X124678468Y-96176171D01*
X124678468Y-96176171D02*
X124678468Y-96271409D01*
D12*
X124005521Y-94574692D02*
X124048378Y-94617550D01*
X124048378Y-94617550D02*
X124176950Y-94660407D01*
X124176950Y-94660407D02*
X124262664Y-94660407D01*
X124262664Y-94660407D02*
X124391235Y-94617550D01*
X124391235Y-94617550D02*
X124476950Y-94531835D01*
X124476950Y-94531835D02*
X124519807Y-94446121D01*
X124519807Y-94446121D02*
X124562664Y-94274692D01*
X124562664Y-94274692D02*
X124562664Y-94146121D01*
X124562664Y-94146121D02*
X124519807Y-93974692D01*
X124519807Y-93974692D02*
X124476950Y-93888978D01*
X124476950Y-93888978D02*
X124391235Y-93803264D01*
X124391235Y-93803264D02*
X124262664Y-93760407D01*
X124262664Y-93760407D02*
X124176950Y-93760407D01*
X124176950Y-93760407D02*
X124048378Y-93803264D01*
X124048378Y-93803264D02*
X124005521Y-93846121D01*
X123619807Y-94188978D02*
X123319807Y-94188978D01*
X123191235Y-94660407D02*
X123619807Y-94660407D01*
X123619807Y-94660407D02*
X123619807Y-93760407D01*
X123619807Y-93760407D02*
X123191235Y-93760407D01*
X122291235Y-94660407D02*
X122591235Y-94231835D01*
X122805521Y-94660407D02*
X122805521Y-93760407D01*
X122805521Y-93760407D02*
X122462664Y-93760407D01*
X122462664Y-93760407D02*
X122376949Y-93803264D01*
X122376949Y-93803264D02*
X122334092Y-93846121D01*
X122334092Y-93846121D02*
X122291235Y-93931835D01*
X122291235Y-93931835D02*
X122291235Y-94060407D01*
X122291235Y-94060407D02*
X122334092Y-94146121D01*
X122334092Y-94146121D02*
X122376949Y-94188978D01*
X122376949Y-94188978D02*
X122462664Y-94231835D01*
X122462664Y-94231835D02*
X122805521Y-94231835D01*
X121905521Y-94660407D02*
X121905521Y-93760407D01*
X121905521Y-93760407D02*
X121391235Y-94660407D01*
X121391235Y-94660407D02*
X121391235Y-93760407D01*
X120962664Y-94317550D02*
X120276950Y-94317550D01*
X119676949Y-93760407D02*
X119505521Y-93760407D01*
X119505521Y-93760407D02*
X119419806Y-93803264D01*
X119419806Y-93803264D02*
X119334092Y-93888978D01*
X119334092Y-93888978D02*
X119291235Y-94060407D01*
X119291235Y-94060407D02*
X119291235Y-94360407D01*
X119291235Y-94360407D02*
X119334092Y-94531835D01*
X119334092Y-94531835D02*
X119419806Y-94617550D01*
X119419806Y-94617550D02*
X119505521Y-94660407D01*
X119505521Y-94660407D02*
X119676949Y-94660407D01*
X119676949Y-94660407D02*
X119762664Y-94617550D01*
X119762664Y-94617550D02*
X119848378Y-94531835D01*
X119848378Y-94531835D02*
X119891235Y-94360407D01*
X119891235Y-94360407D02*
X119891235Y-94060407D01*
X119891235Y-94060407D02*
X119848378Y-93888978D01*
X119848378Y-93888978D02*
X119762664Y-93803264D01*
X119762664Y-93803264D02*
X119676949Y-93760407D01*
X118905521Y-94660407D02*
X118905521Y-93760407D01*
X118905521Y-94188978D02*
X118391235Y-94188978D01*
X118391235Y-94660407D02*
X118391235Y-93760407D01*
X117534092Y-94660407D02*
X117962664Y-94660407D01*
X117962664Y-94660407D02*
X117962664Y-93760407D01*
X117234093Y-94317550D02*
X116548379Y-94317550D01*
X116119807Y-94660407D02*
X116119807Y-93760407D01*
X116119807Y-93760407D02*
X115776950Y-93760407D01*
X115776950Y-93760407D02*
X115691235Y-93803264D01*
X115691235Y-93803264D02*
X115648378Y-93846121D01*
X115648378Y-93846121D02*
X115605521Y-93931835D01*
X115605521Y-93931835D02*
X115605521Y-94060407D01*
X115605521Y-94060407D02*
X115648378Y-94146121D01*
X115648378Y-94146121D02*
X115691235Y-94188978D01*
X115691235Y-94188978D02*
X115776950Y-94231835D01*
X115776950Y-94231835D02*
X116119807Y-94231835D01*
D11*
X111263326Y-107590219D02*
X111263326Y-106590219D01*
X111263326Y-106590219D02*
X110882374Y-106590219D01*
X110882374Y-106590219D02*
X110787136Y-106637838D01*
X110787136Y-106637838D02*
X110739517Y-106685457D01*
X110739517Y-106685457D02*
X110691898Y-106780695D01*
X110691898Y-106780695D02*
X110691898Y-106923552D01*
X110691898Y-106923552D02*
X110739517Y-107018790D01*
X110739517Y-107018790D02*
X110787136Y-107066409D01*
X110787136Y-107066409D02*
X110882374Y-107114028D01*
X110882374Y-107114028D02*
X111263326Y-107114028D01*
X110406183Y-106590219D02*
X109834755Y-106590219D01*
X110120469Y-107590219D02*
X110120469Y-106590219D01*
X108929993Y-107494980D02*
X108977612Y-107542600D01*
X108977612Y-107542600D02*
X109120469Y-107590219D01*
X109120469Y-107590219D02*
X109215707Y-107590219D01*
X109215707Y-107590219D02*
X109358564Y-107542600D01*
X109358564Y-107542600D02*
X109453802Y-107447361D01*
X109453802Y-107447361D02*
X109501421Y-107352123D01*
X109501421Y-107352123D02*
X109549040Y-107161647D01*
X109549040Y-107161647D02*
X109549040Y-107018790D01*
X109549040Y-107018790D02*
X109501421Y-106828314D01*
X109501421Y-106828314D02*
X109453802Y-106733076D01*
X109453802Y-106733076D02*
X109358564Y-106637838D01*
X109358564Y-106637838D02*
X109215707Y-106590219D01*
X109215707Y-106590219D02*
X109120469Y-106590219D01*
X109120469Y-106590219D02*
X108977612Y-106637838D01*
X108977612Y-106637838D02*
X108929993Y-106685457D01*
X107596659Y-107590219D02*
X107691897Y-107542600D01*
X107691897Y-107542600D02*
X107739516Y-107494980D01*
X107739516Y-107494980D02*
X107787135Y-107399742D01*
X107787135Y-107399742D02*
X107787135Y-107114028D01*
X107787135Y-107114028D02*
X107739516Y-107018790D01*
X107739516Y-107018790D02*
X107691897Y-106971171D01*
X107691897Y-106971171D02*
X107596659Y-106923552D01*
X107596659Y-106923552D02*
X107453802Y-106923552D01*
X107453802Y-106923552D02*
X107358564Y-106971171D01*
X107358564Y-106971171D02*
X107310945Y-107018790D01*
X107310945Y-107018790D02*
X107263326Y-107114028D01*
X107263326Y-107114028D02*
X107263326Y-107399742D01*
X107263326Y-107399742D02*
X107310945Y-107494980D01*
X107310945Y-107494980D02*
X107358564Y-107542600D01*
X107358564Y-107542600D02*
X107453802Y-107590219D01*
X107453802Y-107590219D02*
X107596659Y-107590219D01*
X106406183Y-106923552D02*
X106406183Y-107590219D01*
X106834754Y-106923552D02*
X106834754Y-107447361D01*
X106834754Y-107447361D02*
X106787135Y-107542600D01*
X106787135Y-107542600D02*
X106691897Y-107590219D01*
X106691897Y-107590219D02*
X106549040Y-107590219D01*
X106549040Y-107590219D02*
X106453802Y-107542600D01*
X106453802Y-107542600D02*
X106406183Y-107494980D01*
X106072849Y-106923552D02*
X105691897Y-106923552D01*
X105929992Y-106590219D02*
X105929992Y-107447361D01*
X105929992Y-107447361D02*
X105882373Y-107542600D01*
X105882373Y-107542600D02*
X105787135Y-107590219D01*
X105787135Y-107590219D02*
X105691897Y-107590219D01*
X127582850Y-106717219D02*
X127392374Y-106717219D01*
X127392374Y-106717219D02*
X127297136Y-106764838D01*
X127297136Y-106764838D02*
X127201898Y-106860076D01*
X127201898Y-106860076D02*
X127154279Y-107050552D01*
X127154279Y-107050552D02*
X127154279Y-107383885D01*
X127154279Y-107383885D02*
X127201898Y-107574361D01*
X127201898Y-107574361D02*
X127297136Y-107669600D01*
X127297136Y-107669600D02*
X127392374Y-107717219D01*
X127392374Y-107717219D02*
X127582850Y-107717219D01*
X127582850Y-107717219D02*
X127678088Y-107669600D01*
X127678088Y-107669600D02*
X127773326Y-107574361D01*
X127773326Y-107574361D02*
X127820945Y-107383885D01*
X127820945Y-107383885D02*
X127820945Y-107050552D01*
X127820945Y-107050552D02*
X127773326Y-106860076D01*
X127773326Y-106860076D02*
X127678088Y-106764838D01*
X127678088Y-106764838D02*
X127582850Y-106717219D01*
X126868564Y-107050552D02*
X126487612Y-107050552D01*
X126725707Y-106717219D02*
X126725707Y-107574361D01*
X126725707Y-107574361D02*
X126678088Y-107669600D01*
X126678088Y-107669600D02*
X126582850Y-107717219D01*
X126582850Y-107717219D02*
X126487612Y-107717219D01*
X126154278Y-107717219D02*
X126154278Y-106717219D01*
X125725707Y-107717219D02*
X125725707Y-107193409D01*
X125725707Y-107193409D02*
X125773326Y-107098171D01*
X125773326Y-107098171D02*
X125868564Y-107050552D01*
X125868564Y-107050552D02*
X126011421Y-107050552D01*
X126011421Y-107050552D02*
X126106659Y-107098171D01*
X126106659Y-107098171D02*
X126154278Y-107145790D01*
X124868564Y-107669600D02*
X124963802Y-107717219D01*
X124963802Y-107717219D02*
X125154278Y-107717219D01*
X125154278Y-107717219D02*
X125249516Y-107669600D01*
X125249516Y-107669600D02*
X125297135Y-107574361D01*
X125297135Y-107574361D02*
X125297135Y-107193409D01*
X125297135Y-107193409D02*
X125249516Y-107098171D01*
X125249516Y-107098171D02*
X125154278Y-107050552D01*
X125154278Y-107050552D02*
X124963802Y-107050552D01*
X124963802Y-107050552D02*
X124868564Y-107098171D01*
X124868564Y-107098171D02*
X124820945Y-107193409D01*
X124820945Y-107193409D02*
X124820945Y-107288647D01*
X124820945Y-107288647D02*
X125297135Y-107383885D01*
X124392373Y-107717219D02*
X124392373Y-107050552D01*
X124392373Y-107241028D02*
X124344754Y-107145790D01*
X124344754Y-107145790D02*
X124297135Y-107098171D01*
X124297135Y-107098171D02*
X124201897Y-107050552D01*
X124201897Y-107050552D02*
X124106659Y-107050552D01*
X127820945Y-98303457D02*
X127773326Y-98255838D01*
X127773326Y-98255838D02*
X127678088Y-98208219D01*
X127678088Y-98208219D02*
X127439993Y-98208219D01*
X127439993Y-98208219D02*
X127344755Y-98255838D01*
X127344755Y-98255838D02*
X127297136Y-98303457D01*
X127297136Y-98303457D02*
X127249517Y-98398695D01*
X127249517Y-98398695D02*
X127249517Y-98493933D01*
X127249517Y-98493933D02*
X127297136Y-98636790D01*
X127297136Y-98636790D02*
X127868564Y-99208219D01*
X127868564Y-99208219D02*
X127249517Y-99208219D01*
X126916183Y-99208219D02*
X126392374Y-98541552D01*
X126916183Y-98541552D02*
X126392374Y-99208219D01*
X126059040Y-98922504D02*
X125582850Y-98922504D01*
X126154278Y-99208219D02*
X125820945Y-98208219D01*
X125820945Y-98208219D02*
X125487612Y-99208219D01*
X125201897Y-98922504D02*
X124725707Y-98922504D01*
X125297135Y-99208219D02*
X124963802Y-98208219D01*
X124963802Y-98208219D02*
X124630469Y-99208219D01*
X127773326Y-109384219D02*
X127773326Y-110193742D01*
X127773326Y-110193742D02*
X127725707Y-110288980D01*
X127725707Y-110288980D02*
X127678088Y-110336600D01*
X127678088Y-110336600D02*
X127582850Y-110384219D01*
X127582850Y-110384219D02*
X127392374Y-110384219D01*
X127392374Y-110384219D02*
X127297136Y-110336600D01*
X127297136Y-110336600D02*
X127249517Y-110288980D01*
X127249517Y-110288980D02*
X127201898Y-110193742D01*
X127201898Y-110193742D02*
X127201898Y-109384219D01*
X126725707Y-109717552D02*
X126725707Y-110384219D01*
X126725707Y-109812790D02*
X126678088Y-109765171D01*
X126678088Y-109765171D02*
X126582850Y-109717552D01*
X126582850Y-109717552D02*
X126439993Y-109717552D01*
X126439993Y-109717552D02*
X126344755Y-109765171D01*
X126344755Y-109765171D02*
X126297136Y-109860409D01*
X126297136Y-109860409D02*
X126297136Y-110384219D01*
X125820945Y-109717552D02*
X125820945Y-110717552D01*
X125820945Y-109765171D02*
X125725707Y-109717552D01*
X125725707Y-109717552D02*
X125535231Y-109717552D01*
X125535231Y-109717552D02*
X125439993Y-109765171D01*
X125439993Y-109765171D02*
X125392374Y-109812790D01*
X125392374Y-109812790D02*
X125344755Y-109908028D01*
X125344755Y-109908028D02*
X125344755Y-110193742D01*
X125344755Y-110193742D02*
X125392374Y-110288980D01*
X125392374Y-110288980D02*
X125439993Y-110336600D01*
X125439993Y-110336600D02*
X125535231Y-110384219D01*
X125535231Y-110384219D02*
X125725707Y-110384219D01*
X125725707Y-110384219D02*
X125820945Y-110336600D01*
X124773326Y-110384219D02*
X124868564Y-110336600D01*
X124868564Y-110336600D02*
X124916183Y-110288980D01*
X124916183Y-110288980D02*
X124963802Y-110193742D01*
X124963802Y-110193742D02*
X124963802Y-109908028D01*
X124963802Y-109908028D02*
X124916183Y-109812790D01*
X124916183Y-109812790D02*
X124868564Y-109765171D01*
X124868564Y-109765171D02*
X124773326Y-109717552D01*
X124773326Y-109717552D02*
X124630469Y-109717552D01*
X124630469Y-109717552D02*
X124535231Y-109765171D01*
X124535231Y-109765171D02*
X124487612Y-109812790D01*
X124487612Y-109812790D02*
X124439993Y-109908028D01*
X124439993Y-109908028D02*
X124439993Y-110193742D01*
X124439993Y-110193742D02*
X124487612Y-110288980D01*
X124487612Y-110288980D02*
X124535231Y-110336600D01*
X124535231Y-110336600D02*
X124630469Y-110384219D01*
X124630469Y-110384219D02*
X124773326Y-110384219D01*
X124011421Y-109717552D02*
X124011421Y-110717552D01*
X124011421Y-109765171D02*
X123916183Y-109717552D01*
X123916183Y-109717552D02*
X123725707Y-109717552D01*
X123725707Y-109717552D02*
X123630469Y-109765171D01*
X123630469Y-109765171D02*
X123582850Y-109812790D01*
X123582850Y-109812790D02*
X123535231Y-109908028D01*
X123535231Y-109908028D02*
X123535231Y-110193742D01*
X123535231Y-110193742D02*
X123582850Y-110288980D01*
X123582850Y-110288980D02*
X123630469Y-110336600D01*
X123630469Y-110336600D02*
X123725707Y-110384219D01*
X123725707Y-110384219D02*
X123916183Y-110384219D01*
X123916183Y-110384219D02*
X124011421Y-110336600D01*
X122678088Y-109717552D02*
X122678088Y-110384219D01*
X123106659Y-109717552D02*
X123106659Y-110241361D01*
X123106659Y-110241361D02*
X123059040Y-110336600D01*
X123059040Y-110336600D02*
X122963802Y-110384219D01*
X122963802Y-110384219D02*
X122820945Y-110384219D01*
X122820945Y-110384219D02*
X122725707Y-110336600D01*
X122725707Y-110336600D02*
X122678088Y-110288980D01*
X122059040Y-110384219D02*
X122154278Y-110336600D01*
X122154278Y-110336600D02*
X122201897Y-110241361D01*
X122201897Y-110241361D02*
X122201897Y-109384219D01*
X121249516Y-110384219D02*
X121249516Y-109860409D01*
X121249516Y-109860409D02*
X121297135Y-109765171D01*
X121297135Y-109765171D02*
X121392373Y-109717552D01*
X121392373Y-109717552D02*
X121582849Y-109717552D01*
X121582849Y-109717552D02*
X121678087Y-109765171D01*
X121249516Y-110336600D02*
X121344754Y-110384219D01*
X121344754Y-110384219D02*
X121582849Y-110384219D01*
X121582849Y-110384219D02*
X121678087Y-110336600D01*
X121678087Y-110336600D02*
X121725706Y-110241361D01*
X121725706Y-110241361D02*
X121725706Y-110146123D01*
X121725706Y-110146123D02*
X121678087Y-110050885D01*
X121678087Y-110050885D02*
X121582849Y-110003266D01*
X121582849Y-110003266D02*
X121344754Y-110003266D01*
X121344754Y-110003266D02*
X121249516Y-109955647D01*
X120916182Y-109717552D02*
X120535230Y-109717552D01*
X120773325Y-109384219D02*
X120773325Y-110241361D01*
X120773325Y-110241361D02*
X120725706Y-110336600D01*
X120725706Y-110336600D02*
X120630468Y-110384219D01*
X120630468Y-110384219D02*
X120535230Y-110384219D01*
X119820944Y-110336600D02*
X119916182Y-110384219D01*
X119916182Y-110384219D02*
X120106658Y-110384219D01*
X120106658Y-110384219D02*
X120201896Y-110336600D01*
X120201896Y-110336600D02*
X120249515Y-110241361D01*
X120249515Y-110241361D02*
X120249515Y-109860409D01*
X120249515Y-109860409D02*
X120201896Y-109765171D01*
X120201896Y-109765171D02*
X120106658Y-109717552D01*
X120106658Y-109717552D02*
X119916182Y-109717552D01*
X119916182Y-109717552D02*
X119820944Y-109765171D01*
X119820944Y-109765171D02*
X119773325Y-109860409D01*
X119773325Y-109860409D02*
X119773325Y-109955647D01*
X119773325Y-109955647D02*
X120249515Y-110050885D01*
X118916182Y-110384219D02*
X118916182Y-109384219D01*
X118916182Y-110336600D02*
X119011420Y-110384219D01*
X119011420Y-110384219D02*
X119201896Y-110384219D01*
X119201896Y-110384219D02*
X119297134Y-110336600D01*
X119297134Y-110336600D02*
X119344753Y-110288980D01*
X119344753Y-110288980D02*
X119392372Y-110193742D01*
X119392372Y-110193742D02*
X119392372Y-109908028D01*
X119392372Y-109908028D02*
X119344753Y-109812790D01*
X119344753Y-109812790D02*
X119297134Y-109765171D01*
X119297134Y-109765171D02*
X119201896Y-109717552D01*
X119201896Y-109717552D02*
X119011420Y-109717552D01*
X119011420Y-109717552D02*
X118916182Y-109765171D01*
D13*
X141375483Y-87144259D02*
X141375483Y-86144259D01*
X141375483Y-86525211D02*
X141280245Y-86477592D01*
X141280245Y-86477592D02*
X141089769Y-86477592D01*
X141089769Y-86477592D02*
X140994531Y-86525211D01*
X140994531Y-86525211D02*
X140946912Y-86572830D01*
X140946912Y-86572830D02*
X140899293Y-86668068D01*
X140899293Y-86668068D02*
X140899293Y-86953782D01*
X140899293Y-86953782D02*
X140946912Y-87049020D01*
X140946912Y-87049020D02*
X140994531Y-87096640D01*
X140994531Y-87096640D02*
X141089769Y-87144259D01*
X141089769Y-87144259D02*
X141280245Y-87144259D01*
X141280245Y-87144259D02*
X141375483Y-87096640D01*
X140565959Y-86477592D02*
X140327864Y-87144259D01*
X140089769Y-86477592D02*
X140327864Y-87144259D01*
X140327864Y-87144259D02*
X140423102Y-87382354D01*
X140423102Y-87382354D02*
X140470721Y-87429973D01*
X140470721Y-87429973D02*
X140565959Y-87477592D01*
X138375483Y-87144259D02*
X138708816Y-86668068D01*
X138946911Y-87144259D02*
X138946911Y-86144259D01*
X138946911Y-86144259D02*
X138565959Y-86144259D01*
X138565959Y-86144259D02*
X138470721Y-86191878D01*
X138470721Y-86191878D02*
X138423102Y-86239497D01*
X138423102Y-86239497D02*
X138375483Y-86334735D01*
X138375483Y-86334735D02*
X138375483Y-86477592D01*
X138375483Y-86477592D02*
X138423102Y-86572830D01*
X138423102Y-86572830D02*
X138470721Y-86620449D01*
X138470721Y-86620449D02*
X138565959Y-86668068D01*
X138565959Y-86668068D02*
X138946911Y-86668068D01*
X137804054Y-87144259D02*
X137899292Y-87096640D01*
X137899292Y-87096640D02*
X137946911Y-87049020D01*
X137946911Y-87049020D02*
X137994530Y-86953782D01*
X137994530Y-86953782D02*
X137994530Y-86668068D01*
X137994530Y-86668068D02*
X137946911Y-86572830D01*
X137946911Y-86572830D02*
X137899292Y-86525211D01*
X137899292Y-86525211D02*
X137804054Y-86477592D01*
X137804054Y-86477592D02*
X137661197Y-86477592D01*
X137661197Y-86477592D02*
X137565959Y-86525211D01*
X137565959Y-86525211D02*
X137518340Y-86572830D01*
X137518340Y-86572830D02*
X137470721Y-86668068D01*
X137470721Y-86668068D02*
X137470721Y-86953782D01*
X137470721Y-86953782D02*
X137518340Y-87049020D01*
X137518340Y-87049020D02*
X137565959Y-87096640D01*
X137565959Y-87096640D02*
X137661197Y-87144259D01*
X137661197Y-87144259D02*
X137804054Y-87144259D01*
X137042149Y-87144259D02*
X137042149Y-86144259D01*
X137042149Y-86525211D02*
X136946911Y-86477592D01*
X136946911Y-86477592D02*
X136756435Y-86477592D01*
X136756435Y-86477592D02*
X136661197Y-86525211D01*
X136661197Y-86525211D02*
X136613578Y-86572830D01*
X136613578Y-86572830D02*
X136565959Y-86668068D01*
X136565959Y-86668068D02*
X136565959Y-86953782D01*
X136565959Y-86953782D02*
X136613578Y-87049020D01*
X136613578Y-87049020D02*
X136661197Y-87096640D01*
X136661197Y-87096640D02*
X136756435Y-87144259D01*
X136756435Y-87144259D02*
X136946911Y-87144259D01*
X136946911Y-87144259D02*
X137042149Y-87096640D01*
X135994530Y-87144259D02*
X136089768Y-87096640D01*
X136089768Y-87096640D02*
X136137387Y-87049020D01*
X136137387Y-87049020D02*
X136185006Y-86953782D01*
X136185006Y-86953782D02*
X136185006Y-86668068D01*
X136185006Y-86668068D02*
X136137387Y-86572830D01*
X136137387Y-86572830D02*
X136089768Y-86525211D01*
X136089768Y-86525211D02*
X135994530Y-86477592D01*
X135994530Y-86477592D02*
X135851673Y-86477592D01*
X135851673Y-86477592D02*
X135756435Y-86525211D01*
X135756435Y-86525211D02*
X135708816Y-86572830D01*
X135708816Y-86572830D02*
X135661197Y-86668068D01*
X135661197Y-86668068D02*
X135661197Y-86953782D01*
X135661197Y-86953782D02*
X135708816Y-87049020D01*
X135708816Y-87049020D02*
X135756435Y-87096640D01*
X135756435Y-87096640D02*
X135851673Y-87144259D01*
X135851673Y-87144259D02*
X135994530Y-87144259D01*
X135375482Y-86477592D02*
X134994530Y-86477592D01*
X135232625Y-86144259D02*
X135232625Y-87001401D01*
X135232625Y-87001401D02*
X135185006Y-87096640D01*
X135185006Y-87096640D02*
X135089768Y-87144259D01*
X135089768Y-87144259D02*
X134994530Y-87144259D01*
X134756434Y-86144259D02*
X134089768Y-86144259D01*
X134089768Y-86144259D02*
X134756434Y-87144259D01*
X134756434Y-87144259D02*
X134089768Y-87144259D01*
X133804053Y-86477592D02*
X133613577Y-87144259D01*
X133613577Y-87144259D02*
X133423101Y-86668068D01*
X133423101Y-86668068D02*
X133232625Y-87144259D01*
X133232625Y-87144259D02*
X133042149Y-86477592D01*
X132661196Y-87144259D02*
X132661196Y-86477592D01*
X132661196Y-86668068D02*
X132613577Y-86572830D01*
X132613577Y-86572830D02*
X132565958Y-86525211D01*
X132565958Y-86525211D02*
X132470720Y-86477592D01*
X132470720Y-86477592D02*
X132375482Y-86477592D01*
X132042148Y-87144259D02*
X132042148Y-86477592D01*
X132042148Y-86668068D02*
X131994529Y-86572830D01*
X131994529Y-86572830D02*
X131946910Y-86525211D01*
X131946910Y-86525211D02*
X131851672Y-86477592D01*
X131851672Y-86477592D02*
X131756434Y-86477592D01*
X131280243Y-87144259D02*
X131375481Y-87096640D01*
X131375481Y-87096640D02*
X131423100Y-87001401D01*
X131423100Y-87001401D02*
X131423100Y-86144259D01*
X130899290Y-87049020D02*
X130851671Y-87096640D01*
X130851671Y-87096640D02*
X130899290Y-87144259D01*
X130899290Y-87144259D02*
X130946909Y-87096640D01*
X130946909Y-87096640D02*
X130899290Y-87049020D01*
X130899290Y-87049020D02*
X130899290Y-87144259D01*
X130518338Y-87144259D02*
X129994529Y-86477592D01*
X130518338Y-86477592D02*
X129994529Y-87144259D01*
X129708814Y-86477592D02*
X129470719Y-87144259D01*
X129232624Y-86477592D02*
X129470719Y-87144259D01*
X129470719Y-87144259D02*
X129565957Y-87382354D01*
X129565957Y-87382354D02*
X129613576Y-87429973D01*
X129613576Y-87429973D02*
X129708814Y-87477592D01*
X128946909Y-86477592D02*
X128423100Y-86477592D01*
X128423100Y-86477592D02*
X128946909Y-87144259D01*
X128946909Y-87144259D02*
X128423100Y-87144259D01*
X140804055Y-88754259D02*
X141137388Y-88278068D01*
X141375483Y-88754259D02*
X141375483Y-87754259D01*
X141375483Y-87754259D02*
X140994531Y-87754259D01*
X140994531Y-87754259D02*
X140899293Y-87801878D01*
X140899293Y-87801878D02*
X140851674Y-87849497D01*
X140851674Y-87849497D02*
X140804055Y-87944735D01*
X140804055Y-87944735D02*
X140804055Y-88087592D01*
X140804055Y-88087592D02*
X140851674Y-88182830D01*
X140851674Y-88182830D02*
X140899293Y-88230449D01*
X140899293Y-88230449D02*
X140994531Y-88278068D01*
X140994531Y-88278068D02*
X141375483Y-88278068D01*
X140232626Y-88754259D02*
X140327864Y-88706640D01*
X140327864Y-88706640D02*
X140375483Y-88659020D01*
X140375483Y-88659020D02*
X140423102Y-88563782D01*
X140423102Y-88563782D02*
X140423102Y-88278068D01*
X140423102Y-88278068D02*
X140375483Y-88182830D01*
X140375483Y-88182830D02*
X140327864Y-88135211D01*
X140327864Y-88135211D02*
X140232626Y-88087592D01*
X140232626Y-88087592D02*
X140089769Y-88087592D01*
X140089769Y-88087592D02*
X139994531Y-88135211D01*
X139994531Y-88135211D02*
X139946912Y-88182830D01*
X139946912Y-88182830D02*
X139899293Y-88278068D01*
X139899293Y-88278068D02*
X139899293Y-88563782D01*
X139899293Y-88563782D02*
X139946912Y-88659020D01*
X139946912Y-88659020D02*
X139994531Y-88706640D01*
X139994531Y-88706640D02*
X140089769Y-88754259D01*
X140089769Y-88754259D02*
X140232626Y-88754259D01*
X139470721Y-88754259D02*
X139470721Y-87754259D01*
X139470721Y-88135211D02*
X139375483Y-88087592D01*
X139375483Y-88087592D02*
X139185007Y-88087592D01*
X139185007Y-88087592D02*
X139089769Y-88135211D01*
X139089769Y-88135211D02*
X139042150Y-88182830D01*
X139042150Y-88182830D02*
X138994531Y-88278068D01*
X138994531Y-88278068D02*
X138994531Y-88563782D01*
X138994531Y-88563782D02*
X139042150Y-88659020D01*
X139042150Y-88659020D02*
X139089769Y-88706640D01*
X139089769Y-88706640D02*
X139185007Y-88754259D01*
X139185007Y-88754259D02*
X139375483Y-88754259D01*
X139375483Y-88754259D02*
X139470721Y-88706640D01*
X138423102Y-88754259D02*
X138518340Y-88706640D01*
X138518340Y-88706640D02*
X138565959Y-88659020D01*
X138565959Y-88659020D02*
X138613578Y-88563782D01*
X138613578Y-88563782D02*
X138613578Y-88278068D01*
X138613578Y-88278068D02*
X138565959Y-88182830D01*
X138565959Y-88182830D02*
X138518340Y-88135211D01*
X138518340Y-88135211D02*
X138423102Y-88087592D01*
X138423102Y-88087592D02*
X138280245Y-88087592D01*
X138280245Y-88087592D02*
X138185007Y-88135211D01*
X138185007Y-88135211D02*
X138137388Y-88182830D01*
X138137388Y-88182830D02*
X138089769Y-88278068D01*
X138089769Y-88278068D02*
X138089769Y-88563782D01*
X138089769Y-88563782D02*
X138137388Y-88659020D01*
X138137388Y-88659020D02*
X138185007Y-88706640D01*
X138185007Y-88706640D02*
X138280245Y-88754259D01*
X138280245Y-88754259D02*
X138423102Y-88754259D01*
X137804054Y-88087592D02*
X137423102Y-88087592D01*
X137661197Y-87754259D02*
X137661197Y-88611401D01*
X137661197Y-88611401D02*
X137613578Y-88706640D01*
X137613578Y-88706640D02*
X137518340Y-88754259D01*
X137518340Y-88754259D02*
X137423102Y-88754259D01*
X137089768Y-88754259D02*
X137089768Y-87754259D01*
X137089768Y-87754259D02*
X136756435Y-88468544D01*
X136756435Y-88468544D02*
X136423102Y-87754259D01*
X136423102Y-87754259D02*
X136423102Y-88754259D01*
X135946911Y-88754259D02*
X135946911Y-88087592D01*
X135946911Y-87754259D02*
X135994530Y-87801878D01*
X135994530Y-87801878D02*
X135946911Y-87849497D01*
X135946911Y-87849497D02*
X135899292Y-87801878D01*
X135899292Y-87801878D02*
X135946911Y-87754259D01*
X135946911Y-87754259D02*
X135946911Y-87849497D01*
X135518340Y-88706640D02*
X135423102Y-88754259D01*
X135423102Y-88754259D02*
X135232626Y-88754259D01*
X135232626Y-88754259D02*
X135137388Y-88706640D01*
X135137388Y-88706640D02*
X135089769Y-88611401D01*
X135089769Y-88611401D02*
X135089769Y-88563782D01*
X135089769Y-88563782D02*
X135137388Y-88468544D01*
X135137388Y-88468544D02*
X135232626Y-88420925D01*
X135232626Y-88420925D02*
X135375483Y-88420925D01*
X135375483Y-88420925D02*
X135470721Y-88373306D01*
X135470721Y-88373306D02*
X135518340Y-88278068D01*
X135518340Y-88278068D02*
X135518340Y-88230449D01*
X135518340Y-88230449D02*
X135470721Y-88135211D01*
X135470721Y-88135211D02*
X135375483Y-88087592D01*
X135375483Y-88087592D02*
X135232626Y-88087592D01*
X135232626Y-88087592D02*
X135137388Y-88135211D01*
X134708816Y-88706640D02*
X134613578Y-88754259D01*
X134613578Y-88754259D02*
X134423102Y-88754259D01*
X134423102Y-88754259D02*
X134327864Y-88706640D01*
X134327864Y-88706640D02*
X134280245Y-88611401D01*
X134280245Y-88611401D02*
X134280245Y-88563782D01*
X134280245Y-88563782D02*
X134327864Y-88468544D01*
X134327864Y-88468544D02*
X134423102Y-88420925D01*
X134423102Y-88420925D02*
X134565959Y-88420925D01*
X134565959Y-88420925D02*
X134661197Y-88373306D01*
X134661197Y-88373306D02*
X134708816Y-88278068D01*
X134708816Y-88278068D02*
X134708816Y-88230449D01*
X134708816Y-88230449D02*
X134661197Y-88135211D01*
X134661197Y-88135211D02*
X134565959Y-88087592D01*
X134565959Y-88087592D02*
X134423102Y-88087592D01*
X134423102Y-88087592D02*
X134327864Y-88135211D01*
X133851673Y-88754259D02*
X133851673Y-88087592D01*
X133851673Y-87754259D02*
X133899292Y-87801878D01*
X133899292Y-87801878D02*
X133851673Y-87849497D01*
X133851673Y-87849497D02*
X133804054Y-87801878D01*
X133804054Y-87801878D02*
X133851673Y-87754259D01*
X133851673Y-87754259D02*
X133851673Y-87849497D01*
X133232626Y-88754259D02*
X133327864Y-88706640D01*
X133327864Y-88706640D02*
X133375483Y-88659020D01*
X133375483Y-88659020D02*
X133423102Y-88563782D01*
X133423102Y-88563782D02*
X133423102Y-88278068D01*
X133423102Y-88278068D02*
X133375483Y-88182830D01*
X133375483Y-88182830D02*
X133327864Y-88135211D01*
X133327864Y-88135211D02*
X133232626Y-88087592D01*
X133232626Y-88087592D02*
X133089769Y-88087592D01*
X133089769Y-88087592D02*
X132994531Y-88135211D01*
X132994531Y-88135211D02*
X132946912Y-88182830D01*
X132946912Y-88182830D02*
X132899293Y-88278068D01*
X132899293Y-88278068D02*
X132899293Y-88563782D01*
X132899293Y-88563782D02*
X132946912Y-88659020D01*
X132946912Y-88659020D02*
X132994531Y-88706640D01*
X132994531Y-88706640D02*
X133089769Y-88754259D01*
X133089769Y-88754259D02*
X133232626Y-88754259D01*
X132470721Y-88087592D02*
X132470721Y-88754259D01*
X132470721Y-88182830D02*
X132423102Y-88135211D01*
X132423102Y-88135211D02*
X132327864Y-88087592D01*
X132327864Y-88087592D02*
X132185007Y-88087592D01*
X132185007Y-88087592D02*
X132089769Y-88135211D01*
X132089769Y-88135211D02*
X132042150Y-88230449D01*
X132042150Y-88230449D02*
X132042150Y-88754259D01*
X131613578Y-88706640D02*
X131518340Y-88754259D01*
X131518340Y-88754259D02*
X131327864Y-88754259D01*
X131327864Y-88754259D02*
X131232626Y-88706640D01*
X131232626Y-88706640D02*
X131185007Y-88611401D01*
X131185007Y-88611401D02*
X131185007Y-88563782D01*
X131185007Y-88563782D02*
X131232626Y-88468544D01*
X131232626Y-88468544D02*
X131327864Y-88420925D01*
X131327864Y-88420925D02*
X131470721Y-88420925D01*
X131470721Y-88420925D02*
X131565959Y-88373306D01*
X131565959Y-88373306D02*
X131613578Y-88278068D01*
X131613578Y-88278068D02*
X131613578Y-88230449D01*
X131613578Y-88230449D02*
X131565959Y-88135211D01*
X131565959Y-88135211D02*
X131470721Y-88087592D01*
X131470721Y-88087592D02*
X131327864Y-88087592D01*
X131327864Y-88087592D02*
X131232626Y-88135211D01*
X130756435Y-88659020D02*
X130708816Y-88706640D01*
X130708816Y-88706640D02*
X130756435Y-88754259D01*
X130756435Y-88754259D02*
X130804054Y-88706640D01*
X130804054Y-88706640D02*
X130756435Y-88659020D01*
X130756435Y-88659020D02*
X130756435Y-88754259D01*
X130137388Y-88754259D02*
X130232626Y-88706640D01*
X130232626Y-88706640D02*
X130280245Y-88659020D01*
X130280245Y-88659020D02*
X130327864Y-88563782D01*
X130327864Y-88563782D02*
X130327864Y-88278068D01*
X130327864Y-88278068D02*
X130280245Y-88182830D01*
X130280245Y-88182830D02*
X130232626Y-88135211D01*
X130232626Y-88135211D02*
X130137388Y-88087592D01*
X130137388Y-88087592D02*
X129994531Y-88087592D01*
X129994531Y-88087592D02*
X129899293Y-88135211D01*
X129899293Y-88135211D02*
X129851674Y-88182830D01*
X129851674Y-88182830D02*
X129804055Y-88278068D01*
X129804055Y-88278068D02*
X129804055Y-88563782D01*
X129804055Y-88563782D02*
X129851674Y-88659020D01*
X129851674Y-88659020D02*
X129899293Y-88706640D01*
X129899293Y-88706640D02*
X129994531Y-88754259D01*
X129994531Y-88754259D02*
X130137388Y-88754259D01*
X129375483Y-88754259D02*
X129375483Y-88087592D01*
X129375483Y-88278068D02*
X129327864Y-88182830D01*
X129327864Y-88182830D02*
X129280245Y-88135211D01*
X129280245Y-88135211D02*
X129185007Y-88087592D01*
X129185007Y-88087592D02*
X129089769Y-88087592D01*
X128327864Y-88087592D02*
X128327864Y-88897116D01*
X128327864Y-88897116D02*
X128375483Y-88992354D01*
X128375483Y-88992354D02*
X128423102Y-89039973D01*
X128423102Y-89039973D02*
X128518340Y-89087592D01*
X128518340Y-89087592D02*
X128661197Y-89087592D01*
X128661197Y-89087592D02*
X128756435Y-89039973D01*
X128327864Y-88706640D02*
X128423102Y-88754259D01*
X128423102Y-88754259D02*
X128613578Y-88754259D01*
X128613578Y-88754259D02*
X128708816Y-88706640D01*
X128708816Y-88706640D02*
X128756435Y-88659020D01*
X128756435Y-88659020D02*
X128804054Y-88563782D01*
X128804054Y-88563782D02*
X128804054Y-88278068D01*
X128804054Y-88278068D02*
X128756435Y-88182830D01*
X128756435Y-88182830D02*
X128708816Y-88135211D01*
X128708816Y-88135211D02*
X128613578Y-88087592D01*
X128613578Y-88087592D02*
X128423102Y-88087592D01*
X128423102Y-88087592D02*
X128327864Y-88135211D01*
X141185007Y-89364259D02*
X141089769Y-89364259D01*
X141089769Y-89364259D02*
X140994531Y-89411878D01*
X140994531Y-89411878D02*
X140946912Y-89459497D01*
X140946912Y-89459497D02*
X140899293Y-89554735D01*
X140899293Y-89554735D02*
X140851674Y-89745211D01*
X140851674Y-89745211D02*
X140851674Y-89983306D01*
X140851674Y-89983306D02*
X140899293Y-90173782D01*
X140899293Y-90173782D02*
X140946912Y-90269020D01*
X140946912Y-90269020D02*
X140994531Y-90316640D01*
X140994531Y-90316640D02*
X141089769Y-90364259D01*
X141089769Y-90364259D02*
X141185007Y-90364259D01*
X141185007Y-90364259D02*
X141280245Y-90316640D01*
X141280245Y-90316640D02*
X141327864Y-90269020D01*
X141327864Y-90269020D02*
X141375483Y-90173782D01*
X141375483Y-90173782D02*
X141423102Y-89983306D01*
X141423102Y-89983306D02*
X141423102Y-89745211D01*
X141423102Y-89745211D02*
X141375483Y-89554735D01*
X141375483Y-89554735D02*
X141327864Y-89459497D01*
X141327864Y-89459497D02*
X141280245Y-89411878D01*
X141280245Y-89411878D02*
X141185007Y-89364259D01*
X140470721Y-89459497D02*
X140423102Y-89411878D01*
X140423102Y-89411878D02*
X140327864Y-89364259D01*
X140327864Y-89364259D02*
X140089769Y-89364259D01*
X140089769Y-89364259D02*
X139994531Y-89411878D01*
X139994531Y-89411878D02*
X139946912Y-89459497D01*
X139946912Y-89459497D02*
X139899293Y-89554735D01*
X139899293Y-89554735D02*
X139899293Y-89649973D01*
X139899293Y-89649973D02*
X139946912Y-89792830D01*
X139946912Y-89792830D02*
X140518340Y-90364259D01*
X140518340Y-90364259D02*
X139899293Y-90364259D01*
X139470721Y-89983306D02*
X138708817Y-89983306D01*
X138042150Y-89364259D02*
X137946912Y-89364259D01*
X137946912Y-89364259D02*
X137851674Y-89411878D01*
X137851674Y-89411878D02*
X137804055Y-89459497D01*
X137804055Y-89459497D02*
X137756436Y-89554735D01*
X137756436Y-89554735D02*
X137708817Y-89745211D01*
X137708817Y-89745211D02*
X137708817Y-89983306D01*
X137708817Y-89983306D02*
X137756436Y-90173782D01*
X137756436Y-90173782D02*
X137804055Y-90269020D01*
X137804055Y-90269020D02*
X137851674Y-90316640D01*
X137851674Y-90316640D02*
X137946912Y-90364259D01*
X137946912Y-90364259D02*
X138042150Y-90364259D01*
X138042150Y-90364259D02*
X138137388Y-90316640D01*
X138137388Y-90316640D02*
X138185007Y-90269020D01*
X138185007Y-90269020D02*
X138232626Y-90173782D01*
X138232626Y-90173782D02*
X138280245Y-89983306D01*
X138280245Y-89983306D02*
X138280245Y-89745211D01*
X138280245Y-89745211D02*
X138232626Y-89554735D01*
X138232626Y-89554735D02*
X138185007Y-89459497D01*
X138185007Y-89459497D02*
X138137388Y-89411878D01*
X138137388Y-89411878D02*
X138042150Y-89364259D01*
X137375483Y-89364259D02*
X136756436Y-89364259D01*
X136756436Y-89364259D02*
X137089769Y-89745211D01*
X137089769Y-89745211D02*
X136946912Y-89745211D01*
X136946912Y-89745211D02*
X136851674Y-89792830D01*
X136851674Y-89792830D02*
X136804055Y-89840449D01*
X136804055Y-89840449D02*
X136756436Y-89935687D01*
X136756436Y-89935687D02*
X136756436Y-90173782D01*
X136756436Y-90173782D02*
X136804055Y-90269020D01*
X136804055Y-90269020D02*
X136851674Y-90316640D01*
X136851674Y-90316640D02*
X136946912Y-90364259D01*
X136946912Y-90364259D02*
X137232626Y-90364259D01*
X137232626Y-90364259D02*
X137327864Y-90316640D01*
X137327864Y-90316640D02*
X137375483Y-90269020D01*
X136327864Y-89983306D02*
X135565960Y-89983306D01*
X135137388Y-89459497D02*
X135089769Y-89411878D01*
X135089769Y-89411878D02*
X134994531Y-89364259D01*
X134994531Y-89364259D02*
X134756436Y-89364259D01*
X134756436Y-89364259D02*
X134661198Y-89411878D01*
X134661198Y-89411878D02*
X134613579Y-89459497D01*
X134613579Y-89459497D02*
X134565960Y-89554735D01*
X134565960Y-89554735D02*
X134565960Y-89649973D01*
X134565960Y-89649973D02*
X134613579Y-89792830D01*
X134613579Y-89792830D02*
X135185007Y-90364259D01*
X135185007Y-90364259D02*
X134565960Y-90364259D01*
X133708817Y-89697592D02*
X133708817Y-90364259D01*
X133946912Y-89316640D02*
X134185007Y-90030925D01*
X134185007Y-90030925D02*
X133565960Y-90030925D01*
X141470721Y-91307592D02*
X141232626Y-91974259D01*
X141232626Y-91974259D02*
X140994531Y-91307592D01*
X140089769Y-91974259D02*
X140661197Y-91974259D01*
X140375483Y-91974259D02*
X140375483Y-90974259D01*
X140375483Y-90974259D02*
X140470721Y-91117116D01*
X140470721Y-91117116D02*
X140565959Y-91212354D01*
X140565959Y-91212354D02*
X140661197Y-91259973D01*
X139661197Y-91879020D02*
X139613578Y-91926640D01*
X139613578Y-91926640D02*
X139661197Y-91974259D01*
X139661197Y-91974259D02*
X139708816Y-91926640D01*
X139708816Y-91926640D02*
X139661197Y-91879020D01*
X139661197Y-91879020D02*
X139661197Y-91974259D01*
X138661198Y-91974259D02*
X139232626Y-91974259D01*
X138946912Y-91974259D02*
X138946912Y-90974259D01*
X138946912Y-90974259D02*
X139042150Y-91117116D01*
X139042150Y-91117116D02*
X139137388Y-91212354D01*
X139137388Y-91212354D02*
X139232626Y-91259973D01*
D11*
X127868564Y-101129219D02*
X127249517Y-101129219D01*
X127249517Y-101129219D02*
X127582850Y-101510171D01*
X127582850Y-101510171D02*
X127439993Y-101510171D01*
X127439993Y-101510171D02*
X127344755Y-101557790D01*
X127344755Y-101557790D02*
X127297136Y-101605409D01*
X127297136Y-101605409D02*
X127249517Y-101700647D01*
X127249517Y-101700647D02*
X127249517Y-101938742D01*
X127249517Y-101938742D02*
X127297136Y-102033980D01*
X127297136Y-102033980D02*
X127344755Y-102081600D01*
X127344755Y-102081600D02*
X127439993Y-102129219D01*
X127439993Y-102129219D02*
X127725707Y-102129219D01*
X127725707Y-102129219D02*
X127820945Y-102081600D01*
X127820945Y-102081600D02*
X127868564Y-102033980D01*
X126916183Y-102129219D02*
X126392374Y-101462552D01*
X126916183Y-101462552D02*
X126392374Y-102129219D01*
X126059040Y-101843504D02*
X125582850Y-101843504D01*
X126154278Y-102129219D02*
X125820945Y-101129219D01*
X125820945Y-101129219D02*
X125487612Y-102129219D01*
X125201897Y-101843504D02*
X124725707Y-101843504D01*
X125297135Y-102129219D02*
X124963802Y-101129219D01*
X124963802Y-101129219D02*
X124630469Y-102129219D01*
X111263326Y-99335219D02*
X111263326Y-98335219D01*
X111263326Y-98335219D02*
X110691898Y-99335219D01*
X110691898Y-99335219D02*
X110691898Y-98335219D01*
X109834755Y-99287600D02*
X109929993Y-99335219D01*
X109929993Y-99335219D02*
X110120469Y-99335219D01*
X110120469Y-99335219D02*
X110215707Y-99287600D01*
X110215707Y-99287600D02*
X110263326Y-99192361D01*
X110263326Y-99192361D02*
X110263326Y-98811409D01*
X110263326Y-98811409D02*
X110215707Y-98716171D01*
X110215707Y-98716171D02*
X110120469Y-98668552D01*
X110120469Y-98668552D02*
X109929993Y-98668552D01*
X109929993Y-98668552D02*
X109834755Y-98716171D01*
X109834755Y-98716171D02*
X109787136Y-98811409D01*
X109787136Y-98811409D02*
X109787136Y-98906647D01*
X109787136Y-98906647D02*
X110263326Y-99001885D01*
X109215707Y-99335219D02*
X109310945Y-99287600D01*
X109310945Y-99287600D02*
X109358564Y-99239980D01*
X109358564Y-99239980D02*
X109406183Y-99144742D01*
X109406183Y-99144742D02*
X109406183Y-98859028D01*
X109406183Y-98859028D02*
X109358564Y-98763790D01*
X109358564Y-98763790D02*
X109310945Y-98716171D01*
X109310945Y-98716171D02*
X109215707Y-98668552D01*
X109215707Y-98668552D02*
X109072850Y-98668552D01*
X109072850Y-98668552D02*
X108977612Y-98716171D01*
X108977612Y-98716171D02*
X108929993Y-98763790D01*
X108929993Y-98763790D02*
X108882374Y-98859028D01*
X108882374Y-98859028D02*
X108882374Y-99144742D01*
X108882374Y-99144742D02*
X108929993Y-99239980D01*
X108929993Y-99239980D02*
X108977612Y-99287600D01*
X108977612Y-99287600D02*
X109072850Y-99335219D01*
X109072850Y-99335219D02*
X109215707Y-99335219D01*
X107168088Y-99335219D02*
X107739516Y-99335219D01*
X107453802Y-99335219D02*
X107453802Y-98335219D01*
X107453802Y-98335219D02*
X107549040Y-98478076D01*
X107549040Y-98478076D02*
X107644278Y-98573314D01*
X107644278Y-98573314D02*
X107739516Y-98620933D01*
D13*
X121452340Y-80937259D02*
X121119007Y-81937259D01*
X121119007Y-81937259D02*
X120785674Y-80937259D01*
X120690436Y-82032497D02*
X119928531Y-82032497D01*
X119357102Y-81413449D02*
X119214245Y-81461068D01*
X119214245Y-81461068D02*
X119166626Y-81508687D01*
X119166626Y-81508687D02*
X119119007Y-81603925D01*
X119119007Y-81603925D02*
X119119007Y-81746782D01*
X119119007Y-81746782D02*
X119166626Y-81842020D01*
X119166626Y-81842020D02*
X119214245Y-81889640D01*
X119214245Y-81889640D02*
X119309483Y-81937259D01*
X119309483Y-81937259D02*
X119690435Y-81937259D01*
X119690435Y-81937259D02*
X119690435Y-80937259D01*
X119690435Y-80937259D02*
X119357102Y-80937259D01*
X119357102Y-80937259D02*
X119261864Y-80984878D01*
X119261864Y-80984878D02*
X119214245Y-81032497D01*
X119214245Y-81032497D02*
X119166626Y-81127735D01*
X119166626Y-81127735D02*
X119166626Y-81222973D01*
X119166626Y-81222973D02*
X119214245Y-81318211D01*
X119214245Y-81318211D02*
X119261864Y-81365830D01*
X119261864Y-81365830D02*
X119357102Y-81413449D01*
X119357102Y-81413449D02*
X119690435Y-81413449D01*
X118738054Y-81651544D02*
X118261864Y-81651544D01*
X118833292Y-81937259D02*
X118499959Y-80937259D01*
X118499959Y-80937259D02*
X118166626Y-81937259D01*
X117976149Y-80937259D02*
X117404721Y-80937259D01*
X117690435Y-81937259D02*
X117690435Y-80937259D01*
X117214244Y-80937259D02*
X116642816Y-80937259D01*
X116928530Y-81937259D02*
X116928530Y-80937259D01*
X116309482Y-81842020D02*
X116261863Y-81889640D01*
X116261863Y-81889640D02*
X116309482Y-81937259D01*
X116309482Y-81937259D02*
X116357101Y-81889640D01*
X116357101Y-81889640D02*
X116309482Y-81842020D01*
X116309482Y-81842020D02*
X116309482Y-81937259D01*
X116309482Y-81318211D02*
X116261863Y-81365830D01*
X116261863Y-81365830D02*
X116309482Y-81413449D01*
X116309482Y-81413449D02*
X116357101Y-81365830D01*
X116357101Y-81365830D02*
X116309482Y-81318211D01*
X116309482Y-81318211D02*
X116309482Y-81413449D01*
X114880911Y-80937259D02*
X114785673Y-80937259D01*
X114785673Y-80937259D02*
X114690435Y-80984878D01*
X114690435Y-80984878D02*
X114642816Y-81032497D01*
X114642816Y-81032497D02*
X114595197Y-81127735D01*
X114595197Y-81127735D02*
X114547578Y-81318211D01*
X114547578Y-81318211D02*
X114547578Y-81556306D01*
X114547578Y-81556306D02*
X114595197Y-81746782D01*
X114595197Y-81746782D02*
X114642816Y-81842020D01*
X114642816Y-81842020D02*
X114690435Y-81889640D01*
X114690435Y-81889640D02*
X114785673Y-81937259D01*
X114785673Y-81937259D02*
X114880911Y-81937259D01*
X114880911Y-81937259D02*
X114976149Y-81889640D01*
X114976149Y-81889640D02*
X115023768Y-81842020D01*
X115023768Y-81842020D02*
X115071387Y-81746782D01*
X115071387Y-81746782D02*
X115119006Y-81556306D01*
X115119006Y-81556306D02*
X115119006Y-81318211D01*
X115119006Y-81318211D02*
X115071387Y-81127735D01*
X115071387Y-81127735D02*
X115023768Y-81032497D01*
X115023768Y-81032497D02*
X114976149Y-80984878D01*
X114976149Y-80984878D02*
X114880911Y-80937259D01*
X114119006Y-81842020D02*
X114071387Y-81889640D01*
X114071387Y-81889640D02*
X114119006Y-81937259D01*
X114119006Y-81937259D02*
X114166625Y-81889640D01*
X114166625Y-81889640D02*
X114119006Y-81842020D01*
X114119006Y-81842020D02*
X114119006Y-81937259D01*
X113595197Y-81937259D02*
X113404721Y-81937259D01*
X113404721Y-81937259D02*
X113309483Y-81889640D01*
X113309483Y-81889640D02*
X113261864Y-81842020D01*
X113261864Y-81842020D02*
X113166626Y-81699163D01*
X113166626Y-81699163D02*
X113119007Y-81508687D01*
X113119007Y-81508687D02*
X113119007Y-81127735D01*
X113119007Y-81127735D02*
X113166626Y-81032497D01*
X113166626Y-81032497D02*
X113214245Y-80984878D01*
X113214245Y-80984878D02*
X113309483Y-80937259D01*
X113309483Y-80937259D02*
X113499959Y-80937259D01*
X113499959Y-80937259D02*
X113595197Y-80984878D01*
X113595197Y-80984878D02*
X113642816Y-81032497D01*
X113642816Y-81032497D02*
X113690435Y-81127735D01*
X113690435Y-81127735D02*
X113690435Y-81365830D01*
X113690435Y-81365830D02*
X113642816Y-81461068D01*
X113642816Y-81461068D02*
X113595197Y-81508687D01*
X113595197Y-81508687D02*
X113499959Y-81556306D01*
X113499959Y-81556306D02*
X113309483Y-81556306D01*
X113309483Y-81556306D02*
X113214245Y-81508687D01*
X113214245Y-81508687D02*
X113166626Y-81461068D01*
X113166626Y-81461068D02*
X113119007Y-81365830D01*
X112690435Y-81556306D02*
X111928531Y-81556306D01*
X111023769Y-81270592D02*
X111023769Y-81937259D01*
X111261864Y-80889640D02*
X111499959Y-81603925D01*
X111499959Y-81603925D02*
X110880912Y-81603925D01*
X110499959Y-81842020D02*
X110452340Y-81889640D01*
X110452340Y-81889640D02*
X110499959Y-81937259D01*
X110499959Y-81937259D02*
X110547578Y-81889640D01*
X110547578Y-81889640D02*
X110499959Y-81842020D01*
X110499959Y-81842020D02*
X110499959Y-81937259D01*
X110119007Y-80937259D02*
X109452341Y-80937259D01*
X109452341Y-80937259D02*
X109880912Y-81937259D01*
X108595198Y-80937259D02*
X109071388Y-80937259D01*
X109071388Y-80937259D02*
X109119007Y-81413449D01*
X109119007Y-81413449D02*
X109071388Y-81365830D01*
X109071388Y-81365830D02*
X108976150Y-81318211D01*
X108976150Y-81318211D02*
X108738055Y-81318211D01*
X108738055Y-81318211D02*
X108642817Y-81365830D01*
X108642817Y-81365830D02*
X108595198Y-81413449D01*
X108595198Y-81413449D02*
X108547579Y-81508687D01*
X108547579Y-81508687D02*
X108547579Y-81746782D01*
X108547579Y-81746782D02*
X108595198Y-81842020D01*
X108595198Y-81842020D02*
X108642817Y-81889640D01*
X108642817Y-81889640D02*
X108738055Y-81937259D01*
X108738055Y-81937259D02*
X108976150Y-81937259D01*
X108976150Y-81937259D02*
X109071388Y-81889640D01*
X109071388Y-81889640D02*
X109119007Y-81842020D01*
X108261864Y-80937259D02*
X107928531Y-81937259D01*
X107928531Y-81937259D02*
X107595198Y-80937259D01*
X121452340Y-82547259D02*
X121119007Y-83547259D01*
X121119007Y-83547259D02*
X120785674Y-82547259D01*
X120690436Y-83642497D02*
X119928531Y-83642497D01*
X119499959Y-82547259D02*
X119309483Y-82547259D01*
X119309483Y-82547259D02*
X119214245Y-82594878D01*
X119214245Y-82594878D02*
X119119007Y-82690116D01*
X119119007Y-82690116D02*
X119071388Y-82880592D01*
X119071388Y-82880592D02*
X119071388Y-83213925D01*
X119071388Y-83213925D02*
X119119007Y-83404401D01*
X119119007Y-83404401D02*
X119214245Y-83499640D01*
X119214245Y-83499640D02*
X119309483Y-83547259D01*
X119309483Y-83547259D02*
X119499959Y-83547259D01*
X119499959Y-83547259D02*
X119595197Y-83499640D01*
X119595197Y-83499640D02*
X119690435Y-83404401D01*
X119690435Y-83404401D02*
X119738054Y-83213925D01*
X119738054Y-83213925D02*
X119738054Y-82880592D01*
X119738054Y-82880592D02*
X119690435Y-82690116D01*
X119690435Y-82690116D02*
X119595197Y-82594878D01*
X119595197Y-82594878D02*
X119499959Y-82547259D01*
X118642816Y-82547259D02*
X118642816Y-83356782D01*
X118642816Y-83356782D02*
X118595197Y-83452020D01*
X118595197Y-83452020D02*
X118547578Y-83499640D01*
X118547578Y-83499640D02*
X118452340Y-83547259D01*
X118452340Y-83547259D02*
X118261864Y-83547259D01*
X118261864Y-83547259D02*
X118166626Y-83499640D01*
X118166626Y-83499640D02*
X118119007Y-83452020D01*
X118119007Y-83452020D02*
X118071388Y-83356782D01*
X118071388Y-83356782D02*
X118071388Y-82547259D01*
X117738054Y-82547259D02*
X117166626Y-82547259D01*
X117452340Y-83547259D02*
X117452340Y-82547259D01*
X116833292Y-83452020D02*
X116785673Y-83499640D01*
X116785673Y-83499640D02*
X116833292Y-83547259D01*
X116833292Y-83547259D02*
X116880911Y-83499640D01*
X116880911Y-83499640D02*
X116833292Y-83452020D01*
X116833292Y-83452020D02*
X116833292Y-83547259D01*
X116833292Y-82928211D02*
X116785673Y-82975830D01*
X116785673Y-82975830D02*
X116833292Y-83023449D01*
X116833292Y-83023449D02*
X116880911Y-82975830D01*
X116880911Y-82975830D02*
X116833292Y-82928211D01*
X116833292Y-82928211D02*
X116833292Y-83023449D01*
X115119007Y-82547259D02*
X115595197Y-82547259D01*
X115595197Y-82547259D02*
X115642816Y-83023449D01*
X115642816Y-83023449D02*
X115595197Y-82975830D01*
X115595197Y-82975830D02*
X115499959Y-82928211D01*
X115499959Y-82928211D02*
X115261864Y-82928211D01*
X115261864Y-82928211D02*
X115166626Y-82975830D01*
X115166626Y-82975830D02*
X115119007Y-83023449D01*
X115119007Y-83023449D02*
X115071388Y-83118687D01*
X115071388Y-83118687D02*
X115071388Y-83356782D01*
X115071388Y-83356782D02*
X115119007Y-83452020D01*
X115119007Y-83452020D02*
X115166626Y-83499640D01*
X115166626Y-83499640D02*
X115261864Y-83547259D01*
X115261864Y-83547259D02*
X115499959Y-83547259D01*
X115499959Y-83547259D02*
X115595197Y-83499640D01*
X115595197Y-83499640D02*
X115642816Y-83452020D01*
X114785673Y-82547259D02*
X114452340Y-83547259D01*
X114452340Y-83547259D02*
X114119007Y-82547259D01*
X113738054Y-83499640D02*
X113738054Y-83547259D01*
X113738054Y-83547259D02*
X113785673Y-83642497D01*
X113785673Y-83642497D02*
X113833292Y-83690116D01*
X112642816Y-82547259D02*
X112023769Y-82547259D01*
X112023769Y-82547259D02*
X112357102Y-82928211D01*
X112357102Y-82928211D02*
X112214245Y-82928211D01*
X112214245Y-82928211D02*
X112119007Y-82975830D01*
X112119007Y-82975830D02*
X112071388Y-83023449D01*
X112071388Y-83023449D02*
X112023769Y-83118687D01*
X112023769Y-83118687D02*
X112023769Y-83356782D01*
X112023769Y-83356782D02*
X112071388Y-83452020D01*
X112071388Y-83452020D02*
X112119007Y-83499640D01*
X112119007Y-83499640D02*
X112214245Y-83547259D01*
X112214245Y-83547259D02*
X112499959Y-83547259D01*
X112499959Y-83547259D02*
X112595197Y-83499640D01*
X112595197Y-83499640D02*
X112642816Y-83452020D01*
X111642816Y-83261544D02*
X111166626Y-83261544D01*
X111738054Y-83547259D02*
X111404721Y-82547259D01*
X111404721Y-82547259D02*
X111071388Y-83547259D01*
X121452340Y-84157259D02*
X121119007Y-85157259D01*
X121119007Y-85157259D02*
X120785674Y-84157259D01*
X120690436Y-85252497D02*
X119928531Y-85252497D01*
X119119007Y-85157259D02*
X119452340Y-84681068D01*
X119690435Y-85157259D02*
X119690435Y-84157259D01*
X119690435Y-84157259D02*
X119309483Y-84157259D01*
X119309483Y-84157259D02*
X119214245Y-84204878D01*
X119214245Y-84204878D02*
X119166626Y-84252497D01*
X119166626Y-84252497D02*
X119119007Y-84347735D01*
X119119007Y-84347735D02*
X119119007Y-84490592D01*
X119119007Y-84490592D02*
X119166626Y-84585830D01*
X119166626Y-84585830D02*
X119214245Y-84633449D01*
X119214245Y-84633449D02*
X119309483Y-84681068D01*
X119309483Y-84681068D02*
X119690435Y-84681068D01*
X118690435Y-84633449D02*
X118357102Y-84633449D01*
X118214245Y-85157259D02*
X118690435Y-85157259D01*
X118690435Y-85157259D02*
X118690435Y-84157259D01*
X118690435Y-84157259D02*
X118214245Y-84157259D01*
X117261864Y-84204878D02*
X117357102Y-84157259D01*
X117357102Y-84157259D02*
X117499959Y-84157259D01*
X117499959Y-84157259D02*
X117642816Y-84204878D01*
X117642816Y-84204878D02*
X117738054Y-84300116D01*
X117738054Y-84300116D02*
X117785673Y-84395354D01*
X117785673Y-84395354D02*
X117833292Y-84585830D01*
X117833292Y-84585830D02*
X117833292Y-84728687D01*
X117833292Y-84728687D02*
X117785673Y-84919163D01*
X117785673Y-84919163D02*
X117738054Y-85014401D01*
X117738054Y-85014401D02*
X117642816Y-85109640D01*
X117642816Y-85109640D02*
X117499959Y-85157259D01*
X117499959Y-85157259D02*
X117404721Y-85157259D01*
X117404721Y-85157259D02*
X117261864Y-85109640D01*
X117261864Y-85109640D02*
X117214245Y-85062020D01*
X117214245Y-85062020D02*
X117214245Y-84728687D01*
X117214245Y-84728687D02*
X117404721Y-84728687D01*
X116785673Y-85062020D02*
X116738054Y-85109640D01*
X116738054Y-85109640D02*
X116785673Y-85157259D01*
X116785673Y-85157259D02*
X116833292Y-85109640D01*
X116833292Y-85109640D02*
X116785673Y-85062020D01*
X116785673Y-85062020D02*
X116785673Y-85157259D01*
X116785673Y-84538211D02*
X116738054Y-84585830D01*
X116738054Y-84585830D02*
X116785673Y-84633449D01*
X116785673Y-84633449D02*
X116833292Y-84585830D01*
X116833292Y-84585830D02*
X116785673Y-84538211D01*
X116785673Y-84538211D02*
X116785673Y-84633449D01*
X115642816Y-84157259D02*
X115023769Y-84157259D01*
X115023769Y-84157259D02*
X115357102Y-84538211D01*
X115357102Y-84538211D02*
X115214245Y-84538211D01*
X115214245Y-84538211D02*
X115119007Y-84585830D01*
X115119007Y-84585830D02*
X115071388Y-84633449D01*
X115071388Y-84633449D02*
X115023769Y-84728687D01*
X115023769Y-84728687D02*
X115023769Y-84966782D01*
X115023769Y-84966782D02*
X115071388Y-85062020D01*
X115071388Y-85062020D02*
X115119007Y-85109640D01*
X115119007Y-85109640D02*
X115214245Y-85157259D01*
X115214245Y-85157259D02*
X115499959Y-85157259D01*
X115499959Y-85157259D02*
X115595197Y-85109640D01*
X115595197Y-85109640D02*
X115642816Y-85062020D01*
X114595197Y-85062020D02*
X114547578Y-85109640D01*
X114547578Y-85109640D02*
X114595197Y-85157259D01*
X114595197Y-85157259D02*
X114642816Y-85109640D01*
X114642816Y-85109640D02*
X114595197Y-85062020D01*
X114595197Y-85062020D02*
X114595197Y-85157259D01*
X114214245Y-84157259D02*
X113595198Y-84157259D01*
X113595198Y-84157259D02*
X113928531Y-84538211D01*
X113928531Y-84538211D02*
X113785674Y-84538211D01*
X113785674Y-84538211D02*
X113690436Y-84585830D01*
X113690436Y-84585830D02*
X113642817Y-84633449D01*
X113642817Y-84633449D02*
X113595198Y-84728687D01*
X113595198Y-84728687D02*
X113595198Y-84966782D01*
X113595198Y-84966782D02*
X113642817Y-85062020D01*
X113642817Y-85062020D02*
X113690436Y-85109640D01*
X113690436Y-85109640D02*
X113785674Y-85157259D01*
X113785674Y-85157259D02*
X114071388Y-85157259D01*
X114071388Y-85157259D02*
X114166626Y-85109640D01*
X114166626Y-85109640D02*
X114214245Y-85062020D01*
X113309483Y-84157259D02*
X112976150Y-85157259D01*
X112976150Y-85157259D02*
X112642817Y-84157259D01*
X112261864Y-85109640D02*
X112261864Y-85157259D01*
X112261864Y-85157259D02*
X112309483Y-85252497D01*
X112309483Y-85252497D02*
X112357102Y-85300116D01*
X110547579Y-85157259D02*
X111119007Y-85157259D01*
X110833293Y-85157259D02*
X110833293Y-84157259D01*
X110833293Y-84157259D02*
X110928531Y-84300116D01*
X110928531Y-84300116D02*
X111023769Y-84395354D01*
X111023769Y-84395354D02*
X111119007Y-84442973D01*
X110166626Y-84871544D02*
X109690436Y-84871544D01*
X110261864Y-85157259D02*
X109928531Y-84157259D01*
X109928531Y-84157259D02*
X109595198Y-85157259D01*
D11*
X127297136Y-104923219D02*
X127773326Y-104923219D01*
X127773326Y-104923219D02*
X127773326Y-103923219D01*
X126963802Y-104923219D02*
X126963802Y-104256552D01*
X126963802Y-103923219D02*
X127011421Y-103970838D01*
X127011421Y-103970838D02*
X126963802Y-104018457D01*
X126963802Y-104018457D02*
X126916183Y-103970838D01*
X126916183Y-103970838D02*
X126963802Y-103923219D01*
X126963802Y-103923219D02*
X126963802Y-104018457D01*
X126487612Y-104923219D02*
X126487612Y-103923219D01*
X126487612Y-103923219D02*
X126106660Y-103923219D01*
X126106660Y-103923219D02*
X126011422Y-103970838D01*
X126011422Y-103970838D02*
X125963803Y-104018457D01*
X125963803Y-104018457D02*
X125916184Y-104113695D01*
X125916184Y-104113695D02*
X125916184Y-104256552D01*
X125916184Y-104256552D02*
X125963803Y-104351790D01*
X125963803Y-104351790D02*
X126011422Y-104399409D01*
X126011422Y-104399409D02*
X126106660Y-104447028D01*
X126106660Y-104447028D02*
X126487612Y-104447028D01*
X125344755Y-104923219D02*
X125439993Y-104875600D01*
X125439993Y-104875600D02*
X125487612Y-104827980D01*
X125487612Y-104827980D02*
X125535231Y-104732742D01*
X125535231Y-104732742D02*
X125535231Y-104447028D01*
X125535231Y-104447028D02*
X125487612Y-104351790D01*
X125487612Y-104351790D02*
X125439993Y-104304171D01*
X125439993Y-104304171D02*
X125344755Y-104256552D01*
X125344755Y-104256552D02*
X125201898Y-104256552D01*
X125201898Y-104256552D02*
X125106660Y-104304171D01*
X125106660Y-104304171D02*
X125059041Y-104351790D01*
X125059041Y-104351790D02*
X125011422Y-104447028D01*
X125011422Y-104447028D02*
X125011422Y-104732742D01*
X125011422Y-104732742D02*
X125059041Y-104827980D01*
X125059041Y-104827980D02*
X125106660Y-104875600D01*
X125106660Y-104875600D02*
X125201898Y-104923219D01*
X125201898Y-104923219D02*
X125344755Y-104923219D01*
X123297136Y-104923219D02*
X123868564Y-104923219D01*
X123582850Y-104923219D02*
X123582850Y-103923219D01*
X123582850Y-103923219D02*
X123678088Y-104066076D01*
X123678088Y-104066076D02*
X123773326Y-104161314D01*
X123773326Y-104161314D02*
X123868564Y-104208933D01*
X122916183Y-104875600D02*
X122773326Y-104923219D01*
X122773326Y-104923219D02*
X122535231Y-104923219D01*
X122535231Y-104923219D02*
X122439993Y-104875600D01*
X122439993Y-104875600D02*
X122392374Y-104827980D01*
X122392374Y-104827980D02*
X122344755Y-104732742D01*
X122344755Y-104732742D02*
X122344755Y-104637504D01*
X122344755Y-104637504D02*
X122392374Y-104542266D01*
X122392374Y-104542266D02*
X122439993Y-104494647D01*
X122439993Y-104494647D02*
X122535231Y-104447028D01*
X122535231Y-104447028D02*
X122725707Y-104399409D01*
X122725707Y-104399409D02*
X122820945Y-104351790D01*
X122820945Y-104351790D02*
X122868564Y-104304171D01*
X122868564Y-104304171D02*
X122916183Y-104208933D01*
X122916183Y-104208933D02*
X122916183Y-104113695D01*
X122916183Y-104113695D02*
X122868564Y-104018457D01*
X122868564Y-104018457D02*
X122820945Y-103970838D01*
X122820945Y-103970838D02*
X122725707Y-103923219D01*
X122725707Y-103923219D02*
X122487612Y-103923219D01*
X122487612Y-103923219D02*
X122344755Y-103970838D01*
D14*
X140384978Y-82485228D02*
X139956406Y-82628085D01*
X139956406Y-82628085D02*
X139813549Y-82770942D01*
X139813549Y-82770942D02*
X139670692Y-83056657D01*
X139670692Y-83056657D02*
X139670692Y-83485228D01*
X139670692Y-83485228D02*
X139813549Y-83770942D01*
X139813549Y-83770942D02*
X139956406Y-83913800D01*
X139956406Y-83913800D02*
X140242121Y-84056657D01*
X140242121Y-84056657D02*
X141384978Y-84056657D01*
X141384978Y-84056657D02*
X141384978Y-81056657D01*
X141384978Y-81056657D02*
X140384978Y-81056657D01*
X140384978Y-81056657D02*
X140099264Y-81199514D01*
X140099264Y-81199514D02*
X139956406Y-81342371D01*
X139956406Y-81342371D02*
X139813549Y-81628085D01*
X139813549Y-81628085D02*
X139813549Y-81913800D01*
X139813549Y-81913800D02*
X139956406Y-82199514D01*
X139956406Y-82199514D02*
X140099264Y-82342371D01*
X140099264Y-82342371D02*
X140384978Y-82485228D01*
X140384978Y-82485228D02*
X141384978Y-82485228D01*
X137956406Y-84056657D02*
X138242121Y-83913800D01*
X138242121Y-83913800D02*
X138384978Y-83770942D01*
X138384978Y-83770942D02*
X138527835Y-83485228D01*
X138527835Y-83485228D02*
X138527835Y-82628085D01*
X138527835Y-82628085D02*
X138384978Y-82342371D01*
X138384978Y-82342371D02*
X138242121Y-82199514D01*
X138242121Y-82199514D02*
X137956406Y-82056657D01*
X137956406Y-82056657D02*
X137527835Y-82056657D01*
X137527835Y-82056657D02*
X137242121Y-82199514D01*
X137242121Y-82199514D02*
X137099264Y-82342371D01*
X137099264Y-82342371D02*
X136956406Y-82628085D01*
X136956406Y-82628085D02*
X136956406Y-83485228D01*
X136956406Y-83485228D02*
X137099264Y-83770942D01*
X137099264Y-83770942D02*
X137242121Y-83913800D01*
X137242121Y-83913800D02*
X137527835Y-84056657D01*
X137527835Y-84056657D02*
X137956406Y-84056657D01*
X135242120Y-84056657D02*
X135527835Y-83913800D01*
X135527835Y-83913800D02*
X135670692Y-83770942D01*
X135670692Y-83770942D02*
X135813549Y-83485228D01*
X135813549Y-83485228D02*
X135813549Y-82628085D01*
X135813549Y-82628085D02*
X135670692Y-82342371D01*
X135670692Y-82342371D02*
X135527835Y-82199514D01*
X135527835Y-82199514D02*
X135242120Y-82056657D01*
X135242120Y-82056657D02*
X134813549Y-82056657D01*
X134813549Y-82056657D02*
X134527835Y-82199514D01*
X134527835Y-82199514D02*
X134384978Y-82342371D01*
X134384978Y-82342371D02*
X134242120Y-82628085D01*
X134242120Y-82628085D02*
X134242120Y-83485228D01*
X134242120Y-83485228D02*
X134384978Y-83770942D01*
X134384978Y-83770942D02*
X134527835Y-83913800D01*
X134527835Y-83913800D02*
X134813549Y-84056657D01*
X134813549Y-84056657D02*
X135242120Y-84056657D01*
X133099263Y-83913800D02*
X132813549Y-84056657D01*
X132813549Y-84056657D02*
X132242120Y-84056657D01*
X132242120Y-84056657D02*
X131956406Y-83913800D01*
X131956406Y-83913800D02*
X131813549Y-83628085D01*
X131813549Y-83628085D02*
X131813549Y-83485228D01*
X131813549Y-83485228D02*
X131956406Y-83199514D01*
X131956406Y-83199514D02*
X132242120Y-83056657D01*
X132242120Y-83056657D02*
X132670692Y-83056657D01*
X132670692Y-83056657D02*
X132956406Y-82913800D01*
X132956406Y-82913800D02*
X133099263Y-82628085D01*
X133099263Y-82628085D02*
X133099263Y-82485228D01*
X133099263Y-82485228D02*
X132956406Y-82199514D01*
X132956406Y-82199514D02*
X132670692Y-82056657D01*
X132670692Y-82056657D02*
X132242120Y-82056657D01*
X132242120Y-82056657D02*
X131956406Y-82199514D01*
X130956406Y-82056657D02*
X129813549Y-82056657D01*
X130527835Y-81056657D02*
X130527835Y-83628085D01*
X130527835Y-83628085D02*
X130384978Y-83913800D01*
X130384978Y-83913800D02*
X130099263Y-84056657D01*
X130099263Y-84056657D02*
X129813549Y-84056657D01*
X128384977Y-84056657D02*
X128670692Y-83913800D01*
X128670692Y-83913800D02*
X128813549Y-83628085D01*
X128813549Y-83628085D02*
X128813549Y-81056657D01*
X126099263Y-83913800D02*
X126384977Y-84056657D01*
X126384977Y-84056657D02*
X126956406Y-84056657D01*
X126956406Y-84056657D02*
X127242120Y-83913800D01*
X127242120Y-83913800D02*
X127384977Y-83628085D01*
X127384977Y-83628085D02*
X127384977Y-82485228D01*
X127384977Y-82485228D02*
X127242120Y-82199514D01*
X127242120Y-82199514D02*
X126956406Y-82056657D01*
X126956406Y-82056657D02*
X126384977Y-82056657D01*
X126384977Y-82056657D02*
X126099263Y-82199514D01*
X126099263Y-82199514D02*
X125956406Y-82485228D01*
X125956406Y-82485228D02*
X125956406Y-82770942D01*
X125956406Y-82770942D02*
X127384977Y-83056657D01*
X125099262Y-82056657D02*
X123956405Y-82056657D01*
X124670691Y-81056657D02*
X124670691Y-83628085D01*
X124670691Y-83628085D02*
X124527834Y-83913800D01*
X124527834Y-83913800D02*
X124242119Y-84056657D01*
X124242119Y-84056657D02*
X123956405Y-84056657D01*
X122956405Y-83770942D02*
X122813548Y-83913800D01*
X122813548Y-83913800D02*
X122956405Y-84056657D01*
X122956405Y-84056657D02*
X123099262Y-83913800D01*
X123099262Y-83913800D02*
X122956405Y-83770942D01*
X122956405Y-83770942D02*
X122956405Y-84056657D01*
X122956405Y-82913800D02*
X123099262Y-81199514D01*
X123099262Y-81199514D02*
X122956405Y-81056657D01*
X122956405Y-81056657D02*
X122813548Y-81199514D01*
X122813548Y-81199514D02*
X122956405Y-82913800D01*
X122956405Y-82913800D02*
X122956405Y-81056657D01*
D11*
X111263326Y-104796219D02*
X111263326Y-103796219D01*
X111263326Y-103796219D02*
X110882374Y-103796219D01*
X110882374Y-103796219D02*
X110787136Y-103843838D01*
X110787136Y-103843838D02*
X110739517Y-103891457D01*
X110739517Y-103891457D02*
X110691898Y-103986695D01*
X110691898Y-103986695D02*
X110691898Y-104129552D01*
X110691898Y-104129552D02*
X110739517Y-104224790D01*
X110739517Y-104224790D02*
X110787136Y-104272409D01*
X110787136Y-104272409D02*
X110882374Y-104320028D01*
X110882374Y-104320028D02*
X111263326Y-104320028D01*
X110406183Y-103796219D02*
X109834755Y-103796219D01*
X110120469Y-104796219D02*
X110120469Y-103796219D01*
X108929993Y-104700980D02*
X108977612Y-104748600D01*
X108977612Y-104748600D02*
X109120469Y-104796219D01*
X109120469Y-104796219D02*
X109215707Y-104796219D01*
X109215707Y-104796219D02*
X109358564Y-104748600D01*
X109358564Y-104748600D02*
X109453802Y-104653361D01*
X109453802Y-104653361D02*
X109501421Y-104558123D01*
X109501421Y-104558123D02*
X109549040Y-104367647D01*
X109549040Y-104367647D02*
X109549040Y-104224790D01*
X109549040Y-104224790D02*
X109501421Y-104034314D01*
X109501421Y-104034314D02*
X109453802Y-103939076D01*
X109453802Y-103939076D02*
X109358564Y-103843838D01*
X109358564Y-103843838D02*
X109215707Y-103796219D01*
X109215707Y-103796219D02*
X109120469Y-103796219D01*
X109120469Y-103796219D02*
X108977612Y-103843838D01*
X108977612Y-103843838D02*
X108929993Y-103891457D01*
X107739516Y-104796219D02*
X107739516Y-104129552D01*
X107739516Y-103796219D02*
X107787135Y-103843838D01*
X107787135Y-103843838D02*
X107739516Y-103891457D01*
X107739516Y-103891457D02*
X107691897Y-103843838D01*
X107691897Y-103843838D02*
X107739516Y-103796219D01*
X107739516Y-103796219D02*
X107739516Y-103891457D01*
X107263326Y-104129552D02*
X107263326Y-104796219D01*
X107263326Y-104224790D02*
X107215707Y-104177171D01*
X107215707Y-104177171D02*
X107120469Y-104129552D01*
X107120469Y-104129552D02*
X106977612Y-104129552D01*
X106977612Y-104129552D02*
X106882374Y-104177171D01*
X106882374Y-104177171D02*
X106834755Y-104272409D01*
X106834755Y-104272409D02*
X106834755Y-104796219D01*
X111263326Y-102002219D02*
X111263326Y-101002219D01*
X111263326Y-101002219D02*
X110691898Y-102002219D01*
X110691898Y-102002219D02*
X110691898Y-101002219D01*
X109834755Y-101954600D02*
X109929993Y-102002219D01*
X109929993Y-102002219D02*
X110120469Y-102002219D01*
X110120469Y-102002219D02*
X110215707Y-101954600D01*
X110215707Y-101954600D02*
X110263326Y-101859361D01*
X110263326Y-101859361D02*
X110263326Y-101478409D01*
X110263326Y-101478409D02*
X110215707Y-101383171D01*
X110215707Y-101383171D02*
X110120469Y-101335552D01*
X110120469Y-101335552D02*
X109929993Y-101335552D01*
X109929993Y-101335552D02*
X109834755Y-101383171D01*
X109834755Y-101383171D02*
X109787136Y-101478409D01*
X109787136Y-101478409D02*
X109787136Y-101573647D01*
X109787136Y-101573647D02*
X110263326Y-101668885D01*
X109215707Y-102002219D02*
X109310945Y-101954600D01*
X109310945Y-101954600D02*
X109358564Y-101906980D01*
X109358564Y-101906980D02*
X109406183Y-101811742D01*
X109406183Y-101811742D02*
X109406183Y-101526028D01*
X109406183Y-101526028D02*
X109358564Y-101430790D01*
X109358564Y-101430790D02*
X109310945Y-101383171D01*
X109310945Y-101383171D02*
X109215707Y-101335552D01*
X109215707Y-101335552D02*
X109072850Y-101335552D01*
X109072850Y-101335552D02*
X108977612Y-101383171D01*
X108977612Y-101383171D02*
X108929993Y-101430790D01*
X108929993Y-101430790D02*
X108882374Y-101526028D01*
X108882374Y-101526028D02*
X108882374Y-101811742D01*
X108882374Y-101811742D02*
X108929993Y-101906980D01*
X108929993Y-101906980D02*
X108977612Y-101954600D01*
X108977612Y-101954600D02*
X109072850Y-102002219D01*
X109072850Y-102002219D02*
X109215707Y-102002219D01*
X107739516Y-101097457D02*
X107691897Y-101049838D01*
X107691897Y-101049838D02*
X107596659Y-101002219D01*
X107596659Y-101002219D02*
X107358564Y-101002219D01*
X107358564Y-101002219D02*
X107263326Y-101049838D01*
X107263326Y-101049838D02*
X107215707Y-101097457D01*
X107215707Y-101097457D02*
X107168088Y-101192695D01*
X107168088Y-101192695D02*
X107168088Y-101287933D01*
X107168088Y-101287933D02*
X107215707Y-101430790D01*
X107215707Y-101430790D02*
X107787135Y-102002219D01*
X107787135Y-102002219D02*
X107168088Y-102002219D01*
D10*
G04 #@! TO.C,TP4*
X116577904Y-88484819D02*
X116006476Y-88484819D01*
X116292190Y-89484819D02*
X116292190Y-88484819D01*
X115673142Y-89484819D02*
X115673142Y-88484819D01*
X115673142Y-88484819D02*
X115292190Y-88484819D01*
X115292190Y-88484819D02*
X115196952Y-88532438D01*
X115196952Y-88532438D02*
X115149333Y-88580057D01*
X115149333Y-88580057D02*
X115101714Y-88675295D01*
X115101714Y-88675295D02*
X115101714Y-88818152D01*
X115101714Y-88818152D02*
X115149333Y-88913390D01*
X115149333Y-88913390D02*
X115196952Y-88961009D01*
X115196952Y-88961009D02*
X115292190Y-89008628D01*
X115292190Y-89008628D02*
X115673142Y-89008628D01*
X114244571Y-88818152D02*
X114244571Y-89484819D01*
X114482666Y-88437200D02*
X114720761Y-89151485D01*
X114720761Y-89151485D02*
X114101714Y-89151485D01*
G04 #@! TO.C,TP8*
X119879904Y-103724819D02*
X119308476Y-103724819D01*
X119594190Y-104724819D02*
X119594190Y-103724819D01*
X118975142Y-104724819D02*
X118975142Y-103724819D01*
X118975142Y-103724819D02*
X118594190Y-103724819D01*
X118594190Y-103724819D02*
X118498952Y-103772438D01*
X118498952Y-103772438D02*
X118451333Y-103820057D01*
X118451333Y-103820057D02*
X118403714Y-103915295D01*
X118403714Y-103915295D02*
X118403714Y-104058152D01*
X118403714Y-104058152D02*
X118451333Y-104153390D01*
X118451333Y-104153390D02*
X118498952Y-104201009D01*
X118498952Y-104201009D02*
X118594190Y-104248628D01*
X118594190Y-104248628D02*
X118975142Y-104248628D01*
X117832285Y-104153390D02*
X117927523Y-104105771D01*
X117927523Y-104105771D02*
X117975142Y-104058152D01*
X117975142Y-104058152D02*
X118022761Y-103962914D01*
X118022761Y-103962914D02*
X118022761Y-103915295D01*
X118022761Y-103915295D02*
X117975142Y-103820057D01*
X117975142Y-103820057D02*
X117927523Y-103772438D01*
X117927523Y-103772438D02*
X117832285Y-103724819D01*
X117832285Y-103724819D02*
X117641809Y-103724819D01*
X117641809Y-103724819D02*
X117546571Y-103772438D01*
X117546571Y-103772438D02*
X117498952Y-103820057D01*
X117498952Y-103820057D02*
X117451333Y-103915295D01*
X117451333Y-103915295D02*
X117451333Y-103962914D01*
X117451333Y-103962914D02*
X117498952Y-104058152D01*
X117498952Y-104058152D02*
X117546571Y-104105771D01*
X117546571Y-104105771D02*
X117641809Y-104153390D01*
X117641809Y-104153390D02*
X117832285Y-104153390D01*
X117832285Y-104153390D02*
X117927523Y-104201009D01*
X117927523Y-104201009D02*
X117975142Y-104248628D01*
X117975142Y-104248628D02*
X118022761Y-104343866D01*
X118022761Y-104343866D02*
X118022761Y-104534342D01*
X118022761Y-104534342D02*
X117975142Y-104629580D01*
X117975142Y-104629580D02*
X117927523Y-104677200D01*
X117927523Y-104677200D02*
X117832285Y-104724819D01*
X117832285Y-104724819D02*
X117641809Y-104724819D01*
X117641809Y-104724819D02*
X117546571Y-104677200D01*
X117546571Y-104677200D02*
X117498952Y-104629580D01*
X117498952Y-104629580D02*
X117451333Y-104534342D01*
X117451333Y-104534342D02*
X117451333Y-104343866D01*
X117451333Y-104343866D02*
X117498952Y-104248628D01*
X117498952Y-104248628D02*
X117546571Y-104201009D01*
X117546571Y-104201009D02*
X117641809Y-104153390D01*
G04 #@! TO.C,TP9*
X117339904Y-100168819D02*
X116768476Y-100168819D01*
X117054190Y-101168819D02*
X117054190Y-100168819D01*
X116435142Y-101168819D02*
X116435142Y-100168819D01*
X116435142Y-100168819D02*
X116054190Y-100168819D01*
X116054190Y-100168819D02*
X115958952Y-100216438D01*
X115958952Y-100216438D02*
X115911333Y-100264057D01*
X115911333Y-100264057D02*
X115863714Y-100359295D01*
X115863714Y-100359295D02*
X115863714Y-100502152D01*
X115863714Y-100502152D02*
X115911333Y-100597390D01*
X115911333Y-100597390D02*
X115958952Y-100645009D01*
X115958952Y-100645009D02*
X116054190Y-100692628D01*
X116054190Y-100692628D02*
X116435142Y-100692628D01*
X115387523Y-101168819D02*
X115197047Y-101168819D01*
X115197047Y-101168819D02*
X115101809Y-101121200D01*
X115101809Y-101121200D02*
X115054190Y-101073580D01*
X115054190Y-101073580D02*
X114958952Y-100930723D01*
X114958952Y-100930723D02*
X114911333Y-100740247D01*
X114911333Y-100740247D02*
X114911333Y-100359295D01*
X114911333Y-100359295D02*
X114958952Y-100264057D01*
X114958952Y-100264057D02*
X115006571Y-100216438D01*
X115006571Y-100216438D02*
X115101809Y-100168819D01*
X115101809Y-100168819D02*
X115292285Y-100168819D01*
X115292285Y-100168819D02*
X115387523Y-100216438D01*
X115387523Y-100216438D02*
X115435142Y-100264057D01*
X115435142Y-100264057D02*
X115482761Y-100359295D01*
X115482761Y-100359295D02*
X115482761Y-100597390D01*
X115482761Y-100597390D02*
X115435142Y-100692628D01*
X115435142Y-100692628D02*
X115387523Y-100740247D01*
X115387523Y-100740247D02*
X115292285Y-100787866D01*
X115292285Y-100787866D02*
X115101809Y-100787866D01*
X115101809Y-100787866D02*
X115006571Y-100740247D01*
X115006571Y-100740247D02*
X114958952Y-100692628D01*
X114958952Y-100692628D02*
X114911333Y-100597390D01*
G04 #@! TO.C,TP16*
X131151094Y-92672819D02*
X130579666Y-92672819D01*
X130865380Y-93672819D02*
X130865380Y-92672819D01*
X130246332Y-93672819D02*
X130246332Y-92672819D01*
X130246332Y-92672819D02*
X129865380Y-92672819D01*
X129865380Y-92672819D02*
X129770142Y-92720438D01*
X129770142Y-92720438D02*
X129722523Y-92768057D01*
X129722523Y-92768057D02*
X129674904Y-92863295D01*
X129674904Y-92863295D02*
X129674904Y-93006152D01*
X129674904Y-93006152D02*
X129722523Y-93101390D01*
X129722523Y-93101390D02*
X129770142Y-93149009D01*
X129770142Y-93149009D02*
X129865380Y-93196628D01*
X129865380Y-93196628D02*
X130246332Y-93196628D01*
X128722523Y-93672819D02*
X129293951Y-93672819D01*
X129008237Y-93672819D02*
X129008237Y-92672819D01*
X129008237Y-92672819D02*
X129103475Y-92815676D01*
X129103475Y-92815676D02*
X129198713Y-92910914D01*
X129198713Y-92910914D02*
X129293951Y-92958533D01*
X127865380Y-92672819D02*
X128055856Y-92672819D01*
X128055856Y-92672819D02*
X128151094Y-92720438D01*
X128151094Y-92720438D02*
X128198713Y-92768057D01*
X128198713Y-92768057D02*
X128293951Y-92910914D01*
X128293951Y-92910914D02*
X128341570Y-93101390D01*
X128341570Y-93101390D02*
X128341570Y-93482342D01*
X128341570Y-93482342D02*
X128293951Y-93577580D01*
X128293951Y-93577580D02*
X128246332Y-93625200D01*
X128246332Y-93625200D02*
X128151094Y-93672819D01*
X128151094Y-93672819D02*
X127960618Y-93672819D01*
X127960618Y-93672819D02*
X127865380Y-93625200D01*
X127865380Y-93625200D02*
X127817761Y-93577580D01*
X127817761Y-93577580D02*
X127770142Y-93482342D01*
X127770142Y-93482342D02*
X127770142Y-93244247D01*
X127770142Y-93244247D02*
X127817761Y-93149009D01*
X127817761Y-93149009D02*
X127865380Y-93101390D01*
X127865380Y-93101390D02*
X127960618Y-93053771D01*
X127960618Y-93053771D02*
X128151094Y-93053771D01*
X128151094Y-93053771D02*
X128246332Y-93101390D01*
X128246332Y-93101390D02*
X128293951Y-93149009D01*
X128293951Y-93149009D02*
X128341570Y-93244247D01*
G04 #@! TO.C,TP15*
X126706094Y-84544819D02*
X126134666Y-84544819D01*
X126420380Y-85544819D02*
X126420380Y-84544819D01*
X125801332Y-85544819D02*
X125801332Y-84544819D01*
X125801332Y-84544819D02*
X125420380Y-84544819D01*
X125420380Y-84544819D02*
X125325142Y-84592438D01*
X125325142Y-84592438D02*
X125277523Y-84640057D01*
X125277523Y-84640057D02*
X125229904Y-84735295D01*
X125229904Y-84735295D02*
X125229904Y-84878152D01*
X125229904Y-84878152D02*
X125277523Y-84973390D01*
X125277523Y-84973390D02*
X125325142Y-85021009D01*
X125325142Y-85021009D02*
X125420380Y-85068628D01*
X125420380Y-85068628D02*
X125801332Y-85068628D01*
X124277523Y-85544819D02*
X124848951Y-85544819D01*
X124563237Y-85544819D02*
X124563237Y-84544819D01*
X124563237Y-84544819D02*
X124658475Y-84687676D01*
X124658475Y-84687676D02*
X124753713Y-84782914D01*
X124753713Y-84782914D02*
X124848951Y-84830533D01*
X123372761Y-84544819D02*
X123848951Y-84544819D01*
X123848951Y-84544819D02*
X123896570Y-85021009D01*
X123896570Y-85021009D02*
X123848951Y-84973390D01*
X123848951Y-84973390D02*
X123753713Y-84925771D01*
X123753713Y-84925771D02*
X123515618Y-84925771D01*
X123515618Y-84925771D02*
X123420380Y-84973390D01*
X123420380Y-84973390D02*
X123372761Y-85021009D01*
X123372761Y-85021009D02*
X123325142Y-85116247D01*
X123325142Y-85116247D02*
X123325142Y-85354342D01*
X123325142Y-85354342D02*
X123372761Y-85449580D01*
X123372761Y-85449580D02*
X123420380Y-85497200D01*
X123420380Y-85497200D02*
X123515618Y-85544819D01*
X123515618Y-85544819D02*
X123753713Y-85544819D01*
X123753713Y-85544819D02*
X123848951Y-85497200D01*
X123848951Y-85497200D02*
X123896570Y-85449580D01*
G04 #@! TO.C,TP5*
X135119904Y-99403819D02*
X134548476Y-99403819D01*
X134834190Y-100403819D02*
X134834190Y-99403819D01*
X134215142Y-100403819D02*
X134215142Y-99403819D01*
X134215142Y-99403819D02*
X133834190Y-99403819D01*
X133834190Y-99403819D02*
X133738952Y-99451438D01*
X133738952Y-99451438D02*
X133691333Y-99499057D01*
X133691333Y-99499057D02*
X133643714Y-99594295D01*
X133643714Y-99594295D02*
X133643714Y-99737152D01*
X133643714Y-99737152D02*
X133691333Y-99832390D01*
X133691333Y-99832390D02*
X133738952Y-99880009D01*
X133738952Y-99880009D02*
X133834190Y-99927628D01*
X133834190Y-99927628D02*
X134215142Y-99927628D01*
X132738952Y-99403819D02*
X133215142Y-99403819D01*
X133215142Y-99403819D02*
X133262761Y-99880009D01*
X133262761Y-99880009D02*
X133215142Y-99832390D01*
X133215142Y-99832390D02*
X133119904Y-99784771D01*
X133119904Y-99784771D02*
X132881809Y-99784771D01*
X132881809Y-99784771D02*
X132786571Y-99832390D01*
X132786571Y-99832390D02*
X132738952Y-99880009D01*
X132738952Y-99880009D02*
X132691333Y-99975247D01*
X132691333Y-99975247D02*
X132691333Y-100213342D01*
X132691333Y-100213342D02*
X132738952Y-100308580D01*
X132738952Y-100308580D02*
X132786571Y-100356200D01*
X132786571Y-100356200D02*
X132881809Y-100403819D01*
X132881809Y-100403819D02*
X133119904Y-100403819D01*
X133119904Y-100403819D02*
X133215142Y-100356200D01*
X133215142Y-100356200D02*
X133262761Y-100308580D01*
G04 #@! TO.C,TP11*
X136612094Y-93180819D02*
X136040666Y-93180819D01*
X136326380Y-94180819D02*
X136326380Y-93180819D01*
X135707332Y-94180819D02*
X135707332Y-93180819D01*
X135707332Y-93180819D02*
X135326380Y-93180819D01*
X135326380Y-93180819D02*
X135231142Y-93228438D01*
X135231142Y-93228438D02*
X135183523Y-93276057D01*
X135183523Y-93276057D02*
X135135904Y-93371295D01*
X135135904Y-93371295D02*
X135135904Y-93514152D01*
X135135904Y-93514152D02*
X135183523Y-93609390D01*
X135183523Y-93609390D02*
X135231142Y-93657009D01*
X135231142Y-93657009D02*
X135326380Y-93704628D01*
X135326380Y-93704628D02*
X135707332Y-93704628D01*
X134183523Y-94180819D02*
X134754951Y-94180819D01*
X134469237Y-94180819D02*
X134469237Y-93180819D01*
X134469237Y-93180819D02*
X134564475Y-93323676D01*
X134564475Y-93323676D02*
X134659713Y-93418914D01*
X134659713Y-93418914D02*
X134754951Y-93466533D01*
X133231142Y-94180819D02*
X133802570Y-94180819D01*
X133516856Y-94180819D02*
X133516856Y-93180819D01*
X133516856Y-93180819D02*
X133612094Y-93323676D01*
X133612094Y-93323676D02*
X133707332Y-93418914D01*
X133707332Y-93418914D02*
X133802570Y-93466533D01*
G04 #@! TO.C,TP2*
X135119904Y-102454819D02*
X134548476Y-102454819D01*
X134834190Y-103454819D02*
X134834190Y-102454819D01*
X134215142Y-103454819D02*
X134215142Y-102454819D01*
X134215142Y-102454819D02*
X133834190Y-102454819D01*
X133834190Y-102454819D02*
X133738952Y-102502438D01*
X133738952Y-102502438D02*
X133691333Y-102550057D01*
X133691333Y-102550057D02*
X133643714Y-102645295D01*
X133643714Y-102645295D02*
X133643714Y-102788152D01*
X133643714Y-102788152D02*
X133691333Y-102883390D01*
X133691333Y-102883390D02*
X133738952Y-102931009D01*
X133738952Y-102931009D02*
X133834190Y-102978628D01*
X133834190Y-102978628D02*
X134215142Y-102978628D01*
X133262761Y-102550057D02*
X133215142Y-102502438D01*
X133215142Y-102502438D02*
X133119904Y-102454819D01*
X133119904Y-102454819D02*
X132881809Y-102454819D01*
X132881809Y-102454819D02*
X132786571Y-102502438D01*
X132786571Y-102502438D02*
X132738952Y-102550057D01*
X132738952Y-102550057D02*
X132691333Y-102645295D01*
X132691333Y-102645295D02*
X132691333Y-102740533D01*
X132691333Y-102740533D02*
X132738952Y-102883390D01*
X132738952Y-102883390D02*
X133310380Y-103454819D01*
X133310380Y-103454819D02*
X132691333Y-103454819D01*
G04 #@! TO.C,TP14*
X124293094Y-86322819D02*
X123721666Y-86322819D01*
X124007380Y-87322819D02*
X124007380Y-86322819D01*
X123388332Y-87322819D02*
X123388332Y-86322819D01*
X123388332Y-86322819D02*
X123007380Y-86322819D01*
X123007380Y-86322819D02*
X122912142Y-86370438D01*
X122912142Y-86370438D02*
X122864523Y-86418057D01*
X122864523Y-86418057D02*
X122816904Y-86513295D01*
X122816904Y-86513295D02*
X122816904Y-86656152D01*
X122816904Y-86656152D02*
X122864523Y-86751390D01*
X122864523Y-86751390D02*
X122912142Y-86799009D01*
X122912142Y-86799009D02*
X123007380Y-86846628D01*
X123007380Y-86846628D02*
X123388332Y-86846628D01*
X121864523Y-87322819D02*
X122435951Y-87322819D01*
X122150237Y-87322819D02*
X122150237Y-86322819D01*
X122150237Y-86322819D02*
X122245475Y-86465676D01*
X122245475Y-86465676D02*
X122340713Y-86560914D01*
X122340713Y-86560914D02*
X122435951Y-86608533D01*
X121007380Y-86656152D02*
X121007380Y-87322819D01*
X121245475Y-86275200D02*
X121483570Y-86989485D01*
X121483570Y-86989485D02*
X120864523Y-86989485D01*
G04 #@! TO.C,TP6*
X116450904Y-96228819D02*
X115879476Y-96228819D01*
X116165190Y-97228819D02*
X116165190Y-96228819D01*
X115546142Y-97228819D02*
X115546142Y-96228819D01*
X115546142Y-96228819D02*
X115165190Y-96228819D01*
X115165190Y-96228819D02*
X115069952Y-96276438D01*
X115069952Y-96276438D02*
X115022333Y-96324057D01*
X115022333Y-96324057D02*
X114974714Y-96419295D01*
X114974714Y-96419295D02*
X114974714Y-96562152D01*
X114974714Y-96562152D02*
X115022333Y-96657390D01*
X115022333Y-96657390D02*
X115069952Y-96705009D01*
X115069952Y-96705009D02*
X115165190Y-96752628D01*
X115165190Y-96752628D02*
X115546142Y-96752628D01*
X114117571Y-96228819D02*
X114308047Y-96228819D01*
X114308047Y-96228819D02*
X114403285Y-96276438D01*
X114403285Y-96276438D02*
X114450904Y-96324057D01*
X114450904Y-96324057D02*
X114546142Y-96466914D01*
X114546142Y-96466914D02*
X114593761Y-96657390D01*
X114593761Y-96657390D02*
X114593761Y-97038342D01*
X114593761Y-97038342D02*
X114546142Y-97133580D01*
X114546142Y-97133580D02*
X114498523Y-97181200D01*
X114498523Y-97181200D02*
X114403285Y-97228819D01*
X114403285Y-97228819D02*
X114212809Y-97228819D01*
X114212809Y-97228819D02*
X114117571Y-97181200D01*
X114117571Y-97181200D02*
X114069952Y-97133580D01*
X114069952Y-97133580D02*
X114022333Y-97038342D01*
X114022333Y-97038342D02*
X114022333Y-96800247D01*
X114022333Y-96800247D02*
X114069952Y-96705009D01*
X114069952Y-96705009D02*
X114117571Y-96657390D01*
X114117571Y-96657390D02*
X114212809Y-96609771D01*
X114212809Y-96609771D02*
X114403285Y-96609771D01*
X114403285Y-96609771D02*
X114498523Y-96657390D01*
X114498523Y-96657390D02*
X114546142Y-96705009D01*
X114546142Y-96705009D02*
X114593761Y-96800247D01*
G04 #@! TO.C,TP3*
X111243904Y-88227819D02*
X110672476Y-88227819D01*
X110958190Y-89227819D02*
X110958190Y-88227819D01*
X110339142Y-89227819D02*
X110339142Y-88227819D01*
X110339142Y-88227819D02*
X109958190Y-88227819D01*
X109958190Y-88227819D02*
X109862952Y-88275438D01*
X109862952Y-88275438D02*
X109815333Y-88323057D01*
X109815333Y-88323057D02*
X109767714Y-88418295D01*
X109767714Y-88418295D02*
X109767714Y-88561152D01*
X109767714Y-88561152D02*
X109815333Y-88656390D01*
X109815333Y-88656390D02*
X109862952Y-88704009D01*
X109862952Y-88704009D02*
X109958190Y-88751628D01*
X109958190Y-88751628D02*
X110339142Y-88751628D01*
X109434380Y-88227819D02*
X108815333Y-88227819D01*
X108815333Y-88227819D02*
X109148666Y-88608771D01*
X109148666Y-88608771D02*
X109005809Y-88608771D01*
X109005809Y-88608771D02*
X108910571Y-88656390D01*
X108910571Y-88656390D02*
X108862952Y-88704009D01*
X108862952Y-88704009D02*
X108815333Y-88799247D01*
X108815333Y-88799247D02*
X108815333Y-89037342D01*
X108815333Y-89037342D02*
X108862952Y-89132580D01*
X108862952Y-89132580D02*
X108910571Y-89180200D01*
X108910571Y-89180200D02*
X109005809Y-89227819D01*
X109005809Y-89227819D02*
X109291523Y-89227819D01*
X109291523Y-89227819D02*
X109386761Y-89180200D01*
X109386761Y-89180200D02*
X109434380Y-89132580D01*
G04 #@! TO.C,TP13*
X136866094Y-96609819D02*
X136294666Y-96609819D01*
X136580380Y-97609819D02*
X136580380Y-96609819D01*
X135961332Y-97609819D02*
X135961332Y-96609819D01*
X135961332Y-96609819D02*
X135580380Y-96609819D01*
X135580380Y-96609819D02*
X135485142Y-96657438D01*
X135485142Y-96657438D02*
X135437523Y-96705057D01*
X135437523Y-96705057D02*
X135389904Y-96800295D01*
X135389904Y-96800295D02*
X135389904Y-96943152D01*
X135389904Y-96943152D02*
X135437523Y-97038390D01*
X135437523Y-97038390D02*
X135485142Y-97086009D01*
X135485142Y-97086009D02*
X135580380Y-97133628D01*
X135580380Y-97133628D02*
X135961332Y-97133628D01*
X134437523Y-97609819D02*
X135008951Y-97609819D01*
X134723237Y-97609819D02*
X134723237Y-96609819D01*
X134723237Y-96609819D02*
X134818475Y-96752676D01*
X134818475Y-96752676D02*
X134913713Y-96847914D01*
X134913713Y-96847914D02*
X135008951Y-96895533D01*
X134104189Y-96609819D02*
X133485142Y-96609819D01*
X133485142Y-96609819D02*
X133818475Y-96990771D01*
X133818475Y-96990771D02*
X133675618Y-96990771D01*
X133675618Y-96990771D02*
X133580380Y-97038390D01*
X133580380Y-97038390D02*
X133532761Y-97086009D01*
X133532761Y-97086009D02*
X133485142Y-97181247D01*
X133485142Y-97181247D02*
X133485142Y-97419342D01*
X133485142Y-97419342D02*
X133532761Y-97514580D01*
X133532761Y-97514580D02*
X133580380Y-97562200D01*
X133580380Y-97562200D02*
X133675618Y-97609819D01*
X133675618Y-97609819D02*
X133961332Y-97609819D01*
X133961332Y-97609819D02*
X134056570Y-97562200D01*
X134056570Y-97562200D02*
X134104189Y-97514580D01*
G04 #@! TO.C,TP1*
X137405904Y-105248819D02*
X136834476Y-105248819D01*
X137120190Y-106248819D02*
X137120190Y-105248819D01*
X136501142Y-106248819D02*
X136501142Y-105248819D01*
X136501142Y-105248819D02*
X136120190Y-105248819D01*
X136120190Y-105248819D02*
X136024952Y-105296438D01*
X136024952Y-105296438D02*
X135977333Y-105344057D01*
X135977333Y-105344057D02*
X135929714Y-105439295D01*
X135929714Y-105439295D02*
X135929714Y-105582152D01*
X135929714Y-105582152D02*
X135977333Y-105677390D01*
X135977333Y-105677390D02*
X136024952Y-105725009D01*
X136024952Y-105725009D02*
X136120190Y-105772628D01*
X136120190Y-105772628D02*
X136501142Y-105772628D01*
X134977333Y-106248819D02*
X135548761Y-106248819D01*
X135263047Y-106248819D02*
X135263047Y-105248819D01*
X135263047Y-105248819D02*
X135358285Y-105391676D01*
X135358285Y-105391676D02*
X135453523Y-105486914D01*
X135453523Y-105486914D02*
X135548761Y-105534533D01*
G04 #@! TO.C,TP10*
X122769094Y-96863819D02*
X122197666Y-96863819D01*
X122483380Y-97863819D02*
X122483380Y-96863819D01*
X121864332Y-97863819D02*
X121864332Y-96863819D01*
X121864332Y-96863819D02*
X121483380Y-96863819D01*
X121483380Y-96863819D02*
X121388142Y-96911438D01*
X121388142Y-96911438D02*
X121340523Y-96959057D01*
X121340523Y-96959057D02*
X121292904Y-97054295D01*
X121292904Y-97054295D02*
X121292904Y-97197152D01*
X121292904Y-97197152D02*
X121340523Y-97292390D01*
X121340523Y-97292390D02*
X121388142Y-97340009D01*
X121388142Y-97340009D02*
X121483380Y-97387628D01*
X121483380Y-97387628D02*
X121864332Y-97387628D01*
X120340523Y-97863819D02*
X120911951Y-97863819D01*
X120626237Y-97863819D02*
X120626237Y-96863819D01*
X120626237Y-96863819D02*
X120721475Y-97006676D01*
X120721475Y-97006676D02*
X120816713Y-97101914D01*
X120816713Y-97101914D02*
X120911951Y-97149533D01*
X119721475Y-96863819D02*
X119626237Y-96863819D01*
X119626237Y-96863819D02*
X119530999Y-96911438D01*
X119530999Y-96911438D02*
X119483380Y-96959057D01*
X119483380Y-96959057D02*
X119435761Y-97054295D01*
X119435761Y-97054295D02*
X119388142Y-97244771D01*
X119388142Y-97244771D02*
X119388142Y-97482866D01*
X119388142Y-97482866D02*
X119435761Y-97673342D01*
X119435761Y-97673342D02*
X119483380Y-97768580D01*
X119483380Y-97768580D02*
X119530999Y-97816200D01*
X119530999Y-97816200D02*
X119626237Y-97863819D01*
X119626237Y-97863819D02*
X119721475Y-97863819D01*
X119721475Y-97863819D02*
X119816713Y-97816200D01*
X119816713Y-97816200D02*
X119864332Y-97768580D01*
X119864332Y-97768580D02*
X119911951Y-97673342D01*
X119911951Y-97673342D02*
X119959570Y-97482866D01*
X119959570Y-97482866D02*
X119959570Y-97244771D01*
X119959570Y-97244771D02*
X119911951Y-97054295D01*
X119911951Y-97054295D02*
X119864332Y-96959057D01*
X119864332Y-96959057D02*
X119816713Y-96911438D01*
X119816713Y-96911438D02*
X119721475Y-96863819D01*
G04 #@! TO.C,TP12*
X130135094Y-89751819D02*
X129563666Y-89751819D01*
X129849380Y-90751819D02*
X129849380Y-89751819D01*
X129230332Y-90751819D02*
X129230332Y-89751819D01*
X129230332Y-89751819D02*
X128849380Y-89751819D01*
X128849380Y-89751819D02*
X128754142Y-89799438D01*
X128754142Y-89799438D02*
X128706523Y-89847057D01*
X128706523Y-89847057D02*
X128658904Y-89942295D01*
X128658904Y-89942295D02*
X128658904Y-90085152D01*
X128658904Y-90085152D02*
X128706523Y-90180390D01*
X128706523Y-90180390D02*
X128754142Y-90228009D01*
X128754142Y-90228009D02*
X128849380Y-90275628D01*
X128849380Y-90275628D02*
X129230332Y-90275628D01*
X127706523Y-90751819D02*
X128277951Y-90751819D01*
X127992237Y-90751819D02*
X127992237Y-89751819D01*
X127992237Y-89751819D02*
X128087475Y-89894676D01*
X128087475Y-89894676D02*
X128182713Y-89989914D01*
X128182713Y-89989914D02*
X128277951Y-90037533D01*
X127325570Y-89847057D02*
X127277951Y-89799438D01*
X127277951Y-89799438D02*
X127182713Y-89751819D01*
X127182713Y-89751819D02*
X126944618Y-89751819D01*
X126944618Y-89751819D02*
X126849380Y-89799438D01*
X126849380Y-89799438D02*
X126801761Y-89847057D01*
X126801761Y-89847057D02*
X126754142Y-89942295D01*
X126754142Y-89942295D02*
X126754142Y-90037533D01*
X126754142Y-90037533D02*
X126801761Y-90180390D01*
X126801761Y-90180390D02*
X127373189Y-90751819D01*
X127373189Y-90751819D02*
X126754142Y-90751819D01*
G04 #@! TO.C,REF\u002A\u002A*
D15*
X118795941Y-92500282D02*
X118827774Y-92512758D01*
X118864743Y-92529602D01*
X118864743Y-93016196D01*
X118818812Y-93062127D01*
X118808320Y-93072427D01*
X118779255Y-93095320D01*
X118749943Y-93102735D01*
X118706326Y-93099321D01*
X118688568Y-93097114D01*
X118642767Y-93092445D01*
X118610743Y-93090585D01*
X118601244Y-93090869D01*
X118562274Y-93093948D01*
X118515160Y-93099321D01*
X118500085Y-93101168D01*
X118462110Y-93101893D01*
X118434325Y-93090429D01*
X118402674Y-93062127D01*
X118356743Y-93016196D01*
X118356743Y-92756055D01*
X118357101Y-92679180D01*
X118358216Y-92605886D01*
X118359952Y-92547850D01*
X118362167Y-92509663D01*
X118364721Y-92495914D01*
X118365256Y-92495951D01*
X118383808Y-92502793D01*
X118415153Y-92517868D01*
X118457608Y-92539822D01*
X118461604Y-92768240D01*
X118465600Y-92996657D01*
X118552686Y-92996657D01*
X118556657Y-92746286D01*
X118557916Y-92678227D01*
X118559718Y-92605482D01*
X118561671Y-92547730D01*
X118563612Y-92509648D01*
X118565377Y-92495914D01*
X118565885Y-92495962D01*
X118583482Y-92501015D01*
X118615834Y-92511849D01*
X118661543Y-92527783D01*
X118661765Y-92747706D01*
X118661988Y-92785909D01*
X118663531Y-92860146D01*
X118666292Y-92922145D01*
X118669977Y-92966308D01*
X118674292Y-92987041D01*
X118689732Y-92998131D01*
X118721241Y-93001556D01*
X118755886Y-92996657D01*
X118759857Y-92746286D01*
X118761278Y-92682663D01*
X118764225Y-92607356D01*
X118768079Y-92548286D01*
X118772542Y-92509718D01*
X118777317Y-92495914D01*
X118795941Y-92500282D01*
G36*
X118795941Y-92500282D02*
G01*
X118827774Y-92512758D01*
X118864743Y-92529602D01*
X118864743Y-93016196D01*
X118818812Y-93062127D01*
X118808320Y-93072427D01*
X118779255Y-93095320D01*
X118749943Y-93102735D01*
X118706326Y-93099321D01*
X118688568Y-93097114D01*
X118642767Y-93092445D01*
X118610743Y-93090585D01*
X118601244Y-93090869D01*
X118562274Y-93093948D01*
X118515160Y-93099321D01*
X118500085Y-93101168D01*
X118462110Y-93101893D01*
X118434325Y-93090429D01*
X118402674Y-93062127D01*
X118356743Y-93016196D01*
X118356743Y-92756055D01*
X118357101Y-92679180D01*
X118358216Y-92605886D01*
X118359952Y-92547850D01*
X118362167Y-92509663D01*
X118364721Y-92495914D01*
X118365256Y-92495951D01*
X118383808Y-92502793D01*
X118415153Y-92517868D01*
X118457608Y-92539822D01*
X118461604Y-92768240D01*
X118465600Y-92996657D01*
X118552686Y-92996657D01*
X118556657Y-92746286D01*
X118557916Y-92678227D01*
X118559718Y-92605482D01*
X118561671Y-92547730D01*
X118563612Y-92509648D01*
X118565377Y-92495914D01*
X118565885Y-92495962D01*
X118583482Y-92501015D01*
X118615834Y-92511849D01*
X118661543Y-92527783D01*
X118661765Y-92747706D01*
X118661988Y-92785909D01*
X118663531Y-92860146D01*
X118666292Y-92922145D01*
X118669977Y-92966308D01*
X118674292Y-92987041D01*
X118689732Y-92998131D01*
X118721241Y-93001556D01*
X118755886Y-92996657D01*
X118759857Y-92746286D01*
X118761278Y-92682663D01*
X118764225Y-92607356D01*
X118768079Y-92548286D01*
X118772542Y-92509718D01*
X118777317Y-92495914D01*
X118795941Y-92500282D01*
G37*
X123407714Y-92786200D02*
X123407701Y-92801935D01*
X123406914Y-92872119D01*
X123404210Y-92921022D01*
X123398606Y-92955178D01*
X123389119Y-92981124D01*
X123374768Y-93005397D01*
X123371237Y-93010433D01*
X123333878Y-93050143D01*
X123291311Y-93080092D01*
X123269452Y-93089810D01*
X123190908Y-93106020D01*
X123113231Y-93095535D01*
X123041645Y-93059707D01*
X122981374Y-92999887D01*
X122976286Y-92991873D01*
X122959730Y-92945342D01*
X122948573Y-92880552D01*
X122943160Y-92805727D01*
X122943768Y-92736513D01*
X123090248Y-92736513D01*
X123091402Y-92832399D01*
X123091866Y-92838569D01*
X123098629Y-92891478D01*
X123110671Y-92925029D01*
X123131005Y-92948016D01*
X123165097Y-92969548D01*
X123198814Y-92970680D01*
X123233543Y-92945857D01*
X123239584Y-92939325D01*
X123251417Y-92919779D01*
X123258404Y-92891386D01*
X123261727Y-92847430D01*
X123262571Y-92781192D01*
X123261125Y-92719150D01*
X123253907Y-92660042D01*
X123239006Y-92622686D01*
X123214636Y-92603152D01*
X123179008Y-92597514D01*
X123165440Y-92598635D01*
X123127430Y-92619194D01*
X123102312Y-92665299D01*
X123090248Y-92736513D01*
X122943768Y-92736513D01*
X122943833Y-92729096D01*
X122950937Y-92658882D01*
X122964815Y-92603312D01*
X122982649Y-92566301D01*
X123032855Y-92508733D01*
X123100885Y-92472962D01*
X123184158Y-92460665D01*
X123206398Y-92461331D01*
X123271891Y-92474947D01*
X123325687Y-92509249D01*
X123375057Y-92568338D01*
X123377995Y-92572722D01*
X123391287Y-92596299D01*
X123399932Y-92622949D01*
X123404904Y-92659159D01*
X123407174Y-92711413D01*
X123407678Y-92781192D01*
X123407714Y-92786200D01*
G36*
X123407714Y-92786200D02*
G01*
X123407701Y-92801935D01*
X123406914Y-92872119D01*
X123404210Y-92921022D01*
X123398606Y-92955178D01*
X123389119Y-92981124D01*
X123374768Y-93005397D01*
X123371237Y-93010433D01*
X123333878Y-93050143D01*
X123291311Y-93080092D01*
X123269452Y-93089810D01*
X123190908Y-93106020D01*
X123113231Y-93095535D01*
X123041645Y-93059707D01*
X122981374Y-92999887D01*
X122976286Y-92991873D01*
X122959730Y-92945342D01*
X122948573Y-92880552D01*
X122943160Y-92805727D01*
X122943768Y-92736513D01*
X123090248Y-92736513D01*
X123091402Y-92832399D01*
X123091866Y-92838569D01*
X123098629Y-92891478D01*
X123110671Y-92925029D01*
X123131005Y-92948016D01*
X123165097Y-92969548D01*
X123198814Y-92970680D01*
X123233543Y-92945857D01*
X123239584Y-92939325D01*
X123251417Y-92919779D01*
X123258404Y-92891386D01*
X123261727Y-92847430D01*
X123262571Y-92781192D01*
X123261125Y-92719150D01*
X123253907Y-92660042D01*
X123239006Y-92622686D01*
X123214636Y-92603152D01*
X123179008Y-92597514D01*
X123165440Y-92598635D01*
X123127430Y-92619194D01*
X123102312Y-92665299D01*
X123090248Y-92736513D01*
X122943768Y-92736513D01*
X122943833Y-92729096D01*
X122950937Y-92658882D01*
X122964815Y-92603312D01*
X122982649Y-92566301D01*
X123032855Y-92508733D01*
X123100885Y-92472962D01*
X123184158Y-92460665D01*
X123206398Y-92461331D01*
X123271891Y-92474947D01*
X123325687Y-92509249D01*
X123375057Y-92568338D01*
X123377995Y-92572722D01*
X123391287Y-92596299D01*
X123399932Y-92622949D01*
X123404904Y-92659159D01*
X123407174Y-92711413D01*
X123407678Y-92781192D01*
X123407714Y-92786200D01*
G37*
X117282590Y-92803622D02*
X117282307Y-92842305D01*
X117278762Y-92918521D01*
X117269483Y-92974294D01*
X117252375Y-93015613D01*
X117225344Y-93048467D01*
X117186292Y-93078846D01*
X117161445Y-93092660D01*
X117121615Y-93101965D01*
X117065665Y-93101230D01*
X117034385Y-93098283D01*
X116996653Y-93089283D01*
X116966494Y-93069720D01*
X116931408Y-93033267D01*
X116926720Y-93027943D01*
X116895177Y-92986969D01*
X116880128Y-92951283D01*
X116876286Y-92908966D01*
X116876286Y-92846779D01*
X116919742Y-92863182D01*
X116951424Y-92882356D01*
X116978962Y-92927347D01*
X116984711Y-92941752D01*
X117016855Y-92982546D01*
X117060611Y-93003081D01*
X117108254Y-93001235D01*
X117152057Y-92974886D01*
X117167111Y-92958455D01*
X117180763Y-92933667D01*
X117176493Y-92911144D01*
X117151916Y-92887964D01*
X117104651Y-92861202D01*
X117032314Y-92827934D01*
X116883543Y-92762816D01*
X116879595Y-92698308D01*
X116881079Y-92657220D01*
X116978010Y-92657220D01*
X116985368Y-92682657D01*
X117018848Y-92709814D01*
X117079614Y-92740714D01*
X117089669Y-92745190D01*
X117137751Y-92766017D01*
X117173726Y-92780665D01*
X117190444Y-92786200D01*
X117192977Y-92782126D01*
X117193993Y-92757247D01*
X117190369Y-92717257D01*
X117181242Y-92678152D01*
X117152773Y-92628884D01*
X117111678Y-92601122D01*
X117062590Y-92597364D01*
X117010144Y-92620109D01*
X116995609Y-92631481D01*
X116978010Y-92657220D01*
X116881079Y-92657220D01*
X116881338Y-92650064D01*
X116903281Y-92589096D01*
X116930979Y-92555497D01*
X116988405Y-92517966D01*
X117056527Y-92499006D01*
X117126947Y-92500507D01*
X117191267Y-92524355D01*
X117205426Y-92533513D01*
X117237904Y-92561849D01*
X117260116Y-92597695D01*
X117273804Y-92646384D01*
X117280715Y-92713249D01*
X117281628Y-92757247D01*
X117282590Y-92803622D01*
G36*
X117282590Y-92803622D02*
G01*
X117282307Y-92842305D01*
X117278762Y-92918521D01*
X117269483Y-92974294D01*
X117252375Y-93015613D01*
X117225344Y-93048467D01*
X117186292Y-93078846D01*
X117161445Y-93092660D01*
X117121615Y-93101965D01*
X117065665Y-93101230D01*
X117034385Y-93098283D01*
X116996653Y-93089283D01*
X116966494Y-93069720D01*
X116931408Y-93033267D01*
X116926720Y-93027943D01*
X116895177Y-92986969D01*
X116880128Y-92951283D01*
X116876286Y-92908966D01*
X116876286Y-92846779D01*
X116919742Y-92863182D01*
X116951424Y-92882356D01*
X116978962Y-92927347D01*
X116984711Y-92941752D01*
X117016855Y-92982546D01*
X117060611Y-93003081D01*
X117108254Y-93001235D01*
X117152057Y-92974886D01*
X117167111Y-92958455D01*
X117180763Y-92933667D01*
X117176493Y-92911144D01*
X117151916Y-92887964D01*
X117104651Y-92861202D01*
X117032314Y-92827934D01*
X116883543Y-92762816D01*
X116879595Y-92698308D01*
X116881079Y-92657220D01*
X116978010Y-92657220D01*
X116985368Y-92682657D01*
X117018848Y-92709814D01*
X117079614Y-92740714D01*
X117089669Y-92745190D01*
X117137751Y-92766017D01*
X117173726Y-92780665D01*
X117190444Y-92786200D01*
X117192977Y-92782126D01*
X117193993Y-92757247D01*
X117190369Y-92717257D01*
X117181242Y-92678152D01*
X117152773Y-92628884D01*
X117111678Y-92601122D01*
X117062590Y-92597364D01*
X117010144Y-92620109D01*
X116995609Y-92631481D01*
X116978010Y-92657220D01*
X116881079Y-92657220D01*
X116881338Y-92650064D01*
X116903281Y-92589096D01*
X116930979Y-92555497D01*
X116988405Y-92517966D01*
X117056527Y-92499006D01*
X117126947Y-92500507D01*
X117191267Y-92524355D01*
X117205426Y-92533513D01*
X117237904Y-92561849D01*
X117260116Y-92597695D01*
X117273804Y-92646384D01*
X117280715Y-92713249D01*
X117281628Y-92757247D01*
X117282590Y-92803622D01*
G37*
X121573020Y-92468822D02*
X121640810Y-92500680D01*
X121696366Y-92555770D01*
X121707881Y-92573016D01*
X121717432Y-92592562D01*
X121724206Y-92617198D01*
X121728819Y-92651711D01*
X121731888Y-92700889D01*
X121734029Y-92769519D01*
X121735859Y-92862389D01*
X121740404Y-93120007D01*
X121702225Y-93105491D01*
X121667268Y-93092156D01*
X121641097Y-93079323D01*
X121624013Y-93062780D01*
X121614086Y-93037465D01*
X121609386Y-92998316D01*
X121607982Y-92940268D01*
X121607943Y-92858261D01*
X121607744Y-92792895D01*
X121606559Y-92730173D01*
X121603729Y-92687334D01*
X121598609Y-92659220D01*
X121590553Y-92640675D01*
X121578914Y-92626543D01*
X121550303Y-92606600D01*
X121502239Y-92599083D01*
X121454688Y-92618079D01*
X121451550Y-92620511D01*
X121441769Y-92631748D01*
X121434553Y-92649770D01*
X121429299Y-92679026D01*
X121425402Y-92723962D01*
X121422256Y-92789028D01*
X121419257Y-92878670D01*
X121412000Y-93118697D01*
X121350314Y-93091044D01*
X121288629Y-93063391D01*
X121288629Y-92844246D01*
X121288884Y-92784711D01*
X121291086Y-92701892D01*
X121296661Y-92640227D01*
X121306941Y-92594748D01*
X121323258Y-92560484D01*
X121346943Y-92532466D01*
X121379328Y-92505723D01*
X121425907Y-92478780D01*
X121499287Y-92461191D01*
X121573020Y-92468822D01*
G36*
X121573020Y-92468822D02*
G01*
X121640810Y-92500680D01*
X121696366Y-92555770D01*
X121707881Y-92573016D01*
X121717432Y-92592562D01*
X121724206Y-92617198D01*
X121728819Y-92651711D01*
X121731888Y-92700889D01*
X121734029Y-92769519D01*
X121735859Y-92862389D01*
X121740404Y-93120007D01*
X121702225Y-93105491D01*
X121667268Y-93092156D01*
X121641097Y-93079323D01*
X121624013Y-93062780D01*
X121614086Y-93037465D01*
X121609386Y-92998316D01*
X121607982Y-92940268D01*
X121607943Y-92858261D01*
X121607744Y-92792895D01*
X121606559Y-92730173D01*
X121603729Y-92687334D01*
X121598609Y-92659220D01*
X121590553Y-92640675D01*
X121578914Y-92626543D01*
X121550303Y-92606600D01*
X121502239Y-92599083D01*
X121454688Y-92618079D01*
X121451550Y-92620511D01*
X121441769Y-92631748D01*
X121434553Y-92649770D01*
X121429299Y-92679026D01*
X121425402Y-92723962D01*
X121422256Y-92789028D01*
X121419257Y-92878670D01*
X121412000Y-93118697D01*
X121350314Y-93091044D01*
X121288629Y-93063391D01*
X121288629Y-92844246D01*
X121288884Y-92784711D01*
X121291086Y-92701892D01*
X121296661Y-92640227D01*
X121306941Y-92594748D01*
X121323258Y-92560484D01*
X121346943Y-92532466D01*
X121379328Y-92505723D01*
X121425907Y-92478780D01*
X121499287Y-92461191D01*
X121573020Y-92468822D01*
G37*
X117624829Y-92502097D02*
X117684753Y-92524355D01*
X117709673Y-92541080D01*
X117734910Y-92565043D01*
X117752912Y-92595526D01*
X117764858Y-92637023D01*
X117771930Y-92694032D01*
X117775308Y-92771047D01*
X117776171Y-92872565D01*
X117776002Y-92925027D01*
X117775153Y-92996715D01*
X117773711Y-93053925D01*
X117771814Y-93091809D01*
X117769597Y-93105514D01*
X117755172Y-93100981D01*
X117726054Y-93088670D01*
X117725181Y-93088272D01*
X117710060Y-93080356D01*
X117699891Y-93069495D01*
X117693691Y-93050471D01*
X117690478Y-93018069D01*
X117689270Y-92967071D01*
X117689086Y-92892261D01*
X117688714Y-92844804D01*
X117684750Y-92755615D01*
X117675673Y-92690287D01*
X117660524Y-92645393D01*
X117638345Y-92617507D01*
X117608175Y-92603203D01*
X117603990Y-92602206D01*
X117547480Y-92601427D01*
X117503410Y-92626744D01*
X117472972Y-92677502D01*
X117467544Y-92692175D01*
X117455171Y-92724649D01*
X117448905Y-92739572D01*
X117436036Y-92737516D01*
X117407933Y-92726357D01*
X117381721Y-92707927D01*
X117369771Y-92673098D01*
X117373336Y-92648151D01*
X117395235Y-92597547D01*
X117430644Y-92550128D01*
X117472052Y-92517334D01*
X117489400Y-92509752D01*
X117555089Y-92497076D01*
X117624829Y-92502097D01*
G36*
X117624829Y-92502097D02*
G01*
X117684753Y-92524355D01*
X117709673Y-92541080D01*
X117734910Y-92565043D01*
X117752912Y-92595526D01*
X117764858Y-92637023D01*
X117771930Y-92694032D01*
X117775308Y-92771047D01*
X117776171Y-92872565D01*
X117776002Y-92925027D01*
X117775153Y-92996715D01*
X117773711Y-93053925D01*
X117771814Y-93091809D01*
X117769597Y-93105514D01*
X117755172Y-93100981D01*
X117726054Y-93088670D01*
X117725181Y-93088272D01*
X117710060Y-93080356D01*
X117699891Y-93069495D01*
X117693691Y-93050471D01*
X117690478Y-93018069D01*
X117689270Y-92967071D01*
X117689086Y-92892261D01*
X117688714Y-92844804D01*
X117684750Y-92755615D01*
X117675673Y-92690287D01*
X117660524Y-92645393D01*
X117638345Y-92617507D01*
X117608175Y-92603203D01*
X117603990Y-92602206D01*
X117547480Y-92601427D01*
X117503410Y-92626744D01*
X117472972Y-92677502D01*
X117467544Y-92692175D01*
X117455171Y-92724649D01*
X117448905Y-92739572D01*
X117436036Y-92737516D01*
X117407933Y-92726357D01*
X117381721Y-92707927D01*
X117369771Y-92673098D01*
X117373336Y-92648151D01*
X117395235Y-92597547D01*
X117430644Y-92550128D01*
X117472052Y-92517334D01*
X117489400Y-92509752D01*
X117555089Y-92497076D01*
X117624829Y-92502097D01*
G37*
X119372698Y-92800714D02*
X119371537Y-92857313D01*
X119363345Y-92934462D01*
X119345519Y-92992276D01*
X119315975Y-93036422D01*
X119272625Y-93072568D01*
X119231332Y-93093463D01*
X119161987Y-93105090D01*
X119092736Y-93092377D01*
X119030145Y-93056945D01*
X118980779Y-93000418D01*
X118974818Y-92989995D01*
X118966945Y-92971733D01*
X118961106Y-92948429D01*
X118956999Y-92916085D01*
X118954325Y-92870704D01*
X118952781Y-92808287D01*
X118952734Y-92802748D01*
X119053429Y-92802748D01*
X119053772Y-92855577D01*
X119055942Y-92903362D01*
X119061307Y-92934209D01*
X119071217Y-92954935D01*
X119087021Y-92972356D01*
X119090724Y-92975705D01*
X119138299Y-93000419D01*
X119188635Y-92997890D01*
X119235517Y-92968288D01*
X119249477Y-92952953D01*
X119261160Y-92932622D01*
X119267686Y-92904514D01*
X119270524Y-92861550D01*
X119271143Y-92796647D01*
X119270837Y-92747122D01*
X119268722Y-92698782D01*
X119263390Y-92667587D01*
X119253460Y-92646647D01*
X119237550Y-92629073D01*
X119228204Y-92621159D01*
X119179776Y-92599843D01*
X119129040Y-92603198D01*
X119084987Y-92631107D01*
X119075504Y-92642173D01*
X119063939Y-92663009D01*
X119057252Y-92692106D01*
X119054173Y-92736381D01*
X119053429Y-92802748D01*
X118952734Y-92802748D01*
X118952067Y-92724837D01*
X118951883Y-92616358D01*
X118951829Y-92279601D01*
X118999000Y-92299362D01*
X119011472Y-92304770D01*
X119031324Y-92316985D01*
X119042687Y-92335482D01*
X119048933Y-92367829D01*
X119053429Y-92421593D01*
X119057535Y-92469866D01*
X119062963Y-92501557D01*
X119070739Y-92513383D01*
X119082457Y-92510212D01*
X119112318Y-92499067D01*
X119165684Y-92496304D01*
X119223093Y-92506625D01*
X119272625Y-92528861D01*
X119299876Y-92549443D01*
X119334865Y-92589600D01*
X119357274Y-92641086D01*
X119369190Y-92709568D01*
X119372542Y-92796647D01*
X119372698Y-92800714D01*
G36*
X119372698Y-92800714D02*
G01*
X119371537Y-92857313D01*
X119363345Y-92934462D01*
X119345519Y-92992276D01*
X119315975Y-93036422D01*
X119272625Y-93072568D01*
X119231332Y-93093463D01*
X119161987Y-93105090D01*
X119092736Y-93092377D01*
X119030145Y-93056945D01*
X118980779Y-93000418D01*
X118974818Y-92989995D01*
X118966945Y-92971733D01*
X118961106Y-92948429D01*
X118956999Y-92916085D01*
X118954325Y-92870704D01*
X118952781Y-92808287D01*
X118952734Y-92802748D01*
X119053429Y-92802748D01*
X119053772Y-92855577D01*
X119055942Y-92903362D01*
X119061307Y-92934209D01*
X119071217Y-92954935D01*
X119087021Y-92972356D01*
X119090724Y-92975705D01*
X119138299Y-93000419D01*
X119188635Y-92997890D01*
X119235517Y-92968288D01*
X119249477Y-92952953D01*
X119261160Y-92932622D01*
X119267686Y-92904514D01*
X119270524Y-92861550D01*
X119271143Y-92796647D01*
X119270837Y-92747122D01*
X119268722Y-92698782D01*
X119263390Y-92667587D01*
X119253460Y-92646647D01*
X119237550Y-92629073D01*
X119228204Y-92621159D01*
X119179776Y-92599843D01*
X119129040Y-92603198D01*
X119084987Y-92631107D01*
X119075504Y-92642173D01*
X119063939Y-92663009D01*
X119057252Y-92692106D01*
X119054173Y-92736381D01*
X119053429Y-92802748D01*
X118952734Y-92802748D01*
X118952067Y-92724837D01*
X118951883Y-92616358D01*
X118951829Y-92279601D01*
X118999000Y-92299362D01*
X119011472Y-92304770D01*
X119031324Y-92316985D01*
X119042687Y-92335482D01*
X119048933Y-92367829D01*
X119053429Y-92421593D01*
X119057535Y-92469866D01*
X119062963Y-92501557D01*
X119070739Y-92513383D01*
X119082457Y-92510212D01*
X119112318Y-92499067D01*
X119165684Y-92496304D01*
X119223093Y-92506625D01*
X119272625Y-92528861D01*
X119299876Y-92549443D01*
X119334865Y-92589600D01*
X119357274Y-92641086D01*
X119369190Y-92709568D01*
X119372542Y-92796647D01*
X119372698Y-92800714D01*
G37*
X120820543Y-92300444D02*
X120867714Y-92320342D01*
X120867714Y-92717509D01*
X120867519Y-92820498D01*
X120866998Y-92913141D01*
X120866199Y-92991700D01*
X120865172Y-93052439D01*
X120863963Y-93091623D01*
X120862623Y-93105514D01*
X120862099Y-93105468D01*
X120844287Y-93100420D01*
X120811823Y-93089580D01*
X120766114Y-93073646D01*
X120766114Y-92869173D01*
X120765824Y-92788832D01*
X120764474Y-92730562D01*
X120761369Y-92690909D01*
X120755812Y-92664618D01*
X120747107Y-92646436D01*
X120734556Y-92631107D01*
X120725999Y-92622955D01*
X120679728Y-92600375D01*
X120628728Y-92602375D01*
X120581993Y-92629073D01*
X120575189Y-92635698D01*
X120564293Y-92649456D01*
X120556836Y-92667642D01*
X120552169Y-92695177D01*
X120549642Y-92736981D01*
X120548602Y-92797973D01*
X120548400Y-92883073D01*
X120548303Y-92926234D01*
X120547674Y-92997224D01*
X120546556Y-93054076D01*
X120545063Y-93091828D01*
X120543309Y-93105514D01*
X120542785Y-93105468D01*
X120524973Y-93100420D01*
X120492509Y-93089580D01*
X120446800Y-93073646D01*
X120446823Y-92868237D01*
X120446857Y-92849951D01*
X120448778Y-92754626D01*
X120454678Y-92682543D01*
X120466001Y-92628813D01*
X120484187Y-92588549D01*
X120510679Y-92556861D01*
X120546918Y-92528861D01*
X120582263Y-92511333D01*
X120638773Y-92497785D01*
X120694356Y-92497015D01*
X120737086Y-92510195D01*
X120740298Y-92512015D01*
X120750205Y-92511820D01*
X120756975Y-92496572D01*
X120761861Y-92461613D01*
X120766114Y-92402289D01*
X120773371Y-92280547D01*
X120820543Y-92300444D01*
G36*
X120820543Y-92300444D02*
G01*
X120867714Y-92320342D01*
X120867714Y-92717509D01*
X120867519Y-92820498D01*
X120866998Y-92913141D01*
X120866199Y-92991700D01*
X120865172Y-93052439D01*
X120863963Y-93091623D01*
X120862623Y-93105514D01*
X120862099Y-93105468D01*
X120844287Y-93100420D01*
X120811823Y-93089580D01*
X120766114Y-93073646D01*
X120766114Y-92869173D01*
X120765824Y-92788832D01*
X120764474Y-92730562D01*
X120761369Y-92690909D01*
X120755812Y-92664618D01*
X120747107Y-92646436D01*
X120734556Y-92631107D01*
X120725999Y-92622955D01*
X120679728Y-92600375D01*
X120628728Y-92602375D01*
X120581993Y-92629073D01*
X120575189Y-92635698D01*
X120564293Y-92649456D01*
X120556836Y-92667642D01*
X120552169Y-92695177D01*
X120549642Y-92736981D01*
X120548602Y-92797973D01*
X120548400Y-92883073D01*
X120548303Y-92926234D01*
X120547674Y-92997224D01*
X120546556Y-93054076D01*
X120545063Y-93091828D01*
X120543309Y-93105514D01*
X120542785Y-93105468D01*
X120524973Y-93100420D01*
X120492509Y-93089580D01*
X120446800Y-93073646D01*
X120446823Y-92868237D01*
X120446857Y-92849951D01*
X120448778Y-92754626D01*
X120454678Y-92682543D01*
X120466001Y-92628813D01*
X120484187Y-92588549D01*
X120510679Y-92556861D01*
X120546918Y-92528861D01*
X120582263Y-92511333D01*
X120638773Y-92497785D01*
X120694356Y-92497015D01*
X120737086Y-92510195D01*
X120740298Y-92512015D01*
X120750205Y-92511820D01*
X120756975Y-92496572D01*
X120761861Y-92461613D01*
X120766114Y-92402289D01*
X120773371Y-92280547D01*
X120820543Y-92300444D01*
G37*
X120231483Y-92511569D02*
X120281376Y-92540661D01*
X120303325Y-92563327D01*
X120345504Y-92631082D01*
X120359714Y-92704950D01*
X120359714Y-92755770D01*
X120312999Y-92736128D01*
X120280692Y-92716308D01*
X120255231Y-92675160D01*
X120252616Y-92666675D01*
X120224478Y-92623451D01*
X120182067Y-92600103D01*
X120133370Y-92599100D01*
X120086373Y-92622914D01*
X120079357Y-92629056D01*
X120055893Y-92655745D01*
X120052019Y-92679014D01*
X120069768Y-92701862D01*
X120111179Y-92727287D01*
X120178286Y-92758288D01*
X120182824Y-92760252D01*
X120257322Y-92794990D01*
X120308203Y-92825763D01*
X120339525Y-92856488D01*
X120355343Y-92891082D01*
X120359714Y-92933462D01*
X120353986Y-92980446D01*
X120325062Y-93040585D01*
X120274178Y-93083788D01*
X120237374Y-93096759D01*
X120185434Y-93103856D01*
X120134999Y-93102340D01*
X120098983Y-93091632D01*
X120095158Y-93088966D01*
X120084998Y-93070337D01*
X120092048Y-93037505D01*
X120104297Y-93011735D01*
X120123939Y-93001006D01*
X120161191Y-93001539D01*
X120212908Y-92998462D01*
X120246701Y-92977212D01*
X120258114Y-92937877D01*
X120258104Y-92936747D01*
X120251187Y-92913913D01*
X120227659Y-92892963D01*
X120181914Y-92868815D01*
X120119704Y-92839741D01*
X120078499Y-92823925D01*
X120054712Y-92824944D01*
X120043597Y-92845837D01*
X120040408Y-92889641D01*
X120040400Y-92959393D01*
X120040044Y-93002452D01*
X120038413Y-93055626D01*
X120035761Y-93092022D01*
X120032422Y-93105514D01*
X120031530Y-93105423D01*
X120012237Y-93098110D01*
X119980284Y-93082678D01*
X119936124Y-93059842D01*
X119941371Y-92854078D01*
X119941736Y-92840432D01*
X119945904Y-92744651D01*
X119953268Y-92672462D01*
X119965330Y-92619058D01*
X119983593Y-92579633D01*
X120009560Y-92549380D01*
X120044733Y-92523493D01*
X120045384Y-92523087D01*
X120102256Y-92501968D01*
X120168033Y-92498400D01*
X120231483Y-92511569D01*
G36*
X120231483Y-92511569D02*
G01*
X120281376Y-92540661D01*
X120303325Y-92563327D01*
X120345504Y-92631082D01*
X120359714Y-92704950D01*
X120359714Y-92755770D01*
X120312999Y-92736128D01*
X120280692Y-92716308D01*
X120255231Y-92675160D01*
X120252616Y-92666675D01*
X120224478Y-92623451D01*
X120182067Y-92600103D01*
X120133370Y-92599100D01*
X120086373Y-92622914D01*
X120079357Y-92629056D01*
X120055893Y-92655745D01*
X120052019Y-92679014D01*
X120069768Y-92701862D01*
X120111179Y-92727287D01*
X120178286Y-92758288D01*
X120182824Y-92760252D01*
X120257322Y-92794990D01*
X120308203Y-92825763D01*
X120339525Y-92856488D01*
X120355343Y-92891082D01*
X120359714Y-92933462D01*
X120353986Y-92980446D01*
X120325062Y-93040585D01*
X120274178Y-93083788D01*
X120237374Y-93096759D01*
X120185434Y-93103856D01*
X120134999Y-93102340D01*
X120098983Y-93091632D01*
X120095158Y-93088966D01*
X120084998Y-93070337D01*
X120092048Y-93037505D01*
X120104297Y-93011735D01*
X120123939Y-93001006D01*
X120161191Y-93001539D01*
X120212908Y-92998462D01*
X120246701Y-92977212D01*
X120258114Y-92937877D01*
X120258104Y-92936747D01*
X120251187Y-92913913D01*
X120227659Y-92892963D01*
X120181914Y-92868815D01*
X120119704Y-92839741D01*
X120078499Y-92823925D01*
X120054712Y-92824944D01*
X120043597Y-92845837D01*
X120040408Y-92889641D01*
X120040400Y-92959393D01*
X120040044Y-93002452D01*
X120038413Y-93055626D01*
X120035761Y-93092022D01*
X120032422Y-93105514D01*
X120031530Y-93105423D01*
X120012237Y-93098110D01*
X119980284Y-93082678D01*
X119936124Y-93059842D01*
X119941371Y-92854078D01*
X119941736Y-92840432D01*
X119945904Y-92744651D01*
X119953268Y-92672462D01*
X119965330Y-92619058D01*
X119983593Y-92579633D01*
X120009560Y-92549380D01*
X120044733Y-92523493D01*
X120045384Y-92523087D01*
X120102256Y-92501968D01*
X120168033Y-92498400D01*
X120231483Y-92511569D01*
G37*
X120255933Y-87793371D02*
X120331856Y-87793865D01*
X120386491Y-87795135D01*
X120423500Y-87797547D01*
X120446547Y-87801467D01*
X120459296Y-87807262D01*
X120465411Y-87815299D01*
X120468556Y-87825943D01*
X120468646Y-87826325D01*
X120473814Y-87851347D01*
X120483209Y-87899681D01*
X120495867Y-87966260D01*
X120510825Y-88046014D01*
X120527119Y-88133875D01*
X120528448Y-88141064D01*
X120544691Y-88226340D01*
X120559805Y-88301242D01*
X120572808Y-88361219D01*
X120582715Y-88401717D01*
X120588544Y-88418184D01*
X120588575Y-88418210D01*
X120606943Y-88427320D01*
X120644640Y-88442457D01*
X120693543Y-88460358D01*
X120696297Y-88461330D01*
X120758817Y-88484959D01*
X120831543Y-88514595D01*
X120899294Y-88544062D01*
X121010703Y-88594626D01*
X121257399Y-88426160D01*
X121274775Y-88414311D01*
X121349202Y-88363947D01*
X121415614Y-88319612D01*
X121470039Y-88283916D01*
X121508506Y-88259471D01*
X121527042Y-88248889D01*
X121539743Y-88251315D01*
X121568579Y-88270110D01*
X121613143Y-88307330D01*
X121674670Y-88364020D01*
X121754398Y-88441227D01*
X121761532Y-88448255D01*
X121824796Y-88511222D01*
X121880990Y-88568268D01*
X121926677Y-88615817D01*
X121958414Y-88650297D01*
X121972764Y-88668131D01*
X121972810Y-88668217D01*
X121974633Y-88681795D01*
X121967910Y-88703820D01*
X121950946Y-88737304D01*
X121922044Y-88785261D01*
X121879508Y-88850704D01*
X121821644Y-88936645D01*
X121811783Y-88951151D01*
X121761913Y-89024635D01*
X121717905Y-89089687D01*
X121682380Y-89142417D01*
X121657959Y-89178936D01*
X121647264Y-89195356D01*
X121646458Y-89198834D01*
X121651518Y-89224785D01*
X121666677Y-89267159D01*
X121689463Y-89318728D01*
X121720429Y-89386170D01*
X121755004Y-89466195D01*
X121784366Y-89538629D01*
X121791645Y-89557377D01*
X121810710Y-89605246D01*
X121824715Y-89638596D01*
X121831041Y-89651114D01*
X121838025Y-89652050D01*
X121869413Y-89657461D01*
X121920787Y-89666806D01*
X121986802Y-89679069D01*
X122062113Y-89693232D01*
X122141375Y-89708280D01*
X122219243Y-89723195D01*
X122290370Y-89736961D01*
X122349412Y-89748562D01*
X122391022Y-89756980D01*
X122409857Y-89761199D01*
X122412980Y-89762389D01*
X122420591Y-89768805D01*
X122426254Y-89782465D01*
X122430251Y-89806999D01*
X122432866Y-89846038D01*
X122434384Y-89903213D01*
X122435086Y-89982154D01*
X122435257Y-90086492D01*
X122435257Y-90403799D01*
X122359057Y-90418839D01*
X122349840Y-90420642D01*
X122300891Y-90429980D01*
X122233205Y-90442669D01*
X122154478Y-90457273D01*
X122072400Y-90472355D01*
X122040078Y-90478422D01*
X121967855Y-90493181D01*
X121907666Y-90507137D01*
X121865040Y-90518952D01*
X121845510Y-90527287D01*
X121836660Y-90540905D01*
X121820548Y-90576938D01*
X121804065Y-90623572D01*
X121798263Y-90641034D01*
X121776906Y-90698358D01*
X121749359Y-90766201D01*
X121720107Y-90833355D01*
X121704463Y-90868430D01*
X121682174Y-90920822D01*
X121666857Y-90960058D01*
X121661162Y-90979563D01*
X121661478Y-90981036D01*
X121672281Y-91001729D01*
X121696638Y-91041665D01*
X121732081Y-91096972D01*
X121776136Y-91163781D01*
X121826332Y-91238220D01*
X121991501Y-91480623D01*
X121774503Y-91697983D01*
X121753516Y-91718899D01*
X121689342Y-91781505D01*
X121631990Y-91835495D01*
X121584820Y-91877826D01*
X121551192Y-91905457D01*
X121534467Y-91915343D01*
X121516303Y-91907821D01*
X121478265Y-91886227D01*
X121424726Y-91853151D01*
X121359884Y-91811191D01*
X121287940Y-91762943D01*
X121217275Y-91715291D01*
X121153526Y-91673328D01*
X121101513Y-91640165D01*
X121065279Y-91618378D01*
X121048867Y-91610543D01*
X121047905Y-91610614D01*
X121026103Y-91618338D01*
X120987440Y-91636323D01*
X120939612Y-91661013D01*
X120939110Y-91661284D01*
X120875587Y-91693099D01*
X120832060Y-91708642D01*
X120805052Y-91708685D01*
X120791090Y-91694000D01*
X120785180Y-91679544D01*
X120769229Y-91640831D01*
X120744660Y-91581316D01*
X120712779Y-91504165D01*
X120674893Y-91412541D01*
X120632310Y-91309607D01*
X120586337Y-91198526D01*
X120544667Y-91097472D01*
X120502268Y-90993780D01*
X120464756Y-90901119D01*
X120433388Y-90822642D01*
X120409425Y-90761500D01*
X120394123Y-90720843D01*
X120388743Y-90703825D01*
X120399018Y-90688219D01*
X120427563Y-90662162D01*
X120467971Y-90631887D01*
X120564979Y-90552684D01*
X120651793Y-90451475D01*
X120715322Y-90340116D01*
X120755177Y-90221893D01*
X120770965Y-90100095D01*
X120762296Y-89978010D01*
X120728778Y-89858925D01*
X120670021Y-89746129D01*
X120585632Y-89642911D01*
X120541631Y-89602713D01*
X120436211Y-89531638D01*
X120323410Y-89485301D01*
X120206525Y-89462599D01*
X120088853Y-89462428D01*
X119973690Y-89483687D01*
X119864335Y-89525270D01*
X119764083Y-89586076D01*
X119676233Y-89665001D01*
X119604080Y-89760941D01*
X119550922Y-89872795D01*
X119520057Y-89999457D01*
X119514392Y-90060507D01*
X119522185Y-90192776D01*
X119557284Y-90318266D01*
X119618649Y-90434759D01*
X119705243Y-90540039D01*
X119816029Y-90631887D01*
X119854931Y-90660930D01*
X119884104Y-90687272D01*
X119895257Y-90703800D01*
X119890810Y-90718209D01*
X119876378Y-90756815D01*
X119853173Y-90816201D01*
X119822452Y-90893215D01*
X119785474Y-90984703D01*
X119743496Y-91087516D01*
X119697778Y-91198502D01*
X119656178Y-91299072D01*
X119613222Y-91402947D01*
X119574829Y-91495819D01*
X119542305Y-91574525D01*
X119516958Y-91635899D01*
X119500095Y-91676779D01*
X119493025Y-91694000D01*
X119492943Y-91694204D01*
X119478798Y-91708745D01*
X119451659Y-91708579D01*
X119408023Y-91692927D01*
X119344388Y-91661013D01*
X119339379Y-91658326D01*
X119292125Y-91634150D01*
X119254811Y-91617037D01*
X119235133Y-91610543D01*
X119219005Y-91618218D01*
X119182959Y-91639871D01*
X119131092Y-91672928D01*
X119067445Y-91714810D01*
X118996060Y-91762943D01*
X118925724Y-91810131D01*
X118860670Y-91852267D01*
X118806820Y-91885578D01*
X118768374Y-91907469D01*
X118749534Y-91915343D01*
X118746325Y-91914343D01*
X118723954Y-91898584D01*
X118685733Y-91866033D01*
X118635021Y-91819733D01*
X118575181Y-91762726D01*
X118509571Y-91698058D01*
X118292648Y-91480772D01*
X118461601Y-91232253D01*
X118630553Y-90983733D01*
X118579183Y-90872595D01*
X118579031Y-90872266D01*
X118548183Y-90801418D01*
X118516661Y-90722523D01*
X118491266Y-90652600D01*
X118487423Y-90641322D01*
X118468047Y-90588967D01*
X118450574Y-90548283D01*
X118438388Y-90527287D01*
X118433426Y-90524322D01*
X118403634Y-90514375D01*
X118353047Y-90501505D01*
X118287194Y-90487053D01*
X118211600Y-90472355D01*
X118188957Y-90468210D01*
X118107038Y-90453116D01*
X118030600Y-90438899D01*
X117967337Y-90426995D01*
X117924943Y-90418839D01*
X117848743Y-90403799D01*
X117848743Y-90086492D01*
X117848760Y-90047476D01*
X117849082Y-89952292D01*
X117850033Y-89881255D01*
X117851896Y-89830734D01*
X117854955Y-89797098D01*
X117859494Y-89776718D01*
X117865795Y-89765962D01*
X117874143Y-89761199D01*
X117882224Y-89759270D01*
X117915172Y-89752445D01*
X117967736Y-89742022D01*
X118034569Y-89729018D01*
X118110328Y-89714449D01*
X118189665Y-89699333D01*
X118267237Y-89684685D01*
X118337698Y-89671523D01*
X118395702Y-89660863D01*
X118435904Y-89653721D01*
X118452959Y-89651114D01*
X118454112Y-89649541D01*
X118463385Y-89629119D01*
X118479432Y-89590045D01*
X118499635Y-89538629D01*
X118527672Y-89469353D01*
X118562186Y-89389290D01*
X118594538Y-89318728D01*
X118601952Y-89302889D01*
X118622755Y-89253293D01*
X118635219Y-89215038D01*
X118636863Y-89195356D01*
X118636015Y-89193962D01*
X118622548Y-89173420D01*
X118595850Y-89133516D01*
X118558539Y-89078140D01*
X118513234Y-89011177D01*
X118462552Y-88936517D01*
X118405445Y-88851692D01*
X118362607Y-88785800D01*
X118333460Y-88737478D01*
X118316317Y-88703733D01*
X118309495Y-88681572D01*
X118311306Y-88668002D01*
X118311915Y-88666984D01*
X118328297Y-88647210D01*
X118361695Y-88611175D01*
X118408671Y-88562451D01*
X118465786Y-88504612D01*
X118529603Y-88441227D01*
X118595802Y-88376905D01*
X118660648Y-88316447D01*
X118708299Y-88275655D01*
X118739990Y-88253484D01*
X118756958Y-88248889D01*
X118759175Y-88249921D01*
X118782524Y-88263837D01*
X118824912Y-88291030D01*
X118882369Y-88328889D01*
X118950923Y-88374803D01*
X119026601Y-88426160D01*
X119273298Y-88594626D01*
X119384706Y-88544062D01*
X119387943Y-88542597D01*
X119456343Y-88512965D01*
X119528907Y-88483493D01*
X119590457Y-88460358D01*
X119590729Y-88460262D01*
X119639595Y-88442367D01*
X119677212Y-88427253D01*
X119695457Y-88418184D01*
X119695752Y-88417855D01*
X119701946Y-88399282D01*
X119712139Y-88357045D01*
X119725348Y-88295696D01*
X119740590Y-88219789D01*
X119756881Y-88133875D01*
X119757449Y-88130796D01*
X119773713Y-88043128D01*
X119788608Y-87963741D01*
X119801171Y-87897701D01*
X119810438Y-87850079D01*
X119815444Y-87825943D01*
X119815764Y-87824605D01*
X119819060Y-87814273D01*
X119825738Y-87806506D01*
X119839462Y-87800940D01*
X119863895Y-87797207D01*
X119902702Y-87794942D01*
X119959546Y-87793778D01*
X120038090Y-87793348D01*
X120142000Y-87793286D01*
X120155056Y-87793286D01*
X120255933Y-87793371D01*
G36*
X120255933Y-87793371D02*
G01*
X120331856Y-87793865D01*
X120386491Y-87795135D01*
X120423500Y-87797547D01*
X120446547Y-87801467D01*
X120459296Y-87807262D01*
X120465411Y-87815299D01*
X120468556Y-87825943D01*
X120468646Y-87826325D01*
X120473814Y-87851347D01*
X120483209Y-87899681D01*
X120495867Y-87966260D01*
X120510825Y-88046014D01*
X120527119Y-88133875D01*
X120528448Y-88141064D01*
X120544691Y-88226340D01*
X120559805Y-88301242D01*
X120572808Y-88361219D01*
X120582715Y-88401717D01*
X120588544Y-88418184D01*
X120588575Y-88418210D01*
X120606943Y-88427320D01*
X120644640Y-88442457D01*
X120693543Y-88460358D01*
X120696297Y-88461330D01*
X120758817Y-88484959D01*
X120831543Y-88514595D01*
X120899294Y-88544062D01*
X121010703Y-88594626D01*
X121257399Y-88426160D01*
X121274775Y-88414311D01*
X121349202Y-88363947D01*
X121415614Y-88319612D01*
X121470039Y-88283916D01*
X121508506Y-88259471D01*
X121527042Y-88248889D01*
X121539743Y-88251315D01*
X121568579Y-88270110D01*
X121613143Y-88307330D01*
X121674670Y-88364020D01*
X121754398Y-88441227D01*
X121761532Y-88448255D01*
X121824796Y-88511222D01*
X121880990Y-88568268D01*
X121926677Y-88615817D01*
X121958414Y-88650297D01*
X121972764Y-88668131D01*
X121972810Y-88668217D01*
X121974633Y-88681795D01*
X121967910Y-88703820D01*
X121950946Y-88737304D01*
X121922044Y-88785261D01*
X121879508Y-88850704D01*
X121821644Y-88936645D01*
X121811783Y-88951151D01*
X121761913Y-89024635D01*
X121717905Y-89089687D01*
X121682380Y-89142417D01*
X121657959Y-89178936D01*
X121647264Y-89195356D01*
X121646458Y-89198834D01*
X121651518Y-89224785D01*
X121666677Y-89267159D01*
X121689463Y-89318728D01*
X121720429Y-89386170D01*
X121755004Y-89466195D01*
X121784366Y-89538629D01*
X121791645Y-89557377D01*
X121810710Y-89605246D01*
X121824715Y-89638596D01*
X121831041Y-89651114D01*
X121838025Y-89652050D01*
X121869413Y-89657461D01*
X121920787Y-89666806D01*
X121986802Y-89679069D01*
X122062113Y-89693232D01*
X122141375Y-89708280D01*
X122219243Y-89723195D01*
X122290370Y-89736961D01*
X122349412Y-89748562D01*
X122391022Y-89756980D01*
X122409857Y-89761199D01*
X122412980Y-89762389D01*
X122420591Y-89768805D01*
X122426254Y-89782465D01*
X122430251Y-89806999D01*
X122432866Y-89846038D01*
X122434384Y-89903213D01*
X122435086Y-89982154D01*
X122435257Y-90086492D01*
X122435257Y-90403799D01*
X122359057Y-90418839D01*
X122349840Y-90420642D01*
X122300891Y-90429980D01*
X122233205Y-90442669D01*
X122154478Y-90457273D01*
X122072400Y-90472355D01*
X122040078Y-90478422D01*
X121967855Y-90493181D01*
X121907666Y-90507137D01*
X121865040Y-90518952D01*
X121845510Y-90527287D01*
X121836660Y-90540905D01*
X121820548Y-90576938D01*
X121804065Y-90623572D01*
X121798263Y-90641034D01*
X121776906Y-90698358D01*
X121749359Y-90766201D01*
X121720107Y-90833355D01*
X121704463Y-90868430D01*
X121682174Y-90920822D01*
X121666857Y-90960058D01*
X121661162Y-90979563D01*
X121661478Y-90981036D01*
X121672281Y-91001729D01*
X121696638Y-91041665D01*
X121732081Y-91096972D01*
X121776136Y-91163781D01*
X121826332Y-91238220D01*
X121991501Y-91480623D01*
X121774503Y-91697983D01*
X121753516Y-91718899D01*
X121689342Y-91781505D01*
X121631990Y-91835495D01*
X121584820Y-91877826D01*
X121551192Y-91905457D01*
X121534467Y-91915343D01*
X121516303Y-91907821D01*
X121478265Y-91886227D01*
X121424726Y-91853151D01*
X121359884Y-91811191D01*
X121287940Y-91762943D01*
X121217275Y-91715291D01*
X121153526Y-91673328D01*
X121101513Y-91640165D01*
X121065279Y-91618378D01*
X121048867Y-91610543D01*
X121047905Y-91610614D01*
X121026103Y-91618338D01*
X120987440Y-91636323D01*
X120939612Y-91661013D01*
X120939110Y-91661284D01*
X120875587Y-91693099D01*
X120832060Y-91708642D01*
X120805052Y-91708685D01*
X120791090Y-91694000D01*
X120785180Y-91679544D01*
X120769229Y-91640831D01*
X120744660Y-91581316D01*
X120712779Y-91504165D01*
X120674893Y-91412541D01*
X120632310Y-91309607D01*
X120586337Y-91198526D01*
X120544667Y-91097472D01*
X120502268Y-90993780D01*
X120464756Y-90901119D01*
X120433388Y-90822642D01*
X120409425Y-90761500D01*
X120394123Y-90720843D01*
X120388743Y-90703825D01*
X120399018Y-90688219D01*
X120427563Y-90662162D01*
X120467971Y-90631887D01*
X120564979Y-90552684D01*
X120651793Y-90451475D01*
X120715322Y-90340116D01*
X120755177Y-90221893D01*
X120770965Y-90100095D01*
X120762296Y-89978010D01*
X120728778Y-89858925D01*
X120670021Y-89746129D01*
X120585632Y-89642911D01*
X120541631Y-89602713D01*
X120436211Y-89531638D01*
X120323410Y-89485301D01*
X120206525Y-89462599D01*
X120088853Y-89462428D01*
X119973690Y-89483687D01*
X119864335Y-89525270D01*
X119764083Y-89586076D01*
X119676233Y-89665001D01*
X119604080Y-89760941D01*
X119550922Y-89872795D01*
X119520057Y-89999457D01*
X119514392Y-90060507D01*
X119522185Y-90192776D01*
X119557284Y-90318266D01*
X119618649Y-90434759D01*
X119705243Y-90540039D01*
X119816029Y-90631887D01*
X119854931Y-90660930D01*
X119884104Y-90687272D01*
X119895257Y-90703800D01*
X119890810Y-90718209D01*
X119876378Y-90756815D01*
X119853173Y-90816201D01*
X119822452Y-90893215D01*
X119785474Y-90984703D01*
X119743496Y-91087516D01*
X119697778Y-91198502D01*
X119656178Y-91299072D01*
X119613222Y-91402947D01*
X119574829Y-91495819D01*
X119542305Y-91574525D01*
X119516958Y-91635899D01*
X119500095Y-91676779D01*
X119493025Y-91694000D01*
X119492943Y-91694204D01*
X119478798Y-91708745D01*
X119451659Y-91708579D01*
X119408023Y-91692927D01*
X119344388Y-91661013D01*
X119339379Y-91658326D01*
X119292125Y-91634150D01*
X119254811Y-91617037D01*
X119235133Y-91610543D01*
X119219005Y-91618218D01*
X119182959Y-91639871D01*
X119131092Y-91672928D01*
X119067445Y-91714810D01*
X118996060Y-91762943D01*
X118925724Y-91810131D01*
X118860670Y-91852267D01*
X118806820Y-91885578D01*
X118768374Y-91907469D01*
X118749534Y-91915343D01*
X118746325Y-91914343D01*
X118723954Y-91898584D01*
X118685733Y-91866033D01*
X118635021Y-91819733D01*
X118575181Y-91762726D01*
X118509571Y-91698058D01*
X118292648Y-91480772D01*
X118461601Y-91232253D01*
X118630553Y-90983733D01*
X118579183Y-90872595D01*
X118579031Y-90872266D01*
X118548183Y-90801418D01*
X118516661Y-90722523D01*
X118491266Y-90652600D01*
X118487423Y-90641322D01*
X118468047Y-90588967D01*
X118450574Y-90548283D01*
X118438388Y-90527287D01*
X118433426Y-90524322D01*
X118403634Y-90514375D01*
X118353047Y-90501505D01*
X118287194Y-90487053D01*
X118211600Y-90472355D01*
X118188957Y-90468210D01*
X118107038Y-90453116D01*
X118030600Y-90438899D01*
X117967337Y-90426995D01*
X117924943Y-90418839D01*
X117848743Y-90403799D01*
X117848743Y-90086492D01*
X117848760Y-90047476D01*
X117849082Y-89952292D01*
X117850033Y-89881255D01*
X117851896Y-89830734D01*
X117854955Y-89797098D01*
X117859494Y-89776718D01*
X117865795Y-89765962D01*
X117874143Y-89761199D01*
X117882224Y-89759270D01*
X117915172Y-89752445D01*
X117967736Y-89742022D01*
X118034569Y-89729018D01*
X118110328Y-89714449D01*
X118189665Y-89699333D01*
X118267237Y-89684685D01*
X118337698Y-89671523D01*
X118395702Y-89660863D01*
X118435904Y-89653721D01*
X118452959Y-89651114D01*
X118454112Y-89649541D01*
X118463385Y-89629119D01*
X118479432Y-89590045D01*
X118499635Y-89538629D01*
X118527672Y-89469353D01*
X118562186Y-89389290D01*
X118594538Y-89318728D01*
X118601952Y-89302889D01*
X118622755Y-89253293D01*
X118635219Y-89215038D01*
X118636863Y-89195356D01*
X118636015Y-89193962D01*
X118622548Y-89173420D01*
X118595850Y-89133516D01*
X118558539Y-89078140D01*
X118513234Y-89011177D01*
X118462552Y-88936517D01*
X118405445Y-88851692D01*
X118362607Y-88785800D01*
X118333460Y-88737478D01*
X118316317Y-88703733D01*
X118309495Y-88681572D01*
X118311306Y-88668002D01*
X118311915Y-88666984D01*
X118328297Y-88647210D01*
X118361695Y-88611175D01*
X118408671Y-88562451D01*
X118465786Y-88504612D01*
X118529603Y-88441227D01*
X118595802Y-88376905D01*
X118660648Y-88316447D01*
X118708299Y-88275655D01*
X118739990Y-88253484D01*
X118756958Y-88248889D01*
X118759175Y-88249921D01*
X118782524Y-88263837D01*
X118824912Y-88291030D01*
X118882369Y-88328889D01*
X118950923Y-88374803D01*
X119026601Y-88426160D01*
X119273298Y-88594626D01*
X119384706Y-88544062D01*
X119387943Y-88542597D01*
X119456343Y-88512965D01*
X119528907Y-88483493D01*
X119590457Y-88460358D01*
X119590729Y-88460262D01*
X119639595Y-88442367D01*
X119677212Y-88427253D01*
X119695457Y-88418184D01*
X119695752Y-88417855D01*
X119701946Y-88399282D01*
X119712139Y-88357045D01*
X119725348Y-88295696D01*
X119740590Y-88219789D01*
X119756881Y-88133875D01*
X119757449Y-88130796D01*
X119773713Y-88043128D01*
X119788608Y-87963741D01*
X119801171Y-87897701D01*
X119810438Y-87850079D01*
X119815444Y-87825943D01*
X119815764Y-87824605D01*
X119819060Y-87814273D01*
X119825738Y-87806506D01*
X119839462Y-87800940D01*
X119863895Y-87797207D01*
X119902702Y-87794942D01*
X119959546Y-87793778D01*
X120038090Y-87793348D01*
X120142000Y-87793286D01*
X120155056Y-87793286D01*
X120255933Y-87793371D01*
G37*
X118109495Y-92497220D02*
X118140599Y-92505121D01*
X118169559Y-92524817D01*
X118206831Y-92561484D01*
X118230801Y-92587378D01*
X118255770Y-92620997D01*
X118267031Y-92652506D01*
X118269657Y-92692485D01*
X118269657Y-92757917D01*
X118225035Y-92734842D01*
X118189673Y-92706724D01*
X118165451Y-92668848D01*
X118161291Y-92658551D01*
X118129594Y-92618637D01*
X118085554Y-92598624D01*
X118037531Y-92600572D01*
X117993886Y-92626543D01*
X117975420Y-92647635D01*
X117964663Y-92674619D01*
X117976178Y-92698634D01*
X118011981Y-92722791D01*
X118074090Y-92750199D01*
X118083515Y-92753985D01*
X118140058Y-92778759D01*
X118188580Y-92803189D01*
X118219451Y-92822486D01*
X118250371Y-92856953D01*
X118270927Y-92911957D01*
X118268744Y-92970983D01*
X118244424Y-93026845D01*
X118198568Y-93072355D01*
X118161438Y-93091727D01*
X118089711Y-93105292D01*
X118049852Y-93103462D01*
X118012953Y-93093568D01*
X117998797Y-93072806D01*
X118004091Y-93038613D01*
X118005631Y-93034092D01*
X118017842Y-93010116D01*
X118038174Y-93001042D01*
X118076908Y-93001649D01*
X118104257Y-93002474D01*
X118136257Y-92995392D01*
X118158182Y-92974219D01*
X118170670Y-92948152D01*
X118172062Y-92920845D01*
X118171998Y-92920685D01*
X118155807Y-92905930D01*
X118121155Y-92884457D01*
X118076321Y-92860458D01*
X118029582Y-92838125D01*
X117989217Y-92821652D01*
X117963504Y-92815229D01*
X117959679Y-92821518D01*
X117954864Y-92851115D01*
X117951566Y-92899447D01*
X117950343Y-92960372D01*
X117950058Y-93002542D01*
X117948718Y-93055653D01*
X117946528Y-93092025D01*
X117943769Y-93105514D01*
X117929344Y-93100981D01*
X117900226Y-93088670D01*
X117863257Y-93071826D01*
X117863257Y-92855721D01*
X117863493Y-92800327D01*
X117865729Y-92716207D01*
X117871423Y-92653800D01*
X117881903Y-92608358D01*
X117898497Y-92575133D01*
X117922531Y-92549378D01*
X117955333Y-92526344D01*
X117997124Y-92507335D01*
X118074287Y-92495914D01*
X118109495Y-92497220D01*
G36*
X118109495Y-92497220D02*
G01*
X118140599Y-92505121D01*
X118169559Y-92524817D01*
X118206831Y-92561484D01*
X118230801Y-92587378D01*
X118255770Y-92620997D01*
X118267031Y-92652506D01*
X118269657Y-92692485D01*
X118269657Y-92757917D01*
X118225035Y-92734842D01*
X118189673Y-92706724D01*
X118165451Y-92668848D01*
X118161291Y-92658551D01*
X118129594Y-92618637D01*
X118085554Y-92598624D01*
X118037531Y-92600572D01*
X117993886Y-92626543D01*
X117975420Y-92647635D01*
X117964663Y-92674619D01*
X117976178Y-92698634D01*
X118011981Y-92722791D01*
X118074090Y-92750199D01*
X118083515Y-92753985D01*
X118140058Y-92778759D01*
X118188580Y-92803189D01*
X118219451Y-92822486D01*
X118250371Y-92856953D01*
X118270927Y-92911957D01*
X118268744Y-92970983D01*
X118244424Y-93026845D01*
X118198568Y-93072355D01*
X118161438Y-93091727D01*
X118089711Y-93105292D01*
X118049852Y-93103462D01*
X118012953Y-93093568D01*
X117998797Y-93072806D01*
X118004091Y-93038613D01*
X118005631Y-93034092D01*
X118017842Y-93010116D01*
X118038174Y-93001042D01*
X118076908Y-93001649D01*
X118104257Y-93002474D01*
X118136257Y-92995392D01*
X118158182Y-92974219D01*
X118170670Y-92948152D01*
X118172062Y-92920845D01*
X118171998Y-92920685D01*
X118155807Y-92905930D01*
X118121155Y-92884457D01*
X118076321Y-92860458D01*
X118029582Y-92838125D01*
X117989217Y-92821652D01*
X117963504Y-92815229D01*
X117959679Y-92821518D01*
X117954864Y-92851115D01*
X117951566Y-92899447D01*
X117950343Y-92960372D01*
X117950058Y-93002542D01*
X117948718Y-93055653D01*
X117946528Y-93092025D01*
X117943769Y-93105514D01*
X117929344Y-93100981D01*
X117900226Y-93088670D01*
X117863257Y-93071826D01*
X117863257Y-92855721D01*
X117863493Y-92800327D01*
X117865729Y-92716207D01*
X117871423Y-92653800D01*
X117881903Y-92608358D01*
X117898497Y-92575133D01*
X117922531Y-92549378D01*
X117955333Y-92526344D01*
X117997124Y-92507335D01*
X118074287Y-92495914D01*
X118109495Y-92497220D01*
G37*
X122304299Y-92745055D02*
X122299684Y-92855078D01*
X122297078Y-92878387D01*
X122277660Y-92961352D01*
X122242573Y-93024448D01*
X122189212Y-93072808D01*
X122186196Y-93074804D01*
X122118362Y-93103185D01*
X122047535Y-93105711D01*
X121979289Y-93084097D01*
X121919196Y-93040062D01*
X121872829Y-92975322D01*
X121872050Y-92973761D01*
X121856643Y-92933558D01*
X121845357Y-92887866D01*
X121839370Y-92844972D01*
X121839861Y-92813160D01*
X121848007Y-92800714D01*
X121855244Y-92801471D01*
X121889851Y-92815235D01*
X121929078Y-92840546D01*
X121962448Y-92869845D01*
X121979483Y-92895572D01*
X121997192Y-92930471D01*
X122033485Y-92962212D01*
X122075630Y-92974886D01*
X122091077Y-92971221D01*
X122121569Y-92952774D01*
X122148128Y-92927166D01*
X122159486Y-92903934D01*
X122159482Y-92903848D01*
X122146596Y-92893179D01*
X122112241Y-92873933D01*
X122061593Y-92848813D01*
X121999829Y-92820524D01*
X121999489Y-92820374D01*
X121932388Y-92790498D01*
X121887411Y-92768973D01*
X121860145Y-92752437D01*
X121846178Y-92737531D01*
X121841097Y-92720893D01*
X121840490Y-92699162D01*
X121844712Y-92658013D01*
X121988000Y-92658013D01*
X122002791Y-92670949D01*
X122039644Y-92690333D01*
X122040725Y-92690881D01*
X122084205Y-92711587D01*
X122123102Y-92728105D01*
X122147778Y-92735093D01*
X122157676Y-92725753D01*
X122159486Y-92693748D01*
X122151966Y-92653915D01*
X122125897Y-92617717D01*
X122088154Y-92598950D01*
X122046077Y-92600845D01*
X122007005Y-92626632D01*
X121991647Y-92644451D01*
X121988000Y-92658013D01*
X121844712Y-92658013D01*
X121845833Y-92647086D01*
X121872251Y-92576335D01*
X121916473Y-92520735D01*
X121973697Y-92482239D01*
X122039120Y-92462797D01*
X122107937Y-92464359D01*
X122175347Y-92488878D01*
X122236544Y-92538302D01*
X122270450Y-92587212D01*
X122294806Y-92657027D01*
X122298767Y-92693748D01*
X122304299Y-92745055D01*
G36*
X122304299Y-92745055D02*
G01*
X122299684Y-92855078D01*
X122297078Y-92878387D01*
X122277660Y-92961352D01*
X122242573Y-93024448D01*
X122189212Y-93072808D01*
X122186196Y-93074804D01*
X122118362Y-93103185D01*
X122047535Y-93105711D01*
X121979289Y-93084097D01*
X121919196Y-93040062D01*
X121872829Y-92975322D01*
X121872050Y-92973761D01*
X121856643Y-92933558D01*
X121845357Y-92887866D01*
X121839370Y-92844972D01*
X121839861Y-92813160D01*
X121848007Y-92800714D01*
X121855244Y-92801471D01*
X121889851Y-92815235D01*
X121929078Y-92840546D01*
X121962448Y-92869845D01*
X121979483Y-92895572D01*
X121997192Y-92930471D01*
X122033485Y-92962212D01*
X122075630Y-92974886D01*
X122091077Y-92971221D01*
X122121569Y-92952774D01*
X122148128Y-92927166D01*
X122159486Y-92903934D01*
X122159482Y-92903848D01*
X122146596Y-92893179D01*
X122112241Y-92873933D01*
X122061593Y-92848813D01*
X121999829Y-92820524D01*
X121999489Y-92820374D01*
X121932388Y-92790498D01*
X121887411Y-92768973D01*
X121860145Y-92752437D01*
X121846178Y-92737531D01*
X121841097Y-92720893D01*
X121840490Y-92699162D01*
X121844712Y-92658013D01*
X121988000Y-92658013D01*
X122002791Y-92670949D01*
X122039644Y-92690333D01*
X122040725Y-92690881D01*
X122084205Y-92711587D01*
X122123102Y-92728105D01*
X122147778Y-92735093D01*
X122157676Y-92725753D01*
X122159486Y-92693748D01*
X122151966Y-92653915D01*
X122125897Y-92617717D01*
X122088154Y-92598950D01*
X122046077Y-92600845D01*
X122007005Y-92626632D01*
X121991647Y-92644451D01*
X121988000Y-92658013D01*
X121844712Y-92658013D01*
X121845833Y-92647086D01*
X121872251Y-92576335D01*
X121916473Y-92520735D01*
X121973697Y-92482239D01*
X122039120Y-92462797D01*
X122107937Y-92464359D01*
X122175347Y-92488878D01*
X122236544Y-92538302D01*
X122270450Y-92587212D01*
X122294806Y-92657027D01*
X122298767Y-92693748D01*
X122304299Y-92745055D01*
G37*
X119749691Y-92517467D02*
X119754273Y-92520003D01*
X119791704Y-92549057D01*
X119825170Y-92586410D01*
X119831007Y-92594852D01*
X119842165Y-92614553D01*
X119850136Y-92637935D01*
X119855618Y-92670067D01*
X119859307Y-92716019D01*
X119861899Y-92780859D01*
X119864092Y-92869657D01*
X119864402Y-92884669D01*
X119865400Y-92981999D01*
X119863994Y-93050934D01*
X119860164Y-93091948D01*
X119853889Y-93105514D01*
X119834898Y-93101452D01*
X119802638Y-93089144D01*
X119795041Y-93085545D01*
X119783176Y-93077398D01*
X119774994Y-93064004D01*
X119769643Y-93040608D01*
X119766269Y-93002455D01*
X119764019Y-92944790D01*
X119762040Y-92862857D01*
X119761498Y-92838907D01*
X119759403Y-92763266D01*
X119756683Y-92710328D01*
X119752515Y-92675075D01*
X119746079Y-92652487D01*
X119736550Y-92637544D01*
X119723106Y-92625227D01*
X119683305Y-92603634D01*
X119634341Y-92599476D01*
X119590529Y-92615999D01*
X119559008Y-92650210D01*
X119546914Y-92699114D01*
X119546578Y-92712407D01*
X119539972Y-92736472D01*
X119520470Y-92740144D01*
X119482283Y-92725813D01*
X119473438Y-92721217D01*
X119449534Y-92694186D01*
X119449061Y-92653994D01*
X119471836Y-92598409D01*
X119492727Y-92568117D01*
X119546142Y-92525084D01*
X119612074Y-92500755D01*
X119682574Y-92497443D01*
X119749691Y-92517467D01*
G36*
X119749691Y-92517467D02*
G01*
X119754273Y-92520003D01*
X119791704Y-92549057D01*
X119825170Y-92586410D01*
X119831007Y-92594852D01*
X119842165Y-92614553D01*
X119850136Y-92637935D01*
X119855618Y-92670067D01*
X119859307Y-92716019D01*
X119861899Y-92780859D01*
X119864092Y-92869657D01*
X119864402Y-92884669D01*
X119865400Y-92981999D01*
X119863994Y-93050934D01*
X119860164Y-93091948D01*
X119853889Y-93105514D01*
X119834898Y-93101452D01*
X119802638Y-93089144D01*
X119795041Y-93085545D01*
X119783176Y-93077398D01*
X119774994Y-93064004D01*
X119769643Y-93040608D01*
X119766269Y-93002455D01*
X119764019Y-92944790D01*
X119762040Y-92862857D01*
X119761498Y-92838907D01*
X119759403Y-92763266D01*
X119756683Y-92710328D01*
X119752515Y-92675075D01*
X119746079Y-92652487D01*
X119736550Y-92637544D01*
X119723106Y-92625227D01*
X119683305Y-92603634D01*
X119634341Y-92599476D01*
X119590529Y-92615999D01*
X119559008Y-92650210D01*
X119546914Y-92699114D01*
X119546578Y-92712407D01*
X119539972Y-92736472D01*
X119520470Y-92740144D01*
X119482283Y-92725813D01*
X119473438Y-92721217D01*
X119449534Y-92694186D01*
X119449061Y-92653994D01*
X119471836Y-92598409D01*
X119492727Y-92568117D01*
X119546142Y-92525084D01*
X119612074Y-92500755D01*
X119682574Y-92497443D01*
X119749691Y-92517467D01*
G37*
X122851815Y-92852524D02*
X122853252Y-92964000D01*
X122853651Y-92996339D01*
X122854929Y-93104455D01*
X122855185Y-93187186D01*
X122853634Y-93247426D01*
X122849490Y-93288073D01*
X122841964Y-93312023D01*
X122830271Y-93322171D01*
X122813624Y-93321414D01*
X122791236Y-93312648D01*
X122762321Y-93298769D01*
X122756142Y-93295808D01*
X122730413Y-93281311D01*
X122716976Y-93264065D01*
X122711834Y-93235308D01*
X122710990Y-93186283D01*
X122710952Y-93098257D01*
X122620276Y-93098257D01*
X122564498Y-93095815D01*
X122520640Y-93085908D01*
X122484218Y-93065886D01*
X122481503Y-93063929D01*
X122444546Y-93030869D01*
X122418826Y-92990931D01*
X122402606Y-92938657D01*
X122394148Y-92868588D01*
X122392083Y-92789430D01*
X122536857Y-92789430D01*
X122536882Y-92802697D01*
X122538261Y-92862584D01*
X122542687Y-92901732D01*
X122551461Y-92927153D01*
X122565886Y-92945857D01*
X122566784Y-92946750D01*
X122602237Y-92970952D01*
X122636596Y-92968567D01*
X122675403Y-92939260D01*
X122684895Y-92929244D01*
X122698876Y-92908708D01*
X122706760Y-92881997D01*
X122710245Y-92841499D01*
X122711029Y-92779603D01*
X122710350Y-92742130D01*
X122702983Y-92673980D01*
X122686168Y-92629330D01*
X122658234Y-92604926D01*
X122617509Y-92597514D01*
X122600350Y-92599094D01*
X122570660Y-92614766D01*
X122551031Y-92649691D01*
X122540188Y-92706901D01*
X122536857Y-92789430D01*
X122392083Y-92789430D01*
X122391714Y-92775267D01*
X122392253Y-92707169D01*
X122394707Y-92655587D01*
X122400158Y-92619816D01*
X122409686Y-92593015D01*
X122424371Y-92568338D01*
X122437852Y-92549480D01*
X122486799Y-92498568D01*
X122542256Y-92470918D01*
X122611928Y-92462165D01*
X122691664Y-92470890D01*
X122760595Y-92502185D01*
X122815113Y-92557381D01*
X122819223Y-92563224D01*
X122828808Y-92578753D01*
X122836151Y-92596498D01*
X122841612Y-92620290D01*
X122845550Y-92653958D01*
X122848323Y-92701333D01*
X122850292Y-92766245D01*
X122850528Y-92779603D01*
X122851815Y-92852524D01*
G36*
X122851815Y-92852524D02*
G01*
X122853252Y-92964000D01*
X122853651Y-92996339D01*
X122854929Y-93104455D01*
X122855185Y-93187186D01*
X122853634Y-93247426D01*
X122849490Y-93288073D01*
X122841964Y-93312023D01*
X122830271Y-93322171D01*
X122813624Y-93321414D01*
X122791236Y-93312648D01*
X122762321Y-93298769D01*
X122756142Y-93295808D01*
X122730413Y-93281311D01*
X122716976Y-93264065D01*
X122711834Y-93235308D01*
X122710990Y-93186283D01*
X122710952Y-93098257D01*
X122620276Y-93098257D01*
X122564498Y-93095815D01*
X122520640Y-93085908D01*
X122484218Y-93065886D01*
X122481503Y-93063929D01*
X122444546Y-93030869D01*
X122418826Y-92990931D01*
X122402606Y-92938657D01*
X122394148Y-92868588D01*
X122392083Y-92789430D01*
X122536857Y-92789430D01*
X122536882Y-92802697D01*
X122538261Y-92862584D01*
X122542687Y-92901732D01*
X122551461Y-92927153D01*
X122565886Y-92945857D01*
X122566784Y-92946750D01*
X122602237Y-92970952D01*
X122636596Y-92968567D01*
X122675403Y-92939260D01*
X122684895Y-92929244D01*
X122698876Y-92908708D01*
X122706760Y-92881997D01*
X122710245Y-92841499D01*
X122711029Y-92779603D01*
X122710350Y-92742130D01*
X122702983Y-92673980D01*
X122686168Y-92629330D01*
X122658234Y-92604926D01*
X122617509Y-92597514D01*
X122600350Y-92599094D01*
X122570660Y-92614766D01*
X122551031Y-92649691D01*
X122540188Y-92706901D01*
X122536857Y-92789430D01*
X122392083Y-92789430D01*
X122391714Y-92775267D01*
X122392253Y-92707169D01*
X122394707Y-92655587D01*
X122400158Y-92619816D01*
X122409686Y-92593015D01*
X122424371Y-92568338D01*
X122437852Y-92549480D01*
X122486799Y-92498568D01*
X122542256Y-92470918D01*
X122611928Y-92462165D01*
X122691664Y-92470890D01*
X122760595Y-92502185D01*
X122815113Y-92557381D01*
X122819223Y-92563224D01*
X122828808Y-92578753D01*
X122836151Y-92596498D01*
X122841612Y-92620290D01*
X122845550Y-92653958D01*
X122848323Y-92701333D01*
X122850292Y-92766245D01*
X122850528Y-92779603D01*
X122851815Y-92852524D01*
G37*
D16*
G04 #@! TO.C,TP4*
X116266000Y-90678000D02*
G75*
G03*
X116266000Y-90678000I-950000J0D01*
G01*
G04 #@! TO.C,TP8*
X119568000Y-105918000D02*
G75*
G03*
X119568000Y-105918000I-950000J0D01*
G01*
G04 #@! TO.C,TP9*
X117028000Y-102362000D02*
G75*
G03*
X117028000Y-102362000I-950000J0D01*
G01*
G04 #@! TO.C,TP16*
X127061000Y-93091000D02*
G75*
G03*
X127061000Y-93091000I-950000J0D01*
G01*
G04 #@! TO.C,TP15*
X128839000Y-84963000D02*
G75*
G03*
X128839000Y-84963000I-950000J0D01*
G01*
G04 #@! TO.C,TP5*
X137348000Y-99822000D02*
G75*
G03*
X137348000Y-99822000I-950000J0D01*
G01*
G04 #@! TO.C,TP11*
X135951000Y-91694000D02*
G75*
G03*
X135951000Y-91694000I-950000J0D01*
G01*
G04 #@! TO.C,TP2*
X134808000Y-104648000D02*
G75*
G03*
X134808000Y-104648000I-950000J0D01*
G01*
G04 #@! TO.C,TP14*
X126426000Y-86614000D02*
G75*
G03*
X126426000Y-86614000I-950000J0D01*
G01*
G04 #@! TO.C,TP6*
X113472000Y-96774000D02*
G75*
G03*
X113472000Y-96774000I-950000J0D01*
G01*
G04 #@! TO.C,TP3*
X111059000Y-90678000D02*
G75*
G03*
X111059000Y-90678000I-950000J0D01*
G01*
G04 #@! TO.C,TP13*
X139126000Y-97536000D02*
G75*
G03*
X139126000Y-97536000I-950000J0D01*
G01*
G04 #@! TO.C,TP1*
X137094000Y-107442000D02*
G75*
G03*
X137094000Y-107442000I-950000J0D01*
G01*
G04 #@! TO.C,TP10*
X119314000Y-98806000D02*
G75*
G03*
X119314000Y-98806000I-950000J0D01*
G01*
G04 #@! TO.C,TP12*
X126299000Y-89789000D02*
G75*
G03*
X126299000Y-89789000I-950000J0D01*
G01*
G04 #@! TD*
M02*
