G04 #@! TF.GenerationSoftware,KiCad,Pcbnew,7.0.5-0*
G04 #@! TF.CreationDate,2024-02-05T02:53:32-05:00*
G04 #@! TF.ProjectId,boostlet,626f6f73-746c-4657-942e-6b696361645f,rev?*
G04 #@! TF.SameCoordinates,Original*
G04 #@! TF.FileFunction,Soldermask,Bot*
G04 #@! TF.FilePolarity,Negative*
%FSLAX46Y46*%
G04 Gerber Fmt 4.6, Leading zero omitted, Abs format (unit mm)*
G04 Created by KiCad (PCBNEW 7.0.5-0) date 2024-02-05 02:53:32*
%MOMM*%
%LPD*%
G01*
G04 APERTURE LIST*
G04 Aperture macros list*
%AMRoundRect*
0 Rectangle with rounded corners*
0 $1 Rounding radius*
0 $2 $3 $4 $5 $6 $7 $8 $9 X,Y pos of 4 corners*
0 Add a 4 corners polygon primitive as box body*
4,1,4,$2,$3,$4,$5,$6,$7,$8,$9,$2,$3,0*
0 Add four circle primitives for the rounded corners*
1,1,$1+$1,$2,$3*
1,1,$1+$1,$4,$5*
1,1,$1+$1,$6,$7*
1,1,$1+$1,$8,$9*
0 Add four rect primitives between the rounded corners*
20,1,$1+$1,$2,$3,$4,$5,0*
20,1,$1+$1,$4,$5,$6,$7,0*
20,1,$1+$1,$6,$7,$8,$9,0*
20,1,$1+$1,$8,$9,$2,$3,0*%
G04 Aperture macros list end*
%ADD10RoundRect,0.425000X0.425000X-1.425000X0.425000X1.425000X-0.425000X1.425000X-0.425000X-1.425000X0*%
%ADD11RoundRect,0.425000X1.425000X0.425000X-1.425000X0.425000X-1.425000X-0.425000X1.425000X-0.425000X0*%
%ADD12RoundRect,0.425000X-1.425000X-0.425000X1.425000X-0.425000X1.425000X0.425000X-1.425000X0.425000X0*%
%ADD13C,1.500000*%
G04 APERTURE END LIST*
D10*
G04 #@! TO.C,J1*
X107696000Y-113808000D03*
X110236000Y-113808000D03*
X112776000Y-113808000D03*
X115316000Y-113808000D03*
X117856000Y-113808000D03*
X120396000Y-113808000D03*
X122936000Y-113808000D03*
X125476000Y-113808000D03*
X128016000Y-113808000D03*
X130556000Y-113808000D03*
X133096000Y-113808000D03*
X135636000Y-113808000D03*
X138176000Y-113808000D03*
G04 #@! TD*
D11*
G04 #@! TO.C,J3*
X142637000Y-108204000D03*
X142637000Y-105664000D03*
X142637000Y-103124000D03*
X142637000Y-100584000D03*
X142637000Y-98044000D03*
G04 #@! TD*
D12*
G04 #@! TO.C,J2*
X104124000Y-81554000D03*
X104124000Y-84094000D03*
X104124000Y-86634000D03*
X104124000Y-89174000D03*
X104124000Y-91714000D03*
X104124000Y-94254000D03*
X104124000Y-96794000D03*
G04 #@! TD*
D13*
G04 #@! TO.C,TP4*
X115316000Y-90678000D03*
G04 #@! TD*
G04 #@! TO.C,TP8*
X118618000Y-105918000D03*
G04 #@! TD*
G04 #@! TO.C,TP9*
X116078000Y-102362000D03*
G04 #@! TD*
G04 #@! TO.C,TP16*
X126111000Y-93091000D03*
G04 #@! TD*
G04 #@! TO.C,TP15*
X127889000Y-84963000D03*
G04 #@! TD*
G04 #@! TO.C,TP5*
X136398000Y-99822000D03*
G04 #@! TD*
G04 #@! TO.C,TP11*
X135001000Y-91694000D03*
G04 #@! TD*
G04 #@! TO.C,TP2*
X133858000Y-104648000D03*
G04 #@! TD*
G04 #@! TO.C,TP14*
X125476000Y-86614000D03*
G04 #@! TD*
G04 #@! TO.C,TP6*
X112522000Y-96774000D03*
G04 #@! TD*
G04 #@! TO.C,TP3*
X110109000Y-90678000D03*
G04 #@! TD*
G04 #@! TO.C,TP13*
X138176000Y-97536000D03*
G04 #@! TD*
G04 #@! TO.C,TP1*
X136144000Y-107442000D03*
G04 #@! TD*
G04 #@! TO.C,TP10*
X118364000Y-98806000D03*
G04 #@! TD*
G04 #@! TO.C,TP12*
X125349000Y-89789000D03*
G04 #@! TD*
M02*
